G04 EAGLE Gerber RS-274X export*
G75*
%MOMM*%
%FSLAX34Y34*%
%LPD*%
%INSolderpaste Bottom*%
%IPPOS*%
%AMOC8*
5,1,8,0,0,1.08239X$1,22.5*%
G01*
%ADD10R,0.500000X1.000000*%
%ADD11R,0.720000X0.780000*%
%ADD12R,1.050000X1.080000*%
%ADD13R,1.050000X1.200000*%
%ADD14R,1.050000X2.390000*%
%ADD15R,2.910000X0.550000*%


D10*
X85912Y68942D03*
X96912Y68942D03*
X107912Y68942D03*
X118912Y68942D03*
X129912Y68942D03*
X140912Y68942D03*
X151912Y68942D03*
X162912Y68942D03*
D11*
X67912Y95742D03*
D12*
X67912Y108442D03*
D13*
X67912Y134542D03*
X174662Y128842D03*
D14*
X174662Y96992D03*
D15*
X142862Y141292D03*
X100962Y141292D03*
D10*
X319592Y68942D03*
X330592Y68942D03*
X341592Y68942D03*
X352592Y68942D03*
X363592Y68942D03*
X374592Y68942D03*
X385592Y68942D03*
X396592Y68942D03*
D11*
X301592Y95742D03*
D12*
X301592Y108442D03*
D13*
X301592Y134542D03*
X408342Y128842D03*
D14*
X408342Y96992D03*
D15*
X376542Y141292D03*
X334642Y141292D03*
D10*
X553272Y68942D03*
X564272Y68942D03*
X575272Y68942D03*
X586272Y68942D03*
X597272Y68942D03*
X608272Y68942D03*
X619272Y68942D03*
X630272Y68942D03*
D11*
X535272Y95742D03*
D12*
X535272Y108442D03*
D13*
X535272Y134542D03*
X642022Y128842D03*
D14*
X642022Y96992D03*
D15*
X610222Y141292D03*
X568322Y141292D03*
D10*
X786952Y68942D03*
X797952Y68942D03*
X808952Y68942D03*
X819952Y68942D03*
X830952Y68942D03*
X841952Y68942D03*
X852952Y68942D03*
X863952Y68942D03*
D11*
X768952Y95742D03*
D12*
X768952Y108442D03*
D13*
X768952Y134542D03*
X875702Y128842D03*
D14*
X875702Y96992D03*
D15*
X843902Y141292D03*
X802002Y141292D03*
D10*
X1020632Y68942D03*
X1031632Y68942D03*
X1042632Y68942D03*
X1053632Y68942D03*
X1064632Y68942D03*
X1075632Y68942D03*
X1086632Y68942D03*
X1097632Y68942D03*
D11*
X1002632Y95742D03*
D12*
X1002632Y108442D03*
D13*
X1002632Y134542D03*
X1109382Y128842D03*
D14*
X1109382Y96992D03*
D15*
X1077582Y141292D03*
X1035682Y141292D03*
D10*
X1254312Y68942D03*
X1265312Y68942D03*
X1276312Y68942D03*
X1287312Y68942D03*
X1298312Y68942D03*
X1309312Y68942D03*
X1320312Y68942D03*
X1331312Y68942D03*
D11*
X1236312Y95742D03*
D12*
X1236312Y108442D03*
D13*
X1236312Y134542D03*
X1343062Y128842D03*
D14*
X1343062Y96992D03*
D15*
X1311262Y141292D03*
X1269362Y141292D03*
D10*
X1487992Y68942D03*
X1498992Y68942D03*
X1509992Y68942D03*
X1520992Y68942D03*
X1531992Y68942D03*
X1542992Y68942D03*
X1553992Y68942D03*
X1564992Y68942D03*
D11*
X1469992Y95742D03*
D12*
X1469992Y108442D03*
D13*
X1469992Y134542D03*
X1576742Y128842D03*
D14*
X1576742Y96992D03*
D15*
X1544942Y141292D03*
X1503042Y141292D03*
D10*
X142688Y1188358D03*
X131688Y1188358D03*
X120688Y1188358D03*
X109688Y1188358D03*
X98688Y1188358D03*
X87688Y1188358D03*
X76688Y1188358D03*
X65688Y1188358D03*
D11*
X160688Y1161558D03*
D12*
X160688Y1148858D03*
D13*
X160688Y1122758D03*
X53938Y1128458D03*
D14*
X53938Y1160308D03*
D15*
X85738Y1116008D03*
X127638Y1116008D03*
D10*
X376368Y1188358D03*
X365368Y1188358D03*
X354368Y1188358D03*
X343368Y1188358D03*
X332368Y1188358D03*
X321368Y1188358D03*
X310368Y1188358D03*
X299368Y1188358D03*
D11*
X394368Y1161558D03*
D12*
X394368Y1148858D03*
D13*
X394368Y1122758D03*
X287618Y1128458D03*
D14*
X287618Y1160308D03*
D15*
X319418Y1116008D03*
X361318Y1116008D03*
D10*
X610048Y1188358D03*
X599048Y1188358D03*
X588048Y1188358D03*
X577048Y1188358D03*
X566048Y1188358D03*
X555048Y1188358D03*
X544048Y1188358D03*
X533048Y1188358D03*
D11*
X628048Y1161558D03*
D12*
X628048Y1148858D03*
D13*
X628048Y1122758D03*
X521298Y1128458D03*
D14*
X521298Y1160308D03*
D15*
X553098Y1116008D03*
X594998Y1116008D03*
D10*
X843728Y1188358D03*
X832728Y1188358D03*
X821728Y1188358D03*
X810728Y1188358D03*
X799728Y1188358D03*
X788728Y1188358D03*
X777728Y1188358D03*
X766728Y1188358D03*
D11*
X861728Y1161558D03*
D12*
X861728Y1148858D03*
D13*
X861728Y1122758D03*
X754978Y1128458D03*
D14*
X754978Y1160308D03*
D15*
X786778Y1116008D03*
X828678Y1116008D03*
D10*
X1077408Y1188358D03*
X1066408Y1188358D03*
X1055408Y1188358D03*
X1044408Y1188358D03*
X1033408Y1188358D03*
X1022408Y1188358D03*
X1011408Y1188358D03*
X1000408Y1188358D03*
D11*
X1095408Y1161558D03*
D12*
X1095408Y1148858D03*
D13*
X1095408Y1122758D03*
X988658Y1128458D03*
D14*
X988658Y1160308D03*
D15*
X1020458Y1116008D03*
X1062358Y1116008D03*
D10*
X1311088Y1188358D03*
X1300088Y1188358D03*
X1289088Y1188358D03*
X1278088Y1188358D03*
X1267088Y1188358D03*
X1256088Y1188358D03*
X1245088Y1188358D03*
X1234088Y1188358D03*
D11*
X1329088Y1161558D03*
D12*
X1329088Y1148858D03*
D13*
X1329088Y1122758D03*
X1222338Y1128458D03*
D14*
X1222338Y1160308D03*
D15*
X1254138Y1116008D03*
X1296038Y1116008D03*
D10*
X1544768Y1188358D03*
X1533768Y1188358D03*
X1522768Y1188358D03*
X1511768Y1188358D03*
X1500768Y1188358D03*
X1489768Y1188358D03*
X1478768Y1188358D03*
X1467768Y1188358D03*
D11*
X1562768Y1161558D03*
D12*
X1562768Y1148858D03*
D13*
X1562768Y1122758D03*
X1456018Y1128458D03*
D14*
X1456018Y1160308D03*
D15*
X1487818Y1116008D03*
X1529718Y1116008D03*
M02*
