M48
;GenerationSoftware,Autodesk,EAGLE,9.6.2*%
;CreationDate,2022-05-26T20:22:17Z*%
FMAT,2
ICI,OFF
METRIC,TZ,000.000
T6C0.305
T5C0.350
T4C0.400
T3C0.650
T2C1.016
T1C3.048
%
G90
M71
T1
X72644Y65278
X90424Y65278
X72644Y2540
X90424Y2540
X72644Y128016
X90424Y128016
X2540Y65278
X20320Y65278
X2540Y128016
X20320Y128016
X25908Y65278
X43688Y65278
X49276Y128016
X67056Y128016
X2540Y2540
X20320Y2540
X49276Y65278
X67056Y65278
X25908Y2540
X43688Y2540
X25908Y128016
X43688Y128016
X49276Y2540
X67056Y2540
T2
X91694Y76708
X71374Y86868
X71374Y89408
X71374Y91948
X71374Y177546
X71374Y94488
X71374Y97028
X71374Y99568
X71374Y102108
X71374Y104648
X71374Y107188
X71374Y109728
X71374Y112268
X71374Y114808
X21590Y177546
X21590Y175006
X21590Y172466
X21590Y169926
X21590Y167386
X21590Y164846
X21590Y162306
X21590Y159766
X21590Y157226
X21590Y154686
X21590Y152146
X21590Y149606
X21590Y147066
X21590Y144526
X21590Y141986
X21590Y139446
X1270Y149606
X1270Y152146
X1270Y154686
X1270Y157226
X1270Y159766
X1270Y162306
X1270Y164846
X1270Y167386
X1270Y169926
X1270Y172466
X1270Y175006
X1270Y177546
X44958Y177546
X44958Y175006
X44958Y172466
X44958Y169926
X44958Y167386
X44958Y164846
X44958Y162306
X44958Y159766
X44958Y157226
X44958Y154686
X44958Y152146
X44958Y149606
X44958Y147066
X44958Y144526
X44958Y141986
X44958Y139446
X24638Y149606
X24638Y152146
X24638Y154686
X24638Y157226
X24638Y159766
X24638Y162306
X71374Y46990
X24638Y164846
X24638Y167386
X24638Y169926
X24638Y172466
X24638Y177546
X68326Y177546
X68326Y175006
X21590Y19050
X68326Y172466
X68326Y169926
X68326Y167386
X68326Y164846
X68326Y162306
X68326Y159766
X68326Y157226
X68326Y154686
X68326Y152146
X68326Y149606
X68326Y147066
X68326Y144526
X68326Y141986
X68326Y139446
X48006Y149606
X48006Y152146
X48006Y154686
X48006Y157226
X48006Y159766
X48006Y162306
X48006Y164846
X48006Y167386
X48006Y169926
X48006Y172466
X48006Y175006
X48006Y177546
X91694Y177546
X91694Y175006
X91694Y172466
X91694Y169926
X91694Y167386
X91694Y164846
X91694Y162306
X91694Y159766
X91694Y157226
X91694Y154686
X91694Y152146
X91694Y149606
X91694Y147066
X91694Y144526
X91694Y141986
X21590Y52070
X21590Y49530
X21590Y46990
X21590Y44450
X21590Y41910
X21590Y39370
X21590Y36830
X21590Y34290
X21590Y31750
X21590Y29210
X21590Y26670
X21590Y24130
X21590Y21590
X21590Y16510
X21590Y13970
X1270Y24130
X1270Y26670
X1270Y29210
X1270Y31750
X1270Y34290
X1270Y36830
X1270Y39370
X1270Y41910
X1270Y44450
X1270Y46990
X1270Y49530
X1270Y52070
X91694Y139446
X71374Y149606
X71374Y152146
X71374Y154686
X44958Y52070
X44958Y49530
X44958Y46990
X44958Y44450
X44958Y41910
X44958Y39370
X44958Y36830
X44958Y34290
X44958Y31750
X44958Y29210
X44958Y26670
X44958Y24130
X44958Y21590
X44958Y19050
X44958Y16510
X44958Y13970
X24638Y24130
X24638Y26670
X24638Y29210
X24638Y31750
X24638Y34290
X24638Y36830
X24638Y39370
X24638Y41910
X24638Y44450
X24638Y46990
X24638Y49530
X24638Y52070
X71374Y157226
X71374Y159766
X71374Y162306
X71374Y164846
X68326Y52070
X68326Y49530
X68326Y46990
X68326Y44450
X68326Y41910
X68326Y39370
X68326Y36830
X68326Y34290
X68326Y31750
X68326Y29210
X68326Y26670
X68326Y24130
X68326Y21590
X68326Y19050
X68326Y16510
X68326Y13970
X48006Y24130
X48006Y26670
X48006Y29210
X48006Y31750
X48006Y34290
X48006Y36830
X48006Y39370
X48006Y41910
X48006Y44450
X48006Y46990
X48006Y49530
X48006Y52070
X71374Y167386
X71374Y169926
X71374Y172466
X71374Y175006
X91694Y52070
X91694Y49530
X91694Y46990
X91694Y44450
X91694Y41910
X91694Y39370
X91694Y36830
X91694Y34290
X91694Y31750
X91694Y29210
X91694Y26670
X91694Y24130
X91694Y21590
X91694Y19050
X91694Y16510
X91694Y13970
X71374Y24130
X71374Y26670
X71374Y29210
X71374Y31750
X71374Y34290
X71374Y36830
X71374Y39370
X71374Y41910
X71374Y44450
X24638Y175006
X71374Y49530
X71374Y52070
X21590Y114808
X21590Y112268
X21590Y109728
X21590Y107188
X21590Y104648
X21590Y102108
X21590Y99568
X21590Y97028
X21590Y94488
X21590Y91948
X21590Y89408
X21590Y86868
X21590Y84328
X21590Y81788
X21590Y79248
X21590Y76708
X1270Y86868
X1270Y89408
X1270Y91948
X1270Y94488
X1270Y97028
X1270Y99568
X1270Y102108
X1270Y104648
X1270Y107188
X1270Y109728
X1270Y112268
X1270Y114808
X44958Y114808
X44958Y112268
X44958Y109728
X44958Y107188
X44958Y104648
X44958Y102108
X44958Y99568
X44958Y97028
X44958Y94488
X44958Y91948
X44958Y89408
X44958Y86868
X44958Y84328
X44958Y81788
X44958Y79248
X44958Y76708
X24638Y86868
X24638Y89408
X24638Y91948
X24638Y94488
X24638Y97028
X24638Y99568
X24638Y102108
X24638Y104648
X24638Y107188
X24638Y109728
X24638Y112268
X24638Y114808
X68326Y114808
X68326Y112268
X68326Y109728
X68326Y107188
X68326Y104648
X68326Y102108
X68326Y99568
X68326Y97028
X68326Y94488
X68326Y91948
X68326Y89408
X68326Y86868
X68326Y84328
X68326Y81788
X68326Y79248
X68326Y76708
X48006Y86868
X48006Y89408
X48006Y91948
X48006Y94488
X48006Y97028
X48006Y99568
X48006Y102108
X48006Y104648
X48006Y107188
X48006Y109728
X48006Y112268
X48006Y114808
X91694Y114808
X91694Y112268
X91694Y109728
X91694Y107188
X91694Y104648
X91694Y102108
X91694Y99568
X91694Y97028
X91694Y94488
X91694Y91948
X91694Y89408
X91694Y86868
X91694Y84328
X91694Y81788
X91694Y79248
T3
X55276Y130229
X84424Y130229
X78644Y67491
X8540Y4753
X14320Y4753
X31908Y4753
X37688Y4753
X55276Y4753
X61056Y4753
X78644Y4753
X84424Y4753
X8540Y67491
X14320Y67491
X31908Y67491
X37688Y67491
X55276Y67491
X61056Y67491
X84424Y67491
X8540Y130229
X14320Y130229
X31908Y130229
X37688Y130229
X61056Y130229
X78644Y130229
T4
X15748Y126579
X7112Y1103
X15748Y1103
X15748Y5283
X7112Y5283
X30480Y1103
X39116Y1103
X39116Y5283
X30480Y5283
X53848Y1103
X62484Y1103
X62484Y5283
X53848Y5283
X77216Y1103
X85852Y1103
X85852Y5283
X77216Y5283
X62484Y126579
X62484Y130759
X77216Y126579
X85852Y126579
X85852Y130759
X77216Y130759
X53848Y130759
X53848Y68021
X30480Y63841
X39116Y63841
X39116Y68021
X30480Y68021
X7112Y126579
X15748Y130759
X7112Y130759
X77216Y63841
X85852Y63841
X85852Y68021
X77216Y68021
X7112Y63841
X15748Y63841
X15748Y68021
X7112Y68021
X30480Y126579
X39116Y126579
X39116Y130759
X30480Y130759
X53848Y63841
X62484Y63841
X62484Y68021
X53848Y126579
T5
X65202Y167361
X65151Y164313
X65227Y169494
X69015Y180340
X91916Y182801
X81788Y142494
X41783Y38837
X88570Y167361
X88519Y164313
X88595Y169494
X92383Y180340
X39929Y76429
X22279Y117602
X45647Y117602
X58420Y17018
X63297Y13691
X41834Y104623
X65202Y41885
X11684Y79756
X22279Y54864
X21812Y57325
X65151Y38837
X65227Y44018
X45647Y54864
X35052Y17018
X86665Y139167
X39929Y13691
X91916Y57325
X41834Y41885
X16561Y76429
X41859Y44018
X45180Y182801
X45180Y120063
X18466Y104623
X65151Y101575
X18415Y101575
X81788Y17018
X11684Y17018
X16561Y13691
X86665Y13691
X18466Y41885
X45180Y57325
X18415Y38837
X18491Y44018
X18491Y106756
X88570Y41885
X21812Y120063
X88519Y38837
X69015Y54864
X88595Y44018
X41783Y101575
X41859Y106756
X68548Y57325
X58420Y79756
X68548Y120063
X92383Y54864
X63297Y76429
X65227Y106756
X65202Y104623
X69015Y117602
X91916Y120063
X81788Y79756
X86665Y76429
X88570Y104623
X18466Y167361
X88519Y101575
X88595Y106756
X92383Y117602
X21812Y182801
X11684Y142494
X16561Y139167
X18415Y164313
X18491Y169494
X22279Y180340
X35052Y142494
X39929Y139167
X41834Y167361
X41783Y164313
X41859Y169494
X45647Y180340
X68548Y182801
X35052Y79756
X58420Y142494
X63297Y139167
T6
X47498Y43180
X48768Y40640
X48768Y38100
X53543Y39497
X53340Y36855
X52070Y35560
X48768Y35560
X48768Y33020
X57150Y38608
X58928Y38862
X59309Y36474
X52070Y38862
X48768Y30480
X48768Y27940
X49022Y25400
X48006Y22606
X49022Y18034
X49200Y12979
X50546Y11938
X48006Y7366
X56896Y31750
X54559Y31725
X54610Y29972
X51054Y45187
X58166Y52324
X53594Y52832
X50038Y52832
X67005Y52553
X65913Y33401
X60706Y40640
X58674Y40386
X53594Y41656
X64262Y43688
X64516Y45212
X64516Y46482
X63754Y49276
X63500Y52070
X61722Y50292
X53594Y43434
X53594Y45466
X52070Y43434
X52070Y40005
X52070Y37338
X51308Y30226
X58166Y19050
X54864Y14224
X67818Y12446
X68326Y8890
X64668Y7188
X47752Y4826
X63754Y5842
X67564Y15240
X67564Y17780
X67564Y20320
X67564Y22860
X64262Y25400
X68834Y25400
X54356Y9398
X56388Y27940
X51054Y43917
X64516Y47752
X65253Y36373
X64694Y35560
X56388Y24333
X58420Y559
X67564Y11430
X68580Y9906
X57112Y26162
X51181Y29210
X57112Y18161
X53086Y25400
X56667Y4189
X49022Y7112
X48514Y9144
X64872Y30759
X66599Y15240
X66675Y19939
X66218Y8473
X64164Y40894
X64757Y40462
X65236Y41080
X59588Y37617
X58420Y51054
X64770Y42926
X63779Y46990
X55643Y14900
X63716Y45720
X54356Y11801
X52832Y30988
X51943Y49530
X53467Y49530
X50584Y12964
X63322Y48336
X51816Y36576
X51308Y35052
X63246Y49784
X59690Y50292
X60452Y37592
X63246Y51054
X60490Y50762
X60541Y38608
X62484Y44577
X62484Y52070
X52222Y52070
X52400Y14681
X52070Y31242
X58420Y4826
X59461Y8458
X59700Y4943
X63500Y4572
X56642Y4951
X52324Y3658
X54394Y28448
X61976Y16383
X50292Y9398
X50546Y26670
X51816Y34290
X60198Y34290
X60198Y23622
X60960Y52324
X61265Y35103
X65253Y37592
X58166Y8047
X63754Y11301
X65227Y12497
X64282Y14757
X65024Y49276
X61722Y8458
X64008Y6706
X63694Y40132
X55880Y38633
X56718Y30480
X51308Y22860
X55372Y28448
X59563Y25400
X57658Y50292
X81534Y24130
X79832Y50101
X80010Y52832
X88265Y53048
X92354Y53264
X84201Y18288
X76962Y36195
X81534Y36195
X74676Y16002
X77724Y8382
X80886Y8382
X89256Y13970
X89154Y23114
X84836Y48006
X83566Y24384
X74422Y16764
X73914Y10414
X76073Y6452
X76200Y1702
X76276Y11963
X85344Y20701
X88671Y22454
X84709Y27305
X84709Y31115
X89281Y27838
X81280Y22860
X78029Y21057
X76454Y21717
X76454Y29210
X74930Y33020
X88417Y50775
X74549Y50927
X84582Y17272
X81788Y2286
X84074Y8052
X86614Y8458
X82296Y14224
X89027Y9398
X87757Y16764
X88646Y18364
X77724Y3175
X74473Y48819
X74498Y47828
X76987Y48362
X81280Y48362
X76987Y47396
X81280Y47396
X76962Y51054
X92202Y50800
X92202Y48260
X90932Y45720
X92202Y43180
X92202Y40640
X90932Y38100
X90932Y35560
X90932Y33020
X90932Y30480
X92202Y27940
X87630Y27940
X82194Y35306
X80264Y35306
X78232Y35306
X72136Y50800
X72136Y48260
X72136Y45720
X70866Y43180
X72136Y40640
X72136Y38100
X76911Y39497
X76708Y36855
X75438Y35560
X72136Y35560
X72136Y33020
X80518Y38608
X82296Y38862
X82677Y36474
X75438Y38862
X72136Y30480
X72136Y27940
X72390Y25400
X71374Y22606
X72390Y18034
X72568Y12979
X73914Y11938
X71374Y7366
X80264Y31750
X77927Y31725
X77978Y29972
X74422Y45187
X81534Y52324
X76962Y52832
X73406Y52832
X90373Y52553
X89281Y33401
X84074Y40640
X82042Y40386
X76962Y41656
X87630Y43688
X87884Y45212
X87884Y46482
X87122Y49276
X86868Y52070
X85090Y50292
X76962Y43434
X76962Y45466
X75438Y43434
X75438Y40005
X75438Y37338
X74676Y30226
X81534Y19050
X78232Y14224
X91186Y12446
X91694Y8890
X88036Y7188
X71120Y4826
X87122Y5842
X90932Y15240
X90932Y17780
X90932Y20320
X90932Y22860
X87630Y25400
X92202Y25400
X77724Y9398
X79756Y27940
X74422Y43917
X87884Y47752
X88621Y36373
X88062Y35560
X79756Y24333
X81788Y559
X90932Y11430
X91948Y9906
X80480Y26162
X74549Y29210
X80480Y18161
X76454Y25400
X80035Y4189
X72390Y7112
X71882Y9144
X88240Y30759
X89967Y15240
X90043Y19939
X89586Y8473
X87532Y40894
X88125Y40462
X88604Y41080
X82956Y37617
X81788Y51054
X88138Y42926
X87147Y46990
X79012Y14900
X87084Y45720
X77724Y11801
X76200Y30988
X75311Y49530
X76835Y49530
X73952Y12964
X86690Y48336
X75184Y36576
X74676Y35052
X86614Y49784
X83058Y50292
X83820Y37592
X86614Y51054
X83858Y50762
X83909Y38608
X85852Y44577
X85852Y52070
X75590Y52070
X75768Y14681
X75438Y31242
X81788Y4826
X82829Y8458
X83068Y4943
X86868Y4572
X80010Y4951
X75692Y3658
X77762Y28448
X85344Y16383
X73660Y9398
X73914Y26670
X75184Y34290
X83566Y34290
X83566Y23622
X84328Y52324
X84633Y35103
X88621Y37592
X81534Y8047
X87122Y11301
X88595Y12497
X87650Y14757
X88392Y49276
X85090Y8458
X87376Y6706
X87062Y40132
X79248Y38633
X80086Y30480
X74676Y22860
X78740Y28448
X82931Y25400
X81026Y50292
X11430Y86868
X9728Y112839
X9906Y115570
X18161Y115786
X22250Y116002
X14097Y81026
X6858Y98933
X11430Y98933
X4572Y78740
X7620Y71120
X10782Y71120
X19152Y76708
X19050Y85852
X14732Y110744
X13462Y87122
X4318Y79502
X3810Y73152
X5969Y69190
X6096Y64440
X6172Y74701
X15240Y83439
X18567Y85192
X14605Y90043
X14605Y93853
X19177Y90576
X11176Y85598
X7925Y83795
X6350Y84455
X6350Y91948
X4826Y95758
X18313Y113513
X4445Y113665
X14478Y80010
X11684Y65024
X13970Y70790
X16510Y71196
X12192Y76962
X18923Y72136
X17653Y79502
X18542Y81102
X7620Y65913
X4369Y111557
X4394Y110566
X6883Y111100
X11176Y111100
X6883Y110134
X11176Y110134
X6858Y113792
X22098Y113538
X22098Y110998
X20828Y108458
X22098Y105918
X22098Y103378
X20828Y100838
X20828Y98298
X20828Y95758
X20828Y93218
X22098Y90678
X17526Y90678
X12090Y98044
X10160Y98044
X8128Y98044
X2032Y113538
X2032Y110998
X2032Y108458
X762Y105918
X2032Y103378
X2032Y100838
X6807Y102235
X6604Y99593
X5334Y98298
X2032Y98298
X2032Y95758
X10414Y101346
X12192Y101600
X12573Y99212
X5334Y101600
X2032Y93218
X2032Y90678
X2286Y88138
X1270Y85344
X2286Y80772
X2464Y75717
X3810Y74676
X1270Y70104
X10160Y94488
X7823Y94463
X7874Y92710
X4318Y107925
X11430Y115062
X6858Y115570
X3302Y115570
X20269Y115291
X19177Y96139
X13970Y103378
X11938Y103124
X6858Y104394
X17526Y106426
X17780Y107950
X17780Y109220
X17018Y112014
X16764Y114808
X14986Y113030
X6858Y106172
X6858Y108204
X5334Y106172
X5334Y102743
X5334Y100076
X4572Y92964
X11430Y81788
X8128Y76962
X21082Y75184
X21590Y71628
X17932Y69926
X1016Y67564
X17018Y68580
X20828Y77978
X20828Y80518
X20828Y83058
X20828Y85598
X17526Y88138
X22098Y88138
X7620Y72136
X9652Y90678
X4318Y106655
X17780Y110490
X18517Y99111
X17958Y98298
X9652Y87071
X11684Y63297
X20828Y74168
X21844Y72644
X10376Y88900
X4445Y91948
X10376Y80899
X6350Y88138
X9931Y66927
X2286Y69850
X1778Y71882
X18136Y93497
X19863Y77978
X19939Y82677
X19482Y71211
X17428Y103632
X18021Y103200
X18500Y103818
X12852Y100355
X11684Y113792
X18034Y105664
X17043Y109728
X8908Y77638
X16980Y108458
X7620Y74539
X6096Y93726
X5207Y112268
X6731Y112268
X3848Y75702
X16586Y111074
X5080Y99314
X4572Y97790
X16510Y112522
X12954Y113030
X13716Y100330
X16510Y113792
X13754Y113500
X13805Y101346
X15748Y107315
X15748Y114808
X5486Y114808
X5664Y77419
X5334Y93980
X11684Y67564
X12725Y71196
X12964Y67681
X16764Y67310
X9906Y67689
X5588Y66396
X7658Y91186
X15240Y79121
X3556Y72136
X3810Y89408
X5080Y97028
X13462Y97028
X13462Y86360
X14224Y115062
X14529Y97841
X18517Y100330
X11430Y70785
X17018Y74039
X18491Y75235
X17547Y77495
X18288Y112014
X14986Y71196
X17272Y69444
X16958Y102870
X9144Y101371
X9982Y93218
X4572Y85598
X8636Y91186
X12827Y88138
X10922Y113030
X34798Y86868
X33096Y112839
X33274Y115570
X41529Y115786
X45618Y116002
X37465Y81026
X30226Y98933
X34798Y98933
X27940Y78740
X30988Y71120
X34150Y71120
X42520Y76708
X42418Y85852
X38100Y110744
X36830Y87122
X27686Y79502
X27178Y73152
X29337Y69190
X29464Y64440
X29540Y74701
X38608Y83439
X41935Y85192
X37973Y90043
X37973Y93853
X42545Y90576
X34544Y85598
X31293Y83795
X29718Y84455
X29718Y91948
X28194Y95758
X41681Y113513
X27813Y113665
X37846Y80010
X35052Y65024
X37338Y70790
X39878Y71196
X35560Y76962
X42291Y72136
X41021Y79502
X41910Y81102
X30988Y65913
X27737Y111557
X27762Y110566
X30251Y111100
X34544Y111100
X30251Y110134
X34544Y110134
X30226Y113792
X45466Y113538
X45466Y110998
X44196Y108458
X45466Y105918
X45466Y103378
X44196Y100838
X44196Y98298
X44196Y95758
X44196Y93218
X45466Y90678
X40894Y90678
X35458Y98044
X33528Y98044
X31496Y98044
X25400Y113538
X25400Y110998
X25400Y108458
X24130Y105918
X25400Y103378
X25400Y100838
X30175Y102235
X29972Y99593
X28702Y98298
X25400Y98298
X25400Y95758
X33782Y101346
X35560Y101600
X35941Y99212
X28702Y101600
X25400Y93218
X25400Y90678
X25654Y88138
X24638Y85344
X25654Y80772
X25832Y75717
X27178Y74676
X24638Y70104
X33528Y94488
X31191Y94463
X31242Y92710
X27686Y107925
X34798Y115062
X30226Y115570
X26670Y115570
X43637Y115291
X42545Y96139
X37338Y103378
X35306Y103124
X30226Y104394
X40894Y106426
X41148Y107950
X41148Y109220
X40386Y112014
X40132Y114808
X38354Y113030
X30226Y106172
X30226Y108204
X28702Y106172
X28702Y102743
X28702Y100076
X27940Y92964
X34798Y81788
X31496Y76962
X44450Y75184
X44958Y71628
X41300Y69926
X24384Y67564
X40386Y68580
X44196Y77978
X44196Y80518
X44196Y83058
X44196Y85598
X40894Y88138
X45466Y88138
X30988Y72136
X33020Y90678
X27686Y106655
X41148Y110490
X41885Y99111
X41326Y98298
X33020Y87071
X35052Y63297
X44196Y74168
X45212Y72644
X33744Y88900
X27813Y91948
X33744Y80899
X29718Y88138
X33299Y66927
X25654Y69850
X25146Y71882
X41504Y93497
X43231Y77978
X43307Y82677
X42850Y71211
X40796Y103632
X41389Y103200
X41868Y103818
X36220Y100355
X35052Y113792
X41402Y105664
X40411Y109728
X32275Y77638
X40348Y108458
X30988Y74539
X29464Y93726
X28575Y112268
X30099Y112268
X27216Y75702
X39954Y111074
X28448Y99314
X27940Y97790
X39878Y112522
X36322Y113030
X37084Y100330
X39878Y113792
X37122Y113500
X37173Y101346
X39116Y107315
X39116Y114808
X28854Y114808
X29032Y77419
X28702Y93980
X35052Y67564
X36093Y71196
X36332Y67681
X40132Y67310
X33274Y67689
X28956Y66396
X31026Y91186
X38608Y79121
X26924Y72136
X27178Y89408
X28448Y97028
X36830Y97028
X36830Y86360
X37592Y115062
X37897Y97841
X41885Y100330
X34798Y70785
X40386Y74039
X41859Y75235
X40915Y77495
X41656Y112014
X38354Y71196
X40640Y69444
X40326Y102870
X32512Y101371
X33350Y93218
X27940Y85598
X32004Y91186
X36195Y88138
X34290Y113030
X58166Y86868
X56464Y112839
X56642Y115570
X64897Y115786
X68986Y116002
X60833Y81026
X53594Y98933
X58166Y98933
X51308Y78740
X54356Y71120
X57518Y71120
X65888Y76708
X65786Y85852
X61468Y110744
X60198Y87122
X51054Y79502
X50546Y73152
X52705Y69190
X52832Y64440
X52908Y74701
X61976Y83439
X65303Y85192
X61341Y90043
X61341Y93853
X65913Y90576
X57912Y85598
X54661Y83795
X53086Y84455
X53086Y91948
X51562Y95758
X65049Y113513
X51181Y113665
X61214Y80010
X58420Y65024
X60706Y70790
X63246Y71196
X58928Y76962
X65659Y72136
X64389Y79502
X65278Y81102
X54356Y65913
X51105Y111557
X51130Y110566
X53619Y111100
X57912Y111100
X53619Y110134
X57912Y110134
X53594Y113792
X68834Y113538
X68834Y110998
X67564Y108458
X68834Y105918
X68834Y103378
X67564Y100838
X67564Y98298
X67564Y95758
X67564Y93218
X68834Y90678
X64262Y90678
X58826Y98044
X56896Y98044
X54864Y98044
X48768Y113538
X48768Y110998
X48768Y108458
X47498Y105918
X48768Y103378
X48768Y100838
X53543Y102235
X53340Y99593
X52070Y98298
X48768Y98298
X48768Y95758
X57150Y101346
X58928Y101600
X59309Y99212
X52070Y101600
X48768Y93218
X48768Y90678
X49022Y88138
X48006Y85344
X49022Y80772
X49200Y75717
X50546Y74676
X48006Y70104
X56896Y94488
X54559Y94463
X54610Y92710
X51054Y107925
X58166Y115062
X53594Y115570
X50038Y115570
X67005Y115291
X65913Y96139
X60706Y103378
X58674Y103124
X53594Y104394
X64262Y106426
X64516Y107950
X64516Y109220
X63754Y112014
X63500Y114808
X61722Y113030
X53594Y106172
X53594Y108204
X52070Y106172
X52070Y102743
X52070Y100076
X51308Y92964
X58166Y81788
X54864Y76962
X67818Y75184
X68326Y71628
X64668Y69926
X47752Y67564
X63754Y68580
X67564Y77978
X67564Y80518
X67564Y83058
X67564Y85598
X64262Y88138
X68834Y88138
X54356Y72136
X56388Y90678
X51054Y106655
X64516Y110490
X65253Y99111
X64694Y98298
X56388Y87071
X58420Y63297
X67564Y74168
X68580Y72644
X57112Y88900
X51181Y91948
X57112Y80899
X53086Y88138
X56667Y66927
X49022Y69850
X48514Y71882
X64872Y93497
X66599Y77978
X66675Y82677
X66218Y71211
X64164Y103632
X64757Y103200
X65236Y103818
X59588Y100355
X58420Y113792
X64770Y105664
X63779Y109728
X55643Y77638
X63716Y108458
X54356Y74539
X52832Y93726
X51943Y112268
X53467Y112268
X50584Y75702
X63322Y111074
X51816Y99314
X51308Y97790
X63246Y112522
X59690Y113030
X60452Y100330
X63246Y113792
X60490Y113500
X60541Y101346
X62484Y107315
X62484Y114808
X52222Y114808
X52400Y77419
X52070Y93980
X58420Y67564
X59461Y71196
X59700Y67681
X63500Y67310
X56642Y67689
X52324Y66396
X54394Y91186
X61976Y79121
X50292Y72136
X50546Y89408
X51816Y97028
X60198Y97028
X60198Y86360
X60960Y115062
X61265Y97841
X65253Y100330
X58166Y70785
X63754Y74039
X65227Y75235
X64282Y77495
X65024Y112014
X61722Y71196
X64008Y69444
X63694Y102870
X55880Y101371
X56718Y93218
X51308Y85598
X55372Y91186
X59563Y88138
X57658Y113030
X81534Y86868
X79832Y112839
X80010Y115570
X88265Y115786
X92354Y116002
X84201Y81026
X76962Y98933
X81534Y98933
X30988Y11801
X77724Y71120
X80886Y71120
X11430Y24130
X89256Y76708
X89154Y85852
X84836Y110744
X83566Y87122
X74422Y79502
X73914Y73152
X76073Y69190
X76200Y64440
X76276Y74701
X85344Y83439
X88671Y85192
X84709Y90043
X84709Y93853
X89281Y90576
X81280Y85598
X78029Y83795
X76454Y84455
X76454Y91948
X74930Y95758
X88417Y113513
X74549Y113665
X84582Y80010
X81788Y65024
X84074Y70790
X86614Y71196
X82296Y76962
X89027Y72136
X87757Y79502
X88646Y81102
X77724Y65913
X74473Y111557
X74498Y110566
X76987Y111100
X81280Y111100
X76987Y110134
X81280Y110134
X76962Y113792
X92202Y113538
X92202Y110998
X90932Y108458
X92202Y105918
X92202Y103378
X90932Y100838
X90932Y98298
X90932Y95758
X90932Y93218
X92202Y90678
X87630Y90678
X82194Y98044
X80264Y98044
X78232Y98044
X72136Y113538
X72136Y110998
X72136Y108458
X70866Y105918
X72136Y103378
X72136Y100838
X76911Y102235
X76708Y99593
X75438Y98298
X72136Y98298
X72136Y95758
X80518Y101346
X82296Y101600
X82677Y99212
X75438Y101600
X72136Y93218
X72136Y90678
X72390Y88138
X71374Y85344
X72390Y80772
X72568Y75717
X73914Y74676
X71374Y70104
X80264Y94488
X77927Y94463
X77978Y92710
X74422Y107925
X81534Y115062
X76962Y115570
X73406Y115570
X90373Y115291
X89281Y96139
X84074Y103378
X82042Y103124
X76962Y104394
X87630Y106426
X87884Y107950
X87884Y109220
X87122Y112014
X86868Y114808
X85090Y113030
X76962Y106172
X76962Y108204
X75438Y106172
X75438Y102743
X75438Y100076
X74676Y92964
X81534Y81788
X78232Y76962
X91186Y75184
X91694Y71628
X88036Y69926
X71120Y67564
X87122Y68580
X90932Y77978
X90932Y80518
X90932Y83058
X90932Y85598
X87630Y88138
X92202Y88138
X77724Y72136
X79756Y90678
X9728Y50101
X9906Y52832
X74422Y106655
X18161Y53048
X87884Y110490
X22250Y53264
X14097Y18288
X88621Y99111
X88062Y98298
X79756Y87071
X81788Y63297
X90932Y74168
X91948Y72644
X80480Y88900
X74549Y91948
X80480Y80899
X76454Y88138
X80035Y66927
X72390Y69850
X71882Y71882
X88240Y93497
X89967Y77978
X90043Y82677
X89586Y71211
X87532Y103632
X88125Y103200
X88604Y103818
X82956Y100355
X81788Y113792
X88138Y105664
X87147Y109728
X79012Y77638
X87084Y108458
X77724Y74539
X76200Y93726
X75311Y112268
X76835Y112268
X73952Y75702
X86690Y111074
X75184Y99314
X74676Y97790
X86614Y112522
X83058Y113030
X83820Y100330
X86614Y113792
X83858Y113500
X83909Y101346
X85852Y107315
X85852Y114808
X75590Y114808
X75768Y77419
X75438Y93980
X81788Y67564
X82829Y71196
X83068Y67681
X86868Y67310
X80010Y67689
X75692Y66396
X77762Y91186
X85344Y79121
X73660Y72136
X73914Y89408
X75184Y97028
X83566Y97028
X83566Y86360
X84328Y115062
X84633Y97841
X88621Y100330
X81534Y70785
X87122Y74039
X88595Y75235
X87650Y77495
X88392Y112014
X85090Y71196
X87376Y69444
X87062Y102870
X79248Y101371
X6858Y36195
X80086Y93218
X74676Y85598
X78740Y91186
X82931Y88138
X81026Y113030
X11430Y149606
X9728Y175577
X9906Y178308
X18161Y178524
X22250Y178740
X14097Y143764
X6858Y161671
X11430Y161671
X4572Y141478
X7620Y133858
X10782Y133858
X11430Y36195
X19152Y139446
X19050Y148590
X14732Y173482
X13462Y149860
X4318Y142240
X3810Y135890
X5969Y131928
X6096Y127178
X6172Y137439
X15240Y146177
X18567Y147930
X14605Y152781
X14605Y156591
X19177Y153314
X11176Y148336
X7925Y146533
X6350Y147193
X6350Y154686
X4826Y158496
X18313Y176251
X4445Y176403
X14478Y142748
X11684Y127762
X13970Y133528
X16510Y133934
X12192Y139700
X18923Y134874
X17653Y142240
X18542Y143840
X7620Y128651
X4369Y174295
X4394Y173304
X6883Y173838
X11176Y173838
X6883Y172872
X11176Y172872
X6858Y176530
X22098Y176276
X22098Y173736
X20828Y171196
X22098Y168656
X22098Y166116
X20828Y163576
X20828Y161036
X20828Y158496
X20828Y155956
X22098Y153416
X17526Y153416
X12090Y160782
X10160Y160782
X8128Y160782
X2032Y176276
X2032Y173736
X2032Y171196
X762Y168656
X2032Y166116
X2032Y163576
X6807Y164973
X6604Y162331
X5334Y161036
X2032Y161036
X2032Y158496
X10414Y164084
X12192Y164338
X12573Y161950
X5334Y164338
X2032Y155956
X2032Y153416
X2286Y150876
X1270Y148082
X2286Y143510
X2464Y138455
X3810Y137414
X1270Y132842
X10160Y157226
X7823Y157201
X7874Y155448
X4318Y170663
X11430Y177800
X6858Y178308
X3302Y178308
X20269Y178029
X19177Y158877
X13970Y166116
X11938Y165862
X6858Y167132
X17526Y169164
X17780Y170688
X17780Y171958
X17018Y174752
X16764Y177546
X14986Y175768
X6858Y168910
X6858Y170942
X5334Y168910
X5334Y165481
X5334Y162814
X4572Y155702
X11430Y144526
X8128Y139700
X21082Y137922
X21590Y134366
X17932Y132664
X1016Y130302
X17018Y131318
X20828Y140716
X20828Y143256
X20828Y145796
X20828Y148336
X17526Y150876
X22098Y150876
X7620Y134874
X9652Y153416
X4572Y16002
X7620Y8382
X4318Y169393
X10782Y8382
X17780Y173228
X19152Y13970
X19050Y23114
X18517Y161849
X17958Y161036
X9652Y149809
X11684Y126035
X20828Y136906
X21844Y135382
X10376Y151638
X4445Y154686
X10376Y143637
X6350Y150876
X9931Y129665
X2286Y132588
X1778Y134620
X18136Y156235
X19863Y140716
X19939Y145415
X19482Y133949
X17428Y166370
X18021Y165938
X18500Y166556
X12852Y163093
X11684Y176530
X18034Y168402
X17043Y172466
X8908Y140376
X16980Y171196
X7620Y137277
X6096Y156464
X5207Y175006
X6731Y175006
X3848Y138440
X16586Y173812
X5080Y162052
X4572Y160528
X16510Y175260
X12954Y175768
X13716Y163068
X16510Y176530
X13754Y176238
X13805Y164084
X15748Y170053
X15748Y177546
X5486Y177546
X5664Y140157
X5334Y156718
X11684Y130302
X12725Y133934
X12964Y130419
X16764Y130048
X9906Y130427
X5588Y129134
X7658Y153924
X15240Y141859
X3556Y134874
X3810Y152146
X5080Y159766
X13462Y159766
X13462Y149098
X14224Y177800
X14529Y160579
X18517Y163068
X11430Y133523
X17018Y136777
X18491Y137973
X17547Y140233
X18288Y174752
X14986Y133934
X17272Y132182
X16958Y165608
X9144Y164109
X14732Y48006
X9982Y155956
X4572Y148336
X8636Y153924
X12827Y150876
X10922Y175768
X34798Y149606
X33096Y175577
X33274Y178308
X41529Y178524
X45618Y178740
X37465Y143764
X30226Y161671
X34798Y161671
X27940Y141478
X30988Y133858
X34150Y133858
X13462Y24384
X42520Y139446
X42418Y148590
X38100Y173482
X36830Y149860
X27686Y142240
X27178Y135890
X29337Y131928
X29464Y127178
X29540Y137439
X38608Y146177
X41935Y147930
X37973Y152781
X37973Y156591
X42545Y153314
X34544Y148336
X31293Y146533
X29718Y147193
X29718Y154686
X28194Y158496
X41681Y176251
X27813Y176403
X37846Y142748
X35052Y127762
X37338Y133528
X39878Y133934
X35560Y139700
X42291Y134874
X41021Y142240
X41910Y143840
X30988Y128651
X27737Y174295
X27762Y173304
X30251Y173838
X34544Y173838
X30251Y172872
X34544Y172872
X30226Y176530
X45466Y176276
X45466Y173736
X44196Y171196
X45466Y168656
X45466Y166116
X44196Y163576
X44196Y161036
X44196Y158496
X44196Y155956
X45466Y153416
X40894Y153416
X35458Y160782
X33528Y160782
X31496Y160782
X25400Y176276
X25400Y173736
X25400Y171196
X24130Y168656
X25400Y166116
X25400Y163576
X30175Y164973
X29972Y162331
X28702Y161036
X25400Y161036
X25400Y158496
X33782Y164084
X35560Y164338
X35941Y161950
X28702Y164338
X25400Y155956
X25400Y153416
X25654Y150876
X24638Y148082
X25654Y143510
X25832Y138455
X27178Y137414
X24638Y132842
X33528Y157226
X31191Y157201
X31242Y155448
X27686Y170663
X34798Y177800
X30226Y178308
X26670Y178308
X43637Y178029
X42545Y158877
X37338Y166116
X35306Y165862
X30226Y167132
X40894Y169164
X41148Y170688
X41148Y171958
X40386Y174752
X40132Y177546
X38354Y175768
X30226Y168910
X30226Y170942
X28702Y168910
X28702Y165481
X28702Y162814
X27940Y155702
X34798Y144526
X31496Y139700
X44450Y137922
X44958Y134366
X41300Y132664
X24384Y130302
X40386Y131318
X44196Y140716
X44196Y143256
X44196Y145796
X44196Y148336
X40894Y150876
X45466Y150876
X30988Y134874
X33020Y153416
X4318Y16764
X3810Y10414
X27686Y169393
X5969Y6452
X41148Y173228
X6096Y1702
X6172Y11963
X41885Y161849
X41326Y161036
X33020Y149809
X35052Y126035
X44196Y136906
X45212Y135382
X33744Y151638
X27813Y154686
X33744Y143637
X29718Y150876
X33299Y129665
X25654Y132588
X25146Y134620
X41504Y156235
X43231Y140716
X43307Y145415
X42850Y133949
X40796Y166370
X41389Y165938
X41868Y166556
X36220Y163093
X35052Y176530
X41402Y168402
X40411Y172466
X32275Y140376
X40348Y171196
X30988Y137277
X29464Y156464
X28575Y175006
X30099Y175006
X27216Y138440
X39954Y173812
X28448Y162052
X27940Y160528
X39878Y175260
X36322Y175768
X37084Y163068
X39878Y176530
X37122Y176238
X37173Y164084
X39116Y170053
X39116Y177546
X28854Y177546
X29032Y140157
X28702Y156718
X35052Y130302
X36093Y133934
X36332Y130419
X40132Y130048
X33274Y130427
X28956Y129134
X31026Y153924
X38608Y141859
X26924Y134874
X27178Y152146
X28448Y159766
X36830Y159766
X36830Y149098
X37592Y177800
X37897Y160579
X41885Y163068
X34798Y133523
X40386Y136777
X41859Y137973
X40915Y140233
X41656Y174752
X38354Y133934
X40640Y132182
X40326Y165608
X32512Y164109
X15240Y20701
X33350Y155956
X27940Y148336
X32004Y153924
X36195Y150876
X34290Y175768
X58166Y149606
X56464Y175577
X56642Y178308
X64897Y178524
X68986Y178740
X60833Y143764
X53594Y161671
X58166Y161671
X51308Y141478
X54356Y133858
X57518Y133858
X18567Y22454
X65888Y139446
X65786Y148590
X61468Y173482
X60198Y149860
X51054Y142240
X50546Y135890
X52705Y131928
X52832Y127178
X52908Y137439
X61976Y146177
X65303Y147930
X61341Y152781
X61341Y156591
X65913Y153314
X57912Y148336
X54661Y146533
X53086Y147193
X53086Y154686
X51562Y158496
X65049Y176251
X51181Y176403
X61214Y142748
X58420Y127762
X60706Y133528
X63246Y133934
X58928Y139700
X65659Y134874
X64389Y142240
X65278Y143840
X54356Y128651
X51105Y174295
X51130Y173304
X53619Y173838
X57912Y173838
X53619Y172872
X57912Y172872
X53594Y176530
X68834Y176276
X68834Y173736
X67564Y171196
X68834Y168656
X68834Y166116
X67564Y163576
X67564Y161036
X67564Y158496
X67564Y155956
X68834Y153416
X64262Y153416
X58826Y160782
X56896Y160782
X54864Y160782
X48768Y176276
X48768Y173736
X48768Y171196
X47498Y168656
X48768Y166116
X48768Y163576
X53543Y164973
X53340Y162331
X52070Y161036
X48768Y161036
X48768Y158496
X57150Y164084
X58928Y164338
X59309Y161950
X52070Y164338
X48768Y155956
X48768Y153416
X49022Y150876
X48006Y148082
X49022Y143510
X49200Y138455
X50546Y137414
X48006Y132842
X56896Y157226
X54559Y157201
X54610Y155448
X51054Y170663
X58166Y177800
X53594Y178308
X50038Y178308
X67005Y178029
X65913Y158877
X60706Y166116
X58674Y165862
X53594Y167132
X64262Y169164
X64516Y170688
X64516Y171958
X63754Y174752
X63500Y177546
X61722Y175768
X53594Y168910
X53594Y170942
X52070Y168910
X52070Y165481
X52070Y162814
X51308Y155702
X58166Y144526
X54864Y139700
X67818Y137922
X68326Y134366
X64668Y132664
X14605Y27305
X63754Y131318
X67564Y140716
X67564Y143256
X67564Y145796
X67564Y148336
X64262Y150876
X68834Y150876
X54356Y134874
X56388Y153416
X14605Y31115
X19177Y27838
X51054Y169393
X11176Y22860
X64516Y173228
X7925Y21057
X6350Y21717
X65253Y161849
X64694Y161036
X56388Y149809
X58420Y126035
X67564Y136906
X68580Y135382
X57112Y151638
X51181Y154686
X57112Y143637
X53086Y150876
X56667Y129665
X49022Y132588
X48514Y134620
X64872Y156235
X66599Y140716
X66675Y145415
X66218Y133949
X64164Y166370
X64757Y165938
X65236Y166556
X59588Y163093
X58420Y176530
X64770Y168402
X63779Y172466
X55643Y140376
X63716Y171196
X54356Y137277
X52832Y156464
X51943Y175006
X53467Y175006
X50584Y138440
X63322Y173812
X51816Y162052
X51308Y160528
X63246Y175260
X59690Y175768
X60452Y163068
X63246Y176530
X60490Y176238
X60541Y164084
X62484Y170053
X62484Y177546
X52222Y177546
X52400Y140157
X52070Y156718
X58420Y130302
X59461Y133934
X59700Y130419
X63500Y130048
X56642Y130427
X52324Y129134
X54394Y153924
X61976Y141859
X50292Y134874
X50546Y152146
X51816Y159766
X60198Y159766
X60198Y149098
X60960Y177800
X61265Y160579
X65253Y163068
X58166Y133523
X63754Y136777
X65227Y137973
X64282Y140233
X65024Y174752
X61722Y133934
X64008Y132182
X63694Y165608
X55880Y164109
X6350Y29210
X56718Y155956
X51308Y148336
X55372Y153924
X59563Y150876
X57658Y175768
X81534Y149606
X79832Y175577
X80010Y178308
X88265Y178524
X92354Y178740
X84201Y143764
X76962Y161671
X81534Y161671
X74676Y141478
X77724Y133858
X80886Y133858
X4826Y33020
X89256Y139446
X89154Y148590
X84836Y173482
X83566Y149860
X74422Y142240
X73914Y135890
X76073Y131928
X76200Y127178
X76276Y137439
X85344Y146177
X88671Y147930
X84709Y152781
X84709Y156591
X89281Y153314
X81280Y148336
X78029Y146533
X76454Y147193
X76454Y154686
X74930Y158496
X88417Y176251
X74549Y176403
X84582Y142748
X81788Y127762
X84074Y133528
X86614Y133934
X82296Y139700
X89027Y134874
X87757Y142240
X88646Y143840
X77724Y128651
X74473Y174295
X74498Y173304
X76987Y173838
X81280Y173838
X76987Y172872
X81280Y172872
X76962Y176530
X92202Y176276
X92202Y173736
X90932Y171196
X92202Y168656
X92202Y166116
X90932Y163576
X90932Y161036
X90932Y158496
X90932Y155956
X92202Y153416
X87630Y153416
X82194Y160782
X80264Y160782
X78232Y160782
X72136Y176276
X72136Y173736
X72136Y171196
X70866Y168656
X72136Y166116
X72136Y163576
X76911Y164973
X76708Y162331
X75438Y161036
X72136Y161036
X72136Y158496
X80518Y164084
X82296Y164338
X82677Y161950
X75438Y164338
X72136Y155956
X72136Y153416
X72390Y150876
X71374Y148082
X72390Y143510
X72568Y138455
X73914Y137414
X71374Y132842
X80264Y157226
X77927Y157201
X77978Y155448
X74422Y170663
X81534Y177800
X76962Y178308
X73406Y178308
X90373Y178029
X89281Y158877
X84074Y166116
X82042Y165862
X76962Y167132
X87630Y169164
X87884Y170688
X87884Y171958
X87122Y174752
X86868Y177546
X85090Y175768
X76962Y168910
X76962Y170942
X75438Y168910
X75438Y165481
X75438Y162814
X74676Y155702
X81534Y144526
X78232Y139700
X91186Y137922
X91694Y134366
X88036Y132664
X71120Y130302
X87122Y131318
X90932Y140716
X90932Y143256
X90932Y145796
X90932Y148336
X87630Y150876
X92202Y150876
X77724Y134874
X79756Y153416
X18313Y50775
X4445Y50927
X74422Y169393
X14478Y17272
X87884Y173228
X11684Y2286
X13970Y8052
X88621Y161849
X88062Y161036
X79756Y149809
X81788Y126035
X90932Y136906
X91948Y135382
X80480Y151638
X74549Y154686
X80480Y143637
X76454Y150876
X80035Y129665
X72390Y132588
X71882Y134620
X88240Y156235
X89967Y140716
X90043Y145415
X89586Y133949
X87532Y166370
X88125Y165938
X88604Y166556
X82956Y163093
X81788Y176530
X88138Y168402
X87147Y172466
X79012Y140376
X87084Y171196
X77724Y137277
X76200Y156464
X75311Y175006
X76835Y175006
X73952Y138440
X86690Y173812
X75184Y162052
X74676Y160528
X86614Y175260
X83058Y175768
X83820Y163068
X86614Y176530
X83858Y176238
X83909Y164084
X85852Y170053
X85852Y177546
X75590Y177546
X75768Y140157
X75438Y156718
X81788Y130302
X82829Y133934
X83068Y130419
X86868Y130048
X80010Y130427
X75692Y129134
X77762Y153924
X85344Y141859
X73660Y134874
X73914Y152146
X75184Y159766
X83566Y159766
X83566Y149098
X84328Y177800
X84633Y160579
X88621Y163068
X81534Y133523
X87122Y136777
X88595Y137973
X87650Y140233
X88392Y174752
X85090Y133934
X87376Y132182
X87062Y165608
X79248Y164109
X16510Y8458
X80086Y155956
X74676Y148336
X78740Y153924
X82931Y150876
X81026Y175768
X12192Y14224
X18923Y9398
X17653Y16764
X18542Y18364
X7620Y3175
X4369Y48819
X4394Y47828
X6883Y48362
X11176Y48362
X6883Y47396
X11176Y47396
X6858Y51054
X22098Y50800
X22098Y48260
X20828Y45720
X22098Y43180
X22098Y40640
X20828Y38100
X20828Y35560
X20828Y33020
X20828Y30480
X22098Y27940
X17526Y27940
X12090Y35306
X10160Y35306
X8128Y35306
X2032Y50800
X2032Y48260
X2032Y45720
X762Y43180
X2032Y40640
X2032Y38100
X6807Y39497
X6604Y36855
X5334Y35560
X2032Y35560
X2032Y33020
X10414Y38608
X12192Y38862
X12573Y36474
X5334Y38862
X2032Y30480
X2032Y27940
X2286Y25400
X1270Y22606
X2286Y18034
X2464Y12979
X3810Y11938
X1270Y7366
X10160Y31750
X7823Y31725
X7874Y29972
X4318Y45187
X11430Y52324
X6858Y52832
X3302Y52832
X20269Y52553
X19177Y33401
X13970Y40640
X11938Y40386
X6858Y41656
X17526Y43688
X17780Y45212
X17780Y46482
X17018Y49276
X74676Y78740
X16764Y52070
X14986Y50292
X6858Y43434
X6858Y45466
X5334Y43434
X5334Y40005
X5334Y37338
X4572Y30226
X11430Y19050
X8128Y14224
X21082Y12446
X21590Y8890
X17932Y7188
X1016Y4826
X17018Y5842
X20828Y15240
X20828Y17780
X20828Y20320
X20828Y22860
X17526Y25400
X22098Y25400
X7620Y9398
X9652Y27940
X4318Y43917
X17780Y47752
X18517Y36373
X17958Y35560
X9652Y24333
X11684Y559
X20828Y11430
X21844Y9906
X10376Y26162
X4445Y29210
X10376Y18161
X6350Y25400
X9931Y4189
X2286Y7112
X1778Y9144
X18136Y30759
X19863Y15240
X19939Y19939
X19482Y8473
X17428Y40894
X18021Y40462
X18500Y41080
X12852Y37617
X11684Y51054
X18034Y42926
X17043Y46990
X8908Y14900
X16980Y45720
X7620Y11801
X6096Y30988
X5207Y49530
X6731Y49530
X3848Y12964
X16586Y48336
X5080Y36576
X4572Y35052
X16510Y49784
X12954Y50292
X13716Y37592
X16510Y51054
X13754Y50762
X13805Y38608
X15748Y44577
X15748Y52070
X5486Y52070
X5664Y14681
X5334Y31242
X11684Y4826
X12725Y8458
X12964Y4943
X16764Y4572
X9906Y4951
X5588Y3658
X7658Y28448
X15240Y16383
X3556Y9398
X3810Y26670
X5080Y34290
X13462Y34290
X13462Y23622
X14224Y52324
X14529Y35103
X18517Y37592
X11430Y8047
X17018Y11301
X18491Y12497
X17547Y14757
X18288Y49276
X14986Y8458
X17272Y6706
X16958Y40132
X9144Y38633
X9982Y30480
X4572Y22860
X8636Y28448
X12827Y25400
X10922Y50292
X34798Y24130
X33096Y50101
X33274Y52832
X41529Y53048
X45618Y53264
X37465Y18288
X30226Y36195
X34798Y36195
X27940Y16002
X30988Y8382
X34150Y8382
X42520Y13970
X42418Y23114
X38100Y48006
X36830Y24384
X27686Y16764
X27178Y10414
X29337Y6452
X29464Y1702
X29540Y11963
X38608Y20701
X41935Y22454
X37973Y27305
X37973Y31115
X42545Y27838
X34544Y22860
X31293Y21057
X29718Y21717
X29718Y29210
X28194Y33020
X41681Y50775
X27813Y50927
X37846Y17272
X35052Y2286
X37338Y8052
X39878Y8458
X35560Y14224
X42291Y9398
X41021Y16764
X41910Y18364
X30988Y3175
X27737Y48819
X27762Y47828
X30251Y48362
X34544Y48362
X30251Y47396
X34544Y47396
X30226Y51054
X45466Y50800
X45466Y48260
X44196Y45720
X45466Y43180
X45466Y40640
X44196Y38100
X44196Y35560
X44196Y33020
X44196Y30480
X45466Y27940
X40894Y27940
X35458Y35306
X33528Y35306
X31496Y35306
X25400Y50800
X25400Y48260
X25400Y45720
X24130Y43180
X25400Y40640
X25400Y38100
X30175Y39497
X29972Y36855
X28702Y35560
X25400Y35560
X25400Y33020
X33782Y38608
X35560Y38862
X35941Y36474
X28702Y38862
X25400Y30480
X25400Y27940
X25654Y25400
X24638Y22606
X25654Y18034
X25832Y12979
X27178Y11938
X24638Y7366
X33528Y31750
X31191Y31725
X31242Y29972
X27686Y45187
X34798Y52324
X30226Y52832
X26670Y52832
X43637Y52553
X42545Y33401
X37338Y40640
X35306Y40386
X30226Y41656
X40894Y43688
X41148Y45212
X41148Y46482
X40386Y49276
X40132Y52070
X38354Y50292
X30226Y43434
X30226Y45466
X28702Y43434
X28702Y40005
X28702Y37338
X27940Y30226
X34798Y19050
X31496Y14224
X44450Y12446
X44958Y8890
X41300Y7188
X24384Y4826
X40386Y5842
X44196Y15240
X44196Y17780
X44196Y20320
X44196Y22860
X40894Y25400
X45466Y25400
X30988Y9398
X33020Y27940
X27686Y43917
X41148Y47752
X41885Y36373
X41326Y35560
X33020Y24333
X35052Y559
X44196Y11430
X45212Y9906
X33744Y26162
X27813Y29210
X33744Y18161
X29718Y25400
X33299Y4189
X25654Y7112
X25146Y9144
X41504Y30759
X43231Y15240
X43307Y19939
X42850Y8473
X40796Y40894
X41389Y40462
X41868Y41080
X36220Y37617
X35052Y51054
X41402Y42926
X40411Y46990
X32275Y14900
X40348Y45720
X29464Y30988
X28575Y49530
X30099Y49530
X27216Y12964
X39954Y48336
X28448Y36576
X27940Y35052
X39878Y49784
X36322Y50292
X37084Y37592
X39878Y51054
X37122Y50762
X37173Y38608
X39116Y44577
X39116Y52070
X28854Y52070
X29032Y14681
X28702Y31242
X35052Y4826
X36093Y8458
X36332Y4943
X40132Y4572
X33274Y4951
X28956Y3658
X31026Y28448
X38608Y16383
X26924Y9398
X27178Y26670
X28448Y34290
X36830Y34290
X36830Y23622
X37592Y52324
X37897Y35103
X41885Y37592
X34798Y8047
X40386Y11301
X41859Y12497
X40915Y14757
X41656Y49276
X38354Y8458
X40640Y6706
X40326Y40132
X32512Y38633
X33350Y30480
X27940Y22860
X32004Y28448
X36195Y25400
X34290Y50292
X58166Y24130
X56464Y50101
X56642Y52832
X64897Y53048
X68986Y53264
X60833Y18288
X53594Y36195
X58166Y36195
X51308Y16002
X54356Y8382
X57518Y8382
X65888Y13970
X65786Y23114
X61468Y48006
X60198Y24384
X51054Y16764
X50546Y10414
X52705Y6452
X52832Y1702
X52908Y11963
X61976Y20701
X65303Y22454
X61341Y27305
X61341Y31115
X65913Y27838
X57912Y22860
X54661Y21057
X53086Y21717
X53086Y29210
X51562Y33020
X65049Y50775
X51181Y50927
X61214Y17272
X58420Y2286
X60706Y8052
X63246Y8458
X58928Y14224
X65659Y9398
X64389Y16764
X65278Y18364
X54356Y3175
X51105Y48819
X51130Y47828
X53619Y48362
X57912Y48362
X53619Y47396
X57912Y47396
X53594Y51054
X68834Y50800
X68834Y48260
X67564Y45720
X68834Y43180
X68834Y40640
X67564Y38100
X67564Y35560
X67564Y33020
X67564Y30480
X68834Y27940
X64262Y27940
X58826Y35306
X56896Y35306
X54864Y35306
X48768Y50800
X48768Y48260
X48768Y45720
X47752Y130302
M30