G04 EAGLE Gerber RS-274X export*
G75*
%MOMM*%
%FSLAX34Y34*%
%LPD*%
%INSolderpaste Top*%
%IPPOS*%
%AMOC8*
5,1,8,0,0,1.08239X$1,22.5*%
G01*
%ADD10R,0.600000X0.600000*%
%ADD11R,0.550000X1.200000*%
%ADD12C,0.300000*%
%ADD13R,1.100000X1.000000*%
%ADD14R,1.000000X1.100000*%
%ADD15R,0.660000X0.300000*%
%ADD16R,2.000000X1.200000*%
%ADD17R,1.350000X0.600000*%
%ADD18R,0.900000X1.000000*%
%ADD19R,0.900000X0.800000*%
%ADD20R,0.300000X1.000000*%
%ADD21R,0.600000X1.000000*%
%ADD22R,0.630000X0.830000*%
%ADD23R,0.600000X1.200000*%
%ADD24R,0.250000X0.637500*%
%ADD25R,0.500000X0.640000*%
%ADD26R,0.700000X0.700000*%
%ADD27R,4.600000X1.000000*%
%ADD28R,3.400000X1.600000*%
%ADD29R,1.200000X0.550000*%
%ADD30R,1.500000X0.900000*%
%ADD31R,0.900000X1.500000*%
%ADD32R,1.330000X1.330000*%

G36*
X304984Y1193779D02*
X304984Y1193779D01*
X304987Y1193775D01*
X306095Y1193945D01*
X306101Y1193951D01*
X306106Y1193948D01*
X307148Y1194360D01*
X307152Y1194367D01*
X307157Y1194365D01*
X308082Y1194999D01*
X308084Y1195007D01*
X308090Y1195006D01*
X308850Y1195830D01*
X308851Y1195838D01*
X308857Y1195838D01*
X309414Y1196810D01*
X309414Y1196814D01*
X309415Y1196815D01*
X309413Y1196817D01*
X309413Y1196818D01*
X309419Y1196820D01*
X309746Y1197892D01*
X309745Y1197897D01*
X309747Y1197898D01*
X309745Y1197901D01*
X309748Y1197903D01*
X309829Y1199020D01*
X309828Y1199023D01*
X309829Y1199024D01*
X309829Y1211024D01*
X309824Y1211031D01*
X309828Y1211035D01*
X309609Y1211979D01*
X309603Y1211985D01*
X309605Y1211990D01*
X309182Y1212862D01*
X309174Y1212865D01*
X309176Y1212871D01*
X308569Y1213627D01*
X308561Y1213629D01*
X308561Y1213635D01*
X307801Y1214236D01*
X307792Y1214236D01*
X307791Y1214242D01*
X306916Y1214660D01*
X306908Y1214658D01*
X306906Y1214663D01*
X305960Y1214876D01*
X305953Y1214872D01*
X305949Y1214877D01*
X304980Y1214873D01*
X304979Y1214873D01*
X303911Y1214854D01*
X303910Y1214854D01*
X303904Y1214850D01*
X303900Y1214853D01*
X302863Y1214597D01*
X302858Y1214590D01*
X302852Y1214593D01*
X301898Y1214112D01*
X301895Y1214105D01*
X301889Y1214106D01*
X301066Y1213425D01*
X301064Y1213417D01*
X301058Y1213417D01*
X300407Y1212570D01*
X300407Y1212562D01*
X300401Y1212561D01*
X299954Y1211590D01*
X299956Y1211582D01*
X299951Y1211580D01*
X299732Y1210534D01*
X299735Y1210527D01*
X299731Y1210524D01*
X299731Y1198524D01*
X299734Y1198519D01*
X299731Y1198516D01*
X299911Y1197421D01*
X299917Y1197415D01*
X299914Y1197410D01*
X300333Y1196382D01*
X300340Y1196378D01*
X300338Y1196373D01*
X300976Y1195464D01*
X300983Y1195462D01*
X300983Y1195456D01*
X301806Y1194712D01*
X301814Y1194711D01*
X301815Y1194705D01*
X302783Y1194163D01*
X302792Y1194164D01*
X302794Y1194158D01*
X303858Y1193845D01*
X303866Y1193848D01*
X303869Y1193843D01*
X304977Y1193775D01*
X304984Y1193779D01*
G37*
G36*
X1473384Y1193779D02*
X1473384Y1193779D01*
X1473387Y1193775D01*
X1474495Y1193945D01*
X1474501Y1193951D01*
X1474506Y1193948D01*
X1475548Y1194360D01*
X1475552Y1194367D01*
X1475557Y1194365D01*
X1476482Y1194999D01*
X1476484Y1195007D01*
X1476490Y1195006D01*
X1477250Y1195830D01*
X1477251Y1195838D01*
X1477257Y1195838D01*
X1477814Y1196810D01*
X1477814Y1196814D01*
X1477815Y1196815D01*
X1477813Y1196817D01*
X1477813Y1196818D01*
X1477819Y1196820D01*
X1478146Y1197892D01*
X1478145Y1197897D01*
X1478147Y1197898D01*
X1478145Y1197901D01*
X1478148Y1197903D01*
X1478229Y1199020D01*
X1478228Y1199023D01*
X1478229Y1199024D01*
X1478229Y1211024D01*
X1478224Y1211031D01*
X1478228Y1211035D01*
X1478009Y1211979D01*
X1478003Y1211985D01*
X1478005Y1211990D01*
X1477582Y1212862D01*
X1477574Y1212865D01*
X1477576Y1212871D01*
X1476969Y1213627D01*
X1476961Y1213629D01*
X1476961Y1213635D01*
X1476201Y1214236D01*
X1476192Y1214236D01*
X1476191Y1214242D01*
X1475316Y1214660D01*
X1475308Y1214658D01*
X1475306Y1214663D01*
X1474360Y1214876D01*
X1474353Y1214872D01*
X1474349Y1214877D01*
X1473380Y1214873D01*
X1473379Y1214873D01*
X1472311Y1214854D01*
X1472310Y1214854D01*
X1472304Y1214850D01*
X1472300Y1214853D01*
X1471263Y1214597D01*
X1471258Y1214590D01*
X1471252Y1214593D01*
X1470298Y1214112D01*
X1470295Y1214105D01*
X1470289Y1214106D01*
X1469466Y1213425D01*
X1469464Y1213417D01*
X1469458Y1213417D01*
X1468807Y1212570D01*
X1468807Y1212562D01*
X1468801Y1212561D01*
X1468354Y1211590D01*
X1468356Y1211582D01*
X1468351Y1211580D01*
X1468132Y1210534D01*
X1468135Y1210527D01*
X1468131Y1210524D01*
X1468131Y1198524D01*
X1468134Y1198519D01*
X1468131Y1198516D01*
X1468311Y1197421D01*
X1468317Y1197415D01*
X1468314Y1197410D01*
X1468733Y1196382D01*
X1468740Y1196378D01*
X1468738Y1196373D01*
X1469376Y1195464D01*
X1469383Y1195462D01*
X1469383Y1195456D01*
X1470206Y1194712D01*
X1470214Y1194711D01*
X1470215Y1194705D01*
X1471183Y1194163D01*
X1471192Y1194164D01*
X1471194Y1194158D01*
X1472258Y1193845D01*
X1472266Y1193848D01*
X1472269Y1193843D01*
X1473377Y1193775D01*
X1473384Y1193779D01*
G37*
G36*
X772344Y1193779D02*
X772344Y1193779D01*
X772347Y1193775D01*
X773455Y1193945D01*
X773461Y1193951D01*
X773466Y1193948D01*
X774508Y1194360D01*
X774512Y1194367D01*
X774517Y1194365D01*
X775442Y1194999D01*
X775444Y1195007D01*
X775450Y1195006D01*
X776210Y1195830D01*
X776211Y1195838D01*
X776217Y1195838D01*
X776774Y1196810D01*
X776774Y1196814D01*
X776775Y1196815D01*
X776773Y1196817D01*
X776773Y1196818D01*
X776779Y1196820D01*
X777106Y1197892D01*
X777105Y1197897D01*
X777107Y1197898D01*
X777105Y1197901D01*
X777108Y1197903D01*
X777189Y1199020D01*
X777188Y1199023D01*
X777189Y1199024D01*
X777189Y1211024D01*
X777184Y1211031D01*
X777188Y1211035D01*
X776969Y1211979D01*
X776963Y1211985D01*
X776965Y1211990D01*
X776542Y1212862D01*
X776534Y1212865D01*
X776536Y1212871D01*
X775929Y1213627D01*
X775921Y1213629D01*
X775921Y1213635D01*
X775161Y1214236D01*
X775152Y1214236D01*
X775151Y1214242D01*
X774276Y1214660D01*
X774268Y1214658D01*
X774266Y1214663D01*
X773320Y1214876D01*
X773313Y1214872D01*
X773309Y1214877D01*
X772340Y1214873D01*
X772339Y1214873D01*
X771271Y1214854D01*
X771270Y1214854D01*
X771264Y1214850D01*
X771260Y1214853D01*
X770223Y1214597D01*
X770218Y1214590D01*
X770212Y1214593D01*
X769258Y1214112D01*
X769255Y1214105D01*
X769249Y1214106D01*
X768426Y1213425D01*
X768424Y1213417D01*
X768418Y1213417D01*
X767767Y1212570D01*
X767767Y1212562D01*
X767761Y1212561D01*
X767314Y1211590D01*
X767316Y1211582D01*
X767311Y1211580D01*
X767092Y1210534D01*
X767095Y1210527D01*
X767091Y1210524D01*
X767091Y1198524D01*
X767094Y1198519D01*
X767091Y1198516D01*
X767271Y1197421D01*
X767277Y1197415D01*
X767274Y1197410D01*
X767693Y1196382D01*
X767700Y1196378D01*
X767698Y1196373D01*
X768336Y1195464D01*
X768343Y1195462D01*
X768343Y1195456D01*
X769166Y1194712D01*
X769174Y1194711D01*
X769175Y1194705D01*
X770143Y1194163D01*
X770152Y1194164D01*
X770154Y1194158D01*
X771218Y1193845D01*
X771226Y1193848D01*
X771229Y1193843D01*
X772337Y1193775D01*
X772344Y1193779D01*
G37*
G36*
X538664Y1193779D02*
X538664Y1193779D01*
X538667Y1193775D01*
X539775Y1193945D01*
X539781Y1193951D01*
X539786Y1193948D01*
X540828Y1194360D01*
X540832Y1194367D01*
X540837Y1194365D01*
X541762Y1194999D01*
X541764Y1195007D01*
X541770Y1195006D01*
X542530Y1195830D01*
X542531Y1195838D01*
X542537Y1195838D01*
X543094Y1196810D01*
X543094Y1196814D01*
X543095Y1196815D01*
X543093Y1196817D01*
X543093Y1196818D01*
X543099Y1196820D01*
X543426Y1197892D01*
X543425Y1197897D01*
X543427Y1197898D01*
X543425Y1197901D01*
X543428Y1197903D01*
X543509Y1199020D01*
X543508Y1199023D01*
X543509Y1199024D01*
X543509Y1211024D01*
X543504Y1211031D01*
X543508Y1211035D01*
X543289Y1211979D01*
X543283Y1211985D01*
X543285Y1211990D01*
X542862Y1212862D01*
X542854Y1212865D01*
X542856Y1212871D01*
X542249Y1213627D01*
X542241Y1213629D01*
X542241Y1213635D01*
X541481Y1214236D01*
X541472Y1214236D01*
X541471Y1214242D01*
X540596Y1214660D01*
X540588Y1214658D01*
X540586Y1214663D01*
X539640Y1214876D01*
X539633Y1214872D01*
X539629Y1214877D01*
X538660Y1214873D01*
X538659Y1214873D01*
X537591Y1214854D01*
X537590Y1214854D01*
X537584Y1214850D01*
X537580Y1214853D01*
X536543Y1214597D01*
X536538Y1214590D01*
X536532Y1214593D01*
X535578Y1214112D01*
X535575Y1214105D01*
X535569Y1214106D01*
X534746Y1213425D01*
X534744Y1213417D01*
X534738Y1213417D01*
X534087Y1212570D01*
X534087Y1212562D01*
X534081Y1212561D01*
X533634Y1211590D01*
X533636Y1211582D01*
X533631Y1211580D01*
X533412Y1210534D01*
X533415Y1210527D01*
X533411Y1210524D01*
X533411Y1198524D01*
X533414Y1198519D01*
X533411Y1198516D01*
X533591Y1197421D01*
X533597Y1197415D01*
X533594Y1197410D01*
X534013Y1196382D01*
X534020Y1196378D01*
X534018Y1196373D01*
X534656Y1195464D01*
X534663Y1195462D01*
X534663Y1195456D01*
X535486Y1194712D01*
X535494Y1194711D01*
X535495Y1194705D01*
X536463Y1194163D01*
X536472Y1194164D01*
X536474Y1194158D01*
X537538Y1193845D01*
X537546Y1193848D01*
X537549Y1193843D01*
X538657Y1193775D01*
X538664Y1193779D01*
G37*
G36*
X1239704Y1193779D02*
X1239704Y1193779D01*
X1239707Y1193775D01*
X1240815Y1193945D01*
X1240821Y1193951D01*
X1240826Y1193948D01*
X1241868Y1194360D01*
X1241872Y1194367D01*
X1241877Y1194365D01*
X1242802Y1194999D01*
X1242804Y1195007D01*
X1242810Y1195006D01*
X1243570Y1195830D01*
X1243571Y1195838D01*
X1243577Y1195838D01*
X1244134Y1196810D01*
X1244134Y1196814D01*
X1244135Y1196815D01*
X1244133Y1196817D01*
X1244133Y1196818D01*
X1244139Y1196820D01*
X1244466Y1197892D01*
X1244465Y1197897D01*
X1244467Y1197898D01*
X1244465Y1197901D01*
X1244468Y1197903D01*
X1244549Y1199020D01*
X1244548Y1199023D01*
X1244549Y1199024D01*
X1244549Y1211024D01*
X1244544Y1211031D01*
X1244548Y1211035D01*
X1244329Y1211979D01*
X1244323Y1211985D01*
X1244325Y1211990D01*
X1243902Y1212862D01*
X1243894Y1212865D01*
X1243896Y1212871D01*
X1243289Y1213627D01*
X1243281Y1213629D01*
X1243281Y1213635D01*
X1242521Y1214236D01*
X1242512Y1214236D01*
X1242511Y1214242D01*
X1241636Y1214660D01*
X1241628Y1214658D01*
X1241626Y1214663D01*
X1240680Y1214876D01*
X1240673Y1214872D01*
X1240669Y1214877D01*
X1239700Y1214873D01*
X1239699Y1214873D01*
X1238631Y1214854D01*
X1238630Y1214854D01*
X1238624Y1214850D01*
X1238620Y1214853D01*
X1237583Y1214597D01*
X1237578Y1214590D01*
X1237572Y1214593D01*
X1236618Y1214112D01*
X1236615Y1214105D01*
X1236609Y1214106D01*
X1235786Y1213425D01*
X1235784Y1213417D01*
X1235778Y1213417D01*
X1235127Y1212570D01*
X1235127Y1212562D01*
X1235121Y1212561D01*
X1234674Y1211590D01*
X1234676Y1211582D01*
X1234671Y1211580D01*
X1234452Y1210534D01*
X1234455Y1210527D01*
X1234451Y1210524D01*
X1234451Y1198524D01*
X1234454Y1198519D01*
X1234451Y1198516D01*
X1234631Y1197421D01*
X1234637Y1197415D01*
X1234634Y1197410D01*
X1235053Y1196382D01*
X1235060Y1196378D01*
X1235058Y1196373D01*
X1235696Y1195464D01*
X1235703Y1195462D01*
X1235703Y1195456D01*
X1236526Y1194712D01*
X1236534Y1194711D01*
X1236535Y1194705D01*
X1237503Y1194163D01*
X1237512Y1194164D01*
X1237514Y1194158D01*
X1238578Y1193845D01*
X1238586Y1193848D01*
X1238589Y1193843D01*
X1239697Y1193775D01*
X1239704Y1193779D01*
G37*
G36*
X71304Y1193779D02*
X71304Y1193779D01*
X71307Y1193775D01*
X72415Y1193945D01*
X72421Y1193951D01*
X72426Y1193948D01*
X73468Y1194360D01*
X73472Y1194367D01*
X73477Y1194365D01*
X74402Y1194999D01*
X74404Y1195007D01*
X74410Y1195006D01*
X75170Y1195830D01*
X75171Y1195838D01*
X75177Y1195838D01*
X75734Y1196810D01*
X75734Y1196814D01*
X75735Y1196815D01*
X75733Y1196817D01*
X75733Y1196818D01*
X75739Y1196820D01*
X76066Y1197892D01*
X76065Y1197897D01*
X76067Y1197898D01*
X76065Y1197901D01*
X76068Y1197903D01*
X76149Y1199020D01*
X76148Y1199023D01*
X76149Y1199024D01*
X76149Y1211024D01*
X76144Y1211031D01*
X76148Y1211035D01*
X75929Y1211979D01*
X75923Y1211985D01*
X75925Y1211990D01*
X75502Y1212862D01*
X75494Y1212865D01*
X75496Y1212871D01*
X74889Y1213627D01*
X74881Y1213629D01*
X74881Y1213635D01*
X74121Y1214236D01*
X74112Y1214236D01*
X74111Y1214242D01*
X73236Y1214660D01*
X73228Y1214658D01*
X73226Y1214663D01*
X72280Y1214876D01*
X72273Y1214872D01*
X72269Y1214877D01*
X71300Y1214873D01*
X71299Y1214873D01*
X70231Y1214854D01*
X70230Y1214854D01*
X70224Y1214850D01*
X70220Y1214853D01*
X69183Y1214597D01*
X69178Y1214590D01*
X69172Y1214593D01*
X68218Y1214112D01*
X68215Y1214105D01*
X68209Y1214106D01*
X67386Y1213425D01*
X67384Y1213417D01*
X67378Y1213417D01*
X66727Y1212570D01*
X66727Y1212562D01*
X66721Y1212561D01*
X66274Y1211590D01*
X66276Y1211582D01*
X66271Y1211580D01*
X66052Y1210534D01*
X66055Y1210527D01*
X66051Y1210524D01*
X66051Y1198524D01*
X66054Y1198519D01*
X66051Y1198516D01*
X66231Y1197421D01*
X66237Y1197415D01*
X66234Y1197410D01*
X66653Y1196382D01*
X66660Y1196378D01*
X66658Y1196373D01*
X67296Y1195464D01*
X67303Y1195462D01*
X67303Y1195456D01*
X68126Y1194712D01*
X68134Y1194711D01*
X68135Y1194705D01*
X69103Y1194163D01*
X69112Y1194164D01*
X69114Y1194158D01*
X70178Y1193845D01*
X70186Y1193848D01*
X70189Y1193843D01*
X71297Y1193775D01*
X71304Y1193779D01*
G37*
G36*
X1006024Y1193779D02*
X1006024Y1193779D01*
X1006027Y1193775D01*
X1007135Y1193945D01*
X1007141Y1193951D01*
X1007146Y1193948D01*
X1008188Y1194360D01*
X1008192Y1194367D01*
X1008197Y1194365D01*
X1009122Y1194999D01*
X1009124Y1195007D01*
X1009130Y1195006D01*
X1009890Y1195830D01*
X1009891Y1195838D01*
X1009897Y1195838D01*
X1010454Y1196810D01*
X1010454Y1196814D01*
X1010455Y1196815D01*
X1010453Y1196817D01*
X1010453Y1196818D01*
X1010459Y1196820D01*
X1010786Y1197892D01*
X1010785Y1197897D01*
X1010787Y1197898D01*
X1010785Y1197901D01*
X1010788Y1197903D01*
X1010869Y1199020D01*
X1010868Y1199023D01*
X1010869Y1199024D01*
X1010869Y1211024D01*
X1010864Y1211031D01*
X1010868Y1211035D01*
X1010649Y1211979D01*
X1010643Y1211985D01*
X1010645Y1211990D01*
X1010222Y1212862D01*
X1010214Y1212865D01*
X1010216Y1212871D01*
X1009609Y1213627D01*
X1009601Y1213629D01*
X1009601Y1213635D01*
X1008841Y1214236D01*
X1008832Y1214236D01*
X1008831Y1214242D01*
X1007956Y1214660D01*
X1007948Y1214658D01*
X1007946Y1214663D01*
X1007000Y1214876D01*
X1006993Y1214872D01*
X1006989Y1214877D01*
X1006020Y1214873D01*
X1006019Y1214873D01*
X1004951Y1214854D01*
X1004950Y1214854D01*
X1004944Y1214850D01*
X1004940Y1214853D01*
X1003903Y1214597D01*
X1003898Y1214590D01*
X1003892Y1214593D01*
X1002938Y1214112D01*
X1002935Y1214105D01*
X1002929Y1214106D01*
X1002106Y1213425D01*
X1002104Y1213417D01*
X1002098Y1213417D01*
X1001447Y1212570D01*
X1001447Y1212562D01*
X1001441Y1212561D01*
X1000994Y1211590D01*
X1000996Y1211582D01*
X1000991Y1211580D01*
X1000772Y1210534D01*
X1000775Y1210527D01*
X1000771Y1210524D01*
X1000771Y1198524D01*
X1000774Y1198519D01*
X1000771Y1198516D01*
X1000951Y1197421D01*
X1000957Y1197415D01*
X1000954Y1197410D01*
X1001373Y1196382D01*
X1001380Y1196378D01*
X1001378Y1196373D01*
X1002016Y1195464D01*
X1002023Y1195462D01*
X1002023Y1195456D01*
X1002846Y1194712D01*
X1002854Y1194711D01*
X1002855Y1194705D01*
X1003823Y1194163D01*
X1003832Y1194164D01*
X1003834Y1194158D01*
X1004898Y1193845D01*
X1004906Y1193848D01*
X1004909Y1193843D01*
X1006017Y1193775D01*
X1006024Y1193779D01*
G37*
G36*
X1325700Y42427D02*
X1325700Y42427D01*
X1325701Y42427D01*
X1326769Y42446D01*
X1326776Y42451D01*
X1326780Y42447D01*
X1327817Y42703D01*
X1327822Y42710D01*
X1327828Y42707D01*
X1328782Y43188D01*
X1328786Y43195D01*
X1328791Y43194D01*
X1329615Y43875D01*
X1329616Y43883D01*
X1329622Y43883D01*
X1330273Y44730D01*
X1330273Y44738D01*
X1330279Y44739D01*
X1330726Y45710D01*
X1330724Y45718D01*
X1330729Y45720D01*
X1330948Y46766D01*
X1330945Y46773D01*
X1330949Y46776D01*
X1330949Y58776D01*
X1330946Y58781D01*
X1330949Y58784D01*
X1330769Y59879D01*
X1330763Y59885D01*
X1330766Y59890D01*
X1330347Y60918D01*
X1330340Y60922D01*
X1330342Y60927D01*
X1329705Y61836D01*
X1329697Y61839D01*
X1329697Y61844D01*
X1328874Y62588D01*
X1328866Y62589D01*
X1328865Y62595D01*
X1327897Y63137D01*
X1327888Y63136D01*
X1327886Y63142D01*
X1326822Y63455D01*
X1326817Y63453D01*
X1326813Y63453D01*
X1326811Y63457D01*
X1325703Y63525D01*
X1325697Y63521D01*
X1325693Y63525D01*
X1324585Y63355D01*
X1324579Y63349D01*
X1324574Y63352D01*
X1323532Y62940D01*
X1323528Y62933D01*
X1323523Y62935D01*
X1322598Y62301D01*
X1322596Y62293D01*
X1322590Y62294D01*
X1321830Y61471D01*
X1321829Y61462D01*
X1321823Y61462D01*
X1321266Y60490D01*
X1321267Y60482D01*
X1321261Y60480D01*
X1320934Y59408D01*
X1320937Y59400D01*
X1320932Y59397D01*
X1320851Y58280D01*
X1320852Y58277D01*
X1320851Y58276D01*
X1320851Y46276D01*
X1320856Y46269D01*
X1320852Y46265D01*
X1321071Y45321D01*
X1321077Y45315D01*
X1321075Y45310D01*
X1321499Y44438D01*
X1321506Y44435D01*
X1321504Y44429D01*
X1322111Y43673D01*
X1322119Y43671D01*
X1322119Y43665D01*
X1322879Y43064D01*
X1322888Y43064D01*
X1322889Y43058D01*
X1323764Y42640D01*
X1323772Y42642D01*
X1323774Y42637D01*
X1324720Y42425D01*
X1324727Y42428D01*
X1324731Y42423D01*
X1325700Y42427D01*
G37*
G36*
X390980Y42427D02*
X390980Y42427D01*
X390981Y42427D01*
X392049Y42446D01*
X392056Y42451D01*
X392060Y42447D01*
X393097Y42703D01*
X393102Y42710D01*
X393108Y42707D01*
X394062Y43188D01*
X394066Y43195D01*
X394071Y43194D01*
X394895Y43875D01*
X394896Y43883D01*
X394902Y43883D01*
X395553Y44730D01*
X395553Y44738D01*
X395559Y44739D01*
X396006Y45710D01*
X396004Y45718D01*
X396009Y45720D01*
X396228Y46766D01*
X396225Y46773D01*
X396229Y46776D01*
X396229Y58776D01*
X396226Y58781D01*
X396229Y58784D01*
X396049Y59879D01*
X396043Y59885D01*
X396046Y59890D01*
X395627Y60918D01*
X395620Y60922D01*
X395622Y60927D01*
X394985Y61836D01*
X394977Y61839D01*
X394977Y61844D01*
X394154Y62588D01*
X394146Y62589D01*
X394145Y62595D01*
X393177Y63137D01*
X393168Y63136D01*
X393166Y63142D01*
X392102Y63455D01*
X392097Y63453D01*
X392093Y63453D01*
X392091Y63457D01*
X390983Y63525D01*
X390977Y63521D01*
X390973Y63525D01*
X389865Y63355D01*
X389859Y63349D01*
X389854Y63352D01*
X388812Y62940D01*
X388808Y62933D01*
X388803Y62935D01*
X387878Y62301D01*
X387876Y62293D01*
X387870Y62294D01*
X387110Y61471D01*
X387109Y61462D01*
X387103Y61462D01*
X386546Y60490D01*
X386547Y60482D01*
X386541Y60480D01*
X386214Y59408D01*
X386217Y59400D01*
X386212Y59397D01*
X386131Y58280D01*
X386132Y58277D01*
X386131Y58276D01*
X386131Y46276D01*
X386136Y46269D01*
X386132Y46265D01*
X386351Y45321D01*
X386357Y45315D01*
X386355Y45310D01*
X386779Y44438D01*
X386786Y44435D01*
X386784Y44429D01*
X387391Y43673D01*
X387399Y43671D01*
X387399Y43665D01*
X388159Y43064D01*
X388168Y43064D01*
X388169Y43058D01*
X389044Y42640D01*
X389052Y42642D01*
X389054Y42637D01*
X390000Y42425D01*
X390007Y42428D01*
X390011Y42423D01*
X390980Y42427D01*
G37*
G36*
X858340Y42427D02*
X858340Y42427D01*
X858341Y42427D01*
X859409Y42446D01*
X859416Y42451D01*
X859420Y42447D01*
X860457Y42703D01*
X860462Y42710D01*
X860468Y42707D01*
X861422Y43188D01*
X861426Y43195D01*
X861431Y43194D01*
X862255Y43875D01*
X862256Y43883D01*
X862262Y43883D01*
X862913Y44730D01*
X862913Y44738D01*
X862919Y44739D01*
X863366Y45710D01*
X863364Y45718D01*
X863369Y45720D01*
X863588Y46766D01*
X863585Y46773D01*
X863589Y46776D01*
X863589Y58776D01*
X863586Y58781D01*
X863589Y58784D01*
X863409Y59879D01*
X863403Y59885D01*
X863406Y59890D01*
X862987Y60918D01*
X862980Y60922D01*
X862982Y60927D01*
X862345Y61836D01*
X862337Y61839D01*
X862337Y61844D01*
X861514Y62588D01*
X861506Y62589D01*
X861505Y62595D01*
X860537Y63137D01*
X860528Y63136D01*
X860526Y63142D01*
X859462Y63455D01*
X859457Y63453D01*
X859453Y63453D01*
X859451Y63457D01*
X858343Y63525D01*
X858337Y63521D01*
X858333Y63525D01*
X857225Y63355D01*
X857219Y63349D01*
X857214Y63352D01*
X856172Y62940D01*
X856168Y62933D01*
X856163Y62935D01*
X855238Y62301D01*
X855236Y62293D01*
X855230Y62294D01*
X854470Y61471D01*
X854469Y61462D01*
X854463Y61462D01*
X853906Y60490D01*
X853907Y60482D01*
X853901Y60480D01*
X853574Y59408D01*
X853577Y59400D01*
X853572Y59397D01*
X853491Y58280D01*
X853492Y58277D01*
X853491Y58276D01*
X853491Y46276D01*
X853496Y46269D01*
X853492Y46265D01*
X853711Y45321D01*
X853717Y45315D01*
X853715Y45310D01*
X854139Y44438D01*
X854146Y44435D01*
X854144Y44429D01*
X854751Y43673D01*
X854759Y43671D01*
X854759Y43665D01*
X855519Y43064D01*
X855528Y43064D01*
X855529Y43058D01*
X856404Y42640D01*
X856412Y42642D01*
X856414Y42637D01*
X857360Y42425D01*
X857367Y42428D01*
X857371Y42423D01*
X858340Y42427D01*
G37*
G36*
X624660Y42427D02*
X624660Y42427D01*
X624661Y42427D01*
X625729Y42446D01*
X625736Y42451D01*
X625740Y42447D01*
X626777Y42703D01*
X626782Y42710D01*
X626788Y42707D01*
X627742Y43188D01*
X627746Y43195D01*
X627751Y43194D01*
X628575Y43875D01*
X628576Y43883D01*
X628582Y43883D01*
X629233Y44730D01*
X629233Y44738D01*
X629239Y44739D01*
X629686Y45710D01*
X629684Y45718D01*
X629689Y45720D01*
X629908Y46766D01*
X629905Y46773D01*
X629909Y46776D01*
X629909Y58776D01*
X629906Y58781D01*
X629909Y58784D01*
X629729Y59879D01*
X629723Y59885D01*
X629726Y59890D01*
X629307Y60918D01*
X629300Y60922D01*
X629302Y60927D01*
X628665Y61836D01*
X628657Y61839D01*
X628657Y61844D01*
X627834Y62588D01*
X627826Y62589D01*
X627825Y62595D01*
X626857Y63137D01*
X626848Y63136D01*
X626846Y63142D01*
X625782Y63455D01*
X625777Y63453D01*
X625773Y63453D01*
X625771Y63457D01*
X624663Y63525D01*
X624657Y63521D01*
X624653Y63525D01*
X623545Y63355D01*
X623539Y63349D01*
X623534Y63352D01*
X622492Y62940D01*
X622488Y62933D01*
X622483Y62935D01*
X621558Y62301D01*
X621556Y62293D01*
X621550Y62294D01*
X620790Y61471D01*
X620789Y61462D01*
X620783Y61462D01*
X620226Y60490D01*
X620227Y60482D01*
X620221Y60480D01*
X619894Y59408D01*
X619897Y59400D01*
X619892Y59397D01*
X619811Y58280D01*
X619812Y58277D01*
X619811Y58276D01*
X619811Y46276D01*
X619816Y46269D01*
X619812Y46265D01*
X620031Y45321D01*
X620037Y45315D01*
X620035Y45310D01*
X620459Y44438D01*
X620466Y44435D01*
X620464Y44429D01*
X621071Y43673D01*
X621079Y43671D01*
X621079Y43665D01*
X621839Y43064D01*
X621848Y43064D01*
X621849Y43058D01*
X622724Y42640D01*
X622732Y42642D01*
X622734Y42637D01*
X623680Y42425D01*
X623687Y42428D01*
X623691Y42423D01*
X624660Y42427D01*
G37*
G36*
X1092020Y42427D02*
X1092020Y42427D01*
X1092021Y42427D01*
X1093089Y42446D01*
X1093096Y42451D01*
X1093100Y42447D01*
X1094137Y42703D01*
X1094142Y42710D01*
X1094148Y42707D01*
X1095102Y43188D01*
X1095106Y43195D01*
X1095111Y43194D01*
X1095935Y43875D01*
X1095936Y43883D01*
X1095942Y43883D01*
X1096593Y44730D01*
X1096593Y44738D01*
X1096599Y44739D01*
X1097046Y45710D01*
X1097044Y45718D01*
X1097049Y45720D01*
X1097268Y46766D01*
X1097265Y46773D01*
X1097269Y46776D01*
X1097269Y58776D01*
X1097266Y58781D01*
X1097269Y58784D01*
X1097089Y59879D01*
X1097083Y59885D01*
X1097086Y59890D01*
X1096667Y60918D01*
X1096660Y60922D01*
X1096662Y60927D01*
X1096025Y61836D01*
X1096017Y61839D01*
X1096017Y61844D01*
X1095194Y62588D01*
X1095186Y62589D01*
X1095185Y62595D01*
X1094217Y63137D01*
X1094208Y63136D01*
X1094206Y63142D01*
X1093142Y63455D01*
X1093137Y63453D01*
X1093133Y63453D01*
X1093131Y63457D01*
X1092023Y63525D01*
X1092017Y63521D01*
X1092013Y63525D01*
X1090905Y63355D01*
X1090899Y63349D01*
X1090894Y63352D01*
X1089852Y62940D01*
X1089848Y62933D01*
X1089843Y62935D01*
X1088918Y62301D01*
X1088916Y62293D01*
X1088910Y62294D01*
X1088150Y61471D01*
X1088149Y61462D01*
X1088143Y61462D01*
X1087586Y60490D01*
X1087587Y60482D01*
X1087581Y60480D01*
X1087254Y59408D01*
X1087257Y59400D01*
X1087252Y59397D01*
X1087171Y58280D01*
X1087172Y58277D01*
X1087171Y58276D01*
X1087171Y46276D01*
X1087176Y46269D01*
X1087172Y46265D01*
X1087391Y45321D01*
X1087397Y45315D01*
X1087395Y45310D01*
X1087819Y44438D01*
X1087826Y44435D01*
X1087824Y44429D01*
X1088431Y43673D01*
X1088439Y43671D01*
X1088439Y43665D01*
X1089199Y43064D01*
X1089208Y43064D01*
X1089209Y43058D01*
X1090084Y42640D01*
X1090092Y42642D01*
X1090094Y42637D01*
X1091040Y42425D01*
X1091047Y42428D01*
X1091051Y42423D01*
X1092020Y42427D01*
G37*
G36*
X1559380Y42427D02*
X1559380Y42427D01*
X1559381Y42427D01*
X1560449Y42446D01*
X1560456Y42451D01*
X1560460Y42447D01*
X1561497Y42703D01*
X1561502Y42710D01*
X1561508Y42707D01*
X1562462Y43188D01*
X1562466Y43195D01*
X1562471Y43194D01*
X1563295Y43875D01*
X1563296Y43883D01*
X1563302Y43883D01*
X1563953Y44730D01*
X1563953Y44738D01*
X1563959Y44739D01*
X1564406Y45710D01*
X1564404Y45718D01*
X1564409Y45720D01*
X1564628Y46766D01*
X1564625Y46773D01*
X1564629Y46776D01*
X1564629Y58776D01*
X1564626Y58781D01*
X1564629Y58784D01*
X1564449Y59879D01*
X1564443Y59885D01*
X1564446Y59890D01*
X1564027Y60918D01*
X1564020Y60922D01*
X1564022Y60927D01*
X1563385Y61836D01*
X1563377Y61839D01*
X1563377Y61844D01*
X1562554Y62588D01*
X1562546Y62589D01*
X1562545Y62595D01*
X1561577Y63137D01*
X1561568Y63136D01*
X1561566Y63142D01*
X1560502Y63455D01*
X1560497Y63453D01*
X1560493Y63453D01*
X1560491Y63457D01*
X1559383Y63525D01*
X1559377Y63521D01*
X1559373Y63525D01*
X1558265Y63355D01*
X1558259Y63349D01*
X1558254Y63352D01*
X1557212Y62940D01*
X1557208Y62933D01*
X1557203Y62935D01*
X1556278Y62301D01*
X1556276Y62293D01*
X1556270Y62294D01*
X1555510Y61471D01*
X1555509Y61462D01*
X1555503Y61462D01*
X1554946Y60490D01*
X1554947Y60482D01*
X1554941Y60480D01*
X1554614Y59408D01*
X1554617Y59400D01*
X1554612Y59397D01*
X1554531Y58280D01*
X1554532Y58277D01*
X1554531Y58276D01*
X1554531Y46276D01*
X1554536Y46269D01*
X1554532Y46265D01*
X1554751Y45321D01*
X1554757Y45315D01*
X1554755Y45310D01*
X1555179Y44438D01*
X1555186Y44435D01*
X1555184Y44429D01*
X1555791Y43673D01*
X1555799Y43671D01*
X1555799Y43665D01*
X1556559Y43064D01*
X1556568Y43064D01*
X1556569Y43058D01*
X1557444Y42640D01*
X1557452Y42642D01*
X1557454Y42637D01*
X1558400Y42425D01*
X1558407Y42428D01*
X1558411Y42423D01*
X1559380Y42427D01*
G37*
G36*
X157300Y42427D02*
X157300Y42427D01*
X157301Y42427D01*
X158369Y42446D01*
X158376Y42451D01*
X158380Y42447D01*
X159417Y42703D01*
X159422Y42710D01*
X159428Y42707D01*
X160382Y43188D01*
X160386Y43195D01*
X160391Y43194D01*
X161215Y43875D01*
X161216Y43883D01*
X161222Y43883D01*
X161873Y44730D01*
X161873Y44738D01*
X161879Y44739D01*
X162326Y45710D01*
X162324Y45718D01*
X162329Y45720D01*
X162548Y46766D01*
X162545Y46773D01*
X162549Y46776D01*
X162549Y58776D01*
X162546Y58781D01*
X162549Y58784D01*
X162369Y59879D01*
X162363Y59885D01*
X162366Y59890D01*
X161947Y60918D01*
X161940Y60922D01*
X161942Y60927D01*
X161305Y61836D01*
X161297Y61839D01*
X161297Y61844D01*
X160474Y62588D01*
X160466Y62589D01*
X160465Y62595D01*
X159497Y63137D01*
X159488Y63136D01*
X159486Y63142D01*
X158422Y63455D01*
X158417Y63453D01*
X158413Y63453D01*
X158411Y63457D01*
X157303Y63525D01*
X157297Y63521D01*
X157293Y63525D01*
X156185Y63355D01*
X156179Y63349D01*
X156174Y63352D01*
X155132Y62940D01*
X155128Y62933D01*
X155123Y62935D01*
X154198Y62301D01*
X154196Y62293D01*
X154190Y62294D01*
X153430Y61471D01*
X153429Y61462D01*
X153423Y61462D01*
X152866Y60490D01*
X152867Y60482D01*
X152861Y60480D01*
X152534Y59408D01*
X152537Y59400D01*
X152532Y59397D01*
X152451Y58280D01*
X152452Y58277D01*
X152451Y58276D01*
X152451Y46276D01*
X152456Y46269D01*
X152452Y46265D01*
X152671Y45321D01*
X152677Y45315D01*
X152675Y45310D01*
X153099Y44438D01*
X153106Y44435D01*
X153104Y44429D01*
X153711Y43673D01*
X153719Y43671D01*
X153719Y43665D01*
X154479Y43064D01*
X154488Y43064D01*
X154489Y43058D01*
X155364Y42640D01*
X155372Y42642D01*
X155374Y42637D01*
X156320Y42425D01*
X156327Y42428D01*
X156331Y42423D01*
X157300Y42427D01*
G37*
G36*
X157802Y1193778D02*
X157802Y1193778D01*
X157806Y1193775D01*
X158851Y1193893D01*
X158857Y1193899D01*
X158862Y1193895D01*
X159856Y1194243D01*
X159860Y1194250D01*
X159865Y1194248D01*
X160757Y1194808D01*
X160760Y1194815D01*
X160765Y1194815D01*
X161509Y1195559D01*
X161511Y1195567D01*
X161516Y1195567D01*
X162076Y1196459D01*
X162076Y1196466D01*
X162077Y1196467D01*
X162081Y1196468D01*
X162429Y1197462D01*
X162426Y1197470D01*
X162431Y1197473D01*
X162549Y1198519D01*
X162547Y1198522D01*
X162549Y1198524D01*
X162549Y1210524D01*
X162546Y1210529D01*
X162549Y1210532D01*
X162391Y1211528D01*
X162385Y1211534D01*
X162388Y1211539D01*
X162013Y1212475D01*
X162006Y1212479D01*
X162008Y1212485D01*
X161434Y1213314D01*
X161426Y1213317D01*
X161427Y1213322D01*
X160683Y1214003D01*
X160674Y1214004D01*
X160674Y1214010D01*
X159797Y1214508D01*
X159789Y1214507D01*
X159786Y1214512D01*
X158821Y1214803D01*
X158813Y1214800D01*
X158810Y1214805D01*
X157803Y1214873D01*
X157801Y1214872D01*
X157800Y1214873D01*
X156719Y1214864D01*
X156712Y1214859D01*
X156708Y1214863D01*
X155656Y1214614D01*
X155651Y1214607D01*
X155646Y1214610D01*
X154676Y1214133D01*
X154673Y1214125D01*
X154667Y1214127D01*
X153828Y1213446D01*
X153826Y1213438D01*
X153820Y1213438D01*
X153154Y1212588D01*
X153153Y1212579D01*
X153148Y1212578D01*
X152687Y1211601D01*
X152689Y1211593D01*
X152684Y1211590D01*
X152452Y1210535D01*
X152455Y1210527D01*
X152451Y1210524D01*
X152451Y1198524D01*
X152455Y1198519D01*
X152451Y1198516D01*
X152644Y1197410D01*
X152650Y1197405D01*
X152647Y1197400D01*
X153080Y1196365D01*
X153087Y1196361D01*
X153085Y1196356D01*
X153738Y1195443D01*
X153746Y1195441D01*
X153745Y1195435D01*
X154584Y1194691D01*
X154593Y1194690D01*
X154593Y1194685D01*
X155577Y1194146D01*
X155585Y1194147D01*
X155587Y1194142D01*
X156666Y1193835D01*
X156674Y1193838D01*
X156677Y1193833D01*
X157797Y1193775D01*
X157802Y1193778D01*
G37*
G36*
X1092522Y1193778D02*
X1092522Y1193778D01*
X1092526Y1193775D01*
X1093571Y1193893D01*
X1093577Y1193899D01*
X1093582Y1193895D01*
X1094576Y1194243D01*
X1094580Y1194250D01*
X1094585Y1194248D01*
X1095477Y1194808D01*
X1095480Y1194815D01*
X1095485Y1194815D01*
X1096229Y1195559D01*
X1096231Y1195567D01*
X1096236Y1195567D01*
X1096796Y1196459D01*
X1096796Y1196466D01*
X1096797Y1196467D01*
X1096801Y1196468D01*
X1097149Y1197462D01*
X1097146Y1197470D01*
X1097151Y1197473D01*
X1097269Y1198519D01*
X1097267Y1198522D01*
X1097269Y1198524D01*
X1097269Y1210524D01*
X1097266Y1210529D01*
X1097269Y1210532D01*
X1097111Y1211528D01*
X1097105Y1211534D01*
X1097108Y1211539D01*
X1096733Y1212475D01*
X1096726Y1212479D01*
X1096728Y1212485D01*
X1096154Y1213314D01*
X1096146Y1213317D01*
X1096147Y1213322D01*
X1095403Y1214003D01*
X1095394Y1214004D01*
X1095394Y1214010D01*
X1094517Y1214508D01*
X1094509Y1214507D01*
X1094506Y1214512D01*
X1093541Y1214803D01*
X1093533Y1214800D01*
X1093530Y1214805D01*
X1092523Y1214873D01*
X1092521Y1214872D01*
X1092520Y1214873D01*
X1091439Y1214864D01*
X1091432Y1214859D01*
X1091428Y1214863D01*
X1090376Y1214614D01*
X1090371Y1214607D01*
X1090366Y1214610D01*
X1089396Y1214133D01*
X1089393Y1214125D01*
X1089387Y1214127D01*
X1088548Y1213446D01*
X1088546Y1213438D01*
X1088540Y1213438D01*
X1087874Y1212588D01*
X1087873Y1212579D01*
X1087868Y1212578D01*
X1087407Y1211601D01*
X1087409Y1211593D01*
X1087404Y1211590D01*
X1087172Y1210535D01*
X1087175Y1210527D01*
X1087171Y1210524D01*
X1087171Y1198524D01*
X1087175Y1198519D01*
X1087171Y1198516D01*
X1087364Y1197410D01*
X1087370Y1197405D01*
X1087367Y1197400D01*
X1087800Y1196365D01*
X1087807Y1196361D01*
X1087805Y1196356D01*
X1088458Y1195443D01*
X1088466Y1195441D01*
X1088465Y1195435D01*
X1089304Y1194691D01*
X1089313Y1194690D01*
X1089313Y1194685D01*
X1090297Y1194146D01*
X1090305Y1194147D01*
X1090307Y1194142D01*
X1091386Y1193835D01*
X1091394Y1193838D01*
X1091397Y1193833D01*
X1092517Y1193775D01*
X1092522Y1193778D01*
G37*
G36*
X858842Y1193778D02*
X858842Y1193778D01*
X858846Y1193775D01*
X859891Y1193893D01*
X859897Y1193899D01*
X859902Y1193895D01*
X860896Y1194243D01*
X860900Y1194250D01*
X860905Y1194248D01*
X861797Y1194808D01*
X861800Y1194815D01*
X861805Y1194815D01*
X862549Y1195559D01*
X862551Y1195567D01*
X862556Y1195567D01*
X863116Y1196459D01*
X863116Y1196466D01*
X863117Y1196467D01*
X863121Y1196468D01*
X863469Y1197462D01*
X863466Y1197470D01*
X863471Y1197473D01*
X863589Y1198519D01*
X863587Y1198522D01*
X863589Y1198524D01*
X863589Y1210524D01*
X863586Y1210529D01*
X863589Y1210532D01*
X863431Y1211528D01*
X863425Y1211534D01*
X863428Y1211539D01*
X863053Y1212475D01*
X863046Y1212479D01*
X863048Y1212485D01*
X862474Y1213314D01*
X862466Y1213317D01*
X862467Y1213322D01*
X861723Y1214003D01*
X861714Y1214004D01*
X861714Y1214010D01*
X860837Y1214508D01*
X860829Y1214507D01*
X860826Y1214512D01*
X859861Y1214803D01*
X859853Y1214800D01*
X859850Y1214805D01*
X858843Y1214873D01*
X858841Y1214872D01*
X858840Y1214873D01*
X857759Y1214864D01*
X857752Y1214859D01*
X857748Y1214863D01*
X856696Y1214614D01*
X856691Y1214607D01*
X856686Y1214610D01*
X855716Y1214133D01*
X855713Y1214125D01*
X855707Y1214127D01*
X854868Y1213446D01*
X854866Y1213438D01*
X854860Y1213438D01*
X854194Y1212588D01*
X854193Y1212579D01*
X854188Y1212578D01*
X853727Y1211601D01*
X853729Y1211593D01*
X853724Y1211590D01*
X853492Y1210535D01*
X853495Y1210527D01*
X853491Y1210524D01*
X853491Y1198524D01*
X853495Y1198519D01*
X853491Y1198516D01*
X853684Y1197410D01*
X853690Y1197405D01*
X853687Y1197400D01*
X854120Y1196365D01*
X854127Y1196361D01*
X854125Y1196356D01*
X854778Y1195443D01*
X854786Y1195441D01*
X854785Y1195435D01*
X855624Y1194691D01*
X855633Y1194690D01*
X855633Y1194685D01*
X856617Y1194146D01*
X856625Y1194147D01*
X856627Y1194142D01*
X857706Y1193835D01*
X857714Y1193838D01*
X857717Y1193833D01*
X858837Y1193775D01*
X858842Y1193778D01*
G37*
G36*
X391482Y1193778D02*
X391482Y1193778D01*
X391486Y1193775D01*
X392531Y1193893D01*
X392537Y1193899D01*
X392542Y1193895D01*
X393536Y1194243D01*
X393540Y1194250D01*
X393545Y1194248D01*
X394437Y1194808D01*
X394440Y1194815D01*
X394445Y1194815D01*
X395189Y1195559D01*
X395191Y1195567D01*
X395196Y1195567D01*
X395756Y1196459D01*
X395756Y1196466D01*
X395757Y1196467D01*
X395761Y1196468D01*
X396109Y1197462D01*
X396106Y1197470D01*
X396111Y1197473D01*
X396229Y1198519D01*
X396227Y1198522D01*
X396229Y1198524D01*
X396229Y1210524D01*
X396226Y1210529D01*
X396229Y1210532D01*
X396071Y1211528D01*
X396065Y1211534D01*
X396068Y1211539D01*
X395693Y1212475D01*
X395686Y1212479D01*
X395688Y1212485D01*
X395114Y1213314D01*
X395106Y1213317D01*
X395107Y1213322D01*
X394363Y1214003D01*
X394354Y1214004D01*
X394354Y1214010D01*
X393477Y1214508D01*
X393469Y1214507D01*
X393466Y1214512D01*
X392501Y1214803D01*
X392493Y1214800D01*
X392490Y1214805D01*
X391483Y1214873D01*
X391481Y1214872D01*
X391480Y1214873D01*
X390399Y1214864D01*
X390392Y1214859D01*
X390388Y1214863D01*
X389336Y1214614D01*
X389331Y1214607D01*
X389326Y1214610D01*
X388356Y1214133D01*
X388353Y1214125D01*
X388347Y1214127D01*
X387508Y1213446D01*
X387506Y1213438D01*
X387500Y1213438D01*
X386834Y1212588D01*
X386833Y1212579D01*
X386828Y1212578D01*
X386367Y1211601D01*
X386369Y1211593D01*
X386364Y1211590D01*
X386132Y1210535D01*
X386135Y1210527D01*
X386131Y1210524D01*
X386131Y1198524D01*
X386135Y1198519D01*
X386131Y1198516D01*
X386324Y1197410D01*
X386330Y1197405D01*
X386327Y1197400D01*
X386760Y1196365D01*
X386767Y1196361D01*
X386765Y1196356D01*
X387418Y1195443D01*
X387426Y1195441D01*
X387425Y1195435D01*
X388264Y1194691D01*
X388273Y1194690D01*
X388273Y1194685D01*
X389257Y1194146D01*
X389265Y1194147D01*
X389267Y1194142D01*
X390346Y1193835D01*
X390354Y1193838D01*
X390357Y1193833D01*
X391477Y1193775D01*
X391482Y1193778D01*
G37*
G36*
X1559882Y1193778D02*
X1559882Y1193778D01*
X1559886Y1193775D01*
X1560931Y1193893D01*
X1560937Y1193899D01*
X1560942Y1193895D01*
X1561936Y1194243D01*
X1561940Y1194250D01*
X1561945Y1194248D01*
X1562837Y1194808D01*
X1562840Y1194815D01*
X1562845Y1194815D01*
X1563589Y1195559D01*
X1563591Y1195567D01*
X1563596Y1195567D01*
X1564156Y1196459D01*
X1564156Y1196466D01*
X1564157Y1196467D01*
X1564161Y1196468D01*
X1564509Y1197462D01*
X1564506Y1197470D01*
X1564511Y1197473D01*
X1564629Y1198519D01*
X1564627Y1198522D01*
X1564629Y1198524D01*
X1564629Y1210524D01*
X1564626Y1210529D01*
X1564629Y1210532D01*
X1564471Y1211528D01*
X1564465Y1211534D01*
X1564468Y1211539D01*
X1564093Y1212475D01*
X1564086Y1212479D01*
X1564088Y1212485D01*
X1563514Y1213314D01*
X1563506Y1213317D01*
X1563507Y1213322D01*
X1562763Y1214003D01*
X1562754Y1214004D01*
X1562754Y1214010D01*
X1561877Y1214508D01*
X1561869Y1214507D01*
X1561866Y1214512D01*
X1560901Y1214803D01*
X1560893Y1214800D01*
X1560890Y1214805D01*
X1559883Y1214873D01*
X1559881Y1214872D01*
X1559880Y1214873D01*
X1558799Y1214864D01*
X1558792Y1214859D01*
X1558788Y1214863D01*
X1557736Y1214614D01*
X1557731Y1214607D01*
X1557726Y1214610D01*
X1556756Y1214133D01*
X1556753Y1214125D01*
X1556747Y1214127D01*
X1555908Y1213446D01*
X1555906Y1213438D01*
X1555900Y1213438D01*
X1555234Y1212588D01*
X1555233Y1212579D01*
X1555228Y1212578D01*
X1554767Y1211601D01*
X1554769Y1211593D01*
X1554764Y1211590D01*
X1554532Y1210535D01*
X1554535Y1210527D01*
X1554531Y1210524D01*
X1554531Y1198524D01*
X1554535Y1198519D01*
X1554531Y1198516D01*
X1554724Y1197410D01*
X1554730Y1197405D01*
X1554727Y1197400D01*
X1555160Y1196365D01*
X1555167Y1196361D01*
X1555165Y1196356D01*
X1555818Y1195443D01*
X1555826Y1195441D01*
X1555825Y1195435D01*
X1556664Y1194691D01*
X1556673Y1194690D01*
X1556673Y1194685D01*
X1557657Y1194146D01*
X1557665Y1194147D01*
X1557667Y1194142D01*
X1558746Y1193835D01*
X1558754Y1193838D01*
X1558757Y1193833D01*
X1559877Y1193775D01*
X1559882Y1193778D01*
G37*
G36*
X1326202Y1193778D02*
X1326202Y1193778D01*
X1326206Y1193775D01*
X1327251Y1193893D01*
X1327257Y1193899D01*
X1327262Y1193895D01*
X1328256Y1194243D01*
X1328260Y1194250D01*
X1328265Y1194248D01*
X1329157Y1194808D01*
X1329160Y1194815D01*
X1329165Y1194815D01*
X1329909Y1195559D01*
X1329911Y1195567D01*
X1329916Y1195567D01*
X1330476Y1196459D01*
X1330476Y1196466D01*
X1330477Y1196467D01*
X1330481Y1196468D01*
X1330829Y1197462D01*
X1330826Y1197470D01*
X1330831Y1197473D01*
X1330949Y1198519D01*
X1330947Y1198522D01*
X1330949Y1198524D01*
X1330949Y1210524D01*
X1330946Y1210529D01*
X1330949Y1210532D01*
X1330791Y1211528D01*
X1330785Y1211534D01*
X1330788Y1211539D01*
X1330413Y1212475D01*
X1330406Y1212479D01*
X1330408Y1212485D01*
X1329834Y1213314D01*
X1329826Y1213317D01*
X1329827Y1213322D01*
X1329083Y1214003D01*
X1329074Y1214004D01*
X1329074Y1214010D01*
X1328197Y1214508D01*
X1328189Y1214507D01*
X1328186Y1214512D01*
X1327221Y1214803D01*
X1327213Y1214800D01*
X1327210Y1214805D01*
X1326203Y1214873D01*
X1326201Y1214872D01*
X1326200Y1214873D01*
X1325119Y1214864D01*
X1325112Y1214859D01*
X1325108Y1214863D01*
X1324056Y1214614D01*
X1324051Y1214607D01*
X1324046Y1214610D01*
X1323076Y1214133D01*
X1323073Y1214125D01*
X1323067Y1214127D01*
X1322228Y1213446D01*
X1322226Y1213438D01*
X1322220Y1213438D01*
X1321554Y1212588D01*
X1321553Y1212579D01*
X1321548Y1212578D01*
X1321087Y1211601D01*
X1321089Y1211593D01*
X1321084Y1211590D01*
X1320852Y1210535D01*
X1320855Y1210527D01*
X1320851Y1210524D01*
X1320851Y1198524D01*
X1320855Y1198519D01*
X1320851Y1198516D01*
X1321044Y1197410D01*
X1321050Y1197405D01*
X1321047Y1197400D01*
X1321480Y1196365D01*
X1321487Y1196361D01*
X1321485Y1196356D01*
X1322138Y1195443D01*
X1322146Y1195441D01*
X1322145Y1195435D01*
X1322984Y1194691D01*
X1322993Y1194690D01*
X1322993Y1194685D01*
X1323977Y1194146D01*
X1323985Y1194147D01*
X1323987Y1194142D01*
X1325066Y1193835D01*
X1325074Y1193838D01*
X1325077Y1193833D01*
X1326197Y1193775D01*
X1326202Y1193778D01*
G37*
G36*
X625162Y1193778D02*
X625162Y1193778D01*
X625166Y1193775D01*
X626211Y1193893D01*
X626217Y1193899D01*
X626222Y1193895D01*
X627216Y1194243D01*
X627220Y1194250D01*
X627225Y1194248D01*
X628117Y1194808D01*
X628120Y1194815D01*
X628125Y1194815D01*
X628869Y1195559D01*
X628871Y1195567D01*
X628876Y1195567D01*
X629436Y1196459D01*
X629436Y1196466D01*
X629437Y1196467D01*
X629441Y1196468D01*
X629789Y1197462D01*
X629786Y1197470D01*
X629791Y1197473D01*
X629909Y1198519D01*
X629907Y1198522D01*
X629909Y1198524D01*
X629909Y1210524D01*
X629906Y1210529D01*
X629909Y1210532D01*
X629751Y1211528D01*
X629745Y1211534D01*
X629748Y1211539D01*
X629373Y1212475D01*
X629366Y1212479D01*
X629368Y1212485D01*
X628794Y1213314D01*
X628786Y1213317D01*
X628787Y1213322D01*
X628043Y1214003D01*
X628034Y1214004D01*
X628034Y1214010D01*
X627157Y1214508D01*
X627149Y1214507D01*
X627146Y1214512D01*
X626181Y1214803D01*
X626173Y1214800D01*
X626170Y1214805D01*
X625163Y1214873D01*
X625161Y1214872D01*
X625160Y1214873D01*
X624079Y1214864D01*
X624072Y1214859D01*
X624068Y1214863D01*
X623016Y1214614D01*
X623011Y1214607D01*
X623006Y1214610D01*
X622036Y1214133D01*
X622033Y1214125D01*
X622027Y1214127D01*
X621188Y1213446D01*
X621186Y1213438D01*
X621180Y1213438D01*
X620514Y1212588D01*
X620513Y1212579D01*
X620508Y1212578D01*
X620047Y1211601D01*
X620049Y1211593D01*
X620044Y1211590D01*
X619812Y1210535D01*
X619815Y1210527D01*
X619811Y1210524D01*
X619811Y1198524D01*
X619815Y1198519D01*
X619811Y1198516D01*
X620004Y1197410D01*
X620010Y1197405D01*
X620007Y1197400D01*
X620440Y1196365D01*
X620447Y1196361D01*
X620445Y1196356D01*
X621098Y1195443D01*
X621106Y1195441D01*
X621105Y1195435D01*
X621944Y1194691D01*
X621953Y1194690D01*
X621953Y1194685D01*
X622937Y1194146D01*
X622945Y1194147D01*
X622947Y1194142D01*
X624026Y1193835D01*
X624034Y1193838D01*
X624037Y1193833D01*
X625157Y1193775D01*
X625162Y1193778D01*
G37*
G36*
X539241Y42436D02*
X539241Y42436D01*
X539248Y42441D01*
X539252Y42437D01*
X540304Y42687D01*
X540309Y42693D01*
X540314Y42690D01*
X541284Y43167D01*
X541287Y43175D01*
X541293Y43173D01*
X542132Y43854D01*
X542134Y43862D01*
X542140Y43862D01*
X542806Y44713D01*
X542807Y44721D01*
X542812Y44722D01*
X543273Y45699D01*
X543271Y45707D01*
X543277Y45710D01*
X543508Y46765D01*
X543505Y46773D01*
X543509Y46776D01*
X543509Y58776D01*
X543505Y58781D01*
X543509Y58784D01*
X543316Y59890D01*
X543310Y59895D01*
X543313Y59900D01*
X542880Y60935D01*
X542873Y60939D01*
X542875Y60944D01*
X542222Y61857D01*
X542214Y61859D01*
X542215Y61865D01*
X541376Y62609D01*
X541367Y62610D01*
X541367Y62615D01*
X540383Y63154D01*
X540375Y63153D01*
X540373Y63158D01*
X539294Y63465D01*
X539286Y63462D01*
X539283Y63467D01*
X538163Y63525D01*
X538158Y63522D01*
X538155Y63525D01*
X537109Y63407D01*
X537103Y63401D01*
X537098Y63405D01*
X536104Y63057D01*
X536100Y63050D01*
X536095Y63052D01*
X535203Y62492D01*
X535201Y62485D01*
X535195Y62485D01*
X534451Y61741D01*
X534449Y61733D01*
X534444Y61733D01*
X533884Y60841D01*
X533884Y60833D01*
X533879Y60832D01*
X533531Y59838D01*
X533534Y59830D01*
X533529Y59827D01*
X533411Y58782D01*
X533413Y58778D01*
X533411Y58776D01*
X533411Y46776D01*
X533414Y46771D01*
X533411Y46768D01*
X533569Y45772D01*
X533575Y45766D01*
X533572Y45761D01*
X533947Y44825D01*
X533954Y44821D01*
X533952Y44815D01*
X534526Y43986D01*
X534534Y43983D01*
X534533Y43978D01*
X535277Y43297D01*
X535286Y43296D01*
X535286Y43290D01*
X536163Y42792D01*
X536172Y42793D01*
X536174Y42788D01*
X537139Y42497D01*
X537147Y42500D01*
X537150Y42495D01*
X538157Y42427D01*
X538159Y42428D01*
X538160Y42427D01*
X539241Y42436D01*
G37*
G36*
X305561Y42436D02*
X305561Y42436D01*
X305568Y42441D01*
X305572Y42437D01*
X306624Y42687D01*
X306629Y42693D01*
X306634Y42690D01*
X307604Y43167D01*
X307607Y43175D01*
X307613Y43173D01*
X308452Y43854D01*
X308454Y43862D01*
X308460Y43862D01*
X309126Y44713D01*
X309127Y44721D01*
X309132Y44722D01*
X309593Y45699D01*
X309591Y45707D01*
X309597Y45710D01*
X309828Y46765D01*
X309825Y46773D01*
X309829Y46776D01*
X309829Y58776D01*
X309825Y58781D01*
X309829Y58784D01*
X309636Y59890D01*
X309630Y59895D01*
X309633Y59900D01*
X309200Y60935D01*
X309193Y60939D01*
X309195Y60944D01*
X308542Y61857D01*
X308534Y61859D01*
X308535Y61865D01*
X307696Y62609D01*
X307687Y62610D01*
X307687Y62615D01*
X306703Y63154D01*
X306695Y63153D01*
X306693Y63158D01*
X305614Y63465D01*
X305606Y63462D01*
X305603Y63467D01*
X304483Y63525D01*
X304478Y63522D01*
X304475Y63525D01*
X303429Y63407D01*
X303423Y63401D01*
X303418Y63405D01*
X302424Y63057D01*
X302420Y63050D01*
X302415Y63052D01*
X301523Y62492D01*
X301521Y62485D01*
X301515Y62485D01*
X300771Y61741D01*
X300769Y61733D01*
X300764Y61733D01*
X300204Y60841D01*
X300204Y60833D01*
X300199Y60832D01*
X299851Y59838D01*
X299854Y59830D01*
X299849Y59827D01*
X299731Y58782D01*
X299733Y58778D01*
X299731Y58776D01*
X299731Y46776D01*
X299734Y46771D01*
X299731Y46768D01*
X299889Y45772D01*
X299895Y45766D01*
X299892Y45761D01*
X300267Y44825D01*
X300274Y44821D01*
X300272Y44815D01*
X300846Y43986D01*
X300854Y43983D01*
X300853Y43978D01*
X301597Y43297D01*
X301606Y43296D01*
X301606Y43290D01*
X302483Y42792D01*
X302492Y42793D01*
X302494Y42788D01*
X303459Y42497D01*
X303467Y42500D01*
X303470Y42495D01*
X304477Y42427D01*
X304479Y42428D01*
X304480Y42427D01*
X305561Y42436D01*
G37*
G36*
X1473961Y42436D02*
X1473961Y42436D01*
X1473968Y42441D01*
X1473972Y42437D01*
X1475024Y42687D01*
X1475029Y42693D01*
X1475034Y42690D01*
X1476004Y43167D01*
X1476007Y43175D01*
X1476013Y43173D01*
X1476852Y43854D01*
X1476854Y43862D01*
X1476860Y43862D01*
X1477526Y44713D01*
X1477527Y44721D01*
X1477532Y44722D01*
X1477993Y45699D01*
X1477991Y45707D01*
X1477997Y45710D01*
X1478228Y46765D01*
X1478225Y46773D01*
X1478229Y46776D01*
X1478229Y58776D01*
X1478225Y58781D01*
X1478229Y58784D01*
X1478036Y59890D01*
X1478030Y59895D01*
X1478033Y59900D01*
X1477600Y60935D01*
X1477593Y60939D01*
X1477595Y60944D01*
X1476942Y61857D01*
X1476934Y61859D01*
X1476935Y61865D01*
X1476096Y62609D01*
X1476087Y62610D01*
X1476087Y62615D01*
X1475103Y63154D01*
X1475095Y63153D01*
X1475093Y63158D01*
X1474014Y63465D01*
X1474006Y63462D01*
X1474003Y63467D01*
X1472883Y63525D01*
X1472878Y63522D01*
X1472875Y63525D01*
X1471829Y63407D01*
X1471823Y63401D01*
X1471818Y63405D01*
X1470824Y63057D01*
X1470820Y63050D01*
X1470815Y63052D01*
X1469923Y62492D01*
X1469921Y62485D01*
X1469915Y62485D01*
X1469171Y61741D01*
X1469169Y61733D01*
X1469164Y61733D01*
X1468604Y60841D01*
X1468604Y60833D01*
X1468599Y60832D01*
X1468251Y59838D01*
X1468254Y59830D01*
X1468249Y59827D01*
X1468131Y58782D01*
X1468133Y58778D01*
X1468131Y58776D01*
X1468131Y46776D01*
X1468134Y46771D01*
X1468131Y46768D01*
X1468289Y45772D01*
X1468295Y45766D01*
X1468292Y45761D01*
X1468667Y44825D01*
X1468674Y44821D01*
X1468672Y44815D01*
X1469246Y43986D01*
X1469254Y43983D01*
X1469253Y43978D01*
X1469997Y43297D01*
X1470006Y43296D01*
X1470006Y43290D01*
X1470883Y42792D01*
X1470892Y42793D01*
X1470894Y42788D01*
X1471859Y42497D01*
X1471867Y42500D01*
X1471870Y42495D01*
X1472877Y42427D01*
X1472879Y42428D01*
X1472880Y42427D01*
X1473961Y42436D01*
G37*
G36*
X1240281Y42436D02*
X1240281Y42436D01*
X1240288Y42441D01*
X1240292Y42437D01*
X1241344Y42687D01*
X1241349Y42693D01*
X1241354Y42690D01*
X1242324Y43167D01*
X1242327Y43175D01*
X1242333Y43173D01*
X1243172Y43854D01*
X1243174Y43862D01*
X1243180Y43862D01*
X1243846Y44713D01*
X1243847Y44721D01*
X1243852Y44722D01*
X1244313Y45699D01*
X1244311Y45707D01*
X1244317Y45710D01*
X1244548Y46765D01*
X1244545Y46773D01*
X1244549Y46776D01*
X1244549Y58776D01*
X1244545Y58781D01*
X1244549Y58784D01*
X1244356Y59890D01*
X1244350Y59895D01*
X1244353Y59900D01*
X1243920Y60935D01*
X1243913Y60939D01*
X1243915Y60944D01*
X1243262Y61857D01*
X1243254Y61859D01*
X1243255Y61865D01*
X1242416Y62609D01*
X1242407Y62610D01*
X1242407Y62615D01*
X1241423Y63154D01*
X1241415Y63153D01*
X1241413Y63158D01*
X1240334Y63465D01*
X1240326Y63462D01*
X1240323Y63467D01*
X1239203Y63525D01*
X1239198Y63522D01*
X1239195Y63525D01*
X1238149Y63407D01*
X1238143Y63401D01*
X1238138Y63405D01*
X1237144Y63057D01*
X1237140Y63050D01*
X1237135Y63052D01*
X1236243Y62492D01*
X1236241Y62485D01*
X1236235Y62485D01*
X1235491Y61741D01*
X1235489Y61733D01*
X1235484Y61733D01*
X1234924Y60841D01*
X1234924Y60833D01*
X1234919Y60832D01*
X1234571Y59838D01*
X1234574Y59830D01*
X1234569Y59827D01*
X1234451Y58782D01*
X1234453Y58778D01*
X1234451Y58776D01*
X1234451Y46776D01*
X1234454Y46771D01*
X1234451Y46768D01*
X1234609Y45772D01*
X1234615Y45766D01*
X1234612Y45761D01*
X1234987Y44825D01*
X1234994Y44821D01*
X1234992Y44815D01*
X1235566Y43986D01*
X1235574Y43983D01*
X1235573Y43978D01*
X1236317Y43297D01*
X1236326Y43296D01*
X1236326Y43290D01*
X1237203Y42792D01*
X1237212Y42793D01*
X1237214Y42788D01*
X1238179Y42497D01*
X1238187Y42500D01*
X1238190Y42495D01*
X1239197Y42427D01*
X1239199Y42428D01*
X1239200Y42427D01*
X1240281Y42436D01*
G37*
G36*
X1006601Y42436D02*
X1006601Y42436D01*
X1006608Y42441D01*
X1006612Y42437D01*
X1007664Y42687D01*
X1007669Y42693D01*
X1007674Y42690D01*
X1008644Y43167D01*
X1008647Y43175D01*
X1008653Y43173D01*
X1009492Y43854D01*
X1009494Y43862D01*
X1009500Y43862D01*
X1010166Y44713D01*
X1010167Y44721D01*
X1010172Y44722D01*
X1010633Y45699D01*
X1010631Y45707D01*
X1010637Y45710D01*
X1010868Y46765D01*
X1010865Y46773D01*
X1010869Y46776D01*
X1010869Y58776D01*
X1010865Y58781D01*
X1010869Y58784D01*
X1010676Y59890D01*
X1010670Y59895D01*
X1010673Y59900D01*
X1010240Y60935D01*
X1010233Y60939D01*
X1010235Y60944D01*
X1009582Y61857D01*
X1009574Y61859D01*
X1009575Y61865D01*
X1008736Y62609D01*
X1008727Y62610D01*
X1008727Y62615D01*
X1007743Y63154D01*
X1007735Y63153D01*
X1007733Y63158D01*
X1006654Y63465D01*
X1006646Y63462D01*
X1006643Y63467D01*
X1005523Y63525D01*
X1005518Y63522D01*
X1005515Y63525D01*
X1004469Y63407D01*
X1004463Y63401D01*
X1004458Y63405D01*
X1003464Y63057D01*
X1003460Y63050D01*
X1003455Y63052D01*
X1002563Y62492D01*
X1002561Y62485D01*
X1002555Y62485D01*
X1001811Y61741D01*
X1001809Y61733D01*
X1001804Y61733D01*
X1001244Y60841D01*
X1001244Y60833D01*
X1001239Y60832D01*
X1000891Y59838D01*
X1000894Y59830D01*
X1000889Y59827D01*
X1000771Y58782D01*
X1000773Y58778D01*
X1000771Y58776D01*
X1000771Y46776D01*
X1000774Y46771D01*
X1000771Y46768D01*
X1000929Y45772D01*
X1000935Y45766D01*
X1000932Y45761D01*
X1001307Y44825D01*
X1001314Y44821D01*
X1001312Y44815D01*
X1001886Y43986D01*
X1001894Y43983D01*
X1001893Y43978D01*
X1002637Y43297D01*
X1002646Y43296D01*
X1002646Y43290D01*
X1003523Y42792D01*
X1003532Y42793D01*
X1003534Y42788D01*
X1004499Y42497D01*
X1004507Y42500D01*
X1004510Y42495D01*
X1005517Y42427D01*
X1005519Y42428D01*
X1005520Y42427D01*
X1006601Y42436D01*
G37*
G36*
X71881Y42436D02*
X71881Y42436D01*
X71888Y42441D01*
X71892Y42437D01*
X72944Y42687D01*
X72949Y42693D01*
X72954Y42690D01*
X73924Y43167D01*
X73927Y43175D01*
X73933Y43173D01*
X74772Y43854D01*
X74774Y43862D01*
X74780Y43862D01*
X75446Y44713D01*
X75447Y44721D01*
X75452Y44722D01*
X75913Y45699D01*
X75911Y45707D01*
X75917Y45710D01*
X76148Y46765D01*
X76145Y46773D01*
X76149Y46776D01*
X76149Y58776D01*
X76145Y58781D01*
X76149Y58784D01*
X75956Y59890D01*
X75950Y59895D01*
X75953Y59900D01*
X75520Y60935D01*
X75513Y60939D01*
X75515Y60944D01*
X74862Y61857D01*
X74854Y61859D01*
X74855Y61865D01*
X74016Y62609D01*
X74007Y62610D01*
X74007Y62615D01*
X73023Y63154D01*
X73015Y63153D01*
X73013Y63158D01*
X71934Y63465D01*
X71926Y63462D01*
X71923Y63467D01*
X70803Y63525D01*
X70798Y63522D01*
X70795Y63525D01*
X69749Y63407D01*
X69743Y63401D01*
X69738Y63405D01*
X68744Y63057D01*
X68740Y63050D01*
X68735Y63052D01*
X67843Y62492D01*
X67841Y62485D01*
X67835Y62485D01*
X67091Y61741D01*
X67089Y61733D01*
X67084Y61733D01*
X66524Y60841D01*
X66524Y60833D01*
X66519Y60832D01*
X66171Y59838D01*
X66174Y59830D01*
X66169Y59827D01*
X66051Y58782D01*
X66053Y58778D01*
X66051Y58776D01*
X66051Y46776D01*
X66054Y46771D01*
X66051Y46768D01*
X66209Y45772D01*
X66215Y45766D01*
X66212Y45761D01*
X66587Y44825D01*
X66594Y44821D01*
X66592Y44815D01*
X67166Y43986D01*
X67174Y43983D01*
X67173Y43978D01*
X67917Y43297D01*
X67926Y43296D01*
X67926Y43290D01*
X68803Y42792D01*
X68812Y42793D01*
X68814Y42788D01*
X69779Y42497D01*
X69787Y42500D01*
X69790Y42495D01*
X70797Y42427D01*
X70799Y42428D01*
X70800Y42427D01*
X71881Y42436D01*
G37*
G36*
X772921Y42436D02*
X772921Y42436D01*
X772928Y42441D01*
X772932Y42437D01*
X773984Y42687D01*
X773989Y42693D01*
X773994Y42690D01*
X774964Y43167D01*
X774967Y43175D01*
X774973Y43173D01*
X775812Y43854D01*
X775814Y43862D01*
X775820Y43862D01*
X776486Y44713D01*
X776487Y44721D01*
X776492Y44722D01*
X776953Y45699D01*
X776951Y45707D01*
X776957Y45710D01*
X777188Y46765D01*
X777185Y46773D01*
X777189Y46776D01*
X777189Y58776D01*
X777185Y58781D01*
X777189Y58784D01*
X776996Y59890D01*
X776990Y59895D01*
X776993Y59900D01*
X776560Y60935D01*
X776553Y60939D01*
X776555Y60944D01*
X775902Y61857D01*
X775894Y61859D01*
X775895Y61865D01*
X775056Y62609D01*
X775047Y62610D01*
X775047Y62615D01*
X774063Y63154D01*
X774055Y63153D01*
X774053Y63158D01*
X772974Y63465D01*
X772966Y63462D01*
X772963Y63467D01*
X771843Y63525D01*
X771838Y63522D01*
X771835Y63525D01*
X770789Y63407D01*
X770783Y63401D01*
X770778Y63405D01*
X769784Y63057D01*
X769780Y63050D01*
X769775Y63052D01*
X768883Y62492D01*
X768881Y62485D01*
X768875Y62485D01*
X768131Y61741D01*
X768129Y61733D01*
X768124Y61733D01*
X767564Y60841D01*
X767564Y60833D01*
X767559Y60832D01*
X767211Y59838D01*
X767214Y59830D01*
X767209Y59827D01*
X767091Y58782D01*
X767093Y58778D01*
X767091Y58776D01*
X767091Y46776D01*
X767094Y46771D01*
X767091Y46768D01*
X767249Y45772D01*
X767255Y45766D01*
X767252Y45761D01*
X767627Y44825D01*
X767634Y44821D01*
X767632Y44815D01*
X768206Y43986D01*
X768214Y43983D01*
X768213Y43978D01*
X768957Y43297D01*
X768966Y43296D01*
X768966Y43290D01*
X769843Y42792D01*
X769852Y42793D01*
X769854Y42788D01*
X770819Y42497D01*
X770827Y42500D01*
X770830Y42495D01*
X771837Y42427D01*
X771839Y42428D01*
X771840Y42427D01*
X772921Y42436D01*
G37*
G36*
X157804Y2931D02*
X157804Y2931D01*
X157807Y2927D01*
X158883Y3082D01*
X158888Y3088D01*
X158893Y3085D01*
X159907Y3475D01*
X159911Y3482D01*
X159917Y3481D01*
X160819Y4087D01*
X160821Y4095D01*
X160827Y4094D01*
X161571Y4886D01*
X161572Y4894D01*
X161578Y4894D01*
X162127Y5832D01*
X162126Y5840D01*
X162132Y5842D01*
X162459Y6878D01*
X162456Y6886D01*
X162461Y6889D01*
X162549Y7972D01*
X162547Y7975D01*
X162549Y7976D01*
X162549Y13976D01*
X162546Y13980D01*
X162549Y13982D01*
X162399Y15115D01*
X162393Y15121D01*
X162396Y15126D01*
X161998Y16196D01*
X161991Y16200D01*
X161993Y16206D01*
X161366Y17161D01*
X161358Y17164D01*
X161359Y17169D01*
X160536Y17961D01*
X160528Y17962D01*
X160527Y17968D01*
X159548Y18557D01*
X159540Y18556D01*
X159538Y18561D01*
X158453Y18917D01*
X158445Y18915D01*
X158442Y18919D01*
X157305Y19025D01*
X157296Y19020D01*
X157291Y19024D01*
X156154Y18817D01*
X156148Y18811D01*
X156143Y18814D01*
X155081Y18359D01*
X155077Y18352D01*
X155071Y18354D01*
X154136Y17674D01*
X154134Y17666D01*
X154128Y17667D01*
X153368Y16796D01*
X153368Y16788D01*
X153362Y16787D01*
X152815Y15768D01*
X152816Y15760D01*
X152811Y15758D01*
X152807Y15745D01*
X152794Y15696D01*
X152793Y15696D01*
X152794Y15696D01*
X152780Y15647D01*
X152766Y15597D01*
X152753Y15548D01*
X152739Y15499D01*
X152726Y15450D01*
X152712Y15400D01*
X152699Y15351D01*
X152685Y15302D01*
X152671Y15253D01*
X152658Y15203D01*
X152644Y15154D01*
X152631Y15105D01*
X152617Y15056D01*
X152604Y15006D01*
X152590Y14957D01*
X152577Y14908D01*
X152576Y14908D01*
X152563Y14859D01*
X152549Y14809D01*
X152504Y14644D01*
X152507Y14636D01*
X152502Y14633D01*
X152451Y13478D01*
X152452Y13477D01*
X152451Y13476D01*
X152451Y7476D01*
X152455Y7470D01*
X152452Y7467D01*
X152664Y6386D01*
X152670Y6381D01*
X152667Y6376D01*
X153114Y5370D01*
X153121Y5366D01*
X153119Y5360D01*
X153779Y4479D01*
X153787Y4476D01*
X153787Y4471D01*
X154626Y3758D01*
X154634Y3758D01*
X154635Y3752D01*
X155612Y3244D01*
X155620Y3245D01*
X155622Y3240D01*
X156687Y2962D01*
X156695Y2965D01*
X156698Y2961D01*
X157799Y2927D01*
X157804Y2931D01*
G37*
G36*
X858844Y2931D02*
X858844Y2931D01*
X858847Y2927D01*
X859923Y3082D01*
X859928Y3088D01*
X859933Y3085D01*
X860947Y3475D01*
X860951Y3482D01*
X860957Y3481D01*
X861859Y4087D01*
X861861Y4095D01*
X861867Y4094D01*
X862611Y4886D01*
X862612Y4894D01*
X862618Y4894D01*
X863167Y5832D01*
X863166Y5840D01*
X863172Y5842D01*
X863499Y6878D01*
X863496Y6886D01*
X863501Y6889D01*
X863589Y7972D01*
X863587Y7975D01*
X863589Y7976D01*
X863589Y13976D01*
X863586Y13980D01*
X863589Y13982D01*
X863439Y15115D01*
X863433Y15121D01*
X863436Y15126D01*
X863038Y16196D01*
X863031Y16200D01*
X863033Y16206D01*
X862406Y17161D01*
X862398Y17164D01*
X862399Y17169D01*
X861576Y17961D01*
X861568Y17962D01*
X861567Y17968D01*
X860588Y18557D01*
X860580Y18556D01*
X860578Y18561D01*
X859493Y18917D01*
X859485Y18915D01*
X859482Y18919D01*
X858345Y19025D01*
X858336Y19020D01*
X858331Y19024D01*
X857194Y18817D01*
X857188Y18811D01*
X857183Y18814D01*
X856121Y18359D01*
X856117Y18352D01*
X856111Y18354D01*
X855176Y17674D01*
X855174Y17666D01*
X855168Y17667D01*
X854408Y16796D01*
X854408Y16788D01*
X854402Y16787D01*
X853855Y15768D01*
X853856Y15760D01*
X853851Y15758D01*
X853847Y15745D01*
X853834Y15696D01*
X853833Y15696D01*
X853834Y15696D01*
X853820Y15647D01*
X853806Y15597D01*
X853793Y15548D01*
X853779Y15499D01*
X853766Y15450D01*
X853752Y15400D01*
X853739Y15351D01*
X853725Y15302D01*
X853711Y15253D01*
X853698Y15203D01*
X853684Y15154D01*
X853671Y15105D01*
X853657Y15056D01*
X853644Y15006D01*
X853630Y14957D01*
X853617Y14908D01*
X853616Y14908D01*
X853603Y14859D01*
X853589Y14809D01*
X853544Y14644D01*
X853547Y14636D01*
X853542Y14633D01*
X853491Y13478D01*
X853492Y13477D01*
X853491Y13476D01*
X853491Y7476D01*
X853495Y7470D01*
X853492Y7467D01*
X853704Y6386D01*
X853710Y6381D01*
X853707Y6376D01*
X854154Y5370D01*
X854161Y5366D01*
X854159Y5360D01*
X854819Y4479D01*
X854827Y4476D01*
X854827Y4471D01*
X855666Y3758D01*
X855674Y3758D01*
X855675Y3752D01*
X856652Y3244D01*
X856660Y3245D01*
X856662Y3240D01*
X857727Y2962D01*
X857735Y2965D01*
X857738Y2961D01*
X858839Y2927D01*
X858844Y2931D01*
G37*
G36*
X625164Y2931D02*
X625164Y2931D01*
X625167Y2927D01*
X626243Y3082D01*
X626248Y3088D01*
X626253Y3085D01*
X627267Y3475D01*
X627271Y3482D01*
X627277Y3481D01*
X628179Y4087D01*
X628181Y4095D01*
X628187Y4094D01*
X628931Y4886D01*
X628932Y4894D01*
X628938Y4894D01*
X629487Y5832D01*
X629486Y5840D01*
X629492Y5842D01*
X629819Y6878D01*
X629816Y6886D01*
X629821Y6889D01*
X629909Y7972D01*
X629907Y7975D01*
X629909Y7976D01*
X629909Y13976D01*
X629906Y13980D01*
X629909Y13982D01*
X629759Y15115D01*
X629753Y15121D01*
X629756Y15126D01*
X629358Y16196D01*
X629351Y16200D01*
X629353Y16206D01*
X628726Y17161D01*
X628718Y17164D01*
X628719Y17169D01*
X627896Y17961D01*
X627888Y17962D01*
X627887Y17968D01*
X626908Y18557D01*
X626900Y18556D01*
X626898Y18561D01*
X625813Y18917D01*
X625805Y18915D01*
X625802Y18919D01*
X624665Y19025D01*
X624656Y19020D01*
X624651Y19024D01*
X623514Y18817D01*
X623508Y18811D01*
X623503Y18814D01*
X622441Y18359D01*
X622437Y18352D01*
X622431Y18354D01*
X621496Y17674D01*
X621494Y17666D01*
X621488Y17667D01*
X620728Y16796D01*
X620728Y16788D01*
X620722Y16787D01*
X620175Y15768D01*
X620176Y15760D01*
X620171Y15758D01*
X620167Y15745D01*
X620154Y15696D01*
X620153Y15696D01*
X620154Y15696D01*
X620140Y15647D01*
X620126Y15597D01*
X620113Y15548D01*
X620099Y15499D01*
X620086Y15450D01*
X620072Y15400D01*
X620059Y15351D01*
X620045Y15302D01*
X620031Y15253D01*
X620018Y15203D01*
X620004Y15154D01*
X619991Y15105D01*
X619977Y15056D01*
X619964Y15006D01*
X619950Y14957D01*
X619937Y14908D01*
X619936Y14908D01*
X619923Y14859D01*
X619909Y14809D01*
X619864Y14644D01*
X619867Y14636D01*
X619862Y14633D01*
X619811Y13478D01*
X619812Y13477D01*
X619811Y13476D01*
X619811Y7476D01*
X619815Y7470D01*
X619812Y7467D01*
X620024Y6386D01*
X620030Y6381D01*
X620027Y6376D01*
X620474Y5370D01*
X620481Y5366D01*
X620479Y5360D01*
X621139Y4479D01*
X621147Y4476D01*
X621147Y4471D01*
X621986Y3758D01*
X621994Y3758D01*
X621995Y3752D01*
X622972Y3244D01*
X622980Y3245D01*
X622982Y3240D01*
X624047Y2962D01*
X624055Y2965D01*
X624058Y2961D01*
X625159Y2927D01*
X625164Y2931D01*
G37*
G36*
X1092524Y2931D02*
X1092524Y2931D01*
X1092527Y2927D01*
X1093603Y3082D01*
X1093608Y3088D01*
X1093613Y3085D01*
X1094627Y3475D01*
X1094631Y3482D01*
X1094637Y3481D01*
X1095539Y4087D01*
X1095541Y4095D01*
X1095547Y4094D01*
X1096291Y4886D01*
X1096292Y4894D01*
X1096298Y4894D01*
X1096847Y5832D01*
X1096846Y5840D01*
X1096852Y5842D01*
X1097179Y6878D01*
X1097176Y6886D01*
X1097181Y6889D01*
X1097269Y7972D01*
X1097267Y7975D01*
X1097269Y7976D01*
X1097269Y13976D01*
X1097266Y13980D01*
X1097269Y13982D01*
X1097119Y15115D01*
X1097113Y15121D01*
X1097116Y15126D01*
X1096718Y16196D01*
X1096711Y16200D01*
X1096713Y16206D01*
X1096086Y17161D01*
X1096078Y17164D01*
X1096079Y17169D01*
X1095256Y17961D01*
X1095248Y17962D01*
X1095247Y17968D01*
X1094268Y18557D01*
X1094260Y18556D01*
X1094258Y18561D01*
X1093173Y18917D01*
X1093165Y18915D01*
X1093162Y18919D01*
X1092025Y19025D01*
X1092016Y19020D01*
X1092011Y19024D01*
X1090874Y18817D01*
X1090868Y18811D01*
X1090863Y18814D01*
X1089801Y18359D01*
X1089797Y18352D01*
X1089791Y18354D01*
X1088856Y17674D01*
X1088854Y17666D01*
X1088848Y17667D01*
X1088088Y16796D01*
X1088088Y16788D01*
X1088082Y16787D01*
X1087535Y15768D01*
X1087536Y15760D01*
X1087531Y15758D01*
X1087527Y15745D01*
X1087514Y15696D01*
X1087513Y15696D01*
X1087514Y15696D01*
X1087500Y15647D01*
X1087486Y15597D01*
X1087473Y15548D01*
X1087459Y15499D01*
X1087446Y15450D01*
X1087432Y15400D01*
X1087419Y15351D01*
X1087405Y15302D01*
X1087391Y15253D01*
X1087378Y15203D01*
X1087364Y15154D01*
X1087351Y15105D01*
X1087337Y15056D01*
X1087324Y15006D01*
X1087310Y14957D01*
X1087297Y14908D01*
X1087296Y14908D01*
X1087283Y14859D01*
X1087269Y14809D01*
X1087224Y14644D01*
X1087227Y14636D01*
X1087222Y14633D01*
X1087171Y13478D01*
X1087172Y13477D01*
X1087171Y13476D01*
X1087171Y7476D01*
X1087175Y7470D01*
X1087172Y7467D01*
X1087384Y6386D01*
X1087390Y6381D01*
X1087387Y6376D01*
X1087834Y5370D01*
X1087841Y5366D01*
X1087839Y5360D01*
X1088499Y4479D01*
X1088507Y4476D01*
X1088507Y4471D01*
X1089346Y3758D01*
X1089354Y3758D01*
X1089355Y3752D01*
X1090332Y3244D01*
X1090340Y3245D01*
X1090342Y3240D01*
X1091407Y2962D01*
X1091415Y2965D01*
X1091418Y2961D01*
X1092519Y2927D01*
X1092524Y2931D01*
G37*
G36*
X391484Y2931D02*
X391484Y2931D01*
X391487Y2927D01*
X392563Y3082D01*
X392568Y3088D01*
X392573Y3085D01*
X393587Y3475D01*
X393591Y3482D01*
X393597Y3481D01*
X394499Y4087D01*
X394501Y4095D01*
X394507Y4094D01*
X395251Y4886D01*
X395252Y4894D01*
X395258Y4894D01*
X395807Y5832D01*
X395806Y5840D01*
X395812Y5842D01*
X396139Y6878D01*
X396136Y6886D01*
X396141Y6889D01*
X396229Y7972D01*
X396227Y7975D01*
X396229Y7976D01*
X396229Y13976D01*
X396226Y13980D01*
X396229Y13982D01*
X396079Y15115D01*
X396073Y15121D01*
X396076Y15126D01*
X395678Y16196D01*
X395671Y16200D01*
X395673Y16206D01*
X395046Y17161D01*
X395038Y17164D01*
X395039Y17169D01*
X394216Y17961D01*
X394208Y17962D01*
X394207Y17968D01*
X393228Y18557D01*
X393220Y18556D01*
X393218Y18561D01*
X392133Y18917D01*
X392125Y18915D01*
X392122Y18919D01*
X390985Y19025D01*
X390976Y19020D01*
X390971Y19024D01*
X389834Y18817D01*
X389828Y18811D01*
X389823Y18814D01*
X388761Y18359D01*
X388757Y18352D01*
X388751Y18354D01*
X387816Y17674D01*
X387814Y17666D01*
X387808Y17667D01*
X387048Y16796D01*
X387048Y16788D01*
X387042Y16787D01*
X386495Y15768D01*
X386496Y15760D01*
X386491Y15758D01*
X386487Y15745D01*
X386474Y15696D01*
X386473Y15696D01*
X386474Y15696D01*
X386460Y15647D01*
X386446Y15597D01*
X386433Y15548D01*
X386419Y15499D01*
X386406Y15450D01*
X386392Y15400D01*
X386379Y15351D01*
X386365Y15302D01*
X386351Y15253D01*
X386338Y15203D01*
X386324Y15154D01*
X386311Y15105D01*
X386297Y15056D01*
X386284Y15006D01*
X386270Y14957D01*
X386257Y14908D01*
X386256Y14908D01*
X386243Y14859D01*
X386229Y14809D01*
X386184Y14644D01*
X386187Y14636D01*
X386182Y14633D01*
X386131Y13478D01*
X386132Y13477D01*
X386131Y13476D01*
X386131Y7476D01*
X386135Y7470D01*
X386132Y7467D01*
X386344Y6386D01*
X386350Y6381D01*
X386347Y6376D01*
X386794Y5370D01*
X386801Y5366D01*
X386799Y5360D01*
X387459Y4479D01*
X387467Y4476D01*
X387467Y4471D01*
X388306Y3758D01*
X388314Y3758D01*
X388315Y3752D01*
X389292Y3244D01*
X389300Y3245D01*
X389302Y3240D01*
X390367Y2962D01*
X390375Y2965D01*
X390378Y2961D01*
X391479Y2927D01*
X391484Y2931D01*
G37*
G36*
X1326204Y2931D02*
X1326204Y2931D01*
X1326207Y2927D01*
X1327283Y3082D01*
X1327288Y3088D01*
X1327293Y3085D01*
X1328307Y3475D01*
X1328311Y3482D01*
X1328317Y3481D01*
X1329219Y4087D01*
X1329221Y4095D01*
X1329227Y4094D01*
X1329971Y4886D01*
X1329972Y4894D01*
X1329978Y4894D01*
X1330527Y5832D01*
X1330526Y5840D01*
X1330532Y5842D01*
X1330859Y6878D01*
X1330856Y6886D01*
X1330861Y6889D01*
X1330949Y7972D01*
X1330947Y7975D01*
X1330949Y7976D01*
X1330949Y13976D01*
X1330946Y13980D01*
X1330949Y13982D01*
X1330799Y15115D01*
X1330793Y15121D01*
X1330796Y15126D01*
X1330398Y16196D01*
X1330391Y16200D01*
X1330393Y16206D01*
X1329766Y17161D01*
X1329758Y17164D01*
X1329759Y17169D01*
X1328936Y17961D01*
X1328928Y17962D01*
X1328927Y17968D01*
X1327948Y18557D01*
X1327940Y18556D01*
X1327938Y18561D01*
X1326853Y18917D01*
X1326845Y18915D01*
X1326842Y18919D01*
X1325705Y19025D01*
X1325696Y19020D01*
X1325691Y19024D01*
X1324554Y18817D01*
X1324548Y18811D01*
X1324543Y18814D01*
X1323481Y18359D01*
X1323477Y18352D01*
X1323471Y18354D01*
X1322536Y17674D01*
X1322534Y17666D01*
X1322528Y17667D01*
X1321768Y16796D01*
X1321768Y16788D01*
X1321762Y16787D01*
X1321215Y15768D01*
X1321216Y15760D01*
X1321211Y15758D01*
X1321207Y15745D01*
X1321194Y15696D01*
X1321193Y15696D01*
X1321194Y15696D01*
X1321180Y15647D01*
X1321166Y15597D01*
X1321153Y15548D01*
X1321139Y15499D01*
X1321126Y15450D01*
X1321112Y15400D01*
X1321099Y15351D01*
X1321085Y15302D01*
X1321071Y15253D01*
X1321058Y15203D01*
X1321044Y15154D01*
X1321031Y15105D01*
X1321017Y15056D01*
X1321004Y15006D01*
X1320990Y14957D01*
X1320977Y14908D01*
X1320976Y14908D01*
X1320963Y14859D01*
X1320949Y14809D01*
X1320904Y14644D01*
X1320907Y14636D01*
X1320902Y14633D01*
X1320851Y13478D01*
X1320852Y13477D01*
X1320851Y13476D01*
X1320851Y7476D01*
X1320855Y7470D01*
X1320852Y7467D01*
X1321064Y6386D01*
X1321070Y6381D01*
X1321067Y6376D01*
X1321514Y5370D01*
X1321521Y5366D01*
X1321519Y5360D01*
X1322179Y4479D01*
X1322187Y4476D01*
X1322187Y4471D01*
X1323026Y3758D01*
X1323034Y3758D01*
X1323035Y3752D01*
X1324012Y3244D01*
X1324020Y3245D01*
X1324022Y3240D01*
X1325087Y2962D01*
X1325095Y2965D01*
X1325098Y2961D01*
X1326199Y2927D01*
X1326204Y2931D01*
G37*
G36*
X1559884Y2931D02*
X1559884Y2931D01*
X1559887Y2927D01*
X1560963Y3082D01*
X1560968Y3088D01*
X1560973Y3085D01*
X1561987Y3475D01*
X1561991Y3482D01*
X1561997Y3481D01*
X1562899Y4087D01*
X1562901Y4095D01*
X1562907Y4094D01*
X1563651Y4886D01*
X1563652Y4894D01*
X1563658Y4894D01*
X1564207Y5832D01*
X1564206Y5840D01*
X1564212Y5842D01*
X1564539Y6878D01*
X1564536Y6886D01*
X1564541Y6889D01*
X1564629Y7972D01*
X1564627Y7975D01*
X1564629Y7976D01*
X1564629Y13976D01*
X1564626Y13980D01*
X1564629Y13982D01*
X1564479Y15115D01*
X1564473Y15121D01*
X1564476Y15126D01*
X1564078Y16196D01*
X1564071Y16200D01*
X1564073Y16206D01*
X1563446Y17161D01*
X1563438Y17164D01*
X1563439Y17169D01*
X1562616Y17961D01*
X1562608Y17962D01*
X1562607Y17968D01*
X1561628Y18557D01*
X1561620Y18556D01*
X1561618Y18561D01*
X1560533Y18917D01*
X1560525Y18915D01*
X1560522Y18919D01*
X1559385Y19025D01*
X1559376Y19020D01*
X1559371Y19024D01*
X1558234Y18817D01*
X1558228Y18811D01*
X1558223Y18814D01*
X1557161Y18359D01*
X1557157Y18352D01*
X1557151Y18354D01*
X1556216Y17674D01*
X1556214Y17666D01*
X1556208Y17667D01*
X1555448Y16796D01*
X1555448Y16788D01*
X1555442Y16787D01*
X1554895Y15768D01*
X1554896Y15760D01*
X1554891Y15758D01*
X1554887Y15745D01*
X1554874Y15696D01*
X1554873Y15696D01*
X1554874Y15696D01*
X1554860Y15647D01*
X1554846Y15597D01*
X1554833Y15548D01*
X1554819Y15499D01*
X1554806Y15450D01*
X1554792Y15400D01*
X1554779Y15351D01*
X1554765Y15302D01*
X1554751Y15253D01*
X1554738Y15203D01*
X1554724Y15154D01*
X1554711Y15105D01*
X1554697Y15056D01*
X1554684Y15006D01*
X1554670Y14957D01*
X1554657Y14908D01*
X1554656Y14908D01*
X1554643Y14859D01*
X1554629Y14809D01*
X1554584Y14644D01*
X1554587Y14636D01*
X1554582Y14633D01*
X1554531Y13478D01*
X1554532Y13477D01*
X1554531Y13476D01*
X1554531Y7476D01*
X1554535Y7470D01*
X1554532Y7467D01*
X1554744Y6386D01*
X1554750Y6381D01*
X1554747Y6376D01*
X1555194Y5370D01*
X1555201Y5366D01*
X1555199Y5360D01*
X1555859Y4479D01*
X1555867Y4476D01*
X1555867Y4471D01*
X1556706Y3758D01*
X1556714Y3758D01*
X1556715Y3752D01*
X1557692Y3244D01*
X1557700Y3245D01*
X1557702Y3240D01*
X1558767Y2962D01*
X1558775Y2965D01*
X1558778Y2961D01*
X1559879Y2927D01*
X1559884Y2931D01*
G37*
G36*
X304984Y1238280D02*
X304984Y1238280D01*
X304989Y1238276D01*
X306126Y1238483D01*
X306132Y1238489D01*
X306137Y1238486D01*
X307199Y1238941D01*
X307203Y1238948D01*
X307209Y1238946D01*
X308144Y1239626D01*
X308146Y1239634D01*
X308152Y1239633D01*
X308912Y1240504D01*
X308912Y1240512D01*
X308918Y1240513D01*
X309465Y1241532D01*
X309464Y1241540D01*
X309469Y1241542D01*
X309475Y1241561D01*
X309488Y1241610D01*
X309502Y1241660D01*
X309515Y1241709D01*
X309529Y1241758D01*
X309542Y1241807D01*
X309543Y1241807D01*
X309542Y1241807D01*
X309556Y1241857D01*
X309570Y1241906D01*
X309583Y1241955D01*
X309597Y1242004D01*
X309610Y1242054D01*
X309624Y1242103D01*
X309637Y1242152D01*
X309651Y1242201D01*
X309665Y1242251D01*
X309678Y1242300D01*
X309692Y1242349D01*
X309776Y1242656D01*
X309773Y1242664D01*
X309778Y1242667D01*
X309829Y1243822D01*
X309828Y1243823D01*
X309829Y1243824D01*
X309829Y1249824D01*
X309825Y1249830D01*
X309828Y1249833D01*
X309616Y1250914D01*
X309610Y1250919D01*
X309613Y1250924D01*
X309166Y1251930D01*
X309159Y1251934D01*
X309161Y1251940D01*
X308501Y1252821D01*
X308493Y1252824D01*
X308493Y1252829D01*
X307654Y1253542D01*
X307646Y1253542D01*
X307645Y1253548D01*
X306668Y1254056D01*
X306660Y1254055D01*
X306658Y1254060D01*
X305593Y1254338D01*
X305585Y1254335D01*
X305582Y1254339D01*
X304482Y1254373D01*
X304476Y1254370D01*
X304473Y1254373D01*
X303398Y1254218D01*
X303392Y1254212D01*
X303387Y1254215D01*
X302373Y1253825D01*
X302369Y1253818D01*
X302363Y1253820D01*
X301461Y1253213D01*
X301459Y1253205D01*
X301453Y1253206D01*
X300709Y1252414D01*
X300708Y1252406D01*
X300702Y1252406D01*
X300153Y1251468D01*
X300154Y1251460D01*
X300148Y1251458D01*
X299821Y1250422D01*
X299824Y1250414D01*
X299819Y1250411D01*
X299731Y1249328D01*
X299733Y1249325D01*
X299731Y1249324D01*
X299731Y1243324D01*
X299734Y1243320D01*
X299731Y1243318D01*
X299881Y1242185D01*
X299887Y1242179D01*
X299884Y1242174D01*
X300282Y1241104D01*
X300289Y1241100D01*
X300287Y1241094D01*
X300914Y1240139D01*
X300922Y1240136D01*
X300921Y1240131D01*
X301744Y1239339D01*
X301752Y1239338D01*
X301753Y1239332D01*
X302732Y1238743D01*
X302740Y1238744D01*
X302742Y1238739D01*
X303827Y1238383D01*
X303835Y1238386D01*
X303838Y1238381D01*
X304975Y1238275D01*
X304984Y1238280D01*
G37*
G36*
X1239704Y1238280D02*
X1239704Y1238280D01*
X1239709Y1238276D01*
X1240846Y1238483D01*
X1240852Y1238489D01*
X1240857Y1238486D01*
X1241919Y1238941D01*
X1241923Y1238948D01*
X1241929Y1238946D01*
X1242864Y1239626D01*
X1242866Y1239634D01*
X1242872Y1239633D01*
X1243632Y1240504D01*
X1243632Y1240512D01*
X1243638Y1240513D01*
X1244185Y1241532D01*
X1244184Y1241540D01*
X1244189Y1241542D01*
X1244195Y1241561D01*
X1244208Y1241610D01*
X1244222Y1241660D01*
X1244235Y1241709D01*
X1244249Y1241758D01*
X1244262Y1241807D01*
X1244263Y1241807D01*
X1244262Y1241807D01*
X1244276Y1241857D01*
X1244290Y1241906D01*
X1244303Y1241955D01*
X1244317Y1242004D01*
X1244330Y1242054D01*
X1244344Y1242103D01*
X1244357Y1242152D01*
X1244371Y1242201D01*
X1244385Y1242251D01*
X1244398Y1242300D01*
X1244412Y1242349D01*
X1244496Y1242656D01*
X1244493Y1242664D01*
X1244498Y1242667D01*
X1244549Y1243822D01*
X1244548Y1243823D01*
X1244549Y1243824D01*
X1244549Y1249824D01*
X1244545Y1249830D01*
X1244548Y1249833D01*
X1244336Y1250914D01*
X1244330Y1250919D01*
X1244333Y1250924D01*
X1243886Y1251930D01*
X1243879Y1251934D01*
X1243881Y1251940D01*
X1243221Y1252821D01*
X1243213Y1252824D01*
X1243213Y1252829D01*
X1242374Y1253542D01*
X1242366Y1253542D01*
X1242365Y1253548D01*
X1241388Y1254056D01*
X1241380Y1254055D01*
X1241378Y1254060D01*
X1240313Y1254338D01*
X1240305Y1254335D01*
X1240302Y1254339D01*
X1239202Y1254373D01*
X1239196Y1254370D01*
X1239193Y1254373D01*
X1238118Y1254218D01*
X1238112Y1254212D01*
X1238107Y1254215D01*
X1237093Y1253825D01*
X1237089Y1253818D01*
X1237083Y1253820D01*
X1236181Y1253213D01*
X1236179Y1253205D01*
X1236173Y1253206D01*
X1235429Y1252414D01*
X1235428Y1252406D01*
X1235422Y1252406D01*
X1234873Y1251468D01*
X1234874Y1251460D01*
X1234868Y1251458D01*
X1234541Y1250422D01*
X1234544Y1250414D01*
X1234539Y1250411D01*
X1234451Y1249328D01*
X1234453Y1249325D01*
X1234451Y1249324D01*
X1234451Y1243324D01*
X1234454Y1243320D01*
X1234451Y1243318D01*
X1234601Y1242185D01*
X1234607Y1242179D01*
X1234604Y1242174D01*
X1235002Y1241104D01*
X1235009Y1241100D01*
X1235007Y1241094D01*
X1235634Y1240139D01*
X1235642Y1240136D01*
X1235641Y1240131D01*
X1236464Y1239339D01*
X1236472Y1239338D01*
X1236473Y1239332D01*
X1237452Y1238743D01*
X1237460Y1238744D01*
X1237462Y1238739D01*
X1238547Y1238383D01*
X1238555Y1238386D01*
X1238558Y1238381D01*
X1239695Y1238275D01*
X1239704Y1238280D01*
G37*
G36*
X538664Y1238280D02*
X538664Y1238280D01*
X538669Y1238276D01*
X539806Y1238483D01*
X539812Y1238489D01*
X539817Y1238486D01*
X540879Y1238941D01*
X540883Y1238948D01*
X540889Y1238946D01*
X541824Y1239626D01*
X541826Y1239634D01*
X541832Y1239633D01*
X542592Y1240504D01*
X542592Y1240512D01*
X542598Y1240513D01*
X543145Y1241532D01*
X543144Y1241540D01*
X543149Y1241542D01*
X543155Y1241561D01*
X543168Y1241610D01*
X543182Y1241660D01*
X543195Y1241709D01*
X543209Y1241758D01*
X543222Y1241807D01*
X543223Y1241807D01*
X543222Y1241807D01*
X543236Y1241857D01*
X543250Y1241906D01*
X543263Y1241955D01*
X543277Y1242004D01*
X543290Y1242054D01*
X543304Y1242103D01*
X543317Y1242152D01*
X543331Y1242201D01*
X543345Y1242251D01*
X543358Y1242300D01*
X543372Y1242349D01*
X543456Y1242656D01*
X543453Y1242664D01*
X543458Y1242667D01*
X543509Y1243822D01*
X543508Y1243823D01*
X543509Y1243824D01*
X543509Y1249824D01*
X543505Y1249830D01*
X543508Y1249833D01*
X543296Y1250914D01*
X543290Y1250919D01*
X543293Y1250924D01*
X542846Y1251930D01*
X542839Y1251934D01*
X542841Y1251940D01*
X542181Y1252821D01*
X542173Y1252824D01*
X542173Y1252829D01*
X541334Y1253542D01*
X541326Y1253542D01*
X541325Y1253548D01*
X540348Y1254056D01*
X540340Y1254055D01*
X540338Y1254060D01*
X539273Y1254338D01*
X539265Y1254335D01*
X539262Y1254339D01*
X538162Y1254373D01*
X538156Y1254370D01*
X538153Y1254373D01*
X537078Y1254218D01*
X537072Y1254212D01*
X537067Y1254215D01*
X536053Y1253825D01*
X536049Y1253818D01*
X536043Y1253820D01*
X535141Y1253213D01*
X535139Y1253205D01*
X535133Y1253206D01*
X534389Y1252414D01*
X534388Y1252406D01*
X534382Y1252406D01*
X533833Y1251468D01*
X533834Y1251460D01*
X533828Y1251458D01*
X533501Y1250422D01*
X533504Y1250414D01*
X533499Y1250411D01*
X533411Y1249328D01*
X533413Y1249325D01*
X533411Y1249324D01*
X533411Y1243324D01*
X533414Y1243320D01*
X533411Y1243318D01*
X533561Y1242185D01*
X533567Y1242179D01*
X533564Y1242174D01*
X533962Y1241104D01*
X533969Y1241100D01*
X533967Y1241094D01*
X534594Y1240139D01*
X534602Y1240136D01*
X534601Y1240131D01*
X535424Y1239339D01*
X535432Y1239338D01*
X535433Y1239332D01*
X536412Y1238743D01*
X536420Y1238744D01*
X536422Y1238739D01*
X537507Y1238383D01*
X537515Y1238386D01*
X537518Y1238381D01*
X538655Y1238275D01*
X538664Y1238280D01*
G37*
G36*
X71304Y1238280D02*
X71304Y1238280D01*
X71309Y1238276D01*
X72446Y1238483D01*
X72452Y1238489D01*
X72457Y1238486D01*
X73519Y1238941D01*
X73523Y1238948D01*
X73529Y1238946D01*
X74464Y1239626D01*
X74466Y1239634D01*
X74472Y1239633D01*
X75232Y1240504D01*
X75232Y1240512D01*
X75238Y1240513D01*
X75785Y1241532D01*
X75784Y1241540D01*
X75789Y1241542D01*
X75795Y1241561D01*
X75808Y1241610D01*
X75822Y1241660D01*
X75835Y1241709D01*
X75849Y1241758D01*
X75862Y1241807D01*
X75863Y1241807D01*
X75862Y1241807D01*
X75876Y1241857D01*
X75890Y1241906D01*
X75903Y1241955D01*
X75917Y1242004D01*
X75930Y1242054D01*
X75944Y1242103D01*
X75957Y1242152D01*
X75971Y1242201D01*
X75985Y1242251D01*
X75998Y1242300D01*
X76012Y1242349D01*
X76096Y1242656D01*
X76093Y1242664D01*
X76098Y1242667D01*
X76149Y1243822D01*
X76148Y1243823D01*
X76149Y1243824D01*
X76149Y1249824D01*
X76145Y1249830D01*
X76148Y1249833D01*
X75936Y1250914D01*
X75930Y1250919D01*
X75933Y1250924D01*
X75486Y1251930D01*
X75479Y1251934D01*
X75481Y1251940D01*
X74821Y1252821D01*
X74813Y1252824D01*
X74813Y1252829D01*
X73974Y1253542D01*
X73966Y1253542D01*
X73965Y1253548D01*
X72988Y1254056D01*
X72980Y1254055D01*
X72978Y1254060D01*
X71913Y1254338D01*
X71905Y1254335D01*
X71902Y1254339D01*
X70802Y1254373D01*
X70796Y1254370D01*
X70793Y1254373D01*
X69718Y1254218D01*
X69712Y1254212D01*
X69707Y1254215D01*
X68693Y1253825D01*
X68689Y1253818D01*
X68683Y1253820D01*
X67781Y1253213D01*
X67779Y1253205D01*
X67773Y1253206D01*
X67029Y1252414D01*
X67028Y1252406D01*
X67022Y1252406D01*
X66473Y1251468D01*
X66474Y1251460D01*
X66468Y1251458D01*
X66141Y1250422D01*
X66144Y1250414D01*
X66139Y1250411D01*
X66051Y1249328D01*
X66053Y1249325D01*
X66051Y1249324D01*
X66051Y1243324D01*
X66054Y1243320D01*
X66051Y1243318D01*
X66201Y1242185D01*
X66207Y1242179D01*
X66204Y1242174D01*
X66602Y1241104D01*
X66609Y1241100D01*
X66607Y1241094D01*
X67234Y1240139D01*
X67242Y1240136D01*
X67241Y1240131D01*
X68064Y1239339D01*
X68072Y1239338D01*
X68073Y1239332D01*
X69052Y1238743D01*
X69060Y1238744D01*
X69062Y1238739D01*
X70147Y1238383D01*
X70155Y1238386D01*
X70158Y1238381D01*
X71295Y1238275D01*
X71304Y1238280D01*
G37*
G36*
X1473384Y1238280D02*
X1473384Y1238280D01*
X1473389Y1238276D01*
X1474526Y1238483D01*
X1474532Y1238489D01*
X1474537Y1238486D01*
X1475599Y1238941D01*
X1475603Y1238948D01*
X1475609Y1238946D01*
X1476544Y1239626D01*
X1476546Y1239634D01*
X1476552Y1239633D01*
X1477312Y1240504D01*
X1477312Y1240512D01*
X1477318Y1240513D01*
X1477865Y1241532D01*
X1477864Y1241540D01*
X1477869Y1241542D01*
X1477875Y1241561D01*
X1477888Y1241610D01*
X1477902Y1241660D01*
X1477915Y1241709D01*
X1477929Y1241758D01*
X1477942Y1241807D01*
X1477943Y1241807D01*
X1477942Y1241807D01*
X1477956Y1241857D01*
X1477970Y1241906D01*
X1477983Y1241955D01*
X1477997Y1242004D01*
X1478010Y1242054D01*
X1478024Y1242103D01*
X1478037Y1242152D01*
X1478051Y1242201D01*
X1478065Y1242251D01*
X1478078Y1242300D01*
X1478092Y1242349D01*
X1478176Y1242656D01*
X1478173Y1242664D01*
X1478178Y1242667D01*
X1478229Y1243822D01*
X1478228Y1243823D01*
X1478229Y1243824D01*
X1478229Y1249824D01*
X1478225Y1249830D01*
X1478228Y1249833D01*
X1478016Y1250914D01*
X1478010Y1250919D01*
X1478013Y1250924D01*
X1477566Y1251930D01*
X1477559Y1251934D01*
X1477561Y1251940D01*
X1476901Y1252821D01*
X1476893Y1252824D01*
X1476893Y1252829D01*
X1476054Y1253542D01*
X1476046Y1253542D01*
X1476045Y1253548D01*
X1475068Y1254056D01*
X1475060Y1254055D01*
X1475058Y1254060D01*
X1473993Y1254338D01*
X1473985Y1254335D01*
X1473982Y1254339D01*
X1472882Y1254373D01*
X1472876Y1254370D01*
X1472873Y1254373D01*
X1471798Y1254218D01*
X1471792Y1254212D01*
X1471787Y1254215D01*
X1470773Y1253825D01*
X1470769Y1253818D01*
X1470763Y1253820D01*
X1469861Y1253213D01*
X1469859Y1253205D01*
X1469853Y1253206D01*
X1469109Y1252414D01*
X1469108Y1252406D01*
X1469102Y1252406D01*
X1468553Y1251468D01*
X1468554Y1251460D01*
X1468548Y1251458D01*
X1468221Y1250422D01*
X1468224Y1250414D01*
X1468219Y1250411D01*
X1468131Y1249328D01*
X1468133Y1249325D01*
X1468131Y1249324D01*
X1468131Y1243324D01*
X1468134Y1243320D01*
X1468131Y1243318D01*
X1468281Y1242185D01*
X1468287Y1242179D01*
X1468284Y1242174D01*
X1468682Y1241104D01*
X1468689Y1241100D01*
X1468687Y1241094D01*
X1469314Y1240139D01*
X1469322Y1240136D01*
X1469321Y1240131D01*
X1470144Y1239339D01*
X1470152Y1239338D01*
X1470153Y1239332D01*
X1471132Y1238743D01*
X1471140Y1238744D01*
X1471142Y1238739D01*
X1472227Y1238383D01*
X1472235Y1238386D01*
X1472238Y1238381D01*
X1473375Y1238275D01*
X1473384Y1238280D01*
G37*
G36*
X1006024Y1238280D02*
X1006024Y1238280D01*
X1006029Y1238276D01*
X1007166Y1238483D01*
X1007172Y1238489D01*
X1007177Y1238486D01*
X1008239Y1238941D01*
X1008243Y1238948D01*
X1008249Y1238946D01*
X1009184Y1239626D01*
X1009186Y1239634D01*
X1009192Y1239633D01*
X1009952Y1240504D01*
X1009952Y1240512D01*
X1009958Y1240513D01*
X1010505Y1241532D01*
X1010504Y1241540D01*
X1010509Y1241542D01*
X1010515Y1241561D01*
X1010528Y1241610D01*
X1010542Y1241660D01*
X1010555Y1241709D01*
X1010569Y1241758D01*
X1010582Y1241807D01*
X1010583Y1241807D01*
X1010582Y1241807D01*
X1010596Y1241857D01*
X1010610Y1241906D01*
X1010623Y1241955D01*
X1010637Y1242004D01*
X1010650Y1242054D01*
X1010664Y1242103D01*
X1010677Y1242152D01*
X1010691Y1242201D01*
X1010705Y1242251D01*
X1010718Y1242300D01*
X1010732Y1242349D01*
X1010816Y1242656D01*
X1010813Y1242664D01*
X1010818Y1242667D01*
X1010869Y1243822D01*
X1010868Y1243823D01*
X1010869Y1243824D01*
X1010869Y1249824D01*
X1010865Y1249830D01*
X1010868Y1249833D01*
X1010656Y1250914D01*
X1010650Y1250919D01*
X1010653Y1250924D01*
X1010206Y1251930D01*
X1010199Y1251934D01*
X1010201Y1251940D01*
X1009541Y1252821D01*
X1009533Y1252824D01*
X1009533Y1252829D01*
X1008694Y1253542D01*
X1008686Y1253542D01*
X1008685Y1253548D01*
X1007708Y1254056D01*
X1007700Y1254055D01*
X1007698Y1254060D01*
X1006633Y1254338D01*
X1006625Y1254335D01*
X1006622Y1254339D01*
X1005522Y1254373D01*
X1005516Y1254370D01*
X1005513Y1254373D01*
X1004438Y1254218D01*
X1004432Y1254212D01*
X1004427Y1254215D01*
X1003413Y1253825D01*
X1003409Y1253818D01*
X1003403Y1253820D01*
X1002501Y1253213D01*
X1002499Y1253205D01*
X1002493Y1253206D01*
X1001749Y1252414D01*
X1001748Y1252406D01*
X1001742Y1252406D01*
X1001193Y1251468D01*
X1001194Y1251460D01*
X1001188Y1251458D01*
X1000861Y1250422D01*
X1000864Y1250414D01*
X1000859Y1250411D01*
X1000771Y1249328D01*
X1000773Y1249325D01*
X1000771Y1249324D01*
X1000771Y1243324D01*
X1000774Y1243320D01*
X1000771Y1243318D01*
X1000921Y1242185D01*
X1000927Y1242179D01*
X1000924Y1242174D01*
X1001322Y1241104D01*
X1001329Y1241100D01*
X1001327Y1241094D01*
X1001954Y1240139D01*
X1001962Y1240136D01*
X1001961Y1240131D01*
X1002784Y1239339D01*
X1002792Y1239338D01*
X1002793Y1239332D01*
X1003772Y1238743D01*
X1003780Y1238744D01*
X1003782Y1238739D01*
X1004867Y1238383D01*
X1004875Y1238386D01*
X1004878Y1238381D01*
X1006015Y1238275D01*
X1006024Y1238280D01*
G37*
G36*
X772344Y1238280D02*
X772344Y1238280D01*
X772349Y1238276D01*
X773486Y1238483D01*
X773492Y1238489D01*
X773497Y1238486D01*
X774559Y1238941D01*
X774563Y1238948D01*
X774569Y1238946D01*
X775504Y1239626D01*
X775506Y1239634D01*
X775512Y1239633D01*
X776272Y1240504D01*
X776272Y1240512D01*
X776278Y1240513D01*
X776825Y1241532D01*
X776824Y1241540D01*
X776829Y1241542D01*
X776835Y1241561D01*
X776848Y1241610D01*
X776862Y1241660D01*
X776875Y1241709D01*
X776889Y1241758D01*
X776902Y1241807D01*
X776903Y1241807D01*
X776902Y1241807D01*
X776916Y1241857D01*
X776930Y1241906D01*
X776943Y1241955D01*
X776957Y1242004D01*
X776970Y1242054D01*
X776984Y1242103D01*
X776997Y1242152D01*
X777011Y1242201D01*
X777025Y1242251D01*
X777038Y1242300D01*
X777052Y1242349D01*
X777136Y1242656D01*
X777133Y1242664D01*
X777138Y1242667D01*
X777189Y1243822D01*
X777188Y1243823D01*
X777189Y1243824D01*
X777189Y1249824D01*
X777185Y1249830D01*
X777188Y1249833D01*
X776976Y1250914D01*
X776970Y1250919D01*
X776973Y1250924D01*
X776526Y1251930D01*
X776519Y1251934D01*
X776521Y1251940D01*
X775861Y1252821D01*
X775853Y1252824D01*
X775853Y1252829D01*
X775014Y1253542D01*
X775006Y1253542D01*
X775005Y1253548D01*
X774028Y1254056D01*
X774020Y1254055D01*
X774018Y1254060D01*
X772953Y1254338D01*
X772945Y1254335D01*
X772942Y1254339D01*
X771842Y1254373D01*
X771836Y1254370D01*
X771833Y1254373D01*
X770758Y1254218D01*
X770752Y1254212D01*
X770747Y1254215D01*
X769733Y1253825D01*
X769729Y1253818D01*
X769723Y1253820D01*
X768821Y1253213D01*
X768819Y1253205D01*
X768813Y1253206D01*
X768069Y1252414D01*
X768068Y1252406D01*
X768062Y1252406D01*
X767513Y1251468D01*
X767514Y1251460D01*
X767508Y1251458D01*
X767181Y1250422D01*
X767184Y1250414D01*
X767179Y1250411D01*
X767091Y1249328D01*
X767093Y1249325D01*
X767091Y1249324D01*
X767091Y1243324D01*
X767094Y1243320D01*
X767091Y1243318D01*
X767241Y1242185D01*
X767247Y1242179D01*
X767244Y1242174D01*
X767642Y1241104D01*
X767649Y1241100D01*
X767647Y1241094D01*
X768274Y1240139D01*
X768282Y1240136D01*
X768281Y1240131D01*
X769104Y1239339D01*
X769112Y1239338D01*
X769113Y1239332D01*
X770092Y1238743D01*
X770100Y1238744D01*
X770102Y1238739D01*
X771187Y1238383D01*
X771195Y1238386D01*
X771198Y1238381D01*
X772335Y1238275D01*
X772344Y1238280D01*
G37*
G36*
X538662Y2931D02*
X538662Y2931D01*
X538667Y2927D01*
X539754Y3072D01*
X539760Y3078D01*
X539765Y3075D01*
X540793Y3459D01*
X540798Y3465D01*
X540803Y3464D01*
X541720Y4066D01*
X541723Y4074D01*
X541729Y4073D01*
X542489Y4865D01*
X542490Y4873D01*
X542496Y4874D01*
X543060Y5815D01*
X543060Y5818D01*
X543061Y5819D01*
X543060Y5821D01*
X543059Y5823D01*
X543065Y5825D01*
X543406Y6868D01*
X543404Y6876D01*
X543408Y6879D01*
X543509Y7972D01*
X543507Y7974D01*
X543509Y7976D01*
X543509Y13976D01*
X543507Y13979D01*
X543509Y13981D01*
X543408Y15073D01*
X543403Y15079D01*
X543406Y15084D01*
X543065Y16127D01*
X543058Y16132D01*
X543060Y16137D01*
X542496Y17078D01*
X542488Y17081D01*
X542489Y17087D01*
X541729Y17879D01*
X541721Y17880D01*
X541720Y17886D01*
X540803Y18489D01*
X540795Y18488D01*
X540793Y18494D01*
X539765Y18877D01*
X539757Y18875D01*
X539754Y18880D01*
X538667Y19025D01*
X538659Y19021D01*
X538655Y19025D01*
X537518Y18919D01*
X537512Y18914D01*
X537507Y18917D01*
X536422Y18561D01*
X536417Y18554D01*
X536412Y18557D01*
X535433Y17968D01*
X535430Y17960D01*
X535424Y17961D01*
X534601Y17169D01*
X534600Y17161D01*
X534594Y17161D01*
X533967Y16206D01*
X533968Y16198D01*
X533962Y16196D01*
X533564Y15126D01*
X533566Y15118D01*
X533561Y15115D01*
X533411Y13982D01*
X533414Y13978D01*
X533411Y13976D01*
X533411Y7976D01*
X533414Y7972D01*
X533411Y7970D01*
X533561Y6837D01*
X533567Y6831D01*
X533564Y6826D01*
X533962Y5756D01*
X533969Y5752D01*
X533967Y5746D01*
X534594Y4791D01*
X534602Y4788D01*
X534601Y4783D01*
X535424Y3991D01*
X535432Y3990D01*
X535433Y3984D01*
X536412Y3395D01*
X536420Y3396D01*
X536422Y3391D01*
X537507Y3035D01*
X537515Y3038D01*
X537518Y3033D01*
X538655Y2927D01*
X538662Y2931D01*
G37*
G36*
X772342Y2931D02*
X772342Y2931D01*
X772347Y2927D01*
X773434Y3072D01*
X773440Y3078D01*
X773445Y3075D01*
X774473Y3459D01*
X774478Y3465D01*
X774483Y3464D01*
X775400Y4066D01*
X775403Y4074D01*
X775409Y4073D01*
X776169Y4865D01*
X776170Y4873D01*
X776176Y4874D01*
X776740Y5815D01*
X776740Y5818D01*
X776741Y5819D01*
X776740Y5821D01*
X776739Y5823D01*
X776745Y5825D01*
X777086Y6868D01*
X777084Y6876D01*
X777088Y6879D01*
X777189Y7972D01*
X777187Y7974D01*
X777189Y7976D01*
X777189Y13976D01*
X777187Y13979D01*
X777189Y13981D01*
X777088Y15073D01*
X777083Y15079D01*
X777086Y15084D01*
X776745Y16127D01*
X776738Y16132D01*
X776740Y16137D01*
X776176Y17078D01*
X776168Y17081D01*
X776169Y17087D01*
X775409Y17879D01*
X775401Y17880D01*
X775400Y17886D01*
X774483Y18489D01*
X774475Y18488D01*
X774473Y18494D01*
X773445Y18877D01*
X773437Y18875D01*
X773434Y18880D01*
X772347Y19025D01*
X772339Y19021D01*
X772335Y19025D01*
X771198Y18919D01*
X771192Y18914D01*
X771187Y18917D01*
X770102Y18561D01*
X770097Y18554D01*
X770092Y18557D01*
X769113Y17968D01*
X769110Y17960D01*
X769104Y17961D01*
X768281Y17169D01*
X768280Y17161D01*
X768274Y17161D01*
X767647Y16206D01*
X767648Y16198D01*
X767642Y16196D01*
X767244Y15126D01*
X767246Y15118D01*
X767241Y15115D01*
X767091Y13982D01*
X767094Y13978D01*
X767091Y13976D01*
X767091Y7976D01*
X767094Y7972D01*
X767091Y7970D01*
X767241Y6837D01*
X767247Y6831D01*
X767244Y6826D01*
X767642Y5756D01*
X767649Y5752D01*
X767647Y5746D01*
X768274Y4791D01*
X768282Y4788D01*
X768281Y4783D01*
X769104Y3991D01*
X769112Y3990D01*
X769113Y3984D01*
X770092Y3395D01*
X770100Y3396D01*
X770102Y3391D01*
X771187Y3035D01*
X771195Y3038D01*
X771198Y3033D01*
X772335Y2927D01*
X772342Y2931D01*
G37*
G36*
X1006022Y2931D02*
X1006022Y2931D01*
X1006027Y2927D01*
X1007114Y3072D01*
X1007120Y3078D01*
X1007125Y3075D01*
X1008153Y3459D01*
X1008158Y3465D01*
X1008163Y3464D01*
X1009080Y4066D01*
X1009083Y4074D01*
X1009089Y4073D01*
X1009849Y4865D01*
X1009850Y4873D01*
X1009856Y4874D01*
X1010420Y5815D01*
X1010420Y5818D01*
X1010421Y5819D01*
X1010420Y5821D01*
X1010419Y5823D01*
X1010425Y5825D01*
X1010766Y6868D01*
X1010764Y6876D01*
X1010768Y6879D01*
X1010869Y7972D01*
X1010867Y7974D01*
X1010869Y7976D01*
X1010869Y13976D01*
X1010867Y13979D01*
X1010869Y13981D01*
X1010768Y15073D01*
X1010763Y15079D01*
X1010766Y15084D01*
X1010425Y16127D01*
X1010418Y16132D01*
X1010420Y16137D01*
X1009856Y17078D01*
X1009848Y17081D01*
X1009849Y17087D01*
X1009089Y17879D01*
X1009081Y17880D01*
X1009080Y17886D01*
X1008163Y18489D01*
X1008155Y18488D01*
X1008153Y18494D01*
X1007125Y18877D01*
X1007117Y18875D01*
X1007114Y18880D01*
X1006027Y19025D01*
X1006019Y19021D01*
X1006015Y19025D01*
X1004878Y18919D01*
X1004872Y18914D01*
X1004867Y18917D01*
X1003782Y18561D01*
X1003777Y18554D01*
X1003772Y18557D01*
X1002793Y17968D01*
X1002790Y17960D01*
X1002784Y17961D01*
X1001961Y17169D01*
X1001960Y17161D01*
X1001954Y17161D01*
X1001327Y16206D01*
X1001328Y16198D01*
X1001322Y16196D01*
X1000924Y15126D01*
X1000926Y15118D01*
X1000921Y15115D01*
X1000771Y13982D01*
X1000774Y13978D01*
X1000771Y13976D01*
X1000771Y7976D01*
X1000774Y7972D01*
X1000771Y7970D01*
X1000921Y6837D01*
X1000927Y6831D01*
X1000924Y6826D01*
X1001322Y5756D01*
X1001329Y5752D01*
X1001327Y5746D01*
X1001954Y4791D01*
X1001962Y4788D01*
X1001961Y4783D01*
X1002784Y3991D01*
X1002792Y3990D01*
X1002793Y3984D01*
X1003772Y3395D01*
X1003780Y3396D01*
X1003782Y3391D01*
X1004867Y3035D01*
X1004875Y3038D01*
X1004878Y3033D01*
X1006015Y2927D01*
X1006022Y2931D01*
G37*
G36*
X1239702Y2931D02*
X1239702Y2931D01*
X1239707Y2927D01*
X1240794Y3072D01*
X1240800Y3078D01*
X1240805Y3075D01*
X1241833Y3459D01*
X1241838Y3465D01*
X1241843Y3464D01*
X1242760Y4066D01*
X1242763Y4074D01*
X1242769Y4073D01*
X1243529Y4865D01*
X1243530Y4873D01*
X1243536Y4874D01*
X1244100Y5815D01*
X1244100Y5818D01*
X1244101Y5819D01*
X1244100Y5821D01*
X1244099Y5823D01*
X1244105Y5825D01*
X1244446Y6868D01*
X1244444Y6876D01*
X1244448Y6879D01*
X1244549Y7972D01*
X1244547Y7974D01*
X1244549Y7976D01*
X1244549Y13976D01*
X1244547Y13979D01*
X1244549Y13981D01*
X1244448Y15073D01*
X1244443Y15079D01*
X1244446Y15084D01*
X1244105Y16127D01*
X1244098Y16132D01*
X1244100Y16137D01*
X1243536Y17078D01*
X1243528Y17081D01*
X1243529Y17087D01*
X1242769Y17879D01*
X1242761Y17880D01*
X1242760Y17886D01*
X1241843Y18489D01*
X1241835Y18488D01*
X1241833Y18494D01*
X1240805Y18877D01*
X1240797Y18875D01*
X1240794Y18880D01*
X1239707Y19025D01*
X1239699Y19021D01*
X1239695Y19025D01*
X1238558Y18919D01*
X1238552Y18914D01*
X1238547Y18917D01*
X1237462Y18561D01*
X1237457Y18554D01*
X1237452Y18557D01*
X1236473Y17968D01*
X1236470Y17960D01*
X1236464Y17961D01*
X1235641Y17169D01*
X1235640Y17161D01*
X1235634Y17161D01*
X1235007Y16206D01*
X1235008Y16198D01*
X1235002Y16196D01*
X1234604Y15126D01*
X1234606Y15118D01*
X1234601Y15115D01*
X1234451Y13982D01*
X1234454Y13978D01*
X1234451Y13976D01*
X1234451Y7976D01*
X1234454Y7972D01*
X1234451Y7970D01*
X1234601Y6837D01*
X1234607Y6831D01*
X1234604Y6826D01*
X1235002Y5756D01*
X1235009Y5752D01*
X1235007Y5746D01*
X1235634Y4791D01*
X1235642Y4788D01*
X1235641Y4783D01*
X1236464Y3991D01*
X1236472Y3990D01*
X1236473Y3984D01*
X1237452Y3395D01*
X1237460Y3396D01*
X1237462Y3391D01*
X1238547Y3035D01*
X1238555Y3038D01*
X1238558Y3033D01*
X1239695Y2927D01*
X1239702Y2931D01*
G37*
G36*
X1473382Y2931D02*
X1473382Y2931D01*
X1473387Y2927D01*
X1474474Y3072D01*
X1474480Y3078D01*
X1474485Y3075D01*
X1475513Y3459D01*
X1475518Y3465D01*
X1475523Y3464D01*
X1476440Y4066D01*
X1476443Y4074D01*
X1476449Y4073D01*
X1477209Y4865D01*
X1477210Y4873D01*
X1477216Y4874D01*
X1477780Y5815D01*
X1477780Y5818D01*
X1477781Y5819D01*
X1477780Y5821D01*
X1477779Y5823D01*
X1477785Y5825D01*
X1478126Y6868D01*
X1478124Y6876D01*
X1478128Y6879D01*
X1478229Y7972D01*
X1478227Y7974D01*
X1478229Y7976D01*
X1478229Y13976D01*
X1478227Y13979D01*
X1478229Y13981D01*
X1478128Y15073D01*
X1478123Y15079D01*
X1478126Y15084D01*
X1477785Y16127D01*
X1477778Y16132D01*
X1477780Y16137D01*
X1477216Y17078D01*
X1477208Y17081D01*
X1477209Y17087D01*
X1476449Y17879D01*
X1476441Y17880D01*
X1476440Y17886D01*
X1475523Y18489D01*
X1475515Y18488D01*
X1475513Y18494D01*
X1474485Y18877D01*
X1474477Y18875D01*
X1474474Y18880D01*
X1473387Y19025D01*
X1473379Y19021D01*
X1473375Y19025D01*
X1472238Y18919D01*
X1472232Y18914D01*
X1472227Y18917D01*
X1471142Y18561D01*
X1471137Y18554D01*
X1471132Y18557D01*
X1470153Y17968D01*
X1470150Y17960D01*
X1470144Y17961D01*
X1469321Y17169D01*
X1469320Y17161D01*
X1469314Y17161D01*
X1468687Y16206D01*
X1468688Y16198D01*
X1468682Y16196D01*
X1468284Y15126D01*
X1468286Y15118D01*
X1468281Y15115D01*
X1468131Y13982D01*
X1468134Y13978D01*
X1468131Y13976D01*
X1468131Y7976D01*
X1468134Y7972D01*
X1468131Y7970D01*
X1468281Y6837D01*
X1468287Y6831D01*
X1468284Y6826D01*
X1468682Y5756D01*
X1468689Y5752D01*
X1468687Y5746D01*
X1469314Y4791D01*
X1469322Y4788D01*
X1469321Y4783D01*
X1470144Y3991D01*
X1470152Y3990D01*
X1470153Y3984D01*
X1471132Y3395D01*
X1471140Y3396D01*
X1471142Y3391D01*
X1472227Y3035D01*
X1472235Y3038D01*
X1472238Y3033D01*
X1473375Y2927D01*
X1473382Y2931D01*
G37*
G36*
X304982Y2931D02*
X304982Y2931D01*
X304987Y2927D01*
X306074Y3072D01*
X306080Y3078D01*
X306085Y3075D01*
X307113Y3459D01*
X307118Y3465D01*
X307123Y3464D01*
X308040Y4066D01*
X308043Y4074D01*
X308049Y4073D01*
X308809Y4865D01*
X308810Y4873D01*
X308816Y4874D01*
X309380Y5815D01*
X309380Y5818D01*
X309381Y5819D01*
X309380Y5821D01*
X309379Y5823D01*
X309385Y5825D01*
X309726Y6868D01*
X309724Y6876D01*
X309728Y6879D01*
X309829Y7972D01*
X309827Y7974D01*
X309829Y7976D01*
X309829Y13976D01*
X309827Y13979D01*
X309829Y13981D01*
X309728Y15073D01*
X309723Y15079D01*
X309726Y15084D01*
X309385Y16127D01*
X309378Y16132D01*
X309380Y16137D01*
X308816Y17078D01*
X308808Y17081D01*
X308809Y17087D01*
X308049Y17879D01*
X308041Y17880D01*
X308040Y17886D01*
X307123Y18489D01*
X307115Y18488D01*
X307113Y18494D01*
X306085Y18877D01*
X306077Y18875D01*
X306074Y18880D01*
X304987Y19025D01*
X304979Y19021D01*
X304975Y19025D01*
X303838Y18919D01*
X303832Y18914D01*
X303827Y18917D01*
X302742Y18561D01*
X302737Y18554D01*
X302732Y18557D01*
X301753Y17968D01*
X301750Y17960D01*
X301744Y17961D01*
X300921Y17169D01*
X300920Y17161D01*
X300914Y17161D01*
X300287Y16206D01*
X300288Y16198D01*
X300282Y16196D01*
X299884Y15126D01*
X299886Y15118D01*
X299881Y15115D01*
X299731Y13982D01*
X299734Y13978D01*
X299731Y13976D01*
X299731Y7976D01*
X299734Y7972D01*
X299731Y7970D01*
X299881Y6837D01*
X299887Y6831D01*
X299884Y6826D01*
X300282Y5756D01*
X300289Y5752D01*
X300287Y5746D01*
X300914Y4791D01*
X300922Y4788D01*
X300921Y4783D01*
X301744Y3991D01*
X301752Y3990D01*
X301753Y3984D01*
X302732Y3395D01*
X302740Y3396D01*
X302742Y3391D01*
X303827Y3035D01*
X303835Y3038D01*
X303838Y3033D01*
X304975Y2927D01*
X304982Y2931D01*
G37*
G36*
X71302Y2931D02*
X71302Y2931D01*
X71307Y2927D01*
X72394Y3072D01*
X72400Y3078D01*
X72405Y3075D01*
X73433Y3459D01*
X73438Y3465D01*
X73443Y3464D01*
X74360Y4066D01*
X74363Y4074D01*
X74369Y4073D01*
X75129Y4865D01*
X75130Y4873D01*
X75136Y4874D01*
X75700Y5815D01*
X75700Y5818D01*
X75701Y5819D01*
X75700Y5821D01*
X75699Y5823D01*
X75705Y5825D01*
X76046Y6868D01*
X76044Y6876D01*
X76048Y6879D01*
X76149Y7972D01*
X76147Y7974D01*
X76149Y7976D01*
X76149Y13976D01*
X76147Y13979D01*
X76149Y13981D01*
X76048Y15073D01*
X76043Y15079D01*
X76046Y15084D01*
X75705Y16127D01*
X75698Y16132D01*
X75700Y16137D01*
X75136Y17078D01*
X75128Y17081D01*
X75129Y17087D01*
X74369Y17879D01*
X74361Y17880D01*
X74360Y17886D01*
X73443Y18489D01*
X73435Y18488D01*
X73433Y18494D01*
X72405Y18877D01*
X72397Y18875D01*
X72394Y18880D01*
X71307Y19025D01*
X71299Y19021D01*
X71295Y19025D01*
X70158Y18919D01*
X70152Y18914D01*
X70147Y18917D01*
X69062Y18561D01*
X69057Y18554D01*
X69052Y18557D01*
X68073Y17968D01*
X68070Y17960D01*
X68064Y17961D01*
X67241Y17169D01*
X67240Y17161D01*
X67234Y17161D01*
X66607Y16206D01*
X66608Y16198D01*
X66602Y16196D01*
X66204Y15126D01*
X66206Y15118D01*
X66201Y15115D01*
X66051Y13982D01*
X66054Y13978D01*
X66051Y13976D01*
X66051Y7976D01*
X66054Y7972D01*
X66051Y7970D01*
X66201Y6837D01*
X66207Y6831D01*
X66204Y6826D01*
X66602Y5756D01*
X66609Y5752D01*
X66607Y5746D01*
X67234Y4791D01*
X67242Y4788D01*
X67241Y4783D01*
X68064Y3991D01*
X68072Y3990D01*
X68073Y3984D01*
X69052Y3395D01*
X69060Y3396D01*
X69062Y3391D01*
X70147Y3035D01*
X70155Y3038D01*
X70158Y3033D01*
X71295Y2927D01*
X71302Y2931D01*
G37*
G36*
X859482Y1238381D02*
X859482Y1238381D01*
X859488Y1238386D01*
X859493Y1238383D01*
X860578Y1238739D01*
X860583Y1238746D01*
X860588Y1238743D01*
X861567Y1239332D01*
X861570Y1239340D01*
X861576Y1239339D01*
X862399Y1240131D01*
X862400Y1240139D01*
X862406Y1240139D01*
X863033Y1241094D01*
X863032Y1241102D01*
X863038Y1241104D01*
X863436Y1242174D01*
X863434Y1242182D01*
X863439Y1242185D01*
X863589Y1243318D01*
X863586Y1243322D01*
X863589Y1243324D01*
X863589Y1249324D01*
X863586Y1249328D01*
X863589Y1249330D01*
X863439Y1250463D01*
X863433Y1250469D01*
X863436Y1250474D01*
X863038Y1251544D01*
X863031Y1251548D01*
X863033Y1251554D01*
X862406Y1252509D01*
X862398Y1252512D01*
X862399Y1252517D01*
X861576Y1253309D01*
X861568Y1253310D01*
X861567Y1253316D01*
X860588Y1253905D01*
X860580Y1253904D01*
X860578Y1253909D01*
X859493Y1254265D01*
X859485Y1254263D01*
X859482Y1254267D01*
X858345Y1254373D01*
X858338Y1254369D01*
X858334Y1254373D01*
X857246Y1254228D01*
X857240Y1254222D01*
X857235Y1254225D01*
X856207Y1253842D01*
X856202Y1253835D01*
X856197Y1253837D01*
X855280Y1253234D01*
X855277Y1253226D01*
X855271Y1253227D01*
X854511Y1252435D01*
X854510Y1252427D01*
X854504Y1252426D01*
X853940Y1251485D01*
X853941Y1251477D01*
X853935Y1251475D01*
X853594Y1250432D01*
X853596Y1250424D01*
X853592Y1250421D01*
X853491Y1249329D01*
X853493Y1249326D01*
X853491Y1249324D01*
X853491Y1243324D01*
X853493Y1243321D01*
X853491Y1243320D01*
X853592Y1242227D01*
X853597Y1242221D01*
X853594Y1242216D01*
X853935Y1241173D01*
X853942Y1241168D01*
X853940Y1241163D01*
X854504Y1240222D01*
X854512Y1240219D01*
X854511Y1240213D01*
X855271Y1239421D01*
X855279Y1239420D01*
X855280Y1239414D01*
X856197Y1238812D01*
X856205Y1238812D01*
X856207Y1238807D01*
X857235Y1238423D01*
X857243Y1238425D01*
X857246Y1238420D01*
X858334Y1238275D01*
X858341Y1238279D01*
X858345Y1238275D01*
X859482Y1238381D01*
G37*
G36*
X625802Y1238381D02*
X625802Y1238381D01*
X625808Y1238386D01*
X625813Y1238383D01*
X626898Y1238739D01*
X626903Y1238746D01*
X626908Y1238743D01*
X627887Y1239332D01*
X627890Y1239340D01*
X627896Y1239339D01*
X628719Y1240131D01*
X628720Y1240139D01*
X628726Y1240139D01*
X629353Y1241094D01*
X629352Y1241102D01*
X629358Y1241104D01*
X629756Y1242174D01*
X629754Y1242182D01*
X629759Y1242185D01*
X629909Y1243318D01*
X629906Y1243322D01*
X629909Y1243324D01*
X629909Y1249324D01*
X629906Y1249328D01*
X629909Y1249330D01*
X629759Y1250463D01*
X629753Y1250469D01*
X629756Y1250474D01*
X629358Y1251544D01*
X629351Y1251548D01*
X629353Y1251554D01*
X628726Y1252509D01*
X628718Y1252512D01*
X628719Y1252517D01*
X627896Y1253309D01*
X627888Y1253310D01*
X627887Y1253316D01*
X626908Y1253905D01*
X626900Y1253904D01*
X626898Y1253909D01*
X625813Y1254265D01*
X625805Y1254263D01*
X625802Y1254267D01*
X624665Y1254373D01*
X624658Y1254369D01*
X624654Y1254373D01*
X623566Y1254228D01*
X623560Y1254222D01*
X623555Y1254225D01*
X622527Y1253842D01*
X622522Y1253835D01*
X622517Y1253837D01*
X621600Y1253234D01*
X621597Y1253226D01*
X621591Y1253227D01*
X620831Y1252435D01*
X620830Y1252427D01*
X620824Y1252426D01*
X620260Y1251485D01*
X620261Y1251477D01*
X620255Y1251475D01*
X619914Y1250432D01*
X619916Y1250424D01*
X619912Y1250421D01*
X619811Y1249329D01*
X619813Y1249326D01*
X619811Y1249324D01*
X619811Y1243324D01*
X619813Y1243321D01*
X619811Y1243320D01*
X619912Y1242227D01*
X619917Y1242221D01*
X619914Y1242216D01*
X620255Y1241173D01*
X620262Y1241168D01*
X620260Y1241163D01*
X620824Y1240222D01*
X620832Y1240219D01*
X620831Y1240213D01*
X621591Y1239421D01*
X621599Y1239420D01*
X621600Y1239414D01*
X622517Y1238812D01*
X622525Y1238812D01*
X622527Y1238807D01*
X623555Y1238423D01*
X623563Y1238425D01*
X623566Y1238420D01*
X624654Y1238275D01*
X624661Y1238279D01*
X624665Y1238275D01*
X625802Y1238381D01*
G37*
G36*
X1560522Y1238381D02*
X1560522Y1238381D01*
X1560528Y1238386D01*
X1560533Y1238383D01*
X1561618Y1238739D01*
X1561623Y1238746D01*
X1561628Y1238743D01*
X1562607Y1239332D01*
X1562610Y1239340D01*
X1562616Y1239339D01*
X1563439Y1240131D01*
X1563440Y1240139D01*
X1563446Y1240139D01*
X1564073Y1241094D01*
X1564072Y1241102D01*
X1564078Y1241104D01*
X1564476Y1242174D01*
X1564474Y1242182D01*
X1564479Y1242185D01*
X1564629Y1243318D01*
X1564626Y1243322D01*
X1564629Y1243324D01*
X1564629Y1249324D01*
X1564626Y1249328D01*
X1564629Y1249330D01*
X1564479Y1250463D01*
X1564473Y1250469D01*
X1564476Y1250474D01*
X1564078Y1251544D01*
X1564071Y1251548D01*
X1564073Y1251554D01*
X1563446Y1252509D01*
X1563438Y1252512D01*
X1563439Y1252517D01*
X1562616Y1253309D01*
X1562608Y1253310D01*
X1562607Y1253316D01*
X1561628Y1253905D01*
X1561620Y1253904D01*
X1561618Y1253909D01*
X1560533Y1254265D01*
X1560525Y1254263D01*
X1560522Y1254267D01*
X1559385Y1254373D01*
X1559378Y1254369D01*
X1559374Y1254373D01*
X1558286Y1254228D01*
X1558280Y1254222D01*
X1558275Y1254225D01*
X1557247Y1253842D01*
X1557242Y1253835D01*
X1557237Y1253837D01*
X1556320Y1253234D01*
X1556317Y1253226D01*
X1556311Y1253227D01*
X1555551Y1252435D01*
X1555550Y1252427D01*
X1555544Y1252426D01*
X1554980Y1251485D01*
X1554981Y1251477D01*
X1554975Y1251475D01*
X1554634Y1250432D01*
X1554636Y1250424D01*
X1554632Y1250421D01*
X1554531Y1249329D01*
X1554533Y1249326D01*
X1554531Y1249324D01*
X1554531Y1243324D01*
X1554533Y1243321D01*
X1554531Y1243320D01*
X1554632Y1242227D01*
X1554637Y1242221D01*
X1554634Y1242216D01*
X1554975Y1241173D01*
X1554982Y1241168D01*
X1554980Y1241163D01*
X1555544Y1240222D01*
X1555552Y1240219D01*
X1555551Y1240213D01*
X1556311Y1239421D01*
X1556319Y1239420D01*
X1556320Y1239414D01*
X1557237Y1238812D01*
X1557245Y1238812D01*
X1557247Y1238807D01*
X1558275Y1238423D01*
X1558283Y1238425D01*
X1558286Y1238420D01*
X1559374Y1238275D01*
X1559381Y1238279D01*
X1559385Y1238275D01*
X1560522Y1238381D01*
G37*
G36*
X1093162Y1238381D02*
X1093162Y1238381D01*
X1093168Y1238386D01*
X1093173Y1238383D01*
X1094258Y1238739D01*
X1094263Y1238746D01*
X1094268Y1238743D01*
X1095247Y1239332D01*
X1095250Y1239340D01*
X1095256Y1239339D01*
X1096079Y1240131D01*
X1096080Y1240139D01*
X1096086Y1240139D01*
X1096713Y1241094D01*
X1096712Y1241102D01*
X1096718Y1241104D01*
X1097116Y1242174D01*
X1097114Y1242182D01*
X1097119Y1242185D01*
X1097269Y1243318D01*
X1097266Y1243322D01*
X1097269Y1243324D01*
X1097269Y1249324D01*
X1097266Y1249328D01*
X1097269Y1249330D01*
X1097119Y1250463D01*
X1097113Y1250469D01*
X1097116Y1250474D01*
X1096718Y1251544D01*
X1096711Y1251548D01*
X1096713Y1251554D01*
X1096086Y1252509D01*
X1096078Y1252512D01*
X1096079Y1252517D01*
X1095256Y1253309D01*
X1095248Y1253310D01*
X1095247Y1253316D01*
X1094268Y1253905D01*
X1094260Y1253904D01*
X1094258Y1253909D01*
X1093173Y1254265D01*
X1093165Y1254263D01*
X1093162Y1254267D01*
X1092025Y1254373D01*
X1092018Y1254369D01*
X1092014Y1254373D01*
X1090926Y1254228D01*
X1090920Y1254222D01*
X1090915Y1254225D01*
X1089887Y1253842D01*
X1089882Y1253835D01*
X1089877Y1253837D01*
X1088960Y1253234D01*
X1088957Y1253226D01*
X1088951Y1253227D01*
X1088191Y1252435D01*
X1088190Y1252427D01*
X1088184Y1252426D01*
X1087620Y1251485D01*
X1087621Y1251477D01*
X1087615Y1251475D01*
X1087274Y1250432D01*
X1087276Y1250424D01*
X1087272Y1250421D01*
X1087171Y1249329D01*
X1087173Y1249326D01*
X1087171Y1249324D01*
X1087171Y1243324D01*
X1087173Y1243321D01*
X1087171Y1243320D01*
X1087272Y1242227D01*
X1087277Y1242221D01*
X1087274Y1242216D01*
X1087615Y1241173D01*
X1087622Y1241168D01*
X1087620Y1241163D01*
X1088184Y1240222D01*
X1088192Y1240219D01*
X1088191Y1240213D01*
X1088951Y1239421D01*
X1088959Y1239420D01*
X1088960Y1239414D01*
X1089877Y1238812D01*
X1089885Y1238812D01*
X1089887Y1238807D01*
X1090915Y1238423D01*
X1090923Y1238425D01*
X1090926Y1238420D01*
X1092014Y1238275D01*
X1092021Y1238279D01*
X1092025Y1238275D01*
X1093162Y1238381D01*
G37*
G36*
X392122Y1238381D02*
X392122Y1238381D01*
X392128Y1238386D01*
X392133Y1238383D01*
X393218Y1238739D01*
X393223Y1238746D01*
X393228Y1238743D01*
X394207Y1239332D01*
X394210Y1239340D01*
X394216Y1239339D01*
X395039Y1240131D01*
X395040Y1240139D01*
X395046Y1240139D01*
X395673Y1241094D01*
X395672Y1241102D01*
X395678Y1241104D01*
X396076Y1242174D01*
X396074Y1242182D01*
X396079Y1242185D01*
X396229Y1243318D01*
X396226Y1243322D01*
X396229Y1243324D01*
X396229Y1249324D01*
X396226Y1249328D01*
X396229Y1249330D01*
X396079Y1250463D01*
X396073Y1250469D01*
X396076Y1250474D01*
X395678Y1251544D01*
X395671Y1251548D01*
X395673Y1251554D01*
X395046Y1252509D01*
X395038Y1252512D01*
X395039Y1252517D01*
X394216Y1253309D01*
X394208Y1253310D01*
X394207Y1253316D01*
X393228Y1253905D01*
X393220Y1253904D01*
X393218Y1253909D01*
X392133Y1254265D01*
X392125Y1254263D01*
X392122Y1254267D01*
X390985Y1254373D01*
X390978Y1254369D01*
X390974Y1254373D01*
X389886Y1254228D01*
X389880Y1254222D01*
X389875Y1254225D01*
X388847Y1253842D01*
X388842Y1253835D01*
X388837Y1253837D01*
X387920Y1253234D01*
X387917Y1253226D01*
X387911Y1253227D01*
X387151Y1252435D01*
X387150Y1252427D01*
X387144Y1252426D01*
X386580Y1251485D01*
X386581Y1251477D01*
X386575Y1251475D01*
X386234Y1250432D01*
X386236Y1250424D01*
X386232Y1250421D01*
X386131Y1249329D01*
X386133Y1249326D01*
X386131Y1249324D01*
X386131Y1243324D01*
X386133Y1243321D01*
X386131Y1243320D01*
X386232Y1242227D01*
X386237Y1242221D01*
X386234Y1242216D01*
X386575Y1241173D01*
X386582Y1241168D01*
X386580Y1241163D01*
X387144Y1240222D01*
X387152Y1240219D01*
X387151Y1240213D01*
X387911Y1239421D01*
X387919Y1239420D01*
X387920Y1239414D01*
X388837Y1238812D01*
X388845Y1238812D01*
X388847Y1238807D01*
X389875Y1238423D01*
X389883Y1238425D01*
X389886Y1238420D01*
X390974Y1238275D01*
X390981Y1238279D01*
X390985Y1238275D01*
X392122Y1238381D01*
G37*
G36*
X1326842Y1238381D02*
X1326842Y1238381D01*
X1326848Y1238386D01*
X1326853Y1238383D01*
X1327938Y1238739D01*
X1327943Y1238746D01*
X1327948Y1238743D01*
X1328927Y1239332D01*
X1328930Y1239340D01*
X1328936Y1239339D01*
X1329759Y1240131D01*
X1329760Y1240139D01*
X1329766Y1240139D01*
X1330393Y1241094D01*
X1330392Y1241102D01*
X1330398Y1241104D01*
X1330796Y1242174D01*
X1330794Y1242182D01*
X1330799Y1242185D01*
X1330949Y1243318D01*
X1330946Y1243322D01*
X1330949Y1243324D01*
X1330949Y1249324D01*
X1330946Y1249328D01*
X1330949Y1249330D01*
X1330799Y1250463D01*
X1330793Y1250469D01*
X1330796Y1250474D01*
X1330398Y1251544D01*
X1330391Y1251548D01*
X1330393Y1251554D01*
X1329766Y1252509D01*
X1329758Y1252512D01*
X1329759Y1252517D01*
X1328936Y1253309D01*
X1328928Y1253310D01*
X1328927Y1253316D01*
X1327948Y1253905D01*
X1327940Y1253904D01*
X1327938Y1253909D01*
X1326853Y1254265D01*
X1326845Y1254263D01*
X1326842Y1254267D01*
X1325705Y1254373D01*
X1325698Y1254369D01*
X1325694Y1254373D01*
X1324606Y1254228D01*
X1324600Y1254222D01*
X1324595Y1254225D01*
X1323567Y1253842D01*
X1323562Y1253835D01*
X1323557Y1253837D01*
X1322640Y1253234D01*
X1322637Y1253226D01*
X1322631Y1253227D01*
X1321871Y1252435D01*
X1321870Y1252427D01*
X1321864Y1252426D01*
X1321300Y1251485D01*
X1321301Y1251477D01*
X1321295Y1251475D01*
X1320954Y1250432D01*
X1320956Y1250424D01*
X1320952Y1250421D01*
X1320851Y1249329D01*
X1320853Y1249326D01*
X1320851Y1249324D01*
X1320851Y1243324D01*
X1320853Y1243321D01*
X1320851Y1243320D01*
X1320952Y1242227D01*
X1320957Y1242221D01*
X1320954Y1242216D01*
X1321295Y1241173D01*
X1321302Y1241168D01*
X1321300Y1241163D01*
X1321864Y1240222D01*
X1321872Y1240219D01*
X1321871Y1240213D01*
X1322631Y1239421D01*
X1322639Y1239420D01*
X1322640Y1239414D01*
X1323557Y1238812D01*
X1323565Y1238812D01*
X1323567Y1238807D01*
X1324595Y1238423D01*
X1324603Y1238425D01*
X1324606Y1238420D01*
X1325694Y1238275D01*
X1325701Y1238279D01*
X1325705Y1238275D01*
X1326842Y1238381D01*
G37*
G36*
X158442Y1238381D02*
X158442Y1238381D01*
X158448Y1238386D01*
X158453Y1238383D01*
X159538Y1238739D01*
X159543Y1238746D01*
X159548Y1238743D01*
X160527Y1239332D01*
X160530Y1239340D01*
X160536Y1239339D01*
X161359Y1240131D01*
X161360Y1240139D01*
X161366Y1240139D01*
X161993Y1241094D01*
X161992Y1241102D01*
X161998Y1241104D01*
X162396Y1242174D01*
X162394Y1242182D01*
X162399Y1242185D01*
X162549Y1243318D01*
X162546Y1243322D01*
X162549Y1243324D01*
X162549Y1249324D01*
X162546Y1249328D01*
X162549Y1249330D01*
X162399Y1250463D01*
X162393Y1250469D01*
X162396Y1250474D01*
X161998Y1251544D01*
X161991Y1251548D01*
X161993Y1251554D01*
X161366Y1252509D01*
X161358Y1252512D01*
X161359Y1252517D01*
X160536Y1253309D01*
X160528Y1253310D01*
X160527Y1253316D01*
X159548Y1253905D01*
X159540Y1253904D01*
X159538Y1253909D01*
X158453Y1254265D01*
X158445Y1254263D01*
X158442Y1254267D01*
X157305Y1254373D01*
X157298Y1254369D01*
X157294Y1254373D01*
X156206Y1254228D01*
X156200Y1254222D01*
X156195Y1254225D01*
X155167Y1253842D01*
X155162Y1253835D01*
X155157Y1253837D01*
X154240Y1253234D01*
X154237Y1253226D01*
X154231Y1253227D01*
X153471Y1252435D01*
X153470Y1252427D01*
X153464Y1252426D01*
X152900Y1251485D01*
X152901Y1251477D01*
X152895Y1251475D01*
X152554Y1250432D01*
X152556Y1250424D01*
X152552Y1250421D01*
X152451Y1249329D01*
X152453Y1249326D01*
X152451Y1249324D01*
X152451Y1243324D01*
X152453Y1243321D01*
X152451Y1243320D01*
X152552Y1242227D01*
X152557Y1242221D01*
X152554Y1242216D01*
X152895Y1241173D01*
X152902Y1241168D01*
X152900Y1241163D01*
X153464Y1240222D01*
X153472Y1240219D01*
X153471Y1240213D01*
X154231Y1239421D01*
X154239Y1239420D01*
X154240Y1239414D01*
X155157Y1238812D01*
X155165Y1238812D01*
X155167Y1238807D01*
X156195Y1238423D01*
X156203Y1238425D01*
X156206Y1238420D01*
X157294Y1238275D01*
X157301Y1238279D01*
X157305Y1238275D01*
X158442Y1238381D01*
G37*
D10*
X96440Y210058D03*
X86440Y210058D03*
X109300Y254000D03*
X119300Y254000D03*
D11*
X54000Y228299D03*
X63500Y228299D03*
X73000Y228299D03*
X73000Y254301D03*
X54000Y254301D03*
D10*
X71200Y200152D03*
X81200Y200152D03*
X119300Y152146D03*
X109300Y152146D03*
D12*
X131000Y288600D02*
X131000Y295600D01*
X138000Y295600D01*
X138000Y288600D01*
X131000Y288600D01*
X131000Y291450D02*
X138000Y291450D01*
X138000Y294300D02*
X131000Y294300D01*
X113460Y295600D02*
X113460Y288600D01*
X113460Y295600D02*
X120460Y295600D01*
X120460Y288600D01*
X113460Y288600D01*
X113460Y291450D02*
X120460Y291450D01*
X120460Y294300D02*
X113460Y294300D01*
D10*
X86440Y292100D03*
X96440Y292100D03*
D13*
X72000Y266700D03*
X55000Y266700D03*
D14*
X87122Y258690D03*
X87122Y241690D03*
D10*
X195500Y77470D03*
X185500Y77470D03*
X181436Y113792D03*
X191436Y113792D03*
D15*
X181300Y103020D03*
X199700Y96520D03*
X199700Y90020D03*
X199700Y103020D03*
X181300Y96520D03*
X181300Y90020D03*
D16*
X14050Y116900D03*
X14050Y60900D03*
D17*
X50800Y103900D03*
X50800Y93900D03*
X50800Y83900D03*
X50800Y73900D03*
D10*
X182880Y147400D03*
X182880Y157400D03*
X95250Y229282D03*
X95250Y219282D03*
D12*
X131000Y307650D02*
X131000Y314650D01*
X138000Y314650D01*
X138000Y307650D01*
X131000Y307650D01*
X131000Y310500D02*
X138000Y310500D01*
X138000Y313350D02*
X131000Y313350D01*
X113460Y314650D02*
X113460Y307650D01*
X113460Y314650D02*
X120460Y314650D01*
X120460Y307650D01*
X113460Y307650D01*
X113460Y310500D02*
X120460Y310500D01*
X120460Y313350D02*
X113460Y313350D01*
D10*
X83900Y311150D03*
X93900Y311150D03*
X144700Y228600D03*
X134700Y228600D03*
D18*
X144600Y199010D03*
X144600Y215010D03*
X185600Y215010D03*
X185600Y199010D03*
X144600Y243460D03*
X144600Y259460D03*
X185600Y259460D03*
X185600Y243460D03*
D19*
X124300Y181000D03*
X124300Y200000D03*
X103300Y190500D03*
D20*
X121800Y58576D03*
X116800Y58576D03*
D21*
X146550Y58576D03*
X138800Y58576D03*
D20*
X131800Y58576D03*
X126800Y58576D03*
X106800Y58576D03*
X111800Y58576D03*
D21*
X82050Y58576D03*
X89800Y58576D03*
D20*
X96800Y58576D03*
X101800Y58576D03*
D10*
X165100Y26750D03*
X165100Y36750D03*
X63500Y26750D03*
X63500Y36750D03*
D22*
X125800Y165100D03*
X102800Y165100D03*
D23*
X69850Y72076D03*
X82550Y72076D03*
X95250Y72076D03*
X107950Y72076D03*
X120650Y72076D03*
X133350Y72076D03*
X146050Y72076D03*
X158750Y72076D03*
X158750Y128076D03*
X146050Y128076D03*
X133350Y128076D03*
X120650Y128076D03*
X107950Y128076D03*
X95250Y128076D03*
X82550Y128076D03*
X69850Y128076D03*
D10*
X53340Y127174D03*
X53340Y117174D03*
X86694Y272034D03*
X96694Y272034D03*
D12*
X131000Y269550D02*
X131000Y276550D01*
X138000Y276550D01*
X138000Y269550D01*
X131000Y269550D01*
X131000Y272400D02*
X138000Y272400D01*
X138000Y275250D02*
X131000Y275250D01*
X113460Y276550D02*
X113460Y269550D01*
X113460Y276550D02*
X120460Y276550D01*
X120460Y269550D01*
X113460Y269550D01*
X113460Y272400D02*
X120460Y272400D01*
X120460Y275250D02*
X113460Y275250D01*
D24*
X56000Y281913D03*
X61000Y302288D03*
X56000Y302288D03*
X66000Y302288D03*
X71000Y302288D03*
X61000Y281913D03*
X66000Y281913D03*
X71000Y281913D03*
D25*
X66900Y292100D03*
X60100Y292100D03*
D10*
X86106Y229282D03*
X86106Y219282D03*
X165020Y174752D03*
X155020Y174752D03*
X69930Y152654D03*
X79930Y152654D03*
D26*
X211670Y558552D03*
X222670Y558552D03*
X222670Y540252D03*
X211670Y540252D03*
D10*
X210566Y578024D03*
X210566Y568024D03*
D27*
X72560Y167800D03*
X72560Y187800D03*
D28*
X20560Y143800D03*
X20560Y211800D03*
D11*
X104800Y215599D03*
X114300Y215599D03*
X123800Y215599D03*
X123800Y241601D03*
X104800Y241601D03*
D29*
X139399Y163932D03*
X139399Y154432D03*
X139399Y144932D03*
X165401Y144932D03*
X165401Y163932D03*
D30*
X31920Y508800D03*
X31920Y496100D03*
X31920Y483400D03*
X31920Y470700D03*
X31920Y458000D03*
X31920Y445300D03*
X31920Y432600D03*
X31920Y419900D03*
X31920Y407200D03*
X31920Y394500D03*
X31920Y381800D03*
X31920Y369100D03*
X31920Y356400D03*
X31920Y343700D03*
D31*
X57150Y328800D03*
X69850Y328800D03*
X82550Y328800D03*
X95250Y328800D03*
X107950Y328800D03*
X120650Y328800D03*
X133350Y328800D03*
X146050Y328800D03*
X158750Y328800D03*
X171450Y328800D03*
D30*
X196680Y343700D03*
X196680Y356400D03*
X196680Y369100D03*
X196680Y381800D03*
X196680Y394500D03*
X196680Y407200D03*
X196680Y419900D03*
X196680Y432600D03*
X196680Y445300D03*
X196680Y458000D03*
X196680Y470700D03*
X196680Y483400D03*
X196680Y496100D03*
X196680Y508800D03*
D32*
X98990Y435380D03*
X117440Y453590D03*
X99140Y453590D03*
X80840Y453590D03*
X80840Y435290D03*
X117540Y435590D03*
X117440Y416990D03*
X99140Y416890D03*
X80840Y416990D03*
D10*
X330120Y210058D03*
X320120Y210058D03*
X342980Y254000D03*
X352980Y254000D03*
D11*
X287680Y228299D03*
X297180Y228299D03*
X306680Y228299D03*
X306680Y254301D03*
X287680Y254301D03*
D10*
X304880Y200152D03*
X314880Y200152D03*
X352980Y152146D03*
X342980Y152146D03*
D12*
X364680Y288600D02*
X364680Y295600D01*
X371680Y295600D01*
X371680Y288600D01*
X364680Y288600D01*
X364680Y291450D02*
X371680Y291450D01*
X371680Y294300D02*
X364680Y294300D01*
X347140Y295600D02*
X347140Y288600D01*
X347140Y295600D02*
X354140Y295600D01*
X354140Y288600D01*
X347140Y288600D01*
X347140Y291450D02*
X354140Y291450D01*
X354140Y294300D02*
X347140Y294300D01*
D10*
X320120Y292100D03*
X330120Y292100D03*
D13*
X305680Y266700D03*
X288680Y266700D03*
D14*
X320802Y258690D03*
X320802Y241690D03*
D10*
X429180Y77470D03*
X419180Y77470D03*
X415116Y113792D03*
X425116Y113792D03*
D15*
X414980Y103020D03*
X433380Y96520D03*
X433380Y90020D03*
X433380Y103020D03*
X414980Y96520D03*
X414980Y90020D03*
D16*
X247730Y116900D03*
X247730Y60900D03*
D17*
X284480Y103900D03*
X284480Y93900D03*
X284480Y83900D03*
X284480Y73900D03*
D10*
X416560Y147400D03*
X416560Y157400D03*
X328930Y229282D03*
X328930Y219282D03*
D12*
X364680Y307650D02*
X364680Y314650D01*
X371680Y314650D01*
X371680Y307650D01*
X364680Y307650D01*
X364680Y310500D02*
X371680Y310500D01*
X371680Y313350D02*
X364680Y313350D01*
X347140Y314650D02*
X347140Y307650D01*
X347140Y314650D02*
X354140Y314650D01*
X354140Y307650D01*
X347140Y307650D01*
X347140Y310500D02*
X354140Y310500D01*
X354140Y313350D02*
X347140Y313350D01*
D10*
X317580Y311150D03*
X327580Y311150D03*
X378380Y228600D03*
X368380Y228600D03*
D18*
X378280Y199010D03*
X378280Y215010D03*
X419280Y215010D03*
X419280Y199010D03*
X378280Y243460D03*
X378280Y259460D03*
X419280Y259460D03*
X419280Y243460D03*
D19*
X357980Y181000D03*
X357980Y200000D03*
X336980Y190500D03*
D20*
X355480Y58576D03*
X350480Y58576D03*
D21*
X380230Y58576D03*
X372480Y58576D03*
D20*
X365480Y58576D03*
X360480Y58576D03*
X340480Y58576D03*
X345480Y58576D03*
D21*
X315730Y58576D03*
X323480Y58576D03*
D20*
X330480Y58576D03*
X335480Y58576D03*
D10*
X398780Y26750D03*
X398780Y36750D03*
X297180Y26750D03*
X297180Y36750D03*
D22*
X359480Y165100D03*
X336480Y165100D03*
D23*
X303530Y72076D03*
X316230Y72076D03*
X328930Y72076D03*
X341630Y72076D03*
X354330Y72076D03*
X367030Y72076D03*
X379730Y72076D03*
X392430Y72076D03*
X392430Y128076D03*
X379730Y128076D03*
X367030Y128076D03*
X354330Y128076D03*
X341630Y128076D03*
X328930Y128076D03*
X316230Y128076D03*
X303530Y128076D03*
D10*
X287020Y127174D03*
X287020Y117174D03*
X320374Y272034D03*
X330374Y272034D03*
D12*
X364680Y269550D02*
X364680Y276550D01*
X371680Y276550D01*
X371680Y269550D01*
X364680Y269550D01*
X364680Y272400D02*
X371680Y272400D01*
X371680Y275250D02*
X364680Y275250D01*
X347140Y276550D02*
X347140Y269550D01*
X347140Y276550D02*
X354140Y276550D01*
X354140Y269550D01*
X347140Y269550D01*
X347140Y272400D02*
X354140Y272400D01*
X354140Y275250D02*
X347140Y275250D01*
D24*
X289680Y281913D03*
X294680Y302288D03*
X289680Y302288D03*
X299680Y302288D03*
X304680Y302288D03*
X294680Y281913D03*
X299680Y281913D03*
X304680Y281913D03*
D25*
X300580Y292100D03*
X293780Y292100D03*
D10*
X319786Y229282D03*
X319786Y219282D03*
X398700Y174752D03*
X388700Y174752D03*
X303610Y152654D03*
X313610Y152654D03*
D26*
X445350Y558552D03*
X456350Y558552D03*
X456350Y540252D03*
X445350Y540252D03*
D10*
X444246Y578024D03*
X444246Y568024D03*
D27*
X306240Y167800D03*
X306240Y187800D03*
D28*
X254240Y143800D03*
X254240Y211800D03*
D11*
X338480Y215599D03*
X347980Y215599D03*
X357480Y215599D03*
X357480Y241601D03*
X338480Y241601D03*
D29*
X373079Y163932D03*
X373079Y154432D03*
X373079Y144932D03*
X399081Y144932D03*
X399081Y163932D03*
D30*
X265600Y508800D03*
X265600Y496100D03*
X265600Y483400D03*
X265600Y470700D03*
X265600Y458000D03*
X265600Y445300D03*
X265600Y432600D03*
X265600Y419900D03*
X265600Y407200D03*
X265600Y394500D03*
X265600Y381800D03*
X265600Y369100D03*
X265600Y356400D03*
X265600Y343700D03*
D31*
X290830Y328800D03*
X303530Y328800D03*
X316230Y328800D03*
X328930Y328800D03*
X341630Y328800D03*
X354330Y328800D03*
X367030Y328800D03*
X379730Y328800D03*
X392430Y328800D03*
X405130Y328800D03*
D30*
X430360Y343700D03*
X430360Y356400D03*
X430360Y369100D03*
X430360Y381800D03*
X430360Y394500D03*
X430360Y407200D03*
X430360Y419900D03*
X430360Y432600D03*
X430360Y445300D03*
X430360Y458000D03*
X430360Y470700D03*
X430360Y483400D03*
X430360Y496100D03*
X430360Y508800D03*
D32*
X332670Y435380D03*
X351120Y453590D03*
X332820Y453590D03*
X314520Y453590D03*
X314520Y435290D03*
X351220Y435590D03*
X351120Y416990D03*
X332820Y416890D03*
X314520Y416990D03*
D10*
X563800Y210058D03*
X553800Y210058D03*
X576660Y254000D03*
X586660Y254000D03*
D11*
X521360Y228299D03*
X530860Y228299D03*
X540360Y228299D03*
X540360Y254301D03*
X521360Y254301D03*
D10*
X538560Y200152D03*
X548560Y200152D03*
X586660Y152146D03*
X576660Y152146D03*
D12*
X598360Y288600D02*
X598360Y295600D01*
X605360Y295600D01*
X605360Y288600D01*
X598360Y288600D01*
X598360Y291450D02*
X605360Y291450D01*
X605360Y294300D02*
X598360Y294300D01*
X580820Y295600D02*
X580820Y288600D01*
X580820Y295600D02*
X587820Y295600D01*
X587820Y288600D01*
X580820Y288600D01*
X580820Y291450D02*
X587820Y291450D01*
X587820Y294300D02*
X580820Y294300D01*
D10*
X553800Y292100D03*
X563800Y292100D03*
D13*
X539360Y266700D03*
X522360Y266700D03*
D14*
X554482Y258690D03*
X554482Y241690D03*
D10*
X662860Y77470D03*
X652860Y77470D03*
X648796Y113792D03*
X658796Y113792D03*
D15*
X648660Y103020D03*
X667060Y96520D03*
X667060Y90020D03*
X667060Y103020D03*
X648660Y96520D03*
X648660Y90020D03*
D16*
X481410Y116900D03*
X481410Y60900D03*
D17*
X518160Y103900D03*
X518160Y93900D03*
X518160Y83900D03*
X518160Y73900D03*
D10*
X650240Y147400D03*
X650240Y157400D03*
X562610Y229282D03*
X562610Y219282D03*
D12*
X598360Y307650D02*
X598360Y314650D01*
X605360Y314650D01*
X605360Y307650D01*
X598360Y307650D01*
X598360Y310500D02*
X605360Y310500D01*
X605360Y313350D02*
X598360Y313350D01*
X580820Y314650D02*
X580820Y307650D01*
X580820Y314650D02*
X587820Y314650D01*
X587820Y307650D01*
X580820Y307650D01*
X580820Y310500D02*
X587820Y310500D01*
X587820Y313350D02*
X580820Y313350D01*
D10*
X551260Y311150D03*
X561260Y311150D03*
X612060Y228600D03*
X602060Y228600D03*
D18*
X611960Y199010D03*
X611960Y215010D03*
X652960Y215010D03*
X652960Y199010D03*
X611960Y243460D03*
X611960Y259460D03*
X652960Y259460D03*
X652960Y243460D03*
D19*
X591660Y181000D03*
X591660Y200000D03*
X570660Y190500D03*
D20*
X589160Y58576D03*
X584160Y58576D03*
D21*
X613910Y58576D03*
X606160Y58576D03*
D20*
X599160Y58576D03*
X594160Y58576D03*
X574160Y58576D03*
X579160Y58576D03*
D21*
X549410Y58576D03*
X557160Y58576D03*
D20*
X564160Y58576D03*
X569160Y58576D03*
D10*
X632460Y26750D03*
X632460Y36750D03*
X530860Y26750D03*
X530860Y36750D03*
D22*
X593160Y165100D03*
X570160Y165100D03*
D23*
X537210Y72076D03*
X549910Y72076D03*
X562610Y72076D03*
X575310Y72076D03*
X588010Y72076D03*
X600710Y72076D03*
X613410Y72076D03*
X626110Y72076D03*
X626110Y128076D03*
X613410Y128076D03*
X600710Y128076D03*
X588010Y128076D03*
X575310Y128076D03*
X562610Y128076D03*
X549910Y128076D03*
X537210Y128076D03*
D10*
X520700Y127174D03*
X520700Y117174D03*
X554054Y272034D03*
X564054Y272034D03*
D12*
X598360Y269550D02*
X598360Y276550D01*
X605360Y276550D01*
X605360Y269550D01*
X598360Y269550D01*
X598360Y272400D02*
X605360Y272400D01*
X605360Y275250D02*
X598360Y275250D01*
X580820Y276550D02*
X580820Y269550D01*
X580820Y276550D02*
X587820Y276550D01*
X587820Y269550D01*
X580820Y269550D01*
X580820Y272400D02*
X587820Y272400D01*
X587820Y275250D02*
X580820Y275250D01*
D24*
X523360Y281913D03*
X528360Y302288D03*
X523360Y302288D03*
X533360Y302288D03*
X538360Y302288D03*
X528360Y281913D03*
X533360Y281913D03*
X538360Y281913D03*
D25*
X534260Y292100D03*
X527460Y292100D03*
D10*
X553466Y229282D03*
X553466Y219282D03*
X632380Y174752D03*
X622380Y174752D03*
X537290Y152654D03*
X547290Y152654D03*
D26*
X679030Y558552D03*
X690030Y558552D03*
X690030Y540252D03*
X679030Y540252D03*
D10*
X677926Y578024D03*
X677926Y568024D03*
D27*
X539920Y167800D03*
X539920Y187800D03*
D28*
X487920Y143800D03*
X487920Y211800D03*
D11*
X572160Y215599D03*
X581660Y215599D03*
X591160Y215599D03*
X591160Y241601D03*
X572160Y241601D03*
D29*
X606759Y163932D03*
X606759Y154432D03*
X606759Y144932D03*
X632761Y144932D03*
X632761Y163932D03*
D30*
X499280Y508800D03*
X499280Y496100D03*
X499280Y483400D03*
X499280Y470700D03*
X499280Y458000D03*
X499280Y445300D03*
X499280Y432600D03*
X499280Y419900D03*
X499280Y407200D03*
X499280Y394500D03*
X499280Y381800D03*
X499280Y369100D03*
X499280Y356400D03*
X499280Y343700D03*
D31*
X524510Y328800D03*
X537210Y328800D03*
X549910Y328800D03*
X562610Y328800D03*
X575310Y328800D03*
X588010Y328800D03*
X600710Y328800D03*
X613410Y328800D03*
X626110Y328800D03*
X638810Y328800D03*
D30*
X664040Y343700D03*
X664040Y356400D03*
X664040Y369100D03*
X664040Y381800D03*
X664040Y394500D03*
X664040Y407200D03*
X664040Y419900D03*
X664040Y432600D03*
X664040Y445300D03*
X664040Y458000D03*
X664040Y470700D03*
X664040Y483400D03*
X664040Y496100D03*
X664040Y508800D03*
D32*
X566350Y435380D03*
X584800Y453590D03*
X566500Y453590D03*
X548200Y453590D03*
X548200Y435290D03*
X584900Y435590D03*
X584800Y416990D03*
X566500Y416890D03*
X548200Y416990D03*
D10*
X797480Y210058D03*
X787480Y210058D03*
X810340Y254000D03*
X820340Y254000D03*
D11*
X755040Y228299D03*
X764540Y228299D03*
X774040Y228299D03*
X774040Y254301D03*
X755040Y254301D03*
D10*
X772240Y200152D03*
X782240Y200152D03*
X820340Y152146D03*
X810340Y152146D03*
D12*
X832040Y288600D02*
X832040Y295600D01*
X839040Y295600D01*
X839040Y288600D01*
X832040Y288600D01*
X832040Y291450D02*
X839040Y291450D01*
X839040Y294300D02*
X832040Y294300D01*
X814500Y295600D02*
X814500Y288600D01*
X814500Y295600D02*
X821500Y295600D01*
X821500Y288600D01*
X814500Y288600D01*
X814500Y291450D02*
X821500Y291450D01*
X821500Y294300D02*
X814500Y294300D01*
D10*
X787480Y292100D03*
X797480Y292100D03*
D13*
X773040Y266700D03*
X756040Y266700D03*
D14*
X788162Y258690D03*
X788162Y241690D03*
D10*
X896540Y77470D03*
X886540Y77470D03*
X882476Y113792D03*
X892476Y113792D03*
D15*
X882340Y103020D03*
X900740Y96520D03*
X900740Y90020D03*
X900740Y103020D03*
X882340Y96520D03*
X882340Y90020D03*
D16*
X715090Y116900D03*
X715090Y60900D03*
D17*
X751840Y103900D03*
X751840Y93900D03*
X751840Y83900D03*
X751840Y73900D03*
D10*
X883920Y147400D03*
X883920Y157400D03*
X796290Y229282D03*
X796290Y219282D03*
D12*
X832040Y307650D02*
X832040Y314650D01*
X839040Y314650D01*
X839040Y307650D01*
X832040Y307650D01*
X832040Y310500D02*
X839040Y310500D01*
X839040Y313350D02*
X832040Y313350D01*
X814500Y314650D02*
X814500Y307650D01*
X814500Y314650D02*
X821500Y314650D01*
X821500Y307650D01*
X814500Y307650D01*
X814500Y310500D02*
X821500Y310500D01*
X821500Y313350D02*
X814500Y313350D01*
D10*
X784940Y311150D03*
X794940Y311150D03*
X845740Y228600D03*
X835740Y228600D03*
D18*
X845640Y199010D03*
X845640Y215010D03*
X886640Y215010D03*
X886640Y199010D03*
X845640Y243460D03*
X845640Y259460D03*
X886640Y259460D03*
X886640Y243460D03*
D19*
X825340Y181000D03*
X825340Y200000D03*
X804340Y190500D03*
D20*
X822840Y58576D03*
X817840Y58576D03*
D21*
X847590Y58576D03*
X839840Y58576D03*
D20*
X832840Y58576D03*
X827840Y58576D03*
X807840Y58576D03*
X812840Y58576D03*
D21*
X783090Y58576D03*
X790840Y58576D03*
D20*
X797840Y58576D03*
X802840Y58576D03*
D10*
X866140Y26750D03*
X866140Y36750D03*
X764540Y26750D03*
X764540Y36750D03*
D22*
X826840Y165100D03*
X803840Y165100D03*
D23*
X770890Y72076D03*
X783590Y72076D03*
X796290Y72076D03*
X808990Y72076D03*
X821690Y72076D03*
X834390Y72076D03*
X847090Y72076D03*
X859790Y72076D03*
X859790Y128076D03*
X847090Y128076D03*
X834390Y128076D03*
X821690Y128076D03*
X808990Y128076D03*
X796290Y128076D03*
X783590Y128076D03*
X770890Y128076D03*
D10*
X754380Y127174D03*
X754380Y117174D03*
X787734Y272034D03*
X797734Y272034D03*
D12*
X832040Y269550D02*
X832040Y276550D01*
X839040Y276550D01*
X839040Y269550D01*
X832040Y269550D01*
X832040Y272400D02*
X839040Y272400D01*
X839040Y275250D02*
X832040Y275250D01*
X814500Y276550D02*
X814500Y269550D01*
X814500Y276550D02*
X821500Y276550D01*
X821500Y269550D01*
X814500Y269550D01*
X814500Y272400D02*
X821500Y272400D01*
X821500Y275250D02*
X814500Y275250D01*
D24*
X757040Y281913D03*
X762040Y302288D03*
X757040Y302288D03*
X767040Y302288D03*
X772040Y302288D03*
X762040Y281913D03*
X767040Y281913D03*
X772040Y281913D03*
D25*
X767940Y292100D03*
X761140Y292100D03*
D10*
X787146Y229282D03*
X787146Y219282D03*
X866060Y174752D03*
X856060Y174752D03*
X770970Y152654D03*
X780970Y152654D03*
D26*
X912710Y558552D03*
X923710Y558552D03*
X923710Y540252D03*
X912710Y540252D03*
D10*
X911606Y578024D03*
X911606Y568024D03*
D27*
X773600Y167800D03*
X773600Y187800D03*
D28*
X721600Y143800D03*
X721600Y211800D03*
D11*
X805840Y215599D03*
X815340Y215599D03*
X824840Y215599D03*
X824840Y241601D03*
X805840Y241601D03*
D29*
X840439Y163932D03*
X840439Y154432D03*
X840439Y144932D03*
X866441Y144932D03*
X866441Y163932D03*
D30*
X732960Y508800D03*
X732960Y496100D03*
X732960Y483400D03*
X732960Y470700D03*
X732960Y458000D03*
X732960Y445300D03*
X732960Y432600D03*
X732960Y419900D03*
X732960Y407200D03*
X732960Y394500D03*
X732960Y381800D03*
X732960Y369100D03*
X732960Y356400D03*
X732960Y343700D03*
D31*
X758190Y328800D03*
X770890Y328800D03*
X783590Y328800D03*
X796290Y328800D03*
X808990Y328800D03*
X821690Y328800D03*
X834390Y328800D03*
X847090Y328800D03*
X859790Y328800D03*
X872490Y328800D03*
D30*
X897720Y343700D03*
X897720Y356400D03*
X897720Y369100D03*
X897720Y381800D03*
X897720Y394500D03*
X897720Y407200D03*
X897720Y419900D03*
X897720Y432600D03*
X897720Y445300D03*
X897720Y458000D03*
X897720Y470700D03*
X897720Y483400D03*
X897720Y496100D03*
X897720Y508800D03*
D32*
X800030Y435380D03*
X818480Y453590D03*
X800180Y453590D03*
X781880Y453590D03*
X781880Y435290D03*
X818580Y435590D03*
X818480Y416990D03*
X800180Y416890D03*
X781880Y416990D03*
D10*
X1031160Y210058D03*
X1021160Y210058D03*
X1044020Y254000D03*
X1054020Y254000D03*
D11*
X988720Y228299D03*
X998220Y228299D03*
X1007720Y228299D03*
X1007720Y254301D03*
X988720Y254301D03*
D10*
X1005920Y200152D03*
X1015920Y200152D03*
X1054020Y152146D03*
X1044020Y152146D03*
D12*
X1065720Y288600D02*
X1065720Y295600D01*
X1072720Y295600D01*
X1072720Y288600D01*
X1065720Y288600D01*
X1065720Y291450D02*
X1072720Y291450D01*
X1072720Y294300D02*
X1065720Y294300D01*
X1048180Y295600D02*
X1048180Y288600D01*
X1048180Y295600D02*
X1055180Y295600D01*
X1055180Y288600D01*
X1048180Y288600D01*
X1048180Y291450D02*
X1055180Y291450D01*
X1055180Y294300D02*
X1048180Y294300D01*
D10*
X1021160Y292100D03*
X1031160Y292100D03*
D13*
X1006720Y266700D03*
X989720Y266700D03*
D14*
X1021842Y258690D03*
X1021842Y241690D03*
D10*
X1130220Y77470D03*
X1120220Y77470D03*
X1116156Y113792D03*
X1126156Y113792D03*
D15*
X1116020Y103020D03*
X1134420Y96520D03*
X1134420Y90020D03*
X1134420Y103020D03*
X1116020Y96520D03*
X1116020Y90020D03*
D16*
X948770Y116900D03*
X948770Y60900D03*
D17*
X985520Y103900D03*
X985520Y93900D03*
X985520Y83900D03*
X985520Y73900D03*
D10*
X1117600Y147400D03*
X1117600Y157400D03*
X1029970Y229282D03*
X1029970Y219282D03*
D12*
X1065720Y307650D02*
X1065720Y314650D01*
X1072720Y314650D01*
X1072720Y307650D01*
X1065720Y307650D01*
X1065720Y310500D02*
X1072720Y310500D01*
X1072720Y313350D02*
X1065720Y313350D01*
X1048180Y314650D02*
X1048180Y307650D01*
X1048180Y314650D02*
X1055180Y314650D01*
X1055180Y307650D01*
X1048180Y307650D01*
X1048180Y310500D02*
X1055180Y310500D01*
X1055180Y313350D02*
X1048180Y313350D01*
D10*
X1018620Y311150D03*
X1028620Y311150D03*
X1079420Y228600D03*
X1069420Y228600D03*
D18*
X1079320Y199010D03*
X1079320Y215010D03*
X1120320Y215010D03*
X1120320Y199010D03*
X1079320Y243460D03*
X1079320Y259460D03*
X1120320Y259460D03*
X1120320Y243460D03*
D19*
X1059020Y181000D03*
X1059020Y200000D03*
X1038020Y190500D03*
D20*
X1056520Y58576D03*
X1051520Y58576D03*
D21*
X1081270Y58576D03*
X1073520Y58576D03*
D20*
X1066520Y58576D03*
X1061520Y58576D03*
X1041520Y58576D03*
X1046520Y58576D03*
D21*
X1016770Y58576D03*
X1024520Y58576D03*
D20*
X1031520Y58576D03*
X1036520Y58576D03*
D10*
X1099820Y26750D03*
X1099820Y36750D03*
X998220Y26750D03*
X998220Y36750D03*
D22*
X1060520Y165100D03*
X1037520Y165100D03*
D23*
X1004570Y72076D03*
X1017270Y72076D03*
X1029970Y72076D03*
X1042670Y72076D03*
X1055370Y72076D03*
X1068070Y72076D03*
X1080770Y72076D03*
X1093470Y72076D03*
X1093470Y128076D03*
X1080770Y128076D03*
X1068070Y128076D03*
X1055370Y128076D03*
X1042670Y128076D03*
X1029970Y128076D03*
X1017270Y128076D03*
X1004570Y128076D03*
D10*
X988060Y127174D03*
X988060Y117174D03*
X1021414Y272034D03*
X1031414Y272034D03*
D12*
X1065720Y269550D02*
X1065720Y276550D01*
X1072720Y276550D01*
X1072720Y269550D01*
X1065720Y269550D01*
X1065720Y272400D02*
X1072720Y272400D01*
X1072720Y275250D02*
X1065720Y275250D01*
X1048180Y276550D02*
X1048180Y269550D01*
X1048180Y276550D02*
X1055180Y276550D01*
X1055180Y269550D01*
X1048180Y269550D01*
X1048180Y272400D02*
X1055180Y272400D01*
X1055180Y275250D02*
X1048180Y275250D01*
D24*
X990720Y281913D03*
X995720Y302288D03*
X990720Y302288D03*
X1000720Y302288D03*
X1005720Y302288D03*
X995720Y281913D03*
X1000720Y281913D03*
X1005720Y281913D03*
D25*
X1001620Y292100D03*
X994820Y292100D03*
D10*
X1020826Y229282D03*
X1020826Y219282D03*
X1099740Y174752D03*
X1089740Y174752D03*
X1004650Y152654D03*
X1014650Y152654D03*
D26*
X1146390Y558552D03*
X1157390Y558552D03*
X1157390Y540252D03*
X1146390Y540252D03*
D10*
X1145286Y578024D03*
X1145286Y568024D03*
D27*
X1007280Y167800D03*
X1007280Y187800D03*
D28*
X955280Y143800D03*
X955280Y211800D03*
D11*
X1039520Y215599D03*
X1049020Y215599D03*
X1058520Y215599D03*
X1058520Y241601D03*
X1039520Y241601D03*
D29*
X1074119Y163932D03*
X1074119Y154432D03*
X1074119Y144932D03*
X1100121Y144932D03*
X1100121Y163932D03*
D30*
X966640Y508800D03*
X966640Y496100D03*
X966640Y483400D03*
X966640Y470700D03*
X966640Y458000D03*
X966640Y445300D03*
X966640Y432600D03*
X966640Y419900D03*
X966640Y407200D03*
X966640Y394500D03*
X966640Y381800D03*
X966640Y369100D03*
X966640Y356400D03*
X966640Y343700D03*
D31*
X991870Y328800D03*
X1004570Y328800D03*
X1017270Y328800D03*
X1029970Y328800D03*
X1042670Y328800D03*
X1055370Y328800D03*
X1068070Y328800D03*
X1080770Y328800D03*
X1093470Y328800D03*
X1106170Y328800D03*
D30*
X1131400Y343700D03*
X1131400Y356400D03*
X1131400Y369100D03*
X1131400Y381800D03*
X1131400Y394500D03*
X1131400Y407200D03*
X1131400Y419900D03*
X1131400Y432600D03*
X1131400Y445300D03*
X1131400Y458000D03*
X1131400Y470700D03*
X1131400Y483400D03*
X1131400Y496100D03*
X1131400Y508800D03*
D32*
X1033710Y435380D03*
X1052160Y453590D03*
X1033860Y453590D03*
X1015560Y453590D03*
X1015560Y435290D03*
X1052260Y435590D03*
X1052160Y416990D03*
X1033860Y416890D03*
X1015560Y416990D03*
D10*
X1264840Y210058D03*
X1254840Y210058D03*
X1277700Y254000D03*
X1287700Y254000D03*
D11*
X1222400Y228299D03*
X1231900Y228299D03*
X1241400Y228299D03*
X1241400Y254301D03*
X1222400Y254301D03*
D10*
X1239600Y200152D03*
X1249600Y200152D03*
X1287700Y152146D03*
X1277700Y152146D03*
D12*
X1299400Y288600D02*
X1299400Y295600D01*
X1306400Y295600D01*
X1306400Y288600D01*
X1299400Y288600D01*
X1299400Y291450D02*
X1306400Y291450D01*
X1306400Y294300D02*
X1299400Y294300D01*
X1281860Y295600D02*
X1281860Y288600D01*
X1281860Y295600D02*
X1288860Y295600D01*
X1288860Y288600D01*
X1281860Y288600D01*
X1281860Y291450D02*
X1288860Y291450D01*
X1288860Y294300D02*
X1281860Y294300D01*
D10*
X1254840Y292100D03*
X1264840Y292100D03*
D13*
X1240400Y266700D03*
X1223400Y266700D03*
D14*
X1255522Y258690D03*
X1255522Y241690D03*
D10*
X1363900Y77470D03*
X1353900Y77470D03*
X1349836Y113792D03*
X1359836Y113792D03*
D15*
X1349700Y103020D03*
X1368100Y96520D03*
X1368100Y90020D03*
X1368100Y103020D03*
X1349700Y96520D03*
X1349700Y90020D03*
D16*
X1182450Y116900D03*
X1182450Y60900D03*
D17*
X1219200Y103900D03*
X1219200Y93900D03*
X1219200Y83900D03*
X1219200Y73900D03*
D10*
X1351280Y147400D03*
X1351280Y157400D03*
X1263650Y229282D03*
X1263650Y219282D03*
D12*
X1299400Y307650D02*
X1299400Y314650D01*
X1306400Y314650D01*
X1306400Y307650D01*
X1299400Y307650D01*
X1299400Y310500D02*
X1306400Y310500D01*
X1306400Y313350D02*
X1299400Y313350D01*
X1281860Y314650D02*
X1281860Y307650D01*
X1281860Y314650D02*
X1288860Y314650D01*
X1288860Y307650D01*
X1281860Y307650D01*
X1281860Y310500D02*
X1288860Y310500D01*
X1288860Y313350D02*
X1281860Y313350D01*
D10*
X1252300Y311150D03*
X1262300Y311150D03*
X1313100Y228600D03*
X1303100Y228600D03*
D18*
X1313000Y199010D03*
X1313000Y215010D03*
X1354000Y215010D03*
X1354000Y199010D03*
X1313000Y243460D03*
X1313000Y259460D03*
X1354000Y259460D03*
X1354000Y243460D03*
D19*
X1292700Y181000D03*
X1292700Y200000D03*
X1271700Y190500D03*
D20*
X1290200Y58576D03*
X1285200Y58576D03*
D21*
X1314950Y58576D03*
X1307200Y58576D03*
D20*
X1300200Y58576D03*
X1295200Y58576D03*
X1275200Y58576D03*
X1280200Y58576D03*
D21*
X1250450Y58576D03*
X1258200Y58576D03*
D20*
X1265200Y58576D03*
X1270200Y58576D03*
D10*
X1333500Y26750D03*
X1333500Y36750D03*
X1231900Y26750D03*
X1231900Y36750D03*
D22*
X1294200Y165100D03*
X1271200Y165100D03*
D23*
X1238250Y72076D03*
X1250950Y72076D03*
X1263650Y72076D03*
X1276350Y72076D03*
X1289050Y72076D03*
X1301750Y72076D03*
X1314450Y72076D03*
X1327150Y72076D03*
X1327150Y128076D03*
X1314450Y128076D03*
X1301750Y128076D03*
X1289050Y128076D03*
X1276350Y128076D03*
X1263650Y128076D03*
X1250950Y128076D03*
X1238250Y128076D03*
D10*
X1221740Y127174D03*
X1221740Y117174D03*
X1255094Y272034D03*
X1265094Y272034D03*
D12*
X1299400Y269550D02*
X1299400Y276550D01*
X1306400Y276550D01*
X1306400Y269550D01*
X1299400Y269550D01*
X1299400Y272400D02*
X1306400Y272400D01*
X1306400Y275250D02*
X1299400Y275250D01*
X1281860Y276550D02*
X1281860Y269550D01*
X1281860Y276550D02*
X1288860Y276550D01*
X1288860Y269550D01*
X1281860Y269550D01*
X1281860Y272400D02*
X1288860Y272400D01*
X1288860Y275250D02*
X1281860Y275250D01*
D24*
X1224400Y281913D03*
X1229400Y302288D03*
X1224400Y302288D03*
X1234400Y302288D03*
X1239400Y302288D03*
X1229400Y281913D03*
X1234400Y281913D03*
X1239400Y281913D03*
D25*
X1235300Y292100D03*
X1228500Y292100D03*
D10*
X1254506Y229282D03*
X1254506Y219282D03*
X1333420Y174752D03*
X1323420Y174752D03*
X1238330Y152654D03*
X1248330Y152654D03*
D26*
X1380070Y558552D03*
X1391070Y558552D03*
X1391070Y540252D03*
X1380070Y540252D03*
D10*
X1378966Y578024D03*
X1378966Y568024D03*
D27*
X1240960Y167800D03*
X1240960Y187800D03*
D28*
X1188960Y143800D03*
X1188960Y211800D03*
D11*
X1273200Y215599D03*
X1282700Y215599D03*
X1292200Y215599D03*
X1292200Y241601D03*
X1273200Y241601D03*
D29*
X1307799Y163932D03*
X1307799Y154432D03*
X1307799Y144932D03*
X1333801Y144932D03*
X1333801Y163932D03*
D30*
X1200320Y508800D03*
X1200320Y496100D03*
X1200320Y483400D03*
X1200320Y470700D03*
X1200320Y458000D03*
X1200320Y445300D03*
X1200320Y432600D03*
X1200320Y419900D03*
X1200320Y407200D03*
X1200320Y394500D03*
X1200320Y381800D03*
X1200320Y369100D03*
X1200320Y356400D03*
X1200320Y343700D03*
D31*
X1225550Y328800D03*
X1238250Y328800D03*
X1250950Y328800D03*
X1263650Y328800D03*
X1276350Y328800D03*
X1289050Y328800D03*
X1301750Y328800D03*
X1314450Y328800D03*
X1327150Y328800D03*
X1339850Y328800D03*
D30*
X1365080Y343700D03*
X1365080Y356400D03*
X1365080Y369100D03*
X1365080Y381800D03*
X1365080Y394500D03*
X1365080Y407200D03*
X1365080Y419900D03*
X1365080Y432600D03*
X1365080Y445300D03*
X1365080Y458000D03*
X1365080Y470700D03*
X1365080Y483400D03*
X1365080Y496100D03*
X1365080Y508800D03*
D32*
X1267390Y435380D03*
X1285840Y453590D03*
X1267540Y453590D03*
X1249240Y453590D03*
X1249240Y435290D03*
X1285940Y435590D03*
X1285840Y416990D03*
X1267540Y416890D03*
X1249240Y416990D03*
D10*
X1498520Y210058D03*
X1488520Y210058D03*
X1511380Y254000D03*
X1521380Y254000D03*
D11*
X1456080Y228299D03*
X1465580Y228299D03*
X1475080Y228299D03*
X1475080Y254301D03*
X1456080Y254301D03*
D10*
X1473280Y200152D03*
X1483280Y200152D03*
X1521380Y152146D03*
X1511380Y152146D03*
D12*
X1533080Y288600D02*
X1533080Y295600D01*
X1540080Y295600D01*
X1540080Y288600D01*
X1533080Y288600D01*
X1533080Y291450D02*
X1540080Y291450D01*
X1540080Y294300D02*
X1533080Y294300D01*
X1515540Y295600D02*
X1515540Y288600D01*
X1515540Y295600D02*
X1522540Y295600D01*
X1522540Y288600D01*
X1515540Y288600D01*
X1515540Y291450D02*
X1522540Y291450D01*
X1522540Y294300D02*
X1515540Y294300D01*
D10*
X1488520Y292100D03*
X1498520Y292100D03*
D13*
X1474080Y266700D03*
X1457080Y266700D03*
D14*
X1489202Y258690D03*
X1489202Y241690D03*
D10*
X1597580Y77470D03*
X1587580Y77470D03*
X1583516Y113792D03*
X1593516Y113792D03*
D15*
X1583380Y103020D03*
X1601780Y96520D03*
X1601780Y90020D03*
X1601780Y103020D03*
X1583380Y96520D03*
X1583380Y90020D03*
D16*
X1416130Y116900D03*
X1416130Y60900D03*
D17*
X1452880Y103900D03*
X1452880Y93900D03*
X1452880Y83900D03*
X1452880Y73900D03*
D10*
X1584960Y147400D03*
X1584960Y157400D03*
X1497330Y229282D03*
X1497330Y219282D03*
D12*
X1533080Y307650D02*
X1533080Y314650D01*
X1540080Y314650D01*
X1540080Y307650D01*
X1533080Y307650D01*
X1533080Y310500D02*
X1540080Y310500D01*
X1540080Y313350D02*
X1533080Y313350D01*
X1515540Y314650D02*
X1515540Y307650D01*
X1515540Y314650D02*
X1522540Y314650D01*
X1522540Y307650D01*
X1515540Y307650D01*
X1515540Y310500D02*
X1522540Y310500D01*
X1522540Y313350D02*
X1515540Y313350D01*
D10*
X1485980Y311150D03*
X1495980Y311150D03*
X1546780Y228600D03*
X1536780Y228600D03*
D18*
X1546680Y199010D03*
X1546680Y215010D03*
X1587680Y215010D03*
X1587680Y199010D03*
X1546680Y243460D03*
X1546680Y259460D03*
X1587680Y259460D03*
X1587680Y243460D03*
D19*
X1526380Y181000D03*
X1526380Y200000D03*
X1505380Y190500D03*
D20*
X1523880Y58576D03*
X1518880Y58576D03*
D21*
X1548630Y58576D03*
X1540880Y58576D03*
D20*
X1533880Y58576D03*
X1528880Y58576D03*
X1508880Y58576D03*
X1513880Y58576D03*
D21*
X1484130Y58576D03*
X1491880Y58576D03*
D20*
X1498880Y58576D03*
X1503880Y58576D03*
D10*
X1567180Y26750D03*
X1567180Y36750D03*
X1465580Y26750D03*
X1465580Y36750D03*
D22*
X1527880Y165100D03*
X1504880Y165100D03*
D23*
X1471930Y72076D03*
X1484630Y72076D03*
X1497330Y72076D03*
X1510030Y72076D03*
X1522730Y72076D03*
X1535430Y72076D03*
X1548130Y72076D03*
X1560830Y72076D03*
X1560830Y128076D03*
X1548130Y128076D03*
X1535430Y128076D03*
X1522730Y128076D03*
X1510030Y128076D03*
X1497330Y128076D03*
X1484630Y128076D03*
X1471930Y128076D03*
D10*
X1455420Y127174D03*
X1455420Y117174D03*
X1488774Y272034D03*
X1498774Y272034D03*
D12*
X1533080Y269550D02*
X1533080Y276550D01*
X1540080Y276550D01*
X1540080Y269550D01*
X1533080Y269550D01*
X1533080Y272400D02*
X1540080Y272400D01*
X1540080Y275250D02*
X1533080Y275250D01*
X1515540Y276550D02*
X1515540Y269550D01*
X1515540Y276550D02*
X1522540Y276550D01*
X1522540Y269550D01*
X1515540Y269550D01*
X1515540Y272400D02*
X1522540Y272400D01*
X1522540Y275250D02*
X1515540Y275250D01*
D24*
X1458080Y281913D03*
X1463080Y302288D03*
X1458080Y302288D03*
X1468080Y302288D03*
X1473080Y302288D03*
X1463080Y281913D03*
X1468080Y281913D03*
X1473080Y281913D03*
D25*
X1468980Y292100D03*
X1462180Y292100D03*
D10*
X1488186Y229282D03*
X1488186Y219282D03*
X1567100Y174752D03*
X1557100Y174752D03*
X1472010Y152654D03*
X1482010Y152654D03*
D26*
X1613750Y558552D03*
X1624750Y558552D03*
X1624750Y540252D03*
X1613750Y540252D03*
D10*
X1612646Y578024D03*
X1612646Y568024D03*
D27*
X1474640Y167800D03*
X1474640Y187800D03*
D28*
X1422640Y143800D03*
X1422640Y211800D03*
D11*
X1506880Y215599D03*
X1516380Y215599D03*
X1525880Y215599D03*
X1525880Y241601D03*
X1506880Y241601D03*
D29*
X1541479Y163932D03*
X1541479Y154432D03*
X1541479Y144932D03*
X1567481Y144932D03*
X1567481Y163932D03*
D30*
X1434000Y508800D03*
X1434000Y496100D03*
X1434000Y483400D03*
X1434000Y470700D03*
X1434000Y458000D03*
X1434000Y445300D03*
X1434000Y432600D03*
X1434000Y419900D03*
X1434000Y407200D03*
X1434000Y394500D03*
X1434000Y381800D03*
X1434000Y369100D03*
X1434000Y356400D03*
X1434000Y343700D03*
D31*
X1459230Y328800D03*
X1471930Y328800D03*
X1484630Y328800D03*
X1497330Y328800D03*
X1510030Y328800D03*
X1522730Y328800D03*
X1535430Y328800D03*
X1548130Y328800D03*
X1560830Y328800D03*
X1573530Y328800D03*
D30*
X1598760Y343700D03*
X1598760Y356400D03*
X1598760Y369100D03*
X1598760Y381800D03*
X1598760Y394500D03*
X1598760Y407200D03*
X1598760Y419900D03*
X1598760Y432600D03*
X1598760Y445300D03*
X1598760Y458000D03*
X1598760Y470700D03*
X1598760Y483400D03*
X1598760Y496100D03*
X1598760Y508800D03*
D32*
X1501070Y435380D03*
X1519520Y453590D03*
X1501220Y453590D03*
X1482920Y453590D03*
X1482920Y435290D03*
X1519620Y435590D03*
X1519520Y416990D03*
X1501220Y416890D03*
X1482920Y416990D03*
D10*
X132160Y1047242D03*
X142160Y1047242D03*
X119300Y1003300D03*
X109300Y1003300D03*
D11*
X174600Y1029001D03*
X165100Y1029001D03*
X155600Y1029001D03*
X155600Y1002999D03*
X174600Y1002999D03*
D10*
X157400Y1057148D03*
X147400Y1057148D03*
X109300Y1105154D03*
X119300Y1105154D03*
D12*
X97600Y968700D02*
X97600Y961700D01*
X90600Y961700D01*
X90600Y968700D01*
X97600Y968700D01*
X97600Y964550D02*
X90600Y964550D01*
X90600Y967400D02*
X97600Y967400D01*
X115140Y968700D02*
X115140Y961700D01*
X108140Y961700D01*
X108140Y968700D01*
X115140Y968700D01*
X115140Y964550D02*
X108140Y964550D01*
X108140Y967400D02*
X115140Y967400D01*
D10*
X142160Y965200D03*
X132160Y965200D03*
D13*
X156600Y990600D03*
X173600Y990600D03*
D14*
X141478Y998610D03*
X141478Y1015610D03*
D10*
X33100Y1179830D03*
X43100Y1179830D03*
X47164Y1143508D03*
X37164Y1143508D03*
D15*
X47300Y1154280D03*
X28900Y1160780D03*
X28900Y1167280D03*
X28900Y1154280D03*
X47300Y1160780D03*
X47300Y1167280D03*
D16*
X214550Y1140400D03*
X214550Y1196400D03*
D17*
X177800Y1153400D03*
X177800Y1163400D03*
X177800Y1173400D03*
X177800Y1183400D03*
D10*
X45720Y1109900D03*
X45720Y1099900D03*
X133350Y1028018D03*
X133350Y1038018D03*
D12*
X97600Y949650D02*
X97600Y942650D01*
X90600Y942650D01*
X90600Y949650D01*
X97600Y949650D01*
X97600Y945500D02*
X90600Y945500D01*
X90600Y948350D02*
X97600Y948350D01*
X115140Y949650D02*
X115140Y942650D01*
X108140Y942650D01*
X108140Y949650D01*
X115140Y949650D01*
X115140Y945500D02*
X108140Y945500D01*
X108140Y948350D02*
X115140Y948350D01*
D10*
X144700Y946150D03*
X134700Y946150D03*
X83900Y1028700D03*
X93900Y1028700D03*
D18*
X84000Y1058290D03*
X84000Y1042290D03*
X43000Y1042290D03*
X43000Y1058290D03*
X84000Y1013840D03*
X84000Y997840D03*
X43000Y997840D03*
X43000Y1013840D03*
D19*
X104300Y1076300D03*
X104300Y1057300D03*
X125300Y1066800D03*
D20*
X106800Y1198724D03*
X111800Y1198724D03*
D21*
X82050Y1198724D03*
X89800Y1198724D03*
D20*
X96800Y1198724D03*
X101800Y1198724D03*
X121800Y1198724D03*
X116800Y1198724D03*
D21*
X146550Y1198724D03*
X138800Y1198724D03*
D20*
X131800Y1198724D03*
X126800Y1198724D03*
D10*
X63500Y1230550D03*
X63500Y1220550D03*
X165100Y1230550D03*
X165100Y1220550D03*
D22*
X102800Y1092200D03*
X125800Y1092200D03*
D23*
X158750Y1185224D03*
X146050Y1185224D03*
X133350Y1185224D03*
X120650Y1185224D03*
X107950Y1185224D03*
X95250Y1185224D03*
X82550Y1185224D03*
X69850Y1185224D03*
X69850Y1129224D03*
X82550Y1129224D03*
X95250Y1129224D03*
X107950Y1129224D03*
X120650Y1129224D03*
X133350Y1129224D03*
X146050Y1129224D03*
X158750Y1129224D03*
D10*
X175260Y1130126D03*
X175260Y1140126D03*
X141906Y985266D03*
X131906Y985266D03*
D12*
X97600Y987750D02*
X97600Y980750D01*
X90600Y980750D01*
X90600Y987750D01*
X97600Y987750D01*
X97600Y983600D02*
X90600Y983600D01*
X90600Y986450D02*
X97600Y986450D01*
X115140Y987750D02*
X115140Y980750D01*
X108140Y980750D01*
X108140Y987750D01*
X115140Y987750D01*
X115140Y983600D02*
X108140Y983600D01*
X108140Y986450D02*
X115140Y986450D01*
D24*
X172600Y975388D03*
X167600Y955013D03*
X172600Y955013D03*
X162600Y955013D03*
X157600Y955013D03*
X167600Y975388D03*
X162600Y975388D03*
X157600Y975388D03*
D25*
X161700Y965200D03*
X168500Y965200D03*
D10*
X142494Y1028018D03*
X142494Y1038018D03*
X63580Y1082548D03*
X73580Y1082548D03*
X158670Y1104646D03*
X148670Y1104646D03*
D26*
X16930Y698748D03*
X5930Y698748D03*
X5930Y717048D03*
X16930Y717048D03*
D10*
X18034Y679276D03*
X18034Y689276D03*
D27*
X156040Y1089500D03*
X156040Y1069500D03*
D28*
X208040Y1113500D03*
X208040Y1045500D03*
D11*
X123800Y1041701D03*
X114300Y1041701D03*
X104800Y1041701D03*
X104800Y1015699D03*
X123800Y1015699D03*
D29*
X89201Y1093368D03*
X89201Y1102868D03*
X89201Y1112368D03*
X63199Y1112368D03*
X63199Y1093368D03*
D30*
X196680Y748500D03*
X196680Y761200D03*
X196680Y773900D03*
X196680Y786600D03*
X196680Y799300D03*
X196680Y812000D03*
X196680Y824700D03*
X196680Y837400D03*
X196680Y850100D03*
X196680Y862800D03*
X196680Y875500D03*
X196680Y888200D03*
X196680Y900900D03*
X196680Y913600D03*
D31*
X171450Y928500D03*
X158750Y928500D03*
X146050Y928500D03*
X133350Y928500D03*
X120650Y928500D03*
X107950Y928500D03*
X95250Y928500D03*
X82550Y928500D03*
X69850Y928500D03*
X57150Y928500D03*
D30*
X31920Y913600D03*
X31920Y900900D03*
X31920Y888200D03*
X31920Y875500D03*
X31920Y862800D03*
X31920Y850100D03*
X31920Y837400D03*
X31920Y824700D03*
X31920Y812000D03*
X31920Y799300D03*
X31920Y786600D03*
X31920Y773900D03*
X31920Y761200D03*
X31920Y748500D03*
D32*
X129610Y821920D03*
X111160Y803710D03*
X129460Y803710D03*
X147760Y803710D03*
X147760Y822010D03*
X111060Y821710D03*
X111160Y840310D03*
X129460Y840410D03*
X147760Y840310D03*
D10*
X365840Y1047242D03*
X375840Y1047242D03*
X352980Y1003300D03*
X342980Y1003300D03*
D11*
X408280Y1029001D03*
X398780Y1029001D03*
X389280Y1029001D03*
X389280Y1002999D03*
X408280Y1002999D03*
D10*
X391080Y1057148D03*
X381080Y1057148D03*
X342980Y1105154D03*
X352980Y1105154D03*
D12*
X331280Y968700D02*
X331280Y961700D01*
X324280Y961700D01*
X324280Y968700D01*
X331280Y968700D01*
X331280Y964550D02*
X324280Y964550D01*
X324280Y967400D02*
X331280Y967400D01*
X348820Y968700D02*
X348820Y961700D01*
X341820Y961700D01*
X341820Y968700D01*
X348820Y968700D01*
X348820Y964550D02*
X341820Y964550D01*
X341820Y967400D02*
X348820Y967400D01*
D10*
X375840Y965200D03*
X365840Y965200D03*
D13*
X390280Y990600D03*
X407280Y990600D03*
D14*
X375158Y998610D03*
X375158Y1015610D03*
D10*
X266780Y1179830D03*
X276780Y1179830D03*
X280844Y1143508D03*
X270844Y1143508D03*
D15*
X280980Y1154280D03*
X262580Y1160780D03*
X262580Y1167280D03*
X262580Y1154280D03*
X280980Y1160780D03*
X280980Y1167280D03*
D16*
X448230Y1140400D03*
X448230Y1196400D03*
D17*
X411480Y1153400D03*
X411480Y1163400D03*
X411480Y1173400D03*
X411480Y1183400D03*
D10*
X279400Y1109900D03*
X279400Y1099900D03*
X367030Y1028018D03*
X367030Y1038018D03*
D12*
X331280Y949650D02*
X331280Y942650D01*
X324280Y942650D01*
X324280Y949650D01*
X331280Y949650D01*
X331280Y945500D02*
X324280Y945500D01*
X324280Y948350D02*
X331280Y948350D01*
X348820Y949650D02*
X348820Y942650D01*
X341820Y942650D01*
X341820Y949650D01*
X348820Y949650D01*
X348820Y945500D02*
X341820Y945500D01*
X341820Y948350D02*
X348820Y948350D01*
D10*
X378380Y946150D03*
X368380Y946150D03*
X317580Y1028700D03*
X327580Y1028700D03*
D18*
X317680Y1058290D03*
X317680Y1042290D03*
X276680Y1042290D03*
X276680Y1058290D03*
X317680Y1013840D03*
X317680Y997840D03*
X276680Y997840D03*
X276680Y1013840D03*
D19*
X337980Y1076300D03*
X337980Y1057300D03*
X358980Y1066800D03*
D20*
X340480Y1198724D03*
X345480Y1198724D03*
D21*
X315730Y1198724D03*
X323480Y1198724D03*
D20*
X330480Y1198724D03*
X335480Y1198724D03*
X355480Y1198724D03*
X350480Y1198724D03*
D21*
X380230Y1198724D03*
X372480Y1198724D03*
D20*
X365480Y1198724D03*
X360480Y1198724D03*
D10*
X297180Y1230550D03*
X297180Y1220550D03*
X398780Y1230550D03*
X398780Y1220550D03*
D22*
X336480Y1092200D03*
X359480Y1092200D03*
D23*
X392430Y1185224D03*
X379730Y1185224D03*
X367030Y1185224D03*
X354330Y1185224D03*
X341630Y1185224D03*
X328930Y1185224D03*
X316230Y1185224D03*
X303530Y1185224D03*
X303530Y1129224D03*
X316230Y1129224D03*
X328930Y1129224D03*
X341630Y1129224D03*
X354330Y1129224D03*
X367030Y1129224D03*
X379730Y1129224D03*
X392430Y1129224D03*
D10*
X408940Y1130126D03*
X408940Y1140126D03*
X375586Y985266D03*
X365586Y985266D03*
D12*
X331280Y987750D02*
X331280Y980750D01*
X324280Y980750D01*
X324280Y987750D01*
X331280Y987750D01*
X331280Y983600D02*
X324280Y983600D01*
X324280Y986450D02*
X331280Y986450D01*
X348820Y987750D02*
X348820Y980750D01*
X341820Y980750D01*
X341820Y987750D01*
X348820Y987750D01*
X348820Y983600D02*
X341820Y983600D01*
X341820Y986450D02*
X348820Y986450D01*
D24*
X406280Y975388D03*
X401280Y955013D03*
X406280Y955013D03*
X396280Y955013D03*
X391280Y955013D03*
X401280Y975388D03*
X396280Y975388D03*
X391280Y975388D03*
D25*
X395380Y965200D03*
X402180Y965200D03*
D10*
X376174Y1028018D03*
X376174Y1038018D03*
X297260Y1082548D03*
X307260Y1082548D03*
X392350Y1104646D03*
X382350Y1104646D03*
D26*
X250610Y698748D03*
X239610Y698748D03*
X239610Y717048D03*
X250610Y717048D03*
D10*
X251714Y679276D03*
X251714Y689276D03*
D27*
X389720Y1089500D03*
X389720Y1069500D03*
D28*
X441720Y1113500D03*
X441720Y1045500D03*
D11*
X357480Y1041701D03*
X347980Y1041701D03*
X338480Y1041701D03*
X338480Y1015699D03*
X357480Y1015699D03*
D29*
X322881Y1093368D03*
X322881Y1102868D03*
X322881Y1112368D03*
X296879Y1112368D03*
X296879Y1093368D03*
D30*
X430360Y748500D03*
X430360Y761200D03*
X430360Y773900D03*
X430360Y786600D03*
X430360Y799300D03*
X430360Y812000D03*
X430360Y824700D03*
X430360Y837400D03*
X430360Y850100D03*
X430360Y862800D03*
X430360Y875500D03*
X430360Y888200D03*
X430360Y900900D03*
X430360Y913600D03*
D31*
X405130Y928500D03*
X392430Y928500D03*
X379730Y928500D03*
X367030Y928500D03*
X354330Y928500D03*
X341630Y928500D03*
X328930Y928500D03*
X316230Y928500D03*
X303530Y928500D03*
X290830Y928500D03*
D30*
X265600Y913600D03*
X265600Y900900D03*
X265600Y888200D03*
X265600Y875500D03*
X265600Y862800D03*
X265600Y850100D03*
X265600Y837400D03*
X265600Y824700D03*
X265600Y812000D03*
X265600Y799300D03*
X265600Y786600D03*
X265600Y773900D03*
X265600Y761200D03*
X265600Y748500D03*
D32*
X363290Y821920D03*
X344840Y803710D03*
X363140Y803710D03*
X381440Y803710D03*
X381440Y822010D03*
X344740Y821710D03*
X344840Y840310D03*
X363140Y840410D03*
X381440Y840310D03*
D10*
X599520Y1047242D03*
X609520Y1047242D03*
X586660Y1003300D03*
X576660Y1003300D03*
D11*
X641960Y1029001D03*
X632460Y1029001D03*
X622960Y1029001D03*
X622960Y1002999D03*
X641960Y1002999D03*
D10*
X624760Y1057148D03*
X614760Y1057148D03*
X576660Y1105154D03*
X586660Y1105154D03*
D12*
X564960Y968700D02*
X564960Y961700D01*
X557960Y961700D01*
X557960Y968700D01*
X564960Y968700D01*
X564960Y964550D02*
X557960Y964550D01*
X557960Y967400D02*
X564960Y967400D01*
X582500Y968700D02*
X582500Y961700D01*
X575500Y961700D01*
X575500Y968700D01*
X582500Y968700D01*
X582500Y964550D02*
X575500Y964550D01*
X575500Y967400D02*
X582500Y967400D01*
D10*
X609520Y965200D03*
X599520Y965200D03*
D13*
X623960Y990600D03*
X640960Y990600D03*
D14*
X608838Y998610D03*
X608838Y1015610D03*
D10*
X500460Y1179830D03*
X510460Y1179830D03*
X514524Y1143508D03*
X504524Y1143508D03*
D15*
X514660Y1154280D03*
X496260Y1160780D03*
X496260Y1167280D03*
X496260Y1154280D03*
X514660Y1160780D03*
X514660Y1167280D03*
D16*
X681910Y1140400D03*
X681910Y1196400D03*
D17*
X645160Y1153400D03*
X645160Y1163400D03*
X645160Y1173400D03*
X645160Y1183400D03*
D10*
X513080Y1109900D03*
X513080Y1099900D03*
X600710Y1028018D03*
X600710Y1038018D03*
D12*
X564960Y949650D02*
X564960Y942650D01*
X557960Y942650D01*
X557960Y949650D01*
X564960Y949650D01*
X564960Y945500D02*
X557960Y945500D01*
X557960Y948350D02*
X564960Y948350D01*
X582500Y949650D02*
X582500Y942650D01*
X575500Y942650D01*
X575500Y949650D01*
X582500Y949650D01*
X582500Y945500D02*
X575500Y945500D01*
X575500Y948350D02*
X582500Y948350D01*
D10*
X612060Y946150D03*
X602060Y946150D03*
X551260Y1028700D03*
X561260Y1028700D03*
D18*
X551360Y1058290D03*
X551360Y1042290D03*
X510360Y1042290D03*
X510360Y1058290D03*
X551360Y1013840D03*
X551360Y997840D03*
X510360Y997840D03*
X510360Y1013840D03*
D19*
X571660Y1076300D03*
X571660Y1057300D03*
X592660Y1066800D03*
D20*
X574160Y1198724D03*
X579160Y1198724D03*
D21*
X549410Y1198724D03*
X557160Y1198724D03*
D20*
X564160Y1198724D03*
X569160Y1198724D03*
X589160Y1198724D03*
X584160Y1198724D03*
D21*
X613910Y1198724D03*
X606160Y1198724D03*
D20*
X599160Y1198724D03*
X594160Y1198724D03*
D10*
X530860Y1230550D03*
X530860Y1220550D03*
X632460Y1230550D03*
X632460Y1220550D03*
D22*
X570160Y1092200D03*
X593160Y1092200D03*
D23*
X626110Y1185224D03*
X613410Y1185224D03*
X600710Y1185224D03*
X588010Y1185224D03*
X575310Y1185224D03*
X562610Y1185224D03*
X549910Y1185224D03*
X537210Y1185224D03*
X537210Y1129224D03*
X549910Y1129224D03*
X562610Y1129224D03*
X575310Y1129224D03*
X588010Y1129224D03*
X600710Y1129224D03*
X613410Y1129224D03*
X626110Y1129224D03*
D10*
X642620Y1130126D03*
X642620Y1140126D03*
X609266Y985266D03*
X599266Y985266D03*
D12*
X564960Y987750D02*
X564960Y980750D01*
X557960Y980750D01*
X557960Y987750D01*
X564960Y987750D01*
X564960Y983600D02*
X557960Y983600D01*
X557960Y986450D02*
X564960Y986450D01*
X582500Y987750D02*
X582500Y980750D01*
X575500Y980750D01*
X575500Y987750D01*
X582500Y987750D01*
X582500Y983600D02*
X575500Y983600D01*
X575500Y986450D02*
X582500Y986450D01*
D24*
X639960Y975388D03*
X634960Y955013D03*
X639960Y955013D03*
X629960Y955013D03*
X624960Y955013D03*
X634960Y975388D03*
X629960Y975388D03*
X624960Y975388D03*
D25*
X629060Y965200D03*
X635860Y965200D03*
D10*
X609854Y1028018D03*
X609854Y1038018D03*
X530940Y1082548D03*
X540940Y1082548D03*
X626030Y1104646D03*
X616030Y1104646D03*
D26*
X484290Y698748D03*
X473290Y698748D03*
X473290Y717048D03*
X484290Y717048D03*
D10*
X485394Y679276D03*
X485394Y689276D03*
D27*
X623400Y1089500D03*
X623400Y1069500D03*
D28*
X675400Y1113500D03*
X675400Y1045500D03*
D11*
X591160Y1041701D03*
X581660Y1041701D03*
X572160Y1041701D03*
X572160Y1015699D03*
X591160Y1015699D03*
D29*
X556561Y1093368D03*
X556561Y1102868D03*
X556561Y1112368D03*
X530559Y1112368D03*
X530559Y1093368D03*
D30*
X664040Y748500D03*
X664040Y761200D03*
X664040Y773900D03*
X664040Y786600D03*
X664040Y799300D03*
X664040Y812000D03*
X664040Y824700D03*
X664040Y837400D03*
X664040Y850100D03*
X664040Y862800D03*
X664040Y875500D03*
X664040Y888200D03*
X664040Y900900D03*
X664040Y913600D03*
D31*
X638810Y928500D03*
X626110Y928500D03*
X613410Y928500D03*
X600710Y928500D03*
X588010Y928500D03*
X575310Y928500D03*
X562610Y928500D03*
X549910Y928500D03*
X537210Y928500D03*
X524510Y928500D03*
D30*
X499280Y913600D03*
X499280Y900900D03*
X499280Y888200D03*
X499280Y875500D03*
X499280Y862800D03*
X499280Y850100D03*
X499280Y837400D03*
X499280Y824700D03*
X499280Y812000D03*
X499280Y799300D03*
X499280Y786600D03*
X499280Y773900D03*
X499280Y761200D03*
X499280Y748500D03*
D32*
X596970Y821920D03*
X578520Y803710D03*
X596820Y803710D03*
X615120Y803710D03*
X615120Y822010D03*
X578420Y821710D03*
X578520Y840310D03*
X596820Y840410D03*
X615120Y840310D03*
D10*
X833200Y1047242D03*
X843200Y1047242D03*
X820340Y1003300D03*
X810340Y1003300D03*
D11*
X875640Y1029001D03*
X866140Y1029001D03*
X856640Y1029001D03*
X856640Y1002999D03*
X875640Y1002999D03*
D10*
X858440Y1057148D03*
X848440Y1057148D03*
X810340Y1105154D03*
X820340Y1105154D03*
D12*
X798640Y968700D02*
X798640Y961700D01*
X791640Y961700D01*
X791640Y968700D01*
X798640Y968700D01*
X798640Y964550D02*
X791640Y964550D01*
X791640Y967400D02*
X798640Y967400D01*
X816180Y968700D02*
X816180Y961700D01*
X809180Y961700D01*
X809180Y968700D01*
X816180Y968700D01*
X816180Y964550D02*
X809180Y964550D01*
X809180Y967400D02*
X816180Y967400D01*
D10*
X843200Y965200D03*
X833200Y965200D03*
D13*
X857640Y990600D03*
X874640Y990600D03*
D14*
X842518Y998610D03*
X842518Y1015610D03*
D10*
X734140Y1179830D03*
X744140Y1179830D03*
X748204Y1143508D03*
X738204Y1143508D03*
D15*
X748340Y1154280D03*
X729940Y1160780D03*
X729940Y1167280D03*
X729940Y1154280D03*
X748340Y1160780D03*
X748340Y1167280D03*
D16*
X915590Y1140400D03*
X915590Y1196400D03*
D17*
X878840Y1153400D03*
X878840Y1163400D03*
X878840Y1173400D03*
X878840Y1183400D03*
D10*
X746760Y1109900D03*
X746760Y1099900D03*
X834390Y1028018D03*
X834390Y1038018D03*
D12*
X798640Y949650D02*
X798640Y942650D01*
X791640Y942650D01*
X791640Y949650D01*
X798640Y949650D01*
X798640Y945500D02*
X791640Y945500D01*
X791640Y948350D02*
X798640Y948350D01*
X816180Y949650D02*
X816180Y942650D01*
X809180Y942650D01*
X809180Y949650D01*
X816180Y949650D01*
X816180Y945500D02*
X809180Y945500D01*
X809180Y948350D02*
X816180Y948350D01*
D10*
X845740Y946150D03*
X835740Y946150D03*
X784940Y1028700D03*
X794940Y1028700D03*
D18*
X785040Y1058290D03*
X785040Y1042290D03*
X744040Y1042290D03*
X744040Y1058290D03*
X785040Y1013840D03*
X785040Y997840D03*
X744040Y997840D03*
X744040Y1013840D03*
D19*
X805340Y1076300D03*
X805340Y1057300D03*
X826340Y1066800D03*
D20*
X807840Y1198724D03*
X812840Y1198724D03*
D21*
X783090Y1198724D03*
X790840Y1198724D03*
D20*
X797840Y1198724D03*
X802840Y1198724D03*
X822840Y1198724D03*
X817840Y1198724D03*
D21*
X847590Y1198724D03*
X839840Y1198724D03*
D20*
X832840Y1198724D03*
X827840Y1198724D03*
D10*
X764540Y1230550D03*
X764540Y1220550D03*
X866140Y1230550D03*
X866140Y1220550D03*
D22*
X803840Y1092200D03*
X826840Y1092200D03*
D23*
X859790Y1185224D03*
X847090Y1185224D03*
X834390Y1185224D03*
X821690Y1185224D03*
X808990Y1185224D03*
X796290Y1185224D03*
X783590Y1185224D03*
X770890Y1185224D03*
X770890Y1129224D03*
X783590Y1129224D03*
X796290Y1129224D03*
X808990Y1129224D03*
X821690Y1129224D03*
X834390Y1129224D03*
X847090Y1129224D03*
X859790Y1129224D03*
D10*
X876300Y1130126D03*
X876300Y1140126D03*
X842946Y985266D03*
X832946Y985266D03*
D12*
X798640Y987750D02*
X798640Y980750D01*
X791640Y980750D01*
X791640Y987750D01*
X798640Y987750D01*
X798640Y983600D02*
X791640Y983600D01*
X791640Y986450D02*
X798640Y986450D01*
X816180Y987750D02*
X816180Y980750D01*
X809180Y980750D01*
X809180Y987750D01*
X816180Y987750D01*
X816180Y983600D02*
X809180Y983600D01*
X809180Y986450D02*
X816180Y986450D01*
D24*
X873640Y975388D03*
X868640Y955013D03*
X873640Y955013D03*
X863640Y955013D03*
X858640Y955013D03*
X868640Y975388D03*
X863640Y975388D03*
X858640Y975388D03*
D25*
X862740Y965200D03*
X869540Y965200D03*
D10*
X843534Y1028018D03*
X843534Y1038018D03*
X764620Y1082548D03*
X774620Y1082548D03*
X859710Y1104646D03*
X849710Y1104646D03*
D26*
X717970Y698748D03*
X706970Y698748D03*
X706970Y717048D03*
X717970Y717048D03*
D10*
X719074Y679276D03*
X719074Y689276D03*
D27*
X857080Y1089500D03*
X857080Y1069500D03*
D28*
X909080Y1113500D03*
X909080Y1045500D03*
D11*
X824840Y1041701D03*
X815340Y1041701D03*
X805840Y1041701D03*
X805840Y1015699D03*
X824840Y1015699D03*
D29*
X790241Y1093368D03*
X790241Y1102868D03*
X790241Y1112368D03*
X764239Y1112368D03*
X764239Y1093368D03*
D30*
X897720Y748500D03*
X897720Y761200D03*
X897720Y773900D03*
X897720Y786600D03*
X897720Y799300D03*
X897720Y812000D03*
X897720Y824700D03*
X897720Y837400D03*
X897720Y850100D03*
X897720Y862800D03*
X897720Y875500D03*
X897720Y888200D03*
X897720Y900900D03*
X897720Y913600D03*
D31*
X872490Y928500D03*
X859790Y928500D03*
X847090Y928500D03*
X834390Y928500D03*
X821690Y928500D03*
X808990Y928500D03*
X796290Y928500D03*
X783590Y928500D03*
X770890Y928500D03*
X758190Y928500D03*
D30*
X732960Y913600D03*
X732960Y900900D03*
X732960Y888200D03*
X732960Y875500D03*
X732960Y862800D03*
X732960Y850100D03*
X732960Y837400D03*
X732960Y824700D03*
X732960Y812000D03*
X732960Y799300D03*
X732960Y786600D03*
X732960Y773900D03*
X732960Y761200D03*
X732960Y748500D03*
D32*
X830650Y821920D03*
X812200Y803710D03*
X830500Y803710D03*
X848800Y803710D03*
X848800Y822010D03*
X812100Y821710D03*
X812200Y840310D03*
X830500Y840410D03*
X848800Y840310D03*
D10*
X1066880Y1047242D03*
X1076880Y1047242D03*
X1054020Y1003300D03*
X1044020Y1003300D03*
D11*
X1109320Y1029001D03*
X1099820Y1029001D03*
X1090320Y1029001D03*
X1090320Y1002999D03*
X1109320Y1002999D03*
D10*
X1092120Y1057148D03*
X1082120Y1057148D03*
X1044020Y1105154D03*
X1054020Y1105154D03*
D12*
X1032320Y968700D02*
X1032320Y961700D01*
X1025320Y961700D01*
X1025320Y968700D01*
X1032320Y968700D01*
X1032320Y964550D02*
X1025320Y964550D01*
X1025320Y967400D02*
X1032320Y967400D01*
X1049860Y968700D02*
X1049860Y961700D01*
X1042860Y961700D01*
X1042860Y968700D01*
X1049860Y968700D01*
X1049860Y964550D02*
X1042860Y964550D01*
X1042860Y967400D02*
X1049860Y967400D01*
D10*
X1076880Y965200D03*
X1066880Y965200D03*
D13*
X1091320Y990600D03*
X1108320Y990600D03*
D14*
X1076198Y998610D03*
X1076198Y1015610D03*
D10*
X967820Y1179830D03*
X977820Y1179830D03*
X981884Y1143508D03*
X971884Y1143508D03*
D15*
X982020Y1154280D03*
X963620Y1160780D03*
X963620Y1167280D03*
X963620Y1154280D03*
X982020Y1160780D03*
X982020Y1167280D03*
D16*
X1149270Y1140400D03*
X1149270Y1196400D03*
D17*
X1112520Y1153400D03*
X1112520Y1163400D03*
X1112520Y1173400D03*
X1112520Y1183400D03*
D10*
X980440Y1109900D03*
X980440Y1099900D03*
X1068070Y1028018D03*
X1068070Y1038018D03*
D12*
X1032320Y949650D02*
X1032320Y942650D01*
X1025320Y942650D01*
X1025320Y949650D01*
X1032320Y949650D01*
X1032320Y945500D02*
X1025320Y945500D01*
X1025320Y948350D02*
X1032320Y948350D01*
X1049860Y949650D02*
X1049860Y942650D01*
X1042860Y942650D01*
X1042860Y949650D01*
X1049860Y949650D01*
X1049860Y945500D02*
X1042860Y945500D01*
X1042860Y948350D02*
X1049860Y948350D01*
D10*
X1079420Y946150D03*
X1069420Y946150D03*
X1018620Y1028700D03*
X1028620Y1028700D03*
D18*
X1018720Y1058290D03*
X1018720Y1042290D03*
X977720Y1042290D03*
X977720Y1058290D03*
X1018720Y1013840D03*
X1018720Y997840D03*
X977720Y997840D03*
X977720Y1013840D03*
D19*
X1039020Y1076300D03*
X1039020Y1057300D03*
X1060020Y1066800D03*
D20*
X1041520Y1198724D03*
X1046520Y1198724D03*
D21*
X1016770Y1198724D03*
X1024520Y1198724D03*
D20*
X1031520Y1198724D03*
X1036520Y1198724D03*
X1056520Y1198724D03*
X1051520Y1198724D03*
D21*
X1081270Y1198724D03*
X1073520Y1198724D03*
D20*
X1066520Y1198724D03*
X1061520Y1198724D03*
D10*
X998220Y1230550D03*
X998220Y1220550D03*
X1099820Y1230550D03*
X1099820Y1220550D03*
D22*
X1037520Y1092200D03*
X1060520Y1092200D03*
D23*
X1093470Y1185224D03*
X1080770Y1185224D03*
X1068070Y1185224D03*
X1055370Y1185224D03*
X1042670Y1185224D03*
X1029970Y1185224D03*
X1017270Y1185224D03*
X1004570Y1185224D03*
X1004570Y1129224D03*
X1017270Y1129224D03*
X1029970Y1129224D03*
X1042670Y1129224D03*
X1055370Y1129224D03*
X1068070Y1129224D03*
X1080770Y1129224D03*
X1093470Y1129224D03*
D10*
X1109980Y1130126D03*
X1109980Y1140126D03*
X1076626Y985266D03*
X1066626Y985266D03*
D12*
X1032320Y987750D02*
X1032320Y980750D01*
X1025320Y980750D01*
X1025320Y987750D01*
X1032320Y987750D01*
X1032320Y983600D02*
X1025320Y983600D01*
X1025320Y986450D02*
X1032320Y986450D01*
X1049860Y987750D02*
X1049860Y980750D01*
X1042860Y980750D01*
X1042860Y987750D01*
X1049860Y987750D01*
X1049860Y983600D02*
X1042860Y983600D01*
X1042860Y986450D02*
X1049860Y986450D01*
D24*
X1107320Y975388D03*
X1102320Y955013D03*
X1107320Y955013D03*
X1097320Y955013D03*
X1092320Y955013D03*
X1102320Y975388D03*
X1097320Y975388D03*
X1092320Y975388D03*
D25*
X1096420Y965200D03*
X1103220Y965200D03*
D10*
X1077214Y1028018D03*
X1077214Y1038018D03*
X998300Y1082548D03*
X1008300Y1082548D03*
X1093390Y1104646D03*
X1083390Y1104646D03*
D26*
X951650Y698748D03*
X940650Y698748D03*
X940650Y717048D03*
X951650Y717048D03*
D10*
X952754Y679276D03*
X952754Y689276D03*
D27*
X1090760Y1089500D03*
X1090760Y1069500D03*
D28*
X1142760Y1113500D03*
X1142760Y1045500D03*
D11*
X1058520Y1041701D03*
X1049020Y1041701D03*
X1039520Y1041701D03*
X1039520Y1015699D03*
X1058520Y1015699D03*
D29*
X1023921Y1093368D03*
X1023921Y1102868D03*
X1023921Y1112368D03*
X997919Y1112368D03*
X997919Y1093368D03*
D30*
X1131400Y748500D03*
X1131400Y761200D03*
X1131400Y773900D03*
X1131400Y786600D03*
X1131400Y799300D03*
X1131400Y812000D03*
X1131400Y824700D03*
X1131400Y837400D03*
X1131400Y850100D03*
X1131400Y862800D03*
X1131400Y875500D03*
X1131400Y888200D03*
X1131400Y900900D03*
X1131400Y913600D03*
D31*
X1106170Y928500D03*
X1093470Y928500D03*
X1080770Y928500D03*
X1068070Y928500D03*
X1055370Y928500D03*
X1042670Y928500D03*
X1029970Y928500D03*
X1017270Y928500D03*
X1004570Y928500D03*
X991870Y928500D03*
D30*
X966640Y913600D03*
X966640Y900900D03*
X966640Y888200D03*
X966640Y875500D03*
X966640Y862800D03*
X966640Y850100D03*
X966640Y837400D03*
X966640Y824700D03*
X966640Y812000D03*
X966640Y799300D03*
X966640Y786600D03*
X966640Y773900D03*
X966640Y761200D03*
X966640Y748500D03*
D32*
X1064330Y821920D03*
X1045880Y803710D03*
X1064180Y803710D03*
X1082480Y803710D03*
X1082480Y822010D03*
X1045780Y821710D03*
X1045880Y840310D03*
X1064180Y840410D03*
X1082480Y840310D03*
D10*
X1300560Y1047242D03*
X1310560Y1047242D03*
X1287700Y1003300D03*
X1277700Y1003300D03*
D11*
X1343000Y1029001D03*
X1333500Y1029001D03*
X1324000Y1029001D03*
X1324000Y1002999D03*
X1343000Y1002999D03*
D10*
X1325800Y1057148D03*
X1315800Y1057148D03*
X1277700Y1105154D03*
X1287700Y1105154D03*
D12*
X1266000Y968700D02*
X1266000Y961700D01*
X1259000Y961700D01*
X1259000Y968700D01*
X1266000Y968700D01*
X1266000Y964550D02*
X1259000Y964550D01*
X1259000Y967400D02*
X1266000Y967400D01*
X1283540Y968700D02*
X1283540Y961700D01*
X1276540Y961700D01*
X1276540Y968700D01*
X1283540Y968700D01*
X1283540Y964550D02*
X1276540Y964550D01*
X1276540Y967400D02*
X1283540Y967400D01*
D10*
X1310560Y965200D03*
X1300560Y965200D03*
D13*
X1325000Y990600D03*
X1342000Y990600D03*
D14*
X1309878Y998610D03*
X1309878Y1015610D03*
D10*
X1201500Y1179830D03*
X1211500Y1179830D03*
X1215564Y1143508D03*
X1205564Y1143508D03*
D15*
X1215700Y1154280D03*
X1197300Y1160780D03*
X1197300Y1167280D03*
X1197300Y1154280D03*
X1215700Y1160780D03*
X1215700Y1167280D03*
D16*
X1382950Y1140400D03*
X1382950Y1196400D03*
D17*
X1346200Y1153400D03*
X1346200Y1163400D03*
X1346200Y1173400D03*
X1346200Y1183400D03*
D10*
X1214120Y1109900D03*
X1214120Y1099900D03*
X1301750Y1028018D03*
X1301750Y1038018D03*
D12*
X1266000Y949650D02*
X1266000Y942650D01*
X1259000Y942650D01*
X1259000Y949650D01*
X1266000Y949650D01*
X1266000Y945500D02*
X1259000Y945500D01*
X1259000Y948350D02*
X1266000Y948350D01*
X1283540Y949650D02*
X1283540Y942650D01*
X1276540Y942650D01*
X1276540Y949650D01*
X1283540Y949650D01*
X1283540Y945500D02*
X1276540Y945500D01*
X1276540Y948350D02*
X1283540Y948350D01*
D10*
X1313100Y946150D03*
X1303100Y946150D03*
X1252300Y1028700D03*
X1262300Y1028700D03*
D18*
X1252400Y1058290D03*
X1252400Y1042290D03*
X1211400Y1042290D03*
X1211400Y1058290D03*
X1252400Y1013840D03*
X1252400Y997840D03*
X1211400Y997840D03*
X1211400Y1013840D03*
D19*
X1272700Y1076300D03*
X1272700Y1057300D03*
X1293700Y1066800D03*
D20*
X1275200Y1198724D03*
X1280200Y1198724D03*
D21*
X1250450Y1198724D03*
X1258200Y1198724D03*
D20*
X1265200Y1198724D03*
X1270200Y1198724D03*
X1290200Y1198724D03*
X1285200Y1198724D03*
D21*
X1314950Y1198724D03*
X1307200Y1198724D03*
D20*
X1300200Y1198724D03*
X1295200Y1198724D03*
D10*
X1231900Y1230550D03*
X1231900Y1220550D03*
X1333500Y1230550D03*
X1333500Y1220550D03*
D22*
X1271200Y1092200D03*
X1294200Y1092200D03*
D23*
X1327150Y1185224D03*
X1314450Y1185224D03*
X1301750Y1185224D03*
X1289050Y1185224D03*
X1276350Y1185224D03*
X1263650Y1185224D03*
X1250950Y1185224D03*
X1238250Y1185224D03*
X1238250Y1129224D03*
X1250950Y1129224D03*
X1263650Y1129224D03*
X1276350Y1129224D03*
X1289050Y1129224D03*
X1301750Y1129224D03*
X1314450Y1129224D03*
X1327150Y1129224D03*
D10*
X1343660Y1130126D03*
X1343660Y1140126D03*
X1310306Y985266D03*
X1300306Y985266D03*
D12*
X1266000Y987750D02*
X1266000Y980750D01*
X1259000Y980750D01*
X1259000Y987750D01*
X1266000Y987750D01*
X1266000Y983600D02*
X1259000Y983600D01*
X1259000Y986450D02*
X1266000Y986450D01*
X1283540Y987750D02*
X1283540Y980750D01*
X1276540Y980750D01*
X1276540Y987750D01*
X1283540Y987750D01*
X1283540Y983600D02*
X1276540Y983600D01*
X1276540Y986450D02*
X1283540Y986450D01*
D24*
X1341000Y975388D03*
X1336000Y955013D03*
X1341000Y955013D03*
X1331000Y955013D03*
X1326000Y955013D03*
X1336000Y975388D03*
X1331000Y975388D03*
X1326000Y975388D03*
D25*
X1330100Y965200D03*
X1336900Y965200D03*
D10*
X1310894Y1028018D03*
X1310894Y1038018D03*
X1231980Y1082548D03*
X1241980Y1082548D03*
X1327070Y1104646D03*
X1317070Y1104646D03*
D26*
X1185330Y698748D03*
X1174330Y698748D03*
X1174330Y717048D03*
X1185330Y717048D03*
D10*
X1186434Y679276D03*
X1186434Y689276D03*
D27*
X1324440Y1089500D03*
X1324440Y1069500D03*
D28*
X1376440Y1113500D03*
X1376440Y1045500D03*
D11*
X1292200Y1041701D03*
X1282700Y1041701D03*
X1273200Y1041701D03*
X1273200Y1015699D03*
X1292200Y1015699D03*
D29*
X1257601Y1093368D03*
X1257601Y1102868D03*
X1257601Y1112368D03*
X1231599Y1112368D03*
X1231599Y1093368D03*
D30*
X1365080Y748500D03*
X1365080Y761200D03*
X1365080Y773900D03*
X1365080Y786600D03*
X1365080Y799300D03*
X1365080Y812000D03*
X1365080Y824700D03*
X1365080Y837400D03*
X1365080Y850100D03*
X1365080Y862800D03*
X1365080Y875500D03*
X1365080Y888200D03*
X1365080Y900900D03*
X1365080Y913600D03*
D31*
X1339850Y928500D03*
X1327150Y928500D03*
X1314450Y928500D03*
X1301750Y928500D03*
X1289050Y928500D03*
X1276350Y928500D03*
X1263650Y928500D03*
X1250950Y928500D03*
X1238250Y928500D03*
X1225550Y928500D03*
D30*
X1200320Y913600D03*
X1200320Y900900D03*
X1200320Y888200D03*
X1200320Y875500D03*
X1200320Y862800D03*
X1200320Y850100D03*
X1200320Y837400D03*
X1200320Y824700D03*
X1200320Y812000D03*
X1200320Y799300D03*
X1200320Y786600D03*
X1200320Y773900D03*
X1200320Y761200D03*
X1200320Y748500D03*
D32*
X1298010Y821920D03*
X1279560Y803710D03*
X1297860Y803710D03*
X1316160Y803710D03*
X1316160Y822010D03*
X1279460Y821710D03*
X1279560Y840310D03*
X1297860Y840410D03*
X1316160Y840310D03*
D10*
X1534240Y1047242D03*
X1544240Y1047242D03*
X1521380Y1003300D03*
X1511380Y1003300D03*
D11*
X1576680Y1029001D03*
X1567180Y1029001D03*
X1557680Y1029001D03*
X1557680Y1002999D03*
X1576680Y1002999D03*
D10*
X1559480Y1057148D03*
X1549480Y1057148D03*
X1511380Y1105154D03*
X1521380Y1105154D03*
D12*
X1499680Y968700D02*
X1499680Y961700D01*
X1492680Y961700D01*
X1492680Y968700D01*
X1499680Y968700D01*
X1499680Y964550D02*
X1492680Y964550D01*
X1492680Y967400D02*
X1499680Y967400D01*
X1517220Y968700D02*
X1517220Y961700D01*
X1510220Y961700D01*
X1510220Y968700D01*
X1517220Y968700D01*
X1517220Y964550D02*
X1510220Y964550D01*
X1510220Y967400D02*
X1517220Y967400D01*
D10*
X1544240Y965200D03*
X1534240Y965200D03*
D13*
X1558680Y990600D03*
X1575680Y990600D03*
D14*
X1543558Y998610D03*
X1543558Y1015610D03*
D10*
X1435180Y1179830D03*
X1445180Y1179830D03*
X1449244Y1143508D03*
X1439244Y1143508D03*
D15*
X1449380Y1154280D03*
X1430980Y1160780D03*
X1430980Y1167280D03*
X1430980Y1154280D03*
X1449380Y1160780D03*
X1449380Y1167280D03*
D16*
X1616630Y1140400D03*
X1616630Y1196400D03*
D17*
X1579880Y1153400D03*
X1579880Y1163400D03*
X1579880Y1173400D03*
X1579880Y1183400D03*
D10*
X1447800Y1109900D03*
X1447800Y1099900D03*
X1535430Y1028018D03*
X1535430Y1038018D03*
D12*
X1499680Y949650D02*
X1499680Y942650D01*
X1492680Y942650D01*
X1492680Y949650D01*
X1499680Y949650D01*
X1499680Y945500D02*
X1492680Y945500D01*
X1492680Y948350D02*
X1499680Y948350D01*
X1517220Y949650D02*
X1517220Y942650D01*
X1510220Y942650D01*
X1510220Y949650D01*
X1517220Y949650D01*
X1517220Y945500D02*
X1510220Y945500D01*
X1510220Y948350D02*
X1517220Y948350D01*
D10*
X1546780Y946150D03*
X1536780Y946150D03*
X1485980Y1028700D03*
X1495980Y1028700D03*
D18*
X1486080Y1058290D03*
X1486080Y1042290D03*
X1445080Y1042290D03*
X1445080Y1058290D03*
X1486080Y1013840D03*
X1486080Y997840D03*
X1445080Y997840D03*
X1445080Y1013840D03*
D19*
X1506380Y1076300D03*
X1506380Y1057300D03*
X1527380Y1066800D03*
D20*
X1508880Y1198724D03*
X1513880Y1198724D03*
D21*
X1484130Y1198724D03*
X1491880Y1198724D03*
D20*
X1498880Y1198724D03*
X1503880Y1198724D03*
X1523880Y1198724D03*
X1518880Y1198724D03*
D21*
X1548630Y1198724D03*
X1540880Y1198724D03*
D20*
X1533880Y1198724D03*
X1528880Y1198724D03*
D10*
X1465580Y1230550D03*
X1465580Y1220550D03*
X1567180Y1230550D03*
X1567180Y1220550D03*
D22*
X1504880Y1092200D03*
X1527880Y1092200D03*
D23*
X1560830Y1185224D03*
X1548130Y1185224D03*
X1535430Y1185224D03*
X1522730Y1185224D03*
X1510030Y1185224D03*
X1497330Y1185224D03*
X1484630Y1185224D03*
X1471930Y1185224D03*
X1471930Y1129224D03*
X1484630Y1129224D03*
X1497330Y1129224D03*
X1510030Y1129224D03*
X1522730Y1129224D03*
X1535430Y1129224D03*
X1548130Y1129224D03*
X1560830Y1129224D03*
D10*
X1577340Y1130126D03*
X1577340Y1140126D03*
X1543986Y985266D03*
X1533986Y985266D03*
D12*
X1499680Y987750D02*
X1499680Y980750D01*
X1492680Y980750D01*
X1492680Y987750D01*
X1499680Y987750D01*
X1499680Y983600D02*
X1492680Y983600D01*
X1492680Y986450D02*
X1499680Y986450D01*
X1517220Y987750D02*
X1517220Y980750D01*
X1510220Y980750D01*
X1510220Y987750D01*
X1517220Y987750D01*
X1517220Y983600D02*
X1510220Y983600D01*
X1510220Y986450D02*
X1517220Y986450D01*
D24*
X1574680Y975388D03*
X1569680Y955013D03*
X1574680Y955013D03*
X1564680Y955013D03*
X1559680Y955013D03*
X1569680Y975388D03*
X1564680Y975388D03*
X1559680Y975388D03*
D25*
X1563780Y965200D03*
X1570580Y965200D03*
D10*
X1544574Y1028018D03*
X1544574Y1038018D03*
X1465660Y1082548D03*
X1475660Y1082548D03*
X1560750Y1104646D03*
X1550750Y1104646D03*
D26*
X1419010Y698748D03*
X1408010Y698748D03*
X1408010Y717048D03*
X1419010Y717048D03*
D10*
X1420114Y679276D03*
X1420114Y689276D03*
D27*
X1558120Y1089500D03*
X1558120Y1069500D03*
D28*
X1610120Y1113500D03*
X1610120Y1045500D03*
D11*
X1525880Y1041701D03*
X1516380Y1041701D03*
X1506880Y1041701D03*
X1506880Y1015699D03*
X1525880Y1015699D03*
D29*
X1491281Y1093368D03*
X1491281Y1102868D03*
X1491281Y1112368D03*
X1465279Y1112368D03*
X1465279Y1093368D03*
D30*
X1598760Y748500D03*
X1598760Y761200D03*
X1598760Y773900D03*
X1598760Y786600D03*
X1598760Y799300D03*
X1598760Y812000D03*
X1598760Y824700D03*
X1598760Y837400D03*
X1598760Y850100D03*
X1598760Y862800D03*
X1598760Y875500D03*
X1598760Y888200D03*
X1598760Y900900D03*
X1598760Y913600D03*
D31*
X1573530Y928500D03*
X1560830Y928500D03*
X1548130Y928500D03*
X1535430Y928500D03*
X1522730Y928500D03*
X1510030Y928500D03*
X1497330Y928500D03*
X1484630Y928500D03*
X1471930Y928500D03*
X1459230Y928500D03*
D30*
X1434000Y913600D03*
X1434000Y900900D03*
X1434000Y888200D03*
X1434000Y875500D03*
X1434000Y862800D03*
X1434000Y850100D03*
X1434000Y837400D03*
X1434000Y824700D03*
X1434000Y812000D03*
X1434000Y799300D03*
X1434000Y786600D03*
X1434000Y773900D03*
X1434000Y761200D03*
X1434000Y748500D03*
D32*
X1531690Y821920D03*
X1513240Y803710D03*
X1531540Y803710D03*
X1549840Y803710D03*
X1549840Y822010D03*
X1513140Y821710D03*
X1513240Y840310D03*
X1531540Y840410D03*
X1549840Y840310D03*
M02*
