G04 EAGLE Gerber RS-274X export*
G75*
%MOMM*%
%FSLAX34Y34*%
%LPD*%
%INSoldermask Top*%
%IPPOS*%
%AMOC8*
5,1,8,0,0,1.08239X$1,22.5*%
G01*
%ADD10R,0.803200X0.803200*%
%ADD11R,0.753200X1.403200*%
%ADD12C,0.505344*%
%ADD13R,1.303200X1.203200*%
%ADD14R,1.203200X1.303200*%
%ADD15R,0.863200X0.503200*%
%ADD16R,2.203200X1.403200*%
%ADD17R,1.553200X0.803200*%
%ADD18C,0.838200*%
%ADD19C,3.251200*%
%ADD20R,1.103200X1.203200*%
%ADD21R,1.103200X1.003200*%
%ADD22R,0.503200X1.203200*%
%ADD23R,0.803200X1.203200*%
%ADD24C,0.853200*%
%ADD25R,0.833200X1.033200*%
%ADD26R,0.803200X1.403200*%
%ADD27R,0.440000X0.840000*%
%ADD28R,1.520000X0.940000*%
%ADD29R,0.903200X0.903200*%
%ADD30R,4.803200X1.203200*%
%ADD31R,3.603200X1.803200*%
%ADD32R,1.403200X0.753200*%
%ADD33R,1.703200X1.103200*%
%ADD34R,1.103200X1.703200*%
%ADD35R,1.533200X1.533200*%
%ADD36C,2.082800*%
%ADD37C,1.203200*%
%ADD38C,1.270000*%
%ADD39C,1.703200*%

G36*
X539744Y1296119D02*
X539744Y1296119D01*
X539750Y1296125D01*
X539755Y1296121D01*
X540985Y1296486D01*
X540990Y1296493D01*
X540995Y1296491D01*
X542114Y1297121D01*
X542117Y1297128D01*
X542123Y1297127D01*
X543073Y1297990D01*
X543074Y1297998D01*
X543080Y1297998D01*
X543814Y1299051D01*
X543814Y1299059D01*
X543819Y1299061D01*
X544301Y1300251D01*
X544299Y1300256D01*
X544303Y1300259D01*
X544302Y1300260D01*
X544304Y1300261D01*
X544509Y1301528D01*
X544506Y1301533D01*
X544509Y1301536D01*
X544509Y1313536D01*
X544506Y1313540D01*
X544509Y1313543D01*
X544354Y1314665D01*
X544349Y1314670D01*
X544352Y1314674D01*
X543981Y1315745D01*
X543975Y1315749D01*
X543977Y1315754D01*
X543404Y1316731D01*
X543398Y1316734D01*
X543399Y1316739D01*
X542646Y1317586D01*
X542639Y1317588D01*
X542639Y1317593D01*
X541736Y1318277D01*
X541729Y1318277D01*
X541728Y1318282D01*
X540709Y1318777D01*
X540702Y1318775D01*
X540700Y1318780D01*
X539603Y1319067D01*
X539597Y1319064D01*
X539594Y1319068D01*
X538463Y1319135D01*
X538457Y1319135D01*
X537326Y1319068D01*
X537321Y1319063D01*
X537317Y1319067D01*
X536220Y1318780D01*
X536216Y1318774D01*
X536211Y1318777D01*
X535192Y1318282D01*
X535189Y1318276D01*
X535184Y1318277D01*
X534281Y1317593D01*
X534279Y1317586D01*
X534274Y1317586D01*
X533521Y1316739D01*
X533521Y1316732D01*
X533516Y1316731D01*
X532943Y1315754D01*
X532944Y1315751D01*
X532943Y1315750D01*
X532944Y1315749D01*
X532944Y1315747D01*
X532939Y1315745D01*
X532568Y1314674D01*
X532570Y1314669D01*
X532567Y1314667D01*
X532567Y1314666D01*
X532566Y1314665D01*
X532411Y1313543D01*
X532414Y1313538D01*
X532411Y1313536D01*
X532411Y1301536D01*
X532414Y1301531D01*
X532411Y1301528D01*
X532616Y1300261D01*
X532622Y1300255D01*
X532619Y1300251D01*
X533101Y1299061D01*
X533108Y1299057D01*
X533106Y1299051D01*
X533840Y1297998D01*
X533848Y1297996D01*
X533847Y1297990D01*
X534797Y1297127D01*
X534806Y1297126D01*
X534806Y1297121D01*
X535925Y1296491D01*
X535933Y1296492D01*
X535935Y1296486D01*
X537165Y1296121D01*
X537173Y1296124D01*
X537176Y1296119D01*
X538457Y1296037D01*
X538461Y1296040D01*
X538463Y1296037D01*
X539744Y1296119D01*
G37*
G36*
X72384Y1296119D02*
X72384Y1296119D01*
X72390Y1296125D01*
X72395Y1296121D01*
X73625Y1296486D01*
X73630Y1296493D01*
X73635Y1296491D01*
X74754Y1297121D01*
X74757Y1297128D01*
X74763Y1297127D01*
X75713Y1297990D01*
X75714Y1297998D01*
X75720Y1297998D01*
X76454Y1299051D01*
X76454Y1299059D01*
X76459Y1299061D01*
X76941Y1300251D01*
X76939Y1300256D01*
X76943Y1300259D01*
X76942Y1300260D01*
X76944Y1300261D01*
X77149Y1301528D01*
X77146Y1301533D01*
X77149Y1301536D01*
X77149Y1313536D01*
X77146Y1313540D01*
X77149Y1313543D01*
X76994Y1314665D01*
X76989Y1314670D01*
X76992Y1314674D01*
X76621Y1315745D01*
X76615Y1315749D01*
X76617Y1315754D01*
X76044Y1316731D01*
X76038Y1316734D01*
X76039Y1316739D01*
X75286Y1317586D01*
X75279Y1317588D01*
X75279Y1317593D01*
X74376Y1318277D01*
X74369Y1318277D01*
X74368Y1318282D01*
X73349Y1318777D01*
X73342Y1318775D01*
X73340Y1318780D01*
X72243Y1319067D01*
X72237Y1319064D01*
X72234Y1319068D01*
X71103Y1319135D01*
X71097Y1319135D01*
X69966Y1319068D01*
X69961Y1319063D01*
X69957Y1319067D01*
X68860Y1318780D01*
X68856Y1318774D01*
X68851Y1318777D01*
X67832Y1318282D01*
X67829Y1318276D01*
X67824Y1318277D01*
X66921Y1317593D01*
X66919Y1317586D01*
X66914Y1317586D01*
X66161Y1316739D01*
X66161Y1316732D01*
X66156Y1316731D01*
X65583Y1315754D01*
X65584Y1315751D01*
X65583Y1315750D01*
X65584Y1315749D01*
X65584Y1315747D01*
X65579Y1315745D01*
X65208Y1314674D01*
X65210Y1314669D01*
X65207Y1314667D01*
X65207Y1314666D01*
X65206Y1314665D01*
X65051Y1313543D01*
X65054Y1313538D01*
X65051Y1313536D01*
X65051Y1301536D01*
X65054Y1301531D01*
X65051Y1301528D01*
X65256Y1300261D01*
X65262Y1300255D01*
X65259Y1300251D01*
X65741Y1299061D01*
X65748Y1299057D01*
X65746Y1299051D01*
X66480Y1297998D01*
X66488Y1297996D01*
X66487Y1297990D01*
X67437Y1297127D01*
X67446Y1297126D01*
X67446Y1297121D01*
X68565Y1296491D01*
X68573Y1296492D01*
X68575Y1296486D01*
X69805Y1296121D01*
X69813Y1296124D01*
X69816Y1296119D01*
X71097Y1296037D01*
X71101Y1296040D01*
X71103Y1296037D01*
X72384Y1296119D01*
G37*
G36*
X306064Y1296119D02*
X306064Y1296119D01*
X306070Y1296125D01*
X306075Y1296121D01*
X307305Y1296486D01*
X307310Y1296493D01*
X307315Y1296491D01*
X308434Y1297121D01*
X308437Y1297128D01*
X308443Y1297127D01*
X309393Y1297990D01*
X309394Y1297998D01*
X309400Y1297998D01*
X310134Y1299051D01*
X310134Y1299059D01*
X310139Y1299061D01*
X310621Y1300251D01*
X310619Y1300256D01*
X310623Y1300259D01*
X310622Y1300260D01*
X310624Y1300261D01*
X310829Y1301528D01*
X310826Y1301533D01*
X310829Y1301536D01*
X310829Y1313536D01*
X310826Y1313540D01*
X310829Y1313543D01*
X310674Y1314665D01*
X310669Y1314670D01*
X310672Y1314674D01*
X310301Y1315745D01*
X310295Y1315749D01*
X310297Y1315754D01*
X309724Y1316731D01*
X309718Y1316734D01*
X309719Y1316739D01*
X308966Y1317586D01*
X308959Y1317588D01*
X308959Y1317593D01*
X308056Y1318277D01*
X308049Y1318277D01*
X308048Y1318282D01*
X307029Y1318777D01*
X307022Y1318775D01*
X307020Y1318780D01*
X305923Y1319067D01*
X305917Y1319064D01*
X305914Y1319068D01*
X304783Y1319135D01*
X304777Y1319135D01*
X303646Y1319068D01*
X303641Y1319063D01*
X303637Y1319067D01*
X302540Y1318780D01*
X302536Y1318774D01*
X302531Y1318777D01*
X301512Y1318282D01*
X301509Y1318276D01*
X301504Y1318277D01*
X300601Y1317593D01*
X300599Y1317586D01*
X300594Y1317586D01*
X299841Y1316739D01*
X299841Y1316732D01*
X299836Y1316731D01*
X299263Y1315754D01*
X299264Y1315751D01*
X299263Y1315750D01*
X299264Y1315749D01*
X299264Y1315747D01*
X299259Y1315745D01*
X298888Y1314674D01*
X298890Y1314669D01*
X298887Y1314667D01*
X298887Y1314666D01*
X298886Y1314665D01*
X298731Y1313543D01*
X298734Y1313538D01*
X298731Y1313536D01*
X298731Y1301536D01*
X298734Y1301531D01*
X298731Y1301528D01*
X298936Y1300261D01*
X298942Y1300255D01*
X298939Y1300251D01*
X299421Y1299061D01*
X299428Y1299057D01*
X299426Y1299051D01*
X300160Y1297998D01*
X300168Y1297996D01*
X300167Y1297990D01*
X301117Y1297127D01*
X301126Y1297126D01*
X301126Y1297121D01*
X302245Y1296491D01*
X302253Y1296492D01*
X302255Y1296486D01*
X303485Y1296121D01*
X303493Y1296124D01*
X303496Y1296119D01*
X304777Y1296037D01*
X304781Y1296040D01*
X304783Y1296037D01*
X306064Y1296119D01*
G37*
G36*
X158784Y1296119D02*
X158784Y1296119D01*
X158790Y1296125D01*
X158795Y1296121D01*
X160025Y1296486D01*
X160030Y1296493D01*
X160035Y1296491D01*
X161154Y1297121D01*
X161157Y1297128D01*
X161163Y1297127D01*
X162113Y1297990D01*
X162114Y1297998D01*
X162120Y1297998D01*
X162854Y1299051D01*
X162854Y1299059D01*
X162859Y1299061D01*
X163341Y1300251D01*
X163339Y1300256D01*
X163343Y1300259D01*
X163342Y1300260D01*
X163344Y1300261D01*
X163549Y1301528D01*
X163546Y1301533D01*
X163549Y1301536D01*
X163549Y1313536D01*
X163546Y1313540D01*
X163549Y1313543D01*
X163394Y1314665D01*
X163389Y1314670D01*
X163392Y1314674D01*
X163021Y1315745D01*
X163015Y1315749D01*
X163017Y1315754D01*
X162444Y1316731D01*
X162438Y1316734D01*
X162439Y1316739D01*
X161686Y1317586D01*
X161679Y1317588D01*
X161679Y1317593D01*
X160776Y1318277D01*
X160769Y1318277D01*
X160768Y1318282D01*
X159749Y1318777D01*
X159742Y1318775D01*
X159740Y1318780D01*
X158643Y1319067D01*
X158637Y1319064D01*
X158634Y1319068D01*
X157503Y1319135D01*
X157497Y1319135D01*
X156366Y1319068D01*
X156361Y1319063D01*
X156357Y1319067D01*
X155260Y1318780D01*
X155256Y1318774D01*
X155251Y1318777D01*
X154232Y1318282D01*
X154229Y1318276D01*
X154224Y1318277D01*
X153321Y1317593D01*
X153319Y1317586D01*
X153314Y1317586D01*
X152561Y1316739D01*
X152561Y1316732D01*
X152556Y1316731D01*
X151983Y1315754D01*
X151984Y1315751D01*
X151983Y1315750D01*
X151984Y1315749D01*
X151984Y1315747D01*
X151979Y1315745D01*
X151608Y1314674D01*
X151610Y1314669D01*
X151607Y1314667D01*
X151607Y1314666D01*
X151606Y1314665D01*
X151451Y1313543D01*
X151454Y1313538D01*
X151451Y1313536D01*
X151451Y1301536D01*
X151454Y1301531D01*
X151451Y1301528D01*
X151656Y1300261D01*
X151662Y1300255D01*
X151659Y1300251D01*
X152141Y1299061D01*
X152148Y1299057D01*
X152146Y1299051D01*
X152880Y1297998D01*
X152888Y1297996D01*
X152887Y1297990D01*
X153837Y1297127D01*
X153846Y1297126D01*
X153846Y1297121D01*
X154965Y1296491D01*
X154973Y1296492D01*
X154975Y1296486D01*
X156205Y1296121D01*
X156213Y1296124D01*
X156216Y1296119D01*
X157497Y1296037D01*
X157501Y1296040D01*
X157503Y1296037D01*
X158784Y1296119D01*
G37*
G36*
X392464Y1296119D02*
X392464Y1296119D01*
X392470Y1296125D01*
X392475Y1296121D01*
X393705Y1296486D01*
X393710Y1296493D01*
X393715Y1296491D01*
X394834Y1297121D01*
X394837Y1297128D01*
X394843Y1297127D01*
X395793Y1297990D01*
X395794Y1297998D01*
X395800Y1297998D01*
X396534Y1299051D01*
X396534Y1299059D01*
X396539Y1299061D01*
X397021Y1300251D01*
X397019Y1300256D01*
X397023Y1300259D01*
X397022Y1300260D01*
X397024Y1300261D01*
X397229Y1301528D01*
X397226Y1301533D01*
X397229Y1301536D01*
X397229Y1313536D01*
X397226Y1313540D01*
X397229Y1313543D01*
X397074Y1314665D01*
X397069Y1314670D01*
X397072Y1314674D01*
X396701Y1315745D01*
X396695Y1315749D01*
X396697Y1315754D01*
X396124Y1316731D01*
X396118Y1316734D01*
X396119Y1316739D01*
X395366Y1317586D01*
X395359Y1317588D01*
X395359Y1317593D01*
X394456Y1318277D01*
X394449Y1318277D01*
X394448Y1318282D01*
X393429Y1318777D01*
X393422Y1318775D01*
X393420Y1318780D01*
X392323Y1319067D01*
X392317Y1319064D01*
X392314Y1319068D01*
X391183Y1319135D01*
X391177Y1319135D01*
X390046Y1319068D01*
X390041Y1319063D01*
X390037Y1319067D01*
X388940Y1318780D01*
X388936Y1318774D01*
X388931Y1318777D01*
X387912Y1318282D01*
X387909Y1318276D01*
X387904Y1318277D01*
X387001Y1317593D01*
X386999Y1317586D01*
X386994Y1317586D01*
X386241Y1316739D01*
X386241Y1316732D01*
X386236Y1316731D01*
X385663Y1315754D01*
X385664Y1315751D01*
X385663Y1315750D01*
X385664Y1315749D01*
X385664Y1315747D01*
X385659Y1315745D01*
X385288Y1314674D01*
X385290Y1314669D01*
X385287Y1314667D01*
X385287Y1314666D01*
X385286Y1314665D01*
X385131Y1313543D01*
X385134Y1313538D01*
X385131Y1313536D01*
X385131Y1301536D01*
X385134Y1301531D01*
X385131Y1301528D01*
X385336Y1300261D01*
X385342Y1300255D01*
X385339Y1300251D01*
X385821Y1299061D01*
X385828Y1299057D01*
X385826Y1299051D01*
X386560Y1297998D01*
X386568Y1297996D01*
X386567Y1297990D01*
X387517Y1297127D01*
X387526Y1297126D01*
X387526Y1297121D01*
X388645Y1296491D01*
X388653Y1296492D01*
X388655Y1296486D01*
X389885Y1296121D01*
X389893Y1296124D01*
X389896Y1296119D01*
X391177Y1296037D01*
X391181Y1296040D01*
X391183Y1296037D01*
X392464Y1296119D01*
G37*
G36*
X626144Y1296119D02*
X626144Y1296119D01*
X626150Y1296125D01*
X626155Y1296121D01*
X627385Y1296486D01*
X627390Y1296493D01*
X627395Y1296491D01*
X628514Y1297121D01*
X628517Y1297128D01*
X628523Y1297127D01*
X629473Y1297990D01*
X629474Y1297998D01*
X629480Y1297998D01*
X630214Y1299051D01*
X630214Y1299059D01*
X630219Y1299061D01*
X630701Y1300251D01*
X630699Y1300256D01*
X630703Y1300259D01*
X630702Y1300260D01*
X630704Y1300261D01*
X630909Y1301528D01*
X630906Y1301533D01*
X630909Y1301536D01*
X630909Y1313536D01*
X630906Y1313540D01*
X630909Y1313543D01*
X630754Y1314665D01*
X630749Y1314670D01*
X630752Y1314674D01*
X630381Y1315745D01*
X630375Y1315749D01*
X630377Y1315754D01*
X629804Y1316731D01*
X629798Y1316734D01*
X629799Y1316739D01*
X629046Y1317586D01*
X629039Y1317588D01*
X629039Y1317593D01*
X628136Y1318277D01*
X628129Y1318277D01*
X628128Y1318282D01*
X627109Y1318777D01*
X627102Y1318775D01*
X627100Y1318780D01*
X626003Y1319067D01*
X625997Y1319064D01*
X625994Y1319068D01*
X624863Y1319135D01*
X624857Y1319135D01*
X623726Y1319068D01*
X623721Y1319063D01*
X623717Y1319067D01*
X622620Y1318780D01*
X622616Y1318774D01*
X622611Y1318777D01*
X621592Y1318282D01*
X621589Y1318276D01*
X621584Y1318277D01*
X620681Y1317593D01*
X620679Y1317586D01*
X620674Y1317586D01*
X619921Y1316739D01*
X619921Y1316732D01*
X619916Y1316731D01*
X619343Y1315754D01*
X619344Y1315751D01*
X619343Y1315750D01*
X619344Y1315749D01*
X619344Y1315747D01*
X619339Y1315745D01*
X618968Y1314674D01*
X618970Y1314669D01*
X618967Y1314667D01*
X618967Y1314666D01*
X618966Y1314665D01*
X618811Y1313543D01*
X618814Y1313538D01*
X618811Y1313536D01*
X618811Y1301536D01*
X618814Y1301531D01*
X618811Y1301528D01*
X619016Y1300261D01*
X619022Y1300255D01*
X619019Y1300251D01*
X619501Y1299061D01*
X619508Y1299057D01*
X619506Y1299051D01*
X620240Y1297998D01*
X620248Y1297996D01*
X620247Y1297990D01*
X621197Y1297127D01*
X621206Y1297126D01*
X621206Y1297121D01*
X622325Y1296491D01*
X622333Y1296492D01*
X622335Y1296486D01*
X623565Y1296121D01*
X623573Y1296124D01*
X623576Y1296119D01*
X624857Y1296037D01*
X624861Y1296040D01*
X624863Y1296037D01*
X626144Y1296119D01*
G37*
G36*
X859824Y1296119D02*
X859824Y1296119D01*
X859830Y1296125D01*
X859835Y1296121D01*
X861065Y1296486D01*
X861070Y1296493D01*
X861075Y1296491D01*
X862194Y1297121D01*
X862197Y1297128D01*
X862203Y1297127D01*
X863153Y1297990D01*
X863154Y1297998D01*
X863160Y1297998D01*
X863894Y1299051D01*
X863894Y1299059D01*
X863899Y1299061D01*
X864381Y1300251D01*
X864379Y1300256D01*
X864383Y1300259D01*
X864382Y1300260D01*
X864384Y1300261D01*
X864589Y1301528D01*
X864586Y1301533D01*
X864589Y1301536D01*
X864589Y1313536D01*
X864586Y1313540D01*
X864589Y1313543D01*
X864434Y1314665D01*
X864429Y1314670D01*
X864432Y1314674D01*
X864061Y1315745D01*
X864055Y1315749D01*
X864057Y1315754D01*
X863484Y1316731D01*
X863478Y1316734D01*
X863479Y1316739D01*
X862726Y1317586D01*
X862719Y1317588D01*
X862719Y1317593D01*
X861816Y1318277D01*
X861809Y1318277D01*
X861808Y1318282D01*
X860789Y1318777D01*
X860782Y1318775D01*
X860780Y1318780D01*
X859683Y1319067D01*
X859677Y1319064D01*
X859674Y1319068D01*
X858543Y1319135D01*
X858537Y1319135D01*
X857406Y1319068D01*
X857401Y1319063D01*
X857397Y1319067D01*
X856300Y1318780D01*
X856296Y1318774D01*
X856291Y1318777D01*
X855272Y1318282D01*
X855269Y1318276D01*
X855264Y1318277D01*
X854361Y1317593D01*
X854359Y1317586D01*
X854354Y1317586D01*
X853601Y1316739D01*
X853601Y1316732D01*
X853596Y1316731D01*
X853023Y1315754D01*
X853024Y1315751D01*
X853023Y1315750D01*
X853024Y1315749D01*
X853024Y1315747D01*
X853019Y1315745D01*
X852648Y1314674D01*
X852650Y1314669D01*
X852647Y1314667D01*
X852647Y1314666D01*
X852646Y1314665D01*
X852491Y1313543D01*
X852494Y1313538D01*
X852491Y1313536D01*
X852491Y1301536D01*
X852494Y1301531D01*
X852491Y1301528D01*
X852696Y1300261D01*
X852702Y1300255D01*
X852699Y1300251D01*
X853181Y1299061D01*
X853188Y1299057D01*
X853186Y1299051D01*
X853920Y1297998D01*
X853928Y1297996D01*
X853927Y1297990D01*
X854877Y1297127D01*
X854886Y1297126D01*
X854886Y1297121D01*
X856005Y1296491D01*
X856013Y1296492D01*
X856015Y1296486D01*
X857245Y1296121D01*
X857253Y1296124D01*
X857256Y1296119D01*
X858537Y1296037D01*
X858541Y1296040D01*
X858543Y1296037D01*
X859824Y1296119D01*
G37*
G36*
X773424Y1296119D02*
X773424Y1296119D01*
X773430Y1296125D01*
X773435Y1296121D01*
X774665Y1296486D01*
X774670Y1296493D01*
X774675Y1296491D01*
X775794Y1297121D01*
X775797Y1297128D01*
X775803Y1297127D01*
X776753Y1297990D01*
X776754Y1297998D01*
X776760Y1297998D01*
X777494Y1299051D01*
X777494Y1299059D01*
X777499Y1299061D01*
X777981Y1300251D01*
X777979Y1300256D01*
X777983Y1300259D01*
X777982Y1300260D01*
X777984Y1300261D01*
X778189Y1301528D01*
X778186Y1301533D01*
X778189Y1301536D01*
X778189Y1313536D01*
X778186Y1313540D01*
X778189Y1313543D01*
X778034Y1314665D01*
X778029Y1314670D01*
X778032Y1314674D01*
X777661Y1315745D01*
X777655Y1315749D01*
X777657Y1315754D01*
X777084Y1316731D01*
X777078Y1316734D01*
X777079Y1316739D01*
X776326Y1317586D01*
X776319Y1317588D01*
X776319Y1317593D01*
X775416Y1318277D01*
X775409Y1318277D01*
X775408Y1318282D01*
X774389Y1318777D01*
X774382Y1318775D01*
X774380Y1318780D01*
X773283Y1319067D01*
X773277Y1319064D01*
X773274Y1319068D01*
X772143Y1319135D01*
X772137Y1319135D01*
X771006Y1319068D01*
X771001Y1319063D01*
X770997Y1319067D01*
X769900Y1318780D01*
X769896Y1318774D01*
X769891Y1318777D01*
X768872Y1318282D01*
X768869Y1318276D01*
X768864Y1318277D01*
X767961Y1317593D01*
X767959Y1317586D01*
X767954Y1317586D01*
X767201Y1316739D01*
X767201Y1316732D01*
X767196Y1316731D01*
X766623Y1315754D01*
X766624Y1315751D01*
X766623Y1315750D01*
X766624Y1315749D01*
X766624Y1315747D01*
X766619Y1315745D01*
X766248Y1314674D01*
X766250Y1314669D01*
X766247Y1314667D01*
X766247Y1314666D01*
X766246Y1314665D01*
X766091Y1313543D01*
X766094Y1313538D01*
X766091Y1313536D01*
X766091Y1301536D01*
X766094Y1301531D01*
X766091Y1301528D01*
X766296Y1300261D01*
X766302Y1300255D01*
X766299Y1300251D01*
X766781Y1299061D01*
X766788Y1299057D01*
X766786Y1299051D01*
X767520Y1297998D01*
X767528Y1297996D01*
X767527Y1297990D01*
X768477Y1297127D01*
X768486Y1297126D01*
X768486Y1297121D01*
X769605Y1296491D01*
X769613Y1296492D01*
X769615Y1296486D01*
X770845Y1296121D01*
X770853Y1296124D01*
X770856Y1296119D01*
X772137Y1296037D01*
X772141Y1296040D01*
X772143Y1296037D01*
X773424Y1296119D01*
G37*
G36*
X626144Y668739D02*
X626144Y668739D01*
X626150Y668745D01*
X626155Y668741D01*
X627385Y669106D01*
X627390Y669113D01*
X627395Y669111D01*
X628514Y669741D01*
X628517Y669748D01*
X628523Y669747D01*
X629473Y670610D01*
X629474Y670618D01*
X629480Y670618D01*
X630214Y671671D01*
X630214Y671679D01*
X630219Y671681D01*
X630701Y672871D01*
X630699Y672876D01*
X630703Y672879D01*
X630702Y672880D01*
X630704Y672881D01*
X630909Y674148D01*
X630906Y674153D01*
X630909Y674156D01*
X630909Y686156D01*
X630906Y686160D01*
X630909Y686163D01*
X630754Y687285D01*
X630749Y687290D01*
X630752Y687294D01*
X630381Y688365D01*
X630375Y688369D01*
X630377Y688374D01*
X629804Y689351D01*
X629798Y689354D01*
X629799Y689359D01*
X629046Y690206D01*
X629039Y690208D01*
X629039Y690213D01*
X628136Y690897D01*
X628129Y690897D01*
X628128Y690902D01*
X627109Y691397D01*
X627102Y691395D01*
X627100Y691400D01*
X626003Y691687D01*
X625997Y691684D01*
X625994Y691688D01*
X624863Y691755D01*
X624857Y691755D01*
X623726Y691688D01*
X623721Y691683D01*
X623717Y691687D01*
X622620Y691400D01*
X622616Y691394D01*
X622611Y691397D01*
X621592Y690902D01*
X621589Y690896D01*
X621584Y690897D01*
X620681Y690213D01*
X620679Y690206D01*
X620674Y690206D01*
X619921Y689359D01*
X619921Y689352D01*
X619916Y689351D01*
X619343Y688374D01*
X619344Y688371D01*
X619343Y688370D01*
X619344Y688369D01*
X619344Y688367D01*
X619339Y688365D01*
X618968Y687294D01*
X618970Y687289D01*
X618967Y687287D01*
X618967Y687286D01*
X618966Y687285D01*
X618811Y686163D01*
X618814Y686158D01*
X618811Y686156D01*
X618811Y674156D01*
X618814Y674151D01*
X618811Y674148D01*
X619016Y672881D01*
X619022Y672875D01*
X619019Y672871D01*
X619501Y671681D01*
X619508Y671677D01*
X619506Y671671D01*
X620240Y670618D01*
X620248Y670616D01*
X620247Y670610D01*
X621197Y669747D01*
X621206Y669746D01*
X621206Y669741D01*
X622325Y669111D01*
X622333Y669112D01*
X622335Y669106D01*
X623565Y668741D01*
X623573Y668744D01*
X623576Y668739D01*
X624857Y668657D01*
X624861Y668660D01*
X624863Y668657D01*
X626144Y668739D01*
G37*
G36*
X392464Y668739D02*
X392464Y668739D01*
X392470Y668745D01*
X392475Y668741D01*
X393705Y669106D01*
X393710Y669113D01*
X393715Y669111D01*
X394834Y669741D01*
X394837Y669748D01*
X394843Y669747D01*
X395793Y670610D01*
X395794Y670618D01*
X395800Y670618D01*
X396534Y671671D01*
X396534Y671679D01*
X396539Y671681D01*
X397021Y672871D01*
X397019Y672876D01*
X397023Y672879D01*
X397022Y672880D01*
X397024Y672881D01*
X397229Y674148D01*
X397226Y674153D01*
X397229Y674156D01*
X397229Y686156D01*
X397226Y686160D01*
X397229Y686163D01*
X397074Y687285D01*
X397069Y687290D01*
X397072Y687294D01*
X396701Y688365D01*
X396695Y688369D01*
X396697Y688374D01*
X396124Y689351D01*
X396118Y689354D01*
X396119Y689359D01*
X395366Y690206D01*
X395359Y690208D01*
X395359Y690213D01*
X394456Y690897D01*
X394449Y690897D01*
X394448Y690902D01*
X393429Y691397D01*
X393422Y691395D01*
X393420Y691400D01*
X392323Y691687D01*
X392317Y691684D01*
X392314Y691688D01*
X391183Y691755D01*
X391177Y691755D01*
X390046Y691688D01*
X390041Y691683D01*
X390037Y691687D01*
X388940Y691400D01*
X388936Y691394D01*
X388931Y691397D01*
X387912Y690902D01*
X387909Y690896D01*
X387904Y690897D01*
X387001Y690213D01*
X386999Y690206D01*
X386994Y690206D01*
X386241Y689359D01*
X386241Y689352D01*
X386236Y689351D01*
X385663Y688374D01*
X385664Y688371D01*
X385663Y688370D01*
X385664Y688369D01*
X385664Y688367D01*
X385659Y688365D01*
X385288Y687294D01*
X385290Y687289D01*
X385287Y687287D01*
X385287Y687286D01*
X385286Y687285D01*
X385131Y686163D01*
X385134Y686158D01*
X385131Y686156D01*
X385131Y674156D01*
X385134Y674151D01*
X385131Y674148D01*
X385336Y672881D01*
X385342Y672875D01*
X385339Y672871D01*
X385821Y671681D01*
X385828Y671677D01*
X385826Y671671D01*
X386560Y670618D01*
X386568Y670616D01*
X386567Y670610D01*
X387517Y669747D01*
X387526Y669746D01*
X387526Y669741D01*
X388645Y669111D01*
X388653Y669112D01*
X388655Y669106D01*
X389885Y668741D01*
X389893Y668744D01*
X389896Y668739D01*
X391177Y668657D01*
X391181Y668660D01*
X391183Y668657D01*
X392464Y668739D01*
G37*
G36*
X306064Y668739D02*
X306064Y668739D01*
X306070Y668745D01*
X306075Y668741D01*
X307305Y669106D01*
X307310Y669113D01*
X307315Y669111D01*
X308434Y669741D01*
X308437Y669748D01*
X308443Y669747D01*
X309393Y670610D01*
X309394Y670618D01*
X309400Y670618D01*
X310134Y671671D01*
X310134Y671679D01*
X310139Y671681D01*
X310621Y672871D01*
X310619Y672876D01*
X310623Y672879D01*
X310622Y672880D01*
X310624Y672881D01*
X310829Y674148D01*
X310826Y674153D01*
X310829Y674156D01*
X310829Y686156D01*
X310826Y686160D01*
X310829Y686163D01*
X310674Y687285D01*
X310669Y687290D01*
X310672Y687294D01*
X310301Y688365D01*
X310295Y688369D01*
X310297Y688374D01*
X309724Y689351D01*
X309718Y689354D01*
X309719Y689359D01*
X308966Y690206D01*
X308959Y690208D01*
X308959Y690213D01*
X308056Y690897D01*
X308049Y690897D01*
X308048Y690902D01*
X307029Y691397D01*
X307022Y691395D01*
X307020Y691400D01*
X305923Y691687D01*
X305917Y691684D01*
X305914Y691688D01*
X304783Y691755D01*
X304777Y691755D01*
X303646Y691688D01*
X303641Y691683D01*
X303637Y691687D01*
X302540Y691400D01*
X302536Y691394D01*
X302531Y691397D01*
X301512Y690902D01*
X301509Y690896D01*
X301504Y690897D01*
X300601Y690213D01*
X300599Y690206D01*
X300594Y690206D01*
X299841Y689359D01*
X299841Y689352D01*
X299836Y689351D01*
X299263Y688374D01*
X299264Y688371D01*
X299263Y688370D01*
X299264Y688369D01*
X299264Y688367D01*
X299259Y688365D01*
X298888Y687294D01*
X298890Y687289D01*
X298887Y687287D01*
X298887Y687286D01*
X298886Y687285D01*
X298731Y686163D01*
X298734Y686158D01*
X298731Y686156D01*
X298731Y674156D01*
X298734Y674151D01*
X298731Y674148D01*
X298936Y672881D01*
X298942Y672875D01*
X298939Y672871D01*
X299421Y671681D01*
X299428Y671677D01*
X299426Y671671D01*
X300160Y670618D01*
X300168Y670616D01*
X300167Y670610D01*
X301117Y669747D01*
X301126Y669746D01*
X301126Y669741D01*
X302245Y669111D01*
X302253Y669112D01*
X302255Y669106D01*
X303485Y668741D01*
X303493Y668744D01*
X303496Y668739D01*
X304777Y668657D01*
X304781Y668660D01*
X304783Y668657D01*
X306064Y668739D01*
G37*
G36*
X72384Y668739D02*
X72384Y668739D01*
X72390Y668745D01*
X72395Y668741D01*
X73625Y669106D01*
X73630Y669113D01*
X73635Y669111D01*
X74754Y669741D01*
X74757Y669748D01*
X74763Y669747D01*
X75713Y670610D01*
X75714Y670618D01*
X75720Y670618D01*
X76454Y671671D01*
X76454Y671679D01*
X76459Y671681D01*
X76941Y672871D01*
X76939Y672876D01*
X76943Y672879D01*
X76942Y672880D01*
X76944Y672881D01*
X77149Y674148D01*
X77146Y674153D01*
X77149Y674156D01*
X77149Y686156D01*
X77146Y686160D01*
X77149Y686163D01*
X76994Y687285D01*
X76989Y687290D01*
X76992Y687294D01*
X76621Y688365D01*
X76615Y688369D01*
X76617Y688374D01*
X76044Y689351D01*
X76038Y689354D01*
X76039Y689359D01*
X75286Y690206D01*
X75279Y690208D01*
X75279Y690213D01*
X74376Y690897D01*
X74369Y690897D01*
X74368Y690902D01*
X73349Y691397D01*
X73342Y691395D01*
X73340Y691400D01*
X72243Y691687D01*
X72237Y691684D01*
X72234Y691688D01*
X71103Y691755D01*
X71097Y691755D01*
X69966Y691688D01*
X69961Y691683D01*
X69957Y691687D01*
X68860Y691400D01*
X68856Y691394D01*
X68851Y691397D01*
X67832Y690902D01*
X67829Y690896D01*
X67824Y690897D01*
X66921Y690213D01*
X66919Y690206D01*
X66914Y690206D01*
X66161Y689359D01*
X66161Y689352D01*
X66156Y689351D01*
X65583Y688374D01*
X65584Y688371D01*
X65583Y688370D01*
X65584Y688369D01*
X65584Y688367D01*
X65579Y688365D01*
X65208Y687294D01*
X65210Y687289D01*
X65207Y687287D01*
X65207Y687286D01*
X65206Y687285D01*
X65051Y686163D01*
X65054Y686158D01*
X65051Y686156D01*
X65051Y674156D01*
X65054Y674151D01*
X65051Y674148D01*
X65256Y672881D01*
X65262Y672875D01*
X65259Y672871D01*
X65741Y671681D01*
X65748Y671677D01*
X65746Y671671D01*
X66480Y670618D01*
X66488Y670616D01*
X66487Y670610D01*
X67437Y669747D01*
X67446Y669746D01*
X67446Y669741D01*
X68565Y669111D01*
X68573Y669112D01*
X68575Y669106D01*
X69805Y668741D01*
X69813Y668744D01*
X69816Y668739D01*
X71097Y668657D01*
X71101Y668660D01*
X71103Y668657D01*
X72384Y668739D01*
G37*
G36*
X859824Y668739D02*
X859824Y668739D01*
X859830Y668745D01*
X859835Y668741D01*
X861065Y669106D01*
X861070Y669113D01*
X861075Y669111D01*
X862194Y669741D01*
X862197Y669748D01*
X862203Y669747D01*
X863153Y670610D01*
X863154Y670618D01*
X863160Y670618D01*
X863894Y671671D01*
X863894Y671679D01*
X863899Y671681D01*
X864381Y672871D01*
X864379Y672876D01*
X864383Y672879D01*
X864382Y672880D01*
X864384Y672881D01*
X864589Y674148D01*
X864586Y674153D01*
X864589Y674156D01*
X864589Y686156D01*
X864586Y686160D01*
X864589Y686163D01*
X864434Y687285D01*
X864429Y687290D01*
X864432Y687294D01*
X864061Y688365D01*
X864055Y688369D01*
X864057Y688374D01*
X863484Y689351D01*
X863478Y689354D01*
X863479Y689359D01*
X862726Y690206D01*
X862719Y690208D01*
X862719Y690213D01*
X861816Y690897D01*
X861809Y690897D01*
X861808Y690902D01*
X860789Y691397D01*
X860782Y691395D01*
X860780Y691400D01*
X859683Y691687D01*
X859677Y691684D01*
X859674Y691688D01*
X858543Y691755D01*
X858537Y691755D01*
X857406Y691688D01*
X857401Y691683D01*
X857397Y691687D01*
X856300Y691400D01*
X856296Y691394D01*
X856291Y691397D01*
X855272Y690902D01*
X855269Y690896D01*
X855264Y690897D01*
X854361Y690213D01*
X854359Y690206D01*
X854354Y690206D01*
X853601Y689359D01*
X853601Y689352D01*
X853596Y689351D01*
X853023Y688374D01*
X853024Y688371D01*
X853023Y688370D01*
X853024Y688369D01*
X853024Y688367D01*
X853019Y688365D01*
X852648Y687294D01*
X852650Y687289D01*
X852647Y687287D01*
X852647Y687286D01*
X852646Y687285D01*
X852491Y686163D01*
X852494Y686158D01*
X852491Y686156D01*
X852491Y674156D01*
X852494Y674151D01*
X852491Y674148D01*
X852696Y672881D01*
X852702Y672875D01*
X852699Y672871D01*
X853181Y671681D01*
X853188Y671677D01*
X853186Y671671D01*
X853920Y670618D01*
X853928Y670616D01*
X853927Y670610D01*
X854877Y669747D01*
X854886Y669746D01*
X854886Y669741D01*
X856005Y669111D01*
X856013Y669112D01*
X856015Y669106D01*
X857245Y668741D01*
X857253Y668744D01*
X857256Y668739D01*
X858537Y668657D01*
X858541Y668660D01*
X858543Y668657D01*
X859824Y668739D01*
G37*
G36*
X539744Y668739D02*
X539744Y668739D01*
X539750Y668745D01*
X539755Y668741D01*
X540985Y669106D01*
X540990Y669113D01*
X540995Y669111D01*
X542114Y669741D01*
X542117Y669748D01*
X542123Y669747D01*
X543073Y670610D01*
X543074Y670618D01*
X543080Y670618D01*
X543814Y671671D01*
X543814Y671679D01*
X543819Y671681D01*
X544301Y672871D01*
X544299Y672876D01*
X544303Y672879D01*
X544302Y672880D01*
X544304Y672881D01*
X544509Y674148D01*
X544506Y674153D01*
X544509Y674156D01*
X544509Y686156D01*
X544506Y686160D01*
X544509Y686163D01*
X544354Y687285D01*
X544349Y687290D01*
X544352Y687294D01*
X543981Y688365D01*
X543975Y688369D01*
X543977Y688374D01*
X543404Y689351D01*
X543398Y689354D01*
X543399Y689359D01*
X542646Y690206D01*
X542639Y690208D01*
X542639Y690213D01*
X541736Y690897D01*
X541729Y690897D01*
X541728Y690902D01*
X540709Y691397D01*
X540702Y691395D01*
X540700Y691400D01*
X539603Y691687D01*
X539597Y691684D01*
X539594Y691688D01*
X538463Y691755D01*
X538457Y691755D01*
X537326Y691688D01*
X537321Y691683D01*
X537317Y691687D01*
X536220Y691400D01*
X536216Y691394D01*
X536211Y691397D01*
X535192Y690902D01*
X535189Y690896D01*
X535184Y690897D01*
X534281Y690213D01*
X534279Y690206D01*
X534274Y690206D01*
X533521Y689359D01*
X533521Y689352D01*
X533516Y689351D01*
X532943Y688374D01*
X532944Y688371D01*
X532943Y688370D01*
X532944Y688369D01*
X532944Y688367D01*
X532939Y688365D01*
X532568Y687294D01*
X532570Y687289D01*
X532567Y687287D01*
X532567Y687286D01*
X532566Y687285D01*
X532411Y686163D01*
X532414Y686158D01*
X532411Y686156D01*
X532411Y674156D01*
X532414Y674151D01*
X532411Y674148D01*
X532616Y672881D01*
X532622Y672875D01*
X532619Y672871D01*
X533101Y671681D01*
X533108Y671677D01*
X533106Y671671D01*
X533840Y670618D01*
X533848Y670616D01*
X533847Y670610D01*
X534797Y669747D01*
X534806Y669746D01*
X534806Y669741D01*
X535925Y669111D01*
X535933Y669112D01*
X535935Y669106D01*
X537165Y668741D01*
X537173Y668744D01*
X537176Y668739D01*
X538457Y668657D01*
X538461Y668660D01*
X538463Y668657D01*
X539744Y668739D01*
G37*
G36*
X158784Y668739D02*
X158784Y668739D01*
X158790Y668745D01*
X158795Y668741D01*
X160025Y669106D01*
X160030Y669113D01*
X160035Y669111D01*
X161154Y669741D01*
X161157Y669748D01*
X161163Y669747D01*
X162113Y670610D01*
X162114Y670618D01*
X162120Y670618D01*
X162854Y671671D01*
X162854Y671679D01*
X162859Y671681D01*
X163341Y672871D01*
X163339Y672876D01*
X163343Y672879D01*
X163342Y672880D01*
X163344Y672881D01*
X163549Y674148D01*
X163546Y674153D01*
X163549Y674156D01*
X163549Y686156D01*
X163546Y686160D01*
X163549Y686163D01*
X163394Y687285D01*
X163389Y687290D01*
X163392Y687294D01*
X163021Y688365D01*
X163015Y688369D01*
X163017Y688374D01*
X162444Y689351D01*
X162438Y689354D01*
X162439Y689359D01*
X161686Y690206D01*
X161679Y690208D01*
X161679Y690213D01*
X160776Y690897D01*
X160769Y690897D01*
X160768Y690902D01*
X159749Y691397D01*
X159742Y691395D01*
X159740Y691400D01*
X158643Y691687D01*
X158637Y691684D01*
X158634Y691688D01*
X157503Y691755D01*
X157497Y691755D01*
X156366Y691688D01*
X156361Y691683D01*
X156357Y691687D01*
X155260Y691400D01*
X155256Y691394D01*
X155251Y691397D01*
X154232Y690902D01*
X154229Y690896D01*
X154224Y690897D01*
X153321Y690213D01*
X153319Y690206D01*
X153314Y690206D01*
X152561Y689359D01*
X152561Y689352D01*
X152556Y689351D01*
X151983Y688374D01*
X151984Y688371D01*
X151983Y688370D01*
X151984Y688369D01*
X151984Y688367D01*
X151979Y688365D01*
X151608Y687294D01*
X151610Y687289D01*
X151607Y687287D01*
X151607Y687286D01*
X151606Y687285D01*
X151451Y686163D01*
X151454Y686158D01*
X151451Y686156D01*
X151451Y674156D01*
X151454Y674151D01*
X151451Y674148D01*
X151656Y672881D01*
X151662Y672875D01*
X151659Y672871D01*
X152141Y671681D01*
X152148Y671677D01*
X152146Y671671D01*
X152880Y670618D01*
X152888Y670616D01*
X152887Y670610D01*
X153837Y669747D01*
X153846Y669746D01*
X153846Y669741D01*
X154965Y669111D01*
X154973Y669112D01*
X154975Y669106D01*
X156205Y668741D01*
X156213Y668744D01*
X156216Y668739D01*
X157497Y668657D01*
X157501Y668660D01*
X157503Y668657D01*
X158784Y668739D01*
G37*
G36*
X773424Y668739D02*
X773424Y668739D01*
X773430Y668745D01*
X773435Y668741D01*
X774665Y669106D01*
X774670Y669113D01*
X774675Y669111D01*
X775794Y669741D01*
X775797Y669748D01*
X775803Y669747D01*
X776753Y670610D01*
X776754Y670618D01*
X776760Y670618D01*
X777494Y671671D01*
X777494Y671679D01*
X777499Y671681D01*
X777981Y672871D01*
X777979Y672876D01*
X777983Y672879D01*
X777982Y672880D01*
X777984Y672881D01*
X778189Y674148D01*
X778186Y674153D01*
X778189Y674156D01*
X778189Y686156D01*
X778186Y686160D01*
X778189Y686163D01*
X778034Y687285D01*
X778029Y687290D01*
X778032Y687294D01*
X777661Y688365D01*
X777655Y688369D01*
X777657Y688374D01*
X777084Y689351D01*
X777078Y689354D01*
X777079Y689359D01*
X776326Y690206D01*
X776319Y690208D01*
X776319Y690213D01*
X775416Y690897D01*
X775409Y690897D01*
X775408Y690902D01*
X774389Y691397D01*
X774382Y691395D01*
X774380Y691400D01*
X773283Y691687D01*
X773277Y691684D01*
X773274Y691688D01*
X772143Y691755D01*
X772137Y691755D01*
X771006Y691688D01*
X771001Y691683D01*
X770997Y691687D01*
X769900Y691400D01*
X769896Y691394D01*
X769891Y691397D01*
X768872Y690902D01*
X768869Y690896D01*
X768864Y690897D01*
X767961Y690213D01*
X767959Y690206D01*
X767954Y690206D01*
X767201Y689359D01*
X767201Y689352D01*
X767196Y689351D01*
X766623Y688374D01*
X766624Y688371D01*
X766623Y688370D01*
X766624Y688369D01*
X766624Y688367D01*
X766619Y688365D01*
X766248Y687294D01*
X766250Y687289D01*
X766247Y687287D01*
X766247Y687286D01*
X766246Y687285D01*
X766091Y686163D01*
X766094Y686158D01*
X766091Y686156D01*
X766091Y674156D01*
X766094Y674151D01*
X766091Y674148D01*
X766296Y672881D01*
X766302Y672875D01*
X766299Y672871D01*
X766781Y671681D01*
X766788Y671677D01*
X766786Y671671D01*
X767520Y670618D01*
X767528Y670616D01*
X767527Y670610D01*
X768477Y669747D01*
X768486Y669746D01*
X768486Y669741D01*
X769605Y669111D01*
X769613Y669112D01*
X769615Y669106D01*
X770845Y668741D01*
X770853Y668744D01*
X770856Y668739D01*
X772137Y668657D01*
X772141Y668660D01*
X772143Y668657D01*
X773424Y668739D01*
G37*
G36*
X626144Y41359D02*
X626144Y41359D01*
X626150Y41365D01*
X626155Y41361D01*
X627385Y41726D01*
X627390Y41733D01*
X627395Y41731D01*
X628514Y42361D01*
X628517Y42368D01*
X628523Y42367D01*
X629473Y43230D01*
X629474Y43238D01*
X629480Y43238D01*
X630214Y44291D01*
X630214Y44299D01*
X630219Y44301D01*
X630701Y45491D01*
X630699Y45496D01*
X630703Y45499D01*
X630702Y45500D01*
X630704Y45501D01*
X630909Y46768D01*
X630906Y46773D01*
X630909Y46776D01*
X630909Y58776D01*
X630906Y58780D01*
X630909Y58783D01*
X630754Y59905D01*
X630749Y59910D01*
X630752Y59914D01*
X630381Y60985D01*
X630375Y60989D01*
X630377Y60994D01*
X629804Y61971D01*
X629798Y61974D01*
X629799Y61979D01*
X629046Y62826D01*
X629039Y62828D01*
X629039Y62833D01*
X628136Y63517D01*
X628129Y63517D01*
X628128Y63522D01*
X627109Y64017D01*
X627102Y64015D01*
X627100Y64020D01*
X626003Y64307D01*
X625997Y64304D01*
X625994Y64308D01*
X624863Y64375D01*
X624857Y64375D01*
X623726Y64308D01*
X623721Y64303D01*
X623717Y64307D01*
X622620Y64020D01*
X622616Y64014D01*
X622611Y64017D01*
X621592Y63522D01*
X621589Y63516D01*
X621584Y63517D01*
X620681Y62833D01*
X620679Y62826D01*
X620674Y62826D01*
X619921Y61979D01*
X619921Y61972D01*
X619916Y61971D01*
X619343Y60994D01*
X619344Y60991D01*
X619343Y60990D01*
X619344Y60989D01*
X619344Y60987D01*
X619339Y60985D01*
X618968Y59914D01*
X618970Y59909D01*
X618967Y59907D01*
X618967Y59906D01*
X618966Y59905D01*
X618811Y58783D01*
X618814Y58778D01*
X618811Y58776D01*
X618811Y46776D01*
X618814Y46771D01*
X618811Y46768D01*
X619016Y45501D01*
X619022Y45495D01*
X619019Y45491D01*
X619501Y44301D01*
X619508Y44297D01*
X619506Y44291D01*
X620240Y43238D01*
X620248Y43236D01*
X620247Y43230D01*
X621197Y42367D01*
X621206Y42366D01*
X621206Y42361D01*
X622325Y41731D01*
X622333Y41732D01*
X622335Y41726D01*
X623565Y41361D01*
X623573Y41364D01*
X623576Y41359D01*
X624857Y41277D01*
X624861Y41280D01*
X624863Y41277D01*
X626144Y41359D01*
G37*
G36*
X158784Y41359D02*
X158784Y41359D01*
X158790Y41365D01*
X158795Y41361D01*
X160025Y41726D01*
X160030Y41733D01*
X160035Y41731D01*
X161154Y42361D01*
X161157Y42368D01*
X161163Y42367D01*
X162113Y43230D01*
X162114Y43238D01*
X162120Y43238D01*
X162854Y44291D01*
X162854Y44299D01*
X162859Y44301D01*
X163341Y45491D01*
X163339Y45496D01*
X163343Y45499D01*
X163342Y45500D01*
X163344Y45501D01*
X163549Y46768D01*
X163546Y46773D01*
X163549Y46776D01*
X163549Y58776D01*
X163546Y58780D01*
X163549Y58783D01*
X163394Y59905D01*
X163389Y59910D01*
X163392Y59914D01*
X163021Y60985D01*
X163015Y60989D01*
X163017Y60994D01*
X162444Y61971D01*
X162438Y61974D01*
X162439Y61979D01*
X161686Y62826D01*
X161679Y62828D01*
X161679Y62833D01*
X160776Y63517D01*
X160769Y63517D01*
X160768Y63522D01*
X159749Y64017D01*
X159742Y64015D01*
X159740Y64020D01*
X158643Y64307D01*
X158637Y64304D01*
X158634Y64308D01*
X157503Y64375D01*
X157497Y64375D01*
X156366Y64308D01*
X156361Y64303D01*
X156357Y64307D01*
X155260Y64020D01*
X155256Y64014D01*
X155251Y64017D01*
X154232Y63522D01*
X154229Y63516D01*
X154224Y63517D01*
X153321Y62833D01*
X153319Y62826D01*
X153314Y62826D01*
X152561Y61979D01*
X152561Y61972D01*
X152556Y61971D01*
X151983Y60994D01*
X151984Y60991D01*
X151983Y60990D01*
X151984Y60989D01*
X151984Y60987D01*
X151979Y60985D01*
X151608Y59914D01*
X151610Y59909D01*
X151607Y59907D01*
X151607Y59906D01*
X151606Y59905D01*
X151451Y58783D01*
X151454Y58778D01*
X151451Y58776D01*
X151451Y46776D01*
X151454Y46771D01*
X151451Y46768D01*
X151656Y45501D01*
X151662Y45495D01*
X151659Y45491D01*
X152141Y44301D01*
X152148Y44297D01*
X152146Y44291D01*
X152880Y43238D01*
X152888Y43236D01*
X152887Y43230D01*
X153837Y42367D01*
X153846Y42366D01*
X153846Y42361D01*
X154965Y41731D01*
X154973Y41732D01*
X154975Y41726D01*
X156205Y41361D01*
X156213Y41364D01*
X156216Y41359D01*
X157497Y41277D01*
X157501Y41280D01*
X157503Y41277D01*
X158784Y41359D01*
G37*
G36*
X392464Y41359D02*
X392464Y41359D01*
X392470Y41365D01*
X392475Y41361D01*
X393705Y41726D01*
X393710Y41733D01*
X393715Y41731D01*
X394834Y42361D01*
X394837Y42368D01*
X394843Y42367D01*
X395793Y43230D01*
X395794Y43238D01*
X395800Y43238D01*
X396534Y44291D01*
X396534Y44299D01*
X396539Y44301D01*
X397021Y45491D01*
X397019Y45496D01*
X397023Y45499D01*
X397022Y45500D01*
X397024Y45501D01*
X397229Y46768D01*
X397226Y46773D01*
X397229Y46776D01*
X397229Y58776D01*
X397226Y58780D01*
X397229Y58783D01*
X397074Y59905D01*
X397069Y59910D01*
X397072Y59914D01*
X396701Y60985D01*
X396695Y60989D01*
X396697Y60994D01*
X396124Y61971D01*
X396118Y61974D01*
X396119Y61979D01*
X395366Y62826D01*
X395359Y62828D01*
X395359Y62833D01*
X394456Y63517D01*
X394449Y63517D01*
X394448Y63522D01*
X393429Y64017D01*
X393422Y64015D01*
X393420Y64020D01*
X392323Y64307D01*
X392317Y64304D01*
X392314Y64308D01*
X391183Y64375D01*
X391177Y64375D01*
X390046Y64308D01*
X390041Y64303D01*
X390037Y64307D01*
X388940Y64020D01*
X388936Y64014D01*
X388931Y64017D01*
X387912Y63522D01*
X387909Y63516D01*
X387904Y63517D01*
X387001Y62833D01*
X386999Y62826D01*
X386994Y62826D01*
X386241Y61979D01*
X386241Y61972D01*
X386236Y61971D01*
X385663Y60994D01*
X385664Y60991D01*
X385663Y60990D01*
X385664Y60989D01*
X385664Y60987D01*
X385659Y60985D01*
X385288Y59914D01*
X385290Y59909D01*
X385287Y59907D01*
X385287Y59906D01*
X385286Y59905D01*
X385131Y58783D01*
X385134Y58778D01*
X385131Y58776D01*
X385131Y46776D01*
X385134Y46771D01*
X385131Y46768D01*
X385336Y45501D01*
X385342Y45495D01*
X385339Y45491D01*
X385821Y44301D01*
X385828Y44297D01*
X385826Y44291D01*
X386560Y43238D01*
X386568Y43236D01*
X386567Y43230D01*
X387517Y42367D01*
X387526Y42366D01*
X387526Y42361D01*
X388645Y41731D01*
X388653Y41732D01*
X388655Y41726D01*
X389885Y41361D01*
X389893Y41364D01*
X389896Y41359D01*
X391177Y41277D01*
X391181Y41280D01*
X391183Y41277D01*
X392464Y41359D01*
G37*
G36*
X539744Y41359D02*
X539744Y41359D01*
X539750Y41365D01*
X539755Y41361D01*
X540985Y41726D01*
X540990Y41733D01*
X540995Y41731D01*
X542114Y42361D01*
X542117Y42368D01*
X542123Y42367D01*
X543073Y43230D01*
X543074Y43238D01*
X543080Y43238D01*
X543814Y44291D01*
X543814Y44299D01*
X543819Y44301D01*
X544301Y45491D01*
X544299Y45496D01*
X544303Y45499D01*
X544302Y45500D01*
X544304Y45501D01*
X544509Y46768D01*
X544506Y46773D01*
X544509Y46776D01*
X544509Y58776D01*
X544506Y58780D01*
X544509Y58783D01*
X544354Y59905D01*
X544349Y59910D01*
X544352Y59914D01*
X543981Y60985D01*
X543975Y60989D01*
X543977Y60994D01*
X543404Y61971D01*
X543398Y61974D01*
X543399Y61979D01*
X542646Y62826D01*
X542639Y62828D01*
X542639Y62833D01*
X541736Y63517D01*
X541729Y63517D01*
X541728Y63522D01*
X540709Y64017D01*
X540702Y64015D01*
X540700Y64020D01*
X539603Y64307D01*
X539597Y64304D01*
X539594Y64308D01*
X538463Y64375D01*
X538457Y64375D01*
X537326Y64308D01*
X537321Y64303D01*
X537317Y64307D01*
X536220Y64020D01*
X536216Y64014D01*
X536211Y64017D01*
X535192Y63522D01*
X535189Y63516D01*
X535184Y63517D01*
X534281Y62833D01*
X534279Y62826D01*
X534274Y62826D01*
X533521Y61979D01*
X533521Y61972D01*
X533516Y61971D01*
X532943Y60994D01*
X532944Y60991D01*
X532943Y60990D01*
X532944Y60989D01*
X532944Y60987D01*
X532939Y60985D01*
X532568Y59914D01*
X532570Y59909D01*
X532567Y59907D01*
X532567Y59906D01*
X532566Y59905D01*
X532411Y58783D01*
X532414Y58778D01*
X532411Y58776D01*
X532411Y46776D01*
X532414Y46771D01*
X532411Y46768D01*
X532616Y45501D01*
X532622Y45495D01*
X532619Y45491D01*
X533101Y44301D01*
X533108Y44297D01*
X533106Y44291D01*
X533840Y43238D01*
X533848Y43236D01*
X533847Y43230D01*
X534797Y42367D01*
X534806Y42366D01*
X534806Y42361D01*
X535925Y41731D01*
X535933Y41732D01*
X535935Y41726D01*
X537165Y41361D01*
X537173Y41364D01*
X537176Y41359D01*
X538457Y41277D01*
X538461Y41280D01*
X538463Y41277D01*
X539744Y41359D01*
G37*
G36*
X859824Y41359D02*
X859824Y41359D01*
X859830Y41365D01*
X859835Y41361D01*
X861065Y41726D01*
X861070Y41733D01*
X861075Y41731D01*
X862194Y42361D01*
X862197Y42368D01*
X862203Y42367D01*
X863153Y43230D01*
X863154Y43238D01*
X863160Y43238D01*
X863894Y44291D01*
X863894Y44299D01*
X863899Y44301D01*
X864381Y45491D01*
X864379Y45496D01*
X864383Y45499D01*
X864382Y45500D01*
X864384Y45501D01*
X864589Y46768D01*
X864586Y46773D01*
X864589Y46776D01*
X864589Y58776D01*
X864586Y58780D01*
X864589Y58783D01*
X864434Y59905D01*
X864429Y59910D01*
X864432Y59914D01*
X864061Y60985D01*
X864055Y60989D01*
X864057Y60994D01*
X863484Y61971D01*
X863478Y61974D01*
X863479Y61979D01*
X862726Y62826D01*
X862719Y62828D01*
X862719Y62833D01*
X861816Y63517D01*
X861809Y63517D01*
X861808Y63522D01*
X860789Y64017D01*
X860782Y64015D01*
X860780Y64020D01*
X859683Y64307D01*
X859677Y64304D01*
X859674Y64308D01*
X858543Y64375D01*
X858537Y64375D01*
X857406Y64308D01*
X857401Y64303D01*
X857397Y64307D01*
X856300Y64020D01*
X856296Y64014D01*
X856291Y64017D01*
X855272Y63522D01*
X855269Y63516D01*
X855264Y63517D01*
X854361Y62833D01*
X854359Y62826D01*
X854354Y62826D01*
X853601Y61979D01*
X853601Y61972D01*
X853596Y61971D01*
X853023Y60994D01*
X853024Y60991D01*
X853023Y60990D01*
X853024Y60989D01*
X853024Y60987D01*
X853019Y60985D01*
X852648Y59914D01*
X852650Y59909D01*
X852647Y59907D01*
X852647Y59906D01*
X852646Y59905D01*
X852491Y58783D01*
X852494Y58778D01*
X852491Y58776D01*
X852491Y46776D01*
X852494Y46771D01*
X852491Y46768D01*
X852696Y45501D01*
X852702Y45495D01*
X852699Y45491D01*
X853181Y44301D01*
X853188Y44297D01*
X853186Y44291D01*
X853920Y43238D01*
X853928Y43236D01*
X853927Y43230D01*
X854877Y42367D01*
X854886Y42366D01*
X854886Y42361D01*
X856005Y41731D01*
X856013Y41732D01*
X856015Y41726D01*
X857245Y41361D01*
X857253Y41364D01*
X857256Y41359D01*
X858537Y41277D01*
X858541Y41280D01*
X858543Y41277D01*
X859824Y41359D01*
G37*
G36*
X306064Y41359D02*
X306064Y41359D01*
X306070Y41365D01*
X306075Y41361D01*
X307305Y41726D01*
X307310Y41733D01*
X307315Y41731D01*
X308434Y42361D01*
X308437Y42368D01*
X308443Y42367D01*
X309393Y43230D01*
X309394Y43238D01*
X309400Y43238D01*
X310134Y44291D01*
X310134Y44299D01*
X310139Y44301D01*
X310621Y45491D01*
X310619Y45496D01*
X310623Y45499D01*
X310622Y45500D01*
X310624Y45501D01*
X310829Y46768D01*
X310826Y46773D01*
X310829Y46776D01*
X310829Y58776D01*
X310826Y58780D01*
X310829Y58783D01*
X310674Y59905D01*
X310669Y59910D01*
X310672Y59914D01*
X310301Y60985D01*
X310295Y60989D01*
X310297Y60994D01*
X309724Y61971D01*
X309718Y61974D01*
X309719Y61979D01*
X308966Y62826D01*
X308959Y62828D01*
X308959Y62833D01*
X308056Y63517D01*
X308049Y63517D01*
X308048Y63522D01*
X307029Y64017D01*
X307022Y64015D01*
X307020Y64020D01*
X305923Y64307D01*
X305917Y64304D01*
X305914Y64308D01*
X304783Y64375D01*
X304777Y64375D01*
X303646Y64308D01*
X303641Y64303D01*
X303637Y64307D01*
X302540Y64020D01*
X302536Y64014D01*
X302531Y64017D01*
X301512Y63522D01*
X301509Y63516D01*
X301504Y63517D01*
X300601Y62833D01*
X300599Y62826D01*
X300594Y62826D01*
X299841Y61979D01*
X299841Y61972D01*
X299836Y61971D01*
X299263Y60994D01*
X299264Y60991D01*
X299263Y60990D01*
X299264Y60989D01*
X299264Y60987D01*
X299259Y60985D01*
X298888Y59914D01*
X298890Y59909D01*
X298887Y59907D01*
X298887Y59906D01*
X298886Y59905D01*
X298731Y58783D01*
X298734Y58778D01*
X298731Y58776D01*
X298731Y46776D01*
X298734Y46771D01*
X298731Y46768D01*
X298936Y45501D01*
X298942Y45495D01*
X298939Y45491D01*
X299421Y44301D01*
X299428Y44297D01*
X299426Y44291D01*
X300160Y43238D01*
X300168Y43236D01*
X300167Y43230D01*
X301117Y42367D01*
X301126Y42366D01*
X301126Y42361D01*
X302245Y41731D01*
X302253Y41732D01*
X302255Y41726D01*
X303485Y41361D01*
X303493Y41364D01*
X303496Y41359D01*
X304777Y41277D01*
X304781Y41280D01*
X304783Y41277D01*
X306064Y41359D01*
G37*
G36*
X773424Y41359D02*
X773424Y41359D01*
X773430Y41365D01*
X773435Y41361D01*
X774665Y41726D01*
X774670Y41733D01*
X774675Y41731D01*
X775794Y42361D01*
X775797Y42368D01*
X775803Y42367D01*
X776753Y43230D01*
X776754Y43238D01*
X776760Y43238D01*
X777494Y44291D01*
X777494Y44299D01*
X777499Y44301D01*
X777981Y45491D01*
X777979Y45496D01*
X777983Y45499D01*
X777982Y45500D01*
X777984Y45501D01*
X778189Y46768D01*
X778186Y46773D01*
X778189Y46776D01*
X778189Y58776D01*
X778186Y58780D01*
X778189Y58783D01*
X778034Y59905D01*
X778029Y59910D01*
X778032Y59914D01*
X777661Y60985D01*
X777655Y60989D01*
X777657Y60994D01*
X777084Y61971D01*
X777078Y61974D01*
X777079Y61979D01*
X776326Y62826D01*
X776319Y62828D01*
X776319Y62833D01*
X775416Y63517D01*
X775409Y63517D01*
X775408Y63522D01*
X774389Y64017D01*
X774382Y64015D01*
X774380Y64020D01*
X773283Y64307D01*
X773277Y64304D01*
X773274Y64308D01*
X772143Y64375D01*
X772137Y64375D01*
X771006Y64308D01*
X771001Y64303D01*
X770997Y64307D01*
X769900Y64020D01*
X769896Y64014D01*
X769891Y64017D01*
X768872Y63522D01*
X768869Y63516D01*
X768864Y63517D01*
X767961Y62833D01*
X767959Y62826D01*
X767954Y62826D01*
X767201Y61979D01*
X767201Y61972D01*
X767196Y61971D01*
X766623Y60994D01*
X766624Y60991D01*
X766623Y60990D01*
X766624Y60989D01*
X766624Y60987D01*
X766619Y60985D01*
X766248Y59914D01*
X766250Y59909D01*
X766247Y59907D01*
X766247Y59906D01*
X766246Y59905D01*
X766091Y58783D01*
X766094Y58778D01*
X766091Y58776D01*
X766091Y46776D01*
X766094Y46771D01*
X766091Y46768D01*
X766296Y45501D01*
X766302Y45495D01*
X766299Y45491D01*
X766781Y44301D01*
X766788Y44297D01*
X766786Y44291D01*
X767520Y43238D01*
X767528Y43236D01*
X767527Y43230D01*
X768477Y42367D01*
X768486Y42366D01*
X768486Y42361D01*
X769605Y41731D01*
X769613Y41732D01*
X769615Y41726D01*
X770845Y41361D01*
X770853Y41364D01*
X770856Y41359D01*
X772137Y41277D01*
X772141Y41280D01*
X772143Y41277D01*
X773424Y41359D01*
G37*
G36*
X72384Y41359D02*
X72384Y41359D01*
X72390Y41365D01*
X72395Y41361D01*
X73625Y41726D01*
X73630Y41733D01*
X73635Y41731D01*
X74754Y42361D01*
X74757Y42368D01*
X74763Y42367D01*
X75713Y43230D01*
X75714Y43238D01*
X75720Y43238D01*
X76454Y44291D01*
X76454Y44299D01*
X76459Y44301D01*
X76941Y45491D01*
X76939Y45496D01*
X76943Y45499D01*
X76942Y45500D01*
X76944Y45501D01*
X77149Y46768D01*
X77146Y46773D01*
X77149Y46776D01*
X77149Y58776D01*
X77146Y58780D01*
X77149Y58783D01*
X76994Y59905D01*
X76989Y59910D01*
X76992Y59914D01*
X76621Y60985D01*
X76615Y60989D01*
X76617Y60994D01*
X76044Y61971D01*
X76038Y61974D01*
X76039Y61979D01*
X75286Y62826D01*
X75279Y62828D01*
X75279Y62833D01*
X74376Y63517D01*
X74369Y63517D01*
X74368Y63522D01*
X73349Y64017D01*
X73342Y64015D01*
X73340Y64020D01*
X72243Y64307D01*
X72237Y64304D01*
X72234Y64308D01*
X71103Y64375D01*
X71097Y64375D01*
X69966Y64308D01*
X69961Y64303D01*
X69957Y64307D01*
X68860Y64020D01*
X68856Y64014D01*
X68851Y64017D01*
X67832Y63522D01*
X67829Y63516D01*
X67824Y63517D01*
X66921Y62833D01*
X66919Y62826D01*
X66914Y62826D01*
X66161Y61979D01*
X66161Y61972D01*
X66156Y61971D01*
X65583Y60994D01*
X65584Y60991D01*
X65583Y60990D01*
X65584Y60989D01*
X65584Y60987D01*
X65579Y60985D01*
X65208Y59914D01*
X65210Y59909D01*
X65207Y59907D01*
X65207Y59906D01*
X65206Y59905D01*
X65051Y58783D01*
X65054Y58778D01*
X65051Y58776D01*
X65051Y46776D01*
X65054Y46771D01*
X65051Y46768D01*
X65256Y45501D01*
X65262Y45495D01*
X65259Y45491D01*
X65741Y44301D01*
X65748Y44297D01*
X65746Y44291D01*
X66480Y43238D01*
X66488Y43236D01*
X66487Y43230D01*
X67437Y42367D01*
X67446Y42366D01*
X67446Y42361D01*
X68565Y41731D01*
X68573Y41732D01*
X68575Y41726D01*
X69805Y41361D01*
X69813Y41364D01*
X69816Y41359D01*
X71097Y41277D01*
X71101Y41280D01*
X71103Y41277D01*
X72384Y41359D01*
G37*
G36*
X305951Y629467D02*
X305951Y629467D01*
X305956Y629472D01*
X305960Y629469D01*
X307083Y629804D01*
X307087Y629810D01*
X307091Y629808D01*
X308127Y630356D01*
X308130Y630362D01*
X308135Y630361D01*
X309043Y631100D01*
X309045Y631107D01*
X309050Y631107D01*
X309797Y632009D01*
X309797Y632017D01*
X309803Y632017D01*
X310359Y633048D01*
X310358Y633055D01*
X310363Y633057D01*
X310707Y634176D01*
X310705Y634183D01*
X310709Y634186D01*
X310829Y635351D01*
X310827Y635354D01*
X310829Y635356D01*
X310829Y641356D01*
X310827Y641359D01*
X310829Y641361D01*
X310718Y642537D01*
X310713Y642542D01*
X310716Y642546D01*
X310378Y643678D01*
X310372Y643682D01*
X310374Y643687D01*
X309822Y644731D01*
X309815Y644734D01*
X309817Y644739D01*
X309071Y645655D01*
X309064Y645656D01*
X309064Y645662D01*
X308155Y646415D01*
X308147Y646415D01*
X308147Y646420D01*
X307107Y646981D01*
X307100Y646980D01*
X307098Y646985D01*
X305969Y647332D01*
X305963Y647330D01*
X305960Y647334D01*
X304785Y647455D01*
X304778Y647451D01*
X304774Y647455D01*
X303434Y647298D01*
X303428Y647293D01*
X303423Y647296D01*
X302152Y646845D01*
X302147Y646838D01*
X302142Y646840D01*
X301003Y646118D01*
X301000Y646110D01*
X300994Y646111D01*
X300044Y645153D01*
X300043Y645145D01*
X300037Y645144D01*
X299324Y643999D01*
X299325Y643991D01*
X299319Y643989D01*
X298879Y642713D01*
X298881Y642706D01*
X298877Y642703D01*
X298731Y641361D01*
X298733Y641358D01*
X298731Y641356D01*
X298731Y635356D01*
X298733Y635353D01*
X298731Y635350D01*
X298886Y634021D01*
X298892Y634015D01*
X298889Y634011D01*
X299336Y632750D01*
X299343Y632745D01*
X299341Y632740D01*
X300058Y631610D01*
X300065Y631607D01*
X300064Y631601D01*
X301015Y630659D01*
X301023Y630658D01*
X301023Y630652D01*
X302159Y629945D01*
X302167Y629946D01*
X302169Y629940D01*
X303434Y629504D01*
X303439Y629505D01*
X303440Y629505D01*
X303443Y629505D01*
X303445Y629501D01*
X304775Y629357D01*
X304781Y629361D01*
X304785Y629357D01*
X305951Y629467D01*
G37*
G36*
X392351Y629467D02*
X392351Y629467D01*
X392356Y629472D01*
X392360Y629469D01*
X393483Y629804D01*
X393487Y629810D01*
X393491Y629808D01*
X394527Y630356D01*
X394530Y630362D01*
X394535Y630361D01*
X395443Y631100D01*
X395445Y631107D01*
X395450Y631107D01*
X396197Y632009D01*
X396197Y632017D01*
X396203Y632017D01*
X396759Y633048D01*
X396758Y633055D01*
X396763Y633057D01*
X397107Y634176D01*
X397105Y634183D01*
X397109Y634186D01*
X397229Y635351D01*
X397227Y635354D01*
X397229Y635356D01*
X397229Y641356D01*
X397227Y641359D01*
X397229Y641361D01*
X397118Y642537D01*
X397113Y642542D01*
X397116Y642546D01*
X396778Y643678D01*
X396772Y643682D01*
X396774Y643687D01*
X396222Y644731D01*
X396215Y644734D01*
X396217Y644739D01*
X395471Y645655D01*
X395464Y645656D01*
X395464Y645662D01*
X394555Y646415D01*
X394547Y646415D01*
X394547Y646420D01*
X393507Y646981D01*
X393500Y646980D01*
X393498Y646985D01*
X392369Y647332D01*
X392363Y647330D01*
X392360Y647334D01*
X391185Y647455D01*
X391178Y647451D01*
X391174Y647455D01*
X389834Y647298D01*
X389828Y647293D01*
X389823Y647296D01*
X388552Y646845D01*
X388547Y646838D01*
X388542Y646840D01*
X387403Y646118D01*
X387400Y646110D01*
X387394Y646111D01*
X386444Y645153D01*
X386443Y645145D01*
X386437Y645144D01*
X385724Y643999D01*
X385725Y643991D01*
X385719Y643989D01*
X385279Y642713D01*
X385281Y642706D01*
X385277Y642703D01*
X385131Y641361D01*
X385133Y641358D01*
X385131Y641356D01*
X385131Y635356D01*
X385133Y635353D01*
X385131Y635350D01*
X385286Y634021D01*
X385292Y634015D01*
X385289Y634011D01*
X385736Y632750D01*
X385743Y632745D01*
X385741Y632740D01*
X386458Y631610D01*
X386465Y631607D01*
X386464Y631601D01*
X387415Y630659D01*
X387423Y630658D01*
X387423Y630652D01*
X388559Y629945D01*
X388567Y629946D01*
X388569Y629940D01*
X389834Y629504D01*
X389839Y629505D01*
X389840Y629505D01*
X389843Y629505D01*
X389845Y629501D01*
X391175Y629357D01*
X391181Y629361D01*
X391185Y629357D01*
X392351Y629467D01*
G37*
G36*
X859711Y629467D02*
X859711Y629467D01*
X859716Y629472D01*
X859720Y629469D01*
X860843Y629804D01*
X860847Y629810D01*
X860851Y629808D01*
X861887Y630356D01*
X861890Y630362D01*
X861895Y630361D01*
X862803Y631100D01*
X862805Y631107D01*
X862810Y631107D01*
X863557Y632009D01*
X863557Y632017D01*
X863563Y632017D01*
X864119Y633048D01*
X864118Y633055D01*
X864123Y633057D01*
X864467Y634176D01*
X864465Y634183D01*
X864469Y634186D01*
X864589Y635351D01*
X864587Y635354D01*
X864589Y635356D01*
X864589Y641356D01*
X864587Y641359D01*
X864589Y641361D01*
X864478Y642537D01*
X864473Y642542D01*
X864476Y642546D01*
X864138Y643678D01*
X864132Y643682D01*
X864134Y643687D01*
X863582Y644731D01*
X863575Y644734D01*
X863577Y644739D01*
X862831Y645655D01*
X862824Y645656D01*
X862824Y645662D01*
X861915Y646415D01*
X861907Y646415D01*
X861907Y646420D01*
X860867Y646981D01*
X860860Y646980D01*
X860858Y646985D01*
X859729Y647332D01*
X859723Y647330D01*
X859720Y647334D01*
X858545Y647455D01*
X858538Y647451D01*
X858534Y647455D01*
X857194Y647298D01*
X857188Y647293D01*
X857183Y647296D01*
X855912Y646845D01*
X855907Y646838D01*
X855902Y646840D01*
X854763Y646118D01*
X854760Y646110D01*
X854754Y646111D01*
X853804Y645153D01*
X853803Y645145D01*
X853797Y645144D01*
X853084Y643999D01*
X853085Y643991D01*
X853079Y643989D01*
X852639Y642713D01*
X852641Y642706D01*
X852637Y642703D01*
X852491Y641361D01*
X852493Y641358D01*
X852491Y641356D01*
X852491Y635356D01*
X852493Y635353D01*
X852491Y635350D01*
X852646Y634021D01*
X852652Y634015D01*
X852649Y634011D01*
X853096Y632750D01*
X853103Y632745D01*
X853101Y632740D01*
X853818Y631610D01*
X853825Y631607D01*
X853824Y631601D01*
X854775Y630659D01*
X854783Y630658D01*
X854783Y630652D01*
X855919Y629945D01*
X855927Y629946D01*
X855929Y629940D01*
X857194Y629504D01*
X857199Y629505D01*
X857200Y629505D01*
X857203Y629505D01*
X857205Y629501D01*
X858535Y629357D01*
X858541Y629361D01*
X858545Y629357D01*
X859711Y629467D01*
G37*
G36*
X539631Y629467D02*
X539631Y629467D01*
X539636Y629472D01*
X539640Y629469D01*
X540763Y629804D01*
X540767Y629810D01*
X540771Y629808D01*
X541807Y630356D01*
X541810Y630362D01*
X541815Y630361D01*
X542723Y631100D01*
X542725Y631107D01*
X542730Y631107D01*
X543477Y632009D01*
X543477Y632017D01*
X543483Y632017D01*
X544039Y633048D01*
X544038Y633055D01*
X544043Y633057D01*
X544387Y634176D01*
X544385Y634183D01*
X544389Y634186D01*
X544509Y635351D01*
X544507Y635354D01*
X544509Y635356D01*
X544509Y641356D01*
X544507Y641359D01*
X544509Y641361D01*
X544398Y642537D01*
X544393Y642542D01*
X544396Y642546D01*
X544058Y643678D01*
X544052Y643682D01*
X544054Y643687D01*
X543502Y644731D01*
X543495Y644734D01*
X543497Y644739D01*
X542751Y645655D01*
X542744Y645656D01*
X542744Y645662D01*
X541835Y646415D01*
X541827Y646415D01*
X541827Y646420D01*
X540787Y646981D01*
X540780Y646980D01*
X540778Y646985D01*
X539649Y647332D01*
X539643Y647330D01*
X539640Y647334D01*
X538465Y647455D01*
X538458Y647451D01*
X538454Y647455D01*
X537114Y647298D01*
X537108Y647293D01*
X537103Y647296D01*
X535832Y646845D01*
X535827Y646838D01*
X535822Y646840D01*
X534683Y646118D01*
X534680Y646110D01*
X534674Y646111D01*
X533724Y645153D01*
X533723Y645145D01*
X533717Y645144D01*
X533004Y643999D01*
X533005Y643991D01*
X532999Y643989D01*
X532559Y642713D01*
X532561Y642706D01*
X532557Y642703D01*
X532411Y641361D01*
X532413Y641358D01*
X532411Y641356D01*
X532411Y635356D01*
X532413Y635353D01*
X532411Y635350D01*
X532566Y634021D01*
X532572Y634015D01*
X532569Y634011D01*
X533016Y632750D01*
X533023Y632745D01*
X533021Y632740D01*
X533738Y631610D01*
X533745Y631607D01*
X533744Y631601D01*
X534695Y630659D01*
X534703Y630658D01*
X534703Y630652D01*
X535839Y629945D01*
X535847Y629946D01*
X535849Y629940D01*
X537114Y629504D01*
X537119Y629505D01*
X537120Y629505D01*
X537123Y629505D01*
X537125Y629501D01*
X538455Y629357D01*
X538461Y629361D01*
X538465Y629357D01*
X539631Y629467D01*
G37*
G36*
X158671Y629467D02*
X158671Y629467D01*
X158676Y629472D01*
X158680Y629469D01*
X159803Y629804D01*
X159807Y629810D01*
X159811Y629808D01*
X160847Y630356D01*
X160850Y630362D01*
X160855Y630361D01*
X161763Y631100D01*
X161765Y631107D01*
X161770Y631107D01*
X162517Y632009D01*
X162517Y632017D01*
X162523Y632017D01*
X163079Y633048D01*
X163078Y633055D01*
X163083Y633057D01*
X163427Y634176D01*
X163425Y634183D01*
X163429Y634186D01*
X163549Y635351D01*
X163547Y635354D01*
X163549Y635356D01*
X163549Y641356D01*
X163547Y641359D01*
X163549Y641361D01*
X163438Y642537D01*
X163433Y642542D01*
X163436Y642546D01*
X163098Y643678D01*
X163092Y643682D01*
X163094Y643687D01*
X162542Y644731D01*
X162535Y644734D01*
X162537Y644739D01*
X161791Y645655D01*
X161784Y645656D01*
X161784Y645662D01*
X160875Y646415D01*
X160867Y646415D01*
X160867Y646420D01*
X159827Y646981D01*
X159820Y646980D01*
X159818Y646985D01*
X158689Y647332D01*
X158683Y647330D01*
X158680Y647334D01*
X157505Y647455D01*
X157498Y647451D01*
X157494Y647455D01*
X156154Y647298D01*
X156148Y647293D01*
X156143Y647296D01*
X154872Y646845D01*
X154867Y646838D01*
X154862Y646840D01*
X153723Y646118D01*
X153720Y646110D01*
X153714Y646111D01*
X152764Y645153D01*
X152763Y645145D01*
X152757Y645144D01*
X152044Y643999D01*
X152045Y643991D01*
X152039Y643989D01*
X151599Y642713D01*
X151601Y642706D01*
X151597Y642703D01*
X151451Y641361D01*
X151453Y641358D01*
X151451Y641356D01*
X151451Y635356D01*
X151453Y635353D01*
X151451Y635350D01*
X151606Y634021D01*
X151612Y634015D01*
X151609Y634011D01*
X152056Y632750D01*
X152063Y632745D01*
X152061Y632740D01*
X152778Y631610D01*
X152785Y631607D01*
X152784Y631601D01*
X153735Y630659D01*
X153743Y630658D01*
X153743Y630652D01*
X154879Y629945D01*
X154887Y629946D01*
X154889Y629940D01*
X156154Y629504D01*
X156159Y629505D01*
X156160Y629505D01*
X156163Y629505D01*
X156165Y629501D01*
X157495Y629357D01*
X157501Y629361D01*
X157505Y629357D01*
X158671Y629467D01*
G37*
G36*
X773311Y629467D02*
X773311Y629467D01*
X773316Y629472D01*
X773320Y629469D01*
X774443Y629804D01*
X774447Y629810D01*
X774451Y629808D01*
X775487Y630356D01*
X775490Y630362D01*
X775495Y630361D01*
X776403Y631100D01*
X776405Y631107D01*
X776410Y631107D01*
X777157Y632009D01*
X777157Y632017D01*
X777163Y632017D01*
X777719Y633048D01*
X777718Y633055D01*
X777723Y633057D01*
X778067Y634176D01*
X778065Y634183D01*
X778069Y634186D01*
X778189Y635351D01*
X778187Y635354D01*
X778189Y635356D01*
X778189Y641356D01*
X778187Y641359D01*
X778189Y641361D01*
X778078Y642537D01*
X778073Y642542D01*
X778076Y642546D01*
X777738Y643678D01*
X777732Y643682D01*
X777734Y643687D01*
X777182Y644731D01*
X777175Y644734D01*
X777177Y644739D01*
X776431Y645655D01*
X776424Y645656D01*
X776424Y645662D01*
X775515Y646415D01*
X775507Y646415D01*
X775507Y646420D01*
X774467Y646981D01*
X774460Y646980D01*
X774458Y646985D01*
X773329Y647332D01*
X773323Y647330D01*
X773320Y647334D01*
X772145Y647455D01*
X772138Y647451D01*
X772134Y647455D01*
X770794Y647298D01*
X770788Y647293D01*
X770783Y647296D01*
X769512Y646845D01*
X769507Y646838D01*
X769502Y646840D01*
X768363Y646118D01*
X768360Y646110D01*
X768354Y646111D01*
X767404Y645153D01*
X767403Y645145D01*
X767397Y645144D01*
X766684Y643999D01*
X766685Y643991D01*
X766679Y643989D01*
X766239Y642713D01*
X766241Y642706D01*
X766237Y642703D01*
X766091Y641361D01*
X766093Y641358D01*
X766091Y641356D01*
X766091Y635356D01*
X766093Y635353D01*
X766091Y635350D01*
X766246Y634021D01*
X766252Y634015D01*
X766249Y634011D01*
X766696Y632750D01*
X766703Y632745D01*
X766701Y632740D01*
X767418Y631610D01*
X767425Y631607D01*
X767424Y631601D01*
X768375Y630659D01*
X768383Y630658D01*
X768383Y630652D01*
X769519Y629945D01*
X769527Y629946D01*
X769529Y629940D01*
X770794Y629504D01*
X770799Y629505D01*
X770800Y629505D01*
X770803Y629505D01*
X770805Y629501D01*
X772135Y629357D01*
X772141Y629361D01*
X772145Y629357D01*
X773311Y629467D01*
G37*
G36*
X72271Y629467D02*
X72271Y629467D01*
X72276Y629472D01*
X72280Y629469D01*
X73403Y629804D01*
X73407Y629810D01*
X73411Y629808D01*
X74447Y630356D01*
X74450Y630362D01*
X74455Y630361D01*
X75363Y631100D01*
X75365Y631107D01*
X75370Y631107D01*
X76117Y632009D01*
X76117Y632017D01*
X76123Y632017D01*
X76679Y633048D01*
X76678Y633055D01*
X76683Y633057D01*
X77027Y634176D01*
X77025Y634183D01*
X77029Y634186D01*
X77149Y635351D01*
X77147Y635354D01*
X77149Y635356D01*
X77149Y641356D01*
X77147Y641359D01*
X77149Y641361D01*
X77038Y642537D01*
X77033Y642542D01*
X77036Y642546D01*
X76698Y643678D01*
X76692Y643682D01*
X76694Y643687D01*
X76142Y644731D01*
X76135Y644734D01*
X76137Y644739D01*
X75391Y645655D01*
X75384Y645656D01*
X75384Y645662D01*
X74475Y646415D01*
X74467Y646415D01*
X74467Y646420D01*
X73427Y646981D01*
X73420Y646980D01*
X73418Y646985D01*
X72289Y647332D01*
X72283Y647330D01*
X72280Y647334D01*
X71105Y647455D01*
X71098Y647451D01*
X71094Y647455D01*
X69754Y647298D01*
X69748Y647293D01*
X69743Y647296D01*
X68472Y646845D01*
X68467Y646838D01*
X68462Y646840D01*
X67323Y646118D01*
X67320Y646110D01*
X67314Y646111D01*
X66364Y645153D01*
X66363Y645145D01*
X66357Y645144D01*
X65644Y643999D01*
X65645Y643991D01*
X65639Y643989D01*
X65199Y642713D01*
X65201Y642706D01*
X65197Y642703D01*
X65051Y641361D01*
X65053Y641358D01*
X65051Y641356D01*
X65051Y635356D01*
X65053Y635353D01*
X65051Y635350D01*
X65206Y634021D01*
X65212Y634015D01*
X65209Y634011D01*
X65656Y632750D01*
X65663Y632745D01*
X65661Y632740D01*
X66378Y631610D01*
X66385Y631607D01*
X66384Y631601D01*
X67335Y630659D01*
X67343Y630658D01*
X67343Y630652D01*
X68479Y629945D01*
X68487Y629946D01*
X68489Y629940D01*
X69754Y629504D01*
X69759Y629505D01*
X69760Y629505D01*
X69763Y629505D01*
X69765Y629501D01*
X71095Y629357D01*
X71101Y629361D01*
X71105Y629357D01*
X72271Y629467D01*
G37*
G36*
X626031Y629467D02*
X626031Y629467D01*
X626036Y629472D01*
X626040Y629469D01*
X627163Y629804D01*
X627167Y629810D01*
X627171Y629808D01*
X628207Y630356D01*
X628210Y630362D01*
X628215Y630361D01*
X629123Y631100D01*
X629125Y631107D01*
X629130Y631107D01*
X629877Y632009D01*
X629877Y632017D01*
X629883Y632017D01*
X630439Y633048D01*
X630438Y633055D01*
X630443Y633057D01*
X630787Y634176D01*
X630785Y634183D01*
X630789Y634186D01*
X630909Y635351D01*
X630907Y635354D01*
X630909Y635356D01*
X630909Y641356D01*
X630907Y641359D01*
X630909Y641361D01*
X630798Y642537D01*
X630793Y642542D01*
X630796Y642546D01*
X630458Y643678D01*
X630452Y643682D01*
X630454Y643687D01*
X629902Y644731D01*
X629895Y644734D01*
X629897Y644739D01*
X629151Y645655D01*
X629144Y645656D01*
X629144Y645662D01*
X628235Y646415D01*
X628227Y646415D01*
X628227Y646420D01*
X627187Y646981D01*
X627180Y646980D01*
X627178Y646985D01*
X626049Y647332D01*
X626043Y647330D01*
X626040Y647334D01*
X624865Y647455D01*
X624858Y647451D01*
X624854Y647455D01*
X623514Y647298D01*
X623508Y647293D01*
X623503Y647296D01*
X622232Y646845D01*
X622227Y646838D01*
X622222Y646840D01*
X621083Y646118D01*
X621080Y646110D01*
X621074Y646111D01*
X620124Y645153D01*
X620123Y645145D01*
X620117Y645144D01*
X619404Y643999D01*
X619405Y643991D01*
X619399Y643989D01*
X618959Y642713D01*
X618961Y642706D01*
X618957Y642703D01*
X618811Y641361D01*
X618813Y641358D01*
X618811Y641356D01*
X618811Y635356D01*
X618813Y635353D01*
X618811Y635350D01*
X618966Y634021D01*
X618972Y634015D01*
X618969Y634011D01*
X619416Y632750D01*
X619423Y632745D01*
X619421Y632740D01*
X620138Y631610D01*
X620145Y631607D01*
X620144Y631601D01*
X621095Y630659D01*
X621103Y630658D01*
X621103Y630652D01*
X622239Y629945D01*
X622247Y629946D01*
X622249Y629940D01*
X623514Y629504D01*
X623519Y629505D01*
X623520Y629505D01*
X623523Y629505D01*
X623525Y629501D01*
X624855Y629357D01*
X624861Y629361D01*
X624865Y629357D01*
X626031Y629467D01*
G37*
G36*
X859711Y1256847D02*
X859711Y1256847D01*
X859716Y1256852D01*
X859720Y1256849D01*
X860843Y1257184D01*
X860847Y1257190D01*
X860851Y1257188D01*
X861887Y1257736D01*
X861890Y1257742D01*
X861895Y1257741D01*
X862803Y1258480D01*
X862805Y1258487D01*
X862810Y1258487D01*
X863557Y1259389D01*
X863557Y1259397D01*
X863563Y1259397D01*
X864119Y1260428D01*
X864118Y1260435D01*
X864123Y1260437D01*
X864467Y1261556D01*
X864465Y1261563D01*
X864469Y1261566D01*
X864589Y1262731D01*
X864587Y1262734D01*
X864589Y1262736D01*
X864589Y1268736D01*
X864587Y1268739D01*
X864589Y1268741D01*
X864478Y1269917D01*
X864473Y1269922D01*
X864476Y1269926D01*
X864138Y1271058D01*
X864132Y1271062D01*
X864134Y1271067D01*
X863582Y1272111D01*
X863575Y1272114D01*
X863577Y1272119D01*
X862831Y1273035D01*
X862824Y1273036D01*
X862824Y1273042D01*
X861915Y1273795D01*
X861907Y1273795D01*
X861907Y1273800D01*
X860867Y1274361D01*
X860860Y1274360D01*
X860858Y1274365D01*
X859729Y1274712D01*
X859723Y1274710D01*
X859720Y1274714D01*
X858545Y1274835D01*
X858538Y1274831D01*
X858534Y1274835D01*
X857194Y1274678D01*
X857188Y1274673D01*
X857183Y1274676D01*
X855912Y1274225D01*
X855907Y1274218D01*
X855902Y1274220D01*
X854763Y1273498D01*
X854760Y1273490D01*
X854754Y1273491D01*
X853804Y1272533D01*
X853803Y1272525D01*
X853797Y1272524D01*
X853084Y1271379D01*
X853085Y1271371D01*
X853079Y1271369D01*
X852639Y1270093D01*
X852641Y1270086D01*
X852637Y1270083D01*
X852491Y1268741D01*
X852493Y1268738D01*
X852491Y1268736D01*
X852491Y1262736D01*
X852493Y1262733D01*
X852491Y1262730D01*
X852646Y1261401D01*
X852652Y1261395D01*
X852649Y1261391D01*
X853096Y1260130D01*
X853103Y1260125D01*
X853101Y1260120D01*
X853818Y1258990D01*
X853825Y1258987D01*
X853824Y1258981D01*
X854775Y1258039D01*
X854783Y1258038D01*
X854783Y1258032D01*
X855919Y1257325D01*
X855927Y1257326D01*
X855929Y1257320D01*
X857194Y1256884D01*
X857199Y1256885D01*
X857200Y1256885D01*
X857203Y1256885D01*
X857205Y1256881D01*
X858535Y1256737D01*
X858541Y1256741D01*
X858545Y1256737D01*
X859711Y1256847D01*
G37*
G36*
X158671Y1256847D02*
X158671Y1256847D01*
X158676Y1256852D01*
X158680Y1256849D01*
X159803Y1257184D01*
X159807Y1257190D01*
X159811Y1257188D01*
X160847Y1257736D01*
X160850Y1257742D01*
X160855Y1257741D01*
X161763Y1258480D01*
X161765Y1258487D01*
X161770Y1258487D01*
X162517Y1259389D01*
X162517Y1259397D01*
X162523Y1259397D01*
X163079Y1260428D01*
X163078Y1260435D01*
X163083Y1260437D01*
X163427Y1261556D01*
X163425Y1261563D01*
X163429Y1261566D01*
X163549Y1262731D01*
X163547Y1262734D01*
X163549Y1262736D01*
X163549Y1268736D01*
X163547Y1268739D01*
X163549Y1268741D01*
X163438Y1269917D01*
X163433Y1269922D01*
X163436Y1269926D01*
X163098Y1271058D01*
X163092Y1271062D01*
X163094Y1271067D01*
X162542Y1272111D01*
X162535Y1272114D01*
X162537Y1272119D01*
X161791Y1273035D01*
X161784Y1273036D01*
X161784Y1273042D01*
X160875Y1273795D01*
X160867Y1273795D01*
X160867Y1273800D01*
X159827Y1274361D01*
X159820Y1274360D01*
X159818Y1274365D01*
X158689Y1274712D01*
X158683Y1274710D01*
X158680Y1274714D01*
X157505Y1274835D01*
X157498Y1274831D01*
X157494Y1274835D01*
X156154Y1274678D01*
X156148Y1274673D01*
X156143Y1274676D01*
X154872Y1274225D01*
X154867Y1274218D01*
X154862Y1274220D01*
X153723Y1273498D01*
X153720Y1273490D01*
X153714Y1273491D01*
X152764Y1272533D01*
X152763Y1272525D01*
X152757Y1272524D01*
X152044Y1271379D01*
X152045Y1271371D01*
X152039Y1271369D01*
X151599Y1270093D01*
X151601Y1270086D01*
X151597Y1270083D01*
X151451Y1268741D01*
X151453Y1268738D01*
X151451Y1268736D01*
X151451Y1262736D01*
X151453Y1262733D01*
X151451Y1262730D01*
X151606Y1261401D01*
X151612Y1261395D01*
X151609Y1261391D01*
X152056Y1260130D01*
X152063Y1260125D01*
X152061Y1260120D01*
X152778Y1258990D01*
X152785Y1258987D01*
X152784Y1258981D01*
X153735Y1258039D01*
X153743Y1258038D01*
X153743Y1258032D01*
X154879Y1257325D01*
X154887Y1257326D01*
X154889Y1257320D01*
X156154Y1256884D01*
X156159Y1256885D01*
X156160Y1256885D01*
X156163Y1256885D01*
X156165Y1256881D01*
X157495Y1256737D01*
X157501Y1256741D01*
X157505Y1256737D01*
X158671Y1256847D01*
G37*
G36*
X773311Y1256847D02*
X773311Y1256847D01*
X773316Y1256852D01*
X773320Y1256849D01*
X774443Y1257184D01*
X774447Y1257190D01*
X774451Y1257188D01*
X775487Y1257736D01*
X775490Y1257742D01*
X775495Y1257741D01*
X776403Y1258480D01*
X776405Y1258487D01*
X776410Y1258487D01*
X777157Y1259389D01*
X777157Y1259397D01*
X777163Y1259397D01*
X777719Y1260428D01*
X777718Y1260435D01*
X777723Y1260437D01*
X778067Y1261556D01*
X778065Y1261563D01*
X778069Y1261566D01*
X778189Y1262731D01*
X778187Y1262734D01*
X778189Y1262736D01*
X778189Y1268736D01*
X778187Y1268739D01*
X778189Y1268741D01*
X778078Y1269917D01*
X778073Y1269922D01*
X778076Y1269926D01*
X777738Y1271058D01*
X777732Y1271062D01*
X777734Y1271067D01*
X777182Y1272111D01*
X777175Y1272114D01*
X777177Y1272119D01*
X776431Y1273035D01*
X776424Y1273036D01*
X776424Y1273042D01*
X775515Y1273795D01*
X775507Y1273795D01*
X775507Y1273800D01*
X774467Y1274361D01*
X774460Y1274360D01*
X774458Y1274365D01*
X773329Y1274712D01*
X773323Y1274710D01*
X773320Y1274714D01*
X772145Y1274835D01*
X772138Y1274831D01*
X772134Y1274835D01*
X770794Y1274678D01*
X770788Y1274673D01*
X770783Y1274676D01*
X769512Y1274225D01*
X769507Y1274218D01*
X769502Y1274220D01*
X768363Y1273498D01*
X768360Y1273490D01*
X768354Y1273491D01*
X767404Y1272533D01*
X767403Y1272525D01*
X767397Y1272524D01*
X766684Y1271379D01*
X766685Y1271371D01*
X766679Y1271369D01*
X766239Y1270093D01*
X766241Y1270086D01*
X766237Y1270083D01*
X766091Y1268741D01*
X766093Y1268738D01*
X766091Y1268736D01*
X766091Y1262736D01*
X766093Y1262733D01*
X766091Y1262730D01*
X766246Y1261401D01*
X766252Y1261395D01*
X766249Y1261391D01*
X766696Y1260130D01*
X766703Y1260125D01*
X766701Y1260120D01*
X767418Y1258990D01*
X767425Y1258987D01*
X767424Y1258981D01*
X768375Y1258039D01*
X768383Y1258038D01*
X768383Y1258032D01*
X769519Y1257325D01*
X769527Y1257326D01*
X769529Y1257320D01*
X770794Y1256884D01*
X770799Y1256885D01*
X770800Y1256885D01*
X770803Y1256885D01*
X770805Y1256881D01*
X772135Y1256737D01*
X772141Y1256741D01*
X772145Y1256737D01*
X773311Y1256847D01*
G37*
G36*
X626031Y1256847D02*
X626031Y1256847D01*
X626036Y1256852D01*
X626040Y1256849D01*
X627163Y1257184D01*
X627167Y1257190D01*
X627171Y1257188D01*
X628207Y1257736D01*
X628210Y1257742D01*
X628215Y1257741D01*
X629123Y1258480D01*
X629125Y1258487D01*
X629130Y1258487D01*
X629877Y1259389D01*
X629877Y1259397D01*
X629883Y1259397D01*
X630439Y1260428D01*
X630438Y1260435D01*
X630443Y1260437D01*
X630787Y1261556D01*
X630785Y1261563D01*
X630789Y1261566D01*
X630909Y1262731D01*
X630907Y1262734D01*
X630909Y1262736D01*
X630909Y1268736D01*
X630907Y1268739D01*
X630909Y1268741D01*
X630798Y1269917D01*
X630793Y1269922D01*
X630796Y1269926D01*
X630458Y1271058D01*
X630452Y1271062D01*
X630454Y1271067D01*
X629902Y1272111D01*
X629895Y1272114D01*
X629897Y1272119D01*
X629151Y1273035D01*
X629144Y1273036D01*
X629144Y1273042D01*
X628235Y1273795D01*
X628227Y1273795D01*
X628227Y1273800D01*
X627187Y1274361D01*
X627180Y1274360D01*
X627178Y1274365D01*
X626049Y1274712D01*
X626043Y1274710D01*
X626040Y1274714D01*
X624865Y1274835D01*
X624858Y1274831D01*
X624854Y1274835D01*
X623514Y1274678D01*
X623508Y1274673D01*
X623503Y1274676D01*
X622232Y1274225D01*
X622227Y1274218D01*
X622222Y1274220D01*
X621083Y1273498D01*
X621080Y1273490D01*
X621074Y1273491D01*
X620124Y1272533D01*
X620123Y1272525D01*
X620117Y1272524D01*
X619404Y1271379D01*
X619405Y1271371D01*
X619399Y1271369D01*
X618959Y1270093D01*
X618961Y1270086D01*
X618957Y1270083D01*
X618811Y1268741D01*
X618813Y1268738D01*
X618811Y1268736D01*
X618811Y1262736D01*
X618813Y1262733D01*
X618811Y1262730D01*
X618966Y1261401D01*
X618972Y1261395D01*
X618969Y1261391D01*
X619416Y1260130D01*
X619423Y1260125D01*
X619421Y1260120D01*
X620138Y1258990D01*
X620145Y1258987D01*
X620144Y1258981D01*
X621095Y1258039D01*
X621103Y1258038D01*
X621103Y1258032D01*
X622239Y1257325D01*
X622247Y1257326D01*
X622249Y1257320D01*
X623514Y1256884D01*
X623519Y1256885D01*
X623520Y1256885D01*
X623523Y1256885D01*
X623525Y1256881D01*
X624855Y1256737D01*
X624861Y1256741D01*
X624865Y1256737D01*
X626031Y1256847D01*
G37*
G36*
X305951Y1256847D02*
X305951Y1256847D01*
X305956Y1256852D01*
X305960Y1256849D01*
X307083Y1257184D01*
X307087Y1257190D01*
X307091Y1257188D01*
X308127Y1257736D01*
X308130Y1257742D01*
X308135Y1257741D01*
X309043Y1258480D01*
X309045Y1258487D01*
X309050Y1258487D01*
X309797Y1259389D01*
X309797Y1259397D01*
X309803Y1259397D01*
X310359Y1260428D01*
X310358Y1260435D01*
X310363Y1260437D01*
X310707Y1261556D01*
X310705Y1261563D01*
X310709Y1261566D01*
X310829Y1262731D01*
X310827Y1262734D01*
X310829Y1262736D01*
X310829Y1268736D01*
X310827Y1268739D01*
X310829Y1268741D01*
X310718Y1269917D01*
X310713Y1269922D01*
X310716Y1269926D01*
X310378Y1271058D01*
X310372Y1271062D01*
X310374Y1271067D01*
X309822Y1272111D01*
X309815Y1272114D01*
X309817Y1272119D01*
X309071Y1273035D01*
X309064Y1273036D01*
X309064Y1273042D01*
X308155Y1273795D01*
X308147Y1273795D01*
X308147Y1273800D01*
X307107Y1274361D01*
X307100Y1274360D01*
X307098Y1274365D01*
X305969Y1274712D01*
X305963Y1274710D01*
X305960Y1274714D01*
X304785Y1274835D01*
X304778Y1274831D01*
X304774Y1274835D01*
X303434Y1274678D01*
X303428Y1274673D01*
X303423Y1274676D01*
X302152Y1274225D01*
X302147Y1274218D01*
X302142Y1274220D01*
X301003Y1273498D01*
X301000Y1273490D01*
X300994Y1273491D01*
X300044Y1272533D01*
X300043Y1272525D01*
X300037Y1272524D01*
X299324Y1271379D01*
X299325Y1271371D01*
X299319Y1271369D01*
X298879Y1270093D01*
X298881Y1270086D01*
X298877Y1270083D01*
X298731Y1268741D01*
X298733Y1268738D01*
X298731Y1268736D01*
X298731Y1262736D01*
X298733Y1262733D01*
X298731Y1262730D01*
X298886Y1261401D01*
X298892Y1261395D01*
X298889Y1261391D01*
X299336Y1260130D01*
X299343Y1260125D01*
X299341Y1260120D01*
X300058Y1258990D01*
X300065Y1258987D01*
X300064Y1258981D01*
X301015Y1258039D01*
X301023Y1258038D01*
X301023Y1258032D01*
X302159Y1257325D01*
X302167Y1257326D01*
X302169Y1257320D01*
X303434Y1256884D01*
X303439Y1256885D01*
X303440Y1256885D01*
X303443Y1256885D01*
X303445Y1256881D01*
X304775Y1256737D01*
X304781Y1256741D01*
X304785Y1256737D01*
X305951Y1256847D01*
G37*
G36*
X539631Y1256847D02*
X539631Y1256847D01*
X539636Y1256852D01*
X539640Y1256849D01*
X540763Y1257184D01*
X540767Y1257190D01*
X540771Y1257188D01*
X541807Y1257736D01*
X541810Y1257742D01*
X541815Y1257741D01*
X542723Y1258480D01*
X542725Y1258487D01*
X542730Y1258487D01*
X543477Y1259389D01*
X543477Y1259397D01*
X543483Y1259397D01*
X544039Y1260428D01*
X544038Y1260435D01*
X544043Y1260437D01*
X544387Y1261556D01*
X544385Y1261563D01*
X544389Y1261566D01*
X544509Y1262731D01*
X544507Y1262734D01*
X544509Y1262736D01*
X544509Y1268736D01*
X544507Y1268739D01*
X544509Y1268741D01*
X544398Y1269917D01*
X544393Y1269922D01*
X544396Y1269926D01*
X544058Y1271058D01*
X544052Y1271062D01*
X544054Y1271067D01*
X543502Y1272111D01*
X543495Y1272114D01*
X543497Y1272119D01*
X542751Y1273035D01*
X542744Y1273036D01*
X542744Y1273042D01*
X541835Y1273795D01*
X541827Y1273795D01*
X541827Y1273800D01*
X540787Y1274361D01*
X540780Y1274360D01*
X540778Y1274365D01*
X539649Y1274712D01*
X539643Y1274710D01*
X539640Y1274714D01*
X538465Y1274835D01*
X538458Y1274831D01*
X538454Y1274835D01*
X537114Y1274678D01*
X537108Y1274673D01*
X537103Y1274676D01*
X535832Y1274225D01*
X535827Y1274218D01*
X535822Y1274220D01*
X534683Y1273498D01*
X534680Y1273490D01*
X534674Y1273491D01*
X533724Y1272533D01*
X533723Y1272525D01*
X533717Y1272524D01*
X533004Y1271379D01*
X533005Y1271371D01*
X532999Y1271369D01*
X532559Y1270093D01*
X532561Y1270086D01*
X532557Y1270083D01*
X532411Y1268741D01*
X532413Y1268738D01*
X532411Y1268736D01*
X532411Y1262736D01*
X532413Y1262733D01*
X532411Y1262730D01*
X532566Y1261401D01*
X532572Y1261395D01*
X532569Y1261391D01*
X533016Y1260130D01*
X533023Y1260125D01*
X533021Y1260120D01*
X533738Y1258990D01*
X533745Y1258987D01*
X533744Y1258981D01*
X534695Y1258039D01*
X534703Y1258038D01*
X534703Y1258032D01*
X535839Y1257325D01*
X535847Y1257326D01*
X535849Y1257320D01*
X537114Y1256884D01*
X537119Y1256885D01*
X537120Y1256885D01*
X537123Y1256885D01*
X537125Y1256881D01*
X538455Y1256737D01*
X538461Y1256741D01*
X538465Y1256737D01*
X539631Y1256847D01*
G37*
G36*
X392351Y1256847D02*
X392351Y1256847D01*
X392356Y1256852D01*
X392360Y1256849D01*
X393483Y1257184D01*
X393487Y1257190D01*
X393491Y1257188D01*
X394527Y1257736D01*
X394530Y1257742D01*
X394535Y1257741D01*
X395443Y1258480D01*
X395445Y1258487D01*
X395450Y1258487D01*
X396197Y1259389D01*
X396197Y1259397D01*
X396203Y1259397D01*
X396759Y1260428D01*
X396758Y1260435D01*
X396763Y1260437D01*
X397107Y1261556D01*
X397105Y1261563D01*
X397109Y1261566D01*
X397229Y1262731D01*
X397227Y1262734D01*
X397229Y1262736D01*
X397229Y1268736D01*
X397227Y1268739D01*
X397229Y1268741D01*
X397118Y1269917D01*
X397113Y1269922D01*
X397116Y1269926D01*
X396778Y1271058D01*
X396772Y1271062D01*
X396774Y1271067D01*
X396222Y1272111D01*
X396215Y1272114D01*
X396217Y1272119D01*
X395471Y1273035D01*
X395464Y1273036D01*
X395464Y1273042D01*
X394555Y1273795D01*
X394547Y1273795D01*
X394547Y1273800D01*
X393507Y1274361D01*
X393500Y1274360D01*
X393498Y1274365D01*
X392369Y1274712D01*
X392363Y1274710D01*
X392360Y1274714D01*
X391185Y1274835D01*
X391178Y1274831D01*
X391174Y1274835D01*
X389834Y1274678D01*
X389828Y1274673D01*
X389823Y1274676D01*
X388552Y1274225D01*
X388547Y1274218D01*
X388542Y1274220D01*
X387403Y1273498D01*
X387400Y1273490D01*
X387394Y1273491D01*
X386444Y1272533D01*
X386443Y1272525D01*
X386437Y1272524D01*
X385724Y1271379D01*
X385725Y1271371D01*
X385719Y1271369D01*
X385279Y1270093D01*
X385281Y1270086D01*
X385277Y1270083D01*
X385131Y1268741D01*
X385133Y1268738D01*
X385131Y1268736D01*
X385131Y1262736D01*
X385133Y1262733D01*
X385131Y1262730D01*
X385286Y1261401D01*
X385292Y1261395D01*
X385289Y1261391D01*
X385736Y1260130D01*
X385743Y1260125D01*
X385741Y1260120D01*
X386458Y1258990D01*
X386465Y1258987D01*
X386464Y1258981D01*
X387415Y1258039D01*
X387423Y1258038D01*
X387423Y1258032D01*
X388559Y1257325D01*
X388567Y1257326D01*
X388569Y1257320D01*
X389834Y1256884D01*
X389839Y1256885D01*
X389840Y1256885D01*
X389843Y1256885D01*
X389845Y1256881D01*
X391175Y1256737D01*
X391181Y1256741D01*
X391185Y1256737D01*
X392351Y1256847D01*
G37*
G36*
X72271Y1256847D02*
X72271Y1256847D01*
X72276Y1256852D01*
X72280Y1256849D01*
X73403Y1257184D01*
X73407Y1257190D01*
X73411Y1257188D01*
X74447Y1257736D01*
X74450Y1257742D01*
X74455Y1257741D01*
X75363Y1258480D01*
X75365Y1258487D01*
X75370Y1258487D01*
X76117Y1259389D01*
X76117Y1259397D01*
X76123Y1259397D01*
X76679Y1260428D01*
X76678Y1260435D01*
X76683Y1260437D01*
X77027Y1261556D01*
X77025Y1261563D01*
X77029Y1261566D01*
X77149Y1262731D01*
X77147Y1262734D01*
X77149Y1262736D01*
X77149Y1268736D01*
X77147Y1268739D01*
X77149Y1268741D01*
X77038Y1269917D01*
X77033Y1269922D01*
X77036Y1269926D01*
X76698Y1271058D01*
X76692Y1271062D01*
X76694Y1271067D01*
X76142Y1272111D01*
X76135Y1272114D01*
X76137Y1272119D01*
X75391Y1273035D01*
X75384Y1273036D01*
X75384Y1273042D01*
X74475Y1273795D01*
X74467Y1273795D01*
X74467Y1273800D01*
X73427Y1274361D01*
X73420Y1274360D01*
X73418Y1274365D01*
X72289Y1274712D01*
X72283Y1274710D01*
X72280Y1274714D01*
X71105Y1274835D01*
X71098Y1274831D01*
X71094Y1274835D01*
X69754Y1274678D01*
X69748Y1274673D01*
X69743Y1274676D01*
X68472Y1274225D01*
X68467Y1274218D01*
X68462Y1274220D01*
X67323Y1273498D01*
X67320Y1273490D01*
X67314Y1273491D01*
X66364Y1272533D01*
X66363Y1272525D01*
X66357Y1272524D01*
X65644Y1271379D01*
X65645Y1271371D01*
X65639Y1271369D01*
X65199Y1270093D01*
X65201Y1270086D01*
X65197Y1270083D01*
X65051Y1268741D01*
X65053Y1268738D01*
X65051Y1268736D01*
X65051Y1262736D01*
X65053Y1262733D01*
X65051Y1262730D01*
X65206Y1261401D01*
X65212Y1261395D01*
X65209Y1261391D01*
X65656Y1260130D01*
X65663Y1260125D01*
X65661Y1260120D01*
X66378Y1258990D01*
X66385Y1258987D01*
X66384Y1258981D01*
X67335Y1258039D01*
X67343Y1258038D01*
X67343Y1258032D01*
X68479Y1257325D01*
X68487Y1257326D01*
X68489Y1257320D01*
X69754Y1256884D01*
X69759Y1256885D01*
X69760Y1256885D01*
X69763Y1256885D01*
X69765Y1256881D01*
X71095Y1256737D01*
X71101Y1256741D01*
X71105Y1256737D01*
X72271Y1256847D01*
G37*
G36*
X626031Y2087D02*
X626031Y2087D01*
X626036Y2092D01*
X626040Y2089D01*
X627163Y2424D01*
X627167Y2430D01*
X627171Y2428D01*
X628207Y2976D01*
X628210Y2982D01*
X628215Y2981D01*
X629123Y3720D01*
X629125Y3727D01*
X629130Y3727D01*
X629877Y4629D01*
X629877Y4637D01*
X629883Y4637D01*
X630439Y5668D01*
X630438Y5675D01*
X630443Y5677D01*
X630787Y6796D01*
X630785Y6803D01*
X630789Y6806D01*
X630909Y7971D01*
X630907Y7974D01*
X630909Y7976D01*
X630909Y13976D01*
X630907Y13979D01*
X630909Y13981D01*
X630798Y15157D01*
X630793Y15162D01*
X630796Y15166D01*
X630458Y16298D01*
X630452Y16302D01*
X630454Y16307D01*
X629902Y17351D01*
X629895Y17354D01*
X629897Y17359D01*
X629151Y18275D01*
X629144Y18276D01*
X629144Y18282D01*
X628235Y19035D01*
X628227Y19035D01*
X628227Y19040D01*
X627187Y19601D01*
X627180Y19600D01*
X627178Y19605D01*
X626049Y19952D01*
X626043Y19950D01*
X626040Y19954D01*
X624865Y20075D01*
X624858Y20071D01*
X624854Y20075D01*
X623514Y19918D01*
X623508Y19913D01*
X623503Y19916D01*
X622232Y19465D01*
X622227Y19458D01*
X622222Y19460D01*
X621083Y18738D01*
X621080Y18730D01*
X621074Y18731D01*
X620124Y17773D01*
X620123Y17765D01*
X620117Y17764D01*
X619404Y16619D01*
X619405Y16611D01*
X619399Y16609D01*
X618959Y15333D01*
X618961Y15326D01*
X618957Y15323D01*
X618811Y13981D01*
X618813Y13978D01*
X618811Y13976D01*
X618811Y7976D01*
X618813Y7973D01*
X618811Y7970D01*
X618966Y6641D01*
X618972Y6635D01*
X618969Y6631D01*
X619416Y5370D01*
X619423Y5365D01*
X619421Y5360D01*
X620138Y4230D01*
X620145Y4227D01*
X620144Y4221D01*
X621095Y3279D01*
X621103Y3278D01*
X621103Y3272D01*
X622239Y2565D01*
X622247Y2566D01*
X622249Y2560D01*
X623514Y2124D01*
X623519Y2125D01*
X623520Y2125D01*
X623523Y2125D01*
X623525Y2121D01*
X624855Y1977D01*
X624861Y1981D01*
X624865Y1977D01*
X626031Y2087D01*
G37*
G36*
X773311Y2087D02*
X773311Y2087D01*
X773316Y2092D01*
X773320Y2089D01*
X774443Y2424D01*
X774447Y2430D01*
X774451Y2428D01*
X775487Y2976D01*
X775490Y2982D01*
X775495Y2981D01*
X776403Y3720D01*
X776405Y3727D01*
X776410Y3727D01*
X777157Y4629D01*
X777157Y4637D01*
X777163Y4637D01*
X777719Y5668D01*
X777718Y5675D01*
X777723Y5677D01*
X778067Y6796D01*
X778065Y6803D01*
X778069Y6806D01*
X778189Y7971D01*
X778187Y7974D01*
X778189Y7976D01*
X778189Y13976D01*
X778187Y13979D01*
X778189Y13981D01*
X778078Y15157D01*
X778073Y15162D01*
X778076Y15166D01*
X777738Y16298D01*
X777732Y16302D01*
X777734Y16307D01*
X777182Y17351D01*
X777175Y17354D01*
X777177Y17359D01*
X776431Y18275D01*
X776424Y18276D01*
X776424Y18282D01*
X775515Y19035D01*
X775507Y19035D01*
X775507Y19040D01*
X774467Y19601D01*
X774460Y19600D01*
X774458Y19605D01*
X773329Y19952D01*
X773323Y19950D01*
X773320Y19954D01*
X772145Y20075D01*
X772138Y20071D01*
X772134Y20075D01*
X770794Y19918D01*
X770788Y19913D01*
X770783Y19916D01*
X769512Y19465D01*
X769507Y19458D01*
X769502Y19460D01*
X768363Y18738D01*
X768360Y18730D01*
X768354Y18731D01*
X767404Y17773D01*
X767403Y17765D01*
X767397Y17764D01*
X766684Y16619D01*
X766685Y16611D01*
X766679Y16609D01*
X766239Y15333D01*
X766241Y15326D01*
X766237Y15323D01*
X766091Y13981D01*
X766093Y13978D01*
X766091Y13976D01*
X766091Y7976D01*
X766093Y7973D01*
X766091Y7970D01*
X766246Y6641D01*
X766252Y6635D01*
X766249Y6631D01*
X766696Y5370D01*
X766703Y5365D01*
X766701Y5360D01*
X767418Y4230D01*
X767425Y4227D01*
X767424Y4221D01*
X768375Y3279D01*
X768383Y3278D01*
X768383Y3272D01*
X769519Y2565D01*
X769527Y2566D01*
X769529Y2560D01*
X770794Y2124D01*
X770799Y2125D01*
X770800Y2125D01*
X770803Y2125D01*
X770805Y2121D01*
X772135Y1977D01*
X772141Y1981D01*
X772145Y1977D01*
X773311Y2087D01*
G37*
G36*
X72271Y2087D02*
X72271Y2087D01*
X72276Y2092D01*
X72280Y2089D01*
X73403Y2424D01*
X73407Y2430D01*
X73411Y2428D01*
X74447Y2976D01*
X74450Y2982D01*
X74455Y2981D01*
X75363Y3720D01*
X75365Y3727D01*
X75370Y3727D01*
X76117Y4629D01*
X76117Y4637D01*
X76123Y4637D01*
X76679Y5668D01*
X76678Y5675D01*
X76683Y5677D01*
X77027Y6796D01*
X77025Y6803D01*
X77029Y6806D01*
X77149Y7971D01*
X77147Y7974D01*
X77149Y7976D01*
X77149Y13976D01*
X77147Y13979D01*
X77149Y13981D01*
X77038Y15157D01*
X77033Y15162D01*
X77036Y15166D01*
X76698Y16298D01*
X76692Y16302D01*
X76694Y16307D01*
X76142Y17351D01*
X76135Y17354D01*
X76137Y17359D01*
X75391Y18275D01*
X75384Y18276D01*
X75384Y18282D01*
X74475Y19035D01*
X74467Y19035D01*
X74467Y19040D01*
X73427Y19601D01*
X73420Y19600D01*
X73418Y19605D01*
X72289Y19952D01*
X72283Y19950D01*
X72280Y19954D01*
X71105Y20075D01*
X71098Y20071D01*
X71094Y20075D01*
X69754Y19918D01*
X69748Y19913D01*
X69743Y19916D01*
X68472Y19465D01*
X68467Y19458D01*
X68462Y19460D01*
X67323Y18738D01*
X67320Y18730D01*
X67314Y18731D01*
X66364Y17773D01*
X66363Y17765D01*
X66357Y17764D01*
X65644Y16619D01*
X65645Y16611D01*
X65639Y16609D01*
X65199Y15333D01*
X65201Y15326D01*
X65197Y15323D01*
X65051Y13981D01*
X65053Y13978D01*
X65051Y13976D01*
X65051Y7976D01*
X65053Y7973D01*
X65051Y7970D01*
X65206Y6641D01*
X65212Y6635D01*
X65209Y6631D01*
X65656Y5370D01*
X65663Y5365D01*
X65661Y5360D01*
X66378Y4230D01*
X66385Y4227D01*
X66384Y4221D01*
X67335Y3279D01*
X67343Y3278D01*
X67343Y3272D01*
X68479Y2565D01*
X68487Y2566D01*
X68489Y2560D01*
X69754Y2124D01*
X69759Y2125D01*
X69760Y2125D01*
X69763Y2125D01*
X69765Y2121D01*
X71095Y1977D01*
X71101Y1981D01*
X71105Y1977D01*
X72271Y2087D01*
G37*
G36*
X859711Y2087D02*
X859711Y2087D01*
X859716Y2092D01*
X859720Y2089D01*
X860843Y2424D01*
X860847Y2430D01*
X860851Y2428D01*
X861887Y2976D01*
X861890Y2982D01*
X861895Y2981D01*
X862803Y3720D01*
X862805Y3727D01*
X862810Y3727D01*
X863557Y4629D01*
X863557Y4637D01*
X863563Y4637D01*
X864119Y5668D01*
X864118Y5675D01*
X864123Y5677D01*
X864467Y6796D01*
X864465Y6803D01*
X864469Y6806D01*
X864589Y7971D01*
X864587Y7974D01*
X864589Y7976D01*
X864589Y13976D01*
X864587Y13979D01*
X864589Y13981D01*
X864478Y15157D01*
X864473Y15162D01*
X864476Y15166D01*
X864138Y16298D01*
X864132Y16302D01*
X864134Y16307D01*
X863582Y17351D01*
X863575Y17354D01*
X863577Y17359D01*
X862831Y18275D01*
X862824Y18276D01*
X862824Y18282D01*
X861915Y19035D01*
X861907Y19035D01*
X861907Y19040D01*
X860867Y19601D01*
X860860Y19600D01*
X860858Y19605D01*
X859729Y19952D01*
X859723Y19950D01*
X859720Y19954D01*
X858545Y20075D01*
X858538Y20071D01*
X858534Y20075D01*
X857194Y19918D01*
X857188Y19913D01*
X857183Y19916D01*
X855912Y19465D01*
X855907Y19458D01*
X855902Y19460D01*
X854763Y18738D01*
X854760Y18730D01*
X854754Y18731D01*
X853804Y17773D01*
X853803Y17765D01*
X853797Y17764D01*
X853084Y16619D01*
X853085Y16611D01*
X853079Y16609D01*
X852639Y15333D01*
X852641Y15326D01*
X852637Y15323D01*
X852491Y13981D01*
X852493Y13978D01*
X852491Y13976D01*
X852491Y7976D01*
X852493Y7973D01*
X852491Y7970D01*
X852646Y6641D01*
X852652Y6635D01*
X852649Y6631D01*
X853096Y5370D01*
X853103Y5365D01*
X853101Y5360D01*
X853818Y4230D01*
X853825Y4227D01*
X853824Y4221D01*
X854775Y3279D01*
X854783Y3278D01*
X854783Y3272D01*
X855919Y2565D01*
X855927Y2566D01*
X855929Y2560D01*
X857194Y2124D01*
X857199Y2125D01*
X857200Y2125D01*
X857203Y2125D01*
X857205Y2121D01*
X858535Y1977D01*
X858541Y1981D01*
X858545Y1977D01*
X859711Y2087D01*
G37*
G36*
X158671Y2087D02*
X158671Y2087D01*
X158676Y2092D01*
X158680Y2089D01*
X159803Y2424D01*
X159807Y2430D01*
X159811Y2428D01*
X160847Y2976D01*
X160850Y2982D01*
X160855Y2981D01*
X161763Y3720D01*
X161765Y3727D01*
X161770Y3727D01*
X162517Y4629D01*
X162517Y4637D01*
X162523Y4637D01*
X163079Y5668D01*
X163078Y5675D01*
X163083Y5677D01*
X163427Y6796D01*
X163425Y6803D01*
X163429Y6806D01*
X163549Y7971D01*
X163547Y7974D01*
X163549Y7976D01*
X163549Y13976D01*
X163547Y13979D01*
X163549Y13981D01*
X163438Y15157D01*
X163433Y15162D01*
X163436Y15166D01*
X163098Y16298D01*
X163092Y16302D01*
X163094Y16307D01*
X162542Y17351D01*
X162535Y17354D01*
X162537Y17359D01*
X161791Y18275D01*
X161784Y18276D01*
X161784Y18282D01*
X160875Y19035D01*
X160867Y19035D01*
X160867Y19040D01*
X159827Y19601D01*
X159820Y19600D01*
X159818Y19605D01*
X158689Y19952D01*
X158683Y19950D01*
X158680Y19954D01*
X157505Y20075D01*
X157498Y20071D01*
X157494Y20075D01*
X156154Y19918D01*
X156148Y19913D01*
X156143Y19916D01*
X154872Y19465D01*
X154867Y19458D01*
X154862Y19460D01*
X153723Y18738D01*
X153720Y18730D01*
X153714Y18731D01*
X152764Y17773D01*
X152763Y17765D01*
X152757Y17764D01*
X152044Y16619D01*
X152045Y16611D01*
X152039Y16609D01*
X151599Y15333D01*
X151601Y15326D01*
X151597Y15323D01*
X151451Y13981D01*
X151453Y13978D01*
X151451Y13976D01*
X151451Y7976D01*
X151453Y7973D01*
X151451Y7970D01*
X151606Y6641D01*
X151612Y6635D01*
X151609Y6631D01*
X152056Y5370D01*
X152063Y5365D01*
X152061Y5360D01*
X152778Y4230D01*
X152785Y4227D01*
X152784Y4221D01*
X153735Y3279D01*
X153743Y3278D01*
X153743Y3272D01*
X154879Y2565D01*
X154887Y2566D01*
X154889Y2560D01*
X156154Y2124D01*
X156159Y2125D01*
X156160Y2125D01*
X156163Y2125D01*
X156165Y2121D01*
X157495Y1977D01*
X157501Y1981D01*
X157505Y1977D01*
X158671Y2087D01*
G37*
G36*
X539631Y2087D02*
X539631Y2087D01*
X539636Y2092D01*
X539640Y2089D01*
X540763Y2424D01*
X540767Y2430D01*
X540771Y2428D01*
X541807Y2976D01*
X541810Y2982D01*
X541815Y2981D01*
X542723Y3720D01*
X542725Y3727D01*
X542730Y3727D01*
X543477Y4629D01*
X543477Y4637D01*
X543483Y4637D01*
X544039Y5668D01*
X544038Y5675D01*
X544043Y5677D01*
X544387Y6796D01*
X544385Y6803D01*
X544389Y6806D01*
X544509Y7971D01*
X544507Y7974D01*
X544509Y7976D01*
X544509Y13976D01*
X544507Y13979D01*
X544509Y13981D01*
X544398Y15157D01*
X544393Y15162D01*
X544396Y15166D01*
X544058Y16298D01*
X544052Y16302D01*
X544054Y16307D01*
X543502Y17351D01*
X543495Y17354D01*
X543497Y17359D01*
X542751Y18275D01*
X542744Y18276D01*
X542744Y18282D01*
X541835Y19035D01*
X541827Y19035D01*
X541827Y19040D01*
X540787Y19601D01*
X540780Y19600D01*
X540778Y19605D01*
X539649Y19952D01*
X539643Y19950D01*
X539640Y19954D01*
X538465Y20075D01*
X538458Y20071D01*
X538454Y20075D01*
X537114Y19918D01*
X537108Y19913D01*
X537103Y19916D01*
X535832Y19465D01*
X535827Y19458D01*
X535822Y19460D01*
X534683Y18738D01*
X534680Y18730D01*
X534674Y18731D01*
X533724Y17773D01*
X533723Y17765D01*
X533717Y17764D01*
X533004Y16619D01*
X533005Y16611D01*
X532999Y16609D01*
X532559Y15333D01*
X532561Y15326D01*
X532557Y15323D01*
X532411Y13981D01*
X532413Y13978D01*
X532411Y13976D01*
X532411Y7976D01*
X532413Y7973D01*
X532411Y7970D01*
X532566Y6641D01*
X532572Y6635D01*
X532569Y6631D01*
X533016Y5370D01*
X533023Y5365D01*
X533021Y5360D01*
X533738Y4230D01*
X533745Y4227D01*
X533744Y4221D01*
X534695Y3279D01*
X534703Y3278D01*
X534703Y3272D01*
X535839Y2565D01*
X535847Y2566D01*
X535849Y2560D01*
X537114Y2124D01*
X537119Y2125D01*
X537120Y2125D01*
X537123Y2125D01*
X537125Y2121D01*
X538455Y1977D01*
X538461Y1981D01*
X538465Y1977D01*
X539631Y2087D01*
G37*
G36*
X392351Y2087D02*
X392351Y2087D01*
X392356Y2092D01*
X392360Y2089D01*
X393483Y2424D01*
X393487Y2430D01*
X393491Y2428D01*
X394527Y2976D01*
X394530Y2982D01*
X394535Y2981D01*
X395443Y3720D01*
X395445Y3727D01*
X395450Y3727D01*
X396197Y4629D01*
X396197Y4637D01*
X396203Y4637D01*
X396759Y5668D01*
X396758Y5675D01*
X396763Y5677D01*
X397107Y6796D01*
X397105Y6803D01*
X397109Y6806D01*
X397229Y7971D01*
X397227Y7974D01*
X397229Y7976D01*
X397229Y13976D01*
X397227Y13979D01*
X397229Y13981D01*
X397118Y15157D01*
X397113Y15162D01*
X397116Y15166D01*
X396778Y16298D01*
X396772Y16302D01*
X396774Y16307D01*
X396222Y17351D01*
X396215Y17354D01*
X396217Y17359D01*
X395471Y18275D01*
X395464Y18276D01*
X395464Y18282D01*
X394555Y19035D01*
X394547Y19035D01*
X394547Y19040D01*
X393507Y19601D01*
X393500Y19600D01*
X393498Y19605D01*
X392369Y19952D01*
X392363Y19950D01*
X392360Y19954D01*
X391185Y20075D01*
X391178Y20071D01*
X391174Y20075D01*
X389834Y19918D01*
X389828Y19913D01*
X389823Y19916D01*
X388552Y19465D01*
X388547Y19458D01*
X388542Y19460D01*
X387403Y18738D01*
X387400Y18730D01*
X387394Y18731D01*
X386444Y17773D01*
X386443Y17765D01*
X386437Y17764D01*
X385724Y16619D01*
X385725Y16611D01*
X385719Y16609D01*
X385279Y15333D01*
X385281Y15326D01*
X385277Y15323D01*
X385131Y13981D01*
X385133Y13978D01*
X385131Y13976D01*
X385131Y7976D01*
X385133Y7973D01*
X385131Y7970D01*
X385286Y6641D01*
X385292Y6635D01*
X385289Y6631D01*
X385736Y5370D01*
X385743Y5365D01*
X385741Y5360D01*
X386458Y4230D01*
X386465Y4227D01*
X386464Y4221D01*
X387415Y3279D01*
X387423Y3278D01*
X387423Y3272D01*
X388559Y2565D01*
X388567Y2566D01*
X388569Y2560D01*
X389834Y2124D01*
X389839Y2125D01*
X389840Y2125D01*
X389843Y2125D01*
X389845Y2121D01*
X391175Y1977D01*
X391181Y1981D01*
X391185Y1977D01*
X392351Y2087D01*
G37*
G36*
X305951Y2087D02*
X305951Y2087D01*
X305956Y2092D01*
X305960Y2089D01*
X307083Y2424D01*
X307087Y2430D01*
X307091Y2428D01*
X308127Y2976D01*
X308130Y2982D01*
X308135Y2981D01*
X309043Y3720D01*
X309045Y3727D01*
X309050Y3727D01*
X309797Y4629D01*
X309797Y4637D01*
X309803Y4637D01*
X310359Y5668D01*
X310358Y5675D01*
X310363Y5677D01*
X310707Y6796D01*
X310705Y6803D01*
X310709Y6806D01*
X310829Y7971D01*
X310827Y7974D01*
X310829Y7976D01*
X310829Y13976D01*
X310827Y13979D01*
X310829Y13981D01*
X310718Y15157D01*
X310713Y15162D01*
X310716Y15166D01*
X310378Y16298D01*
X310372Y16302D01*
X310374Y16307D01*
X309822Y17351D01*
X309815Y17354D01*
X309817Y17359D01*
X309071Y18275D01*
X309064Y18276D01*
X309064Y18282D01*
X308155Y19035D01*
X308147Y19035D01*
X308147Y19040D01*
X307107Y19601D01*
X307100Y19600D01*
X307098Y19605D01*
X305969Y19952D01*
X305963Y19950D01*
X305960Y19954D01*
X304785Y20075D01*
X304778Y20071D01*
X304774Y20075D01*
X303434Y19918D01*
X303428Y19913D01*
X303423Y19916D01*
X302152Y19465D01*
X302147Y19458D01*
X302142Y19460D01*
X301003Y18738D01*
X301000Y18730D01*
X300994Y18731D01*
X300044Y17773D01*
X300043Y17765D01*
X300037Y17764D01*
X299324Y16619D01*
X299325Y16611D01*
X299319Y16609D01*
X298879Y15333D01*
X298881Y15326D01*
X298877Y15323D01*
X298731Y13981D01*
X298733Y13978D01*
X298731Y13976D01*
X298731Y7976D01*
X298733Y7973D01*
X298731Y7970D01*
X298886Y6641D01*
X298892Y6635D01*
X298889Y6631D01*
X299336Y5370D01*
X299343Y5365D01*
X299341Y5360D01*
X300058Y4230D01*
X300065Y4227D01*
X300064Y4221D01*
X301015Y3279D01*
X301023Y3278D01*
X301023Y3272D01*
X302159Y2565D01*
X302167Y2566D01*
X302169Y2560D01*
X303434Y2124D01*
X303439Y2125D01*
X303440Y2125D01*
X303443Y2125D01*
X303445Y2121D01*
X304775Y1977D01*
X304781Y1981D01*
X304785Y1977D01*
X305951Y2087D01*
G37*
D10*
X96440Y210058D03*
X86440Y210058D03*
X109300Y254000D03*
X119300Y254000D03*
D11*
X54000Y228299D03*
X63500Y228299D03*
X73000Y228299D03*
X73000Y254301D03*
X54000Y254301D03*
D10*
X71200Y200152D03*
X81200Y200152D03*
X119300Y152146D03*
X109300Y152146D03*
D12*
X131010Y288610D02*
X131010Y295590D01*
X137990Y295590D01*
X137990Y288610D01*
X131010Y288610D01*
X131010Y293410D02*
X137990Y293410D01*
X113470Y295590D02*
X113470Y288610D01*
X113470Y295590D02*
X120450Y295590D01*
X120450Y288610D01*
X113470Y288610D01*
X113470Y293410D02*
X120450Y293410D01*
D10*
X86440Y292100D03*
X96440Y292100D03*
D13*
X72000Y266700D03*
X55000Y266700D03*
D14*
X87122Y258690D03*
X87122Y241690D03*
D10*
X195500Y77470D03*
X185500Y77470D03*
X181436Y113792D03*
X191436Y113792D03*
D15*
X181300Y103020D03*
X199700Y96520D03*
X199700Y90020D03*
X199700Y103020D03*
X181300Y96520D03*
X181300Y90020D03*
D16*
X14050Y116900D03*
X14050Y60900D03*
D17*
X50800Y103900D03*
X50800Y93900D03*
X50800Y83900D03*
X50800Y73900D03*
D10*
X182880Y147400D03*
X182880Y157400D03*
X95250Y229282D03*
X95250Y219282D03*
D12*
X131010Y307660D02*
X131010Y314640D01*
X137990Y314640D01*
X137990Y307660D01*
X131010Y307660D01*
X131010Y312460D02*
X137990Y312460D01*
X113470Y314640D02*
X113470Y307660D01*
X113470Y314640D02*
X120450Y314640D01*
X120450Y307660D01*
X113470Y307660D01*
X113470Y312460D02*
X120450Y312460D01*
D10*
X83900Y311150D03*
X93900Y311150D03*
X144700Y228600D03*
X134700Y228600D03*
D18*
X12700Y558800D03*
X222250Y33020D03*
D19*
X25400Y25400D03*
X203200Y25400D03*
D20*
X144600Y199010D03*
X144600Y215010D03*
X185600Y215010D03*
X185600Y199010D03*
X144600Y243460D03*
X144600Y259460D03*
X185600Y259460D03*
X185600Y243460D03*
D21*
X124300Y181000D03*
X124300Y200000D03*
X103300Y190500D03*
D22*
X121800Y58576D03*
X116800Y58576D03*
D23*
X146550Y58576D03*
X138800Y58576D03*
D22*
X131800Y58576D03*
X126800Y58576D03*
X106800Y58576D03*
X111800Y58576D03*
D23*
X82050Y58576D03*
X89800Y58576D03*
D22*
X96800Y58576D03*
X101800Y58576D03*
D24*
X85400Y47526D03*
X143200Y47526D03*
D10*
X165100Y26750D03*
X165100Y36750D03*
X63500Y26750D03*
X63500Y36750D03*
D25*
X125800Y165100D03*
X102800Y165100D03*
D26*
X69850Y72076D03*
X82550Y72076D03*
X95250Y72076D03*
X107950Y72076D03*
X120650Y72076D03*
X133350Y72076D03*
X146050Y72076D03*
X158750Y72076D03*
X158750Y128076D03*
X146050Y128076D03*
X133350Y128076D03*
X120650Y128076D03*
X107950Y128076D03*
X95250Y128076D03*
X82550Y128076D03*
X69850Y128076D03*
D10*
X53340Y127174D03*
X53340Y117174D03*
X86694Y272034D03*
X96694Y272034D03*
D12*
X131010Y269560D02*
X131010Y276540D01*
X137990Y276540D01*
X137990Y269560D01*
X131010Y269560D01*
X131010Y274360D02*
X137990Y274360D01*
X113470Y276540D02*
X113470Y269560D01*
X113470Y276540D02*
X120450Y276540D01*
X120450Y269560D01*
X113470Y269560D01*
X113470Y274360D02*
X120450Y274360D01*
D27*
X56000Y302000D03*
X61000Y302000D03*
X66000Y302000D03*
X71000Y302000D03*
X71000Y282000D03*
X66000Y282000D03*
X61000Y282000D03*
X56000Y282000D03*
D28*
X63500Y292100D03*
D10*
X86106Y229282D03*
X86106Y219282D03*
X165020Y174752D03*
X155020Y174752D03*
X69930Y152654D03*
X79930Y152654D03*
D29*
X211670Y558552D03*
X222670Y558552D03*
X222670Y540252D03*
X211670Y540252D03*
D10*
X210566Y578024D03*
X210566Y568024D03*
D30*
X72560Y167800D03*
X72560Y187800D03*
D31*
X20560Y143800D03*
X20560Y211800D03*
D11*
X104800Y215599D03*
X114300Y215599D03*
X123800Y215599D03*
X123800Y241601D03*
X104800Y241601D03*
D32*
X139399Y163932D03*
X139399Y154432D03*
X139399Y144932D03*
X165401Y144932D03*
X165401Y163932D03*
D33*
X31920Y508800D03*
X31920Y496100D03*
X31920Y483400D03*
X31920Y470700D03*
X31920Y458000D03*
X31920Y445300D03*
X31920Y432600D03*
X31920Y419900D03*
X31920Y407200D03*
X31920Y394500D03*
X31920Y381800D03*
X31920Y369100D03*
X31920Y356400D03*
X31920Y343700D03*
D34*
X57150Y328800D03*
X69850Y328800D03*
X82550Y328800D03*
X95250Y328800D03*
X107950Y328800D03*
X120650Y328800D03*
X133350Y328800D03*
X146050Y328800D03*
X158750Y328800D03*
X171450Y328800D03*
D33*
X196680Y343700D03*
X196680Y356400D03*
X196680Y369100D03*
X196680Y381800D03*
X196680Y394500D03*
X196680Y407200D03*
X196680Y419900D03*
X196680Y432600D03*
X196680Y445300D03*
X196680Y458000D03*
X196680Y470700D03*
X196680Y483400D03*
X196680Y496100D03*
X196680Y508800D03*
D35*
X98990Y435380D03*
X117440Y453590D03*
X99140Y453590D03*
X80840Y453590D03*
X80840Y435290D03*
X117540Y435590D03*
X117440Y416990D03*
X99140Y416890D03*
X80840Y416990D03*
D36*
X215900Y520700D03*
X215900Y495300D03*
X215900Y469900D03*
X215900Y444500D03*
X215900Y419100D03*
X215900Y393700D03*
X215900Y368300D03*
X215900Y342900D03*
X215900Y317500D03*
X215900Y292100D03*
X215900Y266700D03*
X215900Y241300D03*
X215900Y215900D03*
X215900Y190500D03*
X215900Y165100D03*
X215900Y139700D03*
X12700Y241300D03*
X12700Y266700D03*
X12700Y292100D03*
X12700Y317500D03*
X12700Y342900D03*
X12700Y368300D03*
X12700Y393700D03*
X12700Y419100D03*
X12700Y444500D03*
X12700Y469900D03*
X12700Y495300D03*
X12700Y520700D03*
D10*
X330120Y210058D03*
X320120Y210058D03*
X342980Y254000D03*
X352980Y254000D03*
D11*
X287680Y228299D03*
X297180Y228299D03*
X306680Y228299D03*
X306680Y254301D03*
X287680Y254301D03*
D10*
X304880Y200152D03*
X314880Y200152D03*
X352980Y152146D03*
X342980Y152146D03*
D12*
X364690Y288610D02*
X364690Y295590D01*
X371670Y295590D01*
X371670Y288610D01*
X364690Y288610D01*
X364690Y293410D02*
X371670Y293410D01*
X347150Y295590D02*
X347150Y288610D01*
X347150Y295590D02*
X354130Y295590D01*
X354130Y288610D01*
X347150Y288610D01*
X347150Y293410D02*
X354130Y293410D01*
D10*
X320120Y292100D03*
X330120Y292100D03*
D13*
X305680Y266700D03*
X288680Y266700D03*
D14*
X320802Y258690D03*
X320802Y241690D03*
D10*
X429180Y77470D03*
X419180Y77470D03*
X415116Y113792D03*
X425116Y113792D03*
D15*
X414980Y103020D03*
X433380Y96520D03*
X433380Y90020D03*
X433380Y103020D03*
X414980Y96520D03*
X414980Y90020D03*
D16*
X247730Y116900D03*
X247730Y60900D03*
D17*
X284480Y103900D03*
X284480Y93900D03*
X284480Y83900D03*
X284480Y73900D03*
D10*
X416560Y147400D03*
X416560Y157400D03*
X328930Y229282D03*
X328930Y219282D03*
D12*
X364690Y307660D02*
X364690Y314640D01*
X371670Y314640D01*
X371670Y307660D01*
X364690Y307660D01*
X364690Y312460D02*
X371670Y312460D01*
X347150Y314640D02*
X347150Y307660D01*
X347150Y314640D02*
X354130Y314640D01*
X354130Y307660D01*
X347150Y307660D01*
X347150Y312460D02*
X354130Y312460D01*
D10*
X317580Y311150D03*
X327580Y311150D03*
X378380Y228600D03*
X368380Y228600D03*
D18*
X246380Y558800D03*
X455930Y33020D03*
D19*
X259080Y25400D03*
X436880Y25400D03*
D20*
X378280Y199010D03*
X378280Y215010D03*
X419280Y215010D03*
X419280Y199010D03*
X378280Y243460D03*
X378280Y259460D03*
X419280Y259460D03*
X419280Y243460D03*
D21*
X357980Y181000D03*
X357980Y200000D03*
X336980Y190500D03*
D22*
X355480Y58576D03*
X350480Y58576D03*
D23*
X380230Y58576D03*
X372480Y58576D03*
D22*
X365480Y58576D03*
X360480Y58576D03*
X340480Y58576D03*
X345480Y58576D03*
D23*
X315730Y58576D03*
X323480Y58576D03*
D22*
X330480Y58576D03*
X335480Y58576D03*
D24*
X319080Y47526D03*
X376880Y47526D03*
D10*
X398780Y26750D03*
X398780Y36750D03*
X297180Y26750D03*
X297180Y36750D03*
D25*
X359480Y165100D03*
X336480Y165100D03*
D26*
X303530Y72076D03*
X316230Y72076D03*
X328930Y72076D03*
X341630Y72076D03*
X354330Y72076D03*
X367030Y72076D03*
X379730Y72076D03*
X392430Y72076D03*
X392430Y128076D03*
X379730Y128076D03*
X367030Y128076D03*
X354330Y128076D03*
X341630Y128076D03*
X328930Y128076D03*
X316230Y128076D03*
X303530Y128076D03*
D10*
X287020Y127174D03*
X287020Y117174D03*
X320374Y272034D03*
X330374Y272034D03*
D12*
X364690Y269560D02*
X364690Y276540D01*
X371670Y276540D01*
X371670Y269560D01*
X364690Y269560D01*
X364690Y274360D02*
X371670Y274360D01*
X347150Y276540D02*
X347150Y269560D01*
X347150Y276540D02*
X354130Y276540D01*
X354130Y269560D01*
X347150Y269560D01*
X347150Y274360D02*
X354130Y274360D01*
D27*
X289680Y302000D03*
X294680Y302000D03*
X299680Y302000D03*
X304680Y302000D03*
X304680Y282000D03*
X299680Y282000D03*
X294680Y282000D03*
X289680Y282000D03*
D28*
X297180Y292100D03*
D10*
X319786Y229282D03*
X319786Y219282D03*
X398700Y174752D03*
X388700Y174752D03*
X303610Y152654D03*
X313610Y152654D03*
D29*
X445350Y558552D03*
X456350Y558552D03*
X456350Y540252D03*
X445350Y540252D03*
D10*
X444246Y578024D03*
X444246Y568024D03*
D30*
X306240Y167800D03*
X306240Y187800D03*
D31*
X254240Y143800D03*
X254240Y211800D03*
D11*
X338480Y215599D03*
X347980Y215599D03*
X357480Y215599D03*
X357480Y241601D03*
X338480Y241601D03*
D32*
X373079Y163932D03*
X373079Y154432D03*
X373079Y144932D03*
X399081Y144932D03*
X399081Y163932D03*
D33*
X265600Y508800D03*
X265600Y496100D03*
X265600Y483400D03*
X265600Y470700D03*
X265600Y458000D03*
X265600Y445300D03*
X265600Y432600D03*
X265600Y419900D03*
X265600Y407200D03*
X265600Y394500D03*
X265600Y381800D03*
X265600Y369100D03*
X265600Y356400D03*
X265600Y343700D03*
D34*
X290830Y328800D03*
X303530Y328800D03*
X316230Y328800D03*
X328930Y328800D03*
X341630Y328800D03*
X354330Y328800D03*
X367030Y328800D03*
X379730Y328800D03*
X392430Y328800D03*
X405130Y328800D03*
D33*
X430360Y343700D03*
X430360Y356400D03*
X430360Y369100D03*
X430360Y381800D03*
X430360Y394500D03*
X430360Y407200D03*
X430360Y419900D03*
X430360Y432600D03*
X430360Y445300D03*
X430360Y458000D03*
X430360Y470700D03*
X430360Y483400D03*
X430360Y496100D03*
X430360Y508800D03*
D35*
X332670Y435380D03*
X351120Y453590D03*
X332820Y453590D03*
X314520Y453590D03*
X314520Y435290D03*
X351220Y435590D03*
X351120Y416990D03*
X332820Y416890D03*
X314520Y416990D03*
D36*
X449580Y520700D03*
X449580Y495300D03*
X449580Y469900D03*
X449580Y444500D03*
X449580Y419100D03*
X449580Y393700D03*
X449580Y368300D03*
X449580Y342900D03*
X449580Y317500D03*
X449580Y292100D03*
X449580Y266700D03*
X449580Y241300D03*
X449580Y215900D03*
X449580Y190500D03*
X449580Y165100D03*
X449580Y139700D03*
X246380Y241300D03*
X246380Y266700D03*
X246380Y292100D03*
X246380Y317500D03*
X246380Y342900D03*
X246380Y368300D03*
X246380Y393700D03*
X246380Y419100D03*
X246380Y444500D03*
X246380Y469900D03*
X246380Y495300D03*
X246380Y520700D03*
D10*
X563800Y210058D03*
X553800Y210058D03*
X576660Y254000D03*
X586660Y254000D03*
D11*
X521360Y228299D03*
X530860Y228299D03*
X540360Y228299D03*
X540360Y254301D03*
X521360Y254301D03*
D10*
X538560Y200152D03*
X548560Y200152D03*
X586660Y152146D03*
X576660Y152146D03*
D12*
X598370Y288610D02*
X598370Y295590D01*
X605350Y295590D01*
X605350Y288610D01*
X598370Y288610D01*
X598370Y293410D02*
X605350Y293410D01*
X580830Y295590D02*
X580830Y288610D01*
X580830Y295590D02*
X587810Y295590D01*
X587810Y288610D01*
X580830Y288610D01*
X580830Y293410D02*
X587810Y293410D01*
D10*
X553800Y292100D03*
X563800Y292100D03*
D13*
X539360Y266700D03*
X522360Y266700D03*
D14*
X554482Y258690D03*
X554482Y241690D03*
D10*
X662860Y77470D03*
X652860Y77470D03*
X648796Y113792D03*
X658796Y113792D03*
D15*
X648660Y103020D03*
X667060Y96520D03*
X667060Y90020D03*
X667060Y103020D03*
X648660Y96520D03*
X648660Y90020D03*
D16*
X481410Y116900D03*
X481410Y60900D03*
D17*
X518160Y103900D03*
X518160Y93900D03*
X518160Y83900D03*
X518160Y73900D03*
D10*
X650240Y147400D03*
X650240Y157400D03*
X562610Y229282D03*
X562610Y219282D03*
D12*
X598370Y307660D02*
X598370Y314640D01*
X605350Y314640D01*
X605350Y307660D01*
X598370Y307660D01*
X598370Y312460D02*
X605350Y312460D01*
X580830Y314640D02*
X580830Y307660D01*
X580830Y314640D02*
X587810Y314640D01*
X587810Y307660D01*
X580830Y307660D01*
X580830Y312460D02*
X587810Y312460D01*
D10*
X551260Y311150D03*
X561260Y311150D03*
X612060Y228600D03*
X602060Y228600D03*
D18*
X480060Y558800D03*
X689610Y33020D03*
D19*
X492760Y25400D03*
X670560Y25400D03*
D20*
X611960Y199010D03*
X611960Y215010D03*
X652960Y215010D03*
X652960Y199010D03*
X611960Y243460D03*
X611960Y259460D03*
X652960Y259460D03*
X652960Y243460D03*
D21*
X591660Y181000D03*
X591660Y200000D03*
X570660Y190500D03*
D22*
X589160Y58576D03*
X584160Y58576D03*
D23*
X613910Y58576D03*
X606160Y58576D03*
D22*
X599160Y58576D03*
X594160Y58576D03*
X574160Y58576D03*
X579160Y58576D03*
D23*
X549410Y58576D03*
X557160Y58576D03*
D22*
X564160Y58576D03*
X569160Y58576D03*
D24*
X552760Y47526D03*
X610560Y47526D03*
D10*
X632460Y26750D03*
X632460Y36750D03*
X530860Y26750D03*
X530860Y36750D03*
D25*
X593160Y165100D03*
X570160Y165100D03*
D26*
X537210Y72076D03*
X549910Y72076D03*
X562610Y72076D03*
X575310Y72076D03*
X588010Y72076D03*
X600710Y72076D03*
X613410Y72076D03*
X626110Y72076D03*
X626110Y128076D03*
X613410Y128076D03*
X600710Y128076D03*
X588010Y128076D03*
X575310Y128076D03*
X562610Y128076D03*
X549910Y128076D03*
X537210Y128076D03*
D10*
X520700Y127174D03*
X520700Y117174D03*
X554054Y272034D03*
X564054Y272034D03*
D12*
X598370Y269560D02*
X598370Y276540D01*
X605350Y276540D01*
X605350Y269560D01*
X598370Y269560D01*
X598370Y274360D02*
X605350Y274360D01*
X580830Y276540D02*
X580830Y269560D01*
X580830Y276540D02*
X587810Y276540D01*
X587810Y269560D01*
X580830Y269560D01*
X580830Y274360D02*
X587810Y274360D01*
D27*
X523360Y302000D03*
X528360Y302000D03*
X533360Y302000D03*
X538360Y302000D03*
X538360Y282000D03*
X533360Y282000D03*
X528360Y282000D03*
X523360Y282000D03*
D28*
X530860Y292100D03*
D10*
X553466Y229282D03*
X553466Y219282D03*
X632380Y174752D03*
X622380Y174752D03*
X537290Y152654D03*
X547290Y152654D03*
D29*
X679030Y558552D03*
X690030Y558552D03*
X690030Y540252D03*
X679030Y540252D03*
D10*
X677926Y578024D03*
X677926Y568024D03*
D30*
X539920Y167800D03*
X539920Y187800D03*
D31*
X487920Y143800D03*
X487920Y211800D03*
D11*
X572160Y215599D03*
X581660Y215599D03*
X591160Y215599D03*
X591160Y241601D03*
X572160Y241601D03*
D32*
X606759Y163932D03*
X606759Y154432D03*
X606759Y144932D03*
X632761Y144932D03*
X632761Y163932D03*
D33*
X499280Y508800D03*
X499280Y496100D03*
X499280Y483400D03*
X499280Y470700D03*
X499280Y458000D03*
X499280Y445300D03*
X499280Y432600D03*
X499280Y419900D03*
X499280Y407200D03*
X499280Y394500D03*
X499280Y381800D03*
X499280Y369100D03*
X499280Y356400D03*
X499280Y343700D03*
D34*
X524510Y328800D03*
X537210Y328800D03*
X549910Y328800D03*
X562610Y328800D03*
X575310Y328800D03*
X588010Y328800D03*
X600710Y328800D03*
X613410Y328800D03*
X626110Y328800D03*
X638810Y328800D03*
D33*
X664040Y343700D03*
X664040Y356400D03*
X664040Y369100D03*
X664040Y381800D03*
X664040Y394500D03*
X664040Y407200D03*
X664040Y419900D03*
X664040Y432600D03*
X664040Y445300D03*
X664040Y458000D03*
X664040Y470700D03*
X664040Y483400D03*
X664040Y496100D03*
X664040Y508800D03*
D35*
X566350Y435380D03*
X584800Y453590D03*
X566500Y453590D03*
X548200Y453590D03*
X548200Y435290D03*
X584900Y435590D03*
X584800Y416990D03*
X566500Y416890D03*
X548200Y416990D03*
D36*
X683260Y520700D03*
X683260Y495300D03*
X683260Y469900D03*
X683260Y444500D03*
X683260Y419100D03*
X683260Y393700D03*
X683260Y368300D03*
X683260Y342900D03*
X683260Y317500D03*
X683260Y292100D03*
X683260Y266700D03*
X683260Y241300D03*
X683260Y215900D03*
X683260Y190500D03*
X683260Y165100D03*
X683260Y139700D03*
X480060Y241300D03*
X480060Y266700D03*
X480060Y292100D03*
X480060Y317500D03*
X480060Y342900D03*
X480060Y368300D03*
X480060Y393700D03*
X480060Y419100D03*
X480060Y444500D03*
X480060Y469900D03*
X480060Y495300D03*
X480060Y520700D03*
D10*
X797480Y210058D03*
X787480Y210058D03*
X810340Y254000D03*
X820340Y254000D03*
D11*
X755040Y228299D03*
X764540Y228299D03*
X774040Y228299D03*
X774040Y254301D03*
X755040Y254301D03*
D10*
X772240Y200152D03*
X782240Y200152D03*
X820340Y152146D03*
X810340Y152146D03*
D12*
X832050Y288610D02*
X832050Y295590D01*
X839030Y295590D01*
X839030Y288610D01*
X832050Y288610D01*
X832050Y293410D02*
X839030Y293410D01*
X814510Y295590D02*
X814510Y288610D01*
X814510Y295590D02*
X821490Y295590D01*
X821490Y288610D01*
X814510Y288610D01*
X814510Y293410D02*
X821490Y293410D01*
D10*
X787480Y292100D03*
X797480Y292100D03*
D13*
X773040Y266700D03*
X756040Y266700D03*
D14*
X788162Y258690D03*
X788162Y241690D03*
D10*
X896540Y77470D03*
X886540Y77470D03*
X882476Y113792D03*
X892476Y113792D03*
D15*
X882340Y103020D03*
X900740Y96520D03*
X900740Y90020D03*
X900740Y103020D03*
X882340Y96520D03*
X882340Y90020D03*
D16*
X715090Y116900D03*
X715090Y60900D03*
D17*
X751840Y103900D03*
X751840Y93900D03*
X751840Y83900D03*
X751840Y73900D03*
D10*
X883920Y147400D03*
X883920Y157400D03*
X796290Y229282D03*
X796290Y219282D03*
D12*
X832050Y307660D02*
X832050Y314640D01*
X839030Y314640D01*
X839030Y307660D01*
X832050Y307660D01*
X832050Y312460D02*
X839030Y312460D01*
X814510Y314640D02*
X814510Y307660D01*
X814510Y314640D02*
X821490Y314640D01*
X821490Y307660D01*
X814510Y307660D01*
X814510Y312460D02*
X821490Y312460D01*
D10*
X784940Y311150D03*
X794940Y311150D03*
X845740Y228600D03*
X835740Y228600D03*
D18*
X713740Y558800D03*
X923290Y33020D03*
D19*
X726440Y25400D03*
X904240Y25400D03*
D20*
X845640Y199010D03*
X845640Y215010D03*
X886640Y215010D03*
X886640Y199010D03*
X845640Y243460D03*
X845640Y259460D03*
X886640Y259460D03*
X886640Y243460D03*
D21*
X825340Y181000D03*
X825340Y200000D03*
X804340Y190500D03*
D22*
X822840Y58576D03*
X817840Y58576D03*
D23*
X847590Y58576D03*
X839840Y58576D03*
D22*
X832840Y58576D03*
X827840Y58576D03*
X807840Y58576D03*
X812840Y58576D03*
D23*
X783090Y58576D03*
X790840Y58576D03*
D22*
X797840Y58576D03*
X802840Y58576D03*
D24*
X786440Y47526D03*
X844240Y47526D03*
D10*
X866140Y26750D03*
X866140Y36750D03*
X764540Y26750D03*
X764540Y36750D03*
D25*
X826840Y165100D03*
X803840Y165100D03*
D26*
X770890Y72076D03*
X783590Y72076D03*
X796290Y72076D03*
X808990Y72076D03*
X821690Y72076D03*
X834390Y72076D03*
X847090Y72076D03*
X859790Y72076D03*
X859790Y128076D03*
X847090Y128076D03*
X834390Y128076D03*
X821690Y128076D03*
X808990Y128076D03*
X796290Y128076D03*
X783590Y128076D03*
X770890Y128076D03*
D10*
X754380Y127174D03*
X754380Y117174D03*
X787734Y272034D03*
X797734Y272034D03*
D12*
X832050Y269560D02*
X832050Y276540D01*
X839030Y276540D01*
X839030Y269560D01*
X832050Y269560D01*
X832050Y274360D02*
X839030Y274360D01*
X814510Y276540D02*
X814510Y269560D01*
X814510Y276540D02*
X821490Y276540D01*
X821490Y269560D01*
X814510Y269560D01*
X814510Y274360D02*
X821490Y274360D01*
D27*
X757040Y302000D03*
X762040Y302000D03*
X767040Y302000D03*
X772040Y302000D03*
X772040Y282000D03*
X767040Y282000D03*
X762040Y282000D03*
X757040Y282000D03*
D28*
X764540Y292100D03*
D10*
X787146Y229282D03*
X787146Y219282D03*
X866060Y174752D03*
X856060Y174752D03*
X770970Y152654D03*
X780970Y152654D03*
D29*
X912710Y558552D03*
X923710Y558552D03*
X923710Y540252D03*
X912710Y540252D03*
D10*
X911606Y578024D03*
X911606Y568024D03*
D30*
X773600Y167800D03*
X773600Y187800D03*
D31*
X721600Y143800D03*
X721600Y211800D03*
D11*
X805840Y215599D03*
X815340Y215599D03*
X824840Y215599D03*
X824840Y241601D03*
X805840Y241601D03*
D32*
X840439Y163932D03*
X840439Y154432D03*
X840439Y144932D03*
X866441Y144932D03*
X866441Y163932D03*
D33*
X732960Y508800D03*
X732960Y496100D03*
X732960Y483400D03*
X732960Y470700D03*
X732960Y458000D03*
X732960Y445300D03*
X732960Y432600D03*
X732960Y419900D03*
X732960Y407200D03*
X732960Y394500D03*
X732960Y381800D03*
X732960Y369100D03*
X732960Y356400D03*
X732960Y343700D03*
D34*
X758190Y328800D03*
X770890Y328800D03*
X783590Y328800D03*
X796290Y328800D03*
X808990Y328800D03*
X821690Y328800D03*
X834390Y328800D03*
X847090Y328800D03*
X859790Y328800D03*
X872490Y328800D03*
D33*
X897720Y343700D03*
X897720Y356400D03*
X897720Y369100D03*
X897720Y381800D03*
X897720Y394500D03*
X897720Y407200D03*
X897720Y419900D03*
X897720Y432600D03*
X897720Y445300D03*
X897720Y458000D03*
X897720Y470700D03*
X897720Y483400D03*
X897720Y496100D03*
X897720Y508800D03*
D35*
X800030Y435380D03*
X818480Y453590D03*
X800180Y453590D03*
X781880Y453590D03*
X781880Y435290D03*
X818580Y435590D03*
X818480Y416990D03*
X800180Y416890D03*
X781880Y416990D03*
D36*
X916940Y520700D03*
X916940Y495300D03*
X916940Y469900D03*
X916940Y444500D03*
X916940Y419100D03*
X916940Y393700D03*
X916940Y368300D03*
X916940Y342900D03*
X916940Y317500D03*
X916940Y292100D03*
X916940Y266700D03*
X916940Y241300D03*
X916940Y215900D03*
X916940Y190500D03*
X916940Y165100D03*
X916940Y139700D03*
X713740Y241300D03*
X713740Y266700D03*
X713740Y292100D03*
X713740Y317500D03*
X713740Y342900D03*
X713740Y368300D03*
X713740Y393700D03*
X713740Y419100D03*
X713740Y444500D03*
X713740Y469900D03*
X713740Y495300D03*
X713740Y520700D03*
D10*
X96440Y837438D03*
X86440Y837438D03*
X109300Y881380D03*
X119300Y881380D03*
D11*
X54000Y855679D03*
X63500Y855679D03*
X73000Y855679D03*
X73000Y881681D03*
X54000Y881681D03*
D10*
X71200Y827532D03*
X81200Y827532D03*
X119300Y779526D03*
X109300Y779526D03*
D12*
X131010Y915990D02*
X131010Y922970D01*
X137990Y922970D01*
X137990Y915990D01*
X131010Y915990D01*
X131010Y920790D02*
X137990Y920790D01*
X113470Y922970D02*
X113470Y915990D01*
X113470Y922970D02*
X120450Y922970D01*
X120450Y915990D01*
X113470Y915990D01*
X113470Y920790D02*
X120450Y920790D01*
D10*
X86440Y919480D03*
X96440Y919480D03*
D13*
X72000Y894080D03*
X55000Y894080D03*
D14*
X87122Y886070D03*
X87122Y869070D03*
D10*
X195500Y704850D03*
X185500Y704850D03*
X181436Y741172D03*
X191436Y741172D03*
D15*
X181300Y730400D03*
X199700Y723900D03*
X199700Y717400D03*
X199700Y730400D03*
X181300Y723900D03*
X181300Y717400D03*
D16*
X14050Y744280D03*
X14050Y688280D03*
D17*
X50800Y731280D03*
X50800Y721280D03*
X50800Y711280D03*
X50800Y701280D03*
D10*
X182880Y774780D03*
X182880Y784780D03*
X95250Y856662D03*
X95250Y846662D03*
D12*
X131010Y935040D02*
X131010Y942020D01*
X137990Y942020D01*
X137990Y935040D01*
X131010Y935040D01*
X131010Y939840D02*
X137990Y939840D01*
X113470Y942020D02*
X113470Y935040D01*
X113470Y942020D02*
X120450Y942020D01*
X120450Y935040D01*
X113470Y935040D01*
X113470Y939840D02*
X120450Y939840D01*
D10*
X83900Y938530D03*
X93900Y938530D03*
X144700Y855980D03*
X134700Y855980D03*
D18*
X12700Y1186180D03*
X222250Y660400D03*
D19*
X25400Y652780D03*
X203200Y652780D03*
D20*
X144600Y826390D03*
X144600Y842390D03*
X185600Y842390D03*
X185600Y826390D03*
X144600Y870840D03*
X144600Y886840D03*
X185600Y886840D03*
X185600Y870840D03*
D21*
X124300Y808380D03*
X124300Y827380D03*
X103300Y817880D03*
D22*
X121800Y685956D03*
X116800Y685956D03*
D23*
X146550Y685956D03*
X138800Y685956D03*
D22*
X131800Y685956D03*
X126800Y685956D03*
X106800Y685956D03*
X111800Y685956D03*
D23*
X82050Y685956D03*
X89800Y685956D03*
D22*
X96800Y685956D03*
X101800Y685956D03*
D24*
X85400Y674906D03*
X143200Y674906D03*
D10*
X165100Y654130D03*
X165100Y664130D03*
X63500Y654130D03*
X63500Y664130D03*
D25*
X125800Y792480D03*
X102800Y792480D03*
D26*
X69850Y699456D03*
X82550Y699456D03*
X95250Y699456D03*
X107950Y699456D03*
X120650Y699456D03*
X133350Y699456D03*
X146050Y699456D03*
X158750Y699456D03*
X158750Y755456D03*
X146050Y755456D03*
X133350Y755456D03*
X120650Y755456D03*
X107950Y755456D03*
X95250Y755456D03*
X82550Y755456D03*
X69850Y755456D03*
D10*
X53340Y754554D03*
X53340Y744554D03*
X86694Y899414D03*
X96694Y899414D03*
D12*
X131010Y896940D02*
X131010Y903920D01*
X137990Y903920D01*
X137990Y896940D01*
X131010Y896940D01*
X131010Y901740D02*
X137990Y901740D01*
X113470Y903920D02*
X113470Y896940D01*
X113470Y903920D02*
X120450Y903920D01*
X120450Y896940D01*
X113470Y896940D01*
X113470Y901740D02*
X120450Y901740D01*
D27*
X56000Y929380D03*
X61000Y929380D03*
X66000Y929380D03*
X71000Y929380D03*
X71000Y909380D03*
X66000Y909380D03*
X61000Y909380D03*
X56000Y909380D03*
D28*
X63500Y919480D03*
D10*
X86106Y856662D03*
X86106Y846662D03*
X165020Y802132D03*
X155020Y802132D03*
X69930Y780034D03*
X79930Y780034D03*
D29*
X211670Y1185932D03*
X222670Y1185932D03*
X222670Y1167632D03*
X211670Y1167632D03*
D10*
X210566Y1205404D03*
X210566Y1195404D03*
D30*
X72560Y795180D03*
X72560Y815180D03*
D31*
X20560Y771180D03*
X20560Y839180D03*
D11*
X104800Y842979D03*
X114300Y842979D03*
X123800Y842979D03*
X123800Y868981D03*
X104800Y868981D03*
D32*
X139399Y791312D03*
X139399Y781812D03*
X139399Y772312D03*
X165401Y772312D03*
X165401Y791312D03*
D33*
X31920Y1136180D03*
X31920Y1123480D03*
X31920Y1110780D03*
X31920Y1098080D03*
X31920Y1085380D03*
X31920Y1072680D03*
X31920Y1059980D03*
X31920Y1047280D03*
X31920Y1034580D03*
X31920Y1021880D03*
X31920Y1009180D03*
X31920Y996480D03*
X31920Y983780D03*
X31920Y971080D03*
D34*
X57150Y956180D03*
X69850Y956180D03*
X82550Y956180D03*
X95250Y956180D03*
X107950Y956180D03*
X120650Y956180D03*
X133350Y956180D03*
X146050Y956180D03*
X158750Y956180D03*
X171450Y956180D03*
D33*
X196680Y971080D03*
X196680Y983780D03*
X196680Y996480D03*
X196680Y1009180D03*
X196680Y1021880D03*
X196680Y1034580D03*
X196680Y1047280D03*
X196680Y1059980D03*
X196680Y1072680D03*
X196680Y1085380D03*
X196680Y1098080D03*
X196680Y1110780D03*
X196680Y1123480D03*
X196680Y1136180D03*
D35*
X98990Y1062760D03*
X117440Y1080970D03*
X99140Y1080970D03*
X80840Y1080970D03*
X80840Y1062670D03*
X117540Y1062970D03*
X117440Y1044370D03*
X99140Y1044270D03*
X80840Y1044370D03*
D36*
X215900Y1148080D03*
X215900Y1122680D03*
X215900Y1097280D03*
X215900Y1071880D03*
X215900Y1046480D03*
X215900Y1021080D03*
X215900Y995680D03*
X215900Y970280D03*
X215900Y944880D03*
X215900Y919480D03*
X215900Y894080D03*
X215900Y868680D03*
X215900Y843280D03*
X215900Y817880D03*
X215900Y792480D03*
X215900Y767080D03*
X12700Y868680D03*
X12700Y894080D03*
X12700Y919480D03*
X12700Y944880D03*
X12700Y970280D03*
X12700Y995680D03*
X12700Y1021080D03*
X12700Y1046480D03*
X12700Y1071880D03*
X12700Y1097280D03*
X12700Y1122680D03*
X12700Y1148080D03*
D10*
X330120Y837438D03*
X320120Y837438D03*
X342980Y881380D03*
X352980Y881380D03*
D11*
X287680Y855679D03*
X297180Y855679D03*
X306680Y855679D03*
X306680Y881681D03*
X287680Y881681D03*
D10*
X304880Y827532D03*
X314880Y827532D03*
X352980Y779526D03*
X342980Y779526D03*
D12*
X364690Y915990D02*
X364690Y922970D01*
X371670Y922970D01*
X371670Y915990D01*
X364690Y915990D01*
X364690Y920790D02*
X371670Y920790D01*
X347150Y922970D02*
X347150Y915990D01*
X347150Y922970D02*
X354130Y922970D01*
X354130Y915990D01*
X347150Y915990D01*
X347150Y920790D02*
X354130Y920790D01*
D10*
X320120Y919480D03*
X330120Y919480D03*
D13*
X305680Y894080D03*
X288680Y894080D03*
D14*
X320802Y886070D03*
X320802Y869070D03*
D10*
X429180Y704850D03*
X419180Y704850D03*
X415116Y741172D03*
X425116Y741172D03*
D15*
X414980Y730400D03*
X433380Y723900D03*
X433380Y717400D03*
X433380Y730400D03*
X414980Y723900D03*
X414980Y717400D03*
D16*
X247730Y744280D03*
X247730Y688280D03*
D17*
X284480Y731280D03*
X284480Y721280D03*
X284480Y711280D03*
X284480Y701280D03*
D10*
X416560Y774780D03*
X416560Y784780D03*
X328930Y856662D03*
X328930Y846662D03*
D12*
X364690Y935040D02*
X364690Y942020D01*
X371670Y942020D01*
X371670Y935040D01*
X364690Y935040D01*
X364690Y939840D02*
X371670Y939840D01*
X347150Y942020D02*
X347150Y935040D01*
X347150Y942020D02*
X354130Y942020D01*
X354130Y935040D01*
X347150Y935040D01*
X347150Y939840D02*
X354130Y939840D01*
D10*
X317580Y938530D03*
X327580Y938530D03*
X378380Y855980D03*
X368380Y855980D03*
D18*
X246380Y1186180D03*
X455930Y660400D03*
D19*
X259080Y652780D03*
X436880Y652780D03*
D20*
X378280Y826390D03*
X378280Y842390D03*
X419280Y842390D03*
X419280Y826390D03*
X378280Y870840D03*
X378280Y886840D03*
X419280Y886840D03*
X419280Y870840D03*
D21*
X357980Y808380D03*
X357980Y827380D03*
X336980Y817880D03*
D22*
X355480Y685956D03*
X350480Y685956D03*
D23*
X380230Y685956D03*
X372480Y685956D03*
D22*
X365480Y685956D03*
X360480Y685956D03*
X340480Y685956D03*
X345480Y685956D03*
D23*
X315730Y685956D03*
X323480Y685956D03*
D22*
X330480Y685956D03*
X335480Y685956D03*
D24*
X319080Y674906D03*
X376880Y674906D03*
D10*
X398780Y654130D03*
X398780Y664130D03*
X297180Y654130D03*
X297180Y664130D03*
D25*
X359480Y792480D03*
X336480Y792480D03*
D26*
X303530Y699456D03*
X316230Y699456D03*
X328930Y699456D03*
X341630Y699456D03*
X354330Y699456D03*
X367030Y699456D03*
X379730Y699456D03*
X392430Y699456D03*
X392430Y755456D03*
X379730Y755456D03*
X367030Y755456D03*
X354330Y755456D03*
X341630Y755456D03*
X328930Y755456D03*
X316230Y755456D03*
X303530Y755456D03*
D10*
X287020Y754554D03*
X287020Y744554D03*
X320374Y899414D03*
X330374Y899414D03*
D12*
X364690Y896940D02*
X364690Y903920D01*
X371670Y903920D01*
X371670Y896940D01*
X364690Y896940D01*
X364690Y901740D02*
X371670Y901740D01*
X347150Y903920D02*
X347150Y896940D01*
X347150Y903920D02*
X354130Y903920D01*
X354130Y896940D01*
X347150Y896940D01*
X347150Y901740D02*
X354130Y901740D01*
D27*
X289680Y929380D03*
X294680Y929380D03*
X299680Y929380D03*
X304680Y929380D03*
X304680Y909380D03*
X299680Y909380D03*
X294680Y909380D03*
X289680Y909380D03*
D28*
X297180Y919480D03*
D10*
X319786Y856662D03*
X319786Y846662D03*
X398700Y802132D03*
X388700Y802132D03*
X303610Y780034D03*
X313610Y780034D03*
D29*
X445350Y1185932D03*
X456350Y1185932D03*
X456350Y1167632D03*
X445350Y1167632D03*
D10*
X444246Y1205404D03*
X444246Y1195404D03*
D30*
X306240Y795180D03*
X306240Y815180D03*
D31*
X254240Y771180D03*
X254240Y839180D03*
D11*
X338480Y842979D03*
X347980Y842979D03*
X357480Y842979D03*
X357480Y868981D03*
X338480Y868981D03*
D32*
X373079Y791312D03*
X373079Y781812D03*
X373079Y772312D03*
X399081Y772312D03*
X399081Y791312D03*
D33*
X265600Y1136180D03*
X265600Y1123480D03*
X265600Y1110780D03*
X265600Y1098080D03*
X265600Y1085380D03*
X265600Y1072680D03*
X265600Y1059980D03*
X265600Y1047280D03*
X265600Y1034580D03*
X265600Y1021880D03*
X265600Y1009180D03*
X265600Y996480D03*
X265600Y983780D03*
X265600Y971080D03*
D34*
X290830Y956180D03*
X303530Y956180D03*
X316230Y956180D03*
X328930Y956180D03*
X341630Y956180D03*
X354330Y956180D03*
X367030Y956180D03*
X379730Y956180D03*
X392430Y956180D03*
X405130Y956180D03*
D33*
X430360Y971080D03*
X430360Y983780D03*
X430360Y996480D03*
X430360Y1009180D03*
X430360Y1021880D03*
X430360Y1034580D03*
X430360Y1047280D03*
X430360Y1059980D03*
X430360Y1072680D03*
X430360Y1085380D03*
X430360Y1098080D03*
X430360Y1110780D03*
X430360Y1123480D03*
X430360Y1136180D03*
D35*
X332670Y1062760D03*
X351120Y1080970D03*
X332820Y1080970D03*
X314520Y1080970D03*
X314520Y1062670D03*
X351220Y1062970D03*
X351120Y1044370D03*
X332820Y1044270D03*
X314520Y1044370D03*
D36*
X449580Y1148080D03*
X449580Y1122680D03*
X449580Y1097280D03*
X449580Y1071880D03*
X449580Y1046480D03*
X449580Y1021080D03*
X449580Y995680D03*
X449580Y970280D03*
X449580Y944880D03*
X449580Y919480D03*
X449580Y894080D03*
X449580Y868680D03*
X449580Y843280D03*
X449580Y817880D03*
X449580Y792480D03*
X449580Y767080D03*
X246380Y868680D03*
X246380Y894080D03*
X246380Y919480D03*
X246380Y944880D03*
X246380Y970280D03*
X246380Y995680D03*
X246380Y1021080D03*
X246380Y1046480D03*
X246380Y1071880D03*
X246380Y1097280D03*
X246380Y1122680D03*
X246380Y1148080D03*
D10*
X563800Y837438D03*
X553800Y837438D03*
X576660Y881380D03*
X586660Y881380D03*
D11*
X521360Y855679D03*
X530860Y855679D03*
X540360Y855679D03*
X540360Y881681D03*
X521360Y881681D03*
D10*
X538560Y827532D03*
X548560Y827532D03*
X586660Y779526D03*
X576660Y779526D03*
D12*
X598370Y915990D02*
X598370Y922970D01*
X605350Y922970D01*
X605350Y915990D01*
X598370Y915990D01*
X598370Y920790D02*
X605350Y920790D01*
X580830Y922970D02*
X580830Y915990D01*
X580830Y922970D02*
X587810Y922970D01*
X587810Y915990D01*
X580830Y915990D01*
X580830Y920790D02*
X587810Y920790D01*
D10*
X553800Y919480D03*
X563800Y919480D03*
D13*
X539360Y894080D03*
X522360Y894080D03*
D14*
X554482Y886070D03*
X554482Y869070D03*
D10*
X662860Y704850D03*
X652860Y704850D03*
X648796Y741172D03*
X658796Y741172D03*
D15*
X648660Y730400D03*
X667060Y723900D03*
X667060Y717400D03*
X667060Y730400D03*
X648660Y723900D03*
X648660Y717400D03*
D16*
X481410Y744280D03*
X481410Y688280D03*
D17*
X518160Y731280D03*
X518160Y721280D03*
X518160Y711280D03*
X518160Y701280D03*
D10*
X650240Y774780D03*
X650240Y784780D03*
X562610Y856662D03*
X562610Y846662D03*
D12*
X598370Y935040D02*
X598370Y942020D01*
X605350Y942020D01*
X605350Y935040D01*
X598370Y935040D01*
X598370Y939840D02*
X605350Y939840D01*
X580830Y942020D02*
X580830Y935040D01*
X580830Y942020D02*
X587810Y942020D01*
X587810Y935040D01*
X580830Y935040D01*
X580830Y939840D02*
X587810Y939840D01*
D10*
X551260Y938530D03*
X561260Y938530D03*
X612060Y855980D03*
X602060Y855980D03*
D18*
X480060Y1186180D03*
X689610Y660400D03*
D19*
X492760Y652780D03*
X670560Y652780D03*
D20*
X611960Y826390D03*
X611960Y842390D03*
X652960Y842390D03*
X652960Y826390D03*
X611960Y870840D03*
X611960Y886840D03*
X652960Y886840D03*
X652960Y870840D03*
D21*
X591660Y808380D03*
X591660Y827380D03*
X570660Y817880D03*
D22*
X589160Y685956D03*
X584160Y685956D03*
D23*
X613910Y685956D03*
X606160Y685956D03*
D22*
X599160Y685956D03*
X594160Y685956D03*
X574160Y685956D03*
X579160Y685956D03*
D23*
X549410Y685956D03*
X557160Y685956D03*
D22*
X564160Y685956D03*
X569160Y685956D03*
D24*
X552760Y674906D03*
X610560Y674906D03*
D10*
X632460Y654130D03*
X632460Y664130D03*
X530860Y654130D03*
X530860Y664130D03*
D25*
X593160Y792480D03*
X570160Y792480D03*
D26*
X537210Y699456D03*
X549910Y699456D03*
X562610Y699456D03*
X575310Y699456D03*
X588010Y699456D03*
X600710Y699456D03*
X613410Y699456D03*
X626110Y699456D03*
X626110Y755456D03*
X613410Y755456D03*
X600710Y755456D03*
X588010Y755456D03*
X575310Y755456D03*
X562610Y755456D03*
X549910Y755456D03*
X537210Y755456D03*
D10*
X520700Y754554D03*
X520700Y744554D03*
X554054Y899414D03*
X564054Y899414D03*
D12*
X598370Y896940D02*
X598370Y903920D01*
X605350Y903920D01*
X605350Y896940D01*
X598370Y896940D01*
X598370Y901740D02*
X605350Y901740D01*
X580830Y903920D02*
X580830Y896940D01*
X580830Y903920D02*
X587810Y903920D01*
X587810Y896940D01*
X580830Y896940D01*
X580830Y901740D02*
X587810Y901740D01*
D27*
X523360Y929380D03*
X528360Y929380D03*
X533360Y929380D03*
X538360Y929380D03*
X538360Y909380D03*
X533360Y909380D03*
X528360Y909380D03*
X523360Y909380D03*
D28*
X530860Y919480D03*
D10*
X553466Y856662D03*
X553466Y846662D03*
X632380Y802132D03*
X622380Y802132D03*
X537290Y780034D03*
X547290Y780034D03*
D29*
X679030Y1185932D03*
X690030Y1185932D03*
X690030Y1167632D03*
X679030Y1167632D03*
D10*
X677926Y1205404D03*
X677926Y1195404D03*
D30*
X539920Y795180D03*
X539920Y815180D03*
D31*
X487920Y771180D03*
X487920Y839180D03*
D11*
X572160Y842979D03*
X581660Y842979D03*
X591160Y842979D03*
X591160Y868981D03*
X572160Y868981D03*
D32*
X606759Y791312D03*
X606759Y781812D03*
X606759Y772312D03*
X632761Y772312D03*
X632761Y791312D03*
D33*
X499280Y1136180D03*
X499280Y1123480D03*
X499280Y1110780D03*
X499280Y1098080D03*
X499280Y1085380D03*
X499280Y1072680D03*
X499280Y1059980D03*
X499280Y1047280D03*
X499280Y1034580D03*
X499280Y1021880D03*
X499280Y1009180D03*
X499280Y996480D03*
X499280Y983780D03*
X499280Y971080D03*
D34*
X524510Y956180D03*
X537210Y956180D03*
X549910Y956180D03*
X562610Y956180D03*
X575310Y956180D03*
X588010Y956180D03*
X600710Y956180D03*
X613410Y956180D03*
X626110Y956180D03*
X638810Y956180D03*
D33*
X664040Y971080D03*
X664040Y983780D03*
X664040Y996480D03*
X664040Y1009180D03*
X664040Y1021880D03*
X664040Y1034580D03*
X664040Y1047280D03*
X664040Y1059980D03*
X664040Y1072680D03*
X664040Y1085380D03*
X664040Y1098080D03*
X664040Y1110780D03*
X664040Y1123480D03*
X664040Y1136180D03*
D35*
X566350Y1062760D03*
X584800Y1080970D03*
X566500Y1080970D03*
X548200Y1080970D03*
X548200Y1062670D03*
X584900Y1062970D03*
X584800Y1044370D03*
X566500Y1044270D03*
X548200Y1044370D03*
D36*
X683260Y1148080D03*
X683260Y1122680D03*
X683260Y1097280D03*
X683260Y1071880D03*
X683260Y1046480D03*
X683260Y1021080D03*
X683260Y995680D03*
X683260Y970280D03*
X683260Y944880D03*
X683260Y919480D03*
X683260Y894080D03*
X683260Y868680D03*
X683260Y843280D03*
X683260Y817880D03*
X683260Y792480D03*
X683260Y767080D03*
X480060Y868680D03*
X480060Y894080D03*
X480060Y919480D03*
X480060Y944880D03*
X480060Y970280D03*
X480060Y995680D03*
X480060Y1021080D03*
X480060Y1046480D03*
X480060Y1071880D03*
X480060Y1097280D03*
X480060Y1122680D03*
X480060Y1148080D03*
D10*
X797480Y837438D03*
X787480Y837438D03*
X810340Y881380D03*
X820340Y881380D03*
D11*
X755040Y855679D03*
X764540Y855679D03*
X774040Y855679D03*
X774040Y881681D03*
X755040Y881681D03*
D10*
X772240Y827532D03*
X782240Y827532D03*
X820340Y779526D03*
X810340Y779526D03*
D12*
X832050Y915990D02*
X832050Y922970D01*
X839030Y922970D01*
X839030Y915990D01*
X832050Y915990D01*
X832050Y920790D02*
X839030Y920790D01*
X814510Y922970D02*
X814510Y915990D01*
X814510Y922970D02*
X821490Y922970D01*
X821490Y915990D01*
X814510Y915990D01*
X814510Y920790D02*
X821490Y920790D01*
D10*
X787480Y919480D03*
X797480Y919480D03*
D13*
X773040Y894080D03*
X756040Y894080D03*
D14*
X788162Y886070D03*
X788162Y869070D03*
D10*
X896540Y704850D03*
X886540Y704850D03*
X882476Y741172D03*
X892476Y741172D03*
D15*
X882340Y730400D03*
X900740Y723900D03*
X900740Y717400D03*
X900740Y730400D03*
X882340Y723900D03*
X882340Y717400D03*
D16*
X715090Y744280D03*
X715090Y688280D03*
D17*
X751840Y731280D03*
X751840Y721280D03*
X751840Y711280D03*
X751840Y701280D03*
D10*
X883920Y774780D03*
X883920Y784780D03*
X796290Y856662D03*
X796290Y846662D03*
D12*
X832050Y935040D02*
X832050Y942020D01*
X839030Y942020D01*
X839030Y935040D01*
X832050Y935040D01*
X832050Y939840D02*
X839030Y939840D01*
X814510Y942020D02*
X814510Y935040D01*
X814510Y942020D02*
X821490Y942020D01*
X821490Y935040D01*
X814510Y935040D01*
X814510Y939840D02*
X821490Y939840D01*
D10*
X784940Y938530D03*
X794940Y938530D03*
X845740Y855980D03*
X835740Y855980D03*
D18*
X713740Y1186180D03*
X923290Y660400D03*
D19*
X726440Y652780D03*
X904240Y652780D03*
D20*
X845640Y826390D03*
X845640Y842390D03*
X886640Y842390D03*
X886640Y826390D03*
X845640Y870840D03*
X845640Y886840D03*
X886640Y886840D03*
X886640Y870840D03*
D21*
X825340Y808380D03*
X825340Y827380D03*
X804340Y817880D03*
D22*
X822840Y685956D03*
X817840Y685956D03*
D23*
X847590Y685956D03*
X839840Y685956D03*
D22*
X832840Y685956D03*
X827840Y685956D03*
X807840Y685956D03*
X812840Y685956D03*
D23*
X783090Y685956D03*
X790840Y685956D03*
D22*
X797840Y685956D03*
X802840Y685956D03*
D24*
X786440Y674906D03*
X844240Y674906D03*
D10*
X866140Y654130D03*
X866140Y664130D03*
X764540Y654130D03*
X764540Y664130D03*
D25*
X826840Y792480D03*
X803840Y792480D03*
D26*
X770890Y699456D03*
X783590Y699456D03*
X796290Y699456D03*
X808990Y699456D03*
X821690Y699456D03*
X834390Y699456D03*
X847090Y699456D03*
X859790Y699456D03*
X859790Y755456D03*
X847090Y755456D03*
X834390Y755456D03*
X821690Y755456D03*
X808990Y755456D03*
X796290Y755456D03*
X783590Y755456D03*
X770890Y755456D03*
D10*
X754380Y754554D03*
X754380Y744554D03*
X787734Y899414D03*
X797734Y899414D03*
D12*
X832050Y896940D02*
X832050Y903920D01*
X839030Y903920D01*
X839030Y896940D01*
X832050Y896940D01*
X832050Y901740D02*
X839030Y901740D01*
X814510Y903920D02*
X814510Y896940D01*
X814510Y903920D02*
X821490Y903920D01*
X821490Y896940D01*
X814510Y896940D01*
X814510Y901740D02*
X821490Y901740D01*
D27*
X757040Y929380D03*
X762040Y929380D03*
X767040Y929380D03*
X772040Y929380D03*
X772040Y909380D03*
X767040Y909380D03*
X762040Y909380D03*
X757040Y909380D03*
D28*
X764540Y919480D03*
D10*
X787146Y856662D03*
X787146Y846662D03*
X866060Y802132D03*
X856060Y802132D03*
X770970Y780034D03*
X780970Y780034D03*
D29*
X912710Y1185932D03*
X923710Y1185932D03*
X923710Y1167632D03*
X912710Y1167632D03*
D10*
X911606Y1205404D03*
X911606Y1195404D03*
D30*
X773600Y795180D03*
X773600Y815180D03*
D31*
X721600Y771180D03*
X721600Y839180D03*
D11*
X805840Y842979D03*
X815340Y842979D03*
X824840Y842979D03*
X824840Y868981D03*
X805840Y868981D03*
D32*
X840439Y791312D03*
X840439Y781812D03*
X840439Y772312D03*
X866441Y772312D03*
X866441Y791312D03*
D33*
X732960Y1136180D03*
X732960Y1123480D03*
X732960Y1110780D03*
X732960Y1098080D03*
X732960Y1085380D03*
X732960Y1072680D03*
X732960Y1059980D03*
X732960Y1047280D03*
X732960Y1034580D03*
X732960Y1021880D03*
X732960Y1009180D03*
X732960Y996480D03*
X732960Y983780D03*
X732960Y971080D03*
D34*
X758190Y956180D03*
X770890Y956180D03*
X783590Y956180D03*
X796290Y956180D03*
X808990Y956180D03*
X821690Y956180D03*
X834390Y956180D03*
X847090Y956180D03*
X859790Y956180D03*
X872490Y956180D03*
D33*
X897720Y971080D03*
X897720Y983780D03*
X897720Y996480D03*
X897720Y1009180D03*
X897720Y1021880D03*
X897720Y1034580D03*
X897720Y1047280D03*
X897720Y1059980D03*
X897720Y1072680D03*
X897720Y1085380D03*
X897720Y1098080D03*
X897720Y1110780D03*
X897720Y1123480D03*
X897720Y1136180D03*
D35*
X800030Y1062760D03*
X818480Y1080970D03*
X800180Y1080970D03*
X781880Y1080970D03*
X781880Y1062670D03*
X818580Y1062970D03*
X818480Y1044370D03*
X800180Y1044270D03*
X781880Y1044370D03*
D36*
X916940Y1148080D03*
X916940Y1122680D03*
X916940Y1097280D03*
X916940Y1071880D03*
X916940Y1046480D03*
X916940Y1021080D03*
X916940Y995680D03*
X916940Y970280D03*
X916940Y944880D03*
X916940Y919480D03*
X916940Y894080D03*
X916940Y868680D03*
X916940Y843280D03*
X916940Y817880D03*
X916940Y792480D03*
X916940Y767080D03*
X713740Y868680D03*
X713740Y894080D03*
X713740Y919480D03*
X713740Y944880D03*
X713740Y970280D03*
X713740Y995680D03*
X713740Y1021080D03*
X713740Y1046480D03*
X713740Y1071880D03*
X713740Y1097280D03*
X713740Y1122680D03*
X713740Y1148080D03*
D10*
X96440Y1464818D03*
X86440Y1464818D03*
X109300Y1508760D03*
X119300Y1508760D03*
D11*
X54000Y1483059D03*
X63500Y1483059D03*
X73000Y1483059D03*
X73000Y1509061D03*
X54000Y1509061D03*
D10*
X71200Y1454912D03*
X81200Y1454912D03*
X119300Y1406906D03*
X109300Y1406906D03*
D12*
X131010Y1543370D02*
X131010Y1550350D01*
X137990Y1550350D01*
X137990Y1543370D01*
X131010Y1543370D01*
X131010Y1548170D02*
X137990Y1548170D01*
X113470Y1550350D02*
X113470Y1543370D01*
X113470Y1550350D02*
X120450Y1550350D01*
X120450Y1543370D01*
X113470Y1543370D01*
X113470Y1548170D02*
X120450Y1548170D01*
D10*
X86440Y1546860D03*
X96440Y1546860D03*
D13*
X72000Y1521460D03*
X55000Y1521460D03*
D14*
X87122Y1513450D03*
X87122Y1496450D03*
D10*
X195500Y1332230D03*
X185500Y1332230D03*
X181436Y1368552D03*
X191436Y1368552D03*
D15*
X181300Y1357780D03*
X199700Y1351280D03*
X199700Y1344780D03*
X199700Y1357780D03*
X181300Y1351280D03*
X181300Y1344780D03*
D16*
X14050Y1371660D03*
X14050Y1315660D03*
D17*
X50800Y1358660D03*
X50800Y1348660D03*
X50800Y1338660D03*
X50800Y1328660D03*
D10*
X182880Y1402160D03*
X182880Y1412160D03*
X95250Y1484042D03*
X95250Y1474042D03*
D12*
X131010Y1562420D02*
X131010Y1569400D01*
X137990Y1569400D01*
X137990Y1562420D01*
X131010Y1562420D01*
X131010Y1567220D02*
X137990Y1567220D01*
X113470Y1569400D02*
X113470Y1562420D01*
X113470Y1569400D02*
X120450Y1569400D01*
X120450Y1562420D01*
X113470Y1562420D01*
X113470Y1567220D02*
X120450Y1567220D01*
D10*
X83900Y1565910D03*
X93900Y1565910D03*
X144700Y1483360D03*
X134700Y1483360D03*
D18*
X12700Y1813560D03*
X222250Y1287780D03*
D19*
X25400Y1280160D03*
X203200Y1280160D03*
D20*
X144600Y1453770D03*
X144600Y1469770D03*
X185600Y1469770D03*
X185600Y1453770D03*
X144600Y1498220D03*
X144600Y1514220D03*
X185600Y1514220D03*
X185600Y1498220D03*
D21*
X124300Y1435760D03*
X124300Y1454760D03*
X103300Y1445260D03*
D22*
X121800Y1313336D03*
X116800Y1313336D03*
D23*
X146550Y1313336D03*
X138800Y1313336D03*
D22*
X131800Y1313336D03*
X126800Y1313336D03*
X106800Y1313336D03*
X111800Y1313336D03*
D23*
X82050Y1313336D03*
X89800Y1313336D03*
D22*
X96800Y1313336D03*
X101800Y1313336D03*
D24*
X85400Y1302286D03*
X143200Y1302286D03*
D10*
X165100Y1281510D03*
X165100Y1291510D03*
X63500Y1281510D03*
X63500Y1291510D03*
D25*
X125800Y1419860D03*
X102800Y1419860D03*
D26*
X69850Y1326836D03*
X82550Y1326836D03*
X95250Y1326836D03*
X107950Y1326836D03*
X120650Y1326836D03*
X133350Y1326836D03*
X146050Y1326836D03*
X158750Y1326836D03*
X158750Y1382836D03*
X146050Y1382836D03*
X133350Y1382836D03*
X120650Y1382836D03*
X107950Y1382836D03*
X95250Y1382836D03*
X82550Y1382836D03*
X69850Y1382836D03*
D10*
X53340Y1381934D03*
X53340Y1371934D03*
X86694Y1526794D03*
X96694Y1526794D03*
D12*
X131010Y1524320D02*
X131010Y1531300D01*
X137990Y1531300D01*
X137990Y1524320D01*
X131010Y1524320D01*
X131010Y1529120D02*
X137990Y1529120D01*
X113470Y1531300D02*
X113470Y1524320D01*
X113470Y1531300D02*
X120450Y1531300D01*
X120450Y1524320D01*
X113470Y1524320D01*
X113470Y1529120D02*
X120450Y1529120D01*
D27*
X56000Y1556760D03*
X61000Y1556760D03*
X66000Y1556760D03*
X71000Y1556760D03*
X71000Y1536760D03*
X66000Y1536760D03*
X61000Y1536760D03*
X56000Y1536760D03*
D28*
X63500Y1546860D03*
D10*
X86106Y1484042D03*
X86106Y1474042D03*
X165020Y1429512D03*
X155020Y1429512D03*
X69930Y1407414D03*
X79930Y1407414D03*
D29*
X211670Y1813312D03*
X222670Y1813312D03*
X222670Y1795012D03*
X211670Y1795012D03*
D10*
X210566Y1832784D03*
X210566Y1822784D03*
D30*
X72560Y1422560D03*
X72560Y1442560D03*
D31*
X20560Y1398560D03*
X20560Y1466560D03*
D11*
X104800Y1470359D03*
X114300Y1470359D03*
X123800Y1470359D03*
X123800Y1496361D03*
X104800Y1496361D03*
D32*
X139399Y1418692D03*
X139399Y1409192D03*
X139399Y1399692D03*
X165401Y1399692D03*
X165401Y1418692D03*
D33*
X31920Y1763560D03*
X31920Y1750860D03*
X31920Y1738160D03*
X31920Y1725460D03*
X31920Y1712760D03*
X31920Y1700060D03*
X31920Y1687360D03*
X31920Y1674660D03*
X31920Y1661960D03*
X31920Y1649260D03*
X31920Y1636560D03*
X31920Y1623860D03*
X31920Y1611160D03*
X31920Y1598460D03*
D34*
X57150Y1583560D03*
X69850Y1583560D03*
X82550Y1583560D03*
X95250Y1583560D03*
X107950Y1583560D03*
X120650Y1583560D03*
X133350Y1583560D03*
X146050Y1583560D03*
X158750Y1583560D03*
X171450Y1583560D03*
D33*
X196680Y1598460D03*
X196680Y1611160D03*
X196680Y1623860D03*
X196680Y1636560D03*
X196680Y1649260D03*
X196680Y1661960D03*
X196680Y1674660D03*
X196680Y1687360D03*
X196680Y1700060D03*
X196680Y1712760D03*
X196680Y1725460D03*
X196680Y1738160D03*
X196680Y1750860D03*
X196680Y1763560D03*
D35*
X98990Y1690140D03*
X117440Y1708350D03*
X99140Y1708350D03*
X80840Y1708350D03*
X80840Y1690050D03*
X117540Y1690350D03*
X117440Y1671750D03*
X99140Y1671650D03*
X80840Y1671750D03*
D36*
X215900Y1775460D03*
X215900Y1750060D03*
X215900Y1724660D03*
X215900Y1699260D03*
X215900Y1673860D03*
X215900Y1648460D03*
X215900Y1623060D03*
X215900Y1597660D03*
X215900Y1572260D03*
X215900Y1546860D03*
X215900Y1521460D03*
X215900Y1496060D03*
X215900Y1470660D03*
X215900Y1445260D03*
X215900Y1419860D03*
X215900Y1394460D03*
X12700Y1496060D03*
X12700Y1521460D03*
X12700Y1546860D03*
X12700Y1572260D03*
X12700Y1597660D03*
X12700Y1623060D03*
X12700Y1648460D03*
X12700Y1673860D03*
X12700Y1699260D03*
X12700Y1724660D03*
X12700Y1750060D03*
X12700Y1775460D03*
D10*
X330120Y1464818D03*
X320120Y1464818D03*
X342980Y1508760D03*
X352980Y1508760D03*
D11*
X287680Y1483059D03*
X297180Y1483059D03*
X306680Y1483059D03*
X306680Y1509061D03*
X287680Y1509061D03*
D10*
X304880Y1454912D03*
X314880Y1454912D03*
X352980Y1406906D03*
X342980Y1406906D03*
D12*
X364690Y1543370D02*
X364690Y1550350D01*
X371670Y1550350D01*
X371670Y1543370D01*
X364690Y1543370D01*
X364690Y1548170D02*
X371670Y1548170D01*
X347150Y1550350D02*
X347150Y1543370D01*
X347150Y1550350D02*
X354130Y1550350D01*
X354130Y1543370D01*
X347150Y1543370D01*
X347150Y1548170D02*
X354130Y1548170D01*
D10*
X320120Y1546860D03*
X330120Y1546860D03*
D13*
X305680Y1521460D03*
X288680Y1521460D03*
D14*
X320802Y1513450D03*
X320802Y1496450D03*
D10*
X429180Y1332230D03*
X419180Y1332230D03*
X415116Y1368552D03*
X425116Y1368552D03*
D15*
X414980Y1357780D03*
X433380Y1351280D03*
X433380Y1344780D03*
X433380Y1357780D03*
X414980Y1351280D03*
X414980Y1344780D03*
D16*
X247730Y1371660D03*
X247730Y1315660D03*
D17*
X284480Y1358660D03*
X284480Y1348660D03*
X284480Y1338660D03*
X284480Y1328660D03*
D10*
X416560Y1402160D03*
X416560Y1412160D03*
X328930Y1484042D03*
X328930Y1474042D03*
D12*
X364690Y1562420D02*
X364690Y1569400D01*
X371670Y1569400D01*
X371670Y1562420D01*
X364690Y1562420D01*
X364690Y1567220D02*
X371670Y1567220D01*
X347150Y1569400D02*
X347150Y1562420D01*
X347150Y1569400D02*
X354130Y1569400D01*
X354130Y1562420D01*
X347150Y1562420D01*
X347150Y1567220D02*
X354130Y1567220D01*
D10*
X317580Y1565910D03*
X327580Y1565910D03*
X378380Y1483360D03*
X368380Y1483360D03*
D18*
X246380Y1813560D03*
X455930Y1287780D03*
D19*
X259080Y1280160D03*
X436880Y1280160D03*
D20*
X378280Y1453770D03*
X378280Y1469770D03*
X419280Y1469770D03*
X419280Y1453770D03*
X378280Y1498220D03*
X378280Y1514220D03*
X419280Y1514220D03*
X419280Y1498220D03*
D21*
X357980Y1435760D03*
X357980Y1454760D03*
X336980Y1445260D03*
D22*
X355480Y1313336D03*
X350480Y1313336D03*
D23*
X380230Y1313336D03*
X372480Y1313336D03*
D22*
X365480Y1313336D03*
X360480Y1313336D03*
X340480Y1313336D03*
X345480Y1313336D03*
D23*
X315730Y1313336D03*
X323480Y1313336D03*
D22*
X330480Y1313336D03*
X335480Y1313336D03*
D24*
X319080Y1302286D03*
X376880Y1302286D03*
D10*
X398780Y1281510D03*
X398780Y1291510D03*
X297180Y1281510D03*
X297180Y1291510D03*
D25*
X359480Y1419860D03*
X336480Y1419860D03*
D26*
X303530Y1326836D03*
X316230Y1326836D03*
X328930Y1326836D03*
X341630Y1326836D03*
X354330Y1326836D03*
X367030Y1326836D03*
X379730Y1326836D03*
X392430Y1326836D03*
X392430Y1382836D03*
X379730Y1382836D03*
X367030Y1382836D03*
X354330Y1382836D03*
X341630Y1382836D03*
X328930Y1382836D03*
X316230Y1382836D03*
X303530Y1382836D03*
D10*
X287020Y1381934D03*
X287020Y1371934D03*
X320374Y1526794D03*
X330374Y1526794D03*
D12*
X364690Y1524320D02*
X364690Y1531300D01*
X371670Y1531300D01*
X371670Y1524320D01*
X364690Y1524320D01*
X364690Y1529120D02*
X371670Y1529120D01*
X347150Y1531300D02*
X347150Y1524320D01*
X347150Y1531300D02*
X354130Y1531300D01*
X354130Y1524320D01*
X347150Y1524320D01*
X347150Y1529120D02*
X354130Y1529120D01*
D27*
X289680Y1556760D03*
X294680Y1556760D03*
X299680Y1556760D03*
X304680Y1556760D03*
X304680Y1536760D03*
X299680Y1536760D03*
X294680Y1536760D03*
X289680Y1536760D03*
D28*
X297180Y1546860D03*
D10*
X319786Y1484042D03*
X319786Y1474042D03*
X398700Y1429512D03*
X388700Y1429512D03*
X303610Y1407414D03*
X313610Y1407414D03*
D29*
X445350Y1813312D03*
X456350Y1813312D03*
X456350Y1795012D03*
X445350Y1795012D03*
D10*
X444246Y1832784D03*
X444246Y1822784D03*
D30*
X306240Y1422560D03*
X306240Y1442560D03*
D31*
X254240Y1398560D03*
X254240Y1466560D03*
D11*
X338480Y1470359D03*
X347980Y1470359D03*
X357480Y1470359D03*
X357480Y1496361D03*
X338480Y1496361D03*
D32*
X373079Y1418692D03*
X373079Y1409192D03*
X373079Y1399692D03*
X399081Y1399692D03*
X399081Y1418692D03*
D33*
X265600Y1763560D03*
X265600Y1750860D03*
X265600Y1738160D03*
X265600Y1725460D03*
X265600Y1712760D03*
X265600Y1700060D03*
X265600Y1687360D03*
X265600Y1674660D03*
X265600Y1661960D03*
X265600Y1649260D03*
X265600Y1636560D03*
X265600Y1623860D03*
X265600Y1611160D03*
X265600Y1598460D03*
D34*
X290830Y1583560D03*
X303530Y1583560D03*
X316230Y1583560D03*
X328930Y1583560D03*
X341630Y1583560D03*
X354330Y1583560D03*
X367030Y1583560D03*
X379730Y1583560D03*
X392430Y1583560D03*
X405130Y1583560D03*
D33*
X430360Y1598460D03*
X430360Y1611160D03*
X430360Y1623860D03*
X430360Y1636560D03*
X430360Y1649260D03*
X430360Y1661960D03*
X430360Y1674660D03*
X430360Y1687360D03*
X430360Y1700060D03*
X430360Y1712760D03*
X430360Y1725460D03*
X430360Y1738160D03*
X430360Y1750860D03*
X430360Y1763560D03*
D35*
X332670Y1690140D03*
X351120Y1708350D03*
X332820Y1708350D03*
X314520Y1708350D03*
X314520Y1690050D03*
X351220Y1690350D03*
X351120Y1671750D03*
X332820Y1671650D03*
X314520Y1671750D03*
D36*
X449580Y1775460D03*
X449580Y1750060D03*
X449580Y1724660D03*
X449580Y1699260D03*
X449580Y1673860D03*
X449580Y1648460D03*
X449580Y1623060D03*
X449580Y1597660D03*
X449580Y1572260D03*
X449580Y1546860D03*
X449580Y1521460D03*
X449580Y1496060D03*
X449580Y1470660D03*
X449580Y1445260D03*
X449580Y1419860D03*
X449580Y1394460D03*
X246380Y1496060D03*
X246380Y1521460D03*
X246380Y1546860D03*
X246380Y1572260D03*
X246380Y1597660D03*
X246380Y1623060D03*
X246380Y1648460D03*
X246380Y1673860D03*
X246380Y1699260D03*
X246380Y1724660D03*
X246380Y1750060D03*
X246380Y1775460D03*
D10*
X563800Y1464818D03*
X553800Y1464818D03*
X576660Y1508760D03*
X586660Y1508760D03*
D11*
X521360Y1483059D03*
X530860Y1483059D03*
X540360Y1483059D03*
X540360Y1509061D03*
X521360Y1509061D03*
D10*
X538560Y1454912D03*
X548560Y1454912D03*
X586660Y1406906D03*
X576660Y1406906D03*
D12*
X598370Y1543370D02*
X598370Y1550350D01*
X605350Y1550350D01*
X605350Y1543370D01*
X598370Y1543370D01*
X598370Y1548170D02*
X605350Y1548170D01*
X580830Y1550350D02*
X580830Y1543370D01*
X580830Y1550350D02*
X587810Y1550350D01*
X587810Y1543370D01*
X580830Y1543370D01*
X580830Y1548170D02*
X587810Y1548170D01*
D10*
X553800Y1546860D03*
X563800Y1546860D03*
D13*
X539360Y1521460D03*
X522360Y1521460D03*
D14*
X554482Y1513450D03*
X554482Y1496450D03*
D10*
X662860Y1332230D03*
X652860Y1332230D03*
X648796Y1368552D03*
X658796Y1368552D03*
D15*
X648660Y1357780D03*
X667060Y1351280D03*
X667060Y1344780D03*
X667060Y1357780D03*
X648660Y1351280D03*
X648660Y1344780D03*
D16*
X481410Y1371660D03*
X481410Y1315660D03*
D17*
X518160Y1358660D03*
X518160Y1348660D03*
X518160Y1338660D03*
X518160Y1328660D03*
D10*
X650240Y1402160D03*
X650240Y1412160D03*
X562610Y1484042D03*
X562610Y1474042D03*
D12*
X598370Y1562420D02*
X598370Y1569400D01*
X605350Y1569400D01*
X605350Y1562420D01*
X598370Y1562420D01*
X598370Y1567220D02*
X605350Y1567220D01*
X580830Y1569400D02*
X580830Y1562420D01*
X580830Y1569400D02*
X587810Y1569400D01*
X587810Y1562420D01*
X580830Y1562420D01*
X580830Y1567220D02*
X587810Y1567220D01*
D10*
X551260Y1565910D03*
X561260Y1565910D03*
X612060Y1483360D03*
X602060Y1483360D03*
D18*
X480060Y1813560D03*
X689610Y1287780D03*
D19*
X492760Y1280160D03*
X670560Y1280160D03*
D20*
X611960Y1453770D03*
X611960Y1469770D03*
X652960Y1469770D03*
X652960Y1453770D03*
X611960Y1498220D03*
X611960Y1514220D03*
X652960Y1514220D03*
X652960Y1498220D03*
D21*
X591660Y1435760D03*
X591660Y1454760D03*
X570660Y1445260D03*
D22*
X589160Y1313336D03*
X584160Y1313336D03*
D23*
X613910Y1313336D03*
X606160Y1313336D03*
D22*
X599160Y1313336D03*
X594160Y1313336D03*
X574160Y1313336D03*
X579160Y1313336D03*
D23*
X549410Y1313336D03*
X557160Y1313336D03*
D22*
X564160Y1313336D03*
X569160Y1313336D03*
D24*
X552760Y1302286D03*
X610560Y1302286D03*
D10*
X632460Y1281510D03*
X632460Y1291510D03*
X530860Y1281510D03*
X530860Y1291510D03*
D25*
X593160Y1419860D03*
X570160Y1419860D03*
D26*
X537210Y1326836D03*
X549910Y1326836D03*
X562610Y1326836D03*
X575310Y1326836D03*
X588010Y1326836D03*
X600710Y1326836D03*
X613410Y1326836D03*
X626110Y1326836D03*
X626110Y1382836D03*
X613410Y1382836D03*
X600710Y1382836D03*
X588010Y1382836D03*
X575310Y1382836D03*
X562610Y1382836D03*
X549910Y1382836D03*
X537210Y1382836D03*
D10*
X520700Y1381934D03*
X520700Y1371934D03*
X554054Y1526794D03*
X564054Y1526794D03*
D12*
X598370Y1524320D02*
X598370Y1531300D01*
X605350Y1531300D01*
X605350Y1524320D01*
X598370Y1524320D01*
X598370Y1529120D02*
X605350Y1529120D01*
X580830Y1531300D02*
X580830Y1524320D01*
X580830Y1531300D02*
X587810Y1531300D01*
X587810Y1524320D01*
X580830Y1524320D01*
X580830Y1529120D02*
X587810Y1529120D01*
D27*
X523360Y1556760D03*
X528360Y1556760D03*
X533360Y1556760D03*
X538360Y1556760D03*
X538360Y1536760D03*
X533360Y1536760D03*
X528360Y1536760D03*
X523360Y1536760D03*
D28*
X530860Y1546860D03*
D10*
X553466Y1484042D03*
X553466Y1474042D03*
X632380Y1429512D03*
X622380Y1429512D03*
X537290Y1407414D03*
X547290Y1407414D03*
D29*
X679030Y1813312D03*
X690030Y1813312D03*
X690030Y1795012D03*
X679030Y1795012D03*
D10*
X677926Y1832784D03*
X677926Y1822784D03*
D30*
X539920Y1422560D03*
X539920Y1442560D03*
D31*
X487920Y1398560D03*
X487920Y1466560D03*
D11*
X572160Y1470359D03*
X581660Y1470359D03*
X591160Y1470359D03*
X591160Y1496361D03*
X572160Y1496361D03*
D32*
X606759Y1418692D03*
X606759Y1409192D03*
X606759Y1399692D03*
X632761Y1399692D03*
X632761Y1418692D03*
D33*
X499280Y1763560D03*
X499280Y1750860D03*
X499280Y1738160D03*
X499280Y1725460D03*
X499280Y1712760D03*
X499280Y1700060D03*
X499280Y1687360D03*
X499280Y1674660D03*
X499280Y1661960D03*
X499280Y1649260D03*
X499280Y1636560D03*
X499280Y1623860D03*
X499280Y1611160D03*
X499280Y1598460D03*
D34*
X524510Y1583560D03*
X537210Y1583560D03*
X549910Y1583560D03*
X562610Y1583560D03*
X575310Y1583560D03*
X588010Y1583560D03*
X600710Y1583560D03*
X613410Y1583560D03*
X626110Y1583560D03*
X638810Y1583560D03*
D33*
X664040Y1598460D03*
X664040Y1611160D03*
X664040Y1623860D03*
X664040Y1636560D03*
X664040Y1649260D03*
X664040Y1661960D03*
X664040Y1674660D03*
X664040Y1687360D03*
X664040Y1700060D03*
X664040Y1712760D03*
X664040Y1725460D03*
X664040Y1738160D03*
X664040Y1750860D03*
X664040Y1763560D03*
D35*
X566350Y1690140D03*
X584800Y1708350D03*
X566500Y1708350D03*
X548200Y1708350D03*
X548200Y1690050D03*
X584900Y1690350D03*
X584800Y1671750D03*
X566500Y1671650D03*
X548200Y1671750D03*
D36*
X683260Y1775460D03*
X683260Y1750060D03*
X683260Y1724660D03*
X683260Y1699260D03*
X683260Y1673860D03*
X683260Y1648460D03*
X683260Y1623060D03*
X683260Y1597660D03*
X683260Y1572260D03*
X683260Y1546860D03*
X683260Y1521460D03*
X683260Y1496060D03*
X683260Y1470660D03*
X683260Y1445260D03*
X683260Y1419860D03*
X683260Y1394460D03*
X480060Y1496060D03*
X480060Y1521460D03*
X480060Y1546860D03*
X480060Y1572260D03*
X480060Y1597660D03*
X480060Y1623060D03*
X480060Y1648460D03*
X480060Y1673860D03*
X480060Y1699260D03*
X480060Y1724660D03*
X480060Y1750060D03*
X480060Y1775460D03*
D10*
X797480Y1464818D03*
X787480Y1464818D03*
X810340Y1508760D03*
X820340Y1508760D03*
D11*
X755040Y1483059D03*
X764540Y1483059D03*
X774040Y1483059D03*
X774040Y1509061D03*
X755040Y1509061D03*
D10*
X772240Y1454912D03*
X782240Y1454912D03*
X820340Y1406906D03*
X810340Y1406906D03*
D12*
X832050Y1543370D02*
X832050Y1550350D01*
X839030Y1550350D01*
X839030Y1543370D01*
X832050Y1543370D01*
X832050Y1548170D02*
X839030Y1548170D01*
X814510Y1550350D02*
X814510Y1543370D01*
X814510Y1550350D02*
X821490Y1550350D01*
X821490Y1543370D01*
X814510Y1543370D01*
X814510Y1548170D02*
X821490Y1548170D01*
D10*
X787480Y1546860D03*
X797480Y1546860D03*
D13*
X773040Y1521460D03*
X756040Y1521460D03*
D14*
X788162Y1513450D03*
X788162Y1496450D03*
D10*
X896540Y1332230D03*
X886540Y1332230D03*
X882476Y1368552D03*
X892476Y1368552D03*
D15*
X882340Y1357780D03*
X900740Y1351280D03*
X900740Y1344780D03*
X900740Y1357780D03*
X882340Y1351280D03*
X882340Y1344780D03*
D16*
X715090Y1371660D03*
X715090Y1315660D03*
D17*
X751840Y1358660D03*
X751840Y1348660D03*
X751840Y1338660D03*
X751840Y1328660D03*
D10*
X883920Y1402160D03*
X883920Y1412160D03*
X796290Y1484042D03*
X796290Y1474042D03*
D12*
X832050Y1562420D02*
X832050Y1569400D01*
X839030Y1569400D01*
X839030Y1562420D01*
X832050Y1562420D01*
X832050Y1567220D02*
X839030Y1567220D01*
X814510Y1569400D02*
X814510Y1562420D01*
X814510Y1569400D02*
X821490Y1569400D01*
X821490Y1562420D01*
X814510Y1562420D01*
X814510Y1567220D02*
X821490Y1567220D01*
D10*
X784940Y1565910D03*
X794940Y1565910D03*
X845740Y1483360D03*
X835740Y1483360D03*
D18*
X713740Y1813560D03*
X923290Y1287780D03*
D19*
X726440Y1280160D03*
X904240Y1280160D03*
D20*
X845640Y1453770D03*
X845640Y1469770D03*
X886640Y1469770D03*
X886640Y1453770D03*
X845640Y1498220D03*
X845640Y1514220D03*
X886640Y1514220D03*
X886640Y1498220D03*
D21*
X825340Y1435760D03*
X825340Y1454760D03*
X804340Y1445260D03*
D22*
X822840Y1313336D03*
X817840Y1313336D03*
D23*
X847590Y1313336D03*
X839840Y1313336D03*
D22*
X832840Y1313336D03*
X827840Y1313336D03*
X807840Y1313336D03*
X812840Y1313336D03*
D23*
X783090Y1313336D03*
X790840Y1313336D03*
D22*
X797840Y1313336D03*
X802840Y1313336D03*
D24*
X786440Y1302286D03*
X844240Y1302286D03*
D10*
X866140Y1281510D03*
X866140Y1291510D03*
X764540Y1281510D03*
X764540Y1291510D03*
D25*
X826840Y1419860D03*
X803840Y1419860D03*
D26*
X770890Y1326836D03*
X783590Y1326836D03*
X796290Y1326836D03*
X808990Y1326836D03*
X821690Y1326836D03*
X834390Y1326836D03*
X847090Y1326836D03*
X859790Y1326836D03*
X859790Y1382836D03*
X847090Y1382836D03*
X834390Y1382836D03*
X821690Y1382836D03*
X808990Y1382836D03*
X796290Y1382836D03*
X783590Y1382836D03*
X770890Y1382836D03*
D10*
X754380Y1381934D03*
X754380Y1371934D03*
X787734Y1526794D03*
X797734Y1526794D03*
D12*
X832050Y1524320D02*
X832050Y1531300D01*
X839030Y1531300D01*
X839030Y1524320D01*
X832050Y1524320D01*
X832050Y1529120D02*
X839030Y1529120D01*
X814510Y1531300D02*
X814510Y1524320D01*
X814510Y1531300D02*
X821490Y1531300D01*
X821490Y1524320D01*
X814510Y1524320D01*
X814510Y1529120D02*
X821490Y1529120D01*
D27*
X757040Y1556760D03*
X762040Y1556760D03*
X767040Y1556760D03*
X772040Y1556760D03*
X772040Y1536760D03*
X767040Y1536760D03*
X762040Y1536760D03*
X757040Y1536760D03*
D28*
X764540Y1546860D03*
D10*
X787146Y1484042D03*
X787146Y1474042D03*
X866060Y1429512D03*
X856060Y1429512D03*
X770970Y1407414D03*
X780970Y1407414D03*
D29*
X912710Y1813312D03*
X923710Y1813312D03*
X923710Y1795012D03*
X912710Y1795012D03*
D10*
X911606Y1832784D03*
X911606Y1822784D03*
D30*
X773600Y1422560D03*
X773600Y1442560D03*
D31*
X721600Y1398560D03*
X721600Y1466560D03*
D11*
X805840Y1470359D03*
X815340Y1470359D03*
X824840Y1470359D03*
X824840Y1496361D03*
X805840Y1496361D03*
D32*
X840439Y1418692D03*
X840439Y1409192D03*
X840439Y1399692D03*
X866441Y1399692D03*
X866441Y1418692D03*
D33*
X732960Y1763560D03*
X732960Y1750860D03*
X732960Y1738160D03*
X732960Y1725460D03*
X732960Y1712760D03*
X732960Y1700060D03*
X732960Y1687360D03*
X732960Y1674660D03*
X732960Y1661960D03*
X732960Y1649260D03*
X732960Y1636560D03*
X732960Y1623860D03*
X732960Y1611160D03*
X732960Y1598460D03*
D34*
X758190Y1583560D03*
X770890Y1583560D03*
X783590Y1583560D03*
X796290Y1583560D03*
X808990Y1583560D03*
X821690Y1583560D03*
X834390Y1583560D03*
X847090Y1583560D03*
X859790Y1583560D03*
X872490Y1583560D03*
D33*
X897720Y1598460D03*
X897720Y1611160D03*
X897720Y1623860D03*
X897720Y1636560D03*
X897720Y1649260D03*
X897720Y1661960D03*
X897720Y1674660D03*
X897720Y1687360D03*
X897720Y1700060D03*
X897720Y1712760D03*
X897720Y1725460D03*
X897720Y1738160D03*
X897720Y1750860D03*
X897720Y1763560D03*
D35*
X800030Y1690140D03*
X818480Y1708350D03*
X800180Y1708350D03*
X781880Y1708350D03*
X781880Y1690050D03*
X818580Y1690350D03*
X818480Y1671750D03*
X800180Y1671650D03*
X781880Y1671750D03*
D36*
X916940Y1775460D03*
X916940Y1750060D03*
X916940Y1724660D03*
X916940Y1699260D03*
X916940Y1673860D03*
X916940Y1648460D03*
X916940Y1623060D03*
X916940Y1597660D03*
X916940Y1572260D03*
X916940Y1546860D03*
X916940Y1521460D03*
X916940Y1496060D03*
X916940Y1470660D03*
X916940Y1445260D03*
X916940Y1419860D03*
X916940Y1394460D03*
X713740Y1496060D03*
X713740Y1521460D03*
X713740Y1546860D03*
X713740Y1572260D03*
X713740Y1597660D03*
X713740Y1623060D03*
X713740Y1648460D03*
X713740Y1673860D03*
X713740Y1699260D03*
X713740Y1724660D03*
X713740Y1750060D03*
X713740Y1775460D03*
D37*
X-26238Y1778000D03*
X955878Y1778000D03*
D38*
X-35293Y63500D02*
X-35290Y63722D01*
X-35282Y63944D01*
X-35268Y64166D01*
X-35249Y64388D01*
X-35225Y64608D01*
X-35195Y64829D01*
X-35160Y65048D01*
X-35119Y65267D01*
X-35073Y65484D01*
X-35022Y65700D01*
X-34965Y65915D01*
X-34903Y66129D01*
X-34836Y66340D01*
X-34764Y66551D01*
X-34686Y66759D01*
X-34604Y66965D01*
X-34516Y67169D01*
X-34424Y67372D01*
X-34326Y67571D01*
X-34224Y67768D01*
X-34117Y67963D01*
X-34005Y68155D01*
X-33888Y68344D01*
X-33767Y68531D01*
X-33641Y68714D01*
X-33511Y68894D01*
X-33376Y69071D01*
X-33238Y69244D01*
X-33095Y69414D01*
X-32947Y69581D01*
X-32796Y69744D01*
X-32641Y69903D01*
X-32482Y70058D01*
X-32319Y70209D01*
X-32152Y70357D01*
X-31982Y70500D01*
X-31809Y70638D01*
X-31632Y70773D01*
X-31452Y70903D01*
X-31269Y71029D01*
X-31082Y71150D01*
X-30893Y71267D01*
X-30701Y71379D01*
X-30506Y71486D01*
X-30309Y71588D01*
X-30110Y71686D01*
X-29907Y71778D01*
X-29703Y71866D01*
X-29497Y71948D01*
X-29289Y72026D01*
X-29078Y72098D01*
X-28867Y72165D01*
X-28653Y72227D01*
X-28438Y72284D01*
X-28222Y72335D01*
X-28005Y72381D01*
X-27786Y72422D01*
X-27567Y72457D01*
X-27346Y72487D01*
X-27126Y72511D01*
X-26904Y72530D01*
X-26682Y72544D01*
X-26460Y72552D01*
X-26238Y72555D01*
X-26016Y72552D01*
X-25794Y72544D01*
X-25572Y72530D01*
X-25350Y72511D01*
X-25130Y72487D01*
X-24909Y72457D01*
X-24690Y72422D01*
X-24471Y72381D01*
X-24254Y72335D01*
X-24038Y72284D01*
X-23823Y72227D01*
X-23609Y72165D01*
X-23398Y72098D01*
X-23187Y72026D01*
X-22979Y71948D01*
X-22773Y71866D01*
X-22569Y71778D01*
X-22366Y71686D01*
X-22167Y71588D01*
X-21970Y71486D01*
X-21775Y71379D01*
X-21583Y71267D01*
X-21394Y71150D01*
X-21207Y71029D01*
X-21024Y70903D01*
X-20844Y70773D01*
X-20667Y70638D01*
X-20494Y70500D01*
X-20324Y70357D01*
X-20157Y70209D01*
X-19994Y70058D01*
X-19835Y69903D01*
X-19680Y69744D01*
X-19529Y69581D01*
X-19381Y69414D01*
X-19238Y69244D01*
X-19100Y69071D01*
X-18965Y68894D01*
X-18835Y68714D01*
X-18709Y68531D01*
X-18588Y68344D01*
X-18471Y68155D01*
X-18359Y67963D01*
X-18252Y67768D01*
X-18150Y67571D01*
X-18052Y67372D01*
X-17960Y67169D01*
X-17872Y66965D01*
X-17790Y66759D01*
X-17712Y66551D01*
X-17640Y66340D01*
X-17573Y66129D01*
X-17511Y65915D01*
X-17454Y65700D01*
X-17403Y65484D01*
X-17357Y65267D01*
X-17316Y65048D01*
X-17281Y64829D01*
X-17251Y64608D01*
X-17227Y64388D01*
X-17208Y64166D01*
X-17194Y63944D01*
X-17186Y63722D01*
X-17183Y63500D01*
X-17186Y63278D01*
X-17194Y63056D01*
X-17208Y62834D01*
X-17227Y62612D01*
X-17251Y62392D01*
X-17281Y62171D01*
X-17316Y61952D01*
X-17357Y61733D01*
X-17403Y61516D01*
X-17454Y61300D01*
X-17511Y61085D01*
X-17573Y60871D01*
X-17640Y60660D01*
X-17712Y60449D01*
X-17790Y60241D01*
X-17872Y60035D01*
X-17960Y59831D01*
X-18052Y59628D01*
X-18150Y59429D01*
X-18252Y59232D01*
X-18359Y59037D01*
X-18471Y58845D01*
X-18588Y58656D01*
X-18709Y58469D01*
X-18835Y58286D01*
X-18965Y58106D01*
X-19100Y57929D01*
X-19238Y57756D01*
X-19381Y57586D01*
X-19529Y57419D01*
X-19680Y57256D01*
X-19835Y57097D01*
X-19994Y56942D01*
X-20157Y56791D01*
X-20324Y56643D01*
X-20494Y56500D01*
X-20667Y56362D01*
X-20844Y56227D01*
X-21024Y56097D01*
X-21207Y55971D01*
X-21394Y55850D01*
X-21583Y55733D01*
X-21775Y55621D01*
X-21970Y55514D01*
X-22167Y55412D01*
X-22366Y55314D01*
X-22569Y55222D01*
X-22773Y55134D01*
X-22979Y55052D01*
X-23187Y54974D01*
X-23398Y54902D01*
X-23609Y54835D01*
X-23823Y54773D01*
X-24038Y54716D01*
X-24254Y54665D01*
X-24471Y54619D01*
X-24690Y54578D01*
X-24909Y54543D01*
X-25130Y54513D01*
X-25350Y54489D01*
X-25572Y54470D01*
X-25794Y54456D01*
X-26016Y54448D01*
X-26238Y54445D01*
X-26460Y54448D01*
X-26682Y54456D01*
X-26904Y54470D01*
X-27126Y54489D01*
X-27346Y54513D01*
X-27567Y54543D01*
X-27786Y54578D01*
X-28005Y54619D01*
X-28222Y54665D01*
X-28438Y54716D01*
X-28653Y54773D01*
X-28867Y54835D01*
X-29078Y54902D01*
X-29289Y54974D01*
X-29497Y55052D01*
X-29703Y55134D01*
X-29907Y55222D01*
X-30110Y55314D01*
X-30309Y55412D01*
X-30506Y55514D01*
X-30701Y55621D01*
X-30893Y55733D01*
X-31082Y55850D01*
X-31269Y55971D01*
X-31452Y56097D01*
X-31632Y56227D01*
X-31809Y56362D01*
X-31982Y56500D01*
X-32152Y56643D01*
X-32319Y56791D01*
X-32482Y56942D01*
X-32641Y57097D01*
X-32796Y57256D01*
X-32947Y57419D01*
X-33095Y57586D01*
X-33238Y57756D01*
X-33376Y57929D01*
X-33511Y58106D01*
X-33641Y58286D01*
X-33767Y58469D01*
X-33888Y58656D01*
X-34005Y58845D01*
X-34117Y59037D01*
X-34224Y59232D01*
X-34326Y59429D01*
X-34424Y59628D01*
X-34516Y59831D01*
X-34604Y60035D01*
X-34686Y60241D01*
X-34764Y60449D01*
X-34836Y60660D01*
X-34903Y60871D01*
X-34965Y61085D01*
X-35022Y61300D01*
X-35073Y61516D01*
X-35119Y61733D01*
X-35160Y61952D01*
X-35195Y62171D01*
X-35225Y62392D01*
X-35249Y62612D01*
X-35268Y62834D01*
X-35282Y63056D01*
X-35290Y63278D01*
X-35293Y63500D01*
D39*
X-26238Y63500D03*
M02*
