G04 EAGLE Gerber RS-274X export*
G75*
%MOMM*%
%FSLAX34Y34*%
%LPD*%
%INSolderpaste Top*%
%IPPOS*%
%AMOC8*
5,1,8,0,0,1.08239X$1,22.5*%
G01*
%ADD10R,0.600000X0.600000*%
%ADD11R,0.550000X1.200000*%
%ADD12C,0.300000*%
%ADD13R,1.100000X1.000000*%
%ADD14R,1.000000X1.100000*%
%ADD15R,0.660000X0.300000*%
%ADD16R,2.000000X1.200000*%
%ADD17R,1.350000X0.600000*%
%ADD18R,0.900000X1.000000*%
%ADD19R,0.900000X0.800000*%
%ADD20R,0.300000X1.000000*%
%ADD21R,0.600000X1.000000*%
%ADD22R,0.630000X0.830000*%
%ADD23R,0.600000X1.200000*%
%ADD24R,0.250000X0.637500*%
%ADD25R,0.500000X0.640000*%
%ADD26R,0.700000X0.700000*%
%ADD27R,4.600000X1.000000*%
%ADD28R,3.400000X1.600000*%
%ADD29R,1.200000X0.550000*%
%ADD30R,1.500000X0.900000*%
%ADD31R,0.900000X1.500000*%
%ADD32R,1.330000X1.330000*%

G36*
X157300Y1297187D02*
X157300Y1297187D01*
X157301Y1297187D01*
X158369Y1297206D01*
X158376Y1297211D01*
X158380Y1297207D01*
X159417Y1297463D01*
X159422Y1297470D01*
X159428Y1297467D01*
X160382Y1297948D01*
X160386Y1297955D01*
X160391Y1297954D01*
X161215Y1298635D01*
X161216Y1298643D01*
X161222Y1298643D01*
X161873Y1299490D01*
X161873Y1299498D01*
X161879Y1299499D01*
X162326Y1300470D01*
X162324Y1300478D01*
X162329Y1300480D01*
X162548Y1301526D01*
X162545Y1301533D01*
X162549Y1301536D01*
X162549Y1313536D01*
X162546Y1313541D01*
X162549Y1313544D01*
X162369Y1314639D01*
X162363Y1314645D01*
X162366Y1314650D01*
X161947Y1315678D01*
X161940Y1315682D01*
X161942Y1315687D01*
X161305Y1316596D01*
X161297Y1316599D01*
X161297Y1316604D01*
X160474Y1317348D01*
X160466Y1317349D01*
X160465Y1317355D01*
X159497Y1317897D01*
X159488Y1317896D01*
X159486Y1317902D01*
X158422Y1318215D01*
X158417Y1318213D01*
X158413Y1318213D01*
X158411Y1318217D01*
X157303Y1318285D01*
X157297Y1318281D01*
X157293Y1318285D01*
X156185Y1318115D01*
X156179Y1318109D01*
X156174Y1318112D01*
X155132Y1317700D01*
X155128Y1317693D01*
X155123Y1317695D01*
X154198Y1317061D01*
X154196Y1317053D01*
X154190Y1317054D01*
X153430Y1316231D01*
X153429Y1316222D01*
X153423Y1316222D01*
X152866Y1315250D01*
X152867Y1315242D01*
X152861Y1315240D01*
X152534Y1314168D01*
X152537Y1314160D01*
X152532Y1314157D01*
X152451Y1313040D01*
X152452Y1313037D01*
X152451Y1313036D01*
X152451Y1301036D01*
X152456Y1301029D01*
X152452Y1301025D01*
X152671Y1300081D01*
X152677Y1300075D01*
X152675Y1300070D01*
X153099Y1299198D01*
X153106Y1299195D01*
X153104Y1299189D01*
X153711Y1298433D01*
X153719Y1298431D01*
X153719Y1298425D01*
X154479Y1297824D01*
X154488Y1297824D01*
X154489Y1297818D01*
X155364Y1297400D01*
X155372Y1297402D01*
X155374Y1297397D01*
X156320Y1297185D01*
X156327Y1297188D01*
X156331Y1297183D01*
X157300Y1297187D01*
G37*
G36*
X858340Y1297187D02*
X858340Y1297187D01*
X858341Y1297187D01*
X859409Y1297206D01*
X859416Y1297211D01*
X859420Y1297207D01*
X860457Y1297463D01*
X860462Y1297470D01*
X860468Y1297467D01*
X861422Y1297948D01*
X861426Y1297955D01*
X861431Y1297954D01*
X862255Y1298635D01*
X862256Y1298643D01*
X862262Y1298643D01*
X862913Y1299490D01*
X862913Y1299498D01*
X862919Y1299499D01*
X863366Y1300470D01*
X863364Y1300478D01*
X863369Y1300480D01*
X863588Y1301526D01*
X863585Y1301533D01*
X863589Y1301536D01*
X863589Y1313536D01*
X863586Y1313541D01*
X863589Y1313544D01*
X863409Y1314639D01*
X863403Y1314645D01*
X863406Y1314650D01*
X862987Y1315678D01*
X862980Y1315682D01*
X862982Y1315687D01*
X862345Y1316596D01*
X862337Y1316599D01*
X862337Y1316604D01*
X861514Y1317348D01*
X861506Y1317349D01*
X861505Y1317355D01*
X860537Y1317897D01*
X860528Y1317896D01*
X860526Y1317902D01*
X859462Y1318215D01*
X859457Y1318213D01*
X859453Y1318213D01*
X859451Y1318217D01*
X858343Y1318285D01*
X858337Y1318281D01*
X858333Y1318285D01*
X857225Y1318115D01*
X857219Y1318109D01*
X857214Y1318112D01*
X856172Y1317700D01*
X856168Y1317693D01*
X856163Y1317695D01*
X855238Y1317061D01*
X855236Y1317053D01*
X855230Y1317054D01*
X854470Y1316231D01*
X854469Y1316222D01*
X854463Y1316222D01*
X853906Y1315250D01*
X853907Y1315242D01*
X853901Y1315240D01*
X853574Y1314168D01*
X853577Y1314160D01*
X853572Y1314157D01*
X853491Y1313040D01*
X853492Y1313037D01*
X853491Y1313036D01*
X853491Y1301036D01*
X853496Y1301029D01*
X853492Y1301025D01*
X853711Y1300081D01*
X853717Y1300075D01*
X853715Y1300070D01*
X854139Y1299198D01*
X854146Y1299195D01*
X854144Y1299189D01*
X854751Y1298433D01*
X854759Y1298431D01*
X854759Y1298425D01*
X855519Y1297824D01*
X855528Y1297824D01*
X855529Y1297818D01*
X856404Y1297400D01*
X856412Y1297402D01*
X856414Y1297397D01*
X857360Y1297185D01*
X857367Y1297188D01*
X857371Y1297183D01*
X858340Y1297187D01*
G37*
G36*
X624660Y1297187D02*
X624660Y1297187D01*
X624661Y1297187D01*
X625729Y1297206D01*
X625736Y1297211D01*
X625740Y1297207D01*
X626777Y1297463D01*
X626782Y1297470D01*
X626788Y1297467D01*
X627742Y1297948D01*
X627746Y1297955D01*
X627751Y1297954D01*
X628575Y1298635D01*
X628576Y1298643D01*
X628582Y1298643D01*
X629233Y1299490D01*
X629233Y1299498D01*
X629239Y1299499D01*
X629686Y1300470D01*
X629684Y1300478D01*
X629689Y1300480D01*
X629908Y1301526D01*
X629905Y1301533D01*
X629909Y1301536D01*
X629909Y1313536D01*
X629906Y1313541D01*
X629909Y1313544D01*
X629729Y1314639D01*
X629723Y1314645D01*
X629726Y1314650D01*
X629307Y1315678D01*
X629300Y1315682D01*
X629302Y1315687D01*
X628665Y1316596D01*
X628657Y1316599D01*
X628657Y1316604D01*
X627834Y1317348D01*
X627826Y1317349D01*
X627825Y1317355D01*
X626857Y1317897D01*
X626848Y1317896D01*
X626846Y1317902D01*
X625782Y1318215D01*
X625777Y1318213D01*
X625773Y1318213D01*
X625771Y1318217D01*
X624663Y1318285D01*
X624657Y1318281D01*
X624653Y1318285D01*
X623545Y1318115D01*
X623539Y1318109D01*
X623534Y1318112D01*
X622492Y1317700D01*
X622488Y1317693D01*
X622483Y1317695D01*
X621558Y1317061D01*
X621556Y1317053D01*
X621550Y1317054D01*
X620790Y1316231D01*
X620789Y1316222D01*
X620783Y1316222D01*
X620226Y1315250D01*
X620227Y1315242D01*
X620221Y1315240D01*
X619894Y1314168D01*
X619897Y1314160D01*
X619892Y1314157D01*
X619811Y1313040D01*
X619812Y1313037D01*
X619811Y1313036D01*
X619811Y1301036D01*
X619816Y1301029D01*
X619812Y1301025D01*
X620031Y1300081D01*
X620037Y1300075D01*
X620035Y1300070D01*
X620459Y1299198D01*
X620466Y1299195D01*
X620464Y1299189D01*
X621071Y1298433D01*
X621079Y1298431D01*
X621079Y1298425D01*
X621839Y1297824D01*
X621848Y1297824D01*
X621849Y1297818D01*
X622724Y1297400D01*
X622732Y1297402D01*
X622734Y1297397D01*
X623680Y1297185D01*
X623687Y1297188D01*
X623691Y1297183D01*
X624660Y1297187D01*
G37*
G36*
X390980Y1297187D02*
X390980Y1297187D01*
X390981Y1297187D01*
X392049Y1297206D01*
X392056Y1297211D01*
X392060Y1297207D01*
X393097Y1297463D01*
X393102Y1297470D01*
X393108Y1297467D01*
X394062Y1297948D01*
X394066Y1297955D01*
X394071Y1297954D01*
X394895Y1298635D01*
X394896Y1298643D01*
X394902Y1298643D01*
X395553Y1299490D01*
X395553Y1299498D01*
X395559Y1299499D01*
X396006Y1300470D01*
X396004Y1300478D01*
X396009Y1300480D01*
X396228Y1301526D01*
X396225Y1301533D01*
X396229Y1301536D01*
X396229Y1313536D01*
X396226Y1313541D01*
X396229Y1313544D01*
X396049Y1314639D01*
X396043Y1314645D01*
X396046Y1314650D01*
X395627Y1315678D01*
X395620Y1315682D01*
X395622Y1315687D01*
X394985Y1316596D01*
X394977Y1316599D01*
X394977Y1316604D01*
X394154Y1317348D01*
X394146Y1317349D01*
X394145Y1317355D01*
X393177Y1317897D01*
X393168Y1317896D01*
X393166Y1317902D01*
X392102Y1318215D01*
X392097Y1318213D01*
X392093Y1318213D01*
X392091Y1318217D01*
X390983Y1318285D01*
X390977Y1318281D01*
X390973Y1318285D01*
X389865Y1318115D01*
X389859Y1318109D01*
X389854Y1318112D01*
X388812Y1317700D01*
X388808Y1317693D01*
X388803Y1317695D01*
X387878Y1317061D01*
X387876Y1317053D01*
X387870Y1317054D01*
X387110Y1316231D01*
X387109Y1316222D01*
X387103Y1316222D01*
X386546Y1315250D01*
X386547Y1315242D01*
X386541Y1315240D01*
X386214Y1314168D01*
X386217Y1314160D01*
X386212Y1314157D01*
X386131Y1313040D01*
X386132Y1313037D01*
X386131Y1313036D01*
X386131Y1301036D01*
X386136Y1301029D01*
X386132Y1301025D01*
X386351Y1300081D01*
X386357Y1300075D01*
X386355Y1300070D01*
X386779Y1299198D01*
X386786Y1299195D01*
X386784Y1299189D01*
X387391Y1298433D01*
X387399Y1298431D01*
X387399Y1298425D01*
X388159Y1297824D01*
X388168Y1297824D01*
X388169Y1297818D01*
X389044Y1297400D01*
X389052Y1297402D01*
X389054Y1297397D01*
X390000Y1297185D01*
X390007Y1297188D01*
X390011Y1297183D01*
X390980Y1297187D01*
G37*
G36*
X157300Y669807D02*
X157300Y669807D01*
X157301Y669807D01*
X158369Y669826D01*
X158376Y669831D01*
X158380Y669827D01*
X159417Y670083D01*
X159422Y670090D01*
X159428Y670087D01*
X160382Y670568D01*
X160386Y670575D01*
X160391Y670574D01*
X161215Y671255D01*
X161216Y671263D01*
X161222Y671263D01*
X161873Y672110D01*
X161873Y672118D01*
X161879Y672119D01*
X162326Y673090D01*
X162324Y673098D01*
X162329Y673100D01*
X162548Y674146D01*
X162545Y674153D01*
X162549Y674156D01*
X162549Y686156D01*
X162546Y686161D01*
X162549Y686164D01*
X162369Y687259D01*
X162363Y687265D01*
X162366Y687270D01*
X161947Y688298D01*
X161940Y688302D01*
X161942Y688307D01*
X161305Y689216D01*
X161297Y689219D01*
X161297Y689224D01*
X160474Y689968D01*
X160466Y689969D01*
X160465Y689975D01*
X159497Y690517D01*
X159488Y690516D01*
X159486Y690522D01*
X158422Y690835D01*
X158417Y690833D01*
X158413Y690833D01*
X158411Y690837D01*
X157303Y690905D01*
X157297Y690901D01*
X157293Y690905D01*
X156185Y690735D01*
X156179Y690729D01*
X156174Y690732D01*
X155132Y690320D01*
X155128Y690313D01*
X155123Y690315D01*
X154198Y689681D01*
X154196Y689673D01*
X154190Y689674D01*
X153430Y688851D01*
X153429Y688842D01*
X153423Y688842D01*
X152866Y687870D01*
X152867Y687862D01*
X152861Y687860D01*
X152534Y686788D01*
X152537Y686780D01*
X152532Y686777D01*
X152451Y685660D01*
X152452Y685657D01*
X152451Y685656D01*
X152451Y673656D01*
X152456Y673649D01*
X152452Y673645D01*
X152671Y672701D01*
X152677Y672695D01*
X152675Y672690D01*
X153099Y671818D01*
X153106Y671815D01*
X153104Y671809D01*
X153711Y671053D01*
X153719Y671051D01*
X153719Y671045D01*
X154479Y670444D01*
X154488Y670444D01*
X154489Y670438D01*
X155364Y670020D01*
X155372Y670022D01*
X155374Y670017D01*
X156320Y669805D01*
X156327Y669808D01*
X156331Y669803D01*
X157300Y669807D01*
G37*
G36*
X858340Y669807D02*
X858340Y669807D01*
X858341Y669807D01*
X859409Y669826D01*
X859416Y669831D01*
X859420Y669827D01*
X860457Y670083D01*
X860462Y670090D01*
X860468Y670087D01*
X861422Y670568D01*
X861426Y670575D01*
X861431Y670574D01*
X862255Y671255D01*
X862256Y671263D01*
X862262Y671263D01*
X862913Y672110D01*
X862913Y672118D01*
X862919Y672119D01*
X863366Y673090D01*
X863364Y673098D01*
X863369Y673100D01*
X863588Y674146D01*
X863585Y674153D01*
X863589Y674156D01*
X863589Y686156D01*
X863586Y686161D01*
X863589Y686164D01*
X863409Y687259D01*
X863403Y687265D01*
X863406Y687270D01*
X862987Y688298D01*
X862980Y688302D01*
X862982Y688307D01*
X862345Y689216D01*
X862337Y689219D01*
X862337Y689224D01*
X861514Y689968D01*
X861506Y689969D01*
X861505Y689975D01*
X860537Y690517D01*
X860528Y690516D01*
X860526Y690522D01*
X859462Y690835D01*
X859457Y690833D01*
X859453Y690833D01*
X859451Y690837D01*
X858343Y690905D01*
X858337Y690901D01*
X858333Y690905D01*
X857225Y690735D01*
X857219Y690729D01*
X857214Y690732D01*
X856172Y690320D01*
X856168Y690313D01*
X856163Y690315D01*
X855238Y689681D01*
X855236Y689673D01*
X855230Y689674D01*
X854470Y688851D01*
X854469Y688842D01*
X854463Y688842D01*
X853906Y687870D01*
X853907Y687862D01*
X853901Y687860D01*
X853574Y686788D01*
X853577Y686780D01*
X853572Y686777D01*
X853491Y685660D01*
X853492Y685657D01*
X853491Y685656D01*
X853491Y673656D01*
X853496Y673649D01*
X853492Y673645D01*
X853711Y672701D01*
X853717Y672695D01*
X853715Y672690D01*
X854139Y671818D01*
X854146Y671815D01*
X854144Y671809D01*
X854751Y671053D01*
X854759Y671051D01*
X854759Y671045D01*
X855519Y670444D01*
X855528Y670444D01*
X855529Y670438D01*
X856404Y670020D01*
X856412Y670022D01*
X856414Y670017D01*
X857360Y669805D01*
X857367Y669808D01*
X857371Y669803D01*
X858340Y669807D01*
G37*
G36*
X624660Y669807D02*
X624660Y669807D01*
X624661Y669807D01*
X625729Y669826D01*
X625736Y669831D01*
X625740Y669827D01*
X626777Y670083D01*
X626782Y670090D01*
X626788Y670087D01*
X627742Y670568D01*
X627746Y670575D01*
X627751Y670574D01*
X628575Y671255D01*
X628576Y671263D01*
X628582Y671263D01*
X629233Y672110D01*
X629233Y672118D01*
X629239Y672119D01*
X629686Y673090D01*
X629684Y673098D01*
X629689Y673100D01*
X629908Y674146D01*
X629905Y674153D01*
X629909Y674156D01*
X629909Y686156D01*
X629906Y686161D01*
X629909Y686164D01*
X629729Y687259D01*
X629723Y687265D01*
X629726Y687270D01*
X629307Y688298D01*
X629300Y688302D01*
X629302Y688307D01*
X628665Y689216D01*
X628657Y689219D01*
X628657Y689224D01*
X627834Y689968D01*
X627826Y689969D01*
X627825Y689975D01*
X626857Y690517D01*
X626848Y690516D01*
X626846Y690522D01*
X625782Y690835D01*
X625777Y690833D01*
X625773Y690833D01*
X625771Y690837D01*
X624663Y690905D01*
X624657Y690901D01*
X624653Y690905D01*
X623545Y690735D01*
X623539Y690729D01*
X623534Y690732D01*
X622492Y690320D01*
X622488Y690313D01*
X622483Y690315D01*
X621558Y689681D01*
X621556Y689673D01*
X621550Y689674D01*
X620790Y688851D01*
X620789Y688842D01*
X620783Y688842D01*
X620226Y687870D01*
X620227Y687862D01*
X620221Y687860D01*
X619894Y686788D01*
X619897Y686780D01*
X619892Y686777D01*
X619811Y685660D01*
X619812Y685657D01*
X619811Y685656D01*
X619811Y673656D01*
X619816Y673649D01*
X619812Y673645D01*
X620031Y672701D01*
X620037Y672695D01*
X620035Y672690D01*
X620459Y671818D01*
X620466Y671815D01*
X620464Y671809D01*
X621071Y671053D01*
X621079Y671051D01*
X621079Y671045D01*
X621839Y670444D01*
X621848Y670444D01*
X621849Y670438D01*
X622724Y670020D01*
X622732Y670022D01*
X622734Y670017D01*
X623680Y669805D01*
X623687Y669808D01*
X623691Y669803D01*
X624660Y669807D01*
G37*
G36*
X390980Y669807D02*
X390980Y669807D01*
X390981Y669807D01*
X392049Y669826D01*
X392056Y669831D01*
X392060Y669827D01*
X393097Y670083D01*
X393102Y670090D01*
X393108Y670087D01*
X394062Y670568D01*
X394066Y670575D01*
X394071Y670574D01*
X394895Y671255D01*
X394896Y671263D01*
X394902Y671263D01*
X395553Y672110D01*
X395553Y672118D01*
X395559Y672119D01*
X396006Y673090D01*
X396004Y673098D01*
X396009Y673100D01*
X396228Y674146D01*
X396225Y674153D01*
X396229Y674156D01*
X396229Y686156D01*
X396226Y686161D01*
X396229Y686164D01*
X396049Y687259D01*
X396043Y687265D01*
X396046Y687270D01*
X395627Y688298D01*
X395620Y688302D01*
X395622Y688307D01*
X394985Y689216D01*
X394977Y689219D01*
X394977Y689224D01*
X394154Y689968D01*
X394146Y689969D01*
X394145Y689975D01*
X393177Y690517D01*
X393168Y690516D01*
X393166Y690522D01*
X392102Y690835D01*
X392097Y690833D01*
X392093Y690833D01*
X392091Y690837D01*
X390983Y690905D01*
X390977Y690901D01*
X390973Y690905D01*
X389865Y690735D01*
X389859Y690729D01*
X389854Y690732D01*
X388812Y690320D01*
X388808Y690313D01*
X388803Y690315D01*
X387878Y689681D01*
X387876Y689673D01*
X387870Y689674D01*
X387110Y688851D01*
X387109Y688842D01*
X387103Y688842D01*
X386546Y687870D01*
X386547Y687862D01*
X386541Y687860D01*
X386214Y686788D01*
X386217Y686780D01*
X386212Y686777D01*
X386131Y685660D01*
X386132Y685657D01*
X386131Y685656D01*
X386131Y673656D01*
X386136Y673649D01*
X386132Y673645D01*
X386351Y672701D01*
X386357Y672695D01*
X386355Y672690D01*
X386779Y671818D01*
X386786Y671815D01*
X386784Y671809D01*
X387391Y671053D01*
X387399Y671051D01*
X387399Y671045D01*
X388159Y670444D01*
X388168Y670444D01*
X388169Y670438D01*
X389044Y670020D01*
X389052Y670022D01*
X389054Y670017D01*
X390000Y669805D01*
X390007Y669808D01*
X390011Y669803D01*
X390980Y669807D01*
G37*
G36*
X157300Y42427D02*
X157300Y42427D01*
X157301Y42427D01*
X158369Y42446D01*
X158376Y42451D01*
X158380Y42447D01*
X159417Y42703D01*
X159422Y42710D01*
X159428Y42707D01*
X160382Y43188D01*
X160386Y43195D01*
X160391Y43194D01*
X161215Y43875D01*
X161216Y43883D01*
X161222Y43883D01*
X161873Y44730D01*
X161873Y44738D01*
X161879Y44739D01*
X162326Y45710D01*
X162324Y45718D01*
X162329Y45720D01*
X162548Y46766D01*
X162545Y46773D01*
X162549Y46776D01*
X162549Y58776D01*
X162546Y58781D01*
X162549Y58784D01*
X162369Y59879D01*
X162363Y59885D01*
X162366Y59890D01*
X161947Y60918D01*
X161940Y60922D01*
X161942Y60927D01*
X161305Y61836D01*
X161297Y61839D01*
X161297Y61844D01*
X160474Y62588D01*
X160466Y62589D01*
X160465Y62595D01*
X159497Y63137D01*
X159488Y63136D01*
X159486Y63142D01*
X158422Y63455D01*
X158417Y63453D01*
X158413Y63453D01*
X158411Y63457D01*
X157303Y63525D01*
X157297Y63521D01*
X157293Y63525D01*
X156185Y63355D01*
X156179Y63349D01*
X156174Y63352D01*
X155132Y62940D01*
X155128Y62933D01*
X155123Y62935D01*
X154198Y62301D01*
X154196Y62293D01*
X154190Y62294D01*
X153430Y61471D01*
X153429Y61462D01*
X153423Y61462D01*
X152866Y60490D01*
X152867Y60482D01*
X152861Y60480D01*
X152534Y59408D01*
X152537Y59400D01*
X152532Y59397D01*
X152451Y58280D01*
X152452Y58277D01*
X152451Y58276D01*
X152451Y46276D01*
X152456Y46269D01*
X152452Y46265D01*
X152671Y45321D01*
X152677Y45315D01*
X152675Y45310D01*
X153099Y44438D01*
X153106Y44435D01*
X153104Y44429D01*
X153711Y43673D01*
X153719Y43671D01*
X153719Y43665D01*
X154479Y43064D01*
X154488Y43064D01*
X154489Y43058D01*
X155364Y42640D01*
X155372Y42642D01*
X155374Y42637D01*
X156320Y42425D01*
X156327Y42428D01*
X156331Y42423D01*
X157300Y42427D01*
G37*
G36*
X390980Y42427D02*
X390980Y42427D01*
X390981Y42427D01*
X392049Y42446D01*
X392056Y42451D01*
X392060Y42447D01*
X393097Y42703D01*
X393102Y42710D01*
X393108Y42707D01*
X394062Y43188D01*
X394066Y43195D01*
X394071Y43194D01*
X394895Y43875D01*
X394896Y43883D01*
X394902Y43883D01*
X395553Y44730D01*
X395553Y44738D01*
X395559Y44739D01*
X396006Y45710D01*
X396004Y45718D01*
X396009Y45720D01*
X396228Y46766D01*
X396225Y46773D01*
X396229Y46776D01*
X396229Y58776D01*
X396226Y58781D01*
X396229Y58784D01*
X396049Y59879D01*
X396043Y59885D01*
X396046Y59890D01*
X395627Y60918D01*
X395620Y60922D01*
X395622Y60927D01*
X394985Y61836D01*
X394977Y61839D01*
X394977Y61844D01*
X394154Y62588D01*
X394146Y62589D01*
X394145Y62595D01*
X393177Y63137D01*
X393168Y63136D01*
X393166Y63142D01*
X392102Y63455D01*
X392097Y63453D01*
X392093Y63453D01*
X392091Y63457D01*
X390983Y63525D01*
X390977Y63521D01*
X390973Y63525D01*
X389865Y63355D01*
X389859Y63349D01*
X389854Y63352D01*
X388812Y62940D01*
X388808Y62933D01*
X388803Y62935D01*
X387878Y62301D01*
X387876Y62293D01*
X387870Y62294D01*
X387110Y61471D01*
X387109Y61462D01*
X387103Y61462D01*
X386546Y60490D01*
X386547Y60482D01*
X386541Y60480D01*
X386214Y59408D01*
X386217Y59400D01*
X386212Y59397D01*
X386131Y58280D01*
X386132Y58277D01*
X386131Y58276D01*
X386131Y46276D01*
X386136Y46269D01*
X386132Y46265D01*
X386351Y45321D01*
X386357Y45315D01*
X386355Y45310D01*
X386779Y44438D01*
X386786Y44435D01*
X386784Y44429D01*
X387391Y43673D01*
X387399Y43671D01*
X387399Y43665D01*
X388159Y43064D01*
X388168Y43064D01*
X388169Y43058D01*
X389044Y42640D01*
X389052Y42642D01*
X389054Y42637D01*
X390000Y42425D01*
X390007Y42428D01*
X390011Y42423D01*
X390980Y42427D01*
G37*
G36*
X624660Y42427D02*
X624660Y42427D01*
X624661Y42427D01*
X625729Y42446D01*
X625736Y42451D01*
X625740Y42447D01*
X626777Y42703D01*
X626782Y42710D01*
X626788Y42707D01*
X627742Y43188D01*
X627746Y43195D01*
X627751Y43194D01*
X628575Y43875D01*
X628576Y43883D01*
X628582Y43883D01*
X629233Y44730D01*
X629233Y44738D01*
X629239Y44739D01*
X629686Y45710D01*
X629684Y45718D01*
X629689Y45720D01*
X629908Y46766D01*
X629905Y46773D01*
X629909Y46776D01*
X629909Y58776D01*
X629906Y58781D01*
X629909Y58784D01*
X629729Y59879D01*
X629723Y59885D01*
X629726Y59890D01*
X629307Y60918D01*
X629300Y60922D01*
X629302Y60927D01*
X628665Y61836D01*
X628657Y61839D01*
X628657Y61844D01*
X627834Y62588D01*
X627826Y62589D01*
X627825Y62595D01*
X626857Y63137D01*
X626848Y63136D01*
X626846Y63142D01*
X625782Y63455D01*
X625777Y63453D01*
X625773Y63453D01*
X625771Y63457D01*
X624663Y63525D01*
X624657Y63521D01*
X624653Y63525D01*
X623545Y63355D01*
X623539Y63349D01*
X623534Y63352D01*
X622492Y62940D01*
X622488Y62933D01*
X622483Y62935D01*
X621558Y62301D01*
X621556Y62293D01*
X621550Y62294D01*
X620790Y61471D01*
X620789Y61462D01*
X620783Y61462D01*
X620226Y60490D01*
X620227Y60482D01*
X620221Y60480D01*
X619894Y59408D01*
X619897Y59400D01*
X619892Y59397D01*
X619811Y58280D01*
X619812Y58277D01*
X619811Y58276D01*
X619811Y46276D01*
X619816Y46269D01*
X619812Y46265D01*
X620031Y45321D01*
X620037Y45315D01*
X620035Y45310D01*
X620459Y44438D01*
X620466Y44435D01*
X620464Y44429D01*
X621071Y43673D01*
X621079Y43671D01*
X621079Y43665D01*
X621839Y43064D01*
X621848Y43064D01*
X621849Y43058D01*
X622724Y42640D01*
X622732Y42642D01*
X622734Y42637D01*
X623680Y42425D01*
X623687Y42428D01*
X623691Y42423D01*
X624660Y42427D01*
G37*
G36*
X858340Y42427D02*
X858340Y42427D01*
X858341Y42427D01*
X859409Y42446D01*
X859416Y42451D01*
X859420Y42447D01*
X860457Y42703D01*
X860462Y42710D01*
X860468Y42707D01*
X861422Y43188D01*
X861426Y43195D01*
X861431Y43194D01*
X862255Y43875D01*
X862256Y43883D01*
X862262Y43883D01*
X862913Y44730D01*
X862913Y44738D01*
X862919Y44739D01*
X863366Y45710D01*
X863364Y45718D01*
X863369Y45720D01*
X863588Y46766D01*
X863585Y46773D01*
X863589Y46776D01*
X863589Y58776D01*
X863586Y58781D01*
X863589Y58784D01*
X863409Y59879D01*
X863403Y59885D01*
X863406Y59890D01*
X862987Y60918D01*
X862980Y60922D01*
X862982Y60927D01*
X862345Y61836D01*
X862337Y61839D01*
X862337Y61844D01*
X861514Y62588D01*
X861506Y62589D01*
X861505Y62595D01*
X860537Y63137D01*
X860528Y63136D01*
X860526Y63142D01*
X859462Y63455D01*
X859457Y63453D01*
X859453Y63453D01*
X859451Y63457D01*
X858343Y63525D01*
X858337Y63521D01*
X858333Y63525D01*
X857225Y63355D01*
X857219Y63349D01*
X857214Y63352D01*
X856172Y62940D01*
X856168Y62933D01*
X856163Y62935D01*
X855238Y62301D01*
X855236Y62293D01*
X855230Y62294D01*
X854470Y61471D01*
X854469Y61462D01*
X854463Y61462D01*
X853906Y60490D01*
X853907Y60482D01*
X853901Y60480D01*
X853574Y59408D01*
X853577Y59400D01*
X853572Y59397D01*
X853491Y58280D01*
X853492Y58277D01*
X853491Y58276D01*
X853491Y46276D01*
X853496Y46269D01*
X853492Y46265D01*
X853711Y45321D01*
X853717Y45315D01*
X853715Y45310D01*
X854139Y44438D01*
X854146Y44435D01*
X854144Y44429D01*
X854751Y43673D01*
X854759Y43671D01*
X854759Y43665D01*
X855519Y43064D01*
X855528Y43064D01*
X855529Y43058D01*
X856404Y42640D01*
X856412Y42642D01*
X856414Y42637D01*
X857360Y42425D01*
X857367Y42428D01*
X857371Y42423D01*
X858340Y42427D01*
G37*
G36*
X71881Y1297196D02*
X71881Y1297196D01*
X71888Y1297201D01*
X71892Y1297197D01*
X72944Y1297447D01*
X72949Y1297453D01*
X72954Y1297450D01*
X73924Y1297927D01*
X73927Y1297935D01*
X73933Y1297933D01*
X74772Y1298614D01*
X74774Y1298622D01*
X74780Y1298622D01*
X75446Y1299473D01*
X75447Y1299481D01*
X75452Y1299482D01*
X75913Y1300459D01*
X75911Y1300467D01*
X75917Y1300470D01*
X76148Y1301525D01*
X76145Y1301533D01*
X76149Y1301536D01*
X76149Y1313536D01*
X76145Y1313541D01*
X76149Y1313544D01*
X75956Y1314650D01*
X75950Y1314655D01*
X75953Y1314660D01*
X75520Y1315695D01*
X75513Y1315699D01*
X75515Y1315704D01*
X74862Y1316617D01*
X74854Y1316619D01*
X74855Y1316625D01*
X74016Y1317369D01*
X74007Y1317370D01*
X74007Y1317375D01*
X73023Y1317914D01*
X73015Y1317913D01*
X73013Y1317918D01*
X71934Y1318225D01*
X71926Y1318222D01*
X71923Y1318227D01*
X70803Y1318285D01*
X70798Y1318282D01*
X70795Y1318285D01*
X69749Y1318167D01*
X69743Y1318161D01*
X69738Y1318165D01*
X68744Y1317817D01*
X68740Y1317810D01*
X68735Y1317812D01*
X67843Y1317252D01*
X67841Y1317245D01*
X67835Y1317245D01*
X67091Y1316501D01*
X67089Y1316493D01*
X67084Y1316493D01*
X66524Y1315601D01*
X66524Y1315593D01*
X66519Y1315592D01*
X66171Y1314598D01*
X66174Y1314590D01*
X66169Y1314587D01*
X66051Y1313542D01*
X66053Y1313538D01*
X66051Y1313536D01*
X66051Y1301536D01*
X66054Y1301531D01*
X66051Y1301528D01*
X66209Y1300532D01*
X66215Y1300526D01*
X66212Y1300521D01*
X66587Y1299585D01*
X66594Y1299581D01*
X66592Y1299575D01*
X67166Y1298746D01*
X67174Y1298743D01*
X67173Y1298738D01*
X67917Y1298057D01*
X67926Y1298056D01*
X67926Y1298050D01*
X68803Y1297552D01*
X68812Y1297553D01*
X68814Y1297548D01*
X69779Y1297257D01*
X69787Y1297260D01*
X69790Y1297255D01*
X70797Y1297187D01*
X70799Y1297188D01*
X70800Y1297187D01*
X71881Y1297196D01*
G37*
G36*
X539241Y1297196D02*
X539241Y1297196D01*
X539248Y1297201D01*
X539252Y1297197D01*
X540304Y1297447D01*
X540309Y1297453D01*
X540314Y1297450D01*
X541284Y1297927D01*
X541287Y1297935D01*
X541293Y1297933D01*
X542132Y1298614D01*
X542134Y1298622D01*
X542140Y1298622D01*
X542806Y1299473D01*
X542807Y1299481D01*
X542812Y1299482D01*
X543273Y1300459D01*
X543271Y1300467D01*
X543277Y1300470D01*
X543508Y1301525D01*
X543505Y1301533D01*
X543509Y1301536D01*
X543509Y1313536D01*
X543505Y1313541D01*
X543509Y1313544D01*
X543316Y1314650D01*
X543310Y1314655D01*
X543313Y1314660D01*
X542880Y1315695D01*
X542873Y1315699D01*
X542875Y1315704D01*
X542222Y1316617D01*
X542214Y1316619D01*
X542215Y1316625D01*
X541376Y1317369D01*
X541367Y1317370D01*
X541367Y1317375D01*
X540383Y1317914D01*
X540375Y1317913D01*
X540373Y1317918D01*
X539294Y1318225D01*
X539286Y1318222D01*
X539283Y1318227D01*
X538163Y1318285D01*
X538158Y1318282D01*
X538155Y1318285D01*
X537109Y1318167D01*
X537103Y1318161D01*
X537098Y1318165D01*
X536104Y1317817D01*
X536100Y1317810D01*
X536095Y1317812D01*
X535203Y1317252D01*
X535201Y1317245D01*
X535195Y1317245D01*
X534451Y1316501D01*
X534449Y1316493D01*
X534444Y1316493D01*
X533884Y1315601D01*
X533884Y1315593D01*
X533879Y1315592D01*
X533531Y1314598D01*
X533534Y1314590D01*
X533529Y1314587D01*
X533411Y1313542D01*
X533413Y1313538D01*
X533411Y1313536D01*
X533411Y1301536D01*
X533414Y1301531D01*
X533411Y1301528D01*
X533569Y1300532D01*
X533575Y1300526D01*
X533572Y1300521D01*
X533947Y1299585D01*
X533954Y1299581D01*
X533952Y1299575D01*
X534526Y1298746D01*
X534534Y1298743D01*
X534533Y1298738D01*
X535277Y1298057D01*
X535286Y1298056D01*
X535286Y1298050D01*
X536163Y1297552D01*
X536172Y1297553D01*
X536174Y1297548D01*
X537139Y1297257D01*
X537147Y1297260D01*
X537150Y1297255D01*
X538157Y1297187D01*
X538159Y1297188D01*
X538160Y1297187D01*
X539241Y1297196D01*
G37*
G36*
X305561Y1297196D02*
X305561Y1297196D01*
X305568Y1297201D01*
X305572Y1297197D01*
X306624Y1297447D01*
X306629Y1297453D01*
X306634Y1297450D01*
X307604Y1297927D01*
X307607Y1297935D01*
X307613Y1297933D01*
X308452Y1298614D01*
X308454Y1298622D01*
X308460Y1298622D01*
X309126Y1299473D01*
X309127Y1299481D01*
X309132Y1299482D01*
X309593Y1300459D01*
X309591Y1300467D01*
X309597Y1300470D01*
X309828Y1301525D01*
X309825Y1301533D01*
X309829Y1301536D01*
X309829Y1313536D01*
X309825Y1313541D01*
X309829Y1313544D01*
X309636Y1314650D01*
X309630Y1314655D01*
X309633Y1314660D01*
X309200Y1315695D01*
X309193Y1315699D01*
X309195Y1315704D01*
X308542Y1316617D01*
X308534Y1316619D01*
X308535Y1316625D01*
X307696Y1317369D01*
X307687Y1317370D01*
X307687Y1317375D01*
X306703Y1317914D01*
X306695Y1317913D01*
X306693Y1317918D01*
X305614Y1318225D01*
X305606Y1318222D01*
X305603Y1318227D01*
X304483Y1318285D01*
X304478Y1318282D01*
X304475Y1318285D01*
X303429Y1318167D01*
X303423Y1318161D01*
X303418Y1318165D01*
X302424Y1317817D01*
X302420Y1317810D01*
X302415Y1317812D01*
X301523Y1317252D01*
X301521Y1317245D01*
X301515Y1317245D01*
X300771Y1316501D01*
X300769Y1316493D01*
X300764Y1316493D01*
X300204Y1315601D01*
X300204Y1315593D01*
X300199Y1315592D01*
X299851Y1314598D01*
X299854Y1314590D01*
X299849Y1314587D01*
X299731Y1313542D01*
X299733Y1313538D01*
X299731Y1313536D01*
X299731Y1301536D01*
X299734Y1301531D01*
X299731Y1301528D01*
X299889Y1300532D01*
X299895Y1300526D01*
X299892Y1300521D01*
X300267Y1299585D01*
X300274Y1299581D01*
X300272Y1299575D01*
X300846Y1298746D01*
X300854Y1298743D01*
X300853Y1298738D01*
X301597Y1298057D01*
X301606Y1298056D01*
X301606Y1298050D01*
X302483Y1297552D01*
X302492Y1297553D01*
X302494Y1297548D01*
X303459Y1297257D01*
X303467Y1297260D01*
X303470Y1297255D01*
X304477Y1297187D01*
X304479Y1297188D01*
X304480Y1297187D01*
X305561Y1297196D01*
G37*
G36*
X772921Y1297196D02*
X772921Y1297196D01*
X772928Y1297201D01*
X772932Y1297197D01*
X773984Y1297447D01*
X773989Y1297453D01*
X773994Y1297450D01*
X774964Y1297927D01*
X774967Y1297935D01*
X774973Y1297933D01*
X775812Y1298614D01*
X775814Y1298622D01*
X775820Y1298622D01*
X776486Y1299473D01*
X776487Y1299481D01*
X776492Y1299482D01*
X776953Y1300459D01*
X776951Y1300467D01*
X776957Y1300470D01*
X777188Y1301525D01*
X777185Y1301533D01*
X777189Y1301536D01*
X777189Y1313536D01*
X777185Y1313541D01*
X777189Y1313544D01*
X776996Y1314650D01*
X776990Y1314655D01*
X776993Y1314660D01*
X776560Y1315695D01*
X776553Y1315699D01*
X776555Y1315704D01*
X775902Y1316617D01*
X775894Y1316619D01*
X775895Y1316625D01*
X775056Y1317369D01*
X775047Y1317370D01*
X775047Y1317375D01*
X774063Y1317914D01*
X774055Y1317913D01*
X774053Y1317918D01*
X772974Y1318225D01*
X772966Y1318222D01*
X772963Y1318227D01*
X771843Y1318285D01*
X771838Y1318282D01*
X771835Y1318285D01*
X770789Y1318167D01*
X770783Y1318161D01*
X770778Y1318165D01*
X769784Y1317817D01*
X769780Y1317810D01*
X769775Y1317812D01*
X768883Y1317252D01*
X768881Y1317245D01*
X768875Y1317245D01*
X768131Y1316501D01*
X768129Y1316493D01*
X768124Y1316493D01*
X767564Y1315601D01*
X767564Y1315593D01*
X767559Y1315592D01*
X767211Y1314598D01*
X767214Y1314590D01*
X767209Y1314587D01*
X767091Y1313542D01*
X767093Y1313538D01*
X767091Y1313536D01*
X767091Y1301536D01*
X767094Y1301531D01*
X767091Y1301528D01*
X767249Y1300532D01*
X767255Y1300526D01*
X767252Y1300521D01*
X767627Y1299585D01*
X767634Y1299581D01*
X767632Y1299575D01*
X768206Y1298746D01*
X768214Y1298743D01*
X768213Y1298738D01*
X768957Y1298057D01*
X768966Y1298056D01*
X768966Y1298050D01*
X769843Y1297552D01*
X769852Y1297553D01*
X769854Y1297548D01*
X770819Y1297257D01*
X770827Y1297260D01*
X770830Y1297255D01*
X771837Y1297187D01*
X771839Y1297188D01*
X771840Y1297187D01*
X772921Y1297196D01*
G37*
G36*
X772921Y42436D02*
X772921Y42436D01*
X772928Y42441D01*
X772932Y42437D01*
X773984Y42687D01*
X773989Y42693D01*
X773994Y42690D01*
X774964Y43167D01*
X774967Y43175D01*
X774973Y43173D01*
X775812Y43854D01*
X775814Y43862D01*
X775820Y43862D01*
X776486Y44713D01*
X776487Y44721D01*
X776492Y44722D01*
X776953Y45699D01*
X776951Y45707D01*
X776957Y45710D01*
X777188Y46765D01*
X777185Y46773D01*
X777189Y46776D01*
X777189Y58776D01*
X777185Y58781D01*
X777189Y58784D01*
X776996Y59890D01*
X776990Y59895D01*
X776993Y59900D01*
X776560Y60935D01*
X776553Y60939D01*
X776555Y60944D01*
X775902Y61857D01*
X775894Y61859D01*
X775895Y61865D01*
X775056Y62609D01*
X775047Y62610D01*
X775047Y62615D01*
X774063Y63154D01*
X774055Y63153D01*
X774053Y63158D01*
X772974Y63465D01*
X772966Y63462D01*
X772963Y63467D01*
X771843Y63525D01*
X771838Y63522D01*
X771835Y63525D01*
X770789Y63407D01*
X770783Y63401D01*
X770778Y63405D01*
X769784Y63057D01*
X769780Y63050D01*
X769775Y63052D01*
X768883Y62492D01*
X768881Y62485D01*
X768875Y62485D01*
X768131Y61741D01*
X768129Y61733D01*
X768124Y61733D01*
X767564Y60841D01*
X767564Y60833D01*
X767559Y60832D01*
X767211Y59838D01*
X767214Y59830D01*
X767209Y59827D01*
X767091Y58782D01*
X767093Y58778D01*
X767091Y58776D01*
X767091Y46776D01*
X767094Y46771D01*
X767091Y46768D01*
X767249Y45772D01*
X767255Y45766D01*
X767252Y45761D01*
X767627Y44825D01*
X767634Y44821D01*
X767632Y44815D01*
X768206Y43986D01*
X768214Y43983D01*
X768213Y43978D01*
X768957Y43297D01*
X768966Y43296D01*
X768966Y43290D01*
X769843Y42792D01*
X769852Y42793D01*
X769854Y42788D01*
X770819Y42497D01*
X770827Y42500D01*
X770830Y42495D01*
X771837Y42427D01*
X771839Y42428D01*
X771840Y42427D01*
X772921Y42436D01*
G37*
G36*
X71881Y42436D02*
X71881Y42436D01*
X71888Y42441D01*
X71892Y42437D01*
X72944Y42687D01*
X72949Y42693D01*
X72954Y42690D01*
X73924Y43167D01*
X73927Y43175D01*
X73933Y43173D01*
X74772Y43854D01*
X74774Y43862D01*
X74780Y43862D01*
X75446Y44713D01*
X75447Y44721D01*
X75452Y44722D01*
X75913Y45699D01*
X75911Y45707D01*
X75917Y45710D01*
X76148Y46765D01*
X76145Y46773D01*
X76149Y46776D01*
X76149Y58776D01*
X76145Y58781D01*
X76149Y58784D01*
X75956Y59890D01*
X75950Y59895D01*
X75953Y59900D01*
X75520Y60935D01*
X75513Y60939D01*
X75515Y60944D01*
X74862Y61857D01*
X74854Y61859D01*
X74855Y61865D01*
X74016Y62609D01*
X74007Y62610D01*
X74007Y62615D01*
X73023Y63154D01*
X73015Y63153D01*
X73013Y63158D01*
X71934Y63465D01*
X71926Y63462D01*
X71923Y63467D01*
X70803Y63525D01*
X70798Y63522D01*
X70795Y63525D01*
X69749Y63407D01*
X69743Y63401D01*
X69738Y63405D01*
X68744Y63057D01*
X68740Y63050D01*
X68735Y63052D01*
X67843Y62492D01*
X67841Y62485D01*
X67835Y62485D01*
X67091Y61741D01*
X67089Y61733D01*
X67084Y61733D01*
X66524Y60841D01*
X66524Y60833D01*
X66519Y60832D01*
X66171Y59838D01*
X66174Y59830D01*
X66169Y59827D01*
X66051Y58782D01*
X66053Y58778D01*
X66051Y58776D01*
X66051Y46776D01*
X66054Y46771D01*
X66051Y46768D01*
X66209Y45772D01*
X66215Y45766D01*
X66212Y45761D01*
X66587Y44825D01*
X66594Y44821D01*
X66592Y44815D01*
X67166Y43986D01*
X67174Y43983D01*
X67173Y43978D01*
X67917Y43297D01*
X67926Y43296D01*
X67926Y43290D01*
X68803Y42792D01*
X68812Y42793D01*
X68814Y42788D01*
X69779Y42497D01*
X69787Y42500D01*
X69790Y42495D01*
X70797Y42427D01*
X70799Y42428D01*
X70800Y42427D01*
X71881Y42436D01*
G37*
G36*
X305561Y42436D02*
X305561Y42436D01*
X305568Y42441D01*
X305572Y42437D01*
X306624Y42687D01*
X306629Y42693D01*
X306634Y42690D01*
X307604Y43167D01*
X307607Y43175D01*
X307613Y43173D01*
X308452Y43854D01*
X308454Y43862D01*
X308460Y43862D01*
X309126Y44713D01*
X309127Y44721D01*
X309132Y44722D01*
X309593Y45699D01*
X309591Y45707D01*
X309597Y45710D01*
X309828Y46765D01*
X309825Y46773D01*
X309829Y46776D01*
X309829Y58776D01*
X309825Y58781D01*
X309829Y58784D01*
X309636Y59890D01*
X309630Y59895D01*
X309633Y59900D01*
X309200Y60935D01*
X309193Y60939D01*
X309195Y60944D01*
X308542Y61857D01*
X308534Y61859D01*
X308535Y61865D01*
X307696Y62609D01*
X307687Y62610D01*
X307687Y62615D01*
X306703Y63154D01*
X306695Y63153D01*
X306693Y63158D01*
X305614Y63465D01*
X305606Y63462D01*
X305603Y63467D01*
X304483Y63525D01*
X304478Y63522D01*
X304475Y63525D01*
X303429Y63407D01*
X303423Y63401D01*
X303418Y63405D01*
X302424Y63057D01*
X302420Y63050D01*
X302415Y63052D01*
X301523Y62492D01*
X301521Y62485D01*
X301515Y62485D01*
X300771Y61741D01*
X300769Y61733D01*
X300764Y61733D01*
X300204Y60841D01*
X300204Y60833D01*
X300199Y60832D01*
X299851Y59838D01*
X299854Y59830D01*
X299849Y59827D01*
X299731Y58782D01*
X299733Y58778D01*
X299731Y58776D01*
X299731Y46776D01*
X299734Y46771D01*
X299731Y46768D01*
X299889Y45772D01*
X299895Y45766D01*
X299892Y45761D01*
X300267Y44825D01*
X300274Y44821D01*
X300272Y44815D01*
X300846Y43986D01*
X300854Y43983D01*
X300853Y43978D01*
X301597Y43297D01*
X301606Y43296D01*
X301606Y43290D01*
X302483Y42792D01*
X302492Y42793D01*
X302494Y42788D01*
X303459Y42497D01*
X303467Y42500D01*
X303470Y42495D01*
X304477Y42427D01*
X304479Y42428D01*
X304480Y42427D01*
X305561Y42436D01*
G37*
G36*
X539241Y42436D02*
X539241Y42436D01*
X539248Y42441D01*
X539252Y42437D01*
X540304Y42687D01*
X540309Y42693D01*
X540314Y42690D01*
X541284Y43167D01*
X541287Y43175D01*
X541293Y43173D01*
X542132Y43854D01*
X542134Y43862D01*
X542140Y43862D01*
X542806Y44713D01*
X542807Y44721D01*
X542812Y44722D01*
X543273Y45699D01*
X543271Y45707D01*
X543277Y45710D01*
X543508Y46765D01*
X543505Y46773D01*
X543509Y46776D01*
X543509Y58776D01*
X543505Y58781D01*
X543509Y58784D01*
X543316Y59890D01*
X543310Y59895D01*
X543313Y59900D01*
X542880Y60935D01*
X542873Y60939D01*
X542875Y60944D01*
X542222Y61857D01*
X542214Y61859D01*
X542215Y61865D01*
X541376Y62609D01*
X541367Y62610D01*
X541367Y62615D01*
X540383Y63154D01*
X540375Y63153D01*
X540373Y63158D01*
X539294Y63465D01*
X539286Y63462D01*
X539283Y63467D01*
X538163Y63525D01*
X538158Y63522D01*
X538155Y63525D01*
X537109Y63407D01*
X537103Y63401D01*
X537098Y63405D01*
X536104Y63057D01*
X536100Y63050D01*
X536095Y63052D01*
X535203Y62492D01*
X535201Y62485D01*
X535195Y62485D01*
X534451Y61741D01*
X534449Y61733D01*
X534444Y61733D01*
X533884Y60841D01*
X533884Y60833D01*
X533879Y60832D01*
X533531Y59838D01*
X533534Y59830D01*
X533529Y59827D01*
X533411Y58782D01*
X533413Y58778D01*
X533411Y58776D01*
X533411Y46776D01*
X533414Y46771D01*
X533411Y46768D01*
X533569Y45772D01*
X533575Y45766D01*
X533572Y45761D01*
X533947Y44825D01*
X533954Y44821D01*
X533952Y44815D01*
X534526Y43986D01*
X534534Y43983D01*
X534533Y43978D01*
X535277Y43297D01*
X535286Y43296D01*
X535286Y43290D01*
X536163Y42792D01*
X536172Y42793D01*
X536174Y42788D01*
X537139Y42497D01*
X537147Y42500D01*
X537150Y42495D01*
X538157Y42427D01*
X538159Y42428D01*
X538160Y42427D01*
X539241Y42436D01*
G37*
G36*
X539241Y669816D02*
X539241Y669816D01*
X539248Y669821D01*
X539252Y669817D01*
X540304Y670067D01*
X540309Y670073D01*
X540314Y670070D01*
X541284Y670547D01*
X541287Y670555D01*
X541293Y670553D01*
X542132Y671234D01*
X542134Y671242D01*
X542140Y671242D01*
X542806Y672093D01*
X542807Y672101D01*
X542812Y672102D01*
X543273Y673079D01*
X543271Y673087D01*
X543277Y673090D01*
X543508Y674145D01*
X543505Y674153D01*
X543509Y674156D01*
X543509Y686156D01*
X543505Y686161D01*
X543509Y686164D01*
X543316Y687270D01*
X543310Y687275D01*
X543313Y687280D01*
X542880Y688315D01*
X542873Y688319D01*
X542875Y688324D01*
X542222Y689237D01*
X542214Y689239D01*
X542215Y689245D01*
X541376Y689989D01*
X541367Y689990D01*
X541367Y689995D01*
X540383Y690534D01*
X540375Y690533D01*
X540373Y690538D01*
X539294Y690845D01*
X539286Y690842D01*
X539283Y690847D01*
X538163Y690905D01*
X538158Y690902D01*
X538155Y690905D01*
X537109Y690787D01*
X537103Y690781D01*
X537098Y690785D01*
X536104Y690437D01*
X536100Y690430D01*
X536095Y690432D01*
X535203Y689872D01*
X535201Y689865D01*
X535195Y689865D01*
X534451Y689121D01*
X534449Y689113D01*
X534444Y689113D01*
X533884Y688221D01*
X533884Y688213D01*
X533879Y688212D01*
X533531Y687218D01*
X533534Y687210D01*
X533529Y687207D01*
X533411Y686162D01*
X533413Y686158D01*
X533411Y686156D01*
X533411Y674156D01*
X533414Y674151D01*
X533411Y674148D01*
X533569Y673152D01*
X533575Y673146D01*
X533572Y673141D01*
X533947Y672205D01*
X533954Y672201D01*
X533952Y672195D01*
X534526Y671366D01*
X534534Y671363D01*
X534533Y671358D01*
X535277Y670677D01*
X535286Y670676D01*
X535286Y670670D01*
X536163Y670172D01*
X536172Y670173D01*
X536174Y670168D01*
X537139Y669877D01*
X537147Y669880D01*
X537150Y669875D01*
X538157Y669807D01*
X538159Y669808D01*
X538160Y669807D01*
X539241Y669816D01*
G37*
G36*
X305561Y669816D02*
X305561Y669816D01*
X305568Y669821D01*
X305572Y669817D01*
X306624Y670067D01*
X306629Y670073D01*
X306634Y670070D01*
X307604Y670547D01*
X307607Y670555D01*
X307613Y670553D01*
X308452Y671234D01*
X308454Y671242D01*
X308460Y671242D01*
X309126Y672093D01*
X309127Y672101D01*
X309132Y672102D01*
X309593Y673079D01*
X309591Y673087D01*
X309597Y673090D01*
X309828Y674145D01*
X309825Y674153D01*
X309829Y674156D01*
X309829Y686156D01*
X309825Y686161D01*
X309829Y686164D01*
X309636Y687270D01*
X309630Y687275D01*
X309633Y687280D01*
X309200Y688315D01*
X309193Y688319D01*
X309195Y688324D01*
X308542Y689237D01*
X308534Y689239D01*
X308535Y689245D01*
X307696Y689989D01*
X307687Y689990D01*
X307687Y689995D01*
X306703Y690534D01*
X306695Y690533D01*
X306693Y690538D01*
X305614Y690845D01*
X305606Y690842D01*
X305603Y690847D01*
X304483Y690905D01*
X304478Y690902D01*
X304475Y690905D01*
X303429Y690787D01*
X303423Y690781D01*
X303418Y690785D01*
X302424Y690437D01*
X302420Y690430D01*
X302415Y690432D01*
X301523Y689872D01*
X301521Y689865D01*
X301515Y689865D01*
X300771Y689121D01*
X300769Y689113D01*
X300764Y689113D01*
X300204Y688221D01*
X300204Y688213D01*
X300199Y688212D01*
X299851Y687218D01*
X299854Y687210D01*
X299849Y687207D01*
X299731Y686162D01*
X299733Y686158D01*
X299731Y686156D01*
X299731Y674156D01*
X299734Y674151D01*
X299731Y674148D01*
X299889Y673152D01*
X299895Y673146D01*
X299892Y673141D01*
X300267Y672205D01*
X300274Y672201D01*
X300272Y672195D01*
X300846Y671366D01*
X300854Y671363D01*
X300853Y671358D01*
X301597Y670677D01*
X301606Y670676D01*
X301606Y670670D01*
X302483Y670172D01*
X302492Y670173D01*
X302494Y670168D01*
X303459Y669877D01*
X303467Y669880D01*
X303470Y669875D01*
X304477Y669807D01*
X304479Y669808D01*
X304480Y669807D01*
X305561Y669816D01*
G37*
G36*
X772921Y669816D02*
X772921Y669816D01*
X772928Y669821D01*
X772932Y669817D01*
X773984Y670067D01*
X773989Y670073D01*
X773994Y670070D01*
X774964Y670547D01*
X774967Y670555D01*
X774973Y670553D01*
X775812Y671234D01*
X775814Y671242D01*
X775820Y671242D01*
X776486Y672093D01*
X776487Y672101D01*
X776492Y672102D01*
X776953Y673079D01*
X776951Y673087D01*
X776957Y673090D01*
X777188Y674145D01*
X777185Y674153D01*
X777189Y674156D01*
X777189Y686156D01*
X777185Y686161D01*
X777189Y686164D01*
X776996Y687270D01*
X776990Y687275D01*
X776993Y687280D01*
X776560Y688315D01*
X776553Y688319D01*
X776555Y688324D01*
X775902Y689237D01*
X775894Y689239D01*
X775895Y689245D01*
X775056Y689989D01*
X775047Y689990D01*
X775047Y689995D01*
X774063Y690534D01*
X774055Y690533D01*
X774053Y690538D01*
X772974Y690845D01*
X772966Y690842D01*
X772963Y690847D01*
X771843Y690905D01*
X771838Y690902D01*
X771835Y690905D01*
X770789Y690787D01*
X770783Y690781D01*
X770778Y690785D01*
X769784Y690437D01*
X769780Y690430D01*
X769775Y690432D01*
X768883Y689872D01*
X768881Y689865D01*
X768875Y689865D01*
X768131Y689121D01*
X768129Y689113D01*
X768124Y689113D01*
X767564Y688221D01*
X767564Y688213D01*
X767559Y688212D01*
X767211Y687218D01*
X767214Y687210D01*
X767209Y687207D01*
X767091Y686162D01*
X767093Y686158D01*
X767091Y686156D01*
X767091Y674156D01*
X767094Y674151D01*
X767091Y674148D01*
X767249Y673152D01*
X767255Y673146D01*
X767252Y673141D01*
X767627Y672205D01*
X767634Y672201D01*
X767632Y672195D01*
X768206Y671366D01*
X768214Y671363D01*
X768213Y671358D01*
X768957Y670677D01*
X768966Y670676D01*
X768966Y670670D01*
X769843Y670172D01*
X769852Y670173D01*
X769854Y670168D01*
X770819Y669877D01*
X770827Y669880D01*
X770830Y669875D01*
X771837Y669807D01*
X771839Y669808D01*
X771840Y669807D01*
X772921Y669816D01*
G37*
G36*
X71881Y669816D02*
X71881Y669816D01*
X71888Y669821D01*
X71892Y669817D01*
X72944Y670067D01*
X72949Y670073D01*
X72954Y670070D01*
X73924Y670547D01*
X73927Y670555D01*
X73933Y670553D01*
X74772Y671234D01*
X74774Y671242D01*
X74780Y671242D01*
X75446Y672093D01*
X75447Y672101D01*
X75452Y672102D01*
X75913Y673079D01*
X75911Y673087D01*
X75917Y673090D01*
X76148Y674145D01*
X76145Y674153D01*
X76149Y674156D01*
X76149Y686156D01*
X76145Y686161D01*
X76149Y686164D01*
X75956Y687270D01*
X75950Y687275D01*
X75953Y687280D01*
X75520Y688315D01*
X75513Y688319D01*
X75515Y688324D01*
X74862Y689237D01*
X74854Y689239D01*
X74855Y689245D01*
X74016Y689989D01*
X74007Y689990D01*
X74007Y689995D01*
X73023Y690534D01*
X73015Y690533D01*
X73013Y690538D01*
X71934Y690845D01*
X71926Y690842D01*
X71923Y690847D01*
X70803Y690905D01*
X70798Y690902D01*
X70795Y690905D01*
X69749Y690787D01*
X69743Y690781D01*
X69738Y690785D01*
X68744Y690437D01*
X68740Y690430D01*
X68735Y690432D01*
X67843Y689872D01*
X67841Y689865D01*
X67835Y689865D01*
X67091Y689121D01*
X67089Y689113D01*
X67084Y689113D01*
X66524Y688221D01*
X66524Y688213D01*
X66519Y688212D01*
X66171Y687218D01*
X66174Y687210D01*
X66169Y687207D01*
X66051Y686162D01*
X66053Y686158D01*
X66051Y686156D01*
X66051Y674156D01*
X66054Y674151D01*
X66051Y674148D01*
X66209Y673152D01*
X66215Y673146D01*
X66212Y673141D01*
X66587Y672205D01*
X66594Y672201D01*
X66592Y672195D01*
X67166Y671366D01*
X67174Y671363D01*
X67173Y671358D01*
X67917Y670677D01*
X67926Y670676D01*
X67926Y670670D01*
X68803Y670172D01*
X68812Y670173D01*
X68814Y670168D01*
X69779Y669877D01*
X69787Y669880D01*
X69790Y669875D01*
X70797Y669807D01*
X70799Y669808D01*
X70800Y669807D01*
X71881Y669816D01*
G37*
G36*
X391484Y630311D02*
X391484Y630311D01*
X391487Y630307D01*
X392563Y630462D01*
X392568Y630468D01*
X392573Y630465D01*
X393587Y630855D01*
X393591Y630862D01*
X393597Y630861D01*
X394499Y631467D01*
X394501Y631475D01*
X394507Y631474D01*
X395251Y632266D01*
X395252Y632274D01*
X395258Y632274D01*
X395807Y633212D01*
X395806Y633220D01*
X395812Y633222D01*
X396139Y634258D01*
X396136Y634266D01*
X396141Y634269D01*
X396229Y635352D01*
X396227Y635355D01*
X396229Y635356D01*
X396229Y641356D01*
X396226Y641360D01*
X396229Y641362D01*
X396079Y642495D01*
X396073Y642501D01*
X396076Y642506D01*
X395678Y643576D01*
X395671Y643580D01*
X395673Y643586D01*
X395046Y644541D01*
X395038Y644544D01*
X395039Y644549D01*
X394216Y645341D01*
X394208Y645342D01*
X394207Y645348D01*
X393228Y645937D01*
X393220Y645936D01*
X393218Y645941D01*
X392133Y646297D01*
X392125Y646295D01*
X392122Y646299D01*
X390985Y646405D01*
X390976Y646400D01*
X390971Y646404D01*
X389834Y646197D01*
X389828Y646191D01*
X389823Y646194D01*
X388761Y645739D01*
X388757Y645732D01*
X388751Y645734D01*
X387816Y645054D01*
X387814Y645046D01*
X387808Y645047D01*
X387048Y644176D01*
X387048Y644168D01*
X387042Y644167D01*
X386495Y643148D01*
X386496Y643140D01*
X386491Y643138D01*
X386487Y643125D01*
X386474Y643076D01*
X386473Y643076D01*
X386474Y643076D01*
X386460Y643027D01*
X386446Y642977D01*
X386433Y642928D01*
X386419Y642879D01*
X386406Y642830D01*
X386392Y642780D01*
X386379Y642731D01*
X386365Y642682D01*
X386351Y642633D01*
X386338Y642583D01*
X386324Y642534D01*
X386311Y642485D01*
X386297Y642436D01*
X386284Y642386D01*
X386270Y642337D01*
X386257Y642288D01*
X386256Y642288D01*
X386243Y642239D01*
X386229Y642189D01*
X386184Y642024D01*
X386187Y642016D01*
X386182Y642013D01*
X386131Y640858D01*
X386132Y640857D01*
X386131Y640856D01*
X386131Y634856D01*
X386135Y634850D01*
X386132Y634847D01*
X386344Y633766D01*
X386350Y633761D01*
X386347Y633756D01*
X386794Y632750D01*
X386801Y632746D01*
X386799Y632740D01*
X387459Y631859D01*
X387467Y631856D01*
X387467Y631851D01*
X388306Y631138D01*
X388314Y631138D01*
X388315Y631132D01*
X389292Y630624D01*
X389300Y630625D01*
X389302Y630620D01*
X390367Y630342D01*
X390375Y630345D01*
X390378Y630341D01*
X391479Y630307D01*
X391484Y630311D01*
G37*
G36*
X625164Y630311D02*
X625164Y630311D01*
X625167Y630307D01*
X626243Y630462D01*
X626248Y630468D01*
X626253Y630465D01*
X627267Y630855D01*
X627271Y630862D01*
X627277Y630861D01*
X628179Y631467D01*
X628181Y631475D01*
X628187Y631474D01*
X628931Y632266D01*
X628932Y632274D01*
X628938Y632274D01*
X629487Y633212D01*
X629486Y633220D01*
X629492Y633222D01*
X629819Y634258D01*
X629816Y634266D01*
X629821Y634269D01*
X629909Y635352D01*
X629907Y635355D01*
X629909Y635356D01*
X629909Y641356D01*
X629906Y641360D01*
X629909Y641362D01*
X629759Y642495D01*
X629753Y642501D01*
X629756Y642506D01*
X629358Y643576D01*
X629351Y643580D01*
X629353Y643586D01*
X628726Y644541D01*
X628718Y644544D01*
X628719Y644549D01*
X627896Y645341D01*
X627888Y645342D01*
X627887Y645348D01*
X626908Y645937D01*
X626900Y645936D01*
X626898Y645941D01*
X625813Y646297D01*
X625805Y646295D01*
X625802Y646299D01*
X624665Y646405D01*
X624656Y646400D01*
X624651Y646404D01*
X623514Y646197D01*
X623508Y646191D01*
X623503Y646194D01*
X622441Y645739D01*
X622437Y645732D01*
X622431Y645734D01*
X621496Y645054D01*
X621494Y645046D01*
X621488Y645047D01*
X620728Y644176D01*
X620728Y644168D01*
X620722Y644167D01*
X620175Y643148D01*
X620176Y643140D01*
X620171Y643138D01*
X620167Y643125D01*
X620154Y643076D01*
X620153Y643076D01*
X620154Y643076D01*
X620140Y643027D01*
X620126Y642977D01*
X620113Y642928D01*
X620099Y642879D01*
X620086Y642830D01*
X620072Y642780D01*
X620059Y642731D01*
X620045Y642682D01*
X620031Y642633D01*
X620018Y642583D01*
X620004Y642534D01*
X619991Y642485D01*
X619977Y642436D01*
X619964Y642386D01*
X619950Y642337D01*
X619937Y642288D01*
X619936Y642288D01*
X619923Y642239D01*
X619909Y642189D01*
X619864Y642024D01*
X619867Y642016D01*
X619862Y642013D01*
X619811Y640858D01*
X619812Y640857D01*
X619811Y640856D01*
X619811Y634856D01*
X619815Y634850D01*
X619812Y634847D01*
X620024Y633766D01*
X620030Y633761D01*
X620027Y633756D01*
X620474Y632750D01*
X620481Y632746D01*
X620479Y632740D01*
X621139Y631859D01*
X621147Y631856D01*
X621147Y631851D01*
X621986Y631138D01*
X621994Y631138D01*
X621995Y631132D01*
X622972Y630624D01*
X622980Y630625D01*
X622982Y630620D01*
X624047Y630342D01*
X624055Y630345D01*
X624058Y630341D01*
X625159Y630307D01*
X625164Y630311D01*
G37*
G36*
X157804Y630311D02*
X157804Y630311D01*
X157807Y630307D01*
X158883Y630462D01*
X158888Y630468D01*
X158893Y630465D01*
X159907Y630855D01*
X159911Y630862D01*
X159917Y630861D01*
X160819Y631467D01*
X160821Y631475D01*
X160827Y631474D01*
X161571Y632266D01*
X161572Y632274D01*
X161578Y632274D01*
X162127Y633212D01*
X162126Y633220D01*
X162132Y633222D01*
X162459Y634258D01*
X162456Y634266D01*
X162461Y634269D01*
X162549Y635352D01*
X162547Y635355D01*
X162549Y635356D01*
X162549Y641356D01*
X162546Y641360D01*
X162549Y641362D01*
X162399Y642495D01*
X162393Y642501D01*
X162396Y642506D01*
X161998Y643576D01*
X161991Y643580D01*
X161993Y643586D01*
X161366Y644541D01*
X161358Y644544D01*
X161359Y644549D01*
X160536Y645341D01*
X160528Y645342D01*
X160527Y645348D01*
X159548Y645937D01*
X159540Y645936D01*
X159538Y645941D01*
X158453Y646297D01*
X158445Y646295D01*
X158442Y646299D01*
X157305Y646405D01*
X157296Y646400D01*
X157291Y646404D01*
X156154Y646197D01*
X156148Y646191D01*
X156143Y646194D01*
X155081Y645739D01*
X155077Y645732D01*
X155071Y645734D01*
X154136Y645054D01*
X154134Y645046D01*
X154128Y645047D01*
X153368Y644176D01*
X153368Y644168D01*
X153362Y644167D01*
X152815Y643148D01*
X152816Y643140D01*
X152811Y643138D01*
X152807Y643125D01*
X152794Y643076D01*
X152793Y643076D01*
X152794Y643076D01*
X152780Y643027D01*
X152766Y642977D01*
X152753Y642928D01*
X152739Y642879D01*
X152726Y642830D01*
X152712Y642780D01*
X152699Y642731D01*
X152685Y642682D01*
X152671Y642633D01*
X152658Y642583D01*
X152644Y642534D01*
X152631Y642485D01*
X152617Y642436D01*
X152604Y642386D01*
X152590Y642337D01*
X152577Y642288D01*
X152576Y642288D01*
X152563Y642239D01*
X152549Y642189D01*
X152504Y642024D01*
X152507Y642016D01*
X152502Y642013D01*
X152451Y640858D01*
X152452Y640857D01*
X152451Y640856D01*
X152451Y634856D01*
X152455Y634850D01*
X152452Y634847D01*
X152664Y633766D01*
X152670Y633761D01*
X152667Y633756D01*
X153114Y632750D01*
X153121Y632746D01*
X153119Y632740D01*
X153779Y631859D01*
X153787Y631856D01*
X153787Y631851D01*
X154626Y631138D01*
X154634Y631138D01*
X154635Y631132D01*
X155612Y630624D01*
X155620Y630625D01*
X155622Y630620D01*
X156687Y630342D01*
X156695Y630345D01*
X156698Y630341D01*
X157799Y630307D01*
X157804Y630311D01*
G37*
G36*
X858844Y630311D02*
X858844Y630311D01*
X858847Y630307D01*
X859923Y630462D01*
X859928Y630468D01*
X859933Y630465D01*
X860947Y630855D01*
X860951Y630862D01*
X860957Y630861D01*
X861859Y631467D01*
X861861Y631475D01*
X861867Y631474D01*
X862611Y632266D01*
X862612Y632274D01*
X862618Y632274D01*
X863167Y633212D01*
X863166Y633220D01*
X863172Y633222D01*
X863499Y634258D01*
X863496Y634266D01*
X863501Y634269D01*
X863589Y635352D01*
X863587Y635355D01*
X863589Y635356D01*
X863589Y641356D01*
X863586Y641360D01*
X863589Y641362D01*
X863439Y642495D01*
X863433Y642501D01*
X863436Y642506D01*
X863038Y643576D01*
X863031Y643580D01*
X863033Y643586D01*
X862406Y644541D01*
X862398Y644544D01*
X862399Y644549D01*
X861576Y645341D01*
X861568Y645342D01*
X861567Y645348D01*
X860588Y645937D01*
X860580Y645936D01*
X860578Y645941D01*
X859493Y646297D01*
X859485Y646295D01*
X859482Y646299D01*
X858345Y646405D01*
X858336Y646400D01*
X858331Y646404D01*
X857194Y646197D01*
X857188Y646191D01*
X857183Y646194D01*
X856121Y645739D01*
X856117Y645732D01*
X856111Y645734D01*
X855176Y645054D01*
X855174Y645046D01*
X855168Y645047D01*
X854408Y644176D01*
X854408Y644168D01*
X854402Y644167D01*
X853855Y643148D01*
X853856Y643140D01*
X853851Y643138D01*
X853847Y643125D01*
X853834Y643076D01*
X853833Y643076D01*
X853834Y643076D01*
X853820Y643027D01*
X853806Y642977D01*
X853793Y642928D01*
X853779Y642879D01*
X853766Y642830D01*
X853752Y642780D01*
X853739Y642731D01*
X853725Y642682D01*
X853711Y642633D01*
X853698Y642583D01*
X853684Y642534D01*
X853671Y642485D01*
X853657Y642436D01*
X853644Y642386D01*
X853630Y642337D01*
X853617Y642288D01*
X853616Y642288D01*
X853603Y642239D01*
X853589Y642189D01*
X853544Y642024D01*
X853547Y642016D01*
X853542Y642013D01*
X853491Y640858D01*
X853492Y640857D01*
X853491Y640856D01*
X853491Y634856D01*
X853495Y634850D01*
X853492Y634847D01*
X853704Y633766D01*
X853710Y633761D01*
X853707Y633756D01*
X854154Y632750D01*
X854161Y632746D01*
X854159Y632740D01*
X854819Y631859D01*
X854827Y631856D01*
X854827Y631851D01*
X855666Y631138D01*
X855674Y631138D01*
X855675Y631132D01*
X856652Y630624D01*
X856660Y630625D01*
X856662Y630620D01*
X857727Y630342D01*
X857735Y630345D01*
X857738Y630341D01*
X858839Y630307D01*
X858844Y630311D01*
G37*
G36*
X625164Y1257691D02*
X625164Y1257691D01*
X625167Y1257687D01*
X626243Y1257842D01*
X626248Y1257848D01*
X626253Y1257845D01*
X627267Y1258235D01*
X627271Y1258242D01*
X627277Y1258241D01*
X628179Y1258847D01*
X628181Y1258855D01*
X628187Y1258854D01*
X628931Y1259646D01*
X628932Y1259654D01*
X628938Y1259654D01*
X629487Y1260592D01*
X629486Y1260600D01*
X629492Y1260602D01*
X629819Y1261638D01*
X629816Y1261646D01*
X629821Y1261649D01*
X629909Y1262732D01*
X629907Y1262735D01*
X629909Y1262736D01*
X629909Y1268736D01*
X629906Y1268740D01*
X629909Y1268742D01*
X629759Y1269875D01*
X629753Y1269881D01*
X629756Y1269886D01*
X629358Y1270956D01*
X629351Y1270960D01*
X629353Y1270966D01*
X628726Y1271921D01*
X628718Y1271924D01*
X628719Y1271929D01*
X627896Y1272721D01*
X627888Y1272722D01*
X627887Y1272728D01*
X626908Y1273317D01*
X626900Y1273316D01*
X626898Y1273321D01*
X625813Y1273677D01*
X625805Y1273675D01*
X625802Y1273679D01*
X624665Y1273785D01*
X624656Y1273780D01*
X624651Y1273784D01*
X623514Y1273577D01*
X623508Y1273571D01*
X623503Y1273574D01*
X622441Y1273119D01*
X622437Y1273112D01*
X622431Y1273114D01*
X621496Y1272434D01*
X621494Y1272426D01*
X621488Y1272427D01*
X620728Y1271556D01*
X620728Y1271548D01*
X620722Y1271547D01*
X620175Y1270528D01*
X620176Y1270520D01*
X620171Y1270518D01*
X620167Y1270505D01*
X620154Y1270456D01*
X620153Y1270456D01*
X620154Y1270456D01*
X620140Y1270407D01*
X620126Y1270357D01*
X620113Y1270308D01*
X620099Y1270259D01*
X620086Y1270210D01*
X620072Y1270160D01*
X620059Y1270111D01*
X620045Y1270062D01*
X620031Y1270013D01*
X620018Y1269963D01*
X620004Y1269914D01*
X619991Y1269865D01*
X619977Y1269816D01*
X619964Y1269766D01*
X619950Y1269717D01*
X619937Y1269668D01*
X619936Y1269668D01*
X619923Y1269619D01*
X619909Y1269569D01*
X619864Y1269404D01*
X619867Y1269396D01*
X619862Y1269393D01*
X619811Y1268238D01*
X619812Y1268237D01*
X619811Y1268236D01*
X619811Y1262236D01*
X619815Y1262230D01*
X619812Y1262227D01*
X620024Y1261146D01*
X620030Y1261141D01*
X620027Y1261136D01*
X620474Y1260130D01*
X620481Y1260126D01*
X620479Y1260120D01*
X621139Y1259239D01*
X621147Y1259236D01*
X621147Y1259231D01*
X621986Y1258518D01*
X621994Y1258518D01*
X621995Y1258512D01*
X622972Y1258004D01*
X622980Y1258005D01*
X622982Y1258000D01*
X624047Y1257722D01*
X624055Y1257725D01*
X624058Y1257721D01*
X625159Y1257687D01*
X625164Y1257691D01*
G37*
G36*
X391484Y1257691D02*
X391484Y1257691D01*
X391487Y1257687D01*
X392563Y1257842D01*
X392568Y1257848D01*
X392573Y1257845D01*
X393587Y1258235D01*
X393591Y1258242D01*
X393597Y1258241D01*
X394499Y1258847D01*
X394501Y1258855D01*
X394507Y1258854D01*
X395251Y1259646D01*
X395252Y1259654D01*
X395258Y1259654D01*
X395807Y1260592D01*
X395806Y1260600D01*
X395812Y1260602D01*
X396139Y1261638D01*
X396136Y1261646D01*
X396141Y1261649D01*
X396229Y1262732D01*
X396227Y1262735D01*
X396229Y1262736D01*
X396229Y1268736D01*
X396226Y1268740D01*
X396229Y1268742D01*
X396079Y1269875D01*
X396073Y1269881D01*
X396076Y1269886D01*
X395678Y1270956D01*
X395671Y1270960D01*
X395673Y1270966D01*
X395046Y1271921D01*
X395038Y1271924D01*
X395039Y1271929D01*
X394216Y1272721D01*
X394208Y1272722D01*
X394207Y1272728D01*
X393228Y1273317D01*
X393220Y1273316D01*
X393218Y1273321D01*
X392133Y1273677D01*
X392125Y1273675D01*
X392122Y1273679D01*
X390985Y1273785D01*
X390976Y1273780D01*
X390971Y1273784D01*
X389834Y1273577D01*
X389828Y1273571D01*
X389823Y1273574D01*
X388761Y1273119D01*
X388757Y1273112D01*
X388751Y1273114D01*
X387816Y1272434D01*
X387814Y1272426D01*
X387808Y1272427D01*
X387048Y1271556D01*
X387048Y1271548D01*
X387042Y1271547D01*
X386495Y1270528D01*
X386496Y1270520D01*
X386491Y1270518D01*
X386487Y1270505D01*
X386474Y1270456D01*
X386473Y1270456D01*
X386474Y1270456D01*
X386460Y1270407D01*
X386446Y1270357D01*
X386433Y1270308D01*
X386419Y1270259D01*
X386406Y1270210D01*
X386392Y1270160D01*
X386379Y1270111D01*
X386365Y1270062D01*
X386351Y1270013D01*
X386338Y1269963D01*
X386324Y1269914D01*
X386311Y1269865D01*
X386297Y1269816D01*
X386284Y1269766D01*
X386270Y1269717D01*
X386257Y1269668D01*
X386256Y1269668D01*
X386243Y1269619D01*
X386229Y1269569D01*
X386184Y1269404D01*
X386187Y1269396D01*
X386182Y1269393D01*
X386131Y1268238D01*
X386132Y1268237D01*
X386131Y1268236D01*
X386131Y1262236D01*
X386135Y1262230D01*
X386132Y1262227D01*
X386344Y1261146D01*
X386350Y1261141D01*
X386347Y1261136D01*
X386794Y1260130D01*
X386801Y1260126D01*
X386799Y1260120D01*
X387459Y1259239D01*
X387467Y1259236D01*
X387467Y1259231D01*
X388306Y1258518D01*
X388314Y1258518D01*
X388315Y1258512D01*
X389292Y1258004D01*
X389300Y1258005D01*
X389302Y1258000D01*
X390367Y1257722D01*
X390375Y1257725D01*
X390378Y1257721D01*
X391479Y1257687D01*
X391484Y1257691D01*
G37*
G36*
X157804Y1257691D02*
X157804Y1257691D01*
X157807Y1257687D01*
X158883Y1257842D01*
X158888Y1257848D01*
X158893Y1257845D01*
X159907Y1258235D01*
X159911Y1258242D01*
X159917Y1258241D01*
X160819Y1258847D01*
X160821Y1258855D01*
X160827Y1258854D01*
X161571Y1259646D01*
X161572Y1259654D01*
X161578Y1259654D01*
X162127Y1260592D01*
X162126Y1260600D01*
X162132Y1260602D01*
X162459Y1261638D01*
X162456Y1261646D01*
X162461Y1261649D01*
X162549Y1262732D01*
X162547Y1262735D01*
X162549Y1262736D01*
X162549Y1268736D01*
X162546Y1268740D01*
X162549Y1268742D01*
X162399Y1269875D01*
X162393Y1269881D01*
X162396Y1269886D01*
X161998Y1270956D01*
X161991Y1270960D01*
X161993Y1270966D01*
X161366Y1271921D01*
X161358Y1271924D01*
X161359Y1271929D01*
X160536Y1272721D01*
X160528Y1272722D01*
X160527Y1272728D01*
X159548Y1273317D01*
X159540Y1273316D01*
X159538Y1273321D01*
X158453Y1273677D01*
X158445Y1273675D01*
X158442Y1273679D01*
X157305Y1273785D01*
X157296Y1273780D01*
X157291Y1273784D01*
X156154Y1273577D01*
X156148Y1273571D01*
X156143Y1273574D01*
X155081Y1273119D01*
X155077Y1273112D01*
X155071Y1273114D01*
X154136Y1272434D01*
X154134Y1272426D01*
X154128Y1272427D01*
X153368Y1271556D01*
X153368Y1271548D01*
X153362Y1271547D01*
X152815Y1270528D01*
X152816Y1270520D01*
X152811Y1270518D01*
X152807Y1270505D01*
X152794Y1270456D01*
X152793Y1270456D01*
X152794Y1270456D01*
X152780Y1270407D01*
X152766Y1270357D01*
X152753Y1270308D01*
X152739Y1270259D01*
X152726Y1270210D01*
X152712Y1270160D01*
X152699Y1270111D01*
X152685Y1270062D01*
X152671Y1270013D01*
X152658Y1269963D01*
X152644Y1269914D01*
X152631Y1269865D01*
X152617Y1269816D01*
X152604Y1269766D01*
X152590Y1269717D01*
X152577Y1269668D01*
X152576Y1269668D01*
X152563Y1269619D01*
X152549Y1269569D01*
X152504Y1269404D01*
X152507Y1269396D01*
X152502Y1269393D01*
X152451Y1268238D01*
X152452Y1268237D01*
X152451Y1268236D01*
X152451Y1262236D01*
X152455Y1262230D01*
X152452Y1262227D01*
X152664Y1261146D01*
X152670Y1261141D01*
X152667Y1261136D01*
X153114Y1260130D01*
X153121Y1260126D01*
X153119Y1260120D01*
X153779Y1259239D01*
X153787Y1259236D01*
X153787Y1259231D01*
X154626Y1258518D01*
X154634Y1258518D01*
X154635Y1258512D01*
X155612Y1258004D01*
X155620Y1258005D01*
X155622Y1258000D01*
X156687Y1257722D01*
X156695Y1257725D01*
X156698Y1257721D01*
X157799Y1257687D01*
X157804Y1257691D01*
G37*
G36*
X858844Y1257691D02*
X858844Y1257691D01*
X858847Y1257687D01*
X859923Y1257842D01*
X859928Y1257848D01*
X859933Y1257845D01*
X860947Y1258235D01*
X860951Y1258242D01*
X860957Y1258241D01*
X861859Y1258847D01*
X861861Y1258855D01*
X861867Y1258854D01*
X862611Y1259646D01*
X862612Y1259654D01*
X862618Y1259654D01*
X863167Y1260592D01*
X863166Y1260600D01*
X863172Y1260602D01*
X863499Y1261638D01*
X863496Y1261646D01*
X863501Y1261649D01*
X863589Y1262732D01*
X863587Y1262735D01*
X863589Y1262736D01*
X863589Y1268736D01*
X863586Y1268740D01*
X863589Y1268742D01*
X863439Y1269875D01*
X863433Y1269881D01*
X863436Y1269886D01*
X863038Y1270956D01*
X863031Y1270960D01*
X863033Y1270966D01*
X862406Y1271921D01*
X862398Y1271924D01*
X862399Y1271929D01*
X861576Y1272721D01*
X861568Y1272722D01*
X861567Y1272728D01*
X860588Y1273317D01*
X860580Y1273316D01*
X860578Y1273321D01*
X859493Y1273677D01*
X859485Y1273675D01*
X859482Y1273679D01*
X858345Y1273785D01*
X858336Y1273780D01*
X858331Y1273784D01*
X857194Y1273577D01*
X857188Y1273571D01*
X857183Y1273574D01*
X856121Y1273119D01*
X856117Y1273112D01*
X856111Y1273114D01*
X855176Y1272434D01*
X855174Y1272426D01*
X855168Y1272427D01*
X854408Y1271556D01*
X854408Y1271548D01*
X854402Y1271547D01*
X853855Y1270528D01*
X853856Y1270520D01*
X853851Y1270518D01*
X853847Y1270505D01*
X853834Y1270456D01*
X853833Y1270456D01*
X853834Y1270456D01*
X853820Y1270407D01*
X853806Y1270357D01*
X853793Y1270308D01*
X853779Y1270259D01*
X853766Y1270210D01*
X853752Y1270160D01*
X853739Y1270111D01*
X853725Y1270062D01*
X853711Y1270013D01*
X853698Y1269963D01*
X853684Y1269914D01*
X853671Y1269865D01*
X853657Y1269816D01*
X853644Y1269766D01*
X853630Y1269717D01*
X853617Y1269668D01*
X853616Y1269668D01*
X853603Y1269619D01*
X853589Y1269569D01*
X853544Y1269404D01*
X853547Y1269396D01*
X853542Y1269393D01*
X853491Y1268238D01*
X853492Y1268237D01*
X853491Y1268236D01*
X853491Y1262236D01*
X853495Y1262230D01*
X853492Y1262227D01*
X853704Y1261146D01*
X853710Y1261141D01*
X853707Y1261136D01*
X854154Y1260130D01*
X854161Y1260126D01*
X854159Y1260120D01*
X854819Y1259239D01*
X854827Y1259236D01*
X854827Y1259231D01*
X855666Y1258518D01*
X855674Y1258518D01*
X855675Y1258512D01*
X856652Y1258004D01*
X856660Y1258005D01*
X856662Y1258000D01*
X857727Y1257722D01*
X857735Y1257725D01*
X857738Y1257721D01*
X858839Y1257687D01*
X858844Y1257691D01*
G37*
G36*
X858844Y2931D02*
X858844Y2931D01*
X858847Y2927D01*
X859923Y3082D01*
X859928Y3088D01*
X859933Y3085D01*
X860947Y3475D01*
X860951Y3482D01*
X860957Y3481D01*
X861859Y4087D01*
X861861Y4095D01*
X861867Y4094D01*
X862611Y4886D01*
X862612Y4894D01*
X862618Y4894D01*
X863167Y5832D01*
X863166Y5840D01*
X863172Y5842D01*
X863499Y6878D01*
X863496Y6886D01*
X863501Y6889D01*
X863589Y7972D01*
X863587Y7975D01*
X863589Y7976D01*
X863589Y13976D01*
X863586Y13980D01*
X863589Y13982D01*
X863439Y15115D01*
X863433Y15121D01*
X863436Y15126D01*
X863038Y16196D01*
X863031Y16200D01*
X863033Y16206D01*
X862406Y17161D01*
X862398Y17164D01*
X862399Y17169D01*
X861576Y17961D01*
X861568Y17962D01*
X861567Y17968D01*
X860588Y18557D01*
X860580Y18556D01*
X860578Y18561D01*
X859493Y18917D01*
X859485Y18915D01*
X859482Y18919D01*
X858345Y19025D01*
X858336Y19020D01*
X858331Y19024D01*
X857194Y18817D01*
X857188Y18811D01*
X857183Y18814D01*
X856121Y18359D01*
X856117Y18352D01*
X856111Y18354D01*
X855176Y17674D01*
X855174Y17666D01*
X855168Y17667D01*
X854408Y16796D01*
X854408Y16788D01*
X854402Y16787D01*
X853855Y15768D01*
X853856Y15760D01*
X853851Y15758D01*
X853847Y15745D01*
X853834Y15696D01*
X853833Y15696D01*
X853834Y15696D01*
X853820Y15647D01*
X853806Y15597D01*
X853793Y15548D01*
X853779Y15499D01*
X853766Y15450D01*
X853752Y15400D01*
X853739Y15351D01*
X853725Y15302D01*
X853711Y15253D01*
X853698Y15203D01*
X853684Y15154D01*
X853671Y15105D01*
X853657Y15056D01*
X853644Y15006D01*
X853630Y14957D01*
X853617Y14908D01*
X853616Y14908D01*
X853603Y14859D01*
X853589Y14809D01*
X853544Y14644D01*
X853547Y14636D01*
X853542Y14633D01*
X853491Y13478D01*
X853492Y13477D01*
X853491Y13476D01*
X853491Y7476D01*
X853495Y7470D01*
X853492Y7467D01*
X853704Y6386D01*
X853710Y6381D01*
X853707Y6376D01*
X854154Y5370D01*
X854161Y5366D01*
X854159Y5360D01*
X854819Y4479D01*
X854827Y4476D01*
X854827Y4471D01*
X855666Y3758D01*
X855674Y3758D01*
X855675Y3752D01*
X856652Y3244D01*
X856660Y3245D01*
X856662Y3240D01*
X857727Y2962D01*
X857735Y2965D01*
X857738Y2961D01*
X858839Y2927D01*
X858844Y2931D01*
G37*
G36*
X157804Y2931D02*
X157804Y2931D01*
X157807Y2927D01*
X158883Y3082D01*
X158888Y3088D01*
X158893Y3085D01*
X159907Y3475D01*
X159911Y3482D01*
X159917Y3481D01*
X160819Y4087D01*
X160821Y4095D01*
X160827Y4094D01*
X161571Y4886D01*
X161572Y4894D01*
X161578Y4894D01*
X162127Y5832D01*
X162126Y5840D01*
X162132Y5842D01*
X162459Y6878D01*
X162456Y6886D01*
X162461Y6889D01*
X162549Y7972D01*
X162547Y7975D01*
X162549Y7976D01*
X162549Y13976D01*
X162546Y13980D01*
X162549Y13982D01*
X162399Y15115D01*
X162393Y15121D01*
X162396Y15126D01*
X161998Y16196D01*
X161991Y16200D01*
X161993Y16206D01*
X161366Y17161D01*
X161358Y17164D01*
X161359Y17169D01*
X160536Y17961D01*
X160528Y17962D01*
X160527Y17968D01*
X159548Y18557D01*
X159540Y18556D01*
X159538Y18561D01*
X158453Y18917D01*
X158445Y18915D01*
X158442Y18919D01*
X157305Y19025D01*
X157296Y19020D01*
X157291Y19024D01*
X156154Y18817D01*
X156148Y18811D01*
X156143Y18814D01*
X155081Y18359D01*
X155077Y18352D01*
X155071Y18354D01*
X154136Y17674D01*
X154134Y17666D01*
X154128Y17667D01*
X153368Y16796D01*
X153368Y16788D01*
X153362Y16787D01*
X152815Y15768D01*
X152816Y15760D01*
X152811Y15758D01*
X152807Y15745D01*
X152794Y15696D01*
X152793Y15696D01*
X152794Y15696D01*
X152780Y15647D01*
X152766Y15597D01*
X152753Y15548D01*
X152739Y15499D01*
X152726Y15450D01*
X152712Y15400D01*
X152699Y15351D01*
X152685Y15302D01*
X152671Y15253D01*
X152658Y15203D01*
X152644Y15154D01*
X152631Y15105D01*
X152617Y15056D01*
X152604Y15006D01*
X152590Y14957D01*
X152577Y14908D01*
X152576Y14908D01*
X152563Y14859D01*
X152549Y14809D01*
X152504Y14644D01*
X152507Y14636D01*
X152502Y14633D01*
X152451Y13478D01*
X152452Y13477D01*
X152451Y13476D01*
X152451Y7476D01*
X152455Y7470D01*
X152452Y7467D01*
X152664Y6386D01*
X152670Y6381D01*
X152667Y6376D01*
X153114Y5370D01*
X153121Y5366D01*
X153119Y5360D01*
X153779Y4479D01*
X153787Y4476D01*
X153787Y4471D01*
X154626Y3758D01*
X154634Y3758D01*
X154635Y3752D01*
X155612Y3244D01*
X155620Y3245D01*
X155622Y3240D01*
X156687Y2962D01*
X156695Y2965D01*
X156698Y2961D01*
X157799Y2927D01*
X157804Y2931D01*
G37*
G36*
X625164Y2931D02*
X625164Y2931D01*
X625167Y2927D01*
X626243Y3082D01*
X626248Y3088D01*
X626253Y3085D01*
X627267Y3475D01*
X627271Y3482D01*
X627277Y3481D01*
X628179Y4087D01*
X628181Y4095D01*
X628187Y4094D01*
X628931Y4886D01*
X628932Y4894D01*
X628938Y4894D01*
X629487Y5832D01*
X629486Y5840D01*
X629492Y5842D01*
X629819Y6878D01*
X629816Y6886D01*
X629821Y6889D01*
X629909Y7972D01*
X629907Y7975D01*
X629909Y7976D01*
X629909Y13976D01*
X629906Y13980D01*
X629909Y13982D01*
X629759Y15115D01*
X629753Y15121D01*
X629756Y15126D01*
X629358Y16196D01*
X629351Y16200D01*
X629353Y16206D01*
X628726Y17161D01*
X628718Y17164D01*
X628719Y17169D01*
X627896Y17961D01*
X627888Y17962D01*
X627887Y17968D01*
X626908Y18557D01*
X626900Y18556D01*
X626898Y18561D01*
X625813Y18917D01*
X625805Y18915D01*
X625802Y18919D01*
X624665Y19025D01*
X624656Y19020D01*
X624651Y19024D01*
X623514Y18817D01*
X623508Y18811D01*
X623503Y18814D01*
X622441Y18359D01*
X622437Y18352D01*
X622431Y18354D01*
X621496Y17674D01*
X621494Y17666D01*
X621488Y17667D01*
X620728Y16796D01*
X620728Y16788D01*
X620722Y16787D01*
X620175Y15768D01*
X620176Y15760D01*
X620171Y15758D01*
X620167Y15745D01*
X620154Y15696D01*
X620153Y15696D01*
X620154Y15696D01*
X620140Y15647D01*
X620126Y15597D01*
X620113Y15548D01*
X620099Y15499D01*
X620086Y15450D01*
X620072Y15400D01*
X620059Y15351D01*
X620045Y15302D01*
X620031Y15253D01*
X620018Y15203D01*
X620004Y15154D01*
X619991Y15105D01*
X619977Y15056D01*
X619964Y15006D01*
X619950Y14957D01*
X619937Y14908D01*
X619936Y14908D01*
X619923Y14859D01*
X619909Y14809D01*
X619864Y14644D01*
X619867Y14636D01*
X619862Y14633D01*
X619811Y13478D01*
X619812Y13477D01*
X619811Y13476D01*
X619811Y7476D01*
X619815Y7470D01*
X619812Y7467D01*
X620024Y6386D01*
X620030Y6381D01*
X620027Y6376D01*
X620474Y5370D01*
X620481Y5366D01*
X620479Y5360D01*
X621139Y4479D01*
X621147Y4476D01*
X621147Y4471D01*
X621986Y3758D01*
X621994Y3758D01*
X621995Y3752D01*
X622972Y3244D01*
X622980Y3245D01*
X622982Y3240D01*
X624047Y2962D01*
X624055Y2965D01*
X624058Y2961D01*
X625159Y2927D01*
X625164Y2931D01*
G37*
G36*
X391484Y2931D02*
X391484Y2931D01*
X391487Y2927D01*
X392563Y3082D01*
X392568Y3088D01*
X392573Y3085D01*
X393587Y3475D01*
X393591Y3482D01*
X393597Y3481D01*
X394499Y4087D01*
X394501Y4095D01*
X394507Y4094D01*
X395251Y4886D01*
X395252Y4894D01*
X395258Y4894D01*
X395807Y5832D01*
X395806Y5840D01*
X395812Y5842D01*
X396139Y6878D01*
X396136Y6886D01*
X396141Y6889D01*
X396229Y7972D01*
X396227Y7975D01*
X396229Y7976D01*
X396229Y13976D01*
X396226Y13980D01*
X396229Y13982D01*
X396079Y15115D01*
X396073Y15121D01*
X396076Y15126D01*
X395678Y16196D01*
X395671Y16200D01*
X395673Y16206D01*
X395046Y17161D01*
X395038Y17164D01*
X395039Y17169D01*
X394216Y17961D01*
X394208Y17962D01*
X394207Y17968D01*
X393228Y18557D01*
X393220Y18556D01*
X393218Y18561D01*
X392133Y18917D01*
X392125Y18915D01*
X392122Y18919D01*
X390985Y19025D01*
X390976Y19020D01*
X390971Y19024D01*
X389834Y18817D01*
X389828Y18811D01*
X389823Y18814D01*
X388761Y18359D01*
X388757Y18352D01*
X388751Y18354D01*
X387816Y17674D01*
X387814Y17666D01*
X387808Y17667D01*
X387048Y16796D01*
X387048Y16788D01*
X387042Y16787D01*
X386495Y15768D01*
X386496Y15760D01*
X386491Y15758D01*
X386487Y15745D01*
X386474Y15696D01*
X386473Y15696D01*
X386474Y15696D01*
X386460Y15647D01*
X386446Y15597D01*
X386433Y15548D01*
X386419Y15499D01*
X386406Y15450D01*
X386392Y15400D01*
X386379Y15351D01*
X386365Y15302D01*
X386351Y15253D01*
X386338Y15203D01*
X386324Y15154D01*
X386311Y15105D01*
X386297Y15056D01*
X386284Y15006D01*
X386270Y14957D01*
X386257Y14908D01*
X386256Y14908D01*
X386243Y14859D01*
X386229Y14809D01*
X386184Y14644D01*
X386187Y14636D01*
X386182Y14633D01*
X386131Y13478D01*
X386132Y13477D01*
X386131Y13476D01*
X386131Y7476D01*
X386135Y7470D01*
X386132Y7467D01*
X386344Y6386D01*
X386350Y6381D01*
X386347Y6376D01*
X386794Y5370D01*
X386801Y5366D01*
X386799Y5360D01*
X387459Y4479D01*
X387467Y4476D01*
X387467Y4471D01*
X388306Y3758D01*
X388314Y3758D01*
X388315Y3752D01*
X389292Y3244D01*
X389300Y3245D01*
X389302Y3240D01*
X390367Y2962D01*
X390375Y2965D01*
X390378Y2961D01*
X391479Y2927D01*
X391484Y2931D01*
G37*
G36*
X304982Y630311D02*
X304982Y630311D01*
X304987Y630307D01*
X306074Y630452D01*
X306080Y630458D01*
X306085Y630455D01*
X307113Y630839D01*
X307118Y630845D01*
X307123Y630844D01*
X308040Y631446D01*
X308043Y631454D01*
X308049Y631453D01*
X308809Y632245D01*
X308810Y632253D01*
X308816Y632254D01*
X309380Y633195D01*
X309380Y633198D01*
X309381Y633199D01*
X309380Y633201D01*
X309379Y633203D01*
X309385Y633205D01*
X309726Y634248D01*
X309724Y634256D01*
X309728Y634259D01*
X309829Y635352D01*
X309827Y635354D01*
X309829Y635356D01*
X309829Y641356D01*
X309827Y641359D01*
X309829Y641361D01*
X309728Y642453D01*
X309723Y642459D01*
X309726Y642464D01*
X309385Y643507D01*
X309378Y643512D01*
X309380Y643517D01*
X308816Y644458D01*
X308808Y644461D01*
X308809Y644467D01*
X308049Y645259D01*
X308041Y645260D01*
X308040Y645266D01*
X307123Y645869D01*
X307115Y645868D01*
X307113Y645874D01*
X306085Y646257D01*
X306077Y646255D01*
X306074Y646260D01*
X304987Y646405D01*
X304979Y646401D01*
X304975Y646405D01*
X303838Y646299D01*
X303832Y646294D01*
X303827Y646297D01*
X302742Y645941D01*
X302737Y645934D01*
X302732Y645937D01*
X301753Y645348D01*
X301750Y645340D01*
X301744Y645341D01*
X300921Y644549D01*
X300920Y644541D01*
X300914Y644541D01*
X300287Y643586D01*
X300288Y643578D01*
X300282Y643576D01*
X299884Y642506D01*
X299886Y642498D01*
X299881Y642495D01*
X299731Y641362D01*
X299734Y641358D01*
X299731Y641356D01*
X299731Y635356D01*
X299734Y635352D01*
X299731Y635350D01*
X299881Y634217D01*
X299887Y634211D01*
X299884Y634206D01*
X300282Y633136D01*
X300289Y633132D01*
X300287Y633126D01*
X300914Y632171D01*
X300922Y632168D01*
X300921Y632163D01*
X301744Y631371D01*
X301752Y631370D01*
X301753Y631364D01*
X302732Y630775D01*
X302740Y630776D01*
X302742Y630771D01*
X303827Y630415D01*
X303835Y630418D01*
X303838Y630413D01*
X304975Y630307D01*
X304982Y630311D01*
G37*
G36*
X538662Y630311D02*
X538662Y630311D01*
X538667Y630307D01*
X539754Y630452D01*
X539760Y630458D01*
X539765Y630455D01*
X540793Y630839D01*
X540798Y630845D01*
X540803Y630844D01*
X541720Y631446D01*
X541723Y631454D01*
X541729Y631453D01*
X542489Y632245D01*
X542490Y632253D01*
X542496Y632254D01*
X543060Y633195D01*
X543060Y633198D01*
X543061Y633199D01*
X543060Y633201D01*
X543059Y633203D01*
X543065Y633205D01*
X543406Y634248D01*
X543404Y634256D01*
X543408Y634259D01*
X543509Y635352D01*
X543507Y635354D01*
X543509Y635356D01*
X543509Y641356D01*
X543507Y641359D01*
X543509Y641361D01*
X543408Y642453D01*
X543403Y642459D01*
X543406Y642464D01*
X543065Y643507D01*
X543058Y643512D01*
X543060Y643517D01*
X542496Y644458D01*
X542488Y644461D01*
X542489Y644467D01*
X541729Y645259D01*
X541721Y645260D01*
X541720Y645266D01*
X540803Y645869D01*
X540795Y645868D01*
X540793Y645874D01*
X539765Y646257D01*
X539757Y646255D01*
X539754Y646260D01*
X538667Y646405D01*
X538659Y646401D01*
X538655Y646405D01*
X537518Y646299D01*
X537512Y646294D01*
X537507Y646297D01*
X536422Y645941D01*
X536417Y645934D01*
X536412Y645937D01*
X535433Y645348D01*
X535430Y645340D01*
X535424Y645341D01*
X534601Y644549D01*
X534600Y644541D01*
X534594Y644541D01*
X533967Y643586D01*
X533968Y643578D01*
X533962Y643576D01*
X533564Y642506D01*
X533566Y642498D01*
X533561Y642495D01*
X533411Y641362D01*
X533414Y641358D01*
X533411Y641356D01*
X533411Y635356D01*
X533414Y635352D01*
X533411Y635350D01*
X533561Y634217D01*
X533567Y634211D01*
X533564Y634206D01*
X533962Y633136D01*
X533969Y633132D01*
X533967Y633126D01*
X534594Y632171D01*
X534602Y632168D01*
X534601Y632163D01*
X535424Y631371D01*
X535432Y631370D01*
X535433Y631364D01*
X536412Y630775D01*
X536420Y630776D01*
X536422Y630771D01*
X537507Y630415D01*
X537515Y630418D01*
X537518Y630413D01*
X538655Y630307D01*
X538662Y630311D01*
G37*
G36*
X772342Y630311D02*
X772342Y630311D01*
X772347Y630307D01*
X773434Y630452D01*
X773440Y630458D01*
X773445Y630455D01*
X774473Y630839D01*
X774478Y630845D01*
X774483Y630844D01*
X775400Y631446D01*
X775403Y631454D01*
X775409Y631453D01*
X776169Y632245D01*
X776170Y632253D01*
X776176Y632254D01*
X776740Y633195D01*
X776740Y633198D01*
X776741Y633199D01*
X776740Y633201D01*
X776739Y633203D01*
X776745Y633205D01*
X777086Y634248D01*
X777084Y634256D01*
X777088Y634259D01*
X777189Y635352D01*
X777187Y635354D01*
X777189Y635356D01*
X777189Y641356D01*
X777187Y641359D01*
X777189Y641361D01*
X777088Y642453D01*
X777083Y642459D01*
X777086Y642464D01*
X776745Y643507D01*
X776738Y643512D01*
X776740Y643517D01*
X776176Y644458D01*
X776168Y644461D01*
X776169Y644467D01*
X775409Y645259D01*
X775401Y645260D01*
X775400Y645266D01*
X774483Y645869D01*
X774475Y645868D01*
X774473Y645874D01*
X773445Y646257D01*
X773437Y646255D01*
X773434Y646260D01*
X772347Y646405D01*
X772339Y646401D01*
X772335Y646405D01*
X771198Y646299D01*
X771192Y646294D01*
X771187Y646297D01*
X770102Y645941D01*
X770097Y645934D01*
X770092Y645937D01*
X769113Y645348D01*
X769110Y645340D01*
X769104Y645341D01*
X768281Y644549D01*
X768280Y644541D01*
X768274Y644541D01*
X767647Y643586D01*
X767648Y643578D01*
X767642Y643576D01*
X767244Y642506D01*
X767246Y642498D01*
X767241Y642495D01*
X767091Y641362D01*
X767094Y641358D01*
X767091Y641356D01*
X767091Y635356D01*
X767094Y635352D01*
X767091Y635350D01*
X767241Y634217D01*
X767247Y634211D01*
X767244Y634206D01*
X767642Y633136D01*
X767649Y633132D01*
X767647Y633126D01*
X768274Y632171D01*
X768282Y632168D01*
X768281Y632163D01*
X769104Y631371D01*
X769112Y631370D01*
X769113Y631364D01*
X770092Y630775D01*
X770100Y630776D01*
X770102Y630771D01*
X771187Y630415D01*
X771195Y630418D01*
X771198Y630413D01*
X772335Y630307D01*
X772342Y630311D01*
G37*
G36*
X71302Y630311D02*
X71302Y630311D01*
X71307Y630307D01*
X72394Y630452D01*
X72400Y630458D01*
X72405Y630455D01*
X73433Y630839D01*
X73438Y630845D01*
X73443Y630844D01*
X74360Y631446D01*
X74363Y631454D01*
X74369Y631453D01*
X75129Y632245D01*
X75130Y632253D01*
X75136Y632254D01*
X75700Y633195D01*
X75700Y633198D01*
X75701Y633199D01*
X75700Y633201D01*
X75699Y633203D01*
X75705Y633205D01*
X76046Y634248D01*
X76044Y634256D01*
X76048Y634259D01*
X76149Y635352D01*
X76147Y635354D01*
X76149Y635356D01*
X76149Y641356D01*
X76147Y641359D01*
X76149Y641361D01*
X76048Y642453D01*
X76043Y642459D01*
X76046Y642464D01*
X75705Y643507D01*
X75698Y643512D01*
X75700Y643517D01*
X75136Y644458D01*
X75128Y644461D01*
X75129Y644467D01*
X74369Y645259D01*
X74361Y645260D01*
X74360Y645266D01*
X73443Y645869D01*
X73435Y645868D01*
X73433Y645874D01*
X72405Y646257D01*
X72397Y646255D01*
X72394Y646260D01*
X71307Y646405D01*
X71299Y646401D01*
X71295Y646405D01*
X70158Y646299D01*
X70152Y646294D01*
X70147Y646297D01*
X69062Y645941D01*
X69057Y645934D01*
X69052Y645937D01*
X68073Y645348D01*
X68070Y645340D01*
X68064Y645341D01*
X67241Y644549D01*
X67240Y644541D01*
X67234Y644541D01*
X66607Y643586D01*
X66608Y643578D01*
X66602Y643576D01*
X66204Y642506D01*
X66206Y642498D01*
X66201Y642495D01*
X66051Y641362D01*
X66054Y641358D01*
X66051Y641356D01*
X66051Y635356D01*
X66054Y635352D01*
X66051Y635350D01*
X66201Y634217D01*
X66207Y634211D01*
X66204Y634206D01*
X66602Y633136D01*
X66609Y633132D01*
X66607Y633126D01*
X67234Y632171D01*
X67242Y632168D01*
X67241Y632163D01*
X68064Y631371D01*
X68072Y631370D01*
X68073Y631364D01*
X69052Y630775D01*
X69060Y630776D01*
X69062Y630771D01*
X70147Y630415D01*
X70155Y630418D01*
X70158Y630413D01*
X71295Y630307D01*
X71302Y630311D01*
G37*
G36*
X71302Y2931D02*
X71302Y2931D01*
X71307Y2927D01*
X72394Y3072D01*
X72400Y3078D01*
X72405Y3075D01*
X73433Y3459D01*
X73438Y3465D01*
X73443Y3464D01*
X74360Y4066D01*
X74363Y4074D01*
X74369Y4073D01*
X75129Y4865D01*
X75130Y4873D01*
X75136Y4874D01*
X75700Y5815D01*
X75700Y5818D01*
X75701Y5819D01*
X75700Y5821D01*
X75699Y5823D01*
X75705Y5825D01*
X76046Y6868D01*
X76044Y6876D01*
X76048Y6879D01*
X76149Y7972D01*
X76147Y7974D01*
X76149Y7976D01*
X76149Y13976D01*
X76147Y13979D01*
X76149Y13981D01*
X76048Y15073D01*
X76043Y15079D01*
X76046Y15084D01*
X75705Y16127D01*
X75698Y16132D01*
X75700Y16137D01*
X75136Y17078D01*
X75128Y17081D01*
X75129Y17087D01*
X74369Y17879D01*
X74361Y17880D01*
X74360Y17886D01*
X73443Y18489D01*
X73435Y18488D01*
X73433Y18494D01*
X72405Y18877D01*
X72397Y18875D01*
X72394Y18880D01*
X71307Y19025D01*
X71299Y19021D01*
X71295Y19025D01*
X70158Y18919D01*
X70152Y18914D01*
X70147Y18917D01*
X69062Y18561D01*
X69057Y18554D01*
X69052Y18557D01*
X68073Y17968D01*
X68070Y17960D01*
X68064Y17961D01*
X67241Y17169D01*
X67240Y17161D01*
X67234Y17161D01*
X66607Y16206D01*
X66608Y16198D01*
X66602Y16196D01*
X66204Y15126D01*
X66206Y15118D01*
X66201Y15115D01*
X66051Y13982D01*
X66054Y13978D01*
X66051Y13976D01*
X66051Y7976D01*
X66054Y7972D01*
X66051Y7970D01*
X66201Y6837D01*
X66207Y6831D01*
X66204Y6826D01*
X66602Y5756D01*
X66609Y5752D01*
X66607Y5746D01*
X67234Y4791D01*
X67242Y4788D01*
X67241Y4783D01*
X68064Y3991D01*
X68072Y3990D01*
X68073Y3984D01*
X69052Y3395D01*
X69060Y3396D01*
X69062Y3391D01*
X70147Y3035D01*
X70155Y3038D01*
X70158Y3033D01*
X71295Y2927D01*
X71302Y2931D01*
G37*
G36*
X538662Y1257691D02*
X538662Y1257691D01*
X538667Y1257687D01*
X539754Y1257832D01*
X539760Y1257838D01*
X539765Y1257835D01*
X540793Y1258219D01*
X540798Y1258225D01*
X540803Y1258224D01*
X541720Y1258826D01*
X541723Y1258834D01*
X541729Y1258833D01*
X542489Y1259625D01*
X542490Y1259633D01*
X542496Y1259634D01*
X543060Y1260575D01*
X543060Y1260578D01*
X543061Y1260579D01*
X543060Y1260581D01*
X543059Y1260583D01*
X543065Y1260585D01*
X543406Y1261628D01*
X543404Y1261636D01*
X543408Y1261639D01*
X543509Y1262732D01*
X543507Y1262734D01*
X543509Y1262736D01*
X543509Y1268736D01*
X543507Y1268739D01*
X543509Y1268741D01*
X543408Y1269833D01*
X543403Y1269839D01*
X543406Y1269844D01*
X543065Y1270887D01*
X543058Y1270892D01*
X543060Y1270897D01*
X542496Y1271838D01*
X542488Y1271841D01*
X542489Y1271847D01*
X541729Y1272639D01*
X541721Y1272640D01*
X541720Y1272646D01*
X540803Y1273249D01*
X540795Y1273248D01*
X540793Y1273254D01*
X539765Y1273637D01*
X539757Y1273635D01*
X539754Y1273640D01*
X538667Y1273785D01*
X538659Y1273781D01*
X538655Y1273785D01*
X537518Y1273679D01*
X537512Y1273674D01*
X537507Y1273677D01*
X536422Y1273321D01*
X536417Y1273314D01*
X536412Y1273317D01*
X535433Y1272728D01*
X535430Y1272720D01*
X535424Y1272721D01*
X534601Y1271929D01*
X534600Y1271921D01*
X534594Y1271921D01*
X533967Y1270966D01*
X533968Y1270958D01*
X533962Y1270956D01*
X533564Y1269886D01*
X533566Y1269878D01*
X533561Y1269875D01*
X533411Y1268742D01*
X533414Y1268738D01*
X533411Y1268736D01*
X533411Y1262736D01*
X533414Y1262732D01*
X533411Y1262730D01*
X533561Y1261597D01*
X533567Y1261591D01*
X533564Y1261586D01*
X533962Y1260516D01*
X533969Y1260512D01*
X533967Y1260506D01*
X534594Y1259551D01*
X534602Y1259548D01*
X534601Y1259543D01*
X535424Y1258751D01*
X535432Y1258750D01*
X535433Y1258744D01*
X536412Y1258155D01*
X536420Y1258156D01*
X536422Y1258151D01*
X537507Y1257795D01*
X537515Y1257798D01*
X537518Y1257793D01*
X538655Y1257687D01*
X538662Y1257691D01*
G37*
G36*
X772342Y1257691D02*
X772342Y1257691D01*
X772347Y1257687D01*
X773434Y1257832D01*
X773440Y1257838D01*
X773445Y1257835D01*
X774473Y1258219D01*
X774478Y1258225D01*
X774483Y1258224D01*
X775400Y1258826D01*
X775403Y1258834D01*
X775409Y1258833D01*
X776169Y1259625D01*
X776170Y1259633D01*
X776176Y1259634D01*
X776740Y1260575D01*
X776740Y1260578D01*
X776741Y1260579D01*
X776740Y1260581D01*
X776739Y1260583D01*
X776745Y1260585D01*
X777086Y1261628D01*
X777084Y1261636D01*
X777088Y1261639D01*
X777189Y1262732D01*
X777187Y1262734D01*
X777189Y1262736D01*
X777189Y1268736D01*
X777187Y1268739D01*
X777189Y1268741D01*
X777088Y1269833D01*
X777083Y1269839D01*
X777086Y1269844D01*
X776745Y1270887D01*
X776738Y1270892D01*
X776740Y1270897D01*
X776176Y1271838D01*
X776168Y1271841D01*
X776169Y1271847D01*
X775409Y1272639D01*
X775401Y1272640D01*
X775400Y1272646D01*
X774483Y1273249D01*
X774475Y1273248D01*
X774473Y1273254D01*
X773445Y1273637D01*
X773437Y1273635D01*
X773434Y1273640D01*
X772347Y1273785D01*
X772339Y1273781D01*
X772335Y1273785D01*
X771198Y1273679D01*
X771192Y1273674D01*
X771187Y1273677D01*
X770102Y1273321D01*
X770097Y1273314D01*
X770092Y1273317D01*
X769113Y1272728D01*
X769110Y1272720D01*
X769104Y1272721D01*
X768281Y1271929D01*
X768280Y1271921D01*
X768274Y1271921D01*
X767647Y1270966D01*
X767648Y1270958D01*
X767642Y1270956D01*
X767244Y1269886D01*
X767246Y1269878D01*
X767241Y1269875D01*
X767091Y1268742D01*
X767094Y1268738D01*
X767091Y1268736D01*
X767091Y1262736D01*
X767094Y1262732D01*
X767091Y1262730D01*
X767241Y1261597D01*
X767247Y1261591D01*
X767244Y1261586D01*
X767642Y1260516D01*
X767649Y1260512D01*
X767647Y1260506D01*
X768274Y1259551D01*
X768282Y1259548D01*
X768281Y1259543D01*
X769104Y1258751D01*
X769112Y1258750D01*
X769113Y1258744D01*
X770092Y1258155D01*
X770100Y1258156D01*
X770102Y1258151D01*
X771187Y1257795D01*
X771195Y1257798D01*
X771198Y1257793D01*
X772335Y1257687D01*
X772342Y1257691D01*
G37*
G36*
X304982Y2931D02*
X304982Y2931D01*
X304987Y2927D01*
X306074Y3072D01*
X306080Y3078D01*
X306085Y3075D01*
X307113Y3459D01*
X307118Y3465D01*
X307123Y3464D01*
X308040Y4066D01*
X308043Y4074D01*
X308049Y4073D01*
X308809Y4865D01*
X308810Y4873D01*
X308816Y4874D01*
X309380Y5815D01*
X309380Y5818D01*
X309381Y5819D01*
X309380Y5821D01*
X309379Y5823D01*
X309385Y5825D01*
X309726Y6868D01*
X309724Y6876D01*
X309728Y6879D01*
X309829Y7972D01*
X309827Y7974D01*
X309829Y7976D01*
X309829Y13976D01*
X309827Y13979D01*
X309829Y13981D01*
X309728Y15073D01*
X309723Y15079D01*
X309726Y15084D01*
X309385Y16127D01*
X309378Y16132D01*
X309380Y16137D01*
X308816Y17078D01*
X308808Y17081D01*
X308809Y17087D01*
X308049Y17879D01*
X308041Y17880D01*
X308040Y17886D01*
X307123Y18489D01*
X307115Y18488D01*
X307113Y18494D01*
X306085Y18877D01*
X306077Y18875D01*
X306074Y18880D01*
X304987Y19025D01*
X304979Y19021D01*
X304975Y19025D01*
X303838Y18919D01*
X303832Y18914D01*
X303827Y18917D01*
X302742Y18561D01*
X302737Y18554D01*
X302732Y18557D01*
X301753Y17968D01*
X301750Y17960D01*
X301744Y17961D01*
X300921Y17169D01*
X300920Y17161D01*
X300914Y17161D01*
X300287Y16206D01*
X300288Y16198D01*
X300282Y16196D01*
X299884Y15126D01*
X299886Y15118D01*
X299881Y15115D01*
X299731Y13982D01*
X299734Y13978D01*
X299731Y13976D01*
X299731Y7976D01*
X299734Y7972D01*
X299731Y7970D01*
X299881Y6837D01*
X299887Y6831D01*
X299884Y6826D01*
X300282Y5756D01*
X300289Y5752D01*
X300287Y5746D01*
X300914Y4791D01*
X300922Y4788D01*
X300921Y4783D01*
X301744Y3991D01*
X301752Y3990D01*
X301753Y3984D01*
X302732Y3395D01*
X302740Y3396D01*
X302742Y3391D01*
X303827Y3035D01*
X303835Y3038D01*
X303838Y3033D01*
X304975Y2927D01*
X304982Y2931D01*
G37*
G36*
X71302Y1257691D02*
X71302Y1257691D01*
X71307Y1257687D01*
X72394Y1257832D01*
X72400Y1257838D01*
X72405Y1257835D01*
X73433Y1258219D01*
X73438Y1258225D01*
X73443Y1258224D01*
X74360Y1258826D01*
X74363Y1258834D01*
X74369Y1258833D01*
X75129Y1259625D01*
X75130Y1259633D01*
X75136Y1259634D01*
X75700Y1260575D01*
X75700Y1260578D01*
X75701Y1260579D01*
X75700Y1260581D01*
X75699Y1260583D01*
X75705Y1260585D01*
X76046Y1261628D01*
X76044Y1261636D01*
X76048Y1261639D01*
X76149Y1262732D01*
X76147Y1262734D01*
X76149Y1262736D01*
X76149Y1268736D01*
X76147Y1268739D01*
X76149Y1268741D01*
X76048Y1269833D01*
X76043Y1269839D01*
X76046Y1269844D01*
X75705Y1270887D01*
X75698Y1270892D01*
X75700Y1270897D01*
X75136Y1271838D01*
X75128Y1271841D01*
X75129Y1271847D01*
X74369Y1272639D01*
X74361Y1272640D01*
X74360Y1272646D01*
X73443Y1273249D01*
X73435Y1273248D01*
X73433Y1273254D01*
X72405Y1273637D01*
X72397Y1273635D01*
X72394Y1273640D01*
X71307Y1273785D01*
X71299Y1273781D01*
X71295Y1273785D01*
X70158Y1273679D01*
X70152Y1273674D01*
X70147Y1273677D01*
X69062Y1273321D01*
X69057Y1273314D01*
X69052Y1273317D01*
X68073Y1272728D01*
X68070Y1272720D01*
X68064Y1272721D01*
X67241Y1271929D01*
X67240Y1271921D01*
X67234Y1271921D01*
X66607Y1270966D01*
X66608Y1270958D01*
X66602Y1270956D01*
X66204Y1269886D01*
X66206Y1269878D01*
X66201Y1269875D01*
X66051Y1268742D01*
X66054Y1268738D01*
X66051Y1268736D01*
X66051Y1262736D01*
X66054Y1262732D01*
X66051Y1262730D01*
X66201Y1261597D01*
X66207Y1261591D01*
X66204Y1261586D01*
X66602Y1260516D01*
X66609Y1260512D01*
X66607Y1260506D01*
X67234Y1259551D01*
X67242Y1259548D01*
X67241Y1259543D01*
X68064Y1258751D01*
X68072Y1258750D01*
X68073Y1258744D01*
X69052Y1258155D01*
X69060Y1258156D01*
X69062Y1258151D01*
X70147Y1257795D01*
X70155Y1257798D01*
X70158Y1257793D01*
X71295Y1257687D01*
X71302Y1257691D01*
G37*
G36*
X538662Y2931D02*
X538662Y2931D01*
X538667Y2927D01*
X539754Y3072D01*
X539760Y3078D01*
X539765Y3075D01*
X540793Y3459D01*
X540798Y3465D01*
X540803Y3464D01*
X541720Y4066D01*
X541723Y4074D01*
X541729Y4073D01*
X542489Y4865D01*
X542490Y4873D01*
X542496Y4874D01*
X543060Y5815D01*
X543060Y5818D01*
X543061Y5819D01*
X543060Y5821D01*
X543059Y5823D01*
X543065Y5825D01*
X543406Y6868D01*
X543404Y6876D01*
X543408Y6879D01*
X543509Y7972D01*
X543507Y7974D01*
X543509Y7976D01*
X543509Y13976D01*
X543507Y13979D01*
X543509Y13981D01*
X543408Y15073D01*
X543403Y15079D01*
X543406Y15084D01*
X543065Y16127D01*
X543058Y16132D01*
X543060Y16137D01*
X542496Y17078D01*
X542488Y17081D01*
X542489Y17087D01*
X541729Y17879D01*
X541721Y17880D01*
X541720Y17886D01*
X540803Y18489D01*
X540795Y18488D01*
X540793Y18494D01*
X539765Y18877D01*
X539757Y18875D01*
X539754Y18880D01*
X538667Y19025D01*
X538659Y19021D01*
X538655Y19025D01*
X537518Y18919D01*
X537512Y18914D01*
X537507Y18917D01*
X536422Y18561D01*
X536417Y18554D01*
X536412Y18557D01*
X535433Y17968D01*
X535430Y17960D01*
X535424Y17961D01*
X534601Y17169D01*
X534600Y17161D01*
X534594Y17161D01*
X533967Y16206D01*
X533968Y16198D01*
X533962Y16196D01*
X533564Y15126D01*
X533566Y15118D01*
X533561Y15115D01*
X533411Y13982D01*
X533414Y13978D01*
X533411Y13976D01*
X533411Y7976D01*
X533414Y7972D01*
X533411Y7970D01*
X533561Y6837D01*
X533567Y6831D01*
X533564Y6826D01*
X533962Y5756D01*
X533969Y5752D01*
X533967Y5746D01*
X534594Y4791D01*
X534602Y4788D01*
X534601Y4783D01*
X535424Y3991D01*
X535432Y3990D01*
X535433Y3984D01*
X536412Y3395D01*
X536420Y3396D01*
X536422Y3391D01*
X537507Y3035D01*
X537515Y3038D01*
X537518Y3033D01*
X538655Y2927D01*
X538662Y2931D01*
G37*
G36*
X304982Y1257691D02*
X304982Y1257691D01*
X304987Y1257687D01*
X306074Y1257832D01*
X306080Y1257838D01*
X306085Y1257835D01*
X307113Y1258219D01*
X307118Y1258225D01*
X307123Y1258224D01*
X308040Y1258826D01*
X308043Y1258834D01*
X308049Y1258833D01*
X308809Y1259625D01*
X308810Y1259633D01*
X308816Y1259634D01*
X309380Y1260575D01*
X309380Y1260578D01*
X309381Y1260579D01*
X309380Y1260581D01*
X309379Y1260583D01*
X309385Y1260585D01*
X309726Y1261628D01*
X309724Y1261636D01*
X309728Y1261639D01*
X309829Y1262732D01*
X309827Y1262734D01*
X309829Y1262736D01*
X309829Y1268736D01*
X309827Y1268739D01*
X309829Y1268741D01*
X309728Y1269833D01*
X309723Y1269839D01*
X309726Y1269844D01*
X309385Y1270887D01*
X309378Y1270892D01*
X309380Y1270897D01*
X308816Y1271838D01*
X308808Y1271841D01*
X308809Y1271847D01*
X308049Y1272639D01*
X308041Y1272640D01*
X308040Y1272646D01*
X307123Y1273249D01*
X307115Y1273248D01*
X307113Y1273254D01*
X306085Y1273637D01*
X306077Y1273635D01*
X306074Y1273640D01*
X304987Y1273785D01*
X304979Y1273781D01*
X304975Y1273785D01*
X303838Y1273679D01*
X303832Y1273674D01*
X303827Y1273677D01*
X302742Y1273321D01*
X302737Y1273314D01*
X302732Y1273317D01*
X301753Y1272728D01*
X301750Y1272720D01*
X301744Y1272721D01*
X300921Y1271929D01*
X300920Y1271921D01*
X300914Y1271921D01*
X300287Y1270966D01*
X300288Y1270958D01*
X300282Y1270956D01*
X299884Y1269886D01*
X299886Y1269878D01*
X299881Y1269875D01*
X299731Y1268742D01*
X299734Y1268738D01*
X299731Y1268736D01*
X299731Y1262736D01*
X299734Y1262732D01*
X299731Y1262730D01*
X299881Y1261597D01*
X299887Y1261591D01*
X299884Y1261586D01*
X300282Y1260516D01*
X300289Y1260512D01*
X300287Y1260506D01*
X300914Y1259551D01*
X300922Y1259548D01*
X300921Y1259543D01*
X301744Y1258751D01*
X301752Y1258750D01*
X301753Y1258744D01*
X302732Y1258155D01*
X302740Y1258156D01*
X302742Y1258151D01*
X303827Y1257795D01*
X303835Y1257798D01*
X303838Y1257793D01*
X304975Y1257687D01*
X304982Y1257691D01*
G37*
G36*
X772342Y2931D02*
X772342Y2931D01*
X772347Y2927D01*
X773434Y3072D01*
X773440Y3078D01*
X773445Y3075D01*
X774473Y3459D01*
X774478Y3465D01*
X774483Y3464D01*
X775400Y4066D01*
X775403Y4074D01*
X775409Y4073D01*
X776169Y4865D01*
X776170Y4873D01*
X776176Y4874D01*
X776740Y5815D01*
X776740Y5818D01*
X776741Y5819D01*
X776740Y5821D01*
X776739Y5823D01*
X776745Y5825D01*
X777086Y6868D01*
X777084Y6876D01*
X777088Y6879D01*
X777189Y7972D01*
X777187Y7974D01*
X777189Y7976D01*
X777189Y13976D01*
X777187Y13979D01*
X777189Y13981D01*
X777088Y15073D01*
X777083Y15079D01*
X777086Y15084D01*
X776745Y16127D01*
X776738Y16132D01*
X776740Y16137D01*
X776176Y17078D01*
X776168Y17081D01*
X776169Y17087D01*
X775409Y17879D01*
X775401Y17880D01*
X775400Y17886D01*
X774483Y18489D01*
X774475Y18488D01*
X774473Y18494D01*
X773445Y18877D01*
X773437Y18875D01*
X773434Y18880D01*
X772347Y19025D01*
X772339Y19021D01*
X772335Y19025D01*
X771198Y18919D01*
X771192Y18914D01*
X771187Y18917D01*
X770102Y18561D01*
X770097Y18554D01*
X770092Y18557D01*
X769113Y17968D01*
X769110Y17960D01*
X769104Y17961D01*
X768281Y17169D01*
X768280Y17161D01*
X768274Y17161D01*
X767647Y16206D01*
X767648Y16198D01*
X767642Y16196D01*
X767244Y15126D01*
X767246Y15118D01*
X767241Y15115D01*
X767091Y13982D01*
X767094Y13978D01*
X767091Y13976D01*
X767091Y7976D01*
X767094Y7972D01*
X767091Y7970D01*
X767241Y6837D01*
X767247Y6831D01*
X767244Y6826D01*
X767642Y5756D01*
X767649Y5752D01*
X767647Y5746D01*
X768274Y4791D01*
X768282Y4788D01*
X768281Y4783D01*
X769104Y3991D01*
X769112Y3990D01*
X769113Y3984D01*
X770092Y3395D01*
X770100Y3396D01*
X770102Y3391D01*
X771187Y3035D01*
X771195Y3038D01*
X771198Y3033D01*
X772335Y2927D01*
X772342Y2931D01*
G37*
D10*
X96440Y210058D03*
X86440Y210058D03*
X109300Y254000D03*
X119300Y254000D03*
D11*
X54000Y228299D03*
X63500Y228299D03*
X73000Y228299D03*
X73000Y254301D03*
X54000Y254301D03*
D10*
X71200Y200152D03*
X81200Y200152D03*
X119300Y152146D03*
X109300Y152146D03*
D12*
X131000Y288600D02*
X131000Y295600D01*
X138000Y295600D01*
X138000Y288600D01*
X131000Y288600D01*
X131000Y291450D02*
X138000Y291450D01*
X138000Y294300D02*
X131000Y294300D01*
X113460Y295600D02*
X113460Y288600D01*
X113460Y295600D02*
X120460Y295600D01*
X120460Y288600D01*
X113460Y288600D01*
X113460Y291450D02*
X120460Y291450D01*
X120460Y294300D02*
X113460Y294300D01*
D10*
X86440Y292100D03*
X96440Y292100D03*
D13*
X72000Y266700D03*
X55000Y266700D03*
D14*
X87122Y258690D03*
X87122Y241690D03*
D10*
X195500Y77470D03*
X185500Y77470D03*
X181436Y113792D03*
X191436Y113792D03*
D15*
X181300Y103020D03*
X199700Y96520D03*
X199700Y90020D03*
X199700Y103020D03*
X181300Y96520D03*
X181300Y90020D03*
D16*
X14050Y116900D03*
X14050Y60900D03*
D17*
X50800Y103900D03*
X50800Y93900D03*
X50800Y83900D03*
X50800Y73900D03*
D10*
X182880Y147400D03*
X182880Y157400D03*
X95250Y229282D03*
X95250Y219282D03*
D12*
X131000Y307650D02*
X131000Y314650D01*
X138000Y314650D01*
X138000Y307650D01*
X131000Y307650D01*
X131000Y310500D02*
X138000Y310500D01*
X138000Y313350D02*
X131000Y313350D01*
X113460Y314650D02*
X113460Y307650D01*
X113460Y314650D02*
X120460Y314650D01*
X120460Y307650D01*
X113460Y307650D01*
X113460Y310500D02*
X120460Y310500D01*
X120460Y313350D02*
X113460Y313350D01*
D10*
X83900Y311150D03*
X93900Y311150D03*
X144700Y228600D03*
X134700Y228600D03*
D18*
X144600Y199010D03*
X144600Y215010D03*
X185600Y215010D03*
X185600Y199010D03*
X144600Y243460D03*
X144600Y259460D03*
X185600Y259460D03*
X185600Y243460D03*
D19*
X124300Y181000D03*
X124300Y200000D03*
X103300Y190500D03*
D20*
X121800Y58576D03*
X116800Y58576D03*
D21*
X146550Y58576D03*
X138800Y58576D03*
D20*
X131800Y58576D03*
X126800Y58576D03*
X106800Y58576D03*
X111800Y58576D03*
D21*
X82050Y58576D03*
X89800Y58576D03*
D20*
X96800Y58576D03*
X101800Y58576D03*
D10*
X165100Y26750D03*
X165100Y36750D03*
X63500Y26750D03*
X63500Y36750D03*
D22*
X125800Y165100D03*
X102800Y165100D03*
D23*
X69850Y72076D03*
X82550Y72076D03*
X95250Y72076D03*
X107950Y72076D03*
X120650Y72076D03*
X133350Y72076D03*
X146050Y72076D03*
X158750Y72076D03*
X158750Y128076D03*
X146050Y128076D03*
X133350Y128076D03*
X120650Y128076D03*
X107950Y128076D03*
X95250Y128076D03*
X82550Y128076D03*
X69850Y128076D03*
D10*
X53340Y127174D03*
X53340Y117174D03*
X86694Y272034D03*
X96694Y272034D03*
D12*
X131000Y269550D02*
X131000Y276550D01*
X138000Y276550D01*
X138000Y269550D01*
X131000Y269550D01*
X131000Y272400D02*
X138000Y272400D01*
X138000Y275250D02*
X131000Y275250D01*
X113460Y276550D02*
X113460Y269550D01*
X113460Y276550D02*
X120460Y276550D01*
X120460Y269550D01*
X113460Y269550D01*
X113460Y272400D02*
X120460Y272400D01*
X120460Y275250D02*
X113460Y275250D01*
D24*
X56000Y281913D03*
X61000Y302288D03*
X56000Y302288D03*
X66000Y302288D03*
X71000Y302288D03*
X61000Y281913D03*
X66000Y281913D03*
X71000Y281913D03*
D25*
X66900Y292100D03*
X60100Y292100D03*
D10*
X86106Y229282D03*
X86106Y219282D03*
X165020Y174752D03*
X155020Y174752D03*
X69930Y152654D03*
X79930Y152654D03*
D26*
X211670Y558552D03*
X222670Y558552D03*
X222670Y540252D03*
X211670Y540252D03*
D10*
X210566Y578024D03*
X210566Y568024D03*
D27*
X72560Y167800D03*
X72560Y187800D03*
D28*
X20560Y143800D03*
X20560Y211800D03*
D11*
X104800Y215599D03*
X114300Y215599D03*
X123800Y215599D03*
X123800Y241601D03*
X104800Y241601D03*
D29*
X139399Y163932D03*
X139399Y154432D03*
X139399Y144932D03*
X165401Y144932D03*
X165401Y163932D03*
D30*
X31920Y508800D03*
X31920Y496100D03*
X31920Y483400D03*
X31920Y470700D03*
X31920Y458000D03*
X31920Y445300D03*
X31920Y432600D03*
X31920Y419900D03*
X31920Y407200D03*
X31920Y394500D03*
X31920Y381800D03*
X31920Y369100D03*
X31920Y356400D03*
X31920Y343700D03*
D31*
X57150Y328800D03*
X69850Y328800D03*
X82550Y328800D03*
X95250Y328800D03*
X107950Y328800D03*
X120650Y328800D03*
X133350Y328800D03*
X146050Y328800D03*
X158750Y328800D03*
X171450Y328800D03*
D30*
X196680Y343700D03*
X196680Y356400D03*
X196680Y369100D03*
X196680Y381800D03*
X196680Y394500D03*
X196680Y407200D03*
X196680Y419900D03*
X196680Y432600D03*
X196680Y445300D03*
X196680Y458000D03*
X196680Y470700D03*
X196680Y483400D03*
X196680Y496100D03*
X196680Y508800D03*
D32*
X98990Y435380D03*
X117440Y453590D03*
X99140Y453590D03*
X80840Y453590D03*
X80840Y435290D03*
X117540Y435590D03*
X117440Y416990D03*
X99140Y416890D03*
X80840Y416990D03*
D10*
X330120Y210058D03*
X320120Y210058D03*
X342980Y254000D03*
X352980Y254000D03*
D11*
X287680Y228299D03*
X297180Y228299D03*
X306680Y228299D03*
X306680Y254301D03*
X287680Y254301D03*
D10*
X304880Y200152D03*
X314880Y200152D03*
X352980Y152146D03*
X342980Y152146D03*
D12*
X364680Y288600D02*
X364680Y295600D01*
X371680Y295600D01*
X371680Y288600D01*
X364680Y288600D01*
X364680Y291450D02*
X371680Y291450D01*
X371680Y294300D02*
X364680Y294300D01*
X347140Y295600D02*
X347140Y288600D01*
X347140Y295600D02*
X354140Y295600D01*
X354140Y288600D01*
X347140Y288600D01*
X347140Y291450D02*
X354140Y291450D01*
X354140Y294300D02*
X347140Y294300D01*
D10*
X320120Y292100D03*
X330120Y292100D03*
D13*
X305680Y266700D03*
X288680Y266700D03*
D14*
X320802Y258690D03*
X320802Y241690D03*
D10*
X429180Y77470D03*
X419180Y77470D03*
X415116Y113792D03*
X425116Y113792D03*
D15*
X414980Y103020D03*
X433380Y96520D03*
X433380Y90020D03*
X433380Y103020D03*
X414980Y96520D03*
X414980Y90020D03*
D16*
X247730Y116900D03*
X247730Y60900D03*
D17*
X284480Y103900D03*
X284480Y93900D03*
X284480Y83900D03*
X284480Y73900D03*
D10*
X416560Y147400D03*
X416560Y157400D03*
X328930Y229282D03*
X328930Y219282D03*
D12*
X364680Y307650D02*
X364680Y314650D01*
X371680Y314650D01*
X371680Y307650D01*
X364680Y307650D01*
X364680Y310500D02*
X371680Y310500D01*
X371680Y313350D02*
X364680Y313350D01*
X347140Y314650D02*
X347140Y307650D01*
X347140Y314650D02*
X354140Y314650D01*
X354140Y307650D01*
X347140Y307650D01*
X347140Y310500D02*
X354140Y310500D01*
X354140Y313350D02*
X347140Y313350D01*
D10*
X317580Y311150D03*
X327580Y311150D03*
X378380Y228600D03*
X368380Y228600D03*
D18*
X378280Y199010D03*
X378280Y215010D03*
X419280Y215010D03*
X419280Y199010D03*
X378280Y243460D03*
X378280Y259460D03*
X419280Y259460D03*
X419280Y243460D03*
D19*
X357980Y181000D03*
X357980Y200000D03*
X336980Y190500D03*
D20*
X355480Y58576D03*
X350480Y58576D03*
D21*
X380230Y58576D03*
X372480Y58576D03*
D20*
X365480Y58576D03*
X360480Y58576D03*
X340480Y58576D03*
X345480Y58576D03*
D21*
X315730Y58576D03*
X323480Y58576D03*
D20*
X330480Y58576D03*
X335480Y58576D03*
D10*
X398780Y26750D03*
X398780Y36750D03*
X297180Y26750D03*
X297180Y36750D03*
D22*
X359480Y165100D03*
X336480Y165100D03*
D23*
X303530Y72076D03*
X316230Y72076D03*
X328930Y72076D03*
X341630Y72076D03*
X354330Y72076D03*
X367030Y72076D03*
X379730Y72076D03*
X392430Y72076D03*
X392430Y128076D03*
X379730Y128076D03*
X367030Y128076D03*
X354330Y128076D03*
X341630Y128076D03*
X328930Y128076D03*
X316230Y128076D03*
X303530Y128076D03*
D10*
X287020Y127174D03*
X287020Y117174D03*
X320374Y272034D03*
X330374Y272034D03*
D12*
X364680Y269550D02*
X364680Y276550D01*
X371680Y276550D01*
X371680Y269550D01*
X364680Y269550D01*
X364680Y272400D02*
X371680Y272400D01*
X371680Y275250D02*
X364680Y275250D01*
X347140Y276550D02*
X347140Y269550D01*
X347140Y276550D02*
X354140Y276550D01*
X354140Y269550D01*
X347140Y269550D01*
X347140Y272400D02*
X354140Y272400D01*
X354140Y275250D02*
X347140Y275250D01*
D24*
X289680Y281913D03*
X294680Y302288D03*
X289680Y302288D03*
X299680Y302288D03*
X304680Y302288D03*
X294680Y281913D03*
X299680Y281913D03*
X304680Y281913D03*
D25*
X300580Y292100D03*
X293780Y292100D03*
D10*
X319786Y229282D03*
X319786Y219282D03*
X398700Y174752D03*
X388700Y174752D03*
X303610Y152654D03*
X313610Y152654D03*
D26*
X445350Y558552D03*
X456350Y558552D03*
X456350Y540252D03*
X445350Y540252D03*
D10*
X444246Y578024D03*
X444246Y568024D03*
D27*
X306240Y167800D03*
X306240Y187800D03*
D28*
X254240Y143800D03*
X254240Y211800D03*
D11*
X338480Y215599D03*
X347980Y215599D03*
X357480Y215599D03*
X357480Y241601D03*
X338480Y241601D03*
D29*
X373079Y163932D03*
X373079Y154432D03*
X373079Y144932D03*
X399081Y144932D03*
X399081Y163932D03*
D30*
X265600Y508800D03*
X265600Y496100D03*
X265600Y483400D03*
X265600Y470700D03*
X265600Y458000D03*
X265600Y445300D03*
X265600Y432600D03*
X265600Y419900D03*
X265600Y407200D03*
X265600Y394500D03*
X265600Y381800D03*
X265600Y369100D03*
X265600Y356400D03*
X265600Y343700D03*
D31*
X290830Y328800D03*
X303530Y328800D03*
X316230Y328800D03*
X328930Y328800D03*
X341630Y328800D03*
X354330Y328800D03*
X367030Y328800D03*
X379730Y328800D03*
X392430Y328800D03*
X405130Y328800D03*
D30*
X430360Y343700D03*
X430360Y356400D03*
X430360Y369100D03*
X430360Y381800D03*
X430360Y394500D03*
X430360Y407200D03*
X430360Y419900D03*
X430360Y432600D03*
X430360Y445300D03*
X430360Y458000D03*
X430360Y470700D03*
X430360Y483400D03*
X430360Y496100D03*
X430360Y508800D03*
D32*
X332670Y435380D03*
X351120Y453590D03*
X332820Y453590D03*
X314520Y453590D03*
X314520Y435290D03*
X351220Y435590D03*
X351120Y416990D03*
X332820Y416890D03*
X314520Y416990D03*
D10*
X563800Y210058D03*
X553800Y210058D03*
X576660Y254000D03*
X586660Y254000D03*
D11*
X521360Y228299D03*
X530860Y228299D03*
X540360Y228299D03*
X540360Y254301D03*
X521360Y254301D03*
D10*
X538560Y200152D03*
X548560Y200152D03*
X586660Y152146D03*
X576660Y152146D03*
D12*
X598360Y288600D02*
X598360Y295600D01*
X605360Y295600D01*
X605360Y288600D01*
X598360Y288600D01*
X598360Y291450D02*
X605360Y291450D01*
X605360Y294300D02*
X598360Y294300D01*
X580820Y295600D02*
X580820Y288600D01*
X580820Y295600D02*
X587820Y295600D01*
X587820Y288600D01*
X580820Y288600D01*
X580820Y291450D02*
X587820Y291450D01*
X587820Y294300D02*
X580820Y294300D01*
D10*
X553800Y292100D03*
X563800Y292100D03*
D13*
X539360Y266700D03*
X522360Y266700D03*
D14*
X554482Y258690D03*
X554482Y241690D03*
D10*
X662860Y77470D03*
X652860Y77470D03*
X648796Y113792D03*
X658796Y113792D03*
D15*
X648660Y103020D03*
X667060Y96520D03*
X667060Y90020D03*
X667060Y103020D03*
X648660Y96520D03*
X648660Y90020D03*
D16*
X481410Y116900D03*
X481410Y60900D03*
D17*
X518160Y103900D03*
X518160Y93900D03*
X518160Y83900D03*
X518160Y73900D03*
D10*
X650240Y147400D03*
X650240Y157400D03*
X562610Y229282D03*
X562610Y219282D03*
D12*
X598360Y307650D02*
X598360Y314650D01*
X605360Y314650D01*
X605360Y307650D01*
X598360Y307650D01*
X598360Y310500D02*
X605360Y310500D01*
X605360Y313350D02*
X598360Y313350D01*
X580820Y314650D02*
X580820Y307650D01*
X580820Y314650D02*
X587820Y314650D01*
X587820Y307650D01*
X580820Y307650D01*
X580820Y310500D02*
X587820Y310500D01*
X587820Y313350D02*
X580820Y313350D01*
D10*
X551260Y311150D03*
X561260Y311150D03*
X612060Y228600D03*
X602060Y228600D03*
D18*
X611960Y199010D03*
X611960Y215010D03*
X652960Y215010D03*
X652960Y199010D03*
X611960Y243460D03*
X611960Y259460D03*
X652960Y259460D03*
X652960Y243460D03*
D19*
X591660Y181000D03*
X591660Y200000D03*
X570660Y190500D03*
D20*
X589160Y58576D03*
X584160Y58576D03*
D21*
X613910Y58576D03*
X606160Y58576D03*
D20*
X599160Y58576D03*
X594160Y58576D03*
X574160Y58576D03*
X579160Y58576D03*
D21*
X549410Y58576D03*
X557160Y58576D03*
D20*
X564160Y58576D03*
X569160Y58576D03*
D10*
X632460Y26750D03*
X632460Y36750D03*
X530860Y26750D03*
X530860Y36750D03*
D22*
X593160Y165100D03*
X570160Y165100D03*
D23*
X537210Y72076D03*
X549910Y72076D03*
X562610Y72076D03*
X575310Y72076D03*
X588010Y72076D03*
X600710Y72076D03*
X613410Y72076D03*
X626110Y72076D03*
X626110Y128076D03*
X613410Y128076D03*
X600710Y128076D03*
X588010Y128076D03*
X575310Y128076D03*
X562610Y128076D03*
X549910Y128076D03*
X537210Y128076D03*
D10*
X520700Y127174D03*
X520700Y117174D03*
X554054Y272034D03*
X564054Y272034D03*
D12*
X598360Y269550D02*
X598360Y276550D01*
X605360Y276550D01*
X605360Y269550D01*
X598360Y269550D01*
X598360Y272400D02*
X605360Y272400D01*
X605360Y275250D02*
X598360Y275250D01*
X580820Y276550D02*
X580820Y269550D01*
X580820Y276550D02*
X587820Y276550D01*
X587820Y269550D01*
X580820Y269550D01*
X580820Y272400D02*
X587820Y272400D01*
X587820Y275250D02*
X580820Y275250D01*
D24*
X523360Y281913D03*
X528360Y302288D03*
X523360Y302288D03*
X533360Y302288D03*
X538360Y302288D03*
X528360Y281913D03*
X533360Y281913D03*
X538360Y281913D03*
D25*
X534260Y292100D03*
X527460Y292100D03*
D10*
X553466Y229282D03*
X553466Y219282D03*
X632380Y174752D03*
X622380Y174752D03*
X537290Y152654D03*
X547290Y152654D03*
D26*
X679030Y558552D03*
X690030Y558552D03*
X690030Y540252D03*
X679030Y540252D03*
D10*
X677926Y578024D03*
X677926Y568024D03*
D27*
X539920Y167800D03*
X539920Y187800D03*
D28*
X487920Y143800D03*
X487920Y211800D03*
D11*
X572160Y215599D03*
X581660Y215599D03*
X591160Y215599D03*
X591160Y241601D03*
X572160Y241601D03*
D29*
X606759Y163932D03*
X606759Y154432D03*
X606759Y144932D03*
X632761Y144932D03*
X632761Y163932D03*
D30*
X499280Y508800D03*
X499280Y496100D03*
X499280Y483400D03*
X499280Y470700D03*
X499280Y458000D03*
X499280Y445300D03*
X499280Y432600D03*
X499280Y419900D03*
X499280Y407200D03*
X499280Y394500D03*
X499280Y381800D03*
X499280Y369100D03*
X499280Y356400D03*
X499280Y343700D03*
D31*
X524510Y328800D03*
X537210Y328800D03*
X549910Y328800D03*
X562610Y328800D03*
X575310Y328800D03*
X588010Y328800D03*
X600710Y328800D03*
X613410Y328800D03*
X626110Y328800D03*
X638810Y328800D03*
D30*
X664040Y343700D03*
X664040Y356400D03*
X664040Y369100D03*
X664040Y381800D03*
X664040Y394500D03*
X664040Y407200D03*
X664040Y419900D03*
X664040Y432600D03*
X664040Y445300D03*
X664040Y458000D03*
X664040Y470700D03*
X664040Y483400D03*
X664040Y496100D03*
X664040Y508800D03*
D32*
X566350Y435380D03*
X584800Y453590D03*
X566500Y453590D03*
X548200Y453590D03*
X548200Y435290D03*
X584900Y435590D03*
X584800Y416990D03*
X566500Y416890D03*
X548200Y416990D03*
D10*
X797480Y210058D03*
X787480Y210058D03*
X810340Y254000D03*
X820340Y254000D03*
D11*
X755040Y228299D03*
X764540Y228299D03*
X774040Y228299D03*
X774040Y254301D03*
X755040Y254301D03*
D10*
X772240Y200152D03*
X782240Y200152D03*
X820340Y152146D03*
X810340Y152146D03*
D12*
X832040Y288600D02*
X832040Y295600D01*
X839040Y295600D01*
X839040Y288600D01*
X832040Y288600D01*
X832040Y291450D02*
X839040Y291450D01*
X839040Y294300D02*
X832040Y294300D01*
X814500Y295600D02*
X814500Y288600D01*
X814500Y295600D02*
X821500Y295600D01*
X821500Y288600D01*
X814500Y288600D01*
X814500Y291450D02*
X821500Y291450D01*
X821500Y294300D02*
X814500Y294300D01*
D10*
X787480Y292100D03*
X797480Y292100D03*
D13*
X773040Y266700D03*
X756040Y266700D03*
D14*
X788162Y258690D03*
X788162Y241690D03*
D10*
X896540Y77470D03*
X886540Y77470D03*
X882476Y113792D03*
X892476Y113792D03*
D15*
X882340Y103020D03*
X900740Y96520D03*
X900740Y90020D03*
X900740Y103020D03*
X882340Y96520D03*
X882340Y90020D03*
D16*
X715090Y116900D03*
X715090Y60900D03*
D17*
X751840Y103900D03*
X751840Y93900D03*
X751840Y83900D03*
X751840Y73900D03*
D10*
X883920Y147400D03*
X883920Y157400D03*
X796290Y229282D03*
X796290Y219282D03*
D12*
X832040Y307650D02*
X832040Y314650D01*
X839040Y314650D01*
X839040Y307650D01*
X832040Y307650D01*
X832040Y310500D02*
X839040Y310500D01*
X839040Y313350D02*
X832040Y313350D01*
X814500Y314650D02*
X814500Y307650D01*
X814500Y314650D02*
X821500Y314650D01*
X821500Y307650D01*
X814500Y307650D01*
X814500Y310500D02*
X821500Y310500D01*
X821500Y313350D02*
X814500Y313350D01*
D10*
X784940Y311150D03*
X794940Y311150D03*
X845740Y228600D03*
X835740Y228600D03*
D18*
X845640Y199010D03*
X845640Y215010D03*
X886640Y215010D03*
X886640Y199010D03*
X845640Y243460D03*
X845640Y259460D03*
X886640Y259460D03*
X886640Y243460D03*
D19*
X825340Y181000D03*
X825340Y200000D03*
X804340Y190500D03*
D20*
X822840Y58576D03*
X817840Y58576D03*
D21*
X847590Y58576D03*
X839840Y58576D03*
D20*
X832840Y58576D03*
X827840Y58576D03*
X807840Y58576D03*
X812840Y58576D03*
D21*
X783090Y58576D03*
X790840Y58576D03*
D20*
X797840Y58576D03*
X802840Y58576D03*
D10*
X866140Y26750D03*
X866140Y36750D03*
X764540Y26750D03*
X764540Y36750D03*
D22*
X826840Y165100D03*
X803840Y165100D03*
D23*
X770890Y72076D03*
X783590Y72076D03*
X796290Y72076D03*
X808990Y72076D03*
X821690Y72076D03*
X834390Y72076D03*
X847090Y72076D03*
X859790Y72076D03*
X859790Y128076D03*
X847090Y128076D03*
X834390Y128076D03*
X821690Y128076D03*
X808990Y128076D03*
X796290Y128076D03*
X783590Y128076D03*
X770890Y128076D03*
D10*
X754380Y127174D03*
X754380Y117174D03*
X787734Y272034D03*
X797734Y272034D03*
D12*
X832040Y269550D02*
X832040Y276550D01*
X839040Y276550D01*
X839040Y269550D01*
X832040Y269550D01*
X832040Y272400D02*
X839040Y272400D01*
X839040Y275250D02*
X832040Y275250D01*
X814500Y276550D02*
X814500Y269550D01*
X814500Y276550D02*
X821500Y276550D01*
X821500Y269550D01*
X814500Y269550D01*
X814500Y272400D02*
X821500Y272400D01*
X821500Y275250D02*
X814500Y275250D01*
D24*
X757040Y281913D03*
X762040Y302288D03*
X757040Y302288D03*
X767040Y302288D03*
X772040Y302288D03*
X762040Y281913D03*
X767040Y281913D03*
X772040Y281913D03*
D25*
X767940Y292100D03*
X761140Y292100D03*
D10*
X787146Y229282D03*
X787146Y219282D03*
X866060Y174752D03*
X856060Y174752D03*
X770970Y152654D03*
X780970Y152654D03*
D26*
X912710Y558552D03*
X923710Y558552D03*
X923710Y540252D03*
X912710Y540252D03*
D10*
X911606Y578024D03*
X911606Y568024D03*
D27*
X773600Y167800D03*
X773600Y187800D03*
D28*
X721600Y143800D03*
X721600Y211800D03*
D11*
X805840Y215599D03*
X815340Y215599D03*
X824840Y215599D03*
X824840Y241601D03*
X805840Y241601D03*
D29*
X840439Y163932D03*
X840439Y154432D03*
X840439Y144932D03*
X866441Y144932D03*
X866441Y163932D03*
D30*
X732960Y508800D03*
X732960Y496100D03*
X732960Y483400D03*
X732960Y470700D03*
X732960Y458000D03*
X732960Y445300D03*
X732960Y432600D03*
X732960Y419900D03*
X732960Y407200D03*
X732960Y394500D03*
X732960Y381800D03*
X732960Y369100D03*
X732960Y356400D03*
X732960Y343700D03*
D31*
X758190Y328800D03*
X770890Y328800D03*
X783590Y328800D03*
X796290Y328800D03*
X808990Y328800D03*
X821690Y328800D03*
X834390Y328800D03*
X847090Y328800D03*
X859790Y328800D03*
X872490Y328800D03*
D30*
X897720Y343700D03*
X897720Y356400D03*
X897720Y369100D03*
X897720Y381800D03*
X897720Y394500D03*
X897720Y407200D03*
X897720Y419900D03*
X897720Y432600D03*
X897720Y445300D03*
X897720Y458000D03*
X897720Y470700D03*
X897720Y483400D03*
X897720Y496100D03*
X897720Y508800D03*
D32*
X800030Y435380D03*
X818480Y453590D03*
X800180Y453590D03*
X781880Y453590D03*
X781880Y435290D03*
X818580Y435590D03*
X818480Y416990D03*
X800180Y416890D03*
X781880Y416990D03*
D10*
X96440Y837438D03*
X86440Y837438D03*
X109300Y881380D03*
X119300Y881380D03*
D11*
X54000Y855679D03*
X63500Y855679D03*
X73000Y855679D03*
X73000Y881681D03*
X54000Y881681D03*
D10*
X71200Y827532D03*
X81200Y827532D03*
X119300Y779526D03*
X109300Y779526D03*
D12*
X131000Y915980D02*
X131000Y922980D01*
X138000Y922980D01*
X138000Y915980D01*
X131000Y915980D01*
X131000Y918830D02*
X138000Y918830D01*
X138000Y921680D02*
X131000Y921680D01*
X113460Y922980D02*
X113460Y915980D01*
X113460Y922980D02*
X120460Y922980D01*
X120460Y915980D01*
X113460Y915980D01*
X113460Y918830D02*
X120460Y918830D01*
X120460Y921680D02*
X113460Y921680D01*
D10*
X86440Y919480D03*
X96440Y919480D03*
D13*
X72000Y894080D03*
X55000Y894080D03*
D14*
X87122Y886070D03*
X87122Y869070D03*
D10*
X195500Y704850D03*
X185500Y704850D03*
X181436Y741172D03*
X191436Y741172D03*
D15*
X181300Y730400D03*
X199700Y723900D03*
X199700Y717400D03*
X199700Y730400D03*
X181300Y723900D03*
X181300Y717400D03*
D16*
X14050Y744280D03*
X14050Y688280D03*
D17*
X50800Y731280D03*
X50800Y721280D03*
X50800Y711280D03*
X50800Y701280D03*
D10*
X182880Y774780D03*
X182880Y784780D03*
X95250Y856662D03*
X95250Y846662D03*
D12*
X131000Y935030D02*
X131000Y942030D01*
X138000Y942030D01*
X138000Y935030D01*
X131000Y935030D01*
X131000Y937880D02*
X138000Y937880D01*
X138000Y940730D02*
X131000Y940730D01*
X113460Y942030D02*
X113460Y935030D01*
X113460Y942030D02*
X120460Y942030D01*
X120460Y935030D01*
X113460Y935030D01*
X113460Y937880D02*
X120460Y937880D01*
X120460Y940730D02*
X113460Y940730D01*
D10*
X83900Y938530D03*
X93900Y938530D03*
X144700Y855980D03*
X134700Y855980D03*
D18*
X144600Y826390D03*
X144600Y842390D03*
X185600Y842390D03*
X185600Y826390D03*
X144600Y870840D03*
X144600Y886840D03*
X185600Y886840D03*
X185600Y870840D03*
D19*
X124300Y808380D03*
X124300Y827380D03*
X103300Y817880D03*
D20*
X121800Y685956D03*
X116800Y685956D03*
D21*
X146550Y685956D03*
X138800Y685956D03*
D20*
X131800Y685956D03*
X126800Y685956D03*
X106800Y685956D03*
X111800Y685956D03*
D21*
X82050Y685956D03*
X89800Y685956D03*
D20*
X96800Y685956D03*
X101800Y685956D03*
D10*
X165100Y654130D03*
X165100Y664130D03*
X63500Y654130D03*
X63500Y664130D03*
D22*
X125800Y792480D03*
X102800Y792480D03*
D23*
X69850Y699456D03*
X82550Y699456D03*
X95250Y699456D03*
X107950Y699456D03*
X120650Y699456D03*
X133350Y699456D03*
X146050Y699456D03*
X158750Y699456D03*
X158750Y755456D03*
X146050Y755456D03*
X133350Y755456D03*
X120650Y755456D03*
X107950Y755456D03*
X95250Y755456D03*
X82550Y755456D03*
X69850Y755456D03*
D10*
X53340Y754554D03*
X53340Y744554D03*
X86694Y899414D03*
X96694Y899414D03*
D12*
X131000Y896930D02*
X131000Y903930D01*
X138000Y903930D01*
X138000Y896930D01*
X131000Y896930D01*
X131000Y899780D02*
X138000Y899780D01*
X138000Y902630D02*
X131000Y902630D01*
X113460Y903930D02*
X113460Y896930D01*
X113460Y903930D02*
X120460Y903930D01*
X120460Y896930D01*
X113460Y896930D01*
X113460Y899780D02*
X120460Y899780D01*
X120460Y902630D02*
X113460Y902630D01*
D24*
X56000Y909293D03*
X61000Y929668D03*
X56000Y929668D03*
X66000Y929668D03*
X71000Y929668D03*
X61000Y909293D03*
X66000Y909293D03*
X71000Y909293D03*
D25*
X66900Y919480D03*
X60100Y919480D03*
D10*
X86106Y856662D03*
X86106Y846662D03*
X165020Y802132D03*
X155020Y802132D03*
X69930Y780034D03*
X79930Y780034D03*
D26*
X211670Y1185932D03*
X222670Y1185932D03*
X222670Y1167632D03*
X211670Y1167632D03*
D10*
X210566Y1205404D03*
X210566Y1195404D03*
D27*
X72560Y795180D03*
X72560Y815180D03*
D28*
X20560Y771180D03*
X20560Y839180D03*
D11*
X104800Y842979D03*
X114300Y842979D03*
X123800Y842979D03*
X123800Y868981D03*
X104800Y868981D03*
D29*
X139399Y791312D03*
X139399Y781812D03*
X139399Y772312D03*
X165401Y772312D03*
X165401Y791312D03*
D30*
X31920Y1136180D03*
X31920Y1123480D03*
X31920Y1110780D03*
X31920Y1098080D03*
X31920Y1085380D03*
X31920Y1072680D03*
X31920Y1059980D03*
X31920Y1047280D03*
X31920Y1034580D03*
X31920Y1021880D03*
X31920Y1009180D03*
X31920Y996480D03*
X31920Y983780D03*
X31920Y971080D03*
D31*
X57150Y956180D03*
X69850Y956180D03*
X82550Y956180D03*
X95250Y956180D03*
X107950Y956180D03*
X120650Y956180D03*
X133350Y956180D03*
X146050Y956180D03*
X158750Y956180D03*
X171450Y956180D03*
D30*
X196680Y971080D03*
X196680Y983780D03*
X196680Y996480D03*
X196680Y1009180D03*
X196680Y1021880D03*
X196680Y1034580D03*
X196680Y1047280D03*
X196680Y1059980D03*
X196680Y1072680D03*
X196680Y1085380D03*
X196680Y1098080D03*
X196680Y1110780D03*
X196680Y1123480D03*
X196680Y1136180D03*
D32*
X98990Y1062760D03*
X117440Y1080970D03*
X99140Y1080970D03*
X80840Y1080970D03*
X80840Y1062670D03*
X117540Y1062970D03*
X117440Y1044370D03*
X99140Y1044270D03*
X80840Y1044370D03*
D10*
X330120Y837438D03*
X320120Y837438D03*
X342980Y881380D03*
X352980Y881380D03*
D11*
X287680Y855679D03*
X297180Y855679D03*
X306680Y855679D03*
X306680Y881681D03*
X287680Y881681D03*
D10*
X304880Y827532D03*
X314880Y827532D03*
X352980Y779526D03*
X342980Y779526D03*
D12*
X364680Y915980D02*
X364680Y922980D01*
X371680Y922980D01*
X371680Y915980D01*
X364680Y915980D01*
X364680Y918830D02*
X371680Y918830D01*
X371680Y921680D02*
X364680Y921680D01*
X347140Y922980D02*
X347140Y915980D01*
X347140Y922980D02*
X354140Y922980D01*
X354140Y915980D01*
X347140Y915980D01*
X347140Y918830D02*
X354140Y918830D01*
X354140Y921680D02*
X347140Y921680D01*
D10*
X320120Y919480D03*
X330120Y919480D03*
D13*
X305680Y894080D03*
X288680Y894080D03*
D14*
X320802Y886070D03*
X320802Y869070D03*
D10*
X429180Y704850D03*
X419180Y704850D03*
X415116Y741172D03*
X425116Y741172D03*
D15*
X414980Y730400D03*
X433380Y723900D03*
X433380Y717400D03*
X433380Y730400D03*
X414980Y723900D03*
X414980Y717400D03*
D16*
X247730Y744280D03*
X247730Y688280D03*
D17*
X284480Y731280D03*
X284480Y721280D03*
X284480Y711280D03*
X284480Y701280D03*
D10*
X416560Y774780D03*
X416560Y784780D03*
X328930Y856662D03*
X328930Y846662D03*
D12*
X364680Y935030D02*
X364680Y942030D01*
X371680Y942030D01*
X371680Y935030D01*
X364680Y935030D01*
X364680Y937880D02*
X371680Y937880D01*
X371680Y940730D02*
X364680Y940730D01*
X347140Y942030D02*
X347140Y935030D01*
X347140Y942030D02*
X354140Y942030D01*
X354140Y935030D01*
X347140Y935030D01*
X347140Y937880D02*
X354140Y937880D01*
X354140Y940730D02*
X347140Y940730D01*
D10*
X317580Y938530D03*
X327580Y938530D03*
X378380Y855980D03*
X368380Y855980D03*
D18*
X378280Y826390D03*
X378280Y842390D03*
X419280Y842390D03*
X419280Y826390D03*
X378280Y870840D03*
X378280Y886840D03*
X419280Y886840D03*
X419280Y870840D03*
D19*
X357980Y808380D03*
X357980Y827380D03*
X336980Y817880D03*
D20*
X355480Y685956D03*
X350480Y685956D03*
D21*
X380230Y685956D03*
X372480Y685956D03*
D20*
X365480Y685956D03*
X360480Y685956D03*
X340480Y685956D03*
X345480Y685956D03*
D21*
X315730Y685956D03*
X323480Y685956D03*
D20*
X330480Y685956D03*
X335480Y685956D03*
D10*
X398780Y654130D03*
X398780Y664130D03*
X297180Y654130D03*
X297180Y664130D03*
D22*
X359480Y792480D03*
X336480Y792480D03*
D23*
X303530Y699456D03*
X316230Y699456D03*
X328930Y699456D03*
X341630Y699456D03*
X354330Y699456D03*
X367030Y699456D03*
X379730Y699456D03*
X392430Y699456D03*
X392430Y755456D03*
X379730Y755456D03*
X367030Y755456D03*
X354330Y755456D03*
X341630Y755456D03*
X328930Y755456D03*
X316230Y755456D03*
X303530Y755456D03*
D10*
X287020Y754554D03*
X287020Y744554D03*
X320374Y899414D03*
X330374Y899414D03*
D12*
X364680Y896930D02*
X364680Y903930D01*
X371680Y903930D01*
X371680Y896930D01*
X364680Y896930D01*
X364680Y899780D02*
X371680Y899780D01*
X371680Y902630D02*
X364680Y902630D01*
X347140Y903930D02*
X347140Y896930D01*
X347140Y903930D02*
X354140Y903930D01*
X354140Y896930D01*
X347140Y896930D01*
X347140Y899780D02*
X354140Y899780D01*
X354140Y902630D02*
X347140Y902630D01*
D24*
X289680Y909293D03*
X294680Y929668D03*
X289680Y929668D03*
X299680Y929668D03*
X304680Y929668D03*
X294680Y909293D03*
X299680Y909293D03*
X304680Y909293D03*
D25*
X300580Y919480D03*
X293780Y919480D03*
D10*
X319786Y856662D03*
X319786Y846662D03*
X398700Y802132D03*
X388700Y802132D03*
X303610Y780034D03*
X313610Y780034D03*
D26*
X445350Y1185932D03*
X456350Y1185932D03*
X456350Y1167632D03*
X445350Y1167632D03*
D10*
X444246Y1205404D03*
X444246Y1195404D03*
D27*
X306240Y795180D03*
X306240Y815180D03*
D28*
X254240Y771180D03*
X254240Y839180D03*
D11*
X338480Y842979D03*
X347980Y842979D03*
X357480Y842979D03*
X357480Y868981D03*
X338480Y868981D03*
D29*
X373079Y791312D03*
X373079Y781812D03*
X373079Y772312D03*
X399081Y772312D03*
X399081Y791312D03*
D30*
X265600Y1136180D03*
X265600Y1123480D03*
X265600Y1110780D03*
X265600Y1098080D03*
X265600Y1085380D03*
X265600Y1072680D03*
X265600Y1059980D03*
X265600Y1047280D03*
X265600Y1034580D03*
X265600Y1021880D03*
X265600Y1009180D03*
X265600Y996480D03*
X265600Y983780D03*
X265600Y971080D03*
D31*
X290830Y956180D03*
X303530Y956180D03*
X316230Y956180D03*
X328930Y956180D03*
X341630Y956180D03*
X354330Y956180D03*
X367030Y956180D03*
X379730Y956180D03*
X392430Y956180D03*
X405130Y956180D03*
D30*
X430360Y971080D03*
X430360Y983780D03*
X430360Y996480D03*
X430360Y1009180D03*
X430360Y1021880D03*
X430360Y1034580D03*
X430360Y1047280D03*
X430360Y1059980D03*
X430360Y1072680D03*
X430360Y1085380D03*
X430360Y1098080D03*
X430360Y1110780D03*
X430360Y1123480D03*
X430360Y1136180D03*
D32*
X332670Y1062760D03*
X351120Y1080970D03*
X332820Y1080970D03*
X314520Y1080970D03*
X314520Y1062670D03*
X351220Y1062970D03*
X351120Y1044370D03*
X332820Y1044270D03*
X314520Y1044370D03*
D10*
X563800Y837438D03*
X553800Y837438D03*
X576660Y881380D03*
X586660Y881380D03*
D11*
X521360Y855679D03*
X530860Y855679D03*
X540360Y855679D03*
X540360Y881681D03*
X521360Y881681D03*
D10*
X538560Y827532D03*
X548560Y827532D03*
X586660Y779526D03*
X576660Y779526D03*
D12*
X598360Y915980D02*
X598360Y922980D01*
X605360Y922980D01*
X605360Y915980D01*
X598360Y915980D01*
X598360Y918830D02*
X605360Y918830D01*
X605360Y921680D02*
X598360Y921680D01*
X580820Y922980D02*
X580820Y915980D01*
X580820Y922980D02*
X587820Y922980D01*
X587820Y915980D01*
X580820Y915980D01*
X580820Y918830D02*
X587820Y918830D01*
X587820Y921680D02*
X580820Y921680D01*
D10*
X553800Y919480D03*
X563800Y919480D03*
D13*
X539360Y894080D03*
X522360Y894080D03*
D14*
X554482Y886070D03*
X554482Y869070D03*
D10*
X662860Y704850D03*
X652860Y704850D03*
X648796Y741172D03*
X658796Y741172D03*
D15*
X648660Y730400D03*
X667060Y723900D03*
X667060Y717400D03*
X667060Y730400D03*
X648660Y723900D03*
X648660Y717400D03*
D16*
X481410Y744280D03*
X481410Y688280D03*
D17*
X518160Y731280D03*
X518160Y721280D03*
X518160Y711280D03*
X518160Y701280D03*
D10*
X650240Y774780D03*
X650240Y784780D03*
X562610Y856662D03*
X562610Y846662D03*
D12*
X598360Y935030D02*
X598360Y942030D01*
X605360Y942030D01*
X605360Y935030D01*
X598360Y935030D01*
X598360Y937880D02*
X605360Y937880D01*
X605360Y940730D02*
X598360Y940730D01*
X580820Y942030D02*
X580820Y935030D01*
X580820Y942030D02*
X587820Y942030D01*
X587820Y935030D01*
X580820Y935030D01*
X580820Y937880D02*
X587820Y937880D01*
X587820Y940730D02*
X580820Y940730D01*
D10*
X551260Y938530D03*
X561260Y938530D03*
X612060Y855980D03*
X602060Y855980D03*
D18*
X611960Y826390D03*
X611960Y842390D03*
X652960Y842390D03*
X652960Y826390D03*
X611960Y870840D03*
X611960Y886840D03*
X652960Y886840D03*
X652960Y870840D03*
D19*
X591660Y808380D03*
X591660Y827380D03*
X570660Y817880D03*
D20*
X589160Y685956D03*
X584160Y685956D03*
D21*
X613910Y685956D03*
X606160Y685956D03*
D20*
X599160Y685956D03*
X594160Y685956D03*
X574160Y685956D03*
X579160Y685956D03*
D21*
X549410Y685956D03*
X557160Y685956D03*
D20*
X564160Y685956D03*
X569160Y685956D03*
D10*
X632460Y654130D03*
X632460Y664130D03*
X530860Y654130D03*
X530860Y664130D03*
D22*
X593160Y792480D03*
X570160Y792480D03*
D23*
X537210Y699456D03*
X549910Y699456D03*
X562610Y699456D03*
X575310Y699456D03*
X588010Y699456D03*
X600710Y699456D03*
X613410Y699456D03*
X626110Y699456D03*
X626110Y755456D03*
X613410Y755456D03*
X600710Y755456D03*
X588010Y755456D03*
X575310Y755456D03*
X562610Y755456D03*
X549910Y755456D03*
X537210Y755456D03*
D10*
X520700Y754554D03*
X520700Y744554D03*
X554054Y899414D03*
X564054Y899414D03*
D12*
X598360Y896930D02*
X598360Y903930D01*
X605360Y903930D01*
X605360Y896930D01*
X598360Y896930D01*
X598360Y899780D02*
X605360Y899780D01*
X605360Y902630D02*
X598360Y902630D01*
X580820Y903930D02*
X580820Y896930D01*
X580820Y903930D02*
X587820Y903930D01*
X587820Y896930D01*
X580820Y896930D01*
X580820Y899780D02*
X587820Y899780D01*
X587820Y902630D02*
X580820Y902630D01*
D24*
X523360Y909293D03*
X528360Y929668D03*
X523360Y929668D03*
X533360Y929668D03*
X538360Y929668D03*
X528360Y909293D03*
X533360Y909293D03*
X538360Y909293D03*
D25*
X534260Y919480D03*
X527460Y919480D03*
D10*
X553466Y856662D03*
X553466Y846662D03*
X632380Y802132D03*
X622380Y802132D03*
X537290Y780034D03*
X547290Y780034D03*
D26*
X679030Y1185932D03*
X690030Y1185932D03*
X690030Y1167632D03*
X679030Y1167632D03*
D10*
X677926Y1205404D03*
X677926Y1195404D03*
D27*
X539920Y795180D03*
X539920Y815180D03*
D28*
X487920Y771180D03*
X487920Y839180D03*
D11*
X572160Y842979D03*
X581660Y842979D03*
X591160Y842979D03*
X591160Y868981D03*
X572160Y868981D03*
D29*
X606759Y791312D03*
X606759Y781812D03*
X606759Y772312D03*
X632761Y772312D03*
X632761Y791312D03*
D30*
X499280Y1136180D03*
X499280Y1123480D03*
X499280Y1110780D03*
X499280Y1098080D03*
X499280Y1085380D03*
X499280Y1072680D03*
X499280Y1059980D03*
X499280Y1047280D03*
X499280Y1034580D03*
X499280Y1021880D03*
X499280Y1009180D03*
X499280Y996480D03*
X499280Y983780D03*
X499280Y971080D03*
D31*
X524510Y956180D03*
X537210Y956180D03*
X549910Y956180D03*
X562610Y956180D03*
X575310Y956180D03*
X588010Y956180D03*
X600710Y956180D03*
X613410Y956180D03*
X626110Y956180D03*
X638810Y956180D03*
D30*
X664040Y971080D03*
X664040Y983780D03*
X664040Y996480D03*
X664040Y1009180D03*
X664040Y1021880D03*
X664040Y1034580D03*
X664040Y1047280D03*
X664040Y1059980D03*
X664040Y1072680D03*
X664040Y1085380D03*
X664040Y1098080D03*
X664040Y1110780D03*
X664040Y1123480D03*
X664040Y1136180D03*
D32*
X566350Y1062760D03*
X584800Y1080970D03*
X566500Y1080970D03*
X548200Y1080970D03*
X548200Y1062670D03*
X584900Y1062970D03*
X584800Y1044370D03*
X566500Y1044270D03*
X548200Y1044370D03*
D10*
X797480Y837438D03*
X787480Y837438D03*
X810340Y881380D03*
X820340Y881380D03*
D11*
X755040Y855679D03*
X764540Y855679D03*
X774040Y855679D03*
X774040Y881681D03*
X755040Y881681D03*
D10*
X772240Y827532D03*
X782240Y827532D03*
X820340Y779526D03*
X810340Y779526D03*
D12*
X832040Y915980D02*
X832040Y922980D01*
X839040Y922980D01*
X839040Y915980D01*
X832040Y915980D01*
X832040Y918830D02*
X839040Y918830D01*
X839040Y921680D02*
X832040Y921680D01*
X814500Y922980D02*
X814500Y915980D01*
X814500Y922980D02*
X821500Y922980D01*
X821500Y915980D01*
X814500Y915980D01*
X814500Y918830D02*
X821500Y918830D01*
X821500Y921680D02*
X814500Y921680D01*
D10*
X787480Y919480D03*
X797480Y919480D03*
D13*
X773040Y894080D03*
X756040Y894080D03*
D14*
X788162Y886070D03*
X788162Y869070D03*
D10*
X896540Y704850D03*
X886540Y704850D03*
X882476Y741172D03*
X892476Y741172D03*
D15*
X882340Y730400D03*
X900740Y723900D03*
X900740Y717400D03*
X900740Y730400D03*
X882340Y723900D03*
X882340Y717400D03*
D16*
X715090Y744280D03*
X715090Y688280D03*
D17*
X751840Y731280D03*
X751840Y721280D03*
X751840Y711280D03*
X751840Y701280D03*
D10*
X883920Y774780D03*
X883920Y784780D03*
X796290Y856662D03*
X796290Y846662D03*
D12*
X832040Y935030D02*
X832040Y942030D01*
X839040Y942030D01*
X839040Y935030D01*
X832040Y935030D01*
X832040Y937880D02*
X839040Y937880D01*
X839040Y940730D02*
X832040Y940730D01*
X814500Y942030D02*
X814500Y935030D01*
X814500Y942030D02*
X821500Y942030D01*
X821500Y935030D01*
X814500Y935030D01*
X814500Y937880D02*
X821500Y937880D01*
X821500Y940730D02*
X814500Y940730D01*
D10*
X784940Y938530D03*
X794940Y938530D03*
X845740Y855980D03*
X835740Y855980D03*
D18*
X845640Y826390D03*
X845640Y842390D03*
X886640Y842390D03*
X886640Y826390D03*
X845640Y870840D03*
X845640Y886840D03*
X886640Y886840D03*
X886640Y870840D03*
D19*
X825340Y808380D03*
X825340Y827380D03*
X804340Y817880D03*
D20*
X822840Y685956D03*
X817840Y685956D03*
D21*
X847590Y685956D03*
X839840Y685956D03*
D20*
X832840Y685956D03*
X827840Y685956D03*
X807840Y685956D03*
X812840Y685956D03*
D21*
X783090Y685956D03*
X790840Y685956D03*
D20*
X797840Y685956D03*
X802840Y685956D03*
D10*
X866140Y654130D03*
X866140Y664130D03*
X764540Y654130D03*
X764540Y664130D03*
D22*
X826840Y792480D03*
X803840Y792480D03*
D23*
X770890Y699456D03*
X783590Y699456D03*
X796290Y699456D03*
X808990Y699456D03*
X821690Y699456D03*
X834390Y699456D03*
X847090Y699456D03*
X859790Y699456D03*
X859790Y755456D03*
X847090Y755456D03*
X834390Y755456D03*
X821690Y755456D03*
X808990Y755456D03*
X796290Y755456D03*
X783590Y755456D03*
X770890Y755456D03*
D10*
X754380Y754554D03*
X754380Y744554D03*
X787734Y899414D03*
X797734Y899414D03*
D12*
X832040Y896930D02*
X832040Y903930D01*
X839040Y903930D01*
X839040Y896930D01*
X832040Y896930D01*
X832040Y899780D02*
X839040Y899780D01*
X839040Y902630D02*
X832040Y902630D01*
X814500Y903930D02*
X814500Y896930D01*
X814500Y903930D02*
X821500Y903930D01*
X821500Y896930D01*
X814500Y896930D01*
X814500Y899780D02*
X821500Y899780D01*
X821500Y902630D02*
X814500Y902630D01*
D24*
X757040Y909293D03*
X762040Y929668D03*
X757040Y929668D03*
X767040Y929668D03*
X772040Y929668D03*
X762040Y909293D03*
X767040Y909293D03*
X772040Y909293D03*
D25*
X767940Y919480D03*
X761140Y919480D03*
D10*
X787146Y856662D03*
X787146Y846662D03*
X866060Y802132D03*
X856060Y802132D03*
X770970Y780034D03*
X780970Y780034D03*
D26*
X912710Y1185932D03*
X923710Y1185932D03*
X923710Y1167632D03*
X912710Y1167632D03*
D10*
X911606Y1205404D03*
X911606Y1195404D03*
D27*
X773600Y795180D03*
X773600Y815180D03*
D28*
X721600Y771180D03*
X721600Y839180D03*
D11*
X805840Y842979D03*
X815340Y842979D03*
X824840Y842979D03*
X824840Y868981D03*
X805840Y868981D03*
D29*
X840439Y791312D03*
X840439Y781812D03*
X840439Y772312D03*
X866441Y772312D03*
X866441Y791312D03*
D30*
X732960Y1136180D03*
X732960Y1123480D03*
X732960Y1110780D03*
X732960Y1098080D03*
X732960Y1085380D03*
X732960Y1072680D03*
X732960Y1059980D03*
X732960Y1047280D03*
X732960Y1034580D03*
X732960Y1021880D03*
X732960Y1009180D03*
X732960Y996480D03*
X732960Y983780D03*
X732960Y971080D03*
D31*
X758190Y956180D03*
X770890Y956180D03*
X783590Y956180D03*
X796290Y956180D03*
X808990Y956180D03*
X821690Y956180D03*
X834390Y956180D03*
X847090Y956180D03*
X859790Y956180D03*
X872490Y956180D03*
D30*
X897720Y971080D03*
X897720Y983780D03*
X897720Y996480D03*
X897720Y1009180D03*
X897720Y1021880D03*
X897720Y1034580D03*
X897720Y1047280D03*
X897720Y1059980D03*
X897720Y1072680D03*
X897720Y1085380D03*
X897720Y1098080D03*
X897720Y1110780D03*
X897720Y1123480D03*
X897720Y1136180D03*
D32*
X800030Y1062760D03*
X818480Y1080970D03*
X800180Y1080970D03*
X781880Y1080970D03*
X781880Y1062670D03*
X818580Y1062970D03*
X818480Y1044370D03*
X800180Y1044270D03*
X781880Y1044370D03*
D10*
X96440Y1464818D03*
X86440Y1464818D03*
X109300Y1508760D03*
X119300Y1508760D03*
D11*
X54000Y1483059D03*
X63500Y1483059D03*
X73000Y1483059D03*
X73000Y1509061D03*
X54000Y1509061D03*
D10*
X71200Y1454912D03*
X81200Y1454912D03*
X119300Y1406906D03*
X109300Y1406906D03*
D12*
X131000Y1543360D02*
X131000Y1550360D01*
X138000Y1550360D01*
X138000Y1543360D01*
X131000Y1543360D01*
X131000Y1546210D02*
X138000Y1546210D01*
X138000Y1549060D02*
X131000Y1549060D01*
X113460Y1550360D02*
X113460Y1543360D01*
X113460Y1550360D02*
X120460Y1550360D01*
X120460Y1543360D01*
X113460Y1543360D01*
X113460Y1546210D02*
X120460Y1546210D01*
X120460Y1549060D02*
X113460Y1549060D01*
D10*
X86440Y1546860D03*
X96440Y1546860D03*
D13*
X72000Y1521460D03*
X55000Y1521460D03*
D14*
X87122Y1513450D03*
X87122Y1496450D03*
D10*
X195500Y1332230D03*
X185500Y1332230D03*
X181436Y1368552D03*
X191436Y1368552D03*
D15*
X181300Y1357780D03*
X199700Y1351280D03*
X199700Y1344780D03*
X199700Y1357780D03*
X181300Y1351280D03*
X181300Y1344780D03*
D16*
X14050Y1371660D03*
X14050Y1315660D03*
D17*
X50800Y1358660D03*
X50800Y1348660D03*
X50800Y1338660D03*
X50800Y1328660D03*
D10*
X182880Y1402160D03*
X182880Y1412160D03*
X95250Y1484042D03*
X95250Y1474042D03*
D12*
X131000Y1562410D02*
X131000Y1569410D01*
X138000Y1569410D01*
X138000Y1562410D01*
X131000Y1562410D01*
X131000Y1565260D02*
X138000Y1565260D01*
X138000Y1568110D02*
X131000Y1568110D01*
X113460Y1569410D02*
X113460Y1562410D01*
X113460Y1569410D02*
X120460Y1569410D01*
X120460Y1562410D01*
X113460Y1562410D01*
X113460Y1565260D02*
X120460Y1565260D01*
X120460Y1568110D02*
X113460Y1568110D01*
D10*
X83900Y1565910D03*
X93900Y1565910D03*
X144700Y1483360D03*
X134700Y1483360D03*
D18*
X144600Y1453770D03*
X144600Y1469770D03*
X185600Y1469770D03*
X185600Y1453770D03*
X144600Y1498220D03*
X144600Y1514220D03*
X185600Y1514220D03*
X185600Y1498220D03*
D19*
X124300Y1435760D03*
X124300Y1454760D03*
X103300Y1445260D03*
D20*
X121800Y1313336D03*
X116800Y1313336D03*
D21*
X146550Y1313336D03*
X138800Y1313336D03*
D20*
X131800Y1313336D03*
X126800Y1313336D03*
X106800Y1313336D03*
X111800Y1313336D03*
D21*
X82050Y1313336D03*
X89800Y1313336D03*
D20*
X96800Y1313336D03*
X101800Y1313336D03*
D10*
X165100Y1281510D03*
X165100Y1291510D03*
X63500Y1281510D03*
X63500Y1291510D03*
D22*
X125800Y1419860D03*
X102800Y1419860D03*
D23*
X69850Y1326836D03*
X82550Y1326836D03*
X95250Y1326836D03*
X107950Y1326836D03*
X120650Y1326836D03*
X133350Y1326836D03*
X146050Y1326836D03*
X158750Y1326836D03*
X158750Y1382836D03*
X146050Y1382836D03*
X133350Y1382836D03*
X120650Y1382836D03*
X107950Y1382836D03*
X95250Y1382836D03*
X82550Y1382836D03*
X69850Y1382836D03*
D10*
X53340Y1381934D03*
X53340Y1371934D03*
X86694Y1526794D03*
X96694Y1526794D03*
D12*
X131000Y1524310D02*
X131000Y1531310D01*
X138000Y1531310D01*
X138000Y1524310D01*
X131000Y1524310D01*
X131000Y1527160D02*
X138000Y1527160D01*
X138000Y1530010D02*
X131000Y1530010D01*
X113460Y1531310D02*
X113460Y1524310D01*
X113460Y1531310D02*
X120460Y1531310D01*
X120460Y1524310D01*
X113460Y1524310D01*
X113460Y1527160D02*
X120460Y1527160D01*
X120460Y1530010D02*
X113460Y1530010D01*
D24*
X56000Y1536673D03*
X61000Y1557048D03*
X56000Y1557048D03*
X66000Y1557048D03*
X71000Y1557048D03*
X61000Y1536673D03*
X66000Y1536673D03*
X71000Y1536673D03*
D25*
X66900Y1546860D03*
X60100Y1546860D03*
D10*
X86106Y1484042D03*
X86106Y1474042D03*
X165020Y1429512D03*
X155020Y1429512D03*
X69930Y1407414D03*
X79930Y1407414D03*
D26*
X211670Y1813312D03*
X222670Y1813312D03*
X222670Y1795012D03*
X211670Y1795012D03*
D10*
X210566Y1832784D03*
X210566Y1822784D03*
D27*
X72560Y1422560D03*
X72560Y1442560D03*
D28*
X20560Y1398560D03*
X20560Y1466560D03*
D11*
X104800Y1470359D03*
X114300Y1470359D03*
X123800Y1470359D03*
X123800Y1496361D03*
X104800Y1496361D03*
D29*
X139399Y1418692D03*
X139399Y1409192D03*
X139399Y1399692D03*
X165401Y1399692D03*
X165401Y1418692D03*
D30*
X31920Y1763560D03*
X31920Y1750860D03*
X31920Y1738160D03*
X31920Y1725460D03*
X31920Y1712760D03*
X31920Y1700060D03*
X31920Y1687360D03*
X31920Y1674660D03*
X31920Y1661960D03*
X31920Y1649260D03*
X31920Y1636560D03*
X31920Y1623860D03*
X31920Y1611160D03*
X31920Y1598460D03*
D31*
X57150Y1583560D03*
X69850Y1583560D03*
X82550Y1583560D03*
X95250Y1583560D03*
X107950Y1583560D03*
X120650Y1583560D03*
X133350Y1583560D03*
X146050Y1583560D03*
X158750Y1583560D03*
X171450Y1583560D03*
D30*
X196680Y1598460D03*
X196680Y1611160D03*
X196680Y1623860D03*
X196680Y1636560D03*
X196680Y1649260D03*
X196680Y1661960D03*
X196680Y1674660D03*
X196680Y1687360D03*
X196680Y1700060D03*
X196680Y1712760D03*
X196680Y1725460D03*
X196680Y1738160D03*
X196680Y1750860D03*
X196680Y1763560D03*
D32*
X98990Y1690140D03*
X117440Y1708350D03*
X99140Y1708350D03*
X80840Y1708350D03*
X80840Y1690050D03*
X117540Y1690350D03*
X117440Y1671750D03*
X99140Y1671650D03*
X80840Y1671750D03*
D10*
X330120Y1464818D03*
X320120Y1464818D03*
X342980Y1508760D03*
X352980Y1508760D03*
D11*
X287680Y1483059D03*
X297180Y1483059D03*
X306680Y1483059D03*
X306680Y1509061D03*
X287680Y1509061D03*
D10*
X304880Y1454912D03*
X314880Y1454912D03*
X352980Y1406906D03*
X342980Y1406906D03*
D12*
X364680Y1543360D02*
X364680Y1550360D01*
X371680Y1550360D01*
X371680Y1543360D01*
X364680Y1543360D01*
X364680Y1546210D02*
X371680Y1546210D01*
X371680Y1549060D02*
X364680Y1549060D01*
X347140Y1550360D02*
X347140Y1543360D01*
X347140Y1550360D02*
X354140Y1550360D01*
X354140Y1543360D01*
X347140Y1543360D01*
X347140Y1546210D02*
X354140Y1546210D01*
X354140Y1549060D02*
X347140Y1549060D01*
D10*
X320120Y1546860D03*
X330120Y1546860D03*
D13*
X305680Y1521460D03*
X288680Y1521460D03*
D14*
X320802Y1513450D03*
X320802Y1496450D03*
D10*
X429180Y1332230D03*
X419180Y1332230D03*
X415116Y1368552D03*
X425116Y1368552D03*
D15*
X414980Y1357780D03*
X433380Y1351280D03*
X433380Y1344780D03*
X433380Y1357780D03*
X414980Y1351280D03*
X414980Y1344780D03*
D16*
X247730Y1371660D03*
X247730Y1315660D03*
D17*
X284480Y1358660D03*
X284480Y1348660D03*
X284480Y1338660D03*
X284480Y1328660D03*
D10*
X416560Y1402160D03*
X416560Y1412160D03*
X328930Y1484042D03*
X328930Y1474042D03*
D12*
X364680Y1562410D02*
X364680Y1569410D01*
X371680Y1569410D01*
X371680Y1562410D01*
X364680Y1562410D01*
X364680Y1565260D02*
X371680Y1565260D01*
X371680Y1568110D02*
X364680Y1568110D01*
X347140Y1569410D02*
X347140Y1562410D01*
X347140Y1569410D02*
X354140Y1569410D01*
X354140Y1562410D01*
X347140Y1562410D01*
X347140Y1565260D02*
X354140Y1565260D01*
X354140Y1568110D02*
X347140Y1568110D01*
D10*
X317580Y1565910D03*
X327580Y1565910D03*
X378380Y1483360D03*
X368380Y1483360D03*
D18*
X378280Y1453770D03*
X378280Y1469770D03*
X419280Y1469770D03*
X419280Y1453770D03*
X378280Y1498220D03*
X378280Y1514220D03*
X419280Y1514220D03*
X419280Y1498220D03*
D19*
X357980Y1435760D03*
X357980Y1454760D03*
X336980Y1445260D03*
D20*
X355480Y1313336D03*
X350480Y1313336D03*
D21*
X380230Y1313336D03*
X372480Y1313336D03*
D20*
X365480Y1313336D03*
X360480Y1313336D03*
X340480Y1313336D03*
X345480Y1313336D03*
D21*
X315730Y1313336D03*
X323480Y1313336D03*
D20*
X330480Y1313336D03*
X335480Y1313336D03*
D10*
X398780Y1281510D03*
X398780Y1291510D03*
X297180Y1281510D03*
X297180Y1291510D03*
D22*
X359480Y1419860D03*
X336480Y1419860D03*
D23*
X303530Y1326836D03*
X316230Y1326836D03*
X328930Y1326836D03*
X341630Y1326836D03*
X354330Y1326836D03*
X367030Y1326836D03*
X379730Y1326836D03*
X392430Y1326836D03*
X392430Y1382836D03*
X379730Y1382836D03*
X367030Y1382836D03*
X354330Y1382836D03*
X341630Y1382836D03*
X328930Y1382836D03*
X316230Y1382836D03*
X303530Y1382836D03*
D10*
X287020Y1381934D03*
X287020Y1371934D03*
X320374Y1526794D03*
X330374Y1526794D03*
D12*
X364680Y1524310D02*
X364680Y1531310D01*
X371680Y1531310D01*
X371680Y1524310D01*
X364680Y1524310D01*
X364680Y1527160D02*
X371680Y1527160D01*
X371680Y1530010D02*
X364680Y1530010D01*
X347140Y1531310D02*
X347140Y1524310D01*
X347140Y1531310D02*
X354140Y1531310D01*
X354140Y1524310D01*
X347140Y1524310D01*
X347140Y1527160D02*
X354140Y1527160D01*
X354140Y1530010D02*
X347140Y1530010D01*
D24*
X289680Y1536673D03*
X294680Y1557048D03*
X289680Y1557048D03*
X299680Y1557048D03*
X304680Y1557048D03*
X294680Y1536673D03*
X299680Y1536673D03*
X304680Y1536673D03*
D25*
X300580Y1546860D03*
X293780Y1546860D03*
D10*
X319786Y1484042D03*
X319786Y1474042D03*
X398700Y1429512D03*
X388700Y1429512D03*
X303610Y1407414D03*
X313610Y1407414D03*
D26*
X445350Y1813312D03*
X456350Y1813312D03*
X456350Y1795012D03*
X445350Y1795012D03*
D10*
X444246Y1832784D03*
X444246Y1822784D03*
D27*
X306240Y1422560D03*
X306240Y1442560D03*
D28*
X254240Y1398560D03*
X254240Y1466560D03*
D11*
X338480Y1470359D03*
X347980Y1470359D03*
X357480Y1470359D03*
X357480Y1496361D03*
X338480Y1496361D03*
D29*
X373079Y1418692D03*
X373079Y1409192D03*
X373079Y1399692D03*
X399081Y1399692D03*
X399081Y1418692D03*
D30*
X265600Y1763560D03*
X265600Y1750860D03*
X265600Y1738160D03*
X265600Y1725460D03*
X265600Y1712760D03*
X265600Y1700060D03*
X265600Y1687360D03*
X265600Y1674660D03*
X265600Y1661960D03*
X265600Y1649260D03*
X265600Y1636560D03*
X265600Y1623860D03*
X265600Y1611160D03*
X265600Y1598460D03*
D31*
X290830Y1583560D03*
X303530Y1583560D03*
X316230Y1583560D03*
X328930Y1583560D03*
X341630Y1583560D03*
X354330Y1583560D03*
X367030Y1583560D03*
X379730Y1583560D03*
X392430Y1583560D03*
X405130Y1583560D03*
D30*
X430360Y1598460D03*
X430360Y1611160D03*
X430360Y1623860D03*
X430360Y1636560D03*
X430360Y1649260D03*
X430360Y1661960D03*
X430360Y1674660D03*
X430360Y1687360D03*
X430360Y1700060D03*
X430360Y1712760D03*
X430360Y1725460D03*
X430360Y1738160D03*
X430360Y1750860D03*
X430360Y1763560D03*
D32*
X332670Y1690140D03*
X351120Y1708350D03*
X332820Y1708350D03*
X314520Y1708350D03*
X314520Y1690050D03*
X351220Y1690350D03*
X351120Y1671750D03*
X332820Y1671650D03*
X314520Y1671750D03*
D10*
X563800Y1464818D03*
X553800Y1464818D03*
X576660Y1508760D03*
X586660Y1508760D03*
D11*
X521360Y1483059D03*
X530860Y1483059D03*
X540360Y1483059D03*
X540360Y1509061D03*
X521360Y1509061D03*
D10*
X538560Y1454912D03*
X548560Y1454912D03*
X586660Y1406906D03*
X576660Y1406906D03*
D12*
X598360Y1543360D02*
X598360Y1550360D01*
X605360Y1550360D01*
X605360Y1543360D01*
X598360Y1543360D01*
X598360Y1546210D02*
X605360Y1546210D01*
X605360Y1549060D02*
X598360Y1549060D01*
X580820Y1550360D02*
X580820Y1543360D01*
X580820Y1550360D02*
X587820Y1550360D01*
X587820Y1543360D01*
X580820Y1543360D01*
X580820Y1546210D02*
X587820Y1546210D01*
X587820Y1549060D02*
X580820Y1549060D01*
D10*
X553800Y1546860D03*
X563800Y1546860D03*
D13*
X539360Y1521460D03*
X522360Y1521460D03*
D14*
X554482Y1513450D03*
X554482Y1496450D03*
D10*
X662860Y1332230D03*
X652860Y1332230D03*
X648796Y1368552D03*
X658796Y1368552D03*
D15*
X648660Y1357780D03*
X667060Y1351280D03*
X667060Y1344780D03*
X667060Y1357780D03*
X648660Y1351280D03*
X648660Y1344780D03*
D16*
X481410Y1371660D03*
X481410Y1315660D03*
D17*
X518160Y1358660D03*
X518160Y1348660D03*
X518160Y1338660D03*
X518160Y1328660D03*
D10*
X650240Y1402160D03*
X650240Y1412160D03*
X562610Y1484042D03*
X562610Y1474042D03*
D12*
X598360Y1562410D02*
X598360Y1569410D01*
X605360Y1569410D01*
X605360Y1562410D01*
X598360Y1562410D01*
X598360Y1565260D02*
X605360Y1565260D01*
X605360Y1568110D02*
X598360Y1568110D01*
X580820Y1569410D02*
X580820Y1562410D01*
X580820Y1569410D02*
X587820Y1569410D01*
X587820Y1562410D01*
X580820Y1562410D01*
X580820Y1565260D02*
X587820Y1565260D01*
X587820Y1568110D02*
X580820Y1568110D01*
D10*
X551260Y1565910D03*
X561260Y1565910D03*
X612060Y1483360D03*
X602060Y1483360D03*
D18*
X611960Y1453770D03*
X611960Y1469770D03*
X652960Y1469770D03*
X652960Y1453770D03*
X611960Y1498220D03*
X611960Y1514220D03*
X652960Y1514220D03*
X652960Y1498220D03*
D19*
X591660Y1435760D03*
X591660Y1454760D03*
X570660Y1445260D03*
D20*
X589160Y1313336D03*
X584160Y1313336D03*
D21*
X613910Y1313336D03*
X606160Y1313336D03*
D20*
X599160Y1313336D03*
X594160Y1313336D03*
X574160Y1313336D03*
X579160Y1313336D03*
D21*
X549410Y1313336D03*
X557160Y1313336D03*
D20*
X564160Y1313336D03*
X569160Y1313336D03*
D10*
X632460Y1281510D03*
X632460Y1291510D03*
X530860Y1281510D03*
X530860Y1291510D03*
D22*
X593160Y1419860D03*
X570160Y1419860D03*
D23*
X537210Y1326836D03*
X549910Y1326836D03*
X562610Y1326836D03*
X575310Y1326836D03*
X588010Y1326836D03*
X600710Y1326836D03*
X613410Y1326836D03*
X626110Y1326836D03*
X626110Y1382836D03*
X613410Y1382836D03*
X600710Y1382836D03*
X588010Y1382836D03*
X575310Y1382836D03*
X562610Y1382836D03*
X549910Y1382836D03*
X537210Y1382836D03*
D10*
X520700Y1381934D03*
X520700Y1371934D03*
X554054Y1526794D03*
X564054Y1526794D03*
D12*
X598360Y1524310D02*
X598360Y1531310D01*
X605360Y1531310D01*
X605360Y1524310D01*
X598360Y1524310D01*
X598360Y1527160D02*
X605360Y1527160D01*
X605360Y1530010D02*
X598360Y1530010D01*
X580820Y1531310D02*
X580820Y1524310D01*
X580820Y1531310D02*
X587820Y1531310D01*
X587820Y1524310D01*
X580820Y1524310D01*
X580820Y1527160D02*
X587820Y1527160D01*
X587820Y1530010D02*
X580820Y1530010D01*
D24*
X523360Y1536673D03*
X528360Y1557048D03*
X523360Y1557048D03*
X533360Y1557048D03*
X538360Y1557048D03*
X528360Y1536673D03*
X533360Y1536673D03*
X538360Y1536673D03*
D25*
X534260Y1546860D03*
X527460Y1546860D03*
D10*
X553466Y1484042D03*
X553466Y1474042D03*
X632380Y1429512D03*
X622380Y1429512D03*
X537290Y1407414D03*
X547290Y1407414D03*
D26*
X679030Y1813312D03*
X690030Y1813312D03*
X690030Y1795012D03*
X679030Y1795012D03*
D10*
X677926Y1832784D03*
X677926Y1822784D03*
D27*
X539920Y1422560D03*
X539920Y1442560D03*
D28*
X487920Y1398560D03*
X487920Y1466560D03*
D11*
X572160Y1470359D03*
X581660Y1470359D03*
X591160Y1470359D03*
X591160Y1496361D03*
X572160Y1496361D03*
D29*
X606759Y1418692D03*
X606759Y1409192D03*
X606759Y1399692D03*
X632761Y1399692D03*
X632761Y1418692D03*
D30*
X499280Y1763560D03*
X499280Y1750860D03*
X499280Y1738160D03*
X499280Y1725460D03*
X499280Y1712760D03*
X499280Y1700060D03*
X499280Y1687360D03*
X499280Y1674660D03*
X499280Y1661960D03*
X499280Y1649260D03*
X499280Y1636560D03*
X499280Y1623860D03*
X499280Y1611160D03*
X499280Y1598460D03*
D31*
X524510Y1583560D03*
X537210Y1583560D03*
X549910Y1583560D03*
X562610Y1583560D03*
X575310Y1583560D03*
X588010Y1583560D03*
X600710Y1583560D03*
X613410Y1583560D03*
X626110Y1583560D03*
X638810Y1583560D03*
D30*
X664040Y1598460D03*
X664040Y1611160D03*
X664040Y1623860D03*
X664040Y1636560D03*
X664040Y1649260D03*
X664040Y1661960D03*
X664040Y1674660D03*
X664040Y1687360D03*
X664040Y1700060D03*
X664040Y1712760D03*
X664040Y1725460D03*
X664040Y1738160D03*
X664040Y1750860D03*
X664040Y1763560D03*
D32*
X566350Y1690140D03*
X584800Y1708350D03*
X566500Y1708350D03*
X548200Y1708350D03*
X548200Y1690050D03*
X584900Y1690350D03*
X584800Y1671750D03*
X566500Y1671650D03*
X548200Y1671750D03*
D10*
X797480Y1464818D03*
X787480Y1464818D03*
X810340Y1508760D03*
X820340Y1508760D03*
D11*
X755040Y1483059D03*
X764540Y1483059D03*
X774040Y1483059D03*
X774040Y1509061D03*
X755040Y1509061D03*
D10*
X772240Y1454912D03*
X782240Y1454912D03*
X820340Y1406906D03*
X810340Y1406906D03*
D12*
X832040Y1543360D02*
X832040Y1550360D01*
X839040Y1550360D01*
X839040Y1543360D01*
X832040Y1543360D01*
X832040Y1546210D02*
X839040Y1546210D01*
X839040Y1549060D02*
X832040Y1549060D01*
X814500Y1550360D02*
X814500Y1543360D01*
X814500Y1550360D02*
X821500Y1550360D01*
X821500Y1543360D01*
X814500Y1543360D01*
X814500Y1546210D02*
X821500Y1546210D01*
X821500Y1549060D02*
X814500Y1549060D01*
D10*
X787480Y1546860D03*
X797480Y1546860D03*
D13*
X773040Y1521460D03*
X756040Y1521460D03*
D14*
X788162Y1513450D03*
X788162Y1496450D03*
D10*
X896540Y1332230D03*
X886540Y1332230D03*
X882476Y1368552D03*
X892476Y1368552D03*
D15*
X882340Y1357780D03*
X900740Y1351280D03*
X900740Y1344780D03*
X900740Y1357780D03*
X882340Y1351280D03*
X882340Y1344780D03*
D16*
X715090Y1371660D03*
X715090Y1315660D03*
D17*
X751840Y1358660D03*
X751840Y1348660D03*
X751840Y1338660D03*
X751840Y1328660D03*
D10*
X883920Y1402160D03*
X883920Y1412160D03*
X796290Y1484042D03*
X796290Y1474042D03*
D12*
X832040Y1562410D02*
X832040Y1569410D01*
X839040Y1569410D01*
X839040Y1562410D01*
X832040Y1562410D01*
X832040Y1565260D02*
X839040Y1565260D01*
X839040Y1568110D02*
X832040Y1568110D01*
X814500Y1569410D02*
X814500Y1562410D01*
X814500Y1569410D02*
X821500Y1569410D01*
X821500Y1562410D01*
X814500Y1562410D01*
X814500Y1565260D02*
X821500Y1565260D01*
X821500Y1568110D02*
X814500Y1568110D01*
D10*
X784940Y1565910D03*
X794940Y1565910D03*
X845740Y1483360D03*
X835740Y1483360D03*
D18*
X845640Y1453770D03*
X845640Y1469770D03*
X886640Y1469770D03*
X886640Y1453770D03*
X845640Y1498220D03*
X845640Y1514220D03*
X886640Y1514220D03*
X886640Y1498220D03*
D19*
X825340Y1435760D03*
X825340Y1454760D03*
X804340Y1445260D03*
D20*
X822840Y1313336D03*
X817840Y1313336D03*
D21*
X847590Y1313336D03*
X839840Y1313336D03*
D20*
X832840Y1313336D03*
X827840Y1313336D03*
X807840Y1313336D03*
X812840Y1313336D03*
D21*
X783090Y1313336D03*
X790840Y1313336D03*
D20*
X797840Y1313336D03*
X802840Y1313336D03*
D10*
X866140Y1281510D03*
X866140Y1291510D03*
X764540Y1281510D03*
X764540Y1291510D03*
D22*
X826840Y1419860D03*
X803840Y1419860D03*
D23*
X770890Y1326836D03*
X783590Y1326836D03*
X796290Y1326836D03*
X808990Y1326836D03*
X821690Y1326836D03*
X834390Y1326836D03*
X847090Y1326836D03*
X859790Y1326836D03*
X859790Y1382836D03*
X847090Y1382836D03*
X834390Y1382836D03*
X821690Y1382836D03*
X808990Y1382836D03*
X796290Y1382836D03*
X783590Y1382836D03*
X770890Y1382836D03*
D10*
X754380Y1381934D03*
X754380Y1371934D03*
X787734Y1526794D03*
X797734Y1526794D03*
D12*
X832040Y1524310D02*
X832040Y1531310D01*
X839040Y1531310D01*
X839040Y1524310D01*
X832040Y1524310D01*
X832040Y1527160D02*
X839040Y1527160D01*
X839040Y1530010D02*
X832040Y1530010D01*
X814500Y1531310D02*
X814500Y1524310D01*
X814500Y1531310D02*
X821500Y1531310D01*
X821500Y1524310D01*
X814500Y1524310D01*
X814500Y1527160D02*
X821500Y1527160D01*
X821500Y1530010D02*
X814500Y1530010D01*
D24*
X757040Y1536673D03*
X762040Y1557048D03*
X757040Y1557048D03*
X767040Y1557048D03*
X772040Y1557048D03*
X762040Y1536673D03*
X767040Y1536673D03*
X772040Y1536673D03*
D25*
X767940Y1546860D03*
X761140Y1546860D03*
D10*
X787146Y1484042D03*
X787146Y1474042D03*
X866060Y1429512D03*
X856060Y1429512D03*
X770970Y1407414D03*
X780970Y1407414D03*
D26*
X912710Y1813312D03*
X923710Y1813312D03*
X923710Y1795012D03*
X912710Y1795012D03*
D10*
X911606Y1832784D03*
X911606Y1822784D03*
D27*
X773600Y1422560D03*
X773600Y1442560D03*
D28*
X721600Y1398560D03*
X721600Y1466560D03*
D11*
X805840Y1470359D03*
X815340Y1470359D03*
X824840Y1470359D03*
X824840Y1496361D03*
X805840Y1496361D03*
D29*
X840439Y1418692D03*
X840439Y1409192D03*
X840439Y1399692D03*
X866441Y1399692D03*
X866441Y1418692D03*
D30*
X732960Y1763560D03*
X732960Y1750860D03*
X732960Y1738160D03*
X732960Y1725460D03*
X732960Y1712760D03*
X732960Y1700060D03*
X732960Y1687360D03*
X732960Y1674660D03*
X732960Y1661960D03*
X732960Y1649260D03*
X732960Y1636560D03*
X732960Y1623860D03*
X732960Y1611160D03*
X732960Y1598460D03*
D31*
X758190Y1583560D03*
X770890Y1583560D03*
X783590Y1583560D03*
X796290Y1583560D03*
X808990Y1583560D03*
X821690Y1583560D03*
X834390Y1583560D03*
X847090Y1583560D03*
X859790Y1583560D03*
X872490Y1583560D03*
D30*
X897720Y1598460D03*
X897720Y1611160D03*
X897720Y1623860D03*
X897720Y1636560D03*
X897720Y1649260D03*
X897720Y1661960D03*
X897720Y1674660D03*
X897720Y1687360D03*
X897720Y1700060D03*
X897720Y1712760D03*
X897720Y1725460D03*
X897720Y1738160D03*
X897720Y1750860D03*
X897720Y1763560D03*
D32*
X800030Y1690140D03*
X818480Y1708350D03*
X800180Y1708350D03*
X781880Y1708350D03*
X781880Y1690050D03*
X818580Y1690350D03*
X818480Y1671750D03*
X800180Y1671650D03*
X781880Y1671750D03*
M02*
