M48
;GenerationSoftware,Autodesk,EAGLE,9.6.2*%
;CreationDate,2022-05-26T19:36:14Z*%
FMAT,2
ICI,OFF
METRIC,TZ,000.000
T6C0.305
T5C0.350
T4C0.400
T3C0.650
T2C1.016
T1C3.048
%
G90
M71
T1
X72644Y2540
X90424Y2540
X113792Y123190
X96012Y123190
X96012Y2540
X113792Y2540
X67056Y123190
X49276Y123190
X119380Y2540
X137160Y2540
X160528Y123190
X142748Y123190
X142748Y2540
X160528Y2540
X90424Y123190
X72644Y123190
X2540Y2540
X20320Y2540
X20320Y123190
X2540Y123190
X25908Y2540
X43688Y2540
X137160Y123190
X119380Y123190
X49276Y2540
X67056Y2540
X43688Y123190
X25908Y123190
T2
X44958Y88900
X44958Y86360
X44958Y83820
X44958Y81280
X44958Y78740
X44958Y76200
X44958Y73660
X48006Y73660
X48006Y76200
X48006Y78740
X48006Y81280
X48006Y83820
X48006Y86360
X48006Y88900
X48006Y91440
X48006Y93980
X48006Y96520
X48006Y99060
X48006Y101600
X48006Y104140
X48006Y106680
X48006Y109220
X48006Y111760
X68326Y101600
X68326Y99060
X161798Y73660
X68326Y96520
X68326Y93980
X68326Y91440
X68326Y88900
X68326Y86360
X68326Y83820
X68326Y81280
X68326Y78740
X68326Y76200
X68326Y73660
X71374Y73660
X71374Y76200
X71374Y78740
X71374Y81280
X71374Y83820
X71374Y86360
X71374Y88900
X71374Y91440
X71374Y93980
X71374Y96520
X71374Y99060
X71374Y101600
X71374Y104140
X71374Y106680
X71374Y109220
X71374Y111760
X91694Y101600
X91694Y99060
X91694Y96520
X91694Y93980
X91694Y91440
X91694Y88900
X91694Y86360
X91694Y83820
X91694Y81280
X91694Y78740
X91694Y76200
X91694Y73660
X94742Y73660
X94742Y76200
X94742Y78740
X94742Y81280
X94742Y83820
X94742Y86360
X94742Y88900
X94742Y91440
X94742Y93980
X94742Y96520
X94742Y99060
X115062Y16510
X94742Y101600
X94742Y104140
X94742Y106680
X94742Y109220
X115062Y101600
X115062Y99060
X115062Y96520
X115062Y93980
X115062Y91440
X115062Y88900
X1270Y24130
X115062Y86360
X115062Y83820
X115062Y81280
X115062Y78740
X115062Y76200
X115062Y73660
X118110Y73660
X118110Y76200
X118110Y78740
X118110Y81280
X118110Y83820
X118110Y86360
X118110Y88900
X118110Y91440
X118110Y93980
X118110Y96520
X118110Y99060
X118110Y101600
X118110Y104140
X118110Y106680
X118110Y109220
X118110Y111760
X138430Y101600
X138430Y99060
X138430Y96520
X138430Y93980
X138430Y91440
X138430Y88900
X138430Y86360
X138430Y83820
X138430Y81280
X138430Y78740
X138430Y76200
X138430Y73660
X141478Y73660
X141478Y76200
X141478Y78740
X141478Y81280
X141478Y83820
X141478Y86360
X141478Y88900
X141478Y91440
X141478Y93980
X141478Y96520
X141478Y99060
X21590Y52070
X21590Y49530
X21590Y46990
X21590Y44450
X21590Y41910
X21590Y39370
X21590Y36830
X21590Y34290
X21590Y31750
X21590Y29210
X21590Y26670
X21590Y24130
X21590Y21590
X21590Y19050
X21590Y16510
X21590Y13970
X1270Y26670
X1270Y29210
X1270Y31750
X1270Y34290
X1270Y36830
X1270Y39370
X1270Y41910
X1270Y44450
X1270Y46990
X1270Y49530
X1270Y52070
X141478Y101600
X141478Y104140
X141478Y106680
X141478Y109220
X44958Y52070
X44958Y49530
X44958Y46990
X44958Y44450
X44958Y41910
X44958Y39370
X44958Y36830
X44958Y34290
X44958Y31750
X44958Y29210
X44958Y26670
X44958Y24130
X44958Y21590
X44958Y19050
X44958Y16510
X44958Y13970
X24638Y24130
X24638Y26670
X24638Y29210
X24638Y31750
X24638Y34290
X24638Y36830
X24638Y39370
X24638Y41910
X24638Y44450
X24638Y46990
X24638Y49530
X24638Y52070
X141478Y111760
X161798Y101600
X161798Y99060
X161798Y96520
X68326Y52070
X68326Y49530
X68326Y46990
X68326Y44450
X68326Y41910
X68326Y39370
X68326Y36830
X68326Y34290
X68326Y31750
X68326Y29210
X68326Y26670
X68326Y24130
X68326Y21590
X68326Y19050
X68326Y16510
X68326Y13970
X48006Y24130
X48006Y26670
X48006Y29210
X48006Y31750
X48006Y34290
X48006Y36830
X48006Y39370
X48006Y41910
X48006Y44450
X48006Y46990
X48006Y49530
X48006Y52070
X161798Y93980
X161798Y91440
X161798Y88900
X161798Y86360
X91694Y52070
X91694Y49530
X91694Y46990
X91694Y44450
X91694Y41910
X91694Y39370
X91694Y36830
X91694Y34290
X91694Y31750
X91694Y29210
X91694Y26670
X91694Y24130
X91694Y21590
X91694Y19050
X91694Y16510
X91694Y13970
X71374Y24130
X71374Y26670
X71374Y29210
X71374Y31750
X71374Y34290
X71374Y36830
X71374Y39370
X71374Y41910
X71374Y44450
X71374Y46990
X71374Y49530
X71374Y52070
X161798Y83820
X161798Y81280
X161798Y78740
X161798Y76200
X115062Y52070
X115062Y49530
X115062Y46990
X115062Y44450
X115062Y41910
X115062Y39370
X115062Y36830
X115062Y34290
X115062Y31750
X115062Y29210
X115062Y26670
X115062Y24130
X115062Y21590
X115062Y19050
X94742Y111760
X115062Y13970
X94742Y24130
X94742Y26670
X94742Y29210
X94742Y31750
X94742Y34290
X94742Y36830
X94742Y39370
X94742Y41910
X94742Y44450
X94742Y46990
X94742Y49530
X94742Y52070
X138430Y52070
X138430Y49530
X138430Y46990
X138430Y44450
X138430Y41910
X138430Y39370
X138430Y36830
X138430Y34290
X138430Y31750
X138430Y29210
X138430Y26670
X138430Y24130
X138430Y21590
X138430Y19050
X138430Y16510
X138430Y13970
X118110Y24130
X118110Y26670
X118110Y29210
X118110Y31750
X118110Y34290
X118110Y36830
X118110Y39370
X118110Y41910
X118110Y44450
X118110Y46990
X118110Y49530
X118110Y52070
X161798Y52070
X161798Y49530
X161798Y46990
X161798Y44450
X161798Y41910
X161798Y39370
X161798Y36830
X161798Y34290
X161798Y31750
X161798Y29210
X161798Y26670
X161798Y24130
X161798Y21590
X161798Y19050
X161798Y16510
X161798Y13970
X141478Y24130
X141478Y26670
X141478Y29210
X141478Y31750
X141478Y34290
X141478Y36830
X141478Y39370
X141478Y41910
X141478Y44450
X141478Y46990
X141478Y49530
X141478Y52070
X1270Y73660
X1270Y76200
X1270Y78740
X1270Y81280
X1270Y83820
X1270Y86360
X1270Y88900
X1270Y91440
X1270Y93980
X1270Y96520
X1270Y99060
X1270Y101600
X1270Y104140
X1270Y106680
X1270Y109220
X1270Y111760
X21590Y101600
X21590Y99060
X21590Y96520
X21590Y93980
X21590Y91440
X21590Y88900
X21590Y86360
X21590Y83820
X21590Y81280
X21590Y78740
X21590Y76200
X21590Y73660
X24638Y73660
X24638Y76200
X24638Y78740
X24638Y81280
X24638Y83820
X24638Y86360
X24638Y88900
X24638Y91440
X24638Y93980
X24638Y96520
X24638Y99060
X24638Y101600
X24638Y104140
X24638Y106680
X24638Y109220
X24638Y111760
X44958Y101600
X44958Y99060
X44958Y96520
X44958Y93980
X44958Y91440
T3
X131160Y120977
X37688Y120977
X148748Y120977
X8540Y4753
X14320Y4753
X31908Y4753
X37688Y4753
X55276Y4753
X61056Y4753
X78644Y4753
X84424Y4753
X102012Y4753
X107792Y4753
X125380Y4753
X131160Y4753
X148748Y4753
X154528Y4753
X14320Y120977
X8540Y120977
X31908Y120977
X61056Y120977
X55276Y120977
X84424Y120977
X78644Y120977
X107792Y120977
X102012Y120977
X125380Y120977
X154528Y120977
T4
X132588Y120447
X7112Y1103
X15748Y1103
X15748Y5283
X7112Y5283
X30480Y1103
X39116Y1103
X39116Y5283
X30480Y5283
X53848Y1103
X62484Y1103
X62484Y5283
X53848Y5283
X77216Y1103
X85852Y1103
X85852Y5283
X77216Y5283
X100584Y1103
X109220Y1103
X109220Y5283
X100584Y5283
X15748Y124627
X7112Y124627
X7112Y120447
X15748Y120447
X109220Y124627
X100584Y124627
X155956Y124627
X147320Y124627
X147320Y120447
X155956Y120447
X100584Y120447
X132588Y124627
X123952Y124627
X123952Y120447
X109220Y120447
X147320Y1103
X155956Y1103
X155956Y5283
X147320Y5283
X62484Y124627
X53848Y124627
X53848Y120447
X62484Y120447
X39116Y124627
X30480Y124627
X30480Y120447
X39116Y120447
X123952Y1103
X132588Y1103
X132588Y5283
X123952Y5283
X85852Y124627
X77216Y124627
X77216Y120447
X85852Y120447
T5
X128016Y108712
X123139Y112039
X121234Y83845
X121285Y86893
X121209Y81712
X117421Y70866
X141256Y68405
X39929Y13691
X146507Y112039
X144602Y83845
X144653Y86893
X144577Y81712
X140789Y70866
X69015Y54864
X111887Y38837
X58420Y17018
X63297Y13691
X111963Y44018
X65202Y41885
X151892Y17018
X65151Y38837
X65227Y44018
X115751Y54864
X21812Y57325
X156769Y13691
X11684Y17018
X16561Y13691
X162487Y54864
X18466Y41885
X151384Y108712
X92383Y54864
X18415Y38837
X18491Y44018
X158674Y41885
X35052Y17018
X128524Y17018
X41834Y41885
X74549Y86893
X41783Y38837
X41859Y44018
X133401Y13691
X1048Y68405
X135306Y41885
X158623Y38837
X135255Y38837
X135331Y44018
X158699Y44018
X91916Y57325
X4369Y81712
X11176Y108712
X6299Y112039
X22279Y54864
X581Y70866
X4394Y83845
X138652Y57325
X139119Y54864
X115284Y57325
X81788Y17018
X86665Y13691
X24416Y68405
X88570Y41885
X105156Y17018
X88519Y38837
X88595Y44018
X110033Y13691
X162020Y57325
X111938Y41885
X45647Y54864
X45180Y57325
X4445Y86893
X34544Y108712
X29667Y112039
X27762Y83845
X27813Y86893
X27737Y81712
X47317Y70866
X23949Y70866
X47784Y68405
X57912Y108712
X53035Y112039
X51130Y83845
X51181Y86893
X51105Y81712
X71152Y68405
X81280Y108712
X76403Y112039
X74498Y83845
X74473Y81712
X70685Y70866
X94520Y68405
X104648Y108712
X99771Y112039
X68548Y57325
X97866Y83845
X97917Y86893
X97841Y81712
X94053Y70866
X117888Y68405
T6
X64164Y40894
X64757Y40462
X65236Y41080
X59588Y37617
X58420Y51054
X64770Y42926
X63779Y46990
X55643Y14900
X63716Y45720
X54356Y11801
X52832Y30988
X51943Y49530
X53467Y49530
X50584Y12964
X63322Y48336
X51816Y36576
X51308Y35052
X63246Y49784
X59690Y50292
X60452Y37592
X63246Y51054
X60490Y50762
X60541Y38608
X62484Y44577
X62484Y52070
X52222Y52070
X52400Y14681
X52070Y31242
X58420Y4826
X59461Y8458
X59700Y4943
X63500Y4572
X56642Y4951
X52324Y3658
X54394Y28448
X61976Y16383
X50292Y9398
X50546Y26670
X51816Y34290
X60198Y34290
X60198Y23622
X60960Y52324
X61265Y35103
X65253Y37592
X58166Y8047
X63754Y11301
X65227Y12497
X64282Y14757
X65024Y49276
X61722Y8458
X64008Y6706
X63694Y40132
X55880Y38633
X56718Y30480
X51308Y22860
X55372Y28448
X59563Y25400
X57658Y50292
X81534Y24130
X79832Y50101
X80010Y52832
X88265Y53048
X92354Y53264
X84201Y18288
X76962Y36195
X81534Y36195
X74676Y16002
X77724Y8382
X80886Y8382
X89256Y13970
X89154Y23114
X84836Y48006
X83566Y24384
X74422Y16764
X73914Y10414
X76073Y6452
X76200Y1702
X76276Y11963
X85344Y20701
X88671Y22454
X84709Y27305
X84709Y31115
X89281Y27838
X81280Y22860
X78029Y21057
X76454Y21717
X76454Y29210
X74930Y33020
X88417Y50775
X74549Y50927
X84582Y17272
X81788Y2286
X84074Y8052
X86614Y8458
X82296Y14224
X89027Y9398
X87757Y16764
X88646Y18364
X77724Y3175
X74473Y48819
X74498Y47828
X76987Y48362
X81280Y48362
X76987Y47396
X81280Y47396
X76962Y51054
X92202Y50800
X92202Y48260
X90932Y45720
X92202Y43180
X92202Y40640
X90932Y38100
X90932Y35560
X90932Y33020
X90932Y30480
X92202Y27940
X87630Y27940
X82194Y35306
X80264Y35306
X78232Y35306
X72136Y50800
X72136Y48260
X72136Y45720
X70866Y43180
X72136Y40640
X72136Y38100
X76911Y39497
X76708Y36855
X75438Y35560
X72136Y35560
X72136Y33020
X80518Y38608
X82296Y38862
X82677Y36474
X75438Y38862
X72136Y30480
X72136Y27940
X72390Y25400
X71374Y22606
X72390Y18034
X72568Y12979
X73914Y11938
X71374Y7366
X80264Y31750
X77927Y31725
X77978Y29972
X74422Y45187
X81534Y52324
X76962Y52832
X73406Y52832
X90373Y52553
X89281Y33401
X84074Y40640
X82042Y40386
X76962Y41656
X87630Y43688
X87884Y45212
X87884Y46482
X87122Y49276
X86868Y52070
X85090Y50292
X76962Y43434
X76962Y45466
X75438Y43434
X75438Y40005
X75438Y37338
X74676Y30226
X81534Y19050
X78232Y14224
X91186Y12446
X91694Y8890
X88036Y7188
X71120Y4826
X87122Y5842
X90932Y15240
X90932Y17780
X90932Y20320
X90932Y22860
X87630Y25400
X92202Y25400
X77724Y9398
X79756Y27940
X74422Y43917
X87884Y47752
X88621Y36373
X88062Y35560
X79756Y24333
X81788Y559
X90932Y11430
X91948Y9906
X80480Y26162
X74549Y29210
X80480Y18161
X76454Y25400
X80035Y4189
X72390Y7112
X71882Y9144
X88240Y30759
X89967Y15240
X90043Y19939
X89586Y8473
X87532Y40894
X88125Y40462
X88604Y41080
X82956Y37617
X81788Y51054
X88138Y42926
X87147Y46990
X79012Y14900
X87084Y45720
X77724Y11801
X76200Y30988
X75311Y49530
X76835Y49530
X73952Y12964
X86690Y48336
X75184Y36576
X74676Y35052
X86614Y49784
X83058Y50292
X83820Y37592
X86614Y51054
X83858Y50762
X83909Y38608
X85852Y44577
X85852Y52070
X75590Y52070
X75768Y14681
X75438Y31242
X81788Y4826
X82829Y8458
X83068Y4943
X86868Y4572
X80010Y4951
X75692Y3658
X77762Y28448
X85344Y16383
X73660Y9398
X73914Y26670
X75184Y34290
X83566Y34290
X83566Y23622
X84328Y52324
X84633Y35103
X88621Y37592
X81534Y8047
X87122Y11301
X88595Y12497
X87650Y14757
X88392Y49276
X85090Y8458
X87376Y6706
X87062Y40132
X79248Y38633
X80086Y30480
X74676Y22860
X78740Y28448
X82931Y25400
X81026Y50292
X104902Y24130
X103200Y50101
X103378Y52832
X111633Y53048
X115722Y53264
X107569Y18288
X100330Y36195
X104902Y36195
X98044Y16002
X101092Y8382
X104254Y8382
X112624Y13970
X112522Y23114
X108204Y48006
X106934Y24384
X97790Y16764
X97282Y10414
X99441Y6452
X99568Y1702
X99644Y11963
X108712Y20701
X112039Y22454
X108077Y27305
X108077Y31115
X112649Y27838
X104648Y22860
X101397Y21057
X99822Y21717
X99822Y29210
X98298Y33020
X111785Y50775
X97917Y50927
X107950Y17272
X105156Y2286
X107442Y8052
X109982Y8458
X105664Y14224
X112395Y9398
X111125Y16764
X112014Y18364
X101092Y3175
X97841Y48819
X97866Y47828
X100355Y48362
X104648Y48362
X100355Y47396
X104648Y47396
X100330Y51054
X115570Y50800
X115570Y48260
X114300Y45720
X115570Y43180
X115570Y40640
X114300Y38100
X114300Y35560
X114300Y33020
X114300Y30480
X115570Y27940
X110998Y27940
X105562Y35306
X103632Y35306
X101600Y35306
X95504Y50800
X95504Y48260
X95504Y45720
X94234Y43180
X95504Y40640
X95504Y38100
X100279Y39497
X100076Y36855
X98806Y35560
X95504Y35560
X95504Y33020
X103886Y38608
X105664Y38862
X106045Y36474
X98806Y38862
X95504Y30480
X95504Y27940
X95758Y25400
X94742Y22606
X95758Y18034
X95936Y12979
X97282Y11938
X94742Y7366
X103632Y31750
X101295Y31725
X101346Y29972
X97790Y45187
X104902Y52324
X100330Y52832
X96774Y52832
X113741Y52553
X112649Y33401
X107442Y40640
X105410Y40386
X100330Y41656
X110998Y43688
X111252Y45212
X111252Y46482
X110490Y49276
X110236Y52070
X108458Y50292
X100330Y43434
X100330Y45466
X98806Y43434
X98806Y40005
X98806Y37338
X98044Y30226
X104902Y19050
X101600Y14224
X114554Y12446
X115062Y8890
X111404Y7188
X94488Y4826
X110490Y5842
X114300Y15240
X114300Y17780
X114300Y20320
X114300Y22860
X110998Y25400
X115570Y25400
X101092Y9398
X103124Y27940
X97790Y43917
X111252Y47752
X111989Y36373
X111430Y35560
X103124Y24333
X105156Y559
X114300Y11430
X115316Y9906
X103848Y26162
X97917Y29210
X103848Y18161
X99822Y25400
X103403Y4189
X95758Y7112
X95250Y9144
X111608Y30759
X113335Y15240
X113411Y19939
X112954Y8473
X110900Y40894
X111493Y40462
X111972Y41080
X106324Y37617
X105156Y51054
X111506Y42926
X110515Y46990
X102379Y14900
X110452Y45720
X101092Y11801
X99568Y30988
X98679Y49530
X100203Y49530
X97320Y12964
X110058Y48336
X98552Y36576
X98044Y35052
X109982Y49784
X106426Y50292
X107188Y37592
X109982Y51054
X107226Y50762
X107277Y38608
X109220Y44577
X109220Y52070
X98958Y52070
X99136Y14681
X98806Y31242
X105156Y4826
X106197Y8458
X106436Y4943
X110236Y4572
X103378Y4951
X99060Y3658
X101130Y28448
X108712Y16383
X97028Y9398
X97282Y26670
X98552Y34290
X106934Y34290
X106934Y23622
X107696Y52324
X108001Y35103
X111989Y37592
X104902Y8047
X110490Y11301
X111963Y12497
X111018Y14757
X111760Y49276
X108458Y8458
X110744Y6706
X110430Y40132
X102616Y38633
X103454Y30480
X98044Y22860
X102108Y28448
X106299Y25400
X104394Y50292
X128270Y24130
X126568Y50101
X126746Y52832
X135001Y53048
X139090Y53264
X130937Y18288
X123698Y36195
X128270Y36195
X121412Y16002
X124460Y8382
X127622Y8382
X135992Y13970
X135890Y23114
X131572Y48006
X130302Y24384
X121158Y16764
X120650Y10414
X122809Y6452
X122936Y1702
X123012Y11963
X132080Y20701
X135407Y22454
X131445Y27305
X131445Y31115
X136017Y27838
X128016Y22860
X124765Y21057
X123190Y21717
X123190Y29210
X121666Y33020
X135153Y50775
X121285Y50927
X131318Y17272
X128524Y2286
X130810Y8052
X133350Y8458
X129032Y14224
X135763Y9398
X134493Y16764
X135382Y18364
X124460Y3175
X121209Y48819
X121234Y47828
X123723Y48362
X128016Y48362
X123723Y47396
X128016Y47396
X123698Y51054
X138938Y50800
X138938Y48260
X137668Y45720
X138938Y43180
X138938Y40640
X137668Y38100
X137668Y35560
X137668Y33020
X137668Y30480
X138938Y27940
X134366Y27940
X128930Y35306
X127000Y35306
X124968Y35306
X118872Y50800
X118872Y48260
X118872Y45720
X117602Y43180
X118872Y40640
X118872Y38100
X123647Y39497
X123444Y36855
X122174Y35560
X118872Y35560
X118872Y33020
X127254Y38608
X129032Y38862
X129413Y36474
X122174Y38862
X118872Y30480
X118872Y27940
X119126Y25400
X118110Y22606
X119126Y18034
X119304Y12979
X120650Y11938
X118110Y7366
X127000Y31750
X124663Y31725
X124714Y29972
X121158Y45187
X128270Y52324
X123698Y52832
X120142Y52832
X137109Y52553
X136017Y33401
X130810Y40640
X128778Y40386
X123698Y41656
X134366Y43688
X134620Y45212
X134620Y46482
X133858Y49276
X133604Y52070
X131826Y50292
X123698Y43434
X123698Y45466
X122174Y43434
X122174Y40005
X122174Y37338
X121412Y30226
X128270Y19050
X124968Y14224
X137922Y12446
X138430Y8890
X134772Y7188
X117856Y4826
X133858Y5842
X137668Y15240
X137668Y17780
X137668Y20320
X137668Y22860
X134366Y25400
X138938Y25400
X124460Y9398
X126492Y27940
X121158Y43917
X134620Y47752
X135357Y36373
X134798Y35560
X126492Y24333
X128524Y559
X137668Y11430
X138684Y9906
X127216Y26162
X121285Y29210
X127216Y18161
X123190Y25400
X126771Y4189
X119126Y7112
X118618Y9144
X134976Y30759
X136703Y15240
X136779Y19939
X136322Y8473
X134268Y40894
X134861Y40462
X135340Y41080
X129692Y37617
X128524Y51054
X134874Y42926
X133883Y46990
X125747Y14900
X133820Y45720
X124460Y11801
X122936Y30988
X122047Y49530
X123571Y49530
X120688Y12964
X133426Y48336
X121920Y36576
X121412Y35052
X133350Y49784
X129794Y50292
X130556Y37592
X133350Y51054
X130594Y50762
X130645Y38608
X132588Y44577
X132588Y52070
X122326Y52070
X122504Y14681
X122174Y31242
X128524Y4826
X129565Y8458
X129804Y4943
X133604Y4572
X126746Y4951
X122428Y3658
X124498Y28448
X132080Y16383
X120396Y9398
X120650Y26670
X121920Y34290
X130302Y34290
X130302Y23622
X131064Y52324
X131369Y35103
X135357Y37592
X128270Y8047
X133858Y11301
X135331Y12497
X134387Y14757
X135128Y49276
X131826Y8458
X134112Y6706
X133798Y40132
X125984Y38633
X126822Y30480
X121412Y22860
X125476Y28448
X129667Y25400
X127762Y50292
X151638Y24130
X149936Y50101
X150114Y52832
X158369Y53048
X162458Y53264
X154305Y18288
X147066Y36195
X151638Y36195
X144780Y16002
X147828Y8382
X150990Y8382
X159360Y13970
X159258Y23114
X154940Y48006
X153670Y24384
X144526Y16764
X144018Y10414
X146177Y6452
X146304Y1702
X146380Y11963
X155448Y20701
X158775Y22454
X154813Y27305
X154813Y31115
X159385Y27838
X151384Y22860
X148133Y21057
X146558Y21717
X146558Y29210
X145034Y33020
X158521Y50775
X144653Y50927
X154686Y17272
X151892Y2286
X154178Y8052
X156718Y8458
X152400Y14224
X159131Y9398
X157861Y16764
X158750Y18364
X147828Y3175
X144577Y48819
X144602Y47828
X147091Y48362
X151384Y48362
X147091Y47396
X151384Y47396
X147066Y51054
X162306Y50800
X162306Y48260
X161036Y45720
X162306Y43180
X162306Y40640
X161036Y38100
X161036Y35560
X161036Y33020
X161036Y30480
X162306Y27940
X157734Y27940
X152298Y35306
X150368Y35306
X148336Y35306
X142240Y50800
X142240Y48260
X142240Y45720
X140970Y43180
X142240Y40640
X142240Y38100
X147015Y39497
X146812Y36855
X145542Y35560
X142240Y35560
X142240Y33020
X150622Y38608
X152400Y38862
X152781Y36474
X145542Y38862
X142240Y30480
X142240Y27940
X142494Y25400
X141478Y22606
X142494Y18034
X142672Y12979
X144018Y11938
X141478Y7366
X150368Y31750
X148031Y31725
X148082Y29972
X144526Y45187
X151638Y52324
X147066Y52832
X143510Y52832
X160477Y52553
X159385Y33401
X154178Y40640
X152146Y40386
X147066Y41656
X157734Y43688
X157988Y45212
X157988Y46482
X157226Y49276
X156972Y52070
X155194Y50292
X147066Y43434
X147066Y45466
X145542Y43434
X145542Y40005
X145542Y37338
X144780Y30226
X151638Y19050
X148336Y14224
X161290Y12446
X161798Y8890
X158140Y7188
X141224Y4826
X157226Y5842
X161036Y15240
X161036Y17780
X161036Y20320
X161036Y22860
X157734Y25400
X162306Y25400
X147828Y9398
X149860Y27940
X144526Y43917
X157988Y47752
X158725Y36373
X158166Y35560
X149860Y24333
X151892Y559
X161036Y11430
X162052Y9906
X150584Y26162
X144653Y29210
X150584Y18161
X146558Y25400
X150139Y4189
X142494Y7112
X141986Y9144
X158344Y30759
X160071Y15240
X160147Y19939
X159690Y8473
X157636Y40894
X158229Y40462
X158708Y41080
X153060Y37617
X151892Y51054
X158242Y42926
X157251Y46990
X149116Y14900
X157188Y45720
X147828Y11801
X146304Y30988
X145415Y49530
X146939Y49530
X144056Y12964
X156794Y48336
X145288Y36576
X144780Y35052
X156718Y49784
X153162Y50292
X153924Y37592
X156718Y51054
X153962Y50762
X154013Y38608
X155956Y44577
X155956Y52070
X145694Y52070
X145872Y14681
X145542Y31242
X151892Y4826
X152933Y8458
X153172Y4943
X156972Y4572
X150114Y4951
X145796Y3658
X147866Y28448
X155448Y16383
X143764Y9398
X144018Y26670
X145288Y34290
X153670Y34290
X153670Y23622
X154432Y52324
X154737Y35103
X158725Y37592
X151638Y8047
X157226Y11301
X158699Y12497
X157755Y14757
X158496Y49276
X155194Y8458
X157480Y6706
X157166Y40132
X149352Y38633
X150190Y30480
X144780Y22860
X148844Y28448
X153035Y25400
X151130Y50292
X11430Y101600
X13132Y75629
X12954Y72898
X4699Y72682
X610Y72466
X8763Y107442
X16002Y89535
X11430Y89535
X18288Y109728
X15240Y117348
X12078Y117348
X3708Y111760
X3810Y102616
X8128Y77724
X9398Y101346
X18542Y108966
X19050Y115316
X16891Y119278
X16764Y124028
X16688Y113767
X7620Y105029
X4293Y103276
X8255Y98425
X8255Y94615
X3683Y97892
X11684Y102870
X14935Y104673
X16510Y104013
X16510Y96520
X18034Y92710
X4547Y74955
X18415Y74803
X8382Y108458
X11176Y123444
X8890Y117678
X6350Y117272
X10668Y111506
X3937Y116332
X5207Y108966
X4318Y107366
X15240Y122555
X18491Y76911
X18466Y77902
X15977Y77368
X11684Y77368
X15977Y78334
X11684Y78334
X16002Y74676
X762Y74930
X762Y77470
X2032Y80010
X762Y82550
X762Y85090
X2032Y87630
X2032Y90170
X2032Y92710
X2032Y95250
X762Y97790
X5334Y97790
X10770Y90424
X12700Y90424
X14732Y90424
X20828Y74930
X20828Y77470
X20828Y80010
X22098Y82550
X20828Y85090
X20828Y87630
X16053Y86233
X16256Y88875
X17526Y90170
X20828Y90170
X20828Y92710
X12446Y87122
X10668Y86868
X10287Y89256
X17526Y86868
X20828Y95250
X20828Y97790
X20574Y100330
X21590Y103124
X20574Y107696
X20396Y112751
X19050Y113792
X21590Y118364
X12700Y93980
X15037Y94005
X14986Y95758
X18542Y80543
X11430Y73406
X16002Y72898
X19558Y72898
X2591Y73177
X3683Y92329
X8890Y85090
X10922Y85344
X16002Y84074
X5334Y82042
X5080Y80518
X5080Y79248
X5842Y76454
X6096Y73660
X7874Y75438
X16002Y82296
X16002Y80264
X17526Y82296
X17526Y85725
X17526Y88392
X18288Y95504
X11430Y106680
X14732Y111506
X1778Y113284
X1270Y116840
X4928Y118542
X21844Y120904
X5842Y119888
X2032Y110490
X2032Y107950
X2032Y105410
X2032Y102870
X5334Y100330
X762Y100330
X15240Y116332
X13208Y97790
X18542Y81813
X5080Y77978
X4343Y89357
X4902Y90170
X13208Y101397
X11176Y125171
X2032Y114300
X1016Y115824
X12484Y99568
X18415Y96520
X12484Y107569
X16510Y100330
X12929Y121541
X20574Y118618
X21082Y116586
X4724Y94971
X2997Y110490
X2921Y105791
X3378Y117257
X5432Y84836
X4839Y85268
X4360Y84650
X10008Y88113
X11176Y74676
X4826Y82804
X5817Y78740
X13952Y110830
X5880Y80010
X15240Y113929
X16764Y94742
X17653Y76200
X16129Y76200
X19012Y112766
X6274Y77394
X17780Y89154
X18288Y90678
X6350Y75946
X9906Y75438
X9144Y88138
X6350Y74676
X9106Y74968
X9055Y87122
X7112Y81153
X7112Y73660
X17374Y73660
X17196Y111049
X17526Y94488
X11176Y120904
X10135Y117272
X9896Y120787
X6096Y121158
X12954Y120779
X17272Y122072
X15202Y97282
X7620Y109347
X19304Y116332
X19050Y99060
X17780Y91440
X9398Y91440
X9398Y102108
X8636Y73406
X8331Y90627
X4343Y88138
X11430Y117683
X5842Y114429
X4369Y113233
X5314Y110973
X4572Y76454
X7874Y117272
X5588Y119024
X5902Y85598
X13716Y87097
X12878Y95250
X18288Y102870
X14224Y97282
X10033Y100330
X11938Y75438
X34798Y101600
X36500Y75629
X36322Y72898
X28067Y72682
X23978Y72466
X32131Y107442
X39370Y89535
X34798Y89535
X41656Y109728
X38608Y117348
X35446Y117348
X27076Y111760
X27178Y102616
X31496Y77724
X32766Y101346
X41910Y108966
X42418Y115316
X40259Y119278
X40132Y124028
X40056Y113767
X30988Y105029
X27661Y103276
X31623Y98425
X31623Y94615
X27051Y97892
X35052Y102870
X38303Y104673
X39878Y104013
X39878Y96520
X41402Y92710
X27915Y74955
X41783Y74803
X31750Y108458
X34544Y123444
X32258Y117678
X29718Y117272
X34036Y111506
X27305Y116332
X28575Y108966
X27686Y107366
X38608Y122555
X41859Y76911
X41834Y77902
X11430Y24130
X35052Y77368
X39345Y78334
X35052Y78334
X39370Y74676
X24130Y74930
X24130Y77470
X25400Y80010
X24130Y82550
X24130Y85090
X25400Y87630
X25400Y90170
X25400Y92710
X25400Y95250
X24130Y97790
X28702Y97790
X34138Y90424
X36068Y90424
X38100Y90424
X44196Y74930
X44196Y77470
X44196Y80010
X45466Y82550
X44196Y85090
X44196Y87630
X39421Y86233
X39624Y88875
X40894Y90170
X44196Y90170
X44196Y92710
X35814Y87122
X34036Y86868
X33655Y89256
X40894Y86868
X44196Y95250
X44196Y97790
X43942Y100330
X44958Y103124
X43942Y107696
X43764Y112751
X42418Y113792
X44958Y118364
X36068Y93980
X38405Y94005
X38354Y95758
X41910Y80543
X34798Y73406
X39370Y72898
X42926Y72898
X25959Y73177
X27051Y92329
X32258Y85090
X34290Y85344
X39370Y84074
X28702Y82042
X28448Y80518
X28448Y79248
X29210Y76454
X29464Y73660
X31242Y75438
X39370Y82296
X39370Y80264
X40894Y82296
X40894Y85725
X40894Y88392
X41656Y95504
X34798Y106680
X38100Y111506
X25146Y113284
X24638Y116840
X28296Y118542
X45212Y120904
X29210Y119888
X25400Y110490
X25400Y107950
X25400Y105410
X25400Y102870
X28702Y100330
X24130Y100330
X38608Y116332
X36576Y97790
X9728Y50101
X9906Y52832
X41910Y81813
X18161Y53048
X28448Y77978
X22250Y53264
X14097Y18288
X27711Y89357
X28270Y90170
X36576Y101397
X34544Y125171
X25400Y114300
X24384Y115824
X35852Y99568
X41783Y96520
X35852Y107569
X39878Y100330
X36297Y121541
X43942Y118618
X44450Y116586
X28092Y94971
X26365Y110490
X26289Y105791
X26746Y117257
X28800Y84836
X28207Y85268
X27728Y84650
X33376Y88113
X34544Y74676
X28194Y82804
X29185Y78740
X37321Y110830
X29248Y80010
X38608Y113929
X40132Y94742
X41021Y76200
X39497Y76200
X42380Y112766
X29642Y77394
X41148Y89154
X41656Y90678
X29718Y75946
X33274Y75438
X32512Y88138
X29718Y74676
X32474Y74968
X32423Y87122
X30480Y81153
X30480Y73660
X40742Y73660
X40564Y111049
X40894Y94488
X34544Y120904
X33503Y117272
X33264Y120787
X29464Y121158
X36322Y120779
X40640Y122072
X38570Y97282
X30988Y109347
X42672Y116332
X42418Y99060
X41148Y91440
X32766Y91440
X32766Y102108
X32004Y73406
X31699Y90627
X27711Y88138
X34798Y117683
X29210Y114429
X27737Y113233
X28681Y110973
X27940Y76454
X31242Y117272
X28956Y119024
X29270Y85598
X37084Y87097
X6858Y36195
X36246Y95250
X41656Y102870
X37592Y97282
X33401Y100330
X35306Y75438
X58166Y101600
X59868Y75629
X59690Y72898
X51435Y72682
X47346Y72466
X55499Y107442
X62738Y89535
X58166Y89535
X65024Y109728
X61976Y117348
X58814Y117348
X11430Y36195
X50444Y111760
X50546Y102616
X54864Y77724
X56134Y101346
X65278Y108966
X65786Y115316
X63627Y119278
X63500Y124028
X63424Y113767
X54356Y105029
X51029Y103276
X54991Y98425
X54991Y94615
X50419Y97892
X58420Y102870
X61671Y104673
X63246Y104013
X63246Y96520
X64770Y92710
X51283Y74955
X65151Y74803
X55118Y108458
X57912Y123444
X55626Y117678
X53086Y117272
X57404Y111506
X50673Y116332
X51943Y108966
X51054Y107366
X61976Y122555
X65227Y76911
X65202Y77902
X62713Y77368
X58420Y77368
X62713Y78334
X58420Y78334
X62738Y74676
X47498Y74930
X47498Y77470
X48768Y80010
X47498Y82550
X47498Y85090
X48768Y87630
X48768Y90170
X48768Y92710
X48768Y95250
X47498Y97790
X52070Y97790
X57506Y90424
X59436Y90424
X61468Y90424
X67564Y74930
X67564Y77470
X67564Y80010
X68834Y82550
X67564Y85090
X67564Y87630
X62789Y86233
X62992Y88875
X64262Y90170
X67564Y90170
X67564Y92710
X59182Y87122
X57404Y86868
X57023Y89256
X64262Y86868
X67564Y95250
X67564Y97790
X67310Y100330
X68326Y103124
X67310Y107696
X67132Y112751
X65786Y113792
X68326Y118364
X59436Y93980
X61773Y94005
X61722Y95758
X65278Y80543
X58166Y73406
X62738Y72898
X66294Y72898
X49327Y73177
X50419Y92329
X55626Y85090
X57658Y85344
X62738Y84074
X52070Y82042
X51816Y80518
X51816Y79248
X52578Y76454
X52832Y73660
X54610Y75438
X62738Y82296
X62738Y80264
X64262Y82296
X64262Y85725
X64262Y88392
X65024Y95504
X58166Y106680
X61468Y111506
X48514Y113284
X48006Y116840
X51664Y118542
X68580Y120904
X52578Y119888
X48768Y110490
X48768Y107950
X48768Y105410
X48768Y102870
X52070Y100330
X47498Y100330
X61976Y116332
X59944Y97790
X4572Y16002
X7620Y8382
X65278Y81813
X10782Y8382
X51816Y77978
X19152Y13970
X19050Y23114
X51079Y89357
X51638Y90170
X59944Y101397
X57912Y125171
X48768Y114300
X47752Y115824
X59220Y99568
X65151Y96520
X59220Y107569
X63246Y100330
X59665Y121541
X67310Y118618
X67818Y116586
X51460Y94971
X49733Y110490
X49657Y105791
X50114Y117257
X52168Y84836
X51575Y85268
X51096Y84650
X56744Y88113
X57912Y74676
X51562Y82804
X52553Y78740
X60688Y110830
X52616Y80010
X61976Y113929
X63500Y94742
X64389Y76200
X62865Y76200
X65748Y112766
X53010Y77394
X64516Y89154
X65024Y90678
X53086Y75946
X56642Y75438
X55880Y88138
X53086Y74676
X55842Y74968
X55791Y87122
X53848Y81153
X53848Y73660
X64110Y73660
X63932Y111049
X64262Y94488
X57912Y120904
X56871Y117272
X56632Y120787
X52832Y121158
X59690Y120779
X64008Y122072
X61938Y97282
X54356Y109347
X66040Y116332
X65786Y99060
X64516Y91440
X56134Y91440
X56134Y102108
X55372Y73406
X55067Y90627
X51079Y88138
X58166Y117683
X52578Y114429
X51105Y113233
X52049Y110973
X51308Y76454
X54610Y117272
X52324Y119024
X52638Y85598
X60452Y87097
X14732Y48006
X59614Y95250
X65024Y102870
X60960Y97282
X56769Y100330
X58674Y75438
X81534Y101600
X83236Y75629
X83058Y72898
X74803Y72682
X70714Y72466
X78867Y107442
X86106Y89535
X81534Y89535
X88392Y109728
X85344Y117348
X82182Y117348
X13462Y24384
X73812Y111760
X73914Y102616
X78232Y77724
X79502Y101346
X88646Y108966
X89154Y115316
X86995Y119278
X86868Y124028
X86792Y113767
X77724Y105029
X74397Y103276
X78359Y98425
X78359Y94615
X73787Y97892
X81788Y102870
X85039Y104673
X86614Y104013
X86614Y96520
X88138Y92710
X74651Y74955
X88519Y74803
X78486Y108458
X81280Y123444
X78994Y117678
X76454Y117272
X80772Y111506
X74041Y116332
X75311Y108966
X74422Y107366
X85344Y122555
X88595Y76911
X88570Y77902
X86081Y77368
X81788Y77368
X86081Y78334
X81788Y78334
X86106Y74676
X70866Y74930
X70866Y77470
X72136Y80010
X70866Y82550
X70866Y85090
X72136Y87630
X72136Y90170
X72136Y92710
X72136Y95250
X70866Y97790
X75438Y97790
X80874Y90424
X82804Y90424
X84836Y90424
X90932Y74930
X90932Y77470
X90932Y80010
X92202Y82550
X90932Y85090
X90932Y87630
X86157Y86233
X86360Y88875
X87630Y90170
X90932Y90170
X90932Y92710
X82550Y87122
X80772Y86868
X80391Y89256
X87630Y86868
X90932Y95250
X90932Y97790
X90678Y100330
X91694Y103124
X90678Y107696
X90500Y112751
X89154Y113792
X91694Y118364
X82804Y93980
X85141Y94005
X85090Y95758
X88646Y80543
X81534Y73406
X86106Y72898
X89662Y72898
X72695Y73177
X73787Y92329
X78994Y85090
X81026Y85344
X86106Y84074
X75438Y82042
X75184Y80518
X75184Y79248
X75946Y76454
X76200Y73660
X77978Y75438
X86106Y82296
X86106Y80264
X87630Y82296
X87630Y85725
X87630Y88392
X88392Y95504
X81534Y106680
X84836Y111506
X71882Y113284
X71374Y116840
X75032Y118542
X91948Y120904
X75946Y119888
X72136Y110490
X72136Y107950
X72136Y105410
X72136Y102870
X75438Y100330
X70866Y100330
X85344Y116332
X83312Y97790
X4318Y16764
X3810Y10414
X88646Y81813
X5969Y6452
X75184Y77978
X6096Y1702
X6172Y11963
X74447Y89357
X75006Y90170
X83312Y101397
X81280Y125171
X72136Y114300
X71120Y115824
X82588Y99568
X88519Y96520
X82588Y107569
X86614Y100330
X83033Y121541
X90678Y118618
X91186Y116586
X74828Y94971
X73101Y110490
X73025Y105791
X73482Y117257
X75536Y84836
X74943Y85268
X74464Y84650
X80112Y88113
X81280Y74676
X74930Y82804
X75921Y78740
X84057Y110830
X75984Y80010
X85344Y113929
X86868Y94742
X87757Y76200
X86233Y76200
X89116Y112766
X76378Y77394
X87884Y89154
X88392Y90678
X76454Y75946
X80010Y75438
X79248Y88138
X76454Y74676
X79210Y74968
X79159Y87122
X77216Y81153
X77216Y73660
X87478Y73660
X87300Y111049
X87630Y94488
X81280Y120904
X80239Y117272
X80000Y120787
X76200Y121158
X83058Y120779
X87376Y122072
X85306Y97282
X77724Y109347
X89408Y116332
X89154Y99060
X87884Y91440
X79502Y91440
X79502Y102108
X78740Y73406
X78435Y90627
X74447Y88138
X81534Y117683
X75946Y114429
X74473Y113233
X75418Y110973
X74676Y76454
X77978Y117272
X75692Y119024
X76006Y85598
X83820Y87097
X15240Y20701
X82982Y95250
X88392Y102870
X84328Y97282
X80137Y100330
X82042Y75438
X104902Y101600
X106604Y75629
X106426Y72898
X98171Y72682
X94082Y72466
X102235Y107442
X109474Y89535
X104902Y89535
X111760Y109728
X108712Y117348
X105550Y117348
X18567Y22454
X97180Y111760
X97282Y102616
X101600Y77724
X102870Y101346
X112014Y108966
X112522Y115316
X110363Y119278
X110236Y124028
X110160Y113767
X101092Y105029
X97765Y103276
X101727Y98425
X101727Y94615
X97155Y97892
X105156Y102870
X108407Y104673
X109982Y104013
X109982Y96520
X111506Y92710
X98019Y74955
X111887Y74803
X101854Y108458
X104648Y123444
X102362Y117678
X99822Y117272
X104140Y111506
X97409Y116332
X98679Y108966
X97790Y107366
X108712Y122555
X111963Y76911
X111938Y77902
X109449Y77368
X105156Y77368
X109449Y78334
X105156Y78334
X109474Y74676
X94234Y74930
X94234Y77470
X95504Y80010
X94234Y82550
X94234Y85090
X95504Y87630
X95504Y90170
X95504Y92710
X95504Y95250
X94234Y97790
X98806Y97790
X104242Y90424
X106172Y90424
X108204Y90424
X114300Y74930
X114300Y77470
X114300Y80010
X115570Y82550
X114300Y85090
X114300Y87630
X109525Y86233
X109728Y88875
X110998Y90170
X114300Y90170
X114300Y92710
X105918Y87122
X104140Y86868
X103759Y89256
X110998Y86868
X114300Y95250
X114300Y97790
X114046Y100330
X115062Y103124
X114046Y107696
X113868Y112751
X112522Y113792
X115062Y118364
X106172Y93980
X108509Y94005
X108458Y95758
X112014Y80543
X104902Y73406
X109474Y72898
X113030Y72898
X96063Y73177
X97155Y92329
X102362Y85090
X104394Y85344
X109474Y84074
X98806Y82042
X98552Y80518
X98552Y79248
X99314Y76454
X99568Y73660
X101346Y75438
X109474Y82296
X109474Y80264
X110998Y82296
X110998Y85725
X110998Y88392
X111760Y95504
X104902Y106680
X108204Y111506
X95250Y113284
X94742Y116840
X98400Y118542
X115316Y120904
X99314Y119888
X95504Y110490
X95504Y107950
X95504Y105410
X95504Y102870
X98806Y100330
X94234Y100330
X108712Y116332
X106680Y97790
X14605Y27305
X14605Y31115
X112014Y81813
X19177Y27838
X98552Y77978
X11176Y22860
X7925Y21057
X97815Y89357
X98374Y90170
X106680Y101397
X104648Y125171
X95504Y114300
X94488Y115824
X105956Y99568
X111887Y96520
X105956Y107569
X109982Y100330
X106401Y121541
X114046Y118618
X114554Y116586
X98196Y94971
X96469Y110490
X96393Y105791
X96850Y117257
X98904Y84836
X98311Y85268
X97832Y84650
X103480Y88113
X104648Y74676
X98298Y82804
X99289Y78740
X107424Y110830
X99352Y80010
X108712Y113929
X110236Y94742
X111125Y76200
X109601Y76200
X112484Y112766
X99746Y77394
X111252Y89154
X111760Y90678
X99822Y75946
X103378Y75438
X102616Y88138
X99822Y74676
X102578Y74968
X102527Y87122
X100584Y81153
X100584Y73660
X110846Y73660
X110668Y111049
X110998Y94488
X104648Y120904
X103607Y117272
X103368Y120787
X99568Y121158
X106426Y120779
X110744Y122072
X108674Y97282
X101092Y109347
X112776Y116332
X112522Y99060
X111252Y91440
X102870Y91440
X102870Y102108
X102108Y73406
X101803Y90627
X97815Y88138
X104902Y117683
X99314Y114429
X97841Y113233
X98785Y110973
X98044Y76454
X101346Y117272
X99060Y119024
X99374Y85598
X107188Y87097
X6350Y21717
X106350Y95250
X111760Y102870
X107696Y97282
X103505Y100330
X105410Y75438
X128270Y101600
X129972Y75629
X129794Y72898
X121539Y72682
X117450Y72466
X125603Y107442
X132842Y89535
X128270Y89535
X135128Y109728
X132080Y117348
X128918Y117348
X6350Y29210
X120548Y111760
X120650Y102616
X124968Y77724
X126238Y101346
X135382Y108966
X135890Y115316
X133731Y119278
X133604Y124028
X133528Y113767
X124460Y105029
X121133Y103276
X125095Y98425
X125095Y94615
X120523Y97892
X128524Y102870
X131775Y104673
X133350Y104013
X133350Y96520
X134874Y92710
X121387Y74955
X135255Y74803
X125222Y108458
X128016Y123444
X125730Y117678
X123190Y117272
X127508Y111506
X120777Y116332
X122047Y108966
X121158Y107366
X132080Y122555
X135331Y76911
X135306Y77902
X132817Y77368
X128524Y77368
X132817Y78334
X128524Y78334
X132842Y74676
X117602Y74930
X117602Y77470
X118872Y80010
X117602Y82550
X117602Y85090
X118872Y87630
X118872Y90170
X118872Y92710
X118872Y95250
X117602Y97790
X122174Y97790
X127610Y90424
X129540Y90424
X131572Y90424
X137668Y74930
X137668Y77470
X4826Y33020
X138938Y82550
X137668Y85090
X137668Y87630
X132893Y86233
X133096Y88875
X134366Y90170
X137668Y90170
X137668Y92710
X129286Y87122
X127508Y86868
X127127Y89256
X134366Y86868
X137668Y95250
X137668Y97790
X137414Y100330
X138430Y103124
X137414Y107696
X137236Y112751
X135890Y113792
X138430Y118364
X129540Y93980
X131877Y94005
X131826Y95758
X135382Y80543
X128270Y73406
X132842Y72898
X136398Y72898
X119431Y73177
X120523Y92329
X125730Y85090
X127762Y85344
X132842Y84074
X122174Y82042
X121920Y80518
X121920Y79248
X122682Y76454
X122936Y73660
X124714Y75438
X132842Y82296
X132842Y80264
X134366Y82296
X134366Y85725
X134366Y88392
X135128Y95504
X128270Y106680
X131572Y111506
X118618Y113284
X118110Y116840
X121768Y118542
X138684Y120904
X122682Y119888
X118872Y110490
X118872Y107950
X118872Y105410
X118872Y102870
X122174Y100330
X117602Y100330
X132080Y116332
X130048Y97790
X18313Y50775
X4445Y50927
X135382Y81813
X14478Y17272
X121920Y77978
X11684Y2286
X13970Y8052
X121183Y89357
X121742Y90170
X130048Y101397
X128016Y125171
X118872Y114300
X117856Y115824
X129324Y99568
X135255Y96520
X129324Y107569
X133350Y100330
X129769Y121541
X137414Y118618
X137922Y116586
X121564Y94971
X119837Y110490
X119761Y105791
X120218Y117257
X122272Y84836
X121679Y85268
X121200Y84650
X126848Y88113
X128016Y74676
X121666Y82804
X122657Y78740
X130792Y110830
X122720Y80010
X132080Y113929
X133604Y94742
X134493Y76200
X132969Y76200
X135852Y112766
X123114Y77394
X134620Y89154
X135128Y90678
X123190Y75946
X126746Y75438
X125984Y88138
X123190Y74676
X125946Y74968
X125895Y87122
X123952Y81153
X123952Y73660
X134214Y73660
X134036Y111049
X134366Y94488
X128016Y120904
X126975Y117272
X126736Y120787
X122936Y121158
X129794Y120779
X134112Y122072
X132042Y97282
X124460Y109347
X136144Y116332
X135890Y99060
X134620Y91440
X126238Y91440
X126238Y102108
X125476Y73406
X125171Y90627
X121183Y88138
X128270Y117683
X122682Y114429
X121209Y113233
X122153Y110973
X121412Y76454
X124714Y117272
X122428Y119024
X122742Y85598
X130556Y87097
X16510Y8458
X129718Y95250
X135128Y102870
X131064Y97282
X126873Y100330
X128778Y75438
X151638Y101600
X153340Y75629
X153162Y72898
X144907Y72682
X140818Y72466
X148971Y107442
X156210Y89535
X151638Y89535
X158496Y109728
X155448Y117348
X152286Y117348
X12192Y14224
X143916Y111760
X144018Y102616
X148336Y77724
X149606Y101346
X158750Y108966
X159258Y115316
X157099Y119278
X156972Y124028
X156896Y113767
X147828Y105029
X144501Y103276
X148463Y98425
X148463Y94615
X143891Y97892
X151892Y102870
X155143Y104673
X156718Y104013
X156718Y96520
X158242Y92710
X144755Y74955
X158623Y74803
X148590Y108458
X151384Y123444
X149098Y117678
X146558Y117272
X150876Y111506
X144145Y116332
X145415Y108966
X144526Y107366
X155448Y122555
X158699Y76911
X158674Y77902
X156185Y77368
X151892Y77368
X156185Y78334
X151892Y78334
X156210Y74676
X140970Y74930
X140970Y77470
X142240Y80010
X140970Y82550
X140970Y85090
X142240Y87630
X142240Y90170
X142240Y92710
X142240Y95250
X140970Y97790
X145542Y97790
X150978Y90424
X152908Y90424
X154940Y90424
X161036Y74930
X161036Y77470
X161036Y80010
X162306Y82550
X161036Y85090
X161036Y87630
X156261Y86233
X156464Y88875
X157734Y90170
X161036Y90170
X161036Y92710
X152654Y87122
X150876Y86868
X150495Y89256
X157734Y86868
X161036Y95250
X161036Y97790
X160782Y100330
X161798Y103124
X160782Y107696
X160604Y112751
X159258Y113792
X161798Y118364
X152908Y93980
X155245Y94005
X155194Y95758
X158750Y80543
X151638Y73406
X156210Y72898
X159766Y72898
X142799Y73177
X143891Y92329
X149098Y85090
X151130Y85344
X156210Y84074
X145542Y82042
X145288Y80518
X145288Y79248
X146050Y76454
X146304Y73660
X148082Y75438
X156210Y82296
X156210Y80264
X157734Y82296
X157734Y85725
X157734Y88392
X158496Y95504
X151638Y106680
X154940Y111506
X141986Y113284
X141478Y116840
X145136Y118542
X162052Y120904
X146050Y119888
X142240Y110490
X142240Y107950
X142240Y105410
X142240Y102870
X145542Y100330
X140970Y100330
X155448Y116332
X153416Y97790
X18923Y9398
X17653Y16764
X158750Y81813
X18542Y18364
X145288Y77978
X7620Y3175
X4369Y48819
X144551Y89357
X145110Y90170
X153416Y101397
X151384Y125171
X142240Y114300
X141224Y115824
X152692Y99568
X158623Y96520
X152692Y107569
X156718Y100330
X153137Y121541
X160782Y118618
X161290Y116586
X144932Y94971
X143205Y110490
X143129Y105791
X143586Y117257
X145640Y84836
X145047Y85268
X144568Y84650
X150216Y88113
X151384Y74676
X145034Y82804
X146025Y78740
X154161Y110830
X146088Y80010
X155448Y113929
X156972Y94742
X157861Y76200
X156337Y76200
X159220Y112766
X146482Y77394
X157988Y89154
X158496Y90678
X146558Y75946
X150114Y75438
X149352Y88138
X146558Y74676
X149314Y74968
X149263Y87122
X147320Y81153
X147320Y73660
X157582Y73660
X157404Y111049
X157734Y94488
X151384Y120904
X150343Y117272
X150104Y120787
X146304Y121158
X153162Y120779
X157480Y122072
X155410Y97282
X147828Y109347
X159512Y116332
X159258Y99060
X157988Y91440
X149606Y91440
X149606Y102108
X148844Y73406
X148539Y90627
X144551Y88138
X151638Y117683
X146050Y114429
X144577Y113233
X145522Y110973
X144780Y76454
X148082Y117272
X145796Y119024
X146110Y85598
X153924Y87097
X4394Y47828
X153086Y95250
X158496Y102870
X154432Y97282
X150241Y100330
X152146Y75438
X6883Y48362
X11176Y48362
X6883Y47396
X11176Y47396
X6858Y51054
X22098Y50800
X22098Y48260
X20828Y45720
X22098Y43180
X22098Y40640
X20828Y38100
X20828Y35560
X20828Y33020
X20828Y30480
X22098Y27940
X17526Y27940
X12090Y35306
X10160Y35306
X8128Y35306
X2032Y50800
X2032Y48260
X2032Y45720
X762Y43180
X2032Y40640
X2032Y38100
X6807Y39497
X6604Y36855
X5334Y35560
X2032Y35560
X2032Y33020
X10414Y38608
X12192Y38862
X12573Y36474
X5334Y38862
X2032Y30480
X2032Y27940
X2286Y25400
X1270Y22606
X2286Y18034
X2464Y12979
X3810Y11938
X1270Y7366
X10160Y31750
X7823Y31725
X7874Y29972
X4318Y45187
X11430Y52324
X6858Y52832
X3302Y52832
X20269Y52553
X19177Y33401
X13970Y40640
X11938Y40386
X6858Y41656
X17526Y43688
X17780Y45212
X17780Y46482
X17018Y49276
X16764Y52070
X14986Y50292
X6858Y43434
X6858Y45466
X5334Y43434
X5334Y40005
X5334Y37338
X4572Y30226
X11430Y19050
X8128Y14224
X21082Y12446
X21590Y8890
X17932Y7188
X1016Y4826
X17018Y5842
X20828Y15240
X20828Y17780
X20828Y20320
X39345Y77368
X20828Y22860
X17526Y25400
X22098Y25400
X7620Y9398
X9652Y27940
X4318Y43917
X17780Y47752
X18517Y36373
X17958Y35560
X9652Y24333
X11684Y559
X20828Y11430
X21844Y9906
X10376Y26162
X4445Y29210
X10376Y18161
X6350Y25400
X9931Y4189
X2286Y7112
X1778Y9144
X18136Y30759
X19863Y15240
X19939Y19939
X19482Y8473
X17428Y40894
X18021Y40462
X18500Y41080
X12852Y37617
X11684Y51054
X18034Y42926
X17043Y46990
X8908Y14900
X16980Y45720
X7620Y11801
X6096Y30988
X5207Y49530
X6731Y49530
X3848Y12964
X16586Y48336
X5080Y36576
X4572Y35052
X16510Y49784
X12954Y50292
X13716Y37592
X16510Y51054
X13754Y50762
X13805Y38608
X15748Y44577
X15748Y52070
X5486Y52070
X5664Y14681
X5334Y31242
X11684Y4826
X12725Y8458
X12964Y4943
X16764Y4572
X9906Y4951
X5588Y3658
X7658Y28448
X15240Y16383
X3556Y9398
X3810Y26670
X5080Y34290
X13462Y34290
X13462Y23622
X14224Y52324
X14529Y35103
X18517Y37592
X11430Y8047
X17018Y11301
X18491Y12497
X17547Y14757
X18288Y49276
X14986Y8458
X17272Y6706
X16958Y40132
X9144Y38633
X9982Y30480
X4572Y22860
X8636Y28448
X12827Y25400
X10922Y50292
X34798Y24130
X33096Y50101
X33274Y52832
X41529Y53048
X45618Y53264
X37465Y18288
X30226Y36195
X34798Y36195
X27940Y16002
X30988Y8382
X34150Y8382
X42520Y13970
X42418Y23114
X38100Y48006
X36830Y24384
X27686Y16764
X27178Y10414
X29337Y6452
X29464Y1702
X29540Y11963
X38608Y20701
X41935Y22454
X37973Y27305
X37973Y31115
X42545Y27838
X34544Y22860
X31293Y21057
X29718Y21717
X29718Y29210
X28194Y33020
X41681Y50775
X27813Y50927
X37846Y17272
X35052Y2286
X37338Y8052
X39878Y8458
X35560Y14224
X42291Y9398
X41021Y16764
X41910Y18364
X30988Y3175
X27737Y48819
X27762Y47828
X30251Y48362
X34544Y48362
X30251Y47396
X34544Y47396
X30226Y51054
X45466Y50800
X45466Y48260
X44196Y45720
X45466Y43180
X45466Y40640
X44196Y38100
X44196Y35560
X44196Y33020
X44196Y30480
X45466Y27940
X40894Y27940
X35458Y35306
X33528Y35306
X31496Y35306
X25400Y50800
X25400Y48260
X25400Y45720
X24130Y43180
X25400Y40640
X25400Y38100
X30175Y39497
X29972Y36855
X28702Y35560
X25400Y35560
X25400Y33020
X33782Y38608
X35560Y38862
X35941Y36474
X28702Y38862
X25400Y30480
X25400Y27940
X25654Y25400
X24638Y22606
X25654Y18034
X25832Y12979
X27178Y11938
X24638Y7366
X33528Y31750
X31191Y31725
X31242Y29972
X27686Y45187
X34798Y52324
X30226Y52832
X26670Y52832
X43637Y52553
X42545Y33401
X37338Y40640
X35306Y40386
X30226Y41656
X40894Y43688
X41148Y45212
X41148Y46482
X40386Y49276
X40132Y52070
X38354Y50292
X30226Y43434
X30226Y45466
X28702Y43434
X28702Y40005
X28702Y37338
X27940Y30226
X34798Y19050
X31496Y14224
X44450Y12446
X44958Y8890
X41300Y7188
X24384Y4826
X40386Y5842
X44196Y15240
X44196Y17780
X44196Y20320
X44196Y22860
X40894Y25400
X45466Y25400
X30988Y9398
X33020Y27940
X27686Y43917
X41148Y47752
X41885Y36373
X41326Y35560
X33020Y24333
X35052Y559
X44196Y11430
X45212Y9906
X33744Y26162
X27813Y29210
X33744Y18161
X29718Y25400
X33299Y4189
X25654Y7112
X25146Y9144
X41504Y30759
X43231Y15240
X43307Y19939
X42850Y8473
X40796Y40894
X41389Y40462
X41868Y41080
X36220Y37617
X35052Y51054
X41402Y42926
X40411Y46990
X32275Y14900
X40348Y45720
X30988Y11801
X29464Y30988
X28575Y49530
X30099Y49530
X27216Y12964
X39954Y48336
X28448Y36576
X27940Y35052
X39878Y49784
X36322Y50292
X37084Y37592
X39878Y51054
X37122Y50762
X37173Y38608
X39116Y44577
X39116Y52070
X28854Y52070
X29032Y14681
X28702Y31242
X35052Y4826
X36093Y8458
X36332Y4943
X40132Y4572
X33274Y4951
X28956Y3658
X31026Y28448
X38608Y16383
X26924Y9398
X27178Y26670
X28448Y34290
X36830Y34290
X36830Y23622
X37592Y52324
X37897Y35103
X41885Y37592
X34798Y8047
X40386Y11301
X41859Y12497
X40915Y14757
X41656Y49276
X38354Y8458
X40640Y6706
X40326Y40132
X32512Y38633
X33350Y30480
X27940Y22860
X32004Y28448
X36195Y25400
X34290Y50292
X58166Y24130
X56464Y50101
X56642Y52832
X64897Y53048
X68986Y53264
X60833Y18288
X53594Y36195
X58166Y36195
X51308Y16002
X54356Y8382
X57518Y8382
X65888Y13970
X65786Y23114
X61468Y48006
X60198Y24384
X51054Y16764
X50546Y10414
X52705Y6452
X52832Y1702
X52908Y11963
X61976Y20701
X65303Y22454
X61341Y27305
X61341Y31115
X65913Y27838
X57912Y22860
X54661Y21057
X53086Y21717
X53086Y29210
X51562Y33020
X65049Y50775
X51181Y50927
X61214Y17272
X58420Y2286
X60706Y8052
X63246Y8458
X58928Y14224
X65659Y9398
X64389Y16764
X65278Y18364
X54356Y3175
X51105Y48819
X51130Y47828
X53619Y48362
X57912Y48362
X53619Y47396
X57912Y47396
X53594Y51054
X68834Y50800
X68834Y48260
X67564Y45720
X68834Y43180
X68834Y40640
X67564Y38100
X67564Y35560
X67564Y33020
X67564Y30480
X68834Y27940
X64262Y27940
X58826Y35306
X56896Y35306
X54864Y35306
X48768Y50800
X48768Y48260
X48768Y45720
X47498Y43180
X48768Y40640
X48768Y38100
X53543Y39497
X53340Y36855
X52070Y35560
X48768Y35560
X48768Y33020
X57150Y38608
X58928Y38862
X59309Y36474
X52070Y38862
X48768Y30480
X48768Y27940
X49022Y25400
X48006Y22606
X49022Y18034
X49200Y12979
X50546Y11938
X48006Y7366
X56896Y31750
X54559Y31725
X54610Y29972
X51054Y45187
X58166Y52324
X53594Y52832
X50038Y52832
X67005Y52553
X65913Y33401
X60706Y40640
X58674Y40386
X53594Y41656
X64262Y43688
X64516Y45212
X64516Y46482
X63754Y49276
X63500Y52070
X61722Y50292
X53594Y43434
X53594Y45466
X52070Y43434
X52070Y40005
X52070Y37338
X51308Y30226
X58166Y19050
X54864Y14224
X67818Y12446
X68326Y8890
X64668Y7188
X47752Y4826
X63754Y5842
X67564Y15240
X67564Y17780
X67564Y20320
X67564Y22860
X64262Y25400
X68834Y25400
X54356Y9398
X56388Y27940
X51054Y43917
X64516Y47752
X65253Y36373
X64694Y35560
X56388Y24333
X58420Y559
X67564Y11430
X68580Y9906
X57112Y26162
X51181Y29210
X57112Y18161
X53086Y25400
X56667Y4189
X49022Y7112
X48514Y9144
X64872Y30759
X66599Y15240
X66675Y19939
X66218Y8473
X137668Y80010
M30