G04 EAGLE Gerber RS-274X export*
G75*
%MOMM*%
%FSLAX34Y34*%
%LPD*%
%INSoldermask Bottom*%
%IPPOS*%
%AMOC8*
5,1,8,0,0,1.08239X$1,22.5*%
G01*
%ADD10C,0.838200*%
%ADD11C,1.473200*%
%ADD12C,3.251200*%
%ADD13C,0.853200*%
%ADD14R,0.863600X1.473200*%
%ADD15R,1.473200X0.863600*%
%ADD16R,0.703200X1.203200*%
%ADD17R,0.923200X0.983200*%
%ADD18R,1.253200X1.283200*%
%ADD19R,1.253200X1.403200*%
%ADD20R,1.253200X2.593200*%
%ADD21R,3.113200X0.753200*%
%ADD22C,2.082800*%
%ADD23C,1.203200*%
%ADD24C,1.270000*%
%ADD25C,1.703200*%

G36*
X922047Y1310457D02*
X922047Y1310457D01*
X922042Y1310464D01*
X922049Y1310470D01*
X922049Y1323270D01*
X922047Y1323273D01*
X922049Y1323275D01*
X921849Y1325075D01*
X921844Y1325081D01*
X921847Y1325086D01*
X921647Y1325686D01*
X921642Y1325689D01*
X921644Y1325692D01*
X921344Y1326292D01*
X921341Y1326293D01*
X921342Y1326295D01*
X921042Y1326795D01*
X921027Y1326802D01*
X921025Y1326812D01*
X920528Y1327111D01*
X920130Y1327409D01*
X920120Y1327409D01*
X920118Y1327416D01*
X919118Y1327816D01*
X919111Y1327814D01*
X919108Y1327819D01*
X918508Y1327919D01*
X918503Y1327916D01*
X918500Y1327919D01*
X917700Y1327919D01*
X917693Y1327914D01*
X917688Y1327918D01*
X917294Y1327819D01*
X917100Y1327819D01*
X917087Y1327810D01*
X917078Y1327814D01*
X916878Y1327714D01*
X916877Y1327713D01*
X916876Y1327713D01*
X916875Y1327709D01*
X916852Y1327661D01*
X916868Y1327653D01*
X916865Y1327635D01*
X916965Y1327535D01*
X916977Y1327534D01*
X916978Y1327526D01*
X917378Y1327326D01*
X917383Y1327327D01*
X917384Y1327323D01*
X917673Y1327227D01*
X918062Y1326839D01*
X918255Y1326548D01*
X918351Y1326262D01*
X918351Y1325978D01*
X918254Y1325689D01*
X918059Y1325299D01*
X917769Y1325008D01*
X917477Y1324814D01*
X916986Y1324617D01*
X916495Y1324519D01*
X915706Y1324519D01*
X914920Y1324716D01*
X914334Y1325107D01*
X913944Y1325594D01*
X913749Y1326178D01*
X913749Y1326860D01*
X914042Y1327543D01*
X914737Y1328337D01*
X915537Y1329237D01*
X915537Y1329238D01*
X916237Y1330038D01*
X916238Y1330045D01*
X916243Y1330046D01*
X916743Y1330946D01*
X916742Y1330956D01*
X916748Y1330959D01*
X916948Y1331859D01*
X916945Y1331867D01*
X916949Y1331870D01*
X916949Y1332670D01*
X916942Y1332679D01*
X916947Y1332686D01*
X916647Y1333586D01*
X916638Y1333592D01*
X916640Y1333599D01*
X916140Y1334299D01*
X916132Y1334301D01*
X916133Y1334307D01*
X915233Y1335107D01*
X915224Y1335107D01*
X915224Y1335113D01*
X914124Y1335713D01*
X914112Y1335712D01*
X914109Y1335718D01*
X913009Y1335918D01*
X913003Y1335915D01*
X913000Y1335919D01*
X912000Y1335919D01*
X911991Y1335912D01*
X911984Y1335917D01*
X911084Y1335617D01*
X911084Y1335616D01*
X911083Y1335616D01*
X910283Y1335316D01*
X910281Y1335313D01*
X910278Y1335314D01*
X909678Y1335014D01*
X909675Y1335008D01*
X909670Y1335009D01*
X909270Y1334709D01*
X909269Y1334704D01*
X909265Y1334705D01*
X909165Y1334605D01*
X909163Y1334591D01*
X909153Y1334583D01*
X909161Y1334573D01*
X909157Y1334546D01*
X909184Y1334542D01*
X909200Y1334521D01*
X909500Y1334521D01*
X909509Y1334528D01*
X909516Y1334523D01*
X909808Y1334621D01*
X910094Y1334621D01*
X910488Y1334522D01*
X910490Y1334523D01*
X910490Y1334522D01*
X910984Y1334423D01*
X911374Y1334228D01*
X911764Y1333936D01*
X911955Y1333648D01*
X912053Y1333354D01*
X912058Y1333351D01*
X912056Y1333348D01*
X912154Y1333151D01*
X912248Y1332870D01*
X912153Y1332586D01*
X912154Y1332583D01*
X912152Y1332582D01*
X912054Y1332190D01*
X911859Y1331897D01*
X911859Y1331893D01*
X911856Y1331892D01*
X911659Y1331499D01*
X911369Y1331208D01*
X911073Y1331011D01*
X911072Y1331009D01*
X911070Y1331009D01*
X910671Y1330710D01*
X910375Y1330513D01*
X909588Y1330119D01*
X908908Y1330119D01*
X908622Y1330215D01*
X908341Y1330402D01*
X908149Y1330978D01*
X908149Y1331770D01*
X908146Y1331774D01*
X908148Y1331779D01*
X908139Y1331784D01*
X908113Y1331817D01*
X908097Y1331805D01*
X908078Y1331814D01*
X907278Y1331414D01*
X907272Y1331402D01*
X907263Y1331403D01*
X906463Y1330503D01*
X906463Y1330495D01*
X906457Y1330495D01*
X905757Y1329295D01*
X905758Y1329288D01*
X905754Y1329287D01*
X905254Y1327887D01*
X905255Y1327881D01*
X905252Y1327879D01*
X904952Y1326279D01*
X904956Y1326271D01*
X904951Y1326267D01*
X905051Y1324467D01*
X905056Y1324461D01*
X905053Y1324457D01*
X905553Y1322657D01*
X905559Y1322652D01*
X905557Y1322646D01*
X906557Y1320846D01*
X906562Y1320844D01*
X906561Y1320840D01*
X907261Y1319940D01*
X907266Y1319939D01*
X907265Y1319935D01*
X908065Y1319135D01*
X908068Y1319135D01*
X908068Y1319133D01*
X908868Y1318433D01*
X908874Y1318432D01*
X908875Y1318428D01*
X909875Y1317828D01*
X909881Y1317828D01*
X909882Y1317824D01*
X910882Y1317424D01*
X910886Y1317425D01*
X910887Y1317423D01*
X911987Y1317123D01*
X911991Y1317124D01*
X911992Y1317121D01*
X913192Y1316921D01*
X913194Y1316922D01*
X913199Y1316922D01*
X913200Y1316921D01*
X915096Y1316921D01*
X915683Y1316823D01*
X916172Y1316530D01*
X917165Y1315735D01*
X917662Y1315138D01*
X917666Y1315138D01*
X917665Y1315135D01*
X918962Y1313838D01*
X919460Y1313141D01*
X919466Y1313140D01*
X919465Y1313135D01*
X920063Y1312537D01*
X920562Y1311938D01*
X920566Y1311938D01*
X920565Y1311935D01*
X921063Y1311438D01*
X921361Y1311040D01*
X921366Y1311039D01*
X921365Y1311035D01*
X921662Y1310739D01*
X921859Y1310443D01*
X921892Y1310431D01*
X921900Y1310421D01*
X922000Y1310421D01*
X922047Y1310457D01*
G37*
G36*
X688367Y1310457D02*
X688367Y1310457D01*
X688362Y1310464D01*
X688369Y1310470D01*
X688369Y1323270D01*
X688367Y1323273D01*
X688369Y1323275D01*
X688169Y1325075D01*
X688164Y1325081D01*
X688167Y1325086D01*
X687967Y1325686D01*
X687962Y1325689D01*
X687964Y1325692D01*
X687664Y1326292D01*
X687661Y1326293D01*
X687662Y1326295D01*
X687362Y1326795D01*
X687347Y1326802D01*
X687345Y1326812D01*
X686848Y1327111D01*
X686450Y1327409D01*
X686440Y1327409D01*
X686438Y1327416D01*
X685438Y1327816D01*
X685431Y1327814D01*
X685428Y1327819D01*
X684828Y1327919D01*
X684823Y1327916D01*
X684820Y1327919D01*
X684020Y1327919D01*
X684013Y1327914D01*
X684008Y1327918D01*
X683614Y1327819D01*
X683420Y1327819D01*
X683407Y1327810D01*
X683398Y1327814D01*
X683198Y1327714D01*
X683197Y1327713D01*
X683196Y1327713D01*
X683195Y1327709D01*
X683172Y1327661D01*
X683188Y1327653D01*
X683185Y1327635D01*
X683285Y1327535D01*
X683297Y1327534D01*
X683298Y1327526D01*
X683698Y1327326D01*
X683703Y1327327D01*
X683704Y1327323D01*
X683993Y1327227D01*
X684382Y1326839D01*
X684575Y1326548D01*
X684671Y1326262D01*
X684671Y1325978D01*
X684574Y1325689D01*
X684379Y1325299D01*
X684089Y1325008D01*
X683797Y1324814D01*
X683306Y1324617D01*
X682815Y1324519D01*
X682026Y1324519D01*
X681240Y1324716D01*
X680654Y1325107D01*
X680264Y1325594D01*
X680069Y1326178D01*
X680069Y1326860D01*
X680362Y1327543D01*
X681057Y1328337D01*
X681857Y1329237D01*
X681857Y1329238D01*
X682557Y1330038D01*
X682558Y1330045D01*
X682563Y1330046D01*
X683063Y1330946D01*
X683062Y1330956D01*
X683068Y1330959D01*
X683268Y1331859D01*
X683265Y1331867D01*
X683269Y1331870D01*
X683269Y1332670D01*
X683262Y1332679D01*
X683267Y1332686D01*
X682967Y1333586D01*
X682958Y1333592D01*
X682960Y1333599D01*
X682460Y1334299D01*
X682452Y1334301D01*
X682453Y1334307D01*
X681553Y1335107D01*
X681544Y1335107D01*
X681544Y1335113D01*
X680444Y1335713D01*
X680432Y1335712D01*
X680429Y1335718D01*
X679329Y1335918D01*
X679323Y1335915D01*
X679320Y1335919D01*
X678320Y1335919D01*
X678311Y1335912D01*
X678304Y1335917D01*
X677404Y1335617D01*
X677404Y1335616D01*
X677403Y1335616D01*
X676603Y1335316D01*
X676601Y1335313D01*
X676598Y1335314D01*
X675998Y1335014D01*
X675995Y1335008D01*
X675990Y1335009D01*
X675590Y1334709D01*
X675589Y1334704D01*
X675585Y1334705D01*
X675485Y1334605D01*
X675483Y1334591D01*
X675473Y1334583D01*
X675481Y1334573D01*
X675477Y1334546D01*
X675504Y1334542D01*
X675520Y1334521D01*
X675820Y1334521D01*
X675829Y1334528D01*
X675836Y1334523D01*
X676128Y1334621D01*
X676414Y1334621D01*
X676808Y1334522D01*
X676810Y1334523D01*
X676810Y1334522D01*
X677304Y1334423D01*
X677694Y1334228D01*
X678084Y1333936D01*
X678275Y1333648D01*
X678373Y1333354D01*
X678378Y1333351D01*
X678376Y1333348D01*
X678474Y1333151D01*
X678568Y1332870D01*
X678473Y1332586D01*
X678474Y1332583D01*
X678472Y1332582D01*
X678374Y1332190D01*
X678179Y1331897D01*
X678179Y1331893D01*
X678176Y1331892D01*
X677979Y1331499D01*
X677689Y1331208D01*
X677393Y1331011D01*
X677392Y1331009D01*
X677390Y1331009D01*
X676991Y1330710D01*
X676695Y1330513D01*
X675908Y1330119D01*
X675228Y1330119D01*
X674942Y1330215D01*
X674661Y1330402D01*
X674469Y1330978D01*
X674469Y1331770D01*
X674466Y1331774D01*
X674468Y1331779D01*
X674459Y1331784D01*
X674433Y1331817D01*
X674417Y1331805D01*
X674398Y1331814D01*
X673598Y1331414D01*
X673592Y1331402D01*
X673583Y1331403D01*
X672783Y1330503D01*
X672783Y1330495D01*
X672777Y1330495D01*
X672077Y1329295D01*
X672078Y1329288D01*
X672074Y1329287D01*
X671574Y1327887D01*
X671575Y1327881D01*
X671572Y1327879D01*
X671272Y1326279D01*
X671276Y1326271D01*
X671271Y1326267D01*
X671371Y1324467D01*
X671376Y1324461D01*
X671373Y1324457D01*
X671873Y1322657D01*
X671879Y1322652D01*
X671877Y1322646D01*
X672877Y1320846D01*
X672882Y1320844D01*
X672881Y1320840D01*
X673581Y1319940D01*
X673586Y1319939D01*
X673585Y1319935D01*
X674385Y1319135D01*
X674388Y1319135D01*
X674388Y1319133D01*
X675188Y1318433D01*
X675194Y1318432D01*
X675195Y1318428D01*
X676195Y1317828D01*
X676201Y1317828D01*
X676202Y1317824D01*
X677202Y1317424D01*
X677206Y1317425D01*
X677207Y1317423D01*
X678307Y1317123D01*
X678311Y1317124D01*
X678312Y1317121D01*
X679512Y1316921D01*
X679514Y1316922D01*
X679519Y1316922D01*
X679520Y1316921D01*
X681416Y1316921D01*
X682003Y1316823D01*
X682492Y1316530D01*
X683485Y1315735D01*
X683982Y1315138D01*
X683986Y1315138D01*
X683985Y1315135D01*
X685282Y1313838D01*
X685780Y1313141D01*
X685786Y1313140D01*
X685785Y1313135D01*
X686383Y1312537D01*
X686882Y1311938D01*
X686886Y1311938D01*
X686885Y1311935D01*
X687383Y1311438D01*
X687681Y1311040D01*
X687686Y1311039D01*
X687685Y1311035D01*
X687982Y1310739D01*
X688179Y1310443D01*
X688212Y1310431D01*
X688220Y1310421D01*
X688320Y1310421D01*
X688367Y1310457D01*
G37*
G36*
X454687Y1310457D02*
X454687Y1310457D01*
X454682Y1310464D01*
X454689Y1310470D01*
X454689Y1323270D01*
X454687Y1323273D01*
X454689Y1323275D01*
X454489Y1325075D01*
X454484Y1325081D01*
X454487Y1325086D01*
X454287Y1325686D01*
X454282Y1325689D01*
X454284Y1325692D01*
X453984Y1326292D01*
X453981Y1326293D01*
X453982Y1326295D01*
X453682Y1326795D01*
X453667Y1326802D01*
X453665Y1326812D01*
X453168Y1327111D01*
X452770Y1327409D01*
X452760Y1327409D01*
X452758Y1327416D01*
X451758Y1327816D01*
X451751Y1327814D01*
X451748Y1327819D01*
X451148Y1327919D01*
X451143Y1327916D01*
X451140Y1327919D01*
X450340Y1327919D01*
X450333Y1327914D01*
X450328Y1327918D01*
X449934Y1327819D01*
X449740Y1327819D01*
X449727Y1327810D01*
X449718Y1327814D01*
X449518Y1327714D01*
X449517Y1327713D01*
X449516Y1327713D01*
X449515Y1327709D01*
X449492Y1327661D01*
X449508Y1327653D01*
X449505Y1327635D01*
X449605Y1327535D01*
X449617Y1327534D01*
X449618Y1327526D01*
X450018Y1327326D01*
X450023Y1327327D01*
X450024Y1327323D01*
X450313Y1327227D01*
X450702Y1326839D01*
X450895Y1326548D01*
X450991Y1326262D01*
X450991Y1325978D01*
X450894Y1325689D01*
X450699Y1325299D01*
X450409Y1325008D01*
X450117Y1324814D01*
X449626Y1324617D01*
X449135Y1324519D01*
X448346Y1324519D01*
X447560Y1324716D01*
X446974Y1325107D01*
X446584Y1325594D01*
X446389Y1326178D01*
X446389Y1326860D01*
X446682Y1327543D01*
X447377Y1328337D01*
X448177Y1329237D01*
X448177Y1329238D01*
X448877Y1330038D01*
X448878Y1330045D01*
X448883Y1330046D01*
X449383Y1330946D01*
X449382Y1330956D01*
X449388Y1330959D01*
X449588Y1331859D01*
X449585Y1331867D01*
X449589Y1331870D01*
X449589Y1332670D01*
X449582Y1332679D01*
X449587Y1332686D01*
X449287Y1333586D01*
X449278Y1333592D01*
X449280Y1333599D01*
X448780Y1334299D01*
X448772Y1334301D01*
X448773Y1334307D01*
X447873Y1335107D01*
X447864Y1335107D01*
X447864Y1335113D01*
X446764Y1335713D01*
X446752Y1335712D01*
X446749Y1335718D01*
X445649Y1335918D01*
X445643Y1335915D01*
X445640Y1335919D01*
X444640Y1335919D01*
X444631Y1335912D01*
X444624Y1335917D01*
X443724Y1335617D01*
X443724Y1335616D01*
X443723Y1335616D01*
X442923Y1335316D01*
X442921Y1335313D01*
X442918Y1335314D01*
X442318Y1335014D01*
X442315Y1335008D01*
X442310Y1335009D01*
X441910Y1334709D01*
X441909Y1334704D01*
X441905Y1334705D01*
X441805Y1334605D01*
X441803Y1334591D01*
X441793Y1334583D01*
X441801Y1334573D01*
X441797Y1334546D01*
X441824Y1334542D01*
X441840Y1334521D01*
X442140Y1334521D01*
X442149Y1334528D01*
X442156Y1334523D01*
X442448Y1334621D01*
X442734Y1334621D01*
X443128Y1334522D01*
X443130Y1334523D01*
X443130Y1334522D01*
X443624Y1334423D01*
X444014Y1334228D01*
X444404Y1333936D01*
X444595Y1333648D01*
X444693Y1333354D01*
X444698Y1333351D01*
X444696Y1333348D01*
X444794Y1333151D01*
X444888Y1332870D01*
X444793Y1332586D01*
X444794Y1332583D01*
X444792Y1332582D01*
X444694Y1332190D01*
X444499Y1331897D01*
X444499Y1331893D01*
X444496Y1331892D01*
X444299Y1331499D01*
X444009Y1331208D01*
X443713Y1331011D01*
X443712Y1331009D01*
X443710Y1331009D01*
X443311Y1330710D01*
X443015Y1330513D01*
X442228Y1330119D01*
X441548Y1330119D01*
X441262Y1330215D01*
X440981Y1330402D01*
X440789Y1330978D01*
X440789Y1331770D01*
X440786Y1331774D01*
X440788Y1331779D01*
X440779Y1331784D01*
X440753Y1331817D01*
X440737Y1331805D01*
X440718Y1331814D01*
X439918Y1331414D01*
X439912Y1331402D01*
X439903Y1331403D01*
X439103Y1330503D01*
X439103Y1330495D01*
X439097Y1330495D01*
X438397Y1329295D01*
X438398Y1329288D01*
X438394Y1329287D01*
X437894Y1327887D01*
X437895Y1327881D01*
X437892Y1327879D01*
X437592Y1326279D01*
X437596Y1326271D01*
X437591Y1326267D01*
X437691Y1324467D01*
X437696Y1324461D01*
X437693Y1324457D01*
X438193Y1322657D01*
X438199Y1322652D01*
X438197Y1322646D01*
X439197Y1320846D01*
X439202Y1320844D01*
X439201Y1320840D01*
X439901Y1319940D01*
X439906Y1319939D01*
X439905Y1319935D01*
X440705Y1319135D01*
X440708Y1319135D01*
X440708Y1319133D01*
X441508Y1318433D01*
X441514Y1318432D01*
X441515Y1318428D01*
X442515Y1317828D01*
X442521Y1317828D01*
X442522Y1317824D01*
X443522Y1317424D01*
X443526Y1317425D01*
X443527Y1317423D01*
X444627Y1317123D01*
X444631Y1317124D01*
X444632Y1317121D01*
X445832Y1316921D01*
X445834Y1316922D01*
X445839Y1316922D01*
X445840Y1316921D01*
X447736Y1316921D01*
X448323Y1316823D01*
X448812Y1316530D01*
X449805Y1315735D01*
X450302Y1315138D01*
X450306Y1315138D01*
X450305Y1315135D01*
X451602Y1313838D01*
X452100Y1313141D01*
X452106Y1313140D01*
X452105Y1313135D01*
X452703Y1312537D01*
X453202Y1311938D01*
X453206Y1311938D01*
X453205Y1311935D01*
X453703Y1311438D01*
X454001Y1311040D01*
X454006Y1311039D01*
X454005Y1311035D01*
X454302Y1310739D01*
X454499Y1310443D01*
X454532Y1310431D01*
X454540Y1310421D01*
X454640Y1310421D01*
X454687Y1310457D01*
G37*
G36*
X221007Y1310457D02*
X221007Y1310457D01*
X221002Y1310464D01*
X221009Y1310470D01*
X221009Y1323270D01*
X221007Y1323273D01*
X221009Y1323275D01*
X220809Y1325075D01*
X220804Y1325081D01*
X220807Y1325086D01*
X220607Y1325686D01*
X220602Y1325689D01*
X220604Y1325692D01*
X220304Y1326292D01*
X220301Y1326293D01*
X220302Y1326295D01*
X220002Y1326795D01*
X219987Y1326802D01*
X219985Y1326812D01*
X219488Y1327111D01*
X219090Y1327409D01*
X219080Y1327409D01*
X219078Y1327416D01*
X218078Y1327816D01*
X218071Y1327814D01*
X218068Y1327819D01*
X217468Y1327919D01*
X217463Y1327916D01*
X217460Y1327919D01*
X216660Y1327919D01*
X216653Y1327914D01*
X216648Y1327918D01*
X216254Y1327819D01*
X216060Y1327819D01*
X216047Y1327810D01*
X216038Y1327814D01*
X215838Y1327714D01*
X215837Y1327713D01*
X215836Y1327713D01*
X215835Y1327709D01*
X215812Y1327661D01*
X215828Y1327653D01*
X215825Y1327635D01*
X215925Y1327535D01*
X215937Y1327534D01*
X215938Y1327526D01*
X216338Y1327326D01*
X216343Y1327327D01*
X216344Y1327323D01*
X216633Y1327227D01*
X217022Y1326839D01*
X217215Y1326548D01*
X217311Y1326262D01*
X217311Y1325978D01*
X217214Y1325689D01*
X217019Y1325299D01*
X216729Y1325008D01*
X216437Y1324814D01*
X215946Y1324617D01*
X215455Y1324519D01*
X214666Y1324519D01*
X213880Y1324716D01*
X213294Y1325107D01*
X212904Y1325594D01*
X212709Y1326178D01*
X212709Y1326860D01*
X213002Y1327543D01*
X213697Y1328337D01*
X214497Y1329237D01*
X214497Y1329238D01*
X215197Y1330038D01*
X215198Y1330045D01*
X215203Y1330046D01*
X215703Y1330946D01*
X215702Y1330956D01*
X215708Y1330959D01*
X215908Y1331859D01*
X215905Y1331867D01*
X215909Y1331870D01*
X215909Y1332670D01*
X215902Y1332679D01*
X215907Y1332686D01*
X215607Y1333586D01*
X215598Y1333592D01*
X215600Y1333599D01*
X215100Y1334299D01*
X215092Y1334301D01*
X215093Y1334307D01*
X214193Y1335107D01*
X214184Y1335107D01*
X214184Y1335113D01*
X213084Y1335713D01*
X213072Y1335712D01*
X213069Y1335718D01*
X211969Y1335918D01*
X211963Y1335915D01*
X211960Y1335919D01*
X210960Y1335919D01*
X210951Y1335912D01*
X210944Y1335917D01*
X210044Y1335617D01*
X210044Y1335616D01*
X210043Y1335616D01*
X209243Y1335316D01*
X209241Y1335313D01*
X209238Y1335314D01*
X208638Y1335014D01*
X208635Y1335008D01*
X208630Y1335009D01*
X208230Y1334709D01*
X208229Y1334704D01*
X208225Y1334705D01*
X208125Y1334605D01*
X208123Y1334591D01*
X208113Y1334583D01*
X208121Y1334573D01*
X208117Y1334546D01*
X208144Y1334542D01*
X208160Y1334521D01*
X208460Y1334521D01*
X208469Y1334528D01*
X208476Y1334523D01*
X208768Y1334621D01*
X209054Y1334621D01*
X209448Y1334522D01*
X209450Y1334523D01*
X209450Y1334522D01*
X209944Y1334423D01*
X210334Y1334228D01*
X210724Y1333936D01*
X210915Y1333648D01*
X211013Y1333354D01*
X211018Y1333351D01*
X211016Y1333348D01*
X211114Y1333151D01*
X211208Y1332870D01*
X211113Y1332586D01*
X211114Y1332583D01*
X211112Y1332582D01*
X211014Y1332190D01*
X210819Y1331897D01*
X210819Y1331893D01*
X210816Y1331892D01*
X210619Y1331499D01*
X210329Y1331208D01*
X210033Y1331011D01*
X210032Y1331009D01*
X210030Y1331009D01*
X209631Y1330710D01*
X209335Y1330513D01*
X208548Y1330119D01*
X207868Y1330119D01*
X207582Y1330215D01*
X207301Y1330402D01*
X207109Y1330978D01*
X207109Y1331770D01*
X207106Y1331774D01*
X207108Y1331779D01*
X207099Y1331784D01*
X207073Y1331817D01*
X207057Y1331805D01*
X207038Y1331814D01*
X206238Y1331414D01*
X206232Y1331402D01*
X206223Y1331403D01*
X205423Y1330503D01*
X205423Y1330495D01*
X205417Y1330495D01*
X204717Y1329295D01*
X204718Y1329288D01*
X204714Y1329287D01*
X204214Y1327887D01*
X204215Y1327881D01*
X204212Y1327879D01*
X203912Y1326279D01*
X203916Y1326271D01*
X203911Y1326267D01*
X204011Y1324467D01*
X204016Y1324461D01*
X204013Y1324457D01*
X204513Y1322657D01*
X204519Y1322652D01*
X204517Y1322646D01*
X205517Y1320846D01*
X205522Y1320844D01*
X205521Y1320840D01*
X206221Y1319940D01*
X206226Y1319939D01*
X206225Y1319935D01*
X207025Y1319135D01*
X207028Y1319135D01*
X207028Y1319133D01*
X207828Y1318433D01*
X207834Y1318432D01*
X207835Y1318428D01*
X208835Y1317828D01*
X208841Y1317828D01*
X208842Y1317824D01*
X209842Y1317424D01*
X209846Y1317425D01*
X209847Y1317423D01*
X210947Y1317123D01*
X210951Y1317124D01*
X210952Y1317121D01*
X212152Y1316921D01*
X212154Y1316922D01*
X212159Y1316922D01*
X212160Y1316921D01*
X214056Y1316921D01*
X214643Y1316823D01*
X215132Y1316530D01*
X216125Y1315735D01*
X216622Y1315138D01*
X216626Y1315138D01*
X216625Y1315135D01*
X217922Y1313838D01*
X218420Y1313141D01*
X218426Y1313140D01*
X218425Y1313135D01*
X219023Y1312537D01*
X219522Y1311938D01*
X219526Y1311938D01*
X219525Y1311935D01*
X220023Y1311438D01*
X220321Y1311040D01*
X220326Y1311039D01*
X220325Y1311035D01*
X220622Y1310739D01*
X220819Y1310443D01*
X220852Y1310431D01*
X220860Y1310421D01*
X220960Y1310421D01*
X221007Y1310457D01*
G37*
G36*
X688367Y55697D02*
X688367Y55697D01*
X688362Y55704D01*
X688369Y55710D01*
X688369Y68510D01*
X688367Y68513D01*
X688369Y68515D01*
X688169Y70315D01*
X688164Y70321D01*
X688167Y70326D01*
X687967Y70926D01*
X687962Y70929D01*
X687964Y70932D01*
X687664Y71532D01*
X687661Y71533D01*
X687662Y71535D01*
X687362Y72035D01*
X687347Y72042D01*
X687345Y72052D01*
X686848Y72351D01*
X686450Y72649D01*
X686440Y72649D01*
X686438Y72656D01*
X685438Y73056D01*
X685431Y73054D01*
X685428Y73059D01*
X684828Y73159D01*
X684823Y73156D01*
X684820Y73159D01*
X684020Y73159D01*
X684013Y73154D01*
X684008Y73158D01*
X683614Y73059D01*
X683420Y73059D01*
X683407Y73050D01*
X683398Y73054D01*
X683198Y72954D01*
X683197Y72953D01*
X683196Y72953D01*
X683195Y72949D01*
X683172Y72901D01*
X683188Y72893D01*
X683185Y72875D01*
X683285Y72775D01*
X683297Y72774D01*
X683298Y72766D01*
X683698Y72566D01*
X683703Y72567D01*
X683704Y72563D01*
X683993Y72467D01*
X684382Y72079D01*
X684575Y71788D01*
X684671Y71502D01*
X684671Y71218D01*
X684574Y70929D01*
X684379Y70539D01*
X684089Y70248D01*
X683797Y70054D01*
X683306Y69857D01*
X682815Y69759D01*
X682026Y69759D01*
X681240Y69956D01*
X680654Y70347D01*
X680264Y70834D01*
X680069Y71418D01*
X680069Y72100D01*
X680362Y72783D01*
X681057Y73577D01*
X681857Y74477D01*
X681857Y74478D01*
X682557Y75278D01*
X682558Y75285D01*
X682563Y75286D01*
X683063Y76186D01*
X683062Y76196D01*
X683068Y76199D01*
X683268Y77099D01*
X683265Y77107D01*
X683269Y77110D01*
X683269Y77910D01*
X683262Y77919D01*
X683267Y77926D01*
X682967Y78826D01*
X682958Y78832D01*
X682960Y78839D01*
X682460Y79539D01*
X682452Y79541D01*
X682453Y79547D01*
X681553Y80347D01*
X681544Y80347D01*
X681544Y80353D01*
X680444Y80953D01*
X680432Y80952D01*
X680429Y80958D01*
X679329Y81158D01*
X679323Y81155D01*
X679320Y81159D01*
X678320Y81159D01*
X678311Y81152D01*
X678304Y81157D01*
X677404Y80857D01*
X677404Y80856D01*
X677403Y80856D01*
X676603Y80556D01*
X676601Y80553D01*
X676598Y80554D01*
X675998Y80254D01*
X675995Y80248D01*
X675990Y80249D01*
X675590Y79949D01*
X675589Y79944D01*
X675585Y79945D01*
X675485Y79845D01*
X675483Y79831D01*
X675473Y79823D01*
X675481Y79813D01*
X675477Y79786D01*
X675504Y79782D01*
X675520Y79761D01*
X675820Y79761D01*
X675829Y79768D01*
X675836Y79763D01*
X676128Y79861D01*
X676414Y79861D01*
X676808Y79762D01*
X676810Y79763D01*
X676810Y79762D01*
X677304Y79663D01*
X677694Y79468D01*
X678084Y79176D01*
X678275Y78888D01*
X678373Y78594D01*
X678378Y78591D01*
X678376Y78588D01*
X678474Y78391D01*
X678568Y78110D01*
X678473Y77826D01*
X678474Y77823D01*
X678472Y77822D01*
X678374Y77430D01*
X678179Y77137D01*
X678179Y77133D01*
X678176Y77132D01*
X677979Y76739D01*
X677689Y76448D01*
X677393Y76251D01*
X677392Y76249D01*
X677390Y76249D01*
X676991Y75950D01*
X676695Y75753D01*
X675908Y75359D01*
X675228Y75359D01*
X674942Y75455D01*
X674661Y75642D01*
X674469Y76218D01*
X674469Y77010D01*
X674466Y77014D01*
X674468Y77019D01*
X674459Y77024D01*
X674433Y77057D01*
X674417Y77045D01*
X674398Y77054D01*
X673598Y76654D01*
X673592Y76642D01*
X673583Y76643D01*
X672783Y75743D01*
X672783Y75735D01*
X672777Y75735D01*
X672077Y74535D01*
X672078Y74528D01*
X672074Y74527D01*
X671574Y73127D01*
X671575Y73121D01*
X671572Y73119D01*
X671272Y71519D01*
X671276Y71511D01*
X671271Y71507D01*
X671371Y69707D01*
X671376Y69701D01*
X671373Y69697D01*
X671873Y67897D01*
X671879Y67892D01*
X671877Y67886D01*
X672877Y66086D01*
X672882Y66084D01*
X672881Y66080D01*
X673581Y65180D01*
X673586Y65179D01*
X673585Y65175D01*
X674385Y64375D01*
X674388Y64375D01*
X674388Y64373D01*
X675188Y63673D01*
X675194Y63672D01*
X675195Y63668D01*
X676195Y63068D01*
X676201Y63068D01*
X676202Y63064D01*
X677202Y62664D01*
X677206Y62665D01*
X677207Y62663D01*
X678307Y62363D01*
X678311Y62364D01*
X678312Y62361D01*
X679512Y62161D01*
X679514Y62162D01*
X679519Y62162D01*
X679520Y62161D01*
X681416Y62161D01*
X682003Y62063D01*
X682492Y61770D01*
X683485Y60975D01*
X683982Y60378D01*
X683986Y60378D01*
X683985Y60375D01*
X685282Y59078D01*
X685780Y58381D01*
X685786Y58380D01*
X685785Y58375D01*
X686383Y57777D01*
X686882Y57178D01*
X686886Y57178D01*
X686885Y57175D01*
X687383Y56678D01*
X687681Y56280D01*
X687686Y56279D01*
X687685Y56275D01*
X687982Y55979D01*
X688179Y55683D01*
X688212Y55671D01*
X688220Y55661D01*
X688320Y55661D01*
X688367Y55697D01*
G37*
G36*
X454687Y55697D02*
X454687Y55697D01*
X454682Y55704D01*
X454689Y55710D01*
X454689Y68510D01*
X454687Y68513D01*
X454689Y68515D01*
X454489Y70315D01*
X454484Y70321D01*
X454487Y70326D01*
X454287Y70926D01*
X454282Y70929D01*
X454284Y70932D01*
X453984Y71532D01*
X453981Y71533D01*
X453982Y71535D01*
X453682Y72035D01*
X453667Y72042D01*
X453665Y72052D01*
X453168Y72351D01*
X452770Y72649D01*
X452760Y72649D01*
X452758Y72656D01*
X451758Y73056D01*
X451751Y73054D01*
X451748Y73059D01*
X451148Y73159D01*
X451143Y73156D01*
X451140Y73159D01*
X450340Y73159D01*
X450333Y73154D01*
X450328Y73158D01*
X449934Y73059D01*
X449740Y73059D01*
X449727Y73050D01*
X449718Y73054D01*
X449518Y72954D01*
X449517Y72953D01*
X449516Y72953D01*
X449515Y72949D01*
X449492Y72901D01*
X449508Y72893D01*
X449505Y72875D01*
X449605Y72775D01*
X449617Y72774D01*
X449618Y72766D01*
X450018Y72566D01*
X450023Y72567D01*
X450024Y72563D01*
X450313Y72467D01*
X450702Y72079D01*
X450895Y71788D01*
X450991Y71502D01*
X450991Y71218D01*
X450894Y70929D01*
X450699Y70539D01*
X450409Y70248D01*
X450117Y70054D01*
X449626Y69857D01*
X449135Y69759D01*
X448346Y69759D01*
X447560Y69956D01*
X446974Y70347D01*
X446584Y70834D01*
X446389Y71418D01*
X446389Y72100D01*
X446682Y72783D01*
X447377Y73577D01*
X448177Y74477D01*
X448177Y74478D01*
X448877Y75278D01*
X448878Y75285D01*
X448883Y75286D01*
X449383Y76186D01*
X449382Y76196D01*
X449388Y76199D01*
X449588Y77099D01*
X449585Y77107D01*
X449589Y77110D01*
X449589Y77910D01*
X449582Y77919D01*
X449587Y77926D01*
X449287Y78826D01*
X449278Y78832D01*
X449280Y78839D01*
X448780Y79539D01*
X448772Y79541D01*
X448773Y79547D01*
X447873Y80347D01*
X447864Y80347D01*
X447864Y80353D01*
X446764Y80953D01*
X446752Y80952D01*
X446749Y80958D01*
X445649Y81158D01*
X445643Y81155D01*
X445640Y81159D01*
X444640Y81159D01*
X444631Y81152D01*
X444624Y81157D01*
X443724Y80857D01*
X443724Y80856D01*
X443723Y80856D01*
X442923Y80556D01*
X442921Y80553D01*
X442918Y80554D01*
X442318Y80254D01*
X442315Y80248D01*
X442310Y80249D01*
X441910Y79949D01*
X441909Y79944D01*
X441905Y79945D01*
X441805Y79845D01*
X441803Y79831D01*
X441793Y79823D01*
X441801Y79813D01*
X441797Y79786D01*
X441824Y79782D01*
X441840Y79761D01*
X442140Y79761D01*
X442149Y79768D01*
X442156Y79763D01*
X442448Y79861D01*
X442734Y79861D01*
X443128Y79762D01*
X443130Y79763D01*
X443130Y79762D01*
X443624Y79663D01*
X444014Y79468D01*
X444404Y79176D01*
X444595Y78888D01*
X444693Y78594D01*
X444698Y78591D01*
X444696Y78588D01*
X444794Y78391D01*
X444888Y78110D01*
X444793Y77826D01*
X444794Y77823D01*
X444792Y77822D01*
X444694Y77430D01*
X444499Y77137D01*
X444499Y77133D01*
X444496Y77132D01*
X444299Y76739D01*
X444009Y76448D01*
X443713Y76251D01*
X443712Y76249D01*
X443710Y76249D01*
X443311Y75950D01*
X443015Y75753D01*
X442228Y75359D01*
X441548Y75359D01*
X441262Y75455D01*
X440981Y75642D01*
X440789Y76218D01*
X440789Y77010D01*
X440786Y77014D01*
X440788Y77019D01*
X440779Y77024D01*
X440753Y77057D01*
X440737Y77045D01*
X440718Y77054D01*
X439918Y76654D01*
X439912Y76642D01*
X439903Y76643D01*
X439103Y75743D01*
X439103Y75735D01*
X439097Y75735D01*
X438397Y74535D01*
X438398Y74528D01*
X438394Y74527D01*
X437894Y73127D01*
X437895Y73121D01*
X437892Y73119D01*
X437592Y71519D01*
X437596Y71511D01*
X437591Y71507D01*
X437691Y69707D01*
X437696Y69701D01*
X437693Y69697D01*
X438193Y67897D01*
X438199Y67892D01*
X438197Y67886D01*
X439197Y66086D01*
X439202Y66084D01*
X439201Y66080D01*
X439901Y65180D01*
X439906Y65179D01*
X439905Y65175D01*
X440705Y64375D01*
X440708Y64375D01*
X440708Y64373D01*
X441508Y63673D01*
X441514Y63672D01*
X441515Y63668D01*
X442515Y63068D01*
X442521Y63068D01*
X442522Y63064D01*
X443522Y62664D01*
X443526Y62665D01*
X443527Y62663D01*
X444627Y62363D01*
X444631Y62364D01*
X444632Y62361D01*
X445832Y62161D01*
X445834Y62162D01*
X445839Y62162D01*
X445840Y62161D01*
X447736Y62161D01*
X448323Y62063D01*
X448812Y61770D01*
X449805Y60975D01*
X450302Y60378D01*
X450306Y60378D01*
X450305Y60375D01*
X451602Y59078D01*
X452100Y58381D01*
X452106Y58380D01*
X452105Y58375D01*
X452703Y57777D01*
X453202Y57178D01*
X453206Y57178D01*
X453205Y57175D01*
X453703Y56678D01*
X454001Y56280D01*
X454006Y56279D01*
X454005Y56275D01*
X454302Y55979D01*
X454499Y55683D01*
X454532Y55671D01*
X454540Y55661D01*
X454640Y55661D01*
X454687Y55697D01*
G37*
G36*
X221007Y55697D02*
X221007Y55697D01*
X221002Y55704D01*
X221009Y55710D01*
X221009Y68510D01*
X221007Y68513D01*
X221009Y68515D01*
X220809Y70315D01*
X220804Y70321D01*
X220807Y70326D01*
X220607Y70926D01*
X220602Y70929D01*
X220604Y70932D01*
X220304Y71532D01*
X220301Y71533D01*
X220302Y71535D01*
X220002Y72035D01*
X219987Y72042D01*
X219985Y72052D01*
X219488Y72351D01*
X219090Y72649D01*
X219080Y72649D01*
X219078Y72656D01*
X218078Y73056D01*
X218071Y73054D01*
X218068Y73059D01*
X217468Y73159D01*
X217463Y73156D01*
X217460Y73159D01*
X216660Y73159D01*
X216653Y73154D01*
X216648Y73158D01*
X216254Y73059D01*
X216060Y73059D01*
X216047Y73050D01*
X216038Y73054D01*
X215838Y72954D01*
X215837Y72953D01*
X215836Y72953D01*
X215835Y72949D01*
X215812Y72901D01*
X215828Y72893D01*
X215825Y72875D01*
X215925Y72775D01*
X215937Y72774D01*
X215938Y72766D01*
X216338Y72566D01*
X216343Y72567D01*
X216344Y72563D01*
X216633Y72467D01*
X217022Y72079D01*
X217215Y71788D01*
X217311Y71502D01*
X217311Y71218D01*
X217214Y70929D01*
X217019Y70539D01*
X216729Y70248D01*
X216437Y70054D01*
X215946Y69857D01*
X215455Y69759D01*
X214666Y69759D01*
X213880Y69956D01*
X213294Y70347D01*
X212904Y70834D01*
X212709Y71418D01*
X212709Y72100D01*
X213002Y72783D01*
X213697Y73577D01*
X214497Y74477D01*
X214497Y74478D01*
X215197Y75278D01*
X215198Y75285D01*
X215203Y75286D01*
X215703Y76186D01*
X215702Y76196D01*
X215708Y76199D01*
X215908Y77099D01*
X215905Y77107D01*
X215909Y77110D01*
X215909Y77910D01*
X215902Y77919D01*
X215907Y77926D01*
X215607Y78826D01*
X215598Y78832D01*
X215600Y78839D01*
X215100Y79539D01*
X215092Y79541D01*
X215093Y79547D01*
X214193Y80347D01*
X214184Y80347D01*
X214184Y80353D01*
X213084Y80953D01*
X213072Y80952D01*
X213069Y80958D01*
X211969Y81158D01*
X211963Y81155D01*
X211960Y81159D01*
X210960Y81159D01*
X210951Y81152D01*
X210944Y81157D01*
X210044Y80857D01*
X210044Y80856D01*
X210043Y80856D01*
X209243Y80556D01*
X209241Y80553D01*
X209238Y80554D01*
X208638Y80254D01*
X208635Y80248D01*
X208630Y80249D01*
X208230Y79949D01*
X208229Y79944D01*
X208225Y79945D01*
X208125Y79845D01*
X208123Y79831D01*
X208113Y79823D01*
X208121Y79813D01*
X208117Y79786D01*
X208144Y79782D01*
X208160Y79761D01*
X208460Y79761D01*
X208469Y79768D01*
X208476Y79763D01*
X208768Y79861D01*
X209054Y79861D01*
X209448Y79762D01*
X209450Y79763D01*
X209450Y79762D01*
X209944Y79663D01*
X210334Y79468D01*
X210724Y79176D01*
X210915Y78888D01*
X211013Y78594D01*
X211018Y78591D01*
X211016Y78588D01*
X211114Y78391D01*
X211208Y78110D01*
X211113Y77826D01*
X211114Y77823D01*
X211112Y77822D01*
X211014Y77430D01*
X210819Y77137D01*
X210819Y77133D01*
X210816Y77132D01*
X210619Y76739D01*
X210329Y76448D01*
X210033Y76251D01*
X210032Y76249D01*
X210030Y76249D01*
X209631Y75950D01*
X209335Y75753D01*
X208548Y75359D01*
X207868Y75359D01*
X207582Y75455D01*
X207301Y75642D01*
X207109Y76218D01*
X207109Y77010D01*
X207106Y77014D01*
X207108Y77019D01*
X207099Y77024D01*
X207073Y77057D01*
X207057Y77045D01*
X207038Y77054D01*
X206238Y76654D01*
X206232Y76642D01*
X206223Y76643D01*
X205423Y75743D01*
X205423Y75735D01*
X205417Y75735D01*
X204717Y74535D01*
X204718Y74528D01*
X204714Y74527D01*
X204214Y73127D01*
X204215Y73121D01*
X204212Y73119D01*
X203912Y71519D01*
X203916Y71511D01*
X203911Y71507D01*
X204011Y69707D01*
X204016Y69701D01*
X204013Y69697D01*
X204513Y67897D01*
X204519Y67892D01*
X204517Y67886D01*
X205517Y66086D01*
X205522Y66084D01*
X205521Y66080D01*
X206221Y65180D01*
X206226Y65179D01*
X206225Y65175D01*
X207025Y64375D01*
X207028Y64375D01*
X207028Y64373D01*
X207828Y63673D01*
X207834Y63672D01*
X207835Y63668D01*
X208835Y63068D01*
X208841Y63068D01*
X208842Y63064D01*
X209842Y62664D01*
X209846Y62665D01*
X209847Y62663D01*
X210947Y62363D01*
X210951Y62364D01*
X210952Y62361D01*
X212152Y62161D01*
X212154Y62162D01*
X212159Y62162D01*
X212160Y62161D01*
X214056Y62161D01*
X214643Y62063D01*
X215132Y61770D01*
X216125Y60975D01*
X216622Y60378D01*
X216626Y60378D01*
X216625Y60375D01*
X217922Y59078D01*
X218420Y58381D01*
X218426Y58380D01*
X218425Y58375D01*
X219023Y57777D01*
X219522Y57178D01*
X219526Y57178D01*
X219525Y57175D01*
X220023Y56678D01*
X220321Y56280D01*
X220326Y56279D01*
X220325Y56275D01*
X220622Y55979D01*
X220819Y55683D01*
X220852Y55671D01*
X220860Y55661D01*
X220960Y55661D01*
X221007Y55697D01*
G37*
G36*
X922047Y55697D02*
X922047Y55697D01*
X922042Y55704D01*
X922049Y55710D01*
X922049Y68510D01*
X922047Y68513D01*
X922049Y68515D01*
X921849Y70315D01*
X921844Y70321D01*
X921847Y70326D01*
X921647Y70926D01*
X921642Y70929D01*
X921644Y70932D01*
X921344Y71532D01*
X921341Y71533D01*
X921342Y71535D01*
X921042Y72035D01*
X921027Y72042D01*
X921025Y72052D01*
X920528Y72351D01*
X920130Y72649D01*
X920120Y72649D01*
X920118Y72656D01*
X919118Y73056D01*
X919111Y73054D01*
X919108Y73059D01*
X918508Y73159D01*
X918503Y73156D01*
X918500Y73159D01*
X917700Y73159D01*
X917693Y73154D01*
X917688Y73158D01*
X917294Y73059D01*
X917100Y73059D01*
X917087Y73050D01*
X917078Y73054D01*
X916878Y72954D01*
X916877Y72953D01*
X916876Y72953D01*
X916875Y72949D01*
X916852Y72901D01*
X916868Y72893D01*
X916865Y72875D01*
X916965Y72775D01*
X916977Y72774D01*
X916978Y72766D01*
X917378Y72566D01*
X917383Y72567D01*
X917384Y72563D01*
X917673Y72467D01*
X918062Y72079D01*
X918255Y71788D01*
X918351Y71502D01*
X918351Y71218D01*
X918254Y70929D01*
X918059Y70539D01*
X917769Y70248D01*
X917477Y70054D01*
X916986Y69857D01*
X916495Y69759D01*
X915706Y69759D01*
X914920Y69956D01*
X914334Y70347D01*
X913944Y70834D01*
X913749Y71418D01*
X913749Y72100D01*
X914042Y72783D01*
X914737Y73577D01*
X915537Y74477D01*
X915537Y74478D01*
X916237Y75278D01*
X916238Y75285D01*
X916243Y75286D01*
X916743Y76186D01*
X916742Y76196D01*
X916748Y76199D01*
X916948Y77099D01*
X916945Y77107D01*
X916949Y77110D01*
X916949Y77910D01*
X916942Y77919D01*
X916947Y77926D01*
X916647Y78826D01*
X916638Y78832D01*
X916640Y78839D01*
X916140Y79539D01*
X916132Y79541D01*
X916133Y79547D01*
X915233Y80347D01*
X915224Y80347D01*
X915224Y80353D01*
X914124Y80953D01*
X914112Y80952D01*
X914109Y80958D01*
X913009Y81158D01*
X913003Y81155D01*
X913000Y81159D01*
X912000Y81159D01*
X911991Y81152D01*
X911984Y81157D01*
X911084Y80857D01*
X911084Y80856D01*
X911083Y80856D01*
X910283Y80556D01*
X910281Y80553D01*
X910278Y80554D01*
X909678Y80254D01*
X909675Y80248D01*
X909670Y80249D01*
X909270Y79949D01*
X909269Y79944D01*
X909265Y79945D01*
X909165Y79845D01*
X909163Y79831D01*
X909153Y79823D01*
X909161Y79813D01*
X909157Y79786D01*
X909184Y79782D01*
X909200Y79761D01*
X909500Y79761D01*
X909509Y79768D01*
X909516Y79763D01*
X909808Y79861D01*
X910094Y79861D01*
X910488Y79762D01*
X910490Y79763D01*
X910490Y79762D01*
X910984Y79663D01*
X911374Y79468D01*
X911764Y79176D01*
X911955Y78888D01*
X912053Y78594D01*
X912058Y78591D01*
X912056Y78588D01*
X912154Y78391D01*
X912248Y78110D01*
X912153Y77826D01*
X912154Y77823D01*
X912152Y77822D01*
X912054Y77430D01*
X911859Y77137D01*
X911859Y77133D01*
X911856Y77132D01*
X911659Y76739D01*
X911369Y76448D01*
X911073Y76251D01*
X911072Y76249D01*
X911070Y76249D01*
X910671Y75950D01*
X910375Y75753D01*
X909588Y75359D01*
X908908Y75359D01*
X908622Y75455D01*
X908341Y75642D01*
X908149Y76218D01*
X908149Y77010D01*
X908146Y77014D01*
X908148Y77019D01*
X908139Y77024D01*
X908113Y77057D01*
X908097Y77045D01*
X908078Y77054D01*
X907278Y76654D01*
X907272Y76642D01*
X907263Y76643D01*
X906463Y75743D01*
X906463Y75735D01*
X906457Y75735D01*
X905757Y74535D01*
X905758Y74528D01*
X905754Y74527D01*
X905254Y73127D01*
X905255Y73121D01*
X905252Y73119D01*
X904952Y71519D01*
X904956Y71511D01*
X904951Y71507D01*
X905051Y69707D01*
X905056Y69701D01*
X905053Y69697D01*
X905553Y67897D01*
X905559Y67892D01*
X905557Y67886D01*
X906557Y66086D01*
X906562Y66084D01*
X906561Y66080D01*
X907261Y65180D01*
X907266Y65179D01*
X907265Y65175D01*
X908065Y64375D01*
X908068Y64375D01*
X908068Y64373D01*
X908868Y63673D01*
X908874Y63672D01*
X908875Y63668D01*
X909875Y63068D01*
X909881Y63068D01*
X909882Y63064D01*
X910882Y62664D01*
X910886Y62665D01*
X910887Y62663D01*
X911987Y62363D01*
X911991Y62364D01*
X911992Y62361D01*
X913192Y62161D01*
X913194Y62162D01*
X913199Y62162D01*
X913200Y62161D01*
X915096Y62161D01*
X915683Y62063D01*
X916172Y61770D01*
X917165Y60975D01*
X917662Y60378D01*
X917666Y60378D01*
X917665Y60375D01*
X918962Y59078D01*
X919460Y58381D01*
X919466Y58380D01*
X919465Y58375D01*
X920063Y57777D01*
X920562Y57178D01*
X920566Y57178D01*
X920565Y57175D01*
X921063Y56678D01*
X921361Y56280D01*
X921366Y56279D01*
X921365Y56275D01*
X921662Y55979D01*
X921859Y55683D01*
X921892Y55671D01*
X921900Y55661D01*
X922000Y55661D01*
X922047Y55697D01*
G37*
G36*
X221007Y683077D02*
X221007Y683077D01*
X221002Y683084D01*
X221009Y683090D01*
X221009Y695890D01*
X221007Y695893D01*
X221009Y695895D01*
X220809Y697695D01*
X220804Y697701D01*
X220807Y697706D01*
X220607Y698306D01*
X220602Y698309D01*
X220604Y698312D01*
X220304Y698912D01*
X220301Y698913D01*
X220302Y698915D01*
X220002Y699415D01*
X219987Y699422D01*
X219985Y699432D01*
X219488Y699731D01*
X219090Y700029D01*
X219080Y700029D01*
X219078Y700036D01*
X218078Y700436D01*
X218071Y700434D01*
X218068Y700439D01*
X217468Y700539D01*
X217463Y700536D01*
X217460Y700539D01*
X216660Y700539D01*
X216653Y700534D01*
X216648Y700538D01*
X216254Y700439D01*
X216060Y700439D01*
X216047Y700430D01*
X216038Y700434D01*
X215838Y700334D01*
X215837Y700333D01*
X215836Y700333D01*
X215835Y700329D01*
X215812Y700281D01*
X215828Y700273D01*
X215825Y700255D01*
X215925Y700155D01*
X215937Y700154D01*
X215938Y700146D01*
X216338Y699946D01*
X216343Y699947D01*
X216344Y699943D01*
X216633Y699847D01*
X217022Y699459D01*
X217215Y699168D01*
X217311Y698882D01*
X217311Y698598D01*
X217214Y698309D01*
X217019Y697919D01*
X216729Y697628D01*
X216437Y697434D01*
X215946Y697237D01*
X215455Y697139D01*
X214666Y697139D01*
X213880Y697336D01*
X213294Y697727D01*
X212904Y698214D01*
X212709Y698798D01*
X212709Y699480D01*
X213002Y700163D01*
X213697Y700957D01*
X214497Y701857D01*
X214497Y701858D01*
X215197Y702658D01*
X215198Y702665D01*
X215203Y702666D01*
X215703Y703566D01*
X215702Y703576D01*
X215708Y703579D01*
X215908Y704479D01*
X215905Y704487D01*
X215909Y704490D01*
X215909Y705290D01*
X215902Y705299D01*
X215907Y705306D01*
X215607Y706206D01*
X215598Y706212D01*
X215600Y706219D01*
X215100Y706919D01*
X215092Y706921D01*
X215093Y706927D01*
X214193Y707727D01*
X214184Y707727D01*
X214184Y707733D01*
X213084Y708333D01*
X213072Y708332D01*
X213069Y708338D01*
X211969Y708538D01*
X211963Y708535D01*
X211960Y708539D01*
X210960Y708539D01*
X210951Y708532D01*
X210944Y708537D01*
X210044Y708237D01*
X210044Y708236D01*
X210043Y708236D01*
X209243Y707936D01*
X209241Y707933D01*
X209238Y707934D01*
X208638Y707634D01*
X208635Y707628D01*
X208630Y707629D01*
X208230Y707329D01*
X208229Y707324D01*
X208225Y707325D01*
X208125Y707225D01*
X208123Y707211D01*
X208113Y707203D01*
X208121Y707193D01*
X208117Y707166D01*
X208144Y707162D01*
X208160Y707141D01*
X208460Y707141D01*
X208469Y707148D01*
X208476Y707143D01*
X208768Y707241D01*
X209054Y707241D01*
X209448Y707142D01*
X209450Y707143D01*
X209450Y707142D01*
X209944Y707043D01*
X210334Y706848D01*
X210724Y706556D01*
X210915Y706268D01*
X211013Y705974D01*
X211018Y705971D01*
X211016Y705968D01*
X211114Y705771D01*
X211208Y705490D01*
X211113Y705206D01*
X211114Y705203D01*
X211112Y705202D01*
X211014Y704810D01*
X210819Y704517D01*
X210819Y704513D01*
X210816Y704512D01*
X210619Y704119D01*
X210329Y703828D01*
X210033Y703631D01*
X210032Y703629D01*
X210030Y703629D01*
X209631Y703330D01*
X209335Y703133D01*
X208548Y702739D01*
X207868Y702739D01*
X207582Y702835D01*
X207301Y703022D01*
X207109Y703598D01*
X207109Y704390D01*
X207106Y704394D01*
X207108Y704399D01*
X207099Y704404D01*
X207073Y704437D01*
X207057Y704425D01*
X207038Y704434D01*
X206238Y704034D01*
X206232Y704022D01*
X206223Y704023D01*
X205423Y703123D01*
X205423Y703115D01*
X205417Y703115D01*
X204717Y701915D01*
X204718Y701908D01*
X204714Y701907D01*
X204214Y700507D01*
X204215Y700501D01*
X204212Y700499D01*
X203912Y698899D01*
X203916Y698891D01*
X203911Y698887D01*
X204011Y697087D01*
X204016Y697081D01*
X204013Y697077D01*
X204513Y695277D01*
X204519Y695272D01*
X204517Y695266D01*
X205517Y693466D01*
X205522Y693464D01*
X205521Y693460D01*
X206221Y692560D01*
X206226Y692559D01*
X206225Y692555D01*
X207025Y691755D01*
X207028Y691755D01*
X207028Y691753D01*
X207828Y691053D01*
X207834Y691052D01*
X207835Y691048D01*
X208835Y690448D01*
X208841Y690448D01*
X208842Y690444D01*
X209842Y690044D01*
X209846Y690045D01*
X209847Y690043D01*
X210947Y689743D01*
X210951Y689744D01*
X210952Y689741D01*
X212152Y689541D01*
X212154Y689542D01*
X212159Y689542D01*
X212160Y689541D01*
X214056Y689541D01*
X214643Y689443D01*
X215132Y689150D01*
X216125Y688355D01*
X216622Y687758D01*
X216626Y687758D01*
X216625Y687755D01*
X217922Y686458D01*
X218420Y685761D01*
X218426Y685760D01*
X218425Y685755D01*
X219023Y685157D01*
X219522Y684558D01*
X219526Y684558D01*
X219525Y684555D01*
X220023Y684058D01*
X220321Y683660D01*
X220326Y683659D01*
X220325Y683655D01*
X220622Y683359D01*
X220819Y683063D01*
X220852Y683051D01*
X220860Y683041D01*
X220960Y683041D01*
X221007Y683077D01*
G37*
G36*
X454687Y683077D02*
X454687Y683077D01*
X454682Y683084D01*
X454689Y683090D01*
X454689Y695890D01*
X454687Y695893D01*
X454689Y695895D01*
X454489Y697695D01*
X454484Y697701D01*
X454487Y697706D01*
X454287Y698306D01*
X454282Y698309D01*
X454284Y698312D01*
X453984Y698912D01*
X453981Y698913D01*
X453982Y698915D01*
X453682Y699415D01*
X453667Y699422D01*
X453665Y699432D01*
X453168Y699731D01*
X452770Y700029D01*
X452760Y700029D01*
X452758Y700036D01*
X451758Y700436D01*
X451751Y700434D01*
X451748Y700439D01*
X451148Y700539D01*
X451143Y700536D01*
X451140Y700539D01*
X450340Y700539D01*
X450333Y700534D01*
X450328Y700538D01*
X449934Y700439D01*
X449740Y700439D01*
X449727Y700430D01*
X449718Y700434D01*
X449518Y700334D01*
X449517Y700333D01*
X449516Y700333D01*
X449515Y700329D01*
X449492Y700281D01*
X449508Y700273D01*
X449505Y700255D01*
X449605Y700155D01*
X449617Y700154D01*
X449618Y700146D01*
X450018Y699946D01*
X450023Y699947D01*
X450024Y699943D01*
X450313Y699847D01*
X450702Y699459D01*
X450895Y699168D01*
X450991Y698882D01*
X450991Y698598D01*
X450894Y698309D01*
X450699Y697919D01*
X450409Y697628D01*
X450117Y697434D01*
X449626Y697237D01*
X449135Y697139D01*
X448346Y697139D01*
X447560Y697336D01*
X446974Y697727D01*
X446584Y698214D01*
X446389Y698798D01*
X446389Y699480D01*
X446682Y700163D01*
X447377Y700957D01*
X448177Y701857D01*
X448177Y701858D01*
X448877Y702658D01*
X448878Y702665D01*
X448883Y702666D01*
X449383Y703566D01*
X449382Y703576D01*
X449388Y703579D01*
X449588Y704479D01*
X449585Y704487D01*
X449589Y704490D01*
X449589Y705290D01*
X449582Y705299D01*
X449587Y705306D01*
X449287Y706206D01*
X449278Y706212D01*
X449280Y706219D01*
X448780Y706919D01*
X448772Y706921D01*
X448773Y706927D01*
X447873Y707727D01*
X447864Y707727D01*
X447864Y707733D01*
X446764Y708333D01*
X446752Y708332D01*
X446749Y708338D01*
X445649Y708538D01*
X445643Y708535D01*
X445640Y708539D01*
X444640Y708539D01*
X444631Y708532D01*
X444624Y708537D01*
X443724Y708237D01*
X443724Y708236D01*
X443723Y708236D01*
X442923Y707936D01*
X442921Y707933D01*
X442918Y707934D01*
X442318Y707634D01*
X442315Y707628D01*
X442310Y707629D01*
X441910Y707329D01*
X441909Y707324D01*
X441905Y707325D01*
X441805Y707225D01*
X441803Y707211D01*
X441793Y707203D01*
X441801Y707193D01*
X441797Y707166D01*
X441824Y707162D01*
X441840Y707141D01*
X442140Y707141D01*
X442149Y707148D01*
X442156Y707143D01*
X442448Y707241D01*
X442734Y707241D01*
X443128Y707142D01*
X443130Y707143D01*
X443130Y707142D01*
X443624Y707043D01*
X444014Y706848D01*
X444404Y706556D01*
X444595Y706268D01*
X444693Y705974D01*
X444698Y705971D01*
X444696Y705968D01*
X444794Y705771D01*
X444888Y705490D01*
X444793Y705206D01*
X444794Y705203D01*
X444792Y705202D01*
X444694Y704810D01*
X444499Y704517D01*
X444499Y704513D01*
X444496Y704512D01*
X444299Y704119D01*
X444009Y703828D01*
X443713Y703631D01*
X443712Y703629D01*
X443710Y703629D01*
X443311Y703330D01*
X443015Y703133D01*
X442228Y702739D01*
X441548Y702739D01*
X441262Y702835D01*
X440981Y703022D01*
X440789Y703598D01*
X440789Y704390D01*
X440786Y704394D01*
X440788Y704399D01*
X440779Y704404D01*
X440753Y704437D01*
X440737Y704425D01*
X440718Y704434D01*
X439918Y704034D01*
X439912Y704022D01*
X439903Y704023D01*
X439103Y703123D01*
X439103Y703115D01*
X439097Y703115D01*
X438397Y701915D01*
X438398Y701908D01*
X438394Y701907D01*
X437894Y700507D01*
X437895Y700501D01*
X437892Y700499D01*
X437592Y698899D01*
X437596Y698891D01*
X437591Y698887D01*
X437691Y697087D01*
X437696Y697081D01*
X437693Y697077D01*
X438193Y695277D01*
X438199Y695272D01*
X438197Y695266D01*
X439197Y693466D01*
X439202Y693464D01*
X439201Y693460D01*
X439901Y692560D01*
X439906Y692559D01*
X439905Y692555D01*
X440705Y691755D01*
X440708Y691755D01*
X440708Y691753D01*
X441508Y691053D01*
X441514Y691052D01*
X441515Y691048D01*
X442515Y690448D01*
X442521Y690448D01*
X442522Y690444D01*
X443522Y690044D01*
X443526Y690045D01*
X443527Y690043D01*
X444627Y689743D01*
X444631Y689744D01*
X444632Y689741D01*
X445832Y689541D01*
X445834Y689542D01*
X445839Y689542D01*
X445840Y689541D01*
X447736Y689541D01*
X448323Y689443D01*
X448812Y689150D01*
X449805Y688355D01*
X450302Y687758D01*
X450306Y687758D01*
X450305Y687755D01*
X451602Y686458D01*
X452100Y685761D01*
X452106Y685760D01*
X452105Y685755D01*
X452703Y685157D01*
X453202Y684558D01*
X453206Y684558D01*
X453205Y684555D01*
X453703Y684058D01*
X454001Y683660D01*
X454006Y683659D01*
X454005Y683655D01*
X454302Y683359D01*
X454499Y683063D01*
X454532Y683051D01*
X454540Y683041D01*
X454640Y683041D01*
X454687Y683077D01*
G37*
G36*
X922047Y683077D02*
X922047Y683077D01*
X922042Y683084D01*
X922049Y683090D01*
X922049Y695890D01*
X922047Y695893D01*
X922049Y695895D01*
X921849Y697695D01*
X921844Y697701D01*
X921847Y697706D01*
X921647Y698306D01*
X921642Y698309D01*
X921644Y698312D01*
X921344Y698912D01*
X921341Y698913D01*
X921342Y698915D01*
X921042Y699415D01*
X921027Y699422D01*
X921025Y699432D01*
X920528Y699731D01*
X920130Y700029D01*
X920120Y700029D01*
X920118Y700036D01*
X919118Y700436D01*
X919111Y700434D01*
X919108Y700439D01*
X918508Y700539D01*
X918503Y700536D01*
X918500Y700539D01*
X917700Y700539D01*
X917693Y700534D01*
X917688Y700538D01*
X917294Y700439D01*
X917100Y700439D01*
X917087Y700430D01*
X917078Y700434D01*
X916878Y700334D01*
X916877Y700333D01*
X916876Y700333D01*
X916875Y700329D01*
X916852Y700281D01*
X916868Y700273D01*
X916865Y700255D01*
X916965Y700155D01*
X916977Y700154D01*
X916978Y700146D01*
X917378Y699946D01*
X917383Y699947D01*
X917384Y699943D01*
X917673Y699847D01*
X918062Y699459D01*
X918255Y699168D01*
X918351Y698882D01*
X918351Y698598D01*
X918254Y698309D01*
X918059Y697919D01*
X917769Y697628D01*
X917477Y697434D01*
X916986Y697237D01*
X916495Y697139D01*
X915706Y697139D01*
X914920Y697336D01*
X914334Y697727D01*
X913944Y698214D01*
X913749Y698798D01*
X913749Y699480D01*
X914042Y700163D01*
X914737Y700957D01*
X915537Y701857D01*
X915537Y701858D01*
X916237Y702658D01*
X916238Y702665D01*
X916243Y702666D01*
X916743Y703566D01*
X916742Y703576D01*
X916748Y703579D01*
X916948Y704479D01*
X916945Y704487D01*
X916949Y704490D01*
X916949Y705290D01*
X916942Y705299D01*
X916947Y705306D01*
X916647Y706206D01*
X916638Y706212D01*
X916640Y706219D01*
X916140Y706919D01*
X916132Y706921D01*
X916133Y706927D01*
X915233Y707727D01*
X915224Y707727D01*
X915224Y707733D01*
X914124Y708333D01*
X914112Y708332D01*
X914109Y708338D01*
X913009Y708538D01*
X913003Y708535D01*
X913000Y708539D01*
X912000Y708539D01*
X911991Y708532D01*
X911984Y708537D01*
X911084Y708237D01*
X911084Y708236D01*
X911083Y708236D01*
X910283Y707936D01*
X910281Y707933D01*
X910278Y707934D01*
X909678Y707634D01*
X909675Y707628D01*
X909670Y707629D01*
X909270Y707329D01*
X909269Y707324D01*
X909265Y707325D01*
X909165Y707225D01*
X909163Y707211D01*
X909153Y707203D01*
X909161Y707193D01*
X909157Y707166D01*
X909184Y707162D01*
X909200Y707141D01*
X909500Y707141D01*
X909509Y707148D01*
X909516Y707143D01*
X909808Y707241D01*
X910094Y707241D01*
X910488Y707142D01*
X910490Y707143D01*
X910490Y707142D01*
X910984Y707043D01*
X911374Y706848D01*
X911764Y706556D01*
X911955Y706268D01*
X912053Y705974D01*
X912058Y705971D01*
X912056Y705968D01*
X912154Y705771D01*
X912248Y705490D01*
X912153Y705206D01*
X912154Y705203D01*
X912152Y705202D01*
X912054Y704810D01*
X911859Y704517D01*
X911859Y704513D01*
X911856Y704512D01*
X911659Y704119D01*
X911369Y703828D01*
X911073Y703631D01*
X911072Y703629D01*
X911070Y703629D01*
X910671Y703330D01*
X910375Y703133D01*
X909588Y702739D01*
X908908Y702739D01*
X908622Y702835D01*
X908341Y703022D01*
X908149Y703598D01*
X908149Y704390D01*
X908146Y704394D01*
X908148Y704399D01*
X908139Y704404D01*
X908113Y704437D01*
X908097Y704425D01*
X908078Y704434D01*
X907278Y704034D01*
X907272Y704022D01*
X907263Y704023D01*
X906463Y703123D01*
X906463Y703115D01*
X906457Y703115D01*
X905757Y701915D01*
X905758Y701908D01*
X905754Y701907D01*
X905254Y700507D01*
X905255Y700501D01*
X905252Y700499D01*
X904952Y698899D01*
X904956Y698891D01*
X904951Y698887D01*
X905051Y697087D01*
X905056Y697081D01*
X905053Y697077D01*
X905553Y695277D01*
X905559Y695272D01*
X905557Y695266D01*
X906557Y693466D01*
X906562Y693464D01*
X906561Y693460D01*
X907261Y692560D01*
X907266Y692559D01*
X907265Y692555D01*
X908065Y691755D01*
X908068Y691755D01*
X908068Y691753D01*
X908868Y691053D01*
X908874Y691052D01*
X908875Y691048D01*
X909875Y690448D01*
X909881Y690448D01*
X909882Y690444D01*
X910882Y690044D01*
X910886Y690045D01*
X910887Y690043D01*
X911987Y689743D01*
X911991Y689744D01*
X911992Y689741D01*
X913192Y689541D01*
X913194Y689542D01*
X913199Y689542D01*
X913200Y689541D01*
X915096Y689541D01*
X915683Y689443D01*
X916172Y689150D01*
X917165Y688355D01*
X917662Y687758D01*
X917666Y687758D01*
X917665Y687755D01*
X918962Y686458D01*
X919460Y685761D01*
X919466Y685760D01*
X919465Y685755D01*
X920063Y685157D01*
X920562Y684558D01*
X920566Y684558D01*
X920565Y684555D01*
X921063Y684058D01*
X921361Y683660D01*
X921366Y683659D01*
X921365Y683655D01*
X921662Y683359D01*
X921859Y683063D01*
X921892Y683051D01*
X921900Y683041D01*
X922000Y683041D01*
X922047Y683077D01*
G37*
G36*
X688367Y683077D02*
X688367Y683077D01*
X688362Y683084D01*
X688369Y683090D01*
X688369Y695890D01*
X688367Y695893D01*
X688369Y695895D01*
X688169Y697695D01*
X688164Y697701D01*
X688167Y697706D01*
X687967Y698306D01*
X687962Y698309D01*
X687964Y698312D01*
X687664Y698912D01*
X687661Y698913D01*
X687662Y698915D01*
X687362Y699415D01*
X687347Y699422D01*
X687345Y699432D01*
X686848Y699731D01*
X686450Y700029D01*
X686440Y700029D01*
X686438Y700036D01*
X685438Y700436D01*
X685431Y700434D01*
X685428Y700439D01*
X684828Y700539D01*
X684823Y700536D01*
X684820Y700539D01*
X684020Y700539D01*
X684013Y700534D01*
X684008Y700538D01*
X683614Y700439D01*
X683420Y700439D01*
X683407Y700430D01*
X683398Y700434D01*
X683198Y700334D01*
X683197Y700333D01*
X683196Y700333D01*
X683195Y700329D01*
X683172Y700281D01*
X683188Y700273D01*
X683185Y700255D01*
X683285Y700155D01*
X683297Y700154D01*
X683298Y700146D01*
X683698Y699946D01*
X683703Y699947D01*
X683704Y699943D01*
X683993Y699847D01*
X684382Y699459D01*
X684575Y699168D01*
X684671Y698882D01*
X684671Y698598D01*
X684574Y698309D01*
X684379Y697919D01*
X684089Y697628D01*
X683797Y697434D01*
X683306Y697237D01*
X682815Y697139D01*
X682026Y697139D01*
X681240Y697336D01*
X680654Y697727D01*
X680264Y698214D01*
X680069Y698798D01*
X680069Y699480D01*
X680362Y700163D01*
X681057Y700957D01*
X681857Y701857D01*
X681857Y701858D01*
X682557Y702658D01*
X682558Y702665D01*
X682563Y702666D01*
X683063Y703566D01*
X683062Y703576D01*
X683068Y703579D01*
X683268Y704479D01*
X683265Y704487D01*
X683269Y704490D01*
X683269Y705290D01*
X683262Y705299D01*
X683267Y705306D01*
X682967Y706206D01*
X682958Y706212D01*
X682960Y706219D01*
X682460Y706919D01*
X682452Y706921D01*
X682453Y706927D01*
X681553Y707727D01*
X681544Y707727D01*
X681544Y707733D01*
X680444Y708333D01*
X680432Y708332D01*
X680429Y708338D01*
X679329Y708538D01*
X679323Y708535D01*
X679320Y708539D01*
X678320Y708539D01*
X678311Y708532D01*
X678304Y708537D01*
X677404Y708237D01*
X677404Y708236D01*
X677403Y708236D01*
X676603Y707936D01*
X676601Y707933D01*
X676598Y707934D01*
X675998Y707634D01*
X675995Y707628D01*
X675990Y707629D01*
X675590Y707329D01*
X675589Y707324D01*
X675585Y707325D01*
X675485Y707225D01*
X675483Y707211D01*
X675473Y707203D01*
X675481Y707193D01*
X675477Y707166D01*
X675504Y707162D01*
X675520Y707141D01*
X675820Y707141D01*
X675829Y707148D01*
X675836Y707143D01*
X676128Y707241D01*
X676414Y707241D01*
X676808Y707142D01*
X676810Y707143D01*
X676810Y707142D01*
X677304Y707043D01*
X677694Y706848D01*
X678084Y706556D01*
X678275Y706268D01*
X678373Y705974D01*
X678378Y705971D01*
X678376Y705968D01*
X678474Y705771D01*
X678568Y705490D01*
X678473Y705206D01*
X678474Y705203D01*
X678472Y705202D01*
X678374Y704810D01*
X678179Y704517D01*
X678179Y704513D01*
X678176Y704512D01*
X677979Y704119D01*
X677689Y703828D01*
X677393Y703631D01*
X677392Y703629D01*
X677390Y703629D01*
X676991Y703330D01*
X676695Y703133D01*
X675908Y702739D01*
X675228Y702739D01*
X674942Y702835D01*
X674661Y703022D01*
X674469Y703598D01*
X674469Y704390D01*
X674466Y704394D01*
X674468Y704399D01*
X674459Y704404D01*
X674433Y704437D01*
X674417Y704425D01*
X674398Y704434D01*
X673598Y704034D01*
X673592Y704022D01*
X673583Y704023D01*
X672783Y703123D01*
X672783Y703115D01*
X672777Y703115D01*
X672077Y701915D01*
X672078Y701908D01*
X672074Y701907D01*
X671574Y700507D01*
X671575Y700501D01*
X671572Y700499D01*
X671272Y698899D01*
X671276Y698891D01*
X671271Y698887D01*
X671371Y697087D01*
X671376Y697081D01*
X671373Y697077D01*
X671873Y695277D01*
X671879Y695272D01*
X671877Y695266D01*
X672877Y693466D01*
X672882Y693464D01*
X672881Y693460D01*
X673581Y692560D01*
X673586Y692559D01*
X673585Y692555D01*
X674385Y691755D01*
X674388Y691755D01*
X674388Y691753D01*
X675188Y691053D01*
X675194Y691052D01*
X675195Y691048D01*
X676195Y690448D01*
X676201Y690448D01*
X676202Y690444D01*
X677202Y690044D01*
X677206Y690045D01*
X677207Y690043D01*
X678307Y689743D01*
X678311Y689744D01*
X678312Y689741D01*
X679512Y689541D01*
X679514Y689542D01*
X679519Y689542D01*
X679520Y689541D01*
X681416Y689541D01*
X682003Y689443D01*
X682492Y689150D01*
X683485Y688355D01*
X683982Y687758D01*
X683986Y687758D01*
X683985Y687755D01*
X685282Y686458D01*
X685780Y685761D01*
X685786Y685760D01*
X685785Y685755D01*
X686383Y685157D01*
X686882Y684558D01*
X686886Y684558D01*
X686885Y684555D01*
X687383Y684058D01*
X687681Y683660D01*
X687686Y683659D01*
X687685Y683655D01*
X687982Y683359D01*
X688179Y683063D01*
X688212Y683051D01*
X688220Y683041D01*
X688320Y683041D01*
X688367Y683077D01*
G37*
G36*
X571565Y916952D02*
X571565Y916952D01*
X571631Y916954D01*
X571674Y916972D01*
X571721Y916980D01*
X571778Y917014D01*
X571838Y917039D01*
X571873Y917070D01*
X571914Y917095D01*
X571956Y917146D01*
X572004Y917190D01*
X572026Y917232D01*
X572055Y917269D01*
X572076Y917331D01*
X572107Y917390D01*
X572115Y917444D01*
X572127Y917481D01*
X572126Y917521D01*
X572134Y917575D01*
X572134Y921385D01*
X572123Y921450D01*
X572121Y921516D01*
X572103Y921559D01*
X572095Y921606D01*
X572061Y921663D01*
X572036Y921723D01*
X572005Y921758D01*
X571980Y921799D01*
X571929Y921841D01*
X571885Y921889D01*
X571843Y921911D01*
X571806Y921940D01*
X571744Y921961D01*
X571685Y921992D01*
X571631Y922000D01*
X571594Y922012D01*
X571554Y922011D01*
X571500Y922019D01*
X568960Y922019D01*
X568895Y922008D01*
X568829Y922006D01*
X568786Y921988D01*
X568739Y921980D01*
X568682Y921946D01*
X568622Y921921D01*
X568587Y921890D01*
X568546Y921865D01*
X568505Y921814D01*
X568456Y921770D01*
X568434Y921728D01*
X568405Y921691D01*
X568384Y921629D01*
X568353Y921570D01*
X568345Y921516D01*
X568333Y921479D01*
X568333Y921475D01*
X568333Y921474D01*
X568334Y921439D01*
X568326Y921385D01*
X568326Y917575D01*
X568337Y917510D01*
X568339Y917444D01*
X568357Y917401D01*
X568365Y917354D01*
X568399Y917297D01*
X568424Y917237D01*
X568455Y917202D01*
X568480Y917161D01*
X568531Y917120D01*
X568575Y917071D01*
X568617Y917049D01*
X568654Y917020D01*
X568716Y916999D01*
X568775Y916968D01*
X568829Y916960D01*
X568866Y916948D01*
X568906Y916949D01*
X568960Y916941D01*
X571500Y916941D01*
X571565Y916952D01*
G37*
G36*
X805245Y916952D02*
X805245Y916952D01*
X805311Y916954D01*
X805354Y916972D01*
X805401Y916980D01*
X805458Y917014D01*
X805518Y917039D01*
X805553Y917070D01*
X805594Y917095D01*
X805636Y917146D01*
X805684Y917190D01*
X805706Y917232D01*
X805735Y917269D01*
X805756Y917331D01*
X805787Y917390D01*
X805795Y917444D01*
X805807Y917481D01*
X805806Y917521D01*
X805814Y917575D01*
X805814Y921385D01*
X805803Y921450D01*
X805801Y921516D01*
X805783Y921559D01*
X805775Y921606D01*
X805741Y921663D01*
X805716Y921723D01*
X805685Y921758D01*
X805660Y921799D01*
X805609Y921841D01*
X805565Y921889D01*
X805523Y921911D01*
X805486Y921940D01*
X805424Y921961D01*
X805365Y921992D01*
X805311Y922000D01*
X805274Y922012D01*
X805234Y922011D01*
X805180Y922019D01*
X802640Y922019D01*
X802575Y922008D01*
X802509Y922006D01*
X802466Y921988D01*
X802419Y921980D01*
X802362Y921946D01*
X802302Y921921D01*
X802267Y921890D01*
X802226Y921865D01*
X802185Y921814D01*
X802136Y921770D01*
X802114Y921728D01*
X802085Y921691D01*
X802064Y921629D01*
X802033Y921570D01*
X802025Y921516D01*
X802013Y921479D01*
X802013Y921475D01*
X802013Y921474D01*
X802014Y921439D01*
X802006Y921385D01*
X802006Y917575D01*
X802017Y917510D01*
X802019Y917444D01*
X802037Y917401D01*
X802045Y917354D01*
X802079Y917297D01*
X802104Y917237D01*
X802135Y917202D01*
X802160Y917161D01*
X802211Y917120D01*
X802255Y917071D01*
X802297Y917049D01*
X802334Y917020D01*
X802396Y916999D01*
X802455Y916968D01*
X802509Y916960D01*
X802546Y916948D01*
X802586Y916949D01*
X802640Y916941D01*
X805180Y916941D01*
X805245Y916952D01*
G37*
G36*
X337885Y916952D02*
X337885Y916952D01*
X337951Y916954D01*
X337994Y916972D01*
X338041Y916980D01*
X338098Y917014D01*
X338158Y917039D01*
X338193Y917070D01*
X338234Y917095D01*
X338276Y917146D01*
X338324Y917190D01*
X338346Y917232D01*
X338375Y917269D01*
X338396Y917331D01*
X338427Y917390D01*
X338435Y917444D01*
X338447Y917481D01*
X338446Y917521D01*
X338454Y917575D01*
X338454Y921385D01*
X338443Y921450D01*
X338441Y921516D01*
X338423Y921559D01*
X338415Y921606D01*
X338381Y921663D01*
X338356Y921723D01*
X338325Y921758D01*
X338300Y921799D01*
X338249Y921841D01*
X338205Y921889D01*
X338163Y921911D01*
X338126Y921940D01*
X338064Y921961D01*
X338005Y921992D01*
X337951Y922000D01*
X337914Y922012D01*
X337874Y922011D01*
X337820Y922019D01*
X335280Y922019D01*
X335215Y922008D01*
X335149Y922006D01*
X335106Y921988D01*
X335059Y921980D01*
X335002Y921946D01*
X334942Y921921D01*
X334907Y921890D01*
X334866Y921865D01*
X334825Y921814D01*
X334776Y921770D01*
X334754Y921728D01*
X334725Y921691D01*
X334704Y921629D01*
X334673Y921570D01*
X334665Y921516D01*
X334653Y921479D01*
X334653Y921475D01*
X334653Y921474D01*
X334654Y921439D01*
X334646Y921385D01*
X334646Y917575D01*
X334657Y917510D01*
X334659Y917444D01*
X334677Y917401D01*
X334685Y917354D01*
X334719Y917297D01*
X334744Y917237D01*
X334775Y917202D01*
X334800Y917161D01*
X334851Y917120D01*
X334895Y917071D01*
X334937Y917049D01*
X334974Y917020D01*
X335036Y916999D01*
X335095Y916968D01*
X335149Y916960D01*
X335186Y916948D01*
X335226Y916949D01*
X335280Y916941D01*
X337820Y916941D01*
X337885Y916952D01*
G37*
G36*
X104205Y916952D02*
X104205Y916952D01*
X104271Y916954D01*
X104314Y916972D01*
X104361Y916980D01*
X104418Y917014D01*
X104478Y917039D01*
X104513Y917070D01*
X104554Y917095D01*
X104596Y917146D01*
X104644Y917190D01*
X104666Y917232D01*
X104695Y917269D01*
X104716Y917331D01*
X104747Y917390D01*
X104755Y917444D01*
X104767Y917481D01*
X104766Y917521D01*
X104774Y917575D01*
X104774Y921385D01*
X104763Y921450D01*
X104761Y921516D01*
X104743Y921559D01*
X104735Y921606D01*
X104701Y921663D01*
X104676Y921723D01*
X104645Y921758D01*
X104620Y921799D01*
X104569Y921841D01*
X104525Y921889D01*
X104483Y921911D01*
X104446Y921940D01*
X104384Y921961D01*
X104325Y921992D01*
X104271Y922000D01*
X104234Y922012D01*
X104194Y922011D01*
X104140Y922019D01*
X101600Y922019D01*
X101535Y922008D01*
X101469Y922006D01*
X101426Y921988D01*
X101379Y921980D01*
X101322Y921946D01*
X101262Y921921D01*
X101227Y921890D01*
X101186Y921865D01*
X101145Y921814D01*
X101096Y921770D01*
X101074Y921728D01*
X101045Y921691D01*
X101024Y921629D01*
X100993Y921570D01*
X100985Y921516D01*
X100973Y921479D01*
X100973Y921475D01*
X100973Y921474D01*
X100974Y921439D01*
X100966Y921385D01*
X100966Y917575D01*
X100977Y917510D01*
X100979Y917444D01*
X100997Y917401D01*
X101005Y917354D01*
X101039Y917297D01*
X101064Y917237D01*
X101095Y917202D01*
X101120Y917161D01*
X101171Y917120D01*
X101215Y917071D01*
X101257Y917049D01*
X101294Y917020D01*
X101356Y916999D01*
X101415Y916968D01*
X101469Y916960D01*
X101506Y916948D01*
X101546Y916949D01*
X101600Y916941D01*
X104140Y916941D01*
X104205Y916952D01*
G37*
G36*
X104205Y1544332D02*
X104205Y1544332D01*
X104271Y1544334D01*
X104314Y1544352D01*
X104361Y1544360D01*
X104418Y1544394D01*
X104478Y1544419D01*
X104513Y1544450D01*
X104554Y1544475D01*
X104596Y1544526D01*
X104644Y1544570D01*
X104666Y1544612D01*
X104695Y1544649D01*
X104716Y1544711D01*
X104747Y1544770D01*
X104755Y1544824D01*
X104767Y1544861D01*
X104766Y1544901D01*
X104774Y1544955D01*
X104774Y1548765D01*
X104763Y1548830D01*
X104761Y1548896D01*
X104743Y1548939D01*
X104735Y1548986D01*
X104701Y1549043D01*
X104676Y1549103D01*
X104645Y1549138D01*
X104620Y1549179D01*
X104569Y1549221D01*
X104525Y1549269D01*
X104483Y1549291D01*
X104446Y1549320D01*
X104384Y1549341D01*
X104325Y1549372D01*
X104271Y1549380D01*
X104234Y1549392D01*
X104194Y1549391D01*
X104140Y1549399D01*
X101600Y1549399D01*
X101535Y1549388D01*
X101469Y1549386D01*
X101426Y1549368D01*
X101379Y1549360D01*
X101322Y1549326D01*
X101262Y1549301D01*
X101227Y1549270D01*
X101186Y1549245D01*
X101145Y1549194D01*
X101096Y1549150D01*
X101074Y1549108D01*
X101045Y1549071D01*
X101024Y1549009D01*
X100993Y1548950D01*
X100985Y1548896D01*
X100973Y1548859D01*
X100973Y1548855D01*
X100973Y1548854D01*
X100974Y1548819D01*
X100966Y1548765D01*
X100966Y1544955D01*
X100977Y1544890D01*
X100979Y1544824D01*
X100997Y1544781D01*
X101005Y1544734D01*
X101039Y1544677D01*
X101064Y1544617D01*
X101095Y1544582D01*
X101120Y1544541D01*
X101171Y1544500D01*
X101215Y1544451D01*
X101257Y1544429D01*
X101294Y1544400D01*
X101356Y1544379D01*
X101415Y1544348D01*
X101469Y1544340D01*
X101506Y1544328D01*
X101546Y1544329D01*
X101600Y1544321D01*
X104140Y1544321D01*
X104205Y1544332D01*
G37*
G36*
X337885Y1544332D02*
X337885Y1544332D01*
X337951Y1544334D01*
X337994Y1544352D01*
X338041Y1544360D01*
X338098Y1544394D01*
X338158Y1544419D01*
X338193Y1544450D01*
X338234Y1544475D01*
X338276Y1544526D01*
X338324Y1544570D01*
X338346Y1544612D01*
X338375Y1544649D01*
X338396Y1544711D01*
X338427Y1544770D01*
X338435Y1544824D01*
X338447Y1544861D01*
X338446Y1544901D01*
X338454Y1544955D01*
X338454Y1548765D01*
X338443Y1548830D01*
X338441Y1548896D01*
X338423Y1548939D01*
X338415Y1548986D01*
X338381Y1549043D01*
X338356Y1549103D01*
X338325Y1549138D01*
X338300Y1549179D01*
X338249Y1549221D01*
X338205Y1549269D01*
X338163Y1549291D01*
X338126Y1549320D01*
X338064Y1549341D01*
X338005Y1549372D01*
X337951Y1549380D01*
X337914Y1549392D01*
X337874Y1549391D01*
X337820Y1549399D01*
X335280Y1549399D01*
X335215Y1549388D01*
X335149Y1549386D01*
X335106Y1549368D01*
X335059Y1549360D01*
X335002Y1549326D01*
X334942Y1549301D01*
X334907Y1549270D01*
X334866Y1549245D01*
X334825Y1549194D01*
X334776Y1549150D01*
X334754Y1549108D01*
X334725Y1549071D01*
X334704Y1549009D01*
X334673Y1548950D01*
X334665Y1548896D01*
X334653Y1548859D01*
X334653Y1548855D01*
X334653Y1548854D01*
X334654Y1548819D01*
X334646Y1548765D01*
X334646Y1544955D01*
X334657Y1544890D01*
X334659Y1544824D01*
X334677Y1544781D01*
X334685Y1544734D01*
X334719Y1544677D01*
X334744Y1544617D01*
X334775Y1544582D01*
X334800Y1544541D01*
X334851Y1544500D01*
X334895Y1544451D01*
X334937Y1544429D01*
X334974Y1544400D01*
X335036Y1544379D01*
X335095Y1544348D01*
X335149Y1544340D01*
X335186Y1544328D01*
X335226Y1544329D01*
X335280Y1544321D01*
X337820Y1544321D01*
X337885Y1544332D01*
G37*
G36*
X805245Y1544332D02*
X805245Y1544332D01*
X805311Y1544334D01*
X805354Y1544352D01*
X805401Y1544360D01*
X805458Y1544394D01*
X805518Y1544419D01*
X805553Y1544450D01*
X805594Y1544475D01*
X805636Y1544526D01*
X805684Y1544570D01*
X805706Y1544612D01*
X805735Y1544649D01*
X805756Y1544711D01*
X805787Y1544770D01*
X805795Y1544824D01*
X805807Y1544861D01*
X805806Y1544901D01*
X805814Y1544955D01*
X805814Y1548765D01*
X805803Y1548830D01*
X805801Y1548896D01*
X805783Y1548939D01*
X805775Y1548986D01*
X805741Y1549043D01*
X805716Y1549103D01*
X805685Y1549138D01*
X805660Y1549179D01*
X805609Y1549221D01*
X805565Y1549269D01*
X805523Y1549291D01*
X805486Y1549320D01*
X805424Y1549341D01*
X805365Y1549372D01*
X805311Y1549380D01*
X805274Y1549392D01*
X805234Y1549391D01*
X805180Y1549399D01*
X802640Y1549399D01*
X802575Y1549388D01*
X802509Y1549386D01*
X802466Y1549368D01*
X802419Y1549360D01*
X802362Y1549326D01*
X802302Y1549301D01*
X802267Y1549270D01*
X802226Y1549245D01*
X802185Y1549194D01*
X802136Y1549150D01*
X802114Y1549108D01*
X802085Y1549071D01*
X802064Y1549009D01*
X802033Y1548950D01*
X802025Y1548896D01*
X802013Y1548859D01*
X802013Y1548855D01*
X802013Y1548854D01*
X802014Y1548819D01*
X802006Y1548765D01*
X802006Y1544955D01*
X802017Y1544890D01*
X802019Y1544824D01*
X802037Y1544781D01*
X802045Y1544734D01*
X802079Y1544677D01*
X802104Y1544617D01*
X802135Y1544582D01*
X802160Y1544541D01*
X802211Y1544500D01*
X802255Y1544451D01*
X802297Y1544429D01*
X802334Y1544400D01*
X802396Y1544379D01*
X802455Y1544348D01*
X802509Y1544340D01*
X802546Y1544328D01*
X802586Y1544329D01*
X802640Y1544321D01*
X805180Y1544321D01*
X805245Y1544332D01*
G37*
G36*
X571565Y1544332D02*
X571565Y1544332D01*
X571631Y1544334D01*
X571674Y1544352D01*
X571721Y1544360D01*
X571778Y1544394D01*
X571838Y1544419D01*
X571873Y1544450D01*
X571914Y1544475D01*
X571956Y1544526D01*
X572004Y1544570D01*
X572026Y1544612D01*
X572055Y1544649D01*
X572076Y1544711D01*
X572107Y1544770D01*
X572115Y1544824D01*
X572127Y1544861D01*
X572126Y1544901D01*
X572134Y1544955D01*
X572134Y1548765D01*
X572123Y1548830D01*
X572121Y1548896D01*
X572103Y1548939D01*
X572095Y1548986D01*
X572061Y1549043D01*
X572036Y1549103D01*
X572005Y1549138D01*
X571980Y1549179D01*
X571929Y1549221D01*
X571885Y1549269D01*
X571843Y1549291D01*
X571806Y1549320D01*
X571744Y1549341D01*
X571685Y1549372D01*
X571631Y1549380D01*
X571594Y1549392D01*
X571554Y1549391D01*
X571500Y1549399D01*
X568960Y1549399D01*
X568895Y1549388D01*
X568829Y1549386D01*
X568786Y1549368D01*
X568739Y1549360D01*
X568682Y1549326D01*
X568622Y1549301D01*
X568587Y1549270D01*
X568546Y1549245D01*
X568505Y1549194D01*
X568456Y1549150D01*
X568434Y1549108D01*
X568405Y1549071D01*
X568384Y1549009D01*
X568353Y1548950D01*
X568345Y1548896D01*
X568333Y1548859D01*
X568333Y1548855D01*
X568333Y1548854D01*
X568334Y1548819D01*
X568326Y1548765D01*
X568326Y1544955D01*
X568337Y1544890D01*
X568339Y1544824D01*
X568357Y1544781D01*
X568365Y1544734D01*
X568399Y1544677D01*
X568424Y1544617D01*
X568455Y1544582D01*
X568480Y1544541D01*
X568531Y1544500D01*
X568575Y1544451D01*
X568617Y1544429D01*
X568654Y1544400D01*
X568716Y1544379D01*
X568775Y1544348D01*
X568829Y1544340D01*
X568866Y1544328D01*
X568906Y1544329D01*
X568960Y1544321D01*
X571500Y1544321D01*
X571565Y1544332D01*
G37*
G36*
X750635Y58432D02*
X750635Y58432D01*
X750701Y58434D01*
X750744Y58452D01*
X750791Y58460D01*
X750848Y58494D01*
X750908Y58519D01*
X750943Y58550D01*
X750984Y58575D01*
X751026Y58626D01*
X751074Y58670D01*
X751096Y58712D01*
X751125Y58749D01*
X751146Y58811D01*
X751177Y58870D01*
X751185Y58924D01*
X751197Y58961D01*
X751196Y59001D01*
X751204Y59055D01*
X751204Y62865D01*
X751193Y62930D01*
X751191Y62996D01*
X751173Y63039D01*
X751165Y63086D01*
X751131Y63143D01*
X751106Y63203D01*
X751075Y63238D01*
X751050Y63279D01*
X750999Y63321D01*
X750955Y63369D01*
X750913Y63391D01*
X750876Y63420D01*
X750814Y63441D01*
X750755Y63472D01*
X750701Y63480D01*
X750664Y63492D01*
X750624Y63491D01*
X750570Y63499D01*
X748030Y63499D01*
X747965Y63488D01*
X747899Y63486D01*
X747856Y63468D01*
X747809Y63460D01*
X747752Y63426D01*
X747692Y63401D01*
X747657Y63370D01*
X747616Y63345D01*
X747575Y63294D01*
X747526Y63250D01*
X747504Y63208D01*
X747475Y63171D01*
X747454Y63109D01*
X747423Y63050D01*
X747415Y62996D01*
X747403Y62959D01*
X747403Y62955D01*
X747403Y62954D01*
X747404Y62919D01*
X747396Y62865D01*
X747396Y59055D01*
X747407Y58990D01*
X747409Y58924D01*
X747427Y58881D01*
X747435Y58834D01*
X747469Y58777D01*
X747494Y58717D01*
X747525Y58682D01*
X747550Y58641D01*
X747601Y58600D01*
X747645Y58551D01*
X747687Y58529D01*
X747724Y58500D01*
X747786Y58479D01*
X747845Y58448D01*
X747899Y58440D01*
X747936Y58428D01*
X747976Y58429D01*
X748030Y58421D01*
X750570Y58421D01*
X750635Y58432D01*
G37*
G36*
X750635Y1313192D02*
X750635Y1313192D01*
X750701Y1313194D01*
X750744Y1313212D01*
X750791Y1313220D01*
X750848Y1313254D01*
X750908Y1313279D01*
X750943Y1313310D01*
X750984Y1313335D01*
X751026Y1313386D01*
X751074Y1313430D01*
X751096Y1313472D01*
X751125Y1313509D01*
X751146Y1313571D01*
X751177Y1313630D01*
X751185Y1313684D01*
X751197Y1313721D01*
X751196Y1313761D01*
X751204Y1313815D01*
X751204Y1317625D01*
X751193Y1317690D01*
X751191Y1317756D01*
X751173Y1317799D01*
X751165Y1317846D01*
X751131Y1317903D01*
X751106Y1317963D01*
X751075Y1317998D01*
X751050Y1318039D01*
X750999Y1318081D01*
X750955Y1318129D01*
X750913Y1318151D01*
X750876Y1318180D01*
X750814Y1318201D01*
X750755Y1318232D01*
X750701Y1318240D01*
X750664Y1318252D01*
X750624Y1318251D01*
X750570Y1318259D01*
X748030Y1318259D01*
X747965Y1318248D01*
X747899Y1318246D01*
X747856Y1318228D01*
X747809Y1318220D01*
X747752Y1318186D01*
X747692Y1318161D01*
X747657Y1318130D01*
X747616Y1318105D01*
X747575Y1318054D01*
X747526Y1318010D01*
X747504Y1317968D01*
X747475Y1317931D01*
X747454Y1317869D01*
X747423Y1317810D01*
X747415Y1317756D01*
X747403Y1317719D01*
X747403Y1317715D01*
X747403Y1317714D01*
X747404Y1317679D01*
X747396Y1317625D01*
X747396Y1313815D01*
X747407Y1313750D01*
X747409Y1313684D01*
X747427Y1313641D01*
X747435Y1313594D01*
X747469Y1313537D01*
X747494Y1313477D01*
X747525Y1313442D01*
X747550Y1313401D01*
X747601Y1313360D01*
X747645Y1313311D01*
X747687Y1313289D01*
X747724Y1313260D01*
X747786Y1313239D01*
X747845Y1313208D01*
X747899Y1313200D01*
X747936Y1313188D01*
X747976Y1313189D01*
X748030Y1313181D01*
X750570Y1313181D01*
X750635Y1313192D01*
G37*
G36*
X516955Y1313192D02*
X516955Y1313192D01*
X517021Y1313194D01*
X517064Y1313212D01*
X517111Y1313220D01*
X517168Y1313254D01*
X517228Y1313279D01*
X517263Y1313310D01*
X517304Y1313335D01*
X517346Y1313386D01*
X517394Y1313430D01*
X517416Y1313472D01*
X517445Y1313509D01*
X517466Y1313571D01*
X517497Y1313630D01*
X517505Y1313684D01*
X517517Y1313721D01*
X517516Y1313761D01*
X517524Y1313815D01*
X517524Y1317625D01*
X517513Y1317690D01*
X517511Y1317756D01*
X517493Y1317799D01*
X517485Y1317846D01*
X517451Y1317903D01*
X517426Y1317963D01*
X517395Y1317998D01*
X517370Y1318039D01*
X517319Y1318081D01*
X517275Y1318129D01*
X517233Y1318151D01*
X517196Y1318180D01*
X517134Y1318201D01*
X517075Y1318232D01*
X517021Y1318240D01*
X516984Y1318252D01*
X516944Y1318251D01*
X516890Y1318259D01*
X514350Y1318259D01*
X514285Y1318248D01*
X514219Y1318246D01*
X514176Y1318228D01*
X514129Y1318220D01*
X514072Y1318186D01*
X514012Y1318161D01*
X513977Y1318130D01*
X513936Y1318105D01*
X513895Y1318054D01*
X513846Y1318010D01*
X513824Y1317968D01*
X513795Y1317931D01*
X513774Y1317869D01*
X513743Y1317810D01*
X513735Y1317756D01*
X513723Y1317719D01*
X513723Y1317715D01*
X513723Y1317714D01*
X513724Y1317679D01*
X513716Y1317625D01*
X513716Y1313815D01*
X513727Y1313750D01*
X513729Y1313684D01*
X513747Y1313641D01*
X513755Y1313594D01*
X513789Y1313537D01*
X513814Y1313477D01*
X513845Y1313442D01*
X513870Y1313401D01*
X513921Y1313360D01*
X513965Y1313311D01*
X514007Y1313289D01*
X514044Y1313260D01*
X514106Y1313239D01*
X514165Y1313208D01*
X514219Y1313200D01*
X514256Y1313188D01*
X514296Y1313189D01*
X514350Y1313181D01*
X516890Y1313181D01*
X516955Y1313192D01*
G37*
G36*
X283275Y1313192D02*
X283275Y1313192D01*
X283341Y1313194D01*
X283384Y1313212D01*
X283431Y1313220D01*
X283488Y1313254D01*
X283548Y1313279D01*
X283583Y1313310D01*
X283624Y1313335D01*
X283666Y1313386D01*
X283714Y1313430D01*
X283736Y1313472D01*
X283765Y1313509D01*
X283786Y1313571D01*
X283817Y1313630D01*
X283825Y1313684D01*
X283837Y1313721D01*
X283836Y1313761D01*
X283844Y1313815D01*
X283844Y1317625D01*
X283833Y1317690D01*
X283831Y1317756D01*
X283813Y1317799D01*
X283805Y1317846D01*
X283771Y1317903D01*
X283746Y1317963D01*
X283715Y1317998D01*
X283690Y1318039D01*
X283639Y1318081D01*
X283595Y1318129D01*
X283553Y1318151D01*
X283516Y1318180D01*
X283454Y1318201D01*
X283395Y1318232D01*
X283341Y1318240D01*
X283304Y1318252D01*
X283264Y1318251D01*
X283210Y1318259D01*
X280670Y1318259D01*
X280605Y1318248D01*
X280539Y1318246D01*
X280496Y1318228D01*
X280449Y1318220D01*
X280392Y1318186D01*
X280332Y1318161D01*
X280297Y1318130D01*
X280256Y1318105D01*
X280215Y1318054D01*
X280166Y1318010D01*
X280144Y1317968D01*
X280115Y1317931D01*
X280094Y1317869D01*
X280063Y1317810D01*
X280055Y1317756D01*
X280043Y1317719D01*
X280043Y1317715D01*
X280043Y1317714D01*
X280044Y1317679D01*
X280036Y1317625D01*
X280036Y1313815D01*
X280047Y1313750D01*
X280049Y1313684D01*
X280067Y1313641D01*
X280075Y1313594D01*
X280109Y1313537D01*
X280134Y1313477D01*
X280165Y1313442D01*
X280190Y1313401D01*
X280241Y1313360D01*
X280285Y1313311D01*
X280327Y1313289D01*
X280364Y1313260D01*
X280426Y1313239D01*
X280485Y1313208D01*
X280539Y1313200D01*
X280576Y1313188D01*
X280616Y1313189D01*
X280670Y1313181D01*
X283210Y1313181D01*
X283275Y1313192D01*
G37*
G36*
X49595Y1313192D02*
X49595Y1313192D01*
X49661Y1313194D01*
X49704Y1313212D01*
X49751Y1313220D01*
X49808Y1313254D01*
X49868Y1313279D01*
X49903Y1313310D01*
X49944Y1313335D01*
X49986Y1313386D01*
X50034Y1313430D01*
X50056Y1313472D01*
X50085Y1313509D01*
X50106Y1313571D01*
X50137Y1313630D01*
X50145Y1313684D01*
X50157Y1313721D01*
X50156Y1313761D01*
X50164Y1313815D01*
X50164Y1317625D01*
X50153Y1317690D01*
X50151Y1317756D01*
X50133Y1317799D01*
X50125Y1317846D01*
X50091Y1317903D01*
X50066Y1317963D01*
X50035Y1317998D01*
X50010Y1318039D01*
X49959Y1318081D01*
X49915Y1318129D01*
X49873Y1318151D01*
X49836Y1318180D01*
X49774Y1318201D01*
X49715Y1318232D01*
X49661Y1318240D01*
X49624Y1318252D01*
X49584Y1318251D01*
X49530Y1318259D01*
X46990Y1318259D01*
X46925Y1318248D01*
X46859Y1318246D01*
X46816Y1318228D01*
X46769Y1318220D01*
X46712Y1318186D01*
X46652Y1318161D01*
X46617Y1318130D01*
X46576Y1318105D01*
X46535Y1318054D01*
X46486Y1318010D01*
X46464Y1317968D01*
X46435Y1317931D01*
X46414Y1317869D01*
X46383Y1317810D01*
X46375Y1317756D01*
X46363Y1317719D01*
X46363Y1317715D01*
X46363Y1317714D01*
X46364Y1317679D01*
X46356Y1317625D01*
X46356Y1313815D01*
X46367Y1313750D01*
X46369Y1313684D01*
X46387Y1313641D01*
X46395Y1313594D01*
X46429Y1313537D01*
X46454Y1313477D01*
X46485Y1313442D01*
X46510Y1313401D01*
X46561Y1313360D01*
X46605Y1313311D01*
X46647Y1313289D01*
X46684Y1313260D01*
X46746Y1313239D01*
X46805Y1313208D01*
X46859Y1313200D01*
X46896Y1313188D01*
X46936Y1313189D01*
X46990Y1313181D01*
X49530Y1313181D01*
X49595Y1313192D01*
G37*
G36*
X750635Y685812D02*
X750635Y685812D01*
X750701Y685814D01*
X750744Y685832D01*
X750791Y685840D01*
X750848Y685874D01*
X750908Y685899D01*
X750943Y685930D01*
X750984Y685955D01*
X751026Y686006D01*
X751074Y686050D01*
X751096Y686092D01*
X751125Y686129D01*
X751146Y686191D01*
X751177Y686250D01*
X751185Y686304D01*
X751197Y686341D01*
X751196Y686381D01*
X751204Y686435D01*
X751204Y690245D01*
X751193Y690310D01*
X751191Y690376D01*
X751173Y690419D01*
X751165Y690466D01*
X751131Y690523D01*
X751106Y690583D01*
X751075Y690618D01*
X751050Y690659D01*
X750999Y690701D01*
X750955Y690749D01*
X750913Y690771D01*
X750876Y690800D01*
X750814Y690821D01*
X750755Y690852D01*
X750701Y690860D01*
X750664Y690872D01*
X750624Y690871D01*
X750570Y690879D01*
X748030Y690879D01*
X747965Y690868D01*
X747899Y690866D01*
X747856Y690848D01*
X747809Y690840D01*
X747752Y690806D01*
X747692Y690781D01*
X747657Y690750D01*
X747616Y690725D01*
X747575Y690674D01*
X747526Y690630D01*
X747504Y690588D01*
X747475Y690551D01*
X747454Y690489D01*
X747423Y690430D01*
X747415Y690376D01*
X747403Y690339D01*
X747403Y690335D01*
X747403Y690334D01*
X747404Y690299D01*
X747396Y690245D01*
X747396Y686435D01*
X747407Y686370D01*
X747409Y686304D01*
X747427Y686261D01*
X747435Y686214D01*
X747469Y686157D01*
X747494Y686097D01*
X747525Y686062D01*
X747550Y686021D01*
X747601Y685980D01*
X747645Y685931D01*
X747687Y685909D01*
X747724Y685880D01*
X747786Y685859D01*
X747845Y685828D01*
X747899Y685820D01*
X747936Y685808D01*
X747976Y685809D01*
X748030Y685801D01*
X750570Y685801D01*
X750635Y685812D01*
G37*
G36*
X49595Y685812D02*
X49595Y685812D01*
X49661Y685814D01*
X49704Y685832D01*
X49751Y685840D01*
X49808Y685874D01*
X49868Y685899D01*
X49903Y685930D01*
X49944Y685955D01*
X49986Y686006D01*
X50034Y686050D01*
X50056Y686092D01*
X50085Y686129D01*
X50106Y686191D01*
X50137Y686250D01*
X50145Y686304D01*
X50157Y686341D01*
X50156Y686381D01*
X50164Y686435D01*
X50164Y690245D01*
X50153Y690310D01*
X50151Y690376D01*
X50133Y690419D01*
X50125Y690466D01*
X50091Y690523D01*
X50066Y690583D01*
X50035Y690618D01*
X50010Y690659D01*
X49959Y690701D01*
X49915Y690749D01*
X49873Y690771D01*
X49836Y690800D01*
X49774Y690821D01*
X49715Y690852D01*
X49661Y690860D01*
X49624Y690872D01*
X49584Y690871D01*
X49530Y690879D01*
X46990Y690879D01*
X46925Y690868D01*
X46859Y690866D01*
X46816Y690848D01*
X46769Y690840D01*
X46712Y690806D01*
X46652Y690781D01*
X46617Y690750D01*
X46576Y690725D01*
X46535Y690674D01*
X46486Y690630D01*
X46464Y690588D01*
X46435Y690551D01*
X46414Y690489D01*
X46383Y690430D01*
X46375Y690376D01*
X46363Y690339D01*
X46363Y690335D01*
X46363Y690334D01*
X46364Y690299D01*
X46356Y690245D01*
X46356Y686435D01*
X46367Y686370D01*
X46369Y686304D01*
X46387Y686261D01*
X46395Y686214D01*
X46429Y686157D01*
X46454Y686097D01*
X46485Y686062D01*
X46510Y686021D01*
X46561Y685980D01*
X46605Y685931D01*
X46647Y685909D01*
X46684Y685880D01*
X46746Y685859D01*
X46805Y685828D01*
X46859Y685820D01*
X46896Y685808D01*
X46936Y685809D01*
X46990Y685801D01*
X49530Y685801D01*
X49595Y685812D01*
G37*
G36*
X283275Y685812D02*
X283275Y685812D01*
X283341Y685814D01*
X283384Y685832D01*
X283431Y685840D01*
X283488Y685874D01*
X283548Y685899D01*
X283583Y685930D01*
X283624Y685955D01*
X283666Y686006D01*
X283714Y686050D01*
X283736Y686092D01*
X283765Y686129D01*
X283786Y686191D01*
X283817Y686250D01*
X283825Y686304D01*
X283837Y686341D01*
X283836Y686381D01*
X283844Y686435D01*
X283844Y690245D01*
X283833Y690310D01*
X283831Y690376D01*
X283813Y690419D01*
X283805Y690466D01*
X283771Y690523D01*
X283746Y690583D01*
X283715Y690618D01*
X283690Y690659D01*
X283639Y690701D01*
X283595Y690749D01*
X283553Y690771D01*
X283516Y690800D01*
X283454Y690821D01*
X283395Y690852D01*
X283341Y690860D01*
X283304Y690872D01*
X283264Y690871D01*
X283210Y690879D01*
X280670Y690879D01*
X280605Y690868D01*
X280539Y690866D01*
X280496Y690848D01*
X280449Y690840D01*
X280392Y690806D01*
X280332Y690781D01*
X280297Y690750D01*
X280256Y690725D01*
X280215Y690674D01*
X280166Y690630D01*
X280144Y690588D01*
X280115Y690551D01*
X280094Y690489D01*
X280063Y690430D01*
X280055Y690376D01*
X280043Y690339D01*
X280043Y690335D01*
X280043Y690334D01*
X280044Y690299D01*
X280036Y690245D01*
X280036Y686435D01*
X280047Y686370D01*
X280049Y686304D01*
X280067Y686261D01*
X280075Y686214D01*
X280109Y686157D01*
X280134Y686097D01*
X280165Y686062D01*
X280190Y686021D01*
X280241Y685980D01*
X280285Y685931D01*
X280327Y685909D01*
X280364Y685880D01*
X280426Y685859D01*
X280485Y685828D01*
X280539Y685820D01*
X280576Y685808D01*
X280616Y685809D01*
X280670Y685801D01*
X283210Y685801D01*
X283275Y685812D01*
G37*
G36*
X516955Y685812D02*
X516955Y685812D01*
X517021Y685814D01*
X517064Y685832D01*
X517111Y685840D01*
X517168Y685874D01*
X517228Y685899D01*
X517263Y685930D01*
X517304Y685955D01*
X517346Y686006D01*
X517394Y686050D01*
X517416Y686092D01*
X517445Y686129D01*
X517466Y686191D01*
X517497Y686250D01*
X517505Y686304D01*
X517517Y686341D01*
X517516Y686381D01*
X517524Y686435D01*
X517524Y690245D01*
X517513Y690310D01*
X517511Y690376D01*
X517493Y690419D01*
X517485Y690466D01*
X517451Y690523D01*
X517426Y690583D01*
X517395Y690618D01*
X517370Y690659D01*
X517319Y690701D01*
X517275Y690749D01*
X517233Y690771D01*
X517196Y690800D01*
X517134Y690821D01*
X517075Y690852D01*
X517021Y690860D01*
X516984Y690872D01*
X516944Y690871D01*
X516890Y690879D01*
X514350Y690879D01*
X514285Y690868D01*
X514219Y690866D01*
X514176Y690848D01*
X514129Y690840D01*
X514072Y690806D01*
X514012Y690781D01*
X513977Y690750D01*
X513936Y690725D01*
X513895Y690674D01*
X513846Y690630D01*
X513824Y690588D01*
X513795Y690551D01*
X513774Y690489D01*
X513743Y690430D01*
X513735Y690376D01*
X513723Y690339D01*
X513723Y690335D01*
X513723Y690334D01*
X513724Y690299D01*
X513716Y690245D01*
X513716Y686435D01*
X513727Y686370D01*
X513729Y686304D01*
X513747Y686261D01*
X513755Y686214D01*
X513789Y686157D01*
X513814Y686097D01*
X513845Y686062D01*
X513870Y686021D01*
X513921Y685980D01*
X513965Y685931D01*
X514007Y685909D01*
X514044Y685880D01*
X514106Y685859D01*
X514165Y685828D01*
X514219Y685820D01*
X514256Y685808D01*
X514296Y685809D01*
X514350Y685801D01*
X516890Y685801D01*
X516955Y685812D01*
G37*
G36*
X337885Y289572D02*
X337885Y289572D01*
X337951Y289574D01*
X337994Y289592D01*
X338041Y289600D01*
X338098Y289634D01*
X338158Y289659D01*
X338193Y289690D01*
X338234Y289715D01*
X338276Y289766D01*
X338324Y289810D01*
X338346Y289852D01*
X338375Y289889D01*
X338396Y289951D01*
X338427Y290010D01*
X338435Y290064D01*
X338447Y290101D01*
X338446Y290141D01*
X338454Y290195D01*
X338454Y294005D01*
X338443Y294070D01*
X338441Y294136D01*
X338423Y294179D01*
X338415Y294226D01*
X338381Y294283D01*
X338356Y294343D01*
X338325Y294378D01*
X338300Y294419D01*
X338249Y294461D01*
X338205Y294509D01*
X338163Y294531D01*
X338126Y294560D01*
X338064Y294581D01*
X338005Y294612D01*
X337951Y294620D01*
X337914Y294632D01*
X337874Y294631D01*
X337820Y294639D01*
X335280Y294639D01*
X335215Y294628D01*
X335149Y294626D01*
X335106Y294608D01*
X335059Y294600D01*
X335002Y294566D01*
X334942Y294541D01*
X334907Y294510D01*
X334866Y294485D01*
X334825Y294434D01*
X334776Y294390D01*
X334754Y294348D01*
X334725Y294311D01*
X334704Y294249D01*
X334673Y294190D01*
X334665Y294136D01*
X334653Y294099D01*
X334653Y294095D01*
X334653Y294094D01*
X334654Y294059D01*
X334646Y294005D01*
X334646Y290195D01*
X334657Y290130D01*
X334659Y290064D01*
X334677Y290021D01*
X334685Y289974D01*
X334719Y289917D01*
X334744Y289857D01*
X334775Y289822D01*
X334800Y289781D01*
X334851Y289740D01*
X334895Y289691D01*
X334937Y289669D01*
X334974Y289640D01*
X335036Y289619D01*
X335095Y289588D01*
X335149Y289580D01*
X335186Y289568D01*
X335226Y289569D01*
X335280Y289561D01*
X337820Y289561D01*
X337885Y289572D01*
G37*
G36*
X805245Y289572D02*
X805245Y289572D01*
X805311Y289574D01*
X805354Y289592D01*
X805401Y289600D01*
X805458Y289634D01*
X805518Y289659D01*
X805553Y289690D01*
X805594Y289715D01*
X805636Y289766D01*
X805684Y289810D01*
X805706Y289852D01*
X805735Y289889D01*
X805756Y289951D01*
X805787Y290010D01*
X805795Y290064D01*
X805807Y290101D01*
X805806Y290141D01*
X805814Y290195D01*
X805814Y294005D01*
X805803Y294070D01*
X805801Y294136D01*
X805783Y294179D01*
X805775Y294226D01*
X805741Y294283D01*
X805716Y294343D01*
X805685Y294378D01*
X805660Y294419D01*
X805609Y294461D01*
X805565Y294509D01*
X805523Y294531D01*
X805486Y294560D01*
X805424Y294581D01*
X805365Y294612D01*
X805311Y294620D01*
X805274Y294632D01*
X805234Y294631D01*
X805180Y294639D01*
X802640Y294639D01*
X802575Y294628D01*
X802509Y294626D01*
X802466Y294608D01*
X802419Y294600D01*
X802362Y294566D01*
X802302Y294541D01*
X802267Y294510D01*
X802226Y294485D01*
X802185Y294434D01*
X802136Y294390D01*
X802114Y294348D01*
X802085Y294311D01*
X802064Y294249D01*
X802033Y294190D01*
X802025Y294136D01*
X802013Y294099D01*
X802013Y294095D01*
X802013Y294094D01*
X802014Y294059D01*
X802006Y294005D01*
X802006Y290195D01*
X802017Y290130D01*
X802019Y290064D01*
X802037Y290021D01*
X802045Y289974D01*
X802079Y289917D01*
X802104Y289857D01*
X802135Y289822D01*
X802160Y289781D01*
X802211Y289740D01*
X802255Y289691D01*
X802297Y289669D01*
X802334Y289640D01*
X802396Y289619D01*
X802455Y289588D01*
X802509Y289580D01*
X802546Y289568D01*
X802586Y289569D01*
X802640Y289561D01*
X805180Y289561D01*
X805245Y289572D01*
G37*
G36*
X104205Y289572D02*
X104205Y289572D01*
X104271Y289574D01*
X104314Y289592D01*
X104361Y289600D01*
X104418Y289634D01*
X104478Y289659D01*
X104513Y289690D01*
X104554Y289715D01*
X104596Y289766D01*
X104644Y289810D01*
X104666Y289852D01*
X104695Y289889D01*
X104716Y289951D01*
X104747Y290010D01*
X104755Y290064D01*
X104767Y290101D01*
X104766Y290141D01*
X104774Y290195D01*
X104774Y294005D01*
X104763Y294070D01*
X104761Y294136D01*
X104743Y294179D01*
X104735Y294226D01*
X104701Y294283D01*
X104676Y294343D01*
X104645Y294378D01*
X104620Y294419D01*
X104569Y294461D01*
X104525Y294509D01*
X104483Y294531D01*
X104446Y294560D01*
X104384Y294581D01*
X104325Y294612D01*
X104271Y294620D01*
X104234Y294632D01*
X104194Y294631D01*
X104140Y294639D01*
X101600Y294639D01*
X101535Y294628D01*
X101469Y294626D01*
X101426Y294608D01*
X101379Y294600D01*
X101322Y294566D01*
X101262Y294541D01*
X101227Y294510D01*
X101186Y294485D01*
X101145Y294434D01*
X101096Y294390D01*
X101074Y294348D01*
X101045Y294311D01*
X101024Y294249D01*
X100993Y294190D01*
X100985Y294136D01*
X100973Y294099D01*
X100973Y294095D01*
X100973Y294094D01*
X100974Y294059D01*
X100966Y294005D01*
X100966Y290195D01*
X100977Y290130D01*
X100979Y290064D01*
X100997Y290021D01*
X101005Y289974D01*
X101039Y289917D01*
X101064Y289857D01*
X101095Y289822D01*
X101120Y289781D01*
X101171Y289740D01*
X101215Y289691D01*
X101257Y289669D01*
X101294Y289640D01*
X101356Y289619D01*
X101415Y289588D01*
X101469Y289580D01*
X101506Y289568D01*
X101546Y289569D01*
X101600Y289561D01*
X104140Y289561D01*
X104205Y289572D01*
G37*
G36*
X571565Y289572D02*
X571565Y289572D01*
X571631Y289574D01*
X571674Y289592D01*
X571721Y289600D01*
X571778Y289634D01*
X571838Y289659D01*
X571873Y289690D01*
X571914Y289715D01*
X571956Y289766D01*
X572004Y289810D01*
X572026Y289852D01*
X572055Y289889D01*
X572076Y289951D01*
X572107Y290010D01*
X572115Y290064D01*
X572127Y290101D01*
X572126Y290141D01*
X572134Y290195D01*
X572134Y294005D01*
X572123Y294070D01*
X572121Y294136D01*
X572103Y294179D01*
X572095Y294226D01*
X572061Y294283D01*
X572036Y294343D01*
X572005Y294378D01*
X571980Y294419D01*
X571929Y294461D01*
X571885Y294509D01*
X571843Y294531D01*
X571806Y294560D01*
X571744Y294581D01*
X571685Y294612D01*
X571631Y294620D01*
X571594Y294632D01*
X571554Y294631D01*
X571500Y294639D01*
X568960Y294639D01*
X568895Y294628D01*
X568829Y294626D01*
X568786Y294608D01*
X568739Y294600D01*
X568682Y294566D01*
X568622Y294541D01*
X568587Y294510D01*
X568546Y294485D01*
X568505Y294434D01*
X568456Y294390D01*
X568434Y294348D01*
X568405Y294311D01*
X568384Y294249D01*
X568353Y294190D01*
X568345Y294136D01*
X568333Y294099D01*
X568333Y294095D01*
X568333Y294094D01*
X568334Y294059D01*
X568326Y294005D01*
X568326Y290195D01*
X568337Y290130D01*
X568339Y290064D01*
X568357Y290021D01*
X568365Y289974D01*
X568399Y289917D01*
X568424Y289857D01*
X568455Y289822D01*
X568480Y289781D01*
X568531Y289740D01*
X568575Y289691D01*
X568617Y289669D01*
X568654Y289640D01*
X568716Y289619D01*
X568775Y289588D01*
X568829Y289580D01*
X568866Y289568D01*
X568906Y289569D01*
X568960Y289561D01*
X571500Y289561D01*
X571565Y289572D01*
G37*
G36*
X516955Y58432D02*
X516955Y58432D01*
X517021Y58434D01*
X517064Y58452D01*
X517111Y58460D01*
X517168Y58494D01*
X517228Y58519D01*
X517263Y58550D01*
X517304Y58575D01*
X517346Y58626D01*
X517394Y58670D01*
X517416Y58712D01*
X517445Y58749D01*
X517466Y58811D01*
X517497Y58870D01*
X517505Y58924D01*
X517517Y58961D01*
X517516Y59001D01*
X517524Y59055D01*
X517524Y62865D01*
X517513Y62930D01*
X517511Y62996D01*
X517493Y63039D01*
X517485Y63086D01*
X517451Y63143D01*
X517426Y63203D01*
X517395Y63238D01*
X517370Y63279D01*
X517319Y63321D01*
X517275Y63369D01*
X517233Y63391D01*
X517196Y63420D01*
X517134Y63441D01*
X517075Y63472D01*
X517021Y63480D01*
X516984Y63492D01*
X516944Y63491D01*
X516890Y63499D01*
X514350Y63499D01*
X514285Y63488D01*
X514219Y63486D01*
X514176Y63468D01*
X514129Y63460D01*
X514072Y63426D01*
X514012Y63401D01*
X513977Y63370D01*
X513936Y63345D01*
X513895Y63294D01*
X513846Y63250D01*
X513824Y63208D01*
X513795Y63171D01*
X513774Y63109D01*
X513743Y63050D01*
X513735Y62996D01*
X513723Y62959D01*
X513723Y62955D01*
X513723Y62954D01*
X513724Y62919D01*
X513716Y62865D01*
X513716Y59055D01*
X513727Y58990D01*
X513729Y58924D01*
X513747Y58881D01*
X513755Y58834D01*
X513789Y58777D01*
X513814Y58717D01*
X513845Y58682D01*
X513870Y58641D01*
X513921Y58600D01*
X513965Y58551D01*
X514007Y58529D01*
X514044Y58500D01*
X514106Y58479D01*
X514165Y58448D01*
X514219Y58440D01*
X514256Y58428D01*
X514296Y58429D01*
X514350Y58421D01*
X516890Y58421D01*
X516955Y58432D01*
G37*
G36*
X49595Y58432D02*
X49595Y58432D01*
X49661Y58434D01*
X49704Y58452D01*
X49751Y58460D01*
X49808Y58494D01*
X49868Y58519D01*
X49903Y58550D01*
X49944Y58575D01*
X49986Y58626D01*
X50034Y58670D01*
X50056Y58712D01*
X50085Y58749D01*
X50106Y58811D01*
X50137Y58870D01*
X50145Y58924D01*
X50157Y58961D01*
X50156Y59001D01*
X50164Y59055D01*
X50164Y62865D01*
X50153Y62930D01*
X50151Y62996D01*
X50133Y63039D01*
X50125Y63086D01*
X50091Y63143D01*
X50066Y63203D01*
X50035Y63238D01*
X50010Y63279D01*
X49959Y63321D01*
X49915Y63369D01*
X49873Y63391D01*
X49836Y63420D01*
X49774Y63441D01*
X49715Y63472D01*
X49661Y63480D01*
X49624Y63492D01*
X49584Y63491D01*
X49530Y63499D01*
X46990Y63499D01*
X46925Y63488D01*
X46859Y63486D01*
X46816Y63468D01*
X46769Y63460D01*
X46712Y63426D01*
X46652Y63401D01*
X46617Y63370D01*
X46576Y63345D01*
X46535Y63294D01*
X46486Y63250D01*
X46464Y63208D01*
X46435Y63171D01*
X46414Y63109D01*
X46383Y63050D01*
X46375Y62996D01*
X46363Y62959D01*
X46363Y62955D01*
X46363Y62954D01*
X46364Y62919D01*
X46356Y62865D01*
X46356Y59055D01*
X46367Y58990D01*
X46369Y58924D01*
X46387Y58881D01*
X46395Y58834D01*
X46429Y58777D01*
X46454Y58717D01*
X46485Y58682D01*
X46510Y58641D01*
X46561Y58600D01*
X46605Y58551D01*
X46647Y58529D01*
X46684Y58500D01*
X46746Y58479D01*
X46805Y58448D01*
X46859Y58440D01*
X46896Y58428D01*
X46936Y58429D01*
X46990Y58421D01*
X49530Y58421D01*
X49595Y58432D01*
G37*
G36*
X283275Y58432D02*
X283275Y58432D01*
X283341Y58434D01*
X283384Y58452D01*
X283431Y58460D01*
X283488Y58494D01*
X283548Y58519D01*
X283583Y58550D01*
X283624Y58575D01*
X283666Y58626D01*
X283714Y58670D01*
X283736Y58712D01*
X283765Y58749D01*
X283786Y58811D01*
X283817Y58870D01*
X283825Y58924D01*
X283837Y58961D01*
X283836Y59001D01*
X283844Y59055D01*
X283844Y62865D01*
X283833Y62930D01*
X283831Y62996D01*
X283813Y63039D01*
X283805Y63086D01*
X283771Y63143D01*
X283746Y63203D01*
X283715Y63238D01*
X283690Y63279D01*
X283639Y63321D01*
X283595Y63369D01*
X283553Y63391D01*
X283516Y63420D01*
X283454Y63441D01*
X283395Y63472D01*
X283341Y63480D01*
X283304Y63492D01*
X283264Y63491D01*
X283210Y63499D01*
X280670Y63499D01*
X280605Y63488D01*
X280539Y63486D01*
X280496Y63468D01*
X280449Y63460D01*
X280392Y63426D01*
X280332Y63401D01*
X280297Y63370D01*
X280256Y63345D01*
X280215Y63294D01*
X280166Y63250D01*
X280144Y63208D01*
X280115Y63171D01*
X280094Y63109D01*
X280063Y63050D01*
X280055Y62996D01*
X280043Y62959D01*
X280043Y62955D01*
X280043Y62954D01*
X280044Y62919D01*
X280036Y62865D01*
X280036Y59055D01*
X280047Y58990D01*
X280049Y58924D01*
X280067Y58881D01*
X280075Y58834D01*
X280109Y58777D01*
X280134Y58717D01*
X280165Y58682D01*
X280190Y58641D01*
X280241Y58600D01*
X280285Y58551D01*
X280327Y58529D01*
X280364Y58500D01*
X280426Y58479D01*
X280485Y58448D01*
X280539Y58440D01*
X280576Y58428D01*
X280616Y58429D01*
X280670Y58421D01*
X283210Y58421D01*
X283275Y58432D01*
G37*
G36*
X779210Y1519567D02*
X779210Y1519567D01*
X779276Y1519569D01*
X779319Y1519587D01*
X779366Y1519595D01*
X779423Y1519629D01*
X779483Y1519654D01*
X779518Y1519685D01*
X779559Y1519710D01*
X779601Y1519761D01*
X779649Y1519805D01*
X779671Y1519847D01*
X779700Y1519884D01*
X779721Y1519946D01*
X779752Y1520005D01*
X779760Y1520059D01*
X779772Y1520096D01*
X779771Y1520136D01*
X779779Y1520190D01*
X779779Y1522730D01*
X779768Y1522795D01*
X779766Y1522861D01*
X779748Y1522904D01*
X779740Y1522951D01*
X779706Y1523008D01*
X779681Y1523068D01*
X779650Y1523103D01*
X779625Y1523144D01*
X779574Y1523186D01*
X779530Y1523234D01*
X779488Y1523256D01*
X779451Y1523285D01*
X779389Y1523306D01*
X779330Y1523337D01*
X779276Y1523345D01*
X779239Y1523357D01*
X779199Y1523356D01*
X779145Y1523364D01*
X775335Y1523364D01*
X775270Y1523353D01*
X775204Y1523351D01*
X775161Y1523333D01*
X775114Y1523325D01*
X775057Y1523291D01*
X774997Y1523266D01*
X774962Y1523235D01*
X774921Y1523210D01*
X774880Y1523159D01*
X774831Y1523115D01*
X774809Y1523073D01*
X774780Y1523036D01*
X774759Y1522974D01*
X774728Y1522915D01*
X774720Y1522861D01*
X774708Y1522824D01*
X774708Y1522821D01*
X774709Y1522784D01*
X774701Y1522730D01*
X774701Y1520190D01*
X774712Y1520125D01*
X774714Y1520059D01*
X774732Y1520016D01*
X774740Y1519969D01*
X774774Y1519912D01*
X774799Y1519852D01*
X774830Y1519817D01*
X774855Y1519776D01*
X774906Y1519735D01*
X774950Y1519686D01*
X774992Y1519664D01*
X775029Y1519635D01*
X775091Y1519614D01*
X775150Y1519583D01*
X775204Y1519575D01*
X775241Y1519563D01*
X775281Y1519564D01*
X775335Y1519556D01*
X779145Y1519556D01*
X779210Y1519567D01*
G37*
G36*
X311850Y1519567D02*
X311850Y1519567D01*
X311916Y1519569D01*
X311959Y1519587D01*
X312006Y1519595D01*
X312063Y1519629D01*
X312123Y1519654D01*
X312158Y1519685D01*
X312199Y1519710D01*
X312241Y1519761D01*
X312289Y1519805D01*
X312311Y1519847D01*
X312340Y1519884D01*
X312361Y1519946D01*
X312392Y1520005D01*
X312400Y1520059D01*
X312412Y1520096D01*
X312411Y1520136D01*
X312419Y1520190D01*
X312419Y1522730D01*
X312408Y1522795D01*
X312406Y1522861D01*
X312388Y1522904D01*
X312380Y1522951D01*
X312346Y1523008D01*
X312321Y1523068D01*
X312290Y1523103D01*
X312265Y1523144D01*
X312214Y1523186D01*
X312170Y1523234D01*
X312128Y1523256D01*
X312091Y1523285D01*
X312029Y1523306D01*
X311970Y1523337D01*
X311916Y1523345D01*
X311879Y1523357D01*
X311839Y1523356D01*
X311785Y1523364D01*
X307975Y1523364D01*
X307910Y1523353D01*
X307844Y1523351D01*
X307801Y1523333D01*
X307754Y1523325D01*
X307697Y1523291D01*
X307637Y1523266D01*
X307602Y1523235D01*
X307561Y1523210D01*
X307520Y1523159D01*
X307471Y1523115D01*
X307449Y1523073D01*
X307420Y1523036D01*
X307399Y1522974D01*
X307368Y1522915D01*
X307360Y1522861D01*
X307348Y1522824D01*
X307348Y1522821D01*
X307349Y1522784D01*
X307341Y1522730D01*
X307341Y1520190D01*
X307352Y1520125D01*
X307354Y1520059D01*
X307372Y1520016D01*
X307380Y1519969D01*
X307414Y1519912D01*
X307439Y1519852D01*
X307470Y1519817D01*
X307495Y1519776D01*
X307546Y1519735D01*
X307590Y1519686D01*
X307632Y1519664D01*
X307669Y1519635D01*
X307731Y1519614D01*
X307790Y1519583D01*
X307844Y1519575D01*
X307881Y1519563D01*
X307921Y1519564D01*
X307975Y1519556D01*
X311785Y1519556D01*
X311850Y1519567D01*
G37*
G36*
X78170Y1519567D02*
X78170Y1519567D01*
X78236Y1519569D01*
X78279Y1519587D01*
X78326Y1519595D01*
X78383Y1519629D01*
X78443Y1519654D01*
X78478Y1519685D01*
X78519Y1519710D01*
X78561Y1519761D01*
X78609Y1519805D01*
X78631Y1519847D01*
X78660Y1519884D01*
X78681Y1519946D01*
X78712Y1520005D01*
X78720Y1520059D01*
X78732Y1520096D01*
X78731Y1520136D01*
X78739Y1520190D01*
X78739Y1522730D01*
X78728Y1522795D01*
X78726Y1522861D01*
X78708Y1522904D01*
X78700Y1522951D01*
X78666Y1523008D01*
X78641Y1523068D01*
X78610Y1523103D01*
X78585Y1523144D01*
X78534Y1523186D01*
X78490Y1523234D01*
X78448Y1523256D01*
X78411Y1523285D01*
X78349Y1523306D01*
X78290Y1523337D01*
X78236Y1523345D01*
X78199Y1523357D01*
X78159Y1523356D01*
X78105Y1523364D01*
X74295Y1523364D01*
X74230Y1523353D01*
X74164Y1523351D01*
X74121Y1523333D01*
X74074Y1523325D01*
X74017Y1523291D01*
X73957Y1523266D01*
X73922Y1523235D01*
X73881Y1523210D01*
X73840Y1523159D01*
X73791Y1523115D01*
X73769Y1523073D01*
X73740Y1523036D01*
X73719Y1522974D01*
X73688Y1522915D01*
X73680Y1522861D01*
X73668Y1522824D01*
X73668Y1522821D01*
X73669Y1522784D01*
X73661Y1522730D01*
X73661Y1520190D01*
X73672Y1520125D01*
X73674Y1520059D01*
X73692Y1520016D01*
X73700Y1519969D01*
X73734Y1519912D01*
X73759Y1519852D01*
X73790Y1519817D01*
X73815Y1519776D01*
X73866Y1519735D01*
X73910Y1519686D01*
X73952Y1519664D01*
X73989Y1519635D01*
X74051Y1519614D01*
X74110Y1519583D01*
X74164Y1519575D01*
X74201Y1519563D01*
X74241Y1519564D01*
X74295Y1519556D01*
X78105Y1519556D01*
X78170Y1519567D01*
G37*
G36*
X545530Y1519567D02*
X545530Y1519567D01*
X545596Y1519569D01*
X545639Y1519587D01*
X545686Y1519595D01*
X545743Y1519629D01*
X545803Y1519654D01*
X545838Y1519685D01*
X545879Y1519710D01*
X545921Y1519761D01*
X545969Y1519805D01*
X545991Y1519847D01*
X546020Y1519884D01*
X546041Y1519946D01*
X546072Y1520005D01*
X546080Y1520059D01*
X546092Y1520096D01*
X546091Y1520136D01*
X546099Y1520190D01*
X546099Y1522730D01*
X546088Y1522795D01*
X546086Y1522861D01*
X546068Y1522904D01*
X546060Y1522951D01*
X546026Y1523008D01*
X546001Y1523068D01*
X545970Y1523103D01*
X545945Y1523144D01*
X545894Y1523186D01*
X545850Y1523234D01*
X545808Y1523256D01*
X545771Y1523285D01*
X545709Y1523306D01*
X545650Y1523337D01*
X545596Y1523345D01*
X545559Y1523357D01*
X545519Y1523356D01*
X545465Y1523364D01*
X541655Y1523364D01*
X541590Y1523353D01*
X541524Y1523351D01*
X541481Y1523333D01*
X541434Y1523325D01*
X541377Y1523291D01*
X541317Y1523266D01*
X541282Y1523235D01*
X541241Y1523210D01*
X541200Y1523159D01*
X541151Y1523115D01*
X541129Y1523073D01*
X541100Y1523036D01*
X541079Y1522974D01*
X541048Y1522915D01*
X541040Y1522861D01*
X541028Y1522824D01*
X541028Y1522821D01*
X541029Y1522784D01*
X541021Y1522730D01*
X541021Y1520190D01*
X541032Y1520125D01*
X541034Y1520059D01*
X541052Y1520016D01*
X541060Y1519969D01*
X541094Y1519912D01*
X541119Y1519852D01*
X541150Y1519817D01*
X541175Y1519776D01*
X541226Y1519735D01*
X541270Y1519686D01*
X541312Y1519664D01*
X541349Y1519635D01*
X541411Y1519614D01*
X541470Y1519583D01*
X541524Y1519575D01*
X541561Y1519563D01*
X541601Y1519564D01*
X541655Y1519556D01*
X545465Y1519556D01*
X545530Y1519567D01*
G37*
G36*
X311850Y264807D02*
X311850Y264807D01*
X311916Y264809D01*
X311959Y264827D01*
X312006Y264835D01*
X312063Y264869D01*
X312123Y264894D01*
X312158Y264925D01*
X312199Y264950D01*
X312241Y265001D01*
X312289Y265045D01*
X312311Y265087D01*
X312340Y265124D01*
X312361Y265186D01*
X312392Y265245D01*
X312400Y265299D01*
X312412Y265336D01*
X312411Y265376D01*
X312419Y265430D01*
X312419Y267970D01*
X312408Y268035D01*
X312406Y268101D01*
X312388Y268144D01*
X312380Y268191D01*
X312346Y268248D01*
X312321Y268308D01*
X312290Y268343D01*
X312265Y268384D01*
X312214Y268426D01*
X312170Y268474D01*
X312128Y268496D01*
X312091Y268525D01*
X312029Y268546D01*
X311970Y268577D01*
X311916Y268585D01*
X311879Y268597D01*
X311839Y268596D01*
X311785Y268604D01*
X307975Y268604D01*
X307910Y268593D01*
X307844Y268591D01*
X307801Y268573D01*
X307754Y268565D01*
X307697Y268531D01*
X307637Y268506D01*
X307602Y268475D01*
X307561Y268450D01*
X307520Y268399D01*
X307471Y268355D01*
X307449Y268313D01*
X307420Y268276D01*
X307399Y268214D01*
X307368Y268155D01*
X307360Y268101D01*
X307348Y268064D01*
X307348Y268061D01*
X307349Y268024D01*
X307341Y267970D01*
X307341Y265430D01*
X307352Y265365D01*
X307354Y265299D01*
X307372Y265256D01*
X307380Y265209D01*
X307414Y265152D01*
X307439Y265092D01*
X307470Y265057D01*
X307495Y265016D01*
X307546Y264975D01*
X307590Y264926D01*
X307632Y264904D01*
X307669Y264875D01*
X307731Y264854D01*
X307790Y264823D01*
X307844Y264815D01*
X307881Y264803D01*
X307921Y264804D01*
X307975Y264796D01*
X311785Y264796D01*
X311850Y264807D01*
G37*
G36*
X779210Y264807D02*
X779210Y264807D01*
X779276Y264809D01*
X779319Y264827D01*
X779366Y264835D01*
X779423Y264869D01*
X779483Y264894D01*
X779518Y264925D01*
X779559Y264950D01*
X779601Y265001D01*
X779649Y265045D01*
X779671Y265087D01*
X779700Y265124D01*
X779721Y265186D01*
X779752Y265245D01*
X779760Y265299D01*
X779772Y265336D01*
X779771Y265376D01*
X779779Y265430D01*
X779779Y267970D01*
X779768Y268035D01*
X779766Y268101D01*
X779748Y268144D01*
X779740Y268191D01*
X779706Y268248D01*
X779681Y268308D01*
X779650Y268343D01*
X779625Y268384D01*
X779574Y268426D01*
X779530Y268474D01*
X779488Y268496D01*
X779451Y268525D01*
X779389Y268546D01*
X779330Y268577D01*
X779276Y268585D01*
X779239Y268597D01*
X779199Y268596D01*
X779145Y268604D01*
X775335Y268604D01*
X775270Y268593D01*
X775204Y268591D01*
X775161Y268573D01*
X775114Y268565D01*
X775057Y268531D01*
X774997Y268506D01*
X774962Y268475D01*
X774921Y268450D01*
X774880Y268399D01*
X774831Y268355D01*
X774809Y268313D01*
X774780Y268276D01*
X774759Y268214D01*
X774728Y268155D01*
X774720Y268101D01*
X774708Y268064D01*
X774708Y268061D01*
X774709Y268024D01*
X774701Y267970D01*
X774701Y265430D01*
X774712Y265365D01*
X774714Y265299D01*
X774732Y265256D01*
X774740Y265209D01*
X774774Y265152D01*
X774799Y265092D01*
X774830Y265057D01*
X774855Y265016D01*
X774906Y264975D01*
X774950Y264926D01*
X774992Y264904D01*
X775029Y264875D01*
X775091Y264854D01*
X775150Y264823D01*
X775204Y264815D01*
X775241Y264803D01*
X775281Y264804D01*
X775335Y264796D01*
X779145Y264796D01*
X779210Y264807D01*
G37*
G36*
X78170Y264807D02*
X78170Y264807D01*
X78236Y264809D01*
X78279Y264827D01*
X78326Y264835D01*
X78383Y264869D01*
X78443Y264894D01*
X78478Y264925D01*
X78519Y264950D01*
X78561Y265001D01*
X78609Y265045D01*
X78631Y265087D01*
X78660Y265124D01*
X78681Y265186D01*
X78712Y265245D01*
X78720Y265299D01*
X78732Y265336D01*
X78731Y265376D01*
X78739Y265430D01*
X78739Y267970D01*
X78728Y268035D01*
X78726Y268101D01*
X78708Y268144D01*
X78700Y268191D01*
X78666Y268248D01*
X78641Y268308D01*
X78610Y268343D01*
X78585Y268384D01*
X78534Y268426D01*
X78490Y268474D01*
X78448Y268496D01*
X78411Y268525D01*
X78349Y268546D01*
X78290Y268577D01*
X78236Y268585D01*
X78199Y268597D01*
X78159Y268596D01*
X78105Y268604D01*
X74295Y268604D01*
X74230Y268593D01*
X74164Y268591D01*
X74121Y268573D01*
X74074Y268565D01*
X74017Y268531D01*
X73957Y268506D01*
X73922Y268475D01*
X73881Y268450D01*
X73840Y268399D01*
X73791Y268355D01*
X73769Y268313D01*
X73740Y268276D01*
X73719Y268214D01*
X73688Y268155D01*
X73680Y268101D01*
X73668Y268064D01*
X73668Y268061D01*
X73669Y268024D01*
X73661Y267970D01*
X73661Y265430D01*
X73672Y265365D01*
X73674Y265299D01*
X73692Y265256D01*
X73700Y265209D01*
X73734Y265152D01*
X73759Y265092D01*
X73790Y265057D01*
X73815Y265016D01*
X73866Y264975D01*
X73910Y264926D01*
X73952Y264904D01*
X73989Y264875D01*
X74051Y264854D01*
X74110Y264823D01*
X74164Y264815D01*
X74201Y264803D01*
X74241Y264804D01*
X74295Y264796D01*
X78105Y264796D01*
X78170Y264807D01*
G37*
G36*
X78170Y892187D02*
X78170Y892187D01*
X78236Y892189D01*
X78279Y892207D01*
X78326Y892215D01*
X78383Y892249D01*
X78443Y892274D01*
X78478Y892305D01*
X78519Y892330D01*
X78561Y892381D01*
X78609Y892425D01*
X78631Y892467D01*
X78660Y892504D01*
X78681Y892566D01*
X78712Y892625D01*
X78720Y892679D01*
X78732Y892716D01*
X78731Y892756D01*
X78739Y892810D01*
X78739Y895350D01*
X78728Y895415D01*
X78726Y895481D01*
X78708Y895524D01*
X78700Y895571D01*
X78666Y895628D01*
X78641Y895688D01*
X78610Y895723D01*
X78585Y895764D01*
X78534Y895806D01*
X78490Y895854D01*
X78448Y895876D01*
X78411Y895905D01*
X78349Y895926D01*
X78290Y895957D01*
X78236Y895965D01*
X78199Y895977D01*
X78159Y895976D01*
X78105Y895984D01*
X74295Y895984D01*
X74230Y895973D01*
X74164Y895971D01*
X74121Y895953D01*
X74074Y895945D01*
X74017Y895911D01*
X73957Y895886D01*
X73922Y895855D01*
X73881Y895830D01*
X73840Y895779D01*
X73791Y895735D01*
X73769Y895693D01*
X73740Y895656D01*
X73719Y895594D01*
X73688Y895535D01*
X73680Y895481D01*
X73668Y895444D01*
X73668Y895441D01*
X73669Y895404D01*
X73661Y895350D01*
X73661Y892810D01*
X73672Y892745D01*
X73674Y892679D01*
X73692Y892636D01*
X73700Y892589D01*
X73734Y892532D01*
X73759Y892472D01*
X73790Y892437D01*
X73815Y892396D01*
X73866Y892355D01*
X73910Y892306D01*
X73952Y892284D01*
X73989Y892255D01*
X74051Y892234D01*
X74110Y892203D01*
X74164Y892195D01*
X74201Y892183D01*
X74241Y892184D01*
X74295Y892176D01*
X78105Y892176D01*
X78170Y892187D01*
G37*
G36*
X311850Y892187D02*
X311850Y892187D01*
X311916Y892189D01*
X311959Y892207D01*
X312006Y892215D01*
X312063Y892249D01*
X312123Y892274D01*
X312158Y892305D01*
X312199Y892330D01*
X312241Y892381D01*
X312289Y892425D01*
X312311Y892467D01*
X312340Y892504D01*
X312361Y892566D01*
X312392Y892625D01*
X312400Y892679D01*
X312412Y892716D01*
X312411Y892756D01*
X312419Y892810D01*
X312419Y895350D01*
X312408Y895415D01*
X312406Y895481D01*
X312388Y895524D01*
X312380Y895571D01*
X312346Y895628D01*
X312321Y895688D01*
X312290Y895723D01*
X312265Y895764D01*
X312214Y895806D01*
X312170Y895854D01*
X312128Y895876D01*
X312091Y895905D01*
X312029Y895926D01*
X311970Y895957D01*
X311916Y895965D01*
X311879Y895977D01*
X311839Y895976D01*
X311785Y895984D01*
X307975Y895984D01*
X307910Y895973D01*
X307844Y895971D01*
X307801Y895953D01*
X307754Y895945D01*
X307697Y895911D01*
X307637Y895886D01*
X307602Y895855D01*
X307561Y895830D01*
X307520Y895779D01*
X307471Y895735D01*
X307449Y895693D01*
X307420Y895656D01*
X307399Y895594D01*
X307368Y895535D01*
X307360Y895481D01*
X307348Y895444D01*
X307348Y895441D01*
X307349Y895404D01*
X307341Y895350D01*
X307341Y892810D01*
X307352Y892745D01*
X307354Y892679D01*
X307372Y892636D01*
X307380Y892589D01*
X307414Y892532D01*
X307439Y892472D01*
X307470Y892437D01*
X307495Y892396D01*
X307546Y892355D01*
X307590Y892306D01*
X307632Y892284D01*
X307669Y892255D01*
X307731Y892234D01*
X307790Y892203D01*
X307844Y892195D01*
X307881Y892183D01*
X307921Y892184D01*
X307975Y892176D01*
X311785Y892176D01*
X311850Y892187D01*
G37*
G36*
X545530Y892187D02*
X545530Y892187D01*
X545596Y892189D01*
X545639Y892207D01*
X545686Y892215D01*
X545743Y892249D01*
X545803Y892274D01*
X545838Y892305D01*
X545879Y892330D01*
X545921Y892381D01*
X545969Y892425D01*
X545991Y892467D01*
X546020Y892504D01*
X546041Y892566D01*
X546072Y892625D01*
X546080Y892679D01*
X546092Y892716D01*
X546091Y892756D01*
X546099Y892810D01*
X546099Y895350D01*
X546088Y895415D01*
X546086Y895481D01*
X546068Y895524D01*
X546060Y895571D01*
X546026Y895628D01*
X546001Y895688D01*
X545970Y895723D01*
X545945Y895764D01*
X545894Y895806D01*
X545850Y895854D01*
X545808Y895876D01*
X545771Y895905D01*
X545709Y895926D01*
X545650Y895957D01*
X545596Y895965D01*
X545559Y895977D01*
X545519Y895976D01*
X545465Y895984D01*
X541655Y895984D01*
X541590Y895973D01*
X541524Y895971D01*
X541481Y895953D01*
X541434Y895945D01*
X541377Y895911D01*
X541317Y895886D01*
X541282Y895855D01*
X541241Y895830D01*
X541200Y895779D01*
X541151Y895735D01*
X541129Y895693D01*
X541100Y895656D01*
X541079Y895594D01*
X541048Y895535D01*
X541040Y895481D01*
X541028Y895444D01*
X541028Y895441D01*
X541029Y895404D01*
X541021Y895350D01*
X541021Y892810D01*
X541032Y892745D01*
X541034Y892679D01*
X541052Y892636D01*
X541060Y892589D01*
X541094Y892532D01*
X541119Y892472D01*
X541150Y892437D01*
X541175Y892396D01*
X541226Y892355D01*
X541270Y892306D01*
X541312Y892284D01*
X541349Y892255D01*
X541411Y892234D01*
X541470Y892203D01*
X541524Y892195D01*
X541561Y892183D01*
X541601Y892184D01*
X541655Y892176D01*
X545465Y892176D01*
X545530Y892187D01*
G37*
G36*
X779210Y892187D02*
X779210Y892187D01*
X779276Y892189D01*
X779319Y892207D01*
X779366Y892215D01*
X779423Y892249D01*
X779483Y892274D01*
X779518Y892305D01*
X779559Y892330D01*
X779601Y892381D01*
X779649Y892425D01*
X779671Y892467D01*
X779700Y892504D01*
X779721Y892566D01*
X779752Y892625D01*
X779760Y892679D01*
X779772Y892716D01*
X779771Y892756D01*
X779779Y892810D01*
X779779Y895350D01*
X779768Y895415D01*
X779766Y895481D01*
X779748Y895524D01*
X779740Y895571D01*
X779706Y895628D01*
X779681Y895688D01*
X779650Y895723D01*
X779625Y895764D01*
X779574Y895806D01*
X779530Y895854D01*
X779488Y895876D01*
X779451Y895905D01*
X779389Y895926D01*
X779330Y895957D01*
X779276Y895965D01*
X779239Y895977D01*
X779199Y895976D01*
X779145Y895984D01*
X775335Y895984D01*
X775270Y895973D01*
X775204Y895971D01*
X775161Y895953D01*
X775114Y895945D01*
X775057Y895911D01*
X774997Y895886D01*
X774962Y895855D01*
X774921Y895830D01*
X774880Y895779D01*
X774831Y895735D01*
X774809Y895693D01*
X774780Y895656D01*
X774759Y895594D01*
X774728Y895535D01*
X774720Y895481D01*
X774708Y895444D01*
X774708Y895441D01*
X774709Y895404D01*
X774701Y895350D01*
X774701Y892810D01*
X774712Y892745D01*
X774714Y892679D01*
X774732Y892636D01*
X774740Y892589D01*
X774774Y892532D01*
X774799Y892472D01*
X774830Y892437D01*
X774855Y892396D01*
X774906Y892355D01*
X774950Y892306D01*
X774992Y892284D01*
X775029Y892255D01*
X775091Y892234D01*
X775150Y892203D01*
X775204Y892195D01*
X775241Y892183D01*
X775281Y892184D01*
X775335Y892176D01*
X779145Y892176D01*
X779210Y892187D01*
G37*
G36*
X545530Y264807D02*
X545530Y264807D01*
X545596Y264809D01*
X545639Y264827D01*
X545686Y264835D01*
X545743Y264869D01*
X545803Y264894D01*
X545838Y264925D01*
X545879Y264950D01*
X545921Y265001D01*
X545969Y265045D01*
X545991Y265087D01*
X546020Y265124D01*
X546041Y265186D01*
X546072Y265245D01*
X546080Y265299D01*
X546092Y265336D01*
X546091Y265376D01*
X546099Y265430D01*
X546099Y267970D01*
X546088Y268035D01*
X546086Y268101D01*
X546068Y268144D01*
X546060Y268191D01*
X546026Y268248D01*
X546001Y268308D01*
X545970Y268343D01*
X545945Y268384D01*
X545894Y268426D01*
X545850Y268474D01*
X545808Y268496D01*
X545771Y268525D01*
X545709Y268546D01*
X545650Y268577D01*
X545596Y268585D01*
X545559Y268597D01*
X545519Y268596D01*
X545465Y268604D01*
X541655Y268604D01*
X541590Y268593D01*
X541524Y268591D01*
X541481Y268573D01*
X541434Y268565D01*
X541377Y268531D01*
X541317Y268506D01*
X541282Y268475D01*
X541241Y268450D01*
X541200Y268399D01*
X541151Y268355D01*
X541129Y268313D01*
X541100Y268276D01*
X541079Y268214D01*
X541048Y268155D01*
X541040Y268101D01*
X541028Y268064D01*
X541028Y268061D01*
X541029Y268024D01*
X541021Y267970D01*
X541021Y265430D01*
X541032Y265365D01*
X541034Y265299D01*
X541052Y265256D01*
X541060Y265209D01*
X541094Y265152D01*
X541119Y265092D01*
X541150Y265057D01*
X541175Y265016D01*
X541226Y264975D01*
X541270Y264926D01*
X541312Y264904D01*
X541349Y264875D01*
X541411Y264854D01*
X541470Y264823D01*
X541524Y264815D01*
X541561Y264803D01*
X541601Y264804D01*
X541655Y264796D01*
X545465Y264796D01*
X545530Y264807D01*
G37*
D10*
X12700Y558800D03*
X222250Y33020D03*
D11*
X203200Y101600D03*
D12*
X25400Y25400D03*
X203200Y25400D03*
D13*
X85400Y47526D03*
X143200Y47526D03*
D14*
X81407Y266700D03*
X70993Y266700D03*
D11*
X218440Y562610D03*
X132080Y516890D03*
X90170Y400050D03*
D15*
X102870Y297307D03*
X102870Y286893D03*
D16*
X85912Y68942D03*
X96912Y68942D03*
X107912Y68942D03*
X118912Y68942D03*
X129912Y68942D03*
X140912Y68942D03*
X151912Y68942D03*
X162912Y68942D03*
D17*
X67912Y95742D03*
D18*
X67912Y108442D03*
D19*
X67912Y134542D03*
X174662Y128842D03*
D20*
X174662Y96992D03*
D21*
X142862Y141292D03*
X100962Y141292D03*
D15*
X48260Y66167D03*
X48260Y55753D03*
D22*
X215900Y520700D03*
X215900Y495300D03*
X215900Y469900D03*
X215900Y444500D03*
X215900Y419100D03*
X215900Y393700D03*
X215900Y368300D03*
X215900Y342900D03*
X215900Y317500D03*
X215900Y292100D03*
X215900Y266700D03*
X215900Y241300D03*
X215900Y215900D03*
X215900Y190500D03*
X215900Y165100D03*
X215900Y139700D03*
X12700Y241300D03*
X12700Y266700D03*
X12700Y292100D03*
X12700Y317500D03*
X12700Y342900D03*
X12700Y368300D03*
X12700Y393700D03*
X12700Y419100D03*
X12700Y444500D03*
X12700Y469900D03*
X12700Y495300D03*
X12700Y520700D03*
D10*
X246380Y558800D03*
X455930Y33020D03*
D11*
X436880Y101600D03*
D12*
X259080Y25400D03*
X436880Y25400D03*
D13*
X319080Y47526D03*
X376880Y47526D03*
D14*
X315087Y266700D03*
X304673Y266700D03*
D11*
X452120Y562610D03*
X365760Y516890D03*
X323850Y400050D03*
D15*
X336550Y297307D03*
X336550Y286893D03*
D16*
X319592Y68942D03*
X330592Y68942D03*
X341592Y68942D03*
X352592Y68942D03*
X363592Y68942D03*
X374592Y68942D03*
X385592Y68942D03*
X396592Y68942D03*
D17*
X301592Y95742D03*
D18*
X301592Y108442D03*
D19*
X301592Y134542D03*
X408342Y128842D03*
D20*
X408342Y96992D03*
D21*
X376542Y141292D03*
X334642Y141292D03*
D15*
X281940Y66167D03*
X281940Y55753D03*
D22*
X449580Y520700D03*
X449580Y495300D03*
X449580Y469900D03*
X449580Y444500D03*
X449580Y419100D03*
X449580Y393700D03*
X449580Y368300D03*
X449580Y342900D03*
X449580Y317500D03*
X449580Y292100D03*
X449580Y266700D03*
X449580Y241300D03*
X449580Y215900D03*
X449580Y190500D03*
X449580Y165100D03*
X449580Y139700D03*
X246380Y241300D03*
X246380Y266700D03*
X246380Y292100D03*
X246380Y317500D03*
X246380Y342900D03*
X246380Y368300D03*
X246380Y393700D03*
X246380Y419100D03*
X246380Y444500D03*
X246380Y469900D03*
X246380Y495300D03*
X246380Y520700D03*
D10*
X480060Y558800D03*
X689610Y33020D03*
D11*
X670560Y101600D03*
D12*
X492760Y25400D03*
X670560Y25400D03*
D13*
X552760Y47526D03*
X610560Y47526D03*
D14*
X548767Y266700D03*
X538353Y266700D03*
D11*
X685800Y562610D03*
X599440Y516890D03*
X557530Y400050D03*
D15*
X570230Y297307D03*
X570230Y286893D03*
D16*
X553272Y68942D03*
X564272Y68942D03*
X575272Y68942D03*
X586272Y68942D03*
X597272Y68942D03*
X608272Y68942D03*
X619272Y68942D03*
X630272Y68942D03*
D17*
X535272Y95742D03*
D18*
X535272Y108442D03*
D19*
X535272Y134542D03*
X642022Y128842D03*
D20*
X642022Y96992D03*
D21*
X610222Y141292D03*
X568322Y141292D03*
D15*
X515620Y66167D03*
X515620Y55753D03*
D22*
X683260Y520700D03*
X683260Y495300D03*
X683260Y469900D03*
X683260Y444500D03*
X683260Y419100D03*
X683260Y393700D03*
X683260Y368300D03*
X683260Y342900D03*
X683260Y317500D03*
X683260Y292100D03*
X683260Y266700D03*
X683260Y241300D03*
X683260Y215900D03*
X683260Y190500D03*
X683260Y165100D03*
X683260Y139700D03*
X480060Y241300D03*
X480060Y266700D03*
X480060Y292100D03*
X480060Y317500D03*
X480060Y342900D03*
X480060Y368300D03*
X480060Y393700D03*
X480060Y419100D03*
X480060Y444500D03*
X480060Y469900D03*
X480060Y495300D03*
X480060Y520700D03*
D10*
X713740Y558800D03*
X923290Y33020D03*
D11*
X904240Y101600D03*
D12*
X726440Y25400D03*
X904240Y25400D03*
D13*
X786440Y47526D03*
X844240Y47526D03*
D14*
X782447Y266700D03*
X772033Y266700D03*
D11*
X919480Y562610D03*
X833120Y516890D03*
X791210Y400050D03*
D15*
X803910Y297307D03*
X803910Y286893D03*
D16*
X786952Y68942D03*
X797952Y68942D03*
X808952Y68942D03*
X819952Y68942D03*
X830952Y68942D03*
X841952Y68942D03*
X852952Y68942D03*
X863952Y68942D03*
D17*
X768952Y95742D03*
D18*
X768952Y108442D03*
D19*
X768952Y134542D03*
X875702Y128842D03*
D20*
X875702Y96992D03*
D21*
X843902Y141292D03*
X802002Y141292D03*
D15*
X749300Y66167D03*
X749300Y55753D03*
D22*
X916940Y520700D03*
X916940Y495300D03*
X916940Y469900D03*
X916940Y444500D03*
X916940Y419100D03*
X916940Y393700D03*
X916940Y368300D03*
X916940Y342900D03*
X916940Y317500D03*
X916940Y292100D03*
X916940Y266700D03*
X916940Y241300D03*
X916940Y215900D03*
X916940Y190500D03*
X916940Y165100D03*
X916940Y139700D03*
X713740Y241300D03*
X713740Y266700D03*
X713740Y292100D03*
X713740Y317500D03*
X713740Y342900D03*
X713740Y368300D03*
X713740Y393700D03*
X713740Y419100D03*
X713740Y444500D03*
X713740Y469900D03*
X713740Y495300D03*
X713740Y520700D03*
D10*
X12700Y1186180D03*
X222250Y660400D03*
D11*
X203200Y728980D03*
D12*
X25400Y652780D03*
X203200Y652780D03*
D13*
X85400Y674906D03*
X143200Y674906D03*
D14*
X81407Y894080D03*
X70993Y894080D03*
D11*
X218440Y1189990D03*
X132080Y1144270D03*
X90170Y1027430D03*
D15*
X102870Y924687D03*
X102870Y914273D03*
D16*
X85912Y696322D03*
X96912Y696322D03*
X107912Y696322D03*
X118912Y696322D03*
X129912Y696322D03*
X140912Y696322D03*
X151912Y696322D03*
X162912Y696322D03*
D17*
X67912Y723122D03*
D18*
X67912Y735822D03*
D19*
X67912Y761922D03*
X174662Y756222D03*
D20*
X174662Y724372D03*
D21*
X142862Y768672D03*
X100962Y768672D03*
D15*
X48260Y693547D03*
X48260Y683133D03*
D22*
X215900Y1148080D03*
X215900Y1122680D03*
X215900Y1097280D03*
X215900Y1071880D03*
X215900Y1046480D03*
X215900Y1021080D03*
X215900Y995680D03*
X215900Y970280D03*
X215900Y944880D03*
X215900Y919480D03*
X215900Y894080D03*
X215900Y868680D03*
X215900Y843280D03*
X215900Y817880D03*
X215900Y792480D03*
X215900Y767080D03*
X12700Y868680D03*
X12700Y894080D03*
X12700Y919480D03*
X12700Y944880D03*
X12700Y970280D03*
X12700Y995680D03*
X12700Y1021080D03*
X12700Y1046480D03*
X12700Y1071880D03*
X12700Y1097280D03*
X12700Y1122680D03*
X12700Y1148080D03*
D10*
X246380Y1186180D03*
X455930Y660400D03*
D11*
X436880Y728980D03*
D12*
X259080Y652780D03*
X436880Y652780D03*
D13*
X319080Y674906D03*
X376880Y674906D03*
D14*
X315087Y894080D03*
X304673Y894080D03*
D11*
X452120Y1189990D03*
X365760Y1144270D03*
X323850Y1027430D03*
D15*
X336550Y924687D03*
X336550Y914273D03*
D16*
X319592Y696322D03*
X330592Y696322D03*
X341592Y696322D03*
X352592Y696322D03*
X363592Y696322D03*
X374592Y696322D03*
X385592Y696322D03*
X396592Y696322D03*
D17*
X301592Y723122D03*
D18*
X301592Y735822D03*
D19*
X301592Y761922D03*
X408342Y756222D03*
D20*
X408342Y724372D03*
D21*
X376542Y768672D03*
X334642Y768672D03*
D15*
X281940Y693547D03*
X281940Y683133D03*
D22*
X449580Y1148080D03*
X449580Y1122680D03*
X449580Y1097280D03*
X449580Y1071880D03*
X449580Y1046480D03*
X449580Y1021080D03*
X449580Y995680D03*
X449580Y970280D03*
X449580Y944880D03*
X449580Y919480D03*
X449580Y894080D03*
X449580Y868680D03*
X449580Y843280D03*
X449580Y817880D03*
X449580Y792480D03*
X449580Y767080D03*
X246380Y868680D03*
X246380Y894080D03*
X246380Y919480D03*
X246380Y944880D03*
X246380Y970280D03*
X246380Y995680D03*
X246380Y1021080D03*
X246380Y1046480D03*
X246380Y1071880D03*
X246380Y1097280D03*
X246380Y1122680D03*
X246380Y1148080D03*
D10*
X480060Y1186180D03*
X689610Y660400D03*
D11*
X670560Y728980D03*
D12*
X492760Y652780D03*
X670560Y652780D03*
D13*
X552760Y674906D03*
X610560Y674906D03*
D14*
X548767Y894080D03*
X538353Y894080D03*
D11*
X685800Y1189990D03*
X599440Y1144270D03*
X557530Y1027430D03*
D15*
X570230Y924687D03*
X570230Y914273D03*
D16*
X553272Y696322D03*
X564272Y696322D03*
X575272Y696322D03*
X586272Y696322D03*
X597272Y696322D03*
X608272Y696322D03*
X619272Y696322D03*
X630272Y696322D03*
D17*
X535272Y723122D03*
D18*
X535272Y735822D03*
D19*
X535272Y761922D03*
X642022Y756222D03*
D20*
X642022Y724372D03*
D21*
X610222Y768672D03*
X568322Y768672D03*
D15*
X515620Y693547D03*
X515620Y683133D03*
D22*
X683260Y1148080D03*
X683260Y1122680D03*
X683260Y1097280D03*
X683260Y1071880D03*
X683260Y1046480D03*
X683260Y1021080D03*
X683260Y995680D03*
X683260Y970280D03*
X683260Y944880D03*
X683260Y919480D03*
X683260Y894080D03*
X683260Y868680D03*
X683260Y843280D03*
X683260Y817880D03*
X683260Y792480D03*
X683260Y767080D03*
X480060Y868680D03*
X480060Y894080D03*
X480060Y919480D03*
X480060Y944880D03*
X480060Y970280D03*
X480060Y995680D03*
X480060Y1021080D03*
X480060Y1046480D03*
X480060Y1071880D03*
X480060Y1097280D03*
X480060Y1122680D03*
X480060Y1148080D03*
D10*
X713740Y1186180D03*
X923290Y660400D03*
D11*
X904240Y728980D03*
D12*
X726440Y652780D03*
X904240Y652780D03*
D13*
X786440Y674906D03*
X844240Y674906D03*
D14*
X782447Y894080D03*
X772033Y894080D03*
D11*
X919480Y1189990D03*
X833120Y1144270D03*
X791210Y1027430D03*
D15*
X803910Y924687D03*
X803910Y914273D03*
D16*
X786952Y696322D03*
X797952Y696322D03*
X808952Y696322D03*
X819952Y696322D03*
X830952Y696322D03*
X841952Y696322D03*
X852952Y696322D03*
X863952Y696322D03*
D17*
X768952Y723122D03*
D18*
X768952Y735822D03*
D19*
X768952Y761922D03*
X875702Y756222D03*
D20*
X875702Y724372D03*
D21*
X843902Y768672D03*
X802002Y768672D03*
D15*
X749300Y693547D03*
X749300Y683133D03*
D22*
X916940Y1148080D03*
X916940Y1122680D03*
X916940Y1097280D03*
X916940Y1071880D03*
X916940Y1046480D03*
X916940Y1021080D03*
X916940Y995680D03*
X916940Y970280D03*
X916940Y944880D03*
X916940Y919480D03*
X916940Y894080D03*
X916940Y868680D03*
X916940Y843280D03*
X916940Y817880D03*
X916940Y792480D03*
X916940Y767080D03*
X713740Y868680D03*
X713740Y894080D03*
X713740Y919480D03*
X713740Y944880D03*
X713740Y970280D03*
X713740Y995680D03*
X713740Y1021080D03*
X713740Y1046480D03*
X713740Y1071880D03*
X713740Y1097280D03*
X713740Y1122680D03*
X713740Y1148080D03*
D10*
X12700Y1813560D03*
X222250Y1287780D03*
D11*
X203200Y1356360D03*
D12*
X25400Y1280160D03*
X203200Y1280160D03*
D13*
X85400Y1302286D03*
X143200Y1302286D03*
D14*
X81407Y1521460D03*
X70993Y1521460D03*
D11*
X218440Y1817370D03*
X132080Y1771650D03*
X90170Y1654810D03*
D15*
X102870Y1552067D03*
X102870Y1541653D03*
D16*
X85912Y1323702D03*
X96912Y1323702D03*
X107912Y1323702D03*
X118912Y1323702D03*
X129912Y1323702D03*
X140912Y1323702D03*
X151912Y1323702D03*
X162912Y1323702D03*
D17*
X67912Y1350502D03*
D18*
X67912Y1363202D03*
D19*
X67912Y1389302D03*
X174662Y1383602D03*
D20*
X174662Y1351752D03*
D21*
X142862Y1396052D03*
X100962Y1396052D03*
D15*
X48260Y1320927D03*
X48260Y1310513D03*
D22*
X215900Y1775460D03*
X215900Y1750060D03*
X215900Y1724660D03*
X215900Y1699260D03*
X215900Y1673860D03*
X215900Y1648460D03*
X215900Y1623060D03*
X215900Y1597660D03*
X215900Y1572260D03*
X215900Y1546860D03*
X215900Y1521460D03*
X215900Y1496060D03*
X215900Y1470660D03*
X215900Y1445260D03*
X215900Y1419860D03*
X215900Y1394460D03*
X12700Y1496060D03*
X12700Y1521460D03*
X12700Y1546860D03*
X12700Y1572260D03*
X12700Y1597660D03*
X12700Y1623060D03*
X12700Y1648460D03*
X12700Y1673860D03*
X12700Y1699260D03*
X12700Y1724660D03*
X12700Y1750060D03*
X12700Y1775460D03*
D10*
X246380Y1813560D03*
X455930Y1287780D03*
D11*
X436880Y1356360D03*
D12*
X259080Y1280160D03*
X436880Y1280160D03*
D13*
X319080Y1302286D03*
X376880Y1302286D03*
D14*
X315087Y1521460D03*
X304673Y1521460D03*
D11*
X452120Y1817370D03*
X365760Y1771650D03*
X323850Y1654810D03*
D15*
X336550Y1552067D03*
X336550Y1541653D03*
D16*
X319592Y1323702D03*
X330592Y1323702D03*
X341592Y1323702D03*
X352592Y1323702D03*
X363592Y1323702D03*
X374592Y1323702D03*
X385592Y1323702D03*
X396592Y1323702D03*
D17*
X301592Y1350502D03*
D18*
X301592Y1363202D03*
D19*
X301592Y1389302D03*
X408342Y1383602D03*
D20*
X408342Y1351752D03*
D21*
X376542Y1396052D03*
X334642Y1396052D03*
D15*
X281940Y1320927D03*
X281940Y1310513D03*
D22*
X449580Y1775460D03*
X449580Y1750060D03*
X449580Y1724660D03*
X449580Y1699260D03*
X449580Y1673860D03*
X449580Y1648460D03*
X449580Y1623060D03*
X449580Y1597660D03*
X449580Y1572260D03*
X449580Y1546860D03*
X449580Y1521460D03*
X449580Y1496060D03*
X449580Y1470660D03*
X449580Y1445260D03*
X449580Y1419860D03*
X449580Y1394460D03*
X246380Y1496060D03*
X246380Y1521460D03*
X246380Y1546860D03*
X246380Y1572260D03*
X246380Y1597660D03*
X246380Y1623060D03*
X246380Y1648460D03*
X246380Y1673860D03*
X246380Y1699260D03*
X246380Y1724660D03*
X246380Y1750060D03*
X246380Y1775460D03*
D10*
X480060Y1813560D03*
X689610Y1287780D03*
D11*
X670560Y1356360D03*
D12*
X492760Y1280160D03*
X670560Y1280160D03*
D13*
X552760Y1302286D03*
X610560Y1302286D03*
D14*
X548767Y1521460D03*
X538353Y1521460D03*
D11*
X685800Y1817370D03*
X599440Y1771650D03*
X557530Y1654810D03*
D15*
X570230Y1552067D03*
X570230Y1541653D03*
D16*
X553272Y1323702D03*
X564272Y1323702D03*
X575272Y1323702D03*
X586272Y1323702D03*
X597272Y1323702D03*
X608272Y1323702D03*
X619272Y1323702D03*
X630272Y1323702D03*
D17*
X535272Y1350502D03*
D18*
X535272Y1363202D03*
D19*
X535272Y1389302D03*
X642022Y1383602D03*
D20*
X642022Y1351752D03*
D21*
X610222Y1396052D03*
X568322Y1396052D03*
D15*
X515620Y1320927D03*
X515620Y1310513D03*
D22*
X683260Y1775460D03*
X683260Y1750060D03*
X683260Y1724660D03*
X683260Y1699260D03*
X683260Y1673860D03*
X683260Y1648460D03*
X683260Y1623060D03*
X683260Y1597660D03*
X683260Y1572260D03*
X683260Y1546860D03*
X683260Y1521460D03*
X683260Y1496060D03*
X683260Y1470660D03*
X683260Y1445260D03*
X683260Y1419860D03*
X683260Y1394460D03*
X480060Y1496060D03*
X480060Y1521460D03*
X480060Y1546860D03*
X480060Y1572260D03*
X480060Y1597660D03*
X480060Y1623060D03*
X480060Y1648460D03*
X480060Y1673860D03*
X480060Y1699260D03*
X480060Y1724660D03*
X480060Y1750060D03*
X480060Y1775460D03*
D10*
X713740Y1813560D03*
X923290Y1287780D03*
D11*
X904240Y1356360D03*
D12*
X726440Y1280160D03*
X904240Y1280160D03*
D13*
X786440Y1302286D03*
X844240Y1302286D03*
D14*
X782447Y1521460D03*
X772033Y1521460D03*
D11*
X919480Y1817370D03*
X833120Y1771650D03*
X791210Y1654810D03*
D15*
X803910Y1552067D03*
X803910Y1541653D03*
D16*
X786952Y1323702D03*
X797952Y1323702D03*
X808952Y1323702D03*
X819952Y1323702D03*
X830952Y1323702D03*
X841952Y1323702D03*
X852952Y1323702D03*
X863952Y1323702D03*
D17*
X768952Y1350502D03*
D18*
X768952Y1363202D03*
D19*
X768952Y1389302D03*
X875702Y1383602D03*
D20*
X875702Y1351752D03*
D21*
X843902Y1396052D03*
X802002Y1396052D03*
D15*
X749300Y1320927D03*
X749300Y1310513D03*
D22*
X916940Y1775460D03*
X916940Y1750060D03*
X916940Y1724660D03*
X916940Y1699260D03*
X916940Y1673860D03*
X916940Y1648460D03*
X916940Y1623060D03*
X916940Y1597660D03*
X916940Y1572260D03*
X916940Y1546860D03*
X916940Y1521460D03*
X916940Y1496060D03*
X916940Y1470660D03*
X916940Y1445260D03*
X916940Y1419860D03*
X916940Y1394460D03*
X713740Y1496060D03*
X713740Y1521460D03*
X713740Y1546860D03*
X713740Y1572260D03*
X713740Y1597660D03*
X713740Y1623060D03*
X713740Y1648460D03*
X713740Y1673860D03*
X713740Y1699260D03*
X713740Y1724660D03*
X713740Y1750060D03*
X713740Y1775460D03*
D23*
X-26238Y1778000D03*
X955878Y1778000D03*
D24*
X-35293Y63500D02*
X-35290Y63722D01*
X-35282Y63944D01*
X-35268Y64166D01*
X-35249Y64388D01*
X-35225Y64608D01*
X-35195Y64829D01*
X-35160Y65048D01*
X-35119Y65267D01*
X-35073Y65484D01*
X-35022Y65700D01*
X-34965Y65915D01*
X-34903Y66129D01*
X-34836Y66340D01*
X-34764Y66551D01*
X-34686Y66759D01*
X-34604Y66965D01*
X-34516Y67169D01*
X-34424Y67372D01*
X-34326Y67571D01*
X-34224Y67768D01*
X-34117Y67963D01*
X-34005Y68155D01*
X-33888Y68344D01*
X-33767Y68531D01*
X-33641Y68714D01*
X-33511Y68894D01*
X-33376Y69071D01*
X-33238Y69244D01*
X-33095Y69414D01*
X-32947Y69581D01*
X-32796Y69744D01*
X-32641Y69903D01*
X-32482Y70058D01*
X-32319Y70209D01*
X-32152Y70357D01*
X-31982Y70500D01*
X-31809Y70638D01*
X-31632Y70773D01*
X-31452Y70903D01*
X-31269Y71029D01*
X-31082Y71150D01*
X-30893Y71267D01*
X-30701Y71379D01*
X-30506Y71486D01*
X-30309Y71588D01*
X-30110Y71686D01*
X-29907Y71778D01*
X-29703Y71866D01*
X-29497Y71948D01*
X-29289Y72026D01*
X-29078Y72098D01*
X-28867Y72165D01*
X-28653Y72227D01*
X-28438Y72284D01*
X-28222Y72335D01*
X-28005Y72381D01*
X-27786Y72422D01*
X-27567Y72457D01*
X-27346Y72487D01*
X-27126Y72511D01*
X-26904Y72530D01*
X-26682Y72544D01*
X-26460Y72552D01*
X-26238Y72555D01*
X-26016Y72552D01*
X-25794Y72544D01*
X-25572Y72530D01*
X-25350Y72511D01*
X-25130Y72487D01*
X-24909Y72457D01*
X-24690Y72422D01*
X-24471Y72381D01*
X-24254Y72335D01*
X-24038Y72284D01*
X-23823Y72227D01*
X-23609Y72165D01*
X-23398Y72098D01*
X-23187Y72026D01*
X-22979Y71948D01*
X-22773Y71866D01*
X-22569Y71778D01*
X-22366Y71686D01*
X-22167Y71588D01*
X-21970Y71486D01*
X-21775Y71379D01*
X-21583Y71267D01*
X-21394Y71150D01*
X-21207Y71029D01*
X-21024Y70903D01*
X-20844Y70773D01*
X-20667Y70638D01*
X-20494Y70500D01*
X-20324Y70357D01*
X-20157Y70209D01*
X-19994Y70058D01*
X-19835Y69903D01*
X-19680Y69744D01*
X-19529Y69581D01*
X-19381Y69414D01*
X-19238Y69244D01*
X-19100Y69071D01*
X-18965Y68894D01*
X-18835Y68714D01*
X-18709Y68531D01*
X-18588Y68344D01*
X-18471Y68155D01*
X-18359Y67963D01*
X-18252Y67768D01*
X-18150Y67571D01*
X-18052Y67372D01*
X-17960Y67169D01*
X-17872Y66965D01*
X-17790Y66759D01*
X-17712Y66551D01*
X-17640Y66340D01*
X-17573Y66129D01*
X-17511Y65915D01*
X-17454Y65700D01*
X-17403Y65484D01*
X-17357Y65267D01*
X-17316Y65048D01*
X-17281Y64829D01*
X-17251Y64608D01*
X-17227Y64388D01*
X-17208Y64166D01*
X-17194Y63944D01*
X-17186Y63722D01*
X-17183Y63500D01*
X-17186Y63278D01*
X-17194Y63056D01*
X-17208Y62834D01*
X-17227Y62612D01*
X-17251Y62392D01*
X-17281Y62171D01*
X-17316Y61952D01*
X-17357Y61733D01*
X-17403Y61516D01*
X-17454Y61300D01*
X-17511Y61085D01*
X-17573Y60871D01*
X-17640Y60660D01*
X-17712Y60449D01*
X-17790Y60241D01*
X-17872Y60035D01*
X-17960Y59831D01*
X-18052Y59628D01*
X-18150Y59429D01*
X-18252Y59232D01*
X-18359Y59037D01*
X-18471Y58845D01*
X-18588Y58656D01*
X-18709Y58469D01*
X-18835Y58286D01*
X-18965Y58106D01*
X-19100Y57929D01*
X-19238Y57756D01*
X-19381Y57586D01*
X-19529Y57419D01*
X-19680Y57256D01*
X-19835Y57097D01*
X-19994Y56942D01*
X-20157Y56791D01*
X-20324Y56643D01*
X-20494Y56500D01*
X-20667Y56362D01*
X-20844Y56227D01*
X-21024Y56097D01*
X-21207Y55971D01*
X-21394Y55850D01*
X-21583Y55733D01*
X-21775Y55621D01*
X-21970Y55514D01*
X-22167Y55412D01*
X-22366Y55314D01*
X-22569Y55222D01*
X-22773Y55134D01*
X-22979Y55052D01*
X-23187Y54974D01*
X-23398Y54902D01*
X-23609Y54835D01*
X-23823Y54773D01*
X-24038Y54716D01*
X-24254Y54665D01*
X-24471Y54619D01*
X-24690Y54578D01*
X-24909Y54543D01*
X-25130Y54513D01*
X-25350Y54489D01*
X-25572Y54470D01*
X-25794Y54456D01*
X-26016Y54448D01*
X-26238Y54445D01*
X-26460Y54448D01*
X-26682Y54456D01*
X-26904Y54470D01*
X-27126Y54489D01*
X-27346Y54513D01*
X-27567Y54543D01*
X-27786Y54578D01*
X-28005Y54619D01*
X-28222Y54665D01*
X-28438Y54716D01*
X-28653Y54773D01*
X-28867Y54835D01*
X-29078Y54902D01*
X-29289Y54974D01*
X-29497Y55052D01*
X-29703Y55134D01*
X-29907Y55222D01*
X-30110Y55314D01*
X-30309Y55412D01*
X-30506Y55514D01*
X-30701Y55621D01*
X-30893Y55733D01*
X-31082Y55850D01*
X-31269Y55971D01*
X-31452Y56097D01*
X-31632Y56227D01*
X-31809Y56362D01*
X-31982Y56500D01*
X-32152Y56643D01*
X-32319Y56791D01*
X-32482Y56942D01*
X-32641Y57097D01*
X-32796Y57256D01*
X-32947Y57419D01*
X-33095Y57586D01*
X-33238Y57756D01*
X-33376Y57929D01*
X-33511Y58106D01*
X-33641Y58286D01*
X-33767Y58469D01*
X-33888Y58656D01*
X-34005Y58845D01*
X-34117Y59037D01*
X-34224Y59232D01*
X-34326Y59429D01*
X-34424Y59628D01*
X-34516Y59831D01*
X-34604Y60035D01*
X-34686Y60241D01*
X-34764Y60449D01*
X-34836Y60660D01*
X-34903Y60871D01*
X-34965Y61085D01*
X-35022Y61300D01*
X-35073Y61516D01*
X-35119Y61733D01*
X-35160Y61952D01*
X-35195Y62171D01*
X-35225Y62392D01*
X-35249Y62612D01*
X-35268Y62834D01*
X-35282Y63056D01*
X-35290Y63278D01*
X-35293Y63500D01*
D25*
X-26238Y63500D03*
M02*
