G04 EAGLE Gerber RS-274X export*
G75*
%MOMM*%
%FSLAX34Y34*%
%LPD*%
%INSoldermask Bottom*%
%IPPOS*%
%AMOC8*
5,1,8,0,0,1.08239X$1,22.5*%
G01*
%ADD10C,0.838200*%
%ADD11C,1.473200*%
%ADD12C,3.251200*%
%ADD13C,0.853200*%
%ADD14R,0.863600X1.473200*%
%ADD15R,1.473200X0.863600*%
%ADD16R,0.703200X1.203200*%
%ADD17R,0.923200X0.983200*%
%ADD18R,1.253200X1.283200*%
%ADD19R,1.253200X1.403200*%
%ADD20R,1.253200X2.593200*%
%ADD21R,3.113200X0.753200*%
%ADD22C,2.082800*%
%ADD23C,1.203200*%
%ADD24C,1.270000*%
%ADD25C,1.703200*%

G36*
X485009Y1176148D02*
X485009Y1176148D01*
X485016Y1176143D01*
X485916Y1176443D01*
X485916Y1176444D01*
X485917Y1176444D01*
X486717Y1176744D01*
X486719Y1176747D01*
X486722Y1176746D01*
X487322Y1177046D01*
X487325Y1177052D01*
X487330Y1177051D01*
X487730Y1177351D01*
X487731Y1177356D01*
X487735Y1177355D01*
X487835Y1177455D01*
X487837Y1177469D01*
X487847Y1177477D01*
X487839Y1177487D01*
X487843Y1177514D01*
X487816Y1177518D01*
X487800Y1177539D01*
X487500Y1177539D01*
X487491Y1177532D01*
X487484Y1177537D01*
X487192Y1177439D01*
X486906Y1177439D01*
X486512Y1177538D01*
X486510Y1177537D01*
X486510Y1177538D01*
X486016Y1177637D01*
X485626Y1177832D01*
X485236Y1178124D01*
X485045Y1178412D01*
X484947Y1178706D01*
X484942Y1178709D01*
X484944Y1178712D01*
X484846Y1178909D01*
X484752Y1179190D01*
X484847Y1179474D01*
X484846Y1179476D01*
X484847Y1179476D01*
X484847Y1179478D01*
X484848Y1179478D01*
X484946Y1179870D01*
X485141Y1180163D01*
X485141Y1180167D01*
X485144Y1180168D01*
X485341Y1180561D01*
X485631Y1180852D01*
X485927Y1181049D01*
X485928Y1181051D01*
X485930Y1181051D01*
X486329Y1181350D01*
X486625Y1181547D01*
X487412Y1181941D01*
X488092Y1181941D01*
X488378Y1181845D01*
X488659Y1181658D01*
X488851Y1181082D01*
X488851Y1180290D01*
X488854Y1180286D01*
X488852Y1180281D01*
X488862Y1180276D01*
X488887Y1180243D01*
X488903Y1180255D01*
X488922Y1180246D01*
X489722Y1180646D01*
X489728Y1180658D01*
X489737Y1180657D01*
X490537Y1181557D01*
X490537Y1181565D01*
X490543Y1181565D01*
X491243Y1182765D01*
X491242Y1182772D01*
X491246Y1182773D01*
X491746Y1184173D01*
X491745Y1184179D01*
X491748Y1184181D01*
X492048Y1185781D01*
X492045Y1185789D01*
X492049Y1185793D01*
X491949Y1187593D01*
X491944Y1187599D01*
X491947Y1187603D01*
X491447Y1189403D01*
X491441Y1189408D01*
X491443Y1189414D01*
X490443Y1191214D01*
X490438Y1191216D01*
X490439Y1191220D01*
X489739Y1192120D01*
X489734Y1192121D01*
X489735Y1192125D01*
X488935Y1192925D01*
X488932Y1192925D01*
X488932Y1192927D01*
X488132Y1193627D01*
X488126Y1193628D01*
X488125Y1193632D01*
X487125Y1194232D01*
X487119Y1194232D01*
X487118Y1194236D01*
X486118Y1194636D01*
X486114Y1194635D01*
X486113Y1194638D01*
X485013Y1194938D01*
X485009Y1194936D01*
X485008Y1194939D01*
X483808Y1195139D01*
X483803Y1195136D01*
X483800Y1195139D01*
X481904Y1195139D01*
X481317Y1195237D01*
X480828Y1195530D01*
X479835Y1196325D01*
X479338Y1196922D01*
X479334Y1196922D01*
X479335Y1196925D01*
X478038Y1198222D01*
X477540Y1198919D01*
X477534Y1198920D01*
X477535Y1198925D01*
X476937Y1199523D01*
X476438Y1200122D01*
X476434Y1200122D01*
X476435Y1200125D01*
X475937Y1200622D01*
X475639Y1201020D01*
X475634Y1201021D01*
X475635Y1201025D01*
X475338Y1201321D01*
X475141Y1201617D01*
X475108Y1201629D01*
X475100Y1201639D01*
X475000Y1201639D01*
X474953Y1201603D01*
X474958Y1201596D01*
X474951Y1201590D01*
X474951Y1188790D01*
X474953Y1188787D01*
X474951Y1188785D01*
X475151Y1186985D01*
X475156Y1186979D01*
X475153Y1186974D01*
X475353Y1186374D01*
X475358Y1186371D01*
X475356Y1186368D01*
X475656Y1185768D01*
X475659Y1185767D01*
X475658Y1185765D01*
X475958Y1185265D01*
X475974Y1185258D01*
X475975Y1185248D01*
X476472Y1184949D01*
X476870Y1184651D01*
X476880Y1184651D01*
X476882Y1184644D01*
X477882Y1184244D01*
X477889Y1184246D01*
X477892Y1184241D01*
X478492Y1184141D01*
X478497Y1184144D01*
X478500Y1184141D01*
X479300Y1184141D01*
X479307Y1184146D01*
X479312Y1184142D01*
X479706Y1184241D01*
X479900Y1184241D01*
X479913Y1184250D01*
X479922Y1184246D01*
X480122Y1184346D01*
X480123Y1184347D01*
X480124Y1184347D01*
X480125Y1184351D01*
X480148Y1184399D01*
X480132Y1184407D01*
X480135Y1184425D01*
X480035Y1184525D01*
X480023Y1184526D01*
X480022Y1184534D01*
X479622Y1184734D01*
X479617Y1184733D01*
X479616Y1184737D01*
X479327Y1184833D01*
X478938Y1185221D01*
X478745Y1185512D01*
X478649Y1185798D01*
X478649Y1186082D01*
X478746Y1186371D01*
X478941Y1186761D01*
X479231Y1187052D01*
X479523Y1187246D01*
X480014Y1187443D01*
X480505Y1187541D01*
X481294Y1187541D01*
X482080Y1187344D01*
X482666Y1186953D01*
X483056Y1186466D01*
X483251Y1185882D01*
X483251Y1185200D01*
X482958Y1184517D01*
X482263Y1183722D01*
X481463Y1182823D01*
X481463Y1182822D01*
X480763Y1182022D01*
X480762Y1182015D01*
X480757Y1182014D01*
X480257Y1181114D01*
X480258Y1181104D01*
X480252Y1181101D01*
X480052Y1180201D01*
X480055Y1180194D01*
X480053Y1180193D01*
X480053Y1180192D01*
X480051Y1180190D01*
X480051Y1179390D01*
X480058Y1179381D01*
X480053Y1179374D01*
X480353Y1178474D01*
X480362Y1178468D01*
X480360Y1178461D01*
X480860Y1177761D01*
X480868Y1177759D01*
X480867Y1177753D01*
X481767Y1176953D01*
X481776Y1176953D01*
X481776Y1176947D01*
X482876Y1176347D01*
X482888Y1176348D01*
X482891Y1176342D01*
X483991Y1176142D01*
X483997Y1176145D01*
X484000Y1176141D01*
X485000Y1176141D01*
X485009Y1176148D01*
G37*
G36*
X251329Y1176148D02*
X251329Y1176148D01*
X251336Y1176143D01*
X252236Y1176443D01*
X252236Y1176444D01*
X252237Y1176444D01*
X253037Y1176744D01*
X253039Y1176747D01*
X253042Y1176746D01*
X253642Y1177046D01*
X253645Y1177052D01*
X253650Y1177051D01*
X254050Y1177351D01*
X254051Y1177356D01*
X254055Y1177355D01*
X254155Y1177455D01*
X254157Y1177469D01*
X254167Y1177477D01*
X254159Y1177487D01*
X254163Y1177514D01*
X254136Y1177518D01*
X254120Y1177539D01*
X253820Y1177539D01*
X253811Y1177532D01*
X253804Y1177537D01*
X253512Y1177439D01*
X253226Y1177439D01*
X252832Y1177538D01*
X252830Y1177537D01*
X252830Y1177538D01*
X252336Y1177637D01*
X251946Y1177832D01*
X251556Y1178124D01*
X251365Y1178412D01*
X251267Y1178706D01*
X251262Y1178709D01*
X251264Y1178712D01*
X251166Y1178909D01*
X251072Y1179190D01*
X251167Y1179474D01*
X251166Y1179476D01*
X251167Y1179476D01*
X251167Y1179478D01*
X251168Y1179478D01*
X251266Y1179870D01*
X251461Y1180163D01*
X251461Y1180167D01*
X251464Y1180168D01*
X251661Y1180561D01*
X251951Y1180852D01*
X252247Y1181049D01*
X252248Y1181051D01*
X252250Y1181051D01*
X252649Y1181350D01*
X252945Y1181547D01*
X253732Y1181941D01*
X254412Y1181941D01*
X254698Y1181845D01*
X254979Y1181658D01*
X255171Y1181082D01*
X255171Y1180290D01*
X255174Y1180286D01*
X255172Y1180281D01*
X255182Y1180276D01*
X255207Y1180243D01*
X255223Y1180255D01*
X255242Y1180246D01*
X256042Y1180646D01*
X256048Y1180658D01*
X256057Y1180657D01*
X256857Y1181557D01*
X256857Y1181565D01*
X256863Y1181565D01*
X257563Y1182765D01*
X257562Y1182772D01*
X257566Y1182773D01*
X258066Y1184173D01*
X258065Y1184179D01*
X258068Y1184181D01*
X258368Y1185781D01*
X258365Y1185789D01*
X258369Y1185793D01*
X258269Y1187593D01*
X258264Y1187599D01*
X258267Y1187603D01*
X257767Y1189403D01*
X257761Y1189408D01*
X257763Y1189414D01*
X256763Y1191214D01*
X256758Y1191216D01*
X256759Y1191220D01*
X256059Y1192120D01*
X256054Y1192121D01*
X256055Y1192125D01*
X255255Y1192925D01*
X255252Y1192925D01*
X255252Y1192927D01*
X254452Y1193627D01*
X254446Y1193628D01*
X254445Y1193632D01*
X253445Y1194232D01*
X253439Y1194232D01*
X253438Y1194236D01*
X252438Y1194636D01*
X252434Y1194635D01*
X252433Y1194638D01*
X251333Y1194938D01*
X251329Y1194936D01*
X251328Y1194939D01*
X250128Y1195139D01*
X250123Y1195136D01*
X250120Y1195139D01*
X248224Y1195139D01*
X247637Y1195237D01*
X247148Y1195530D01*
X246155Y1196325D01*
X245658Y1196922D01*
X245654Y1196922D01*
X245655Y1196925D01*
X244358Y1198222D01*
X243860Y1198919D01*
X243854Y1198920D01*
X243855Y1198925D01*
X243257Y1199523D01*
X242758Y1200122D01*
X242754Y1200122D01*
X242755Y1200125D01*
X242257Y1200622D01*
X241959Y1201020D01*
X241954Y1201021D01*
X241955Y1201025D01*
X241658Y1201321D01*
X241461Y1201617D01*
X241428Y1201629D01*
X241420Y1201639D01*
X241320Y1201639D01*
X241273Y1201603D01*
X241278Y1201596D01*
X241271Y1201590D01*
X241271Y1188790D01*
X241273Y1188787D01*
X241271Y1188785D01*
X241471Y1186985D01*
X241476Y1186979D01*
X241473Y1186974D01*
X241673Y1186374D01*
X241678Y1186371D01*
X241676Y1186368D01*
X241976Y1185768D01*
X241979Y1185767D01*
X241978Y1185765D01*
X242278Y1185265D01*
X242294Y1185258D01*
X242295Y1185248D01*
X242792Y1184949D01*
X243190Y1184651D01*
X243200Y1184651D01*
X243202Y1184644D01*
X244202Y1184244D01*
X244209Y1184246D01*
X244212Y1184241D01*
X244812Y1184141D01*
X244817Y1184144D01*
X244820Y1184141D01*
X245620Y1184141D01*
X245627Y1184146D01*
X245632Y1184142D01*
X246026Y1184241D01*
X246220Y1184241D01*
X246233Y1184250D01*
X246242Y1184246D01*
X246442Y1184346D01*
X246443Y1184347D01*
X246444Y1184347D01*
X246445Y1184351D01*
X246468Y1184399D01*
X246452Y1184407D01*
X246455Y1184425D01*
X246355Y1184525D01*
X246343Y1184526D01*
X246342Y1184534D01*
X245942Y1184734D01*
X245937Y1184733D01*
X245936Y1184737D01*
X245647Y1184833D01*
X245258Y1185221D01*
X245065Y1185512D01*
X244969Y1185798D01*
X244969Y1186082D01*
X245066Y1186371D01*
X245261Y1186761D01*
X245551Y1187052D01*
X245843Y1187246D01*
X246334Y1187443D01*
X246825Y1187541D01*
X247614Y1187541D01*
X248400Y1187344D01*
X248986Y1186953D01*
X249376Y1186466D01*
X249571Y1185882D01*
X249571Y1185200D01*
X249278Y1184517D01*
X248583Y1183722D01*
X247783Y1182823D01*
X247783Y1182822D01*
X247083Y1182022D01*
X247082Y1182015D01*
X247077Y1182014D01*
X246577Y1181114D01*
X246578Y1181104D01*
X246572Y1181101D01*
X246372Y1180201D01*
X246375Y1180194D01*
X246373Y1180193D01*
X246373Y1180192D01*
X246371Y1180190D01*
X246371Y1179390D01*
X246378Y1179381D01*
X246373Y1179374D01*
X246673Y1178474D01*
X246682Y1178468D01*
X246680Y1178461D01*
X247180Y1177761D01*
X247188Y1177759D01*
X247187Y1177753D01*
X248087Y1176953D01*
X248096Y1176953D01*
X248096Y1176947D01*
X249196Y1176347D01*
X249208Y1176348D01*
X249211Y1176342D01*
X250311Y1176142D01*
X250317Y1176145D01*
X250320Y1176141D01*
X251320Y1176141D01*
X251329Y1176148D01*
G37*
G36*
X17649Y1176148D02*
X17649Y1176148D01*
X17656Y1176143D01*
X18556Y1176443D01*
X18556Y1176444D01*
X18557Y1176444D01*
X19357Y1176744D01*
X19359Y1176747D01*
X19362Y1176746D01*
X19962Y1177046D01*
X19965Y1177052D01*
X19970Y1177051D01*
X20370Y1177351D01*
X20371Y1177356D01*
X20375Y1177355D01*
X20475Y1177455D01*
X20477Y1177469D01*
X20487Y1177477D01*
X20479Y1177487D01*
X20483Y1177514D01*
X20456Y1177518D01*
X20440Y1177539D01*
X20140Y1177539D01*
X20131Y1177532D01*
X20124Y1177537D01*
X19832Y1177439D01*
X19546Y1177439D01*
X19152Y1177538D01*
X19150Y1177537D01*
X19150Y1177538D01*
X18656Y1177637D01*
X18266Y1177832D01*
X17876Y1178124D01*
X17685Y1178412D01*
X17587Y1178706D01*
X17582Y1178709D01*
X17584Y1178712D01*
X17486Y1178909D01*
X17392Y1179190D01*
X17487Y1179474D01*
X17486Y1179476D01*
X17487Y1179476D01*
X17487Y1179478D01*
X17488Y1179478D01*
X17586Y1179870D01*
X17781Y1180163D01*
X17781Y1180167D01*
X17784Y1180168D01*
X17981Y1180561D01*
X18271Y1180852D01*
X18567Y1181049D01*
X18568Y1181051D01*
X18570Y1181051D01*
X18969Y1181350D01*
X19265Y1181547D01*
X20052Y1181941D01*
X20732Y1181941D01*
X21018Y1181845D01*
X21299Y1181658D01*
X21491Y1181082D01*
X21491Y1180290D01*
X21494Y1180286D01*
X21492Y1180281D01*
X21502Y1180276D01*
X21527Y1180243D01*
X21543Y1180255D01*
X21562Y1180246D01*
X22362Y1180646D01*
X22368Y1180658D01*
X22377Y1180657D01*
X23177Y1181557D01*
X23177Y1181565D01*
X23183Y1181565D01*
X23883Y1182765D01*
X23882Y1182772D01*
X23886Y1182773D01*
X24386Y1184173D01*
X24385Y1184179D01*
X24388Y1184181D01*
X24688Y1185781D01*
X24685Y1185789D01*
X24689Y1185793D01*
X24589Y1187593D01*
X24584Y1187599D01*
X24587Y1187603D01*
X24087Y1189403D01*
X24081Y1189408D01*
X24083Y1189414D01*
X23083Y1191214D01*
X23078Y1191216D01*
X23079Y1191220D01*
X22379Y1192120D01*
X22374Y1192121D01*
X22375Y1192125D01*
X21575Y1192925D01*
X21572Y1192925D01*
X21572Y1192927D01*
X20772Y1193627D01*
X20766Y1193628D01*
X20765Y1193632D01*
X19765Y1194232D01*
X19759Y1194232D01*
X19758Y1194236D01*
X18758Y1194636D01*
X18754Y1194635D01*
X18753Y1194638D01*
X17653Y1194938D01*
X17649Y1194936D01*
X17648Y1194939D01*
X16448Y1195139D01*
X16443Y1195136D01*
X16440Y1195139D01*
X14544Y1195139D01*
X13957Y1195237D01*
X13468Y1195530D01*
X12475Y1196325D01*
X11978Y1196922D01*
X11974Y1196922D01*
X11975Y1196925D01*
X10678Y1198222D01*
X10180Y1198919D01*
X10174Y1198920D01*
X10175Y1198925D01*
X9577Y1199523D01*
X9078Y1200122D01*
X9074Y1200122D01*
X9075Y1200125D01*
X8577Y1200622D01*
X8279Y1201020D01*
X8274Y1201021D01*
X8275Y1201025D01*
X7978Y1201321D01*
X7781Y1201617D01*
X7748Y1201629D01*
X7740Y1201639D01*
X7640Y1201639D01*
X7593Y1201603D01*
X7598Y1201596D01*
X7591Y1201590D01*
X7591Y1188790D01*
X7593Y1188787D01*
X7591Y1188785D01*
X7791Y1186985D01*
X7796Y1186979D01*
X7793Y1186974D01*
X7993Y1186374D01*
X7998Y1186371D01*
X7996Y1186368D01*
X8296Y1185768D01*
X8299Y1185767D01*
X8298Y1185765D01*
X8598Y1185265D01*
X8614Y1185258D01*
X8615Y1185248D01*
X9112Y1184949D01*
X9510Y1184651D01*
X9520Y1184651D01*
X9522Y1184644D01*
X10522Y1184244D01*
X10529Y1184246D01*
X10532Y1184241D01*
X11132Y1184141D01*
X11137Y1184144D01*
X11140Y1184141D01*
X11940Y1184141D01*
X11947Y1184146D01*
X11952Y1184142D01*
X12346Y1184241D01*
X12540Y1184241D01*
X12553Y1184250D01*
X12562Y1184246D01*
X12762Y1184346D01*
X12763Y1184347D01*
X12764Y1184347D01*
X12765Y1184351D01*
X12788Y1184399D01*
X12772Y1184407D01*
X12775Y1184425D01*
X12675Y1184525D01*
X12663Y1184526D01*
X12662Y1184534D01*
X12262Y1184734D01*
X12257Y1184733D01*
X12256Y1184737D01*
X11967Y1184833D01*
X11578Y1185221D01*
X11385Y1185512D01*
X11289Y1185798D01*
X11289Y1186082D01*
X11386Y1186371D01*
X11581Y1186761D01*
X11871Y1187052D01*
X12163Y1187246D01*
X12654Y1187443D01*
X13145Y1187541D01*
X13934Y1187541D01*
X14720Y1187344D01*
X15306Y1186953D01*
X15696Y1186466D01*
X15891Y1185882D01*
X15891Y1185200D01*
X15598Y1184517D01*
X14903Y1183722D01*
X14103Y1182823D01*
X14103Y1182822D01*
X13403Y1182022D01*
X13402Y1182015D01*
X13397Y1182014D01*
X12897Y1181114D01*
X12898Y1181104D01*
X12892Y1181101D01*
X12692Y1180201D01*
X12695Y1180194D01*
X12693Y1180193D01*
X12693Y1180192D01*
X12691Y1180190D01*
X12691Y1179390D01*
X12698Y1179381D01*
X12693Y1179374D01*
X12993Y1178474D01*
X13002Y1178468D01*
X13000Y1178461D01*
X13500Y1177761D01*
X13508Y1177759D01*
X13507Y1177753D01*
X14407Y1176953D01*
X14416Y1176953D01*
X14416Y1176947D01*
X15516Y1176347D01*
X15528Y1176348D01*
X15531Y1176342D01*
X16631Y1176142D01*
X16637Y1176145D01*
X16640Y1176141D01*
X17640Y1176141D01*
X17649Y1176148D01*
G37*
G36*
X1186049Y1176148D02*
X1186049Y1176148D01*
X1186056Y1176143D01*
X1186956Y1176443D01*
X1186956Y1176444D01*
X1186957Y1176444D01*
X1187757Y1176744D01*
X1187759Y1176747D01*
X1187762Y1176746D01*
X1188362Y1177046D01*
X1188365Y1177052D01*
X1188370Y1177051D01*
X1188770Y1177351D01*
X1188771Y1177356D01*
X1188775Y1177355D01*
X1188875Y1177455D01*
X1188877Y1177469D01*
X1188887Y1177477D01*
X1188879Y1177487D01*
X1188883Y1177514D01*
X1188856Y1177518D01*
X1188840Y1177539D01*
X1188540Y1177539D01*
X1188531Y1177532D01*
X1188524Y1177537D01*
X1188232Y1177439D01*
X1187946Y1177439D01*
X1187552Y1177538D01*
X1187550Y1177537D01*
X1187550Y1177538D01*
X1187056Y1177637D01*
X1186666Y1177832D01*
X1186276Y1178124D01*
X1186085Y1178412D01*
X1185987Y1178706D01*
X1185982Y1178709D01*
X1185984Y1178712D01*
X1185886Y1178909D01*
X1185792Y1179190D01*
X1185887Y1179474D01*
X1185886Y1179476D01*
X1185887Y1179476D01*
X1185887Y1179478D01*
X1185888Y1179478D01*
X1185986Y1179870D01*
X1186181Y1180163D01*
X1186181Y1180167D01*
X1186184Y1180168D01*
X1186381Y1180561D01*
X1186671Y1180852D01*
X1186967Y1181049D01*
X1186968Y1181051D01*
X1186970Y1181051D01*
X1187369Y1181350D01*
X1187665Y1181547D01*
X1188452Y1181941D01*
X1189132Y1181941D01*
X1189418Y1181845D01*
X1189699Y1181658D01*
X1189891Y1181082D01*
X1189891Y1180290D01*
X1189894Y1180286D01*
X1189892Y1180281D01*
X1189902Y1180276D01*
X1189927Y1180243D01*
X1189943Y1180255D01*
X1189962Y1180246D01*
X1190762Y1180646D01*
X1190768Y1180658D01*
X1190777Y1180657D01*
X1191577Y1181557D01*
X1191577Y1181565D01*
X1191583Y1181565D01*
X1192283Y1182765D01*
X1192282Y1182772D01*
X1192286Y1182773D01*
X1192786Y1184173D01*
X1192785Y1184179D01*
X1192788Y1184181D01*
X1193088Y1185781D01*
X1193085Y1185789D01*
X1193089Y1185793D01*
X1192989Y1187593D01*
X1192984Y1187599D01*
X1192987Y1187603D01*
X1192487Y1189403D01*
X1192481Y1189408D01*
X1192483Y1189414D01*
X1191483Y1191214D01*
X1191478Y1191216D01*
X1191479Y1191220D01*
X1190779Y1192120D01*
X1190774Y1192121D01*
X1190775Y1192125D01*
X1189975Y1192925D01*
X1189972Y1192925D01*
X1189972Y1192927D01*
X1189172Y1193627D01*
X1189166Y1193628D01*
X1189165Y1193632D01*
X1188165Y1194232D01*
X1188159Y1194232D01*
X1188158Y1194236D01*
X1187158Y1194636D01*
X1187154Y1194635D01*
X1187153Y1194638D01*
X1186053Y1194938D01*
X1186049Y1194936D01*
X1186048Y1194939D01*
X1184848Y1195139D01*
X1184843Y1195136D01*
X1184840Y1195139D01*
X1182944Y1195139D01*
X1182357Y1195237D01*
X1181868Y1195530D01*
X1180875Y1196325D01*
X1180378Y1196922D01*
X1180374Y1196922D01*
X1180375Y1196925D01*
X1179078Y1198222D01*
X1178580Y1198919D01*
X1178574Y1198920D01*
X1178575Y1198925D01*
X1177977Y1199523D01*
X1177478Y1200122D01*
X1177474Y1200122D01*
X1177475Y1200125D01*
X1176977Y1200622D01*
X1176679Y1201020D01*
X1176674Y1201021D01*
X1176675Y1201025D01*
X1176378Y1201321D01*
X1176181Y1201617D01*
X1176148Y1201629D01*
X1176140Y1201639D01*
X1176040Y1201639D01*
X1175993Y1201603D01*
X1175998Y1201596D01*
X1175991Y1201590D01*
X1175991Y1188790D01*
X1175993Y1188787D01*
X1175991Y1188785D01*
X1176191Y1186985D01*
X1176196Y1186979D01*
X1176193Y1186974D01*
X1176393Y1186374D01*
X1176398Y1186371D01*
X1176396Y1186368D01*
X1176696Y1185768D01*
X1176699Y1185767D01*
X1176698Y1185765D01*
X1176998Y1185265D01*
X1177014Y1185258D01*
X1177015Y1185248D01*
X1177512Y1184949D01*
X1177910Y1184651D01*
X1177920Y1184651D01*
X1177922Y1184644D01*
X1178922Y1184244D01*
X1178929Y1184246D01*
X1178932Y1184241D01*
X1179532Y1184141D01*
X1179537Y1184144D01*
X1179540Y1184141D01*
X1180340Y1184141D01*
X1180347Y1184146D01*
X1180352Y1184142D01*
X1180746Y1184241D01*
X1180940Y1184241D01*
X1180953Y1184250D01*
X1180962Y1184246D01*
X1181162Y1184346D01*
X1181163Y1184347D01*
X1181164Y1184347D01*
X1181165Y1184351D01*
X1181188Y1184399D01*
X1181172Y1184407D01*
X1181175Y1184425D01*
X1181075Y1184525D01*
X1181063Y1184526D01*
X1181062Y1184534D01*
X1180662Y1184734D01*
X1180657Y1184733D01*
X1180656Y1184737D01*
X1180367Y1184833D01*
X1179978Y1185221D01*
X1179785Y1185512D01*
X1179689Y1185798D01*
X1179689Y1186082D01*
X1179786Y1186371D01*
X1179981Y1186761D01*
X1180271Y1187052D01*
X1180563Y1187246D01*
X1181054Y1187443D01*
X1181545Y1187541D01*
X1182334Y1187541D01*
X1183120Y1187344D01*
X1183706Y1186953D01*
X1184096Y1186466D01*
X1184291Y1185882D01*
X1184291Y1185200D01*
X1183998Y1184517D01*
X1183303Y1183722D01*
X1182503Y1182823D01*
X1182503Y1182822D01*
X1181803Y1182022D01*
X1181802Y1182015D01*
X1181797Y1182014D01*
X1181297Y1181114D01*
X1181298Y1181104D01*
X1181292Y1181101D01*
X1181092Y1180201D01*
X1181095Y1180194D01*
X1181093Y1180193D01*
X1181093Y1180192D01*
X1181091Y1180190D01*
X1181091Y1179390D01*
X1181098Y1179381D01*
X1181093Y1179374D01*
X1181393Y1178474D01*
X1181402Y1178468D01*
X1181400Y1178461D01*
X1181900Y1177761D01*
X1181908Y1177759D01*
X1181907Y1177753D01*
X1182807Y1176953D01*
X1182816Y1176953D01*
X1182816Y1176947D01*
X1183916Y1176347D01*
X1183928Y1176348D01*
X1183931Y1176342D01*
X1185031Y1176142D01*
X1185037Y1176145D01*
X1185040Y1176141D01*
X1186040Y1176141D01*
X1186049Y1176148D01*
G37*
G36*
X718689Y1176148D02*
X718689Y1176148D01*
X718696Y1176143D01*
X719596Y1176443D01*
X719596Y1176444D01*
X719597Y1176444D01*
X720397Y1176744D01*
X720399Y1176747D01*
X720402Y1176746D01*
X721002Y1177046D01*
X721005Y1177052D01*
X721010Y1177051D01*
X721410Y1177351D01*
X721411Y1177356D01*
X721415Y1177355D01*
X721515Y1177455D01*
X721517Y1177469D01*
X721527Y1177477D01*
X721519Y1177487D01*
X721523Y1177514D01*
X721496Y1177518D01*
X721480Y1177539D01*
X721180Y1177539D01*
X721171Y1177532D01*
X721164Y1177537D01*
X720872Y1177439D01*
X720586Y1177439D01*
X720192Y1177538D01*
X720190Y1177537D01*
X720190Y1177538D01*
X719696Y1177637D01*
X719306Y1177832D01*
X718916Y1178124D01*
X718725Y1178412D01*
X718627Y1178706D01*
X718622Y1178709D01*
X718624Y1178712D01*
X718526Y1178909D01*
X718432Y1179190D01*
X718527Y1179474D01*
X718526Y1179476D01*
X718527Y1179476D01*
X718527Y1179478D01*
X718528Y1179478D01*
X718626Y1179870D01*
X718821Y1180163D01*
X718821Y1180167D01*
X718824Y1180168D01*
X719021Y1180561D01*
X719311Y1180852D01*
X719607Y1181049D01*
X719608Y1181051D01*
X719610Y1181051D01*
X720009Y1181350D01*
X720305Y1181547D01*
X721092Y1181941D01*
X721772Y1181941D01*
X722058Y1181845D01*
X722339Y1181658D01*
X722531Y1181082D01*
X722531Y1180290D01*
X722534Y1180286D01*
X722532Y1180281D01*
X722542Y1180276D01*
X722567Y1180243D01*
X722583Y1180255D01*
X722602Y1180246D01*
X723402Y1180646D01*
X723408Y1180658D01*
X723417Y1180657D01*
X724217Y1181557D01*
X724217Y1181565D01*
X724223Y1181565D01*
X724923Y1182765D01*
X724922Y1182772D01*
X724926Y1182773D01*
X725426Y1184173D01*
X725425Y1184179D01*
X725428Y1184181D01*
X725728Y1185781D01*
X725725Y1185789D01*
X725729Y1185793D01*
X725629Y1187593D01*
X725624Y1187599D01*
X725627Y1187603D01*
X725127Y1189403D01*
X725121Y1189408D01*
X725123Y1189414D01*
X724123Y1191214D01*
X724118Y1191216D01*
X724119Y1191220D01*
X723419Y1192120D01*
X723414Y1192121D01*
X723415Y1192125D01*
X722615Y1192925D01*
X722612Y1192925D01*
X722612Y1192927D01*
X721812Y1193627D01*
X721806Y1193628D01*
X721805Y1193632D01*
X720805Y1194232D01*
X720799Y1194232D01*
X720798Y1194236D01*
X719798Y1194636D01*
X719794Y1194635D01*
X719793Y1194638D01*
X718693Y1194938D01*
X718689Y1194936D01*
X718688Y1194939D01*
X717488Y1195139D01*
X717483Y1195136D01*
X717480Y1195139D01*
X715584Y1195139D01*
X714997Y1195237D01*
X714508Y1195530D01*
X713515Y1196325D01*
X713018Y1196922D01*
X713014Y1196922D01*
X713015Y1196925D01*
X711718Y1198222D01*
X711220Y1198919D01*
X711214Y1198920D01*
X711215Y1198925D01*
X710617Y1199523D01*
X710118Y1200122D01*
X710114Y1200122D01*
X710115Y1200125D01*
X709617Y1200622D01*
X709319Y1201020D01*
X709314Y1201021D01*
X709315Y1201025D01*
X709018Y1201321D01*
X708821Y1201617D01*
X708788Y1201629D01*
X708780Y1201639D01*
X708680Y1201639D01*
X708633Y1201603D01*
X708638Y1201596D01*
X708631Y1201590D01*
X708631Y1188790D01*
X708633Y1188787D01*
X708631Y1188785D01*
X708831Y1186985D01*
X708836Y1186979D01*
X708833Y1186974D01*
X709033Y1186374D01*
X709038Y1186371D01*
X709036Y1186368D01*
X709336Y1185768D01*
X709339Y1185767D01*
X709338Y1185765D01*
X709638Y1185265D01*
X709654Y1185258D01*
X709655Y1185248D01*
X710152Y1184949D01*
X710550Y1184651D01*
X710560Y1184651D01*
X710562Y1184644D01*
X711562Y1184244D01*
X711569Y1184246D01*
X711572Y1184241D01*
X712172Y1184141D01*
X712177Y1184144D01*
X712180Y1184141D01*
X712980Y1184141D01*
X712987Y1184146D01*
X712992Y1184142D01*
X713386Y1184241D01*
X713580Y1184241D01*
X713593Y1184250D01*
X713602Y1184246D01*
X713802Y1184346D01*
X713803Y1184347D01*
X713804Y1184347D01*
X713805Y1184351D01*
X713828Y1184399D01*
X713812Y1184407D01*
X713815Y1184425D01*
X713715Y1184525D01*
X713703Y1184526D01*
X713702Y1184534D01*
X713302Y1184734D01*
X713297Y1184733D01*
X713296Y1184737D01*
X713007Y1184833D01*
X712618Y1185221D01*
X712425Y1185512D01*
X712329Y1185798D01*
X712329Y1186082D01*
X712426Y1186371D01*
X712621Y1186761D01*
X712911Y1187052D01*
X713203Y1187246D01*
X713694Y1187443D01*
X714185Y1187541D01*
X714974Y1187541D01*
X715760Y1187344D01*
X716346Y1186953D01*
X716736Y1186466D01*
X716931Y1185882D01*
X716931Y1185200D01*
X716638Y1184517D01*
X715943Y1183722D01*
X715143Y1182823D01*
X715143Y1182822D01*
X714443Y1182022D01*
X714442Y1182015D01*
X714437Y1182014D01*
X713937Y1181114D01*
X713938Y1181104D01*
X713932Y1181101D01*
X713732Y1180201D01*
X713735Y1180194D01*
X713733Y1180193D01*
X713733Y1180192D01*
X713731Y1180190D01*
X713731Y1179390D01*
X713738Y1179381D01*
X713733Y1179374D01*
X714033Y1178474D01*
X714042Y1178468D01*
X714040Y1178461D01*
X714540Y1177761D01*
X714548Y1177759D01*
X714547Y1177753D01*
X715447Y1176953D01*
X715456Y1176953D01*
X715456Y1176947D01*
X716556Y1176347D01*
X716568Y1176348D01*
X716571Y1176342D01*
X717671Y1176142D01*
X717677Y1176145D01*
X717680Y1176141D01*
X718680Y1176141D01*
X718689Y1176148D01*
G37*
G36*
X1419729Y1176148D02*
X1419729Y1176148D01*
X1419736Y1176143D01*
X1420636Y1176443D01*
X1420636Y1176444D01*
X1420637Y1176444D01*
X1421437Y1176744D01*
X1421439Y1176747D01*
X1421442Y1176746D01*
X1422042Y1177046D01*
X1422045Y1177052D01*
X1422050Y1177051D01*
X1422450Y1177351D01*
X1422451Y1177356D01*
X1422455Y1177355D01*
X1422555Y1177455D01*
X1422557Y1177469D01*
X1422567Y1177477D01*
X1422559Y1177487D01*
X1422563Y1177514D01*
X1422536Y1177518D01*
X1422520Y1177539D01*
X1422220Y1177539D01*
X1422211Y1177532D01*
X1422204Y1177537D01*
X1421912Y1177439D01*
X1421626Y1177439D01*
X1421232Y1177538D01*
X1421230Y1177537D01*
X1421230Y1177538D01*
X1420736Y1177637D01*
X1420346Y1177832D01*
X1419956Y1178124D01*
X1419765Y1178412D01*
X1419667Y1178706D01*
X1419662Y1178709D01*
X1419664Y1178712D01*
X1419566Y1178909D01*
X1419472Y1179190D01*
X1419567Y1179474D01*
X1419566Y1179476D01*
X1419567Y1179476D01*
X1419567Y1179478D01*
X1419568Y1179478D01*
X1419666Y1179870D01*
X1419861Y1180163D01*
X1419861Y1180167D01*
X1419864Y1180168D01*
X1420061Y1180561D01*
X1420351Y1180852D01*
X1420647Y1181049D01*
X1420648Y1181051D01*
X1420650Y1181051D01*
X1421049Y1181350D01*
X1421345Y1181547D01*
X1422132Y1181941D01*
X1422812Y1181941D01*
X1423098Y1181845D01*
X1423379Y1181658D01*
X1423571Y1181082D01*
X1423571Y1180290D01*
X1423574Y1180286D01*
X1423572Y1180281D01*
X1423582Y1180276D01*
X1423607Y1180243D01*
X1423623Y1180255D01*
X1423642Y1180246D01*
X1424442Y1180646D01*
X1424448Y1180658D01*
X1424457Y1180657D01*
X1425257Y1181557D01*
X1425257Y1181565D01*
X1425263Y1181565D01*
X1425963Y1182765D01*
X1425962Y1182772D01*
X1425966Y1182773D01*
X1426466Y1184173D01*
X1426465Y1184179D01*
X1426468Y1184181D01*
X1426768Y1185781D01*
X1426765Y1185789D01*
X1426769Y1185793D01*
X1426669Y1187593D01*
X1426664Y1187599D01*
X1426667Y1187603D01*
X1426167Y1189403D01*
X1426161Y1189408D01*
X1426163Y1189414D01*
X1425163Y1191214D01*
X1425158Y1191216D01*
X1425159Y1191220D01*
X1424459Y1192120D01*
X1424454Y1192121D01*
X1424455Y1192125D01*
X1423655Y1192925D01*
X1423652Y1192925D01*
X1423652Y1192927D01*
X1422852Y1193627D01*
X1422846Y1193628D01*
X1422845Y1193632D01*
X1421845Y1194232D01*
X1421839Y1194232D01*
X1421838Y1194236D01*
X1420838Y1194636D01*
X1420834Y1194635D01*
X1420833Y1194638D01*
X1419733Y1194938D01*
X1419729Y1194936D01*
X1419728Y1194939D01*
X1418528Y1195139D01*
X1418523Y1195136D01*
X1418520Y1195139D01*
X1416624Y1195139D01*
X1416037Y1195237D01*
X1415548Y1195530D01*
X1414555Y1196325D01*
X1414058Y1196922D01*
X1414054Y1196922D01*
X1414055Y1196925D01*
X1412758Y1198222D01*
X1412260Y1198919D01*
X1412254Y1198920D01*
X1412255Y1198925D01*
X1411657Y1199523D01*
X1411158Y1200122D01*
X1411154Y1200122D01*
X1411155Y1200125D01*
X1410657Y1200622D01*
X1410359Y1201020D01*
X1410354Y1201021D01*
X1410355Y1201025D01*
X1410058Y1201321D01*
X1409861Y1201617D01*
X1409828Y1201629D01*
X1409820Y1201639D01*
X1409720Y1201639D01*
X1409673Y1201603D01*
X1409678Y1201596D01*
X1409671Y1201590D01*
X1409671Y1188790D01*
X1409673Y1188787D01*
X1409671Y1188785D01*
X1409871Y1186985D01*
X1409876Y1186979D01*
X1409873Y1186974D01*
X1410073Y1186374D01*
X1410078Y1186371D01*
X1410076Y1186368D01*
X1410376Y1185768D01*
X1410379Y1185767D01*
X1410378Y1185765D01*
X1410678Y1185265D01*
X1410694Y1185258D01*
X1410695Y1185248D01*
X1411192Y1184949D01*
X1411590Y1184651D01*
X1411600Y1184651D01*
X1411602Y1184644D01*
X1412602Y1184244D01*
X1412609Y1184246D01*
X1412612Y1184241D01*
X1413212Y1184141D01*
X1413217Y1184144D01*
X1413220Y1184141D01*
X1414020Y1184141D01*
X1414027Y1184146D01*
X1414032Y1184142D01*
X1414426Y1184241D01*
X1414620Y1184241D01*
X1414633Y1184250D01*
X1414642Y1184246D01*
X1414842Y1184346D01*
X1414843Y1184347D01*
X1414844Y1184347D01*
X1414845Y1184351D01*
X1414868Y1184399D01*
X1414852Y1184407D01*
X1414855Y1184425D01*
X1414755Y1184525D01*
X1414743Y1184526D01*
X1414742Y1184534D01*
X1414342Y1184734D01*
X1414337Y1184733D01*
X1414336Y1184737D01*
X1414047Y1184833D01*
X1413658Y1185221D01*
X1413465Y1185512D01*
X1413369Y1185798D01*
X1413369Y1186082D01*
X1413466Y1186371D01*
X1413661Y1186761D01*
X1413951Y1187052D01*
X1414243Y1187246D01*
X1414734Y1187443D01*
X1415225Y1187541D01*
X1416014Y1187541D01*
X1416800Y1187344D01*
X1417386Y1186953D01*
X1417776Y1186466D01*
X1417971Y1185882D01*
X1417971Y1185200D01*
X1417678Y1184517D01*
X1416983Y1183722D01*
X1416183Y1182823D01*
X1416183Y1182822D01*
X1415483Y1182022D01*
X1415482Y1182015D01*
X1415477Y1182014D01*
X1414977Y1181114D01*
X1414978Y1181104D01*
X1414972Y1181101D01*
X1414772Y1180201D01*
X1414775Y1180194D01*
X1414773Y1180193D01*
X1414773Y1180192D01*
X1414771Y1180190D01*
X1414771Y1179390D01*
X1414778Y1179381D01*
X1414773Y1179374D01*
X1415073Y1178474D01*
X1415082Y1178468D01*
X1415080Y1178461D01*
X1415580Y1177761D01*
X1415588Y1177759D01*
X1415587Y1177753D01*
X1416487Y1176953D01*
X1416496Y1176953D01*
X1416496Y1176947D01*
X1417596Y1176347D01*
X1417608Y1176348D01*
X1417611Y1176342D01*
X1418711Y1176142D01*
X1418717Y1176145D01*
X1418720Y1176141D01*
X1419720Y1176141D01*
X1419729Y1176148D01*
G37*
G36*
X952369Y1176148D02*
X952369Y1176148D01*
X952376Y1176143D01*
X953276Y1176443D01*
X953276Y1176444D01*
X953277Y1176444D01*
X954077Y1176744D01*
X954079Y1176747D01*
X954082Y1176746D01*
X954682Y1177046D01*
X954685Y1177052D01*
X954690Y1177051D01*
X955090Y1177351D01*
X955091Y1177356D01*
X955095Y1177355D01*
X955195Y1177455D01*
X955197Y1177469D01*
X955207Y1177477D01*
X955199Y1177487D01*
X955203Y1177514D01*
X955176Y1177518D01*
X955160Y1177539D01*
X954860Y1177539D01*
X954851Y1177532D01*
X954844Y1177537D01*
X954552Y1177439D01*
X954266Y1177439D01*
X953872Y1177538D01*
X953870Y1177537D01*
X953870Y1177538D01*
X953376Y1177637D01*
X952986Y1177832D01*
X952596Y1178124D01*
X952405Y1178412D01*
X952307Y1178706D01*
X952302Y1178709D01*
X952304Y1178712D01*
X952206Y1178909D01*
X952112Y1179190D01*
X952207Y1179474D01*
X952206Y1179476D01*
X952207Y1179476D01*
X952207Y1179478D01*
X952208Y1179478D01*
X952306Y1179870D01*
X952501Y1180163D01*
X952501Y1180167D01*
X952504Y1180168D01*
X952701Y1180561D01*
X952991Y1180852D01*
X953287Y1181049D01*
X953288Y1181051D01*
X953290Y1181051D01*
X953689Y1181350D01*
X953985Y1181547D01*
X954772Y1181941D01*
X955452Y1181941D01*
X955738Y1181845D01*
X956019Y1181658D01*
X956211Y1181082D01*
X956211Y1180290D01*
X956214Y1180286D01*
X956212Y1180281D01*
X956222Y1180276D01*
X956247Y1180243D01*
X956263Y1180255D01*
X956282Y1180246D01*
X957082Y1180646D01*
X957088Y1180658D01*
X957097Y1180657D01*
X957897Y1181557D01*
X957897Y1181565D01*
X957903Y1181565D01*
X958603Y1182765D01*
X958602Y1182772D01*
X958606Y1182773D01*
X959106Y1184173D01*
X959105Y1184179D01*
X959108Y1184181D01*
X959408Y1185781D01*
X959405Y1185789D01*
X959409Y1185793D01*
X959309Y1187593D01*
X959304Y1187599D01*
X959307Y1187603D01*
X958807Y1189403D01*
X958801Y1189408D01*
X958803Y1189414D01*
X957803Y1191214D01*
X957798Y1191216D01*
X957799Y1191220D01*
X957099Y1192120D01*
X957094Y1192121D01*
X957095Y1192125D01*
X956295Y1192925D01*
X956292Y1192925D01*
X956292Y1192927D01*
X955492Y1193627D01*
X955486Y1193628D01*
X955485Y1193632D01*
X954485Y1194232D01*
X954479Y1194232D01*
X954478Y1194236D01*
X953478Y1194636D01*
X953474Y1194635D01*
X953473Y1194638D01*
X952373Y1194938D01*
X952369Y1194936D01*
X952368Y1194939D01*
X951168Y1195139D01*
X951163Y1195136D01*
X951160Y1195139D01*
X949264Y1195139D01*
X948677Y1195237D01*
X948188Y1195530D01*
X947195Y1196325D01*
X946698Y1196922D01*
X946694Y1196922D01*
X946695Y1196925D01*
X945398Y1198222D01*
X944900Y1198919D01*
X944894Y1198920D01*
X944895Y1198925D01*
X944297Y1199523D01*
X943798Y1200122D01*
X943794Y1200122D01*
X943795Y1200125D01*
X943297Y1200622D01*
X942999Y1201020D01*
X942994Y1201021D01*
X942995Y1201025D01*
X942698Y1201321D01*
X942501Y1201617D01*
X942468Y1201629D01*
X942460Y1201639D01*
X942360Y1201639D01*
X942313Y1201603D01*
X942318Y1201596D01*
X942311Y1201590D01*
X942311Y1188790D01*
X942313Y1188787D01*
X942311Y1188785D01*
X942511Y1186985D01*
X942516Y1186979D01*
X942513Y1186974D01*
X942713Y1186374D01*
X942718Y1186371D01*
X942716Y1186368D01*
X943016Y1185768D01*
X943019Y1185767D01*
X943018Y1185765D01*
X943318Y1185265D01*
X943334Y1185258D01*
X943335Y1185248D01*
X943832Y1184949D01*
X944230Y1184651D01*
X944240Y1184651D01*
X944242Y1184644D01*
X945242Y1184244D01*
X945249Y1184246D01*
X945252Y1184241D01*
X945852Y1184141D01*
X945857Y1184144D01*
X945860Y1184141D01*
X946660Y1184141D01*
X946667Y1184146D01*
X946672Y1184142D01*
X947066Y1184241D01*
X947260Y1184241D01*
X947273Y1184250D01*
X947282Y1184246D01*
X947482Y1184346D01*
X947483Y1184347D01*
X947484Y1184347D01*
X947485Y1184351D01*
X947508Y1184399D01*
X947492Y1184407D01*
X947495Y1184425D01*
X947395Y1184525D01*
X947383Y1184526D01*
X947382Y1184534D01*
X946982Y1184734D01*
X946977Y1184733D01*
X946976Y1184737D01*
X946687Y1184833D01*
X946298Y1185221D01*
X946105Y1185512D01*
X946009Y1185798D01*
X946009Y1186082D01*
X946106Y1186371D01*
X946301Y1186761D01*
X946591Y1187052D01*
X946883Y1187246D01*
X947374Y1187443D01*
X947865Y1187541D01*
X948654Y1187541D01*
X949440Y1187344D01*
X950026Y1186953D01*
X950416Y1186466D01*
X950611Y1185882D01*
X950611Y1185200D01*
X950318Y1184517D01*
X949623Y1183722D01*
X948823Y1182823D01*
X948823Y1182822D01*
X948123Y1182022D01*
X948122Y1182015D01*
X948117Y1182014D01*
X947617Y1181114D01*
X947618Y1181104D01*
X947612Y1181101D01*
X947412Y1180201D01*
X947415Y1180194D01*
X947413Y1180193D01*
X947413Y1180192D01*
X947411Y1180190D01*
X947411Y1179390D01*
X947418Y1179381D01*
X947413Y1179374D01*
X947713Y1178474D01*
X947722Y1178468D01*
X947720Y1178461D01*
X948220Y1177761D01*
X948228Y1177759D01*
X948227Y1177753D01*
X949127Y1176953D01*
X949136Y1176953D01*
X949136Y1176947D01*
X950236Y1176347D01*
X950248Y1176348D01*
X950251Y1176342D01*
X951351Y1176142D01*
X951357Y1176145D01*
X951360Y1176141D01*
X952360Y1176141D01*
X952369Y1176148D01*
G37*
G36*
X1623087Y55697D02*
X1623087Y55697D01*
X1623082Y55704D01*
X1623089Y55710D01*
X1623089Y68510D01*
X1623087Y68513D01*
X1623089Y68515D01*
X1622889Y70315D01*
X1622884Y70321D01*
X1622887Y70326D01*
X1622687Y70926D01*
X1622682Y70929D01*
X1622684Y70932D01*
X1622384Y71532D01*
X1622381Y71533D01*
X1622382Y71535D01*
X1622082Y72035D01*
X1622067Y72042D01*
X1622065Y72052D01*
X1621568Y72351D01*
X1621170Y72649D01*
X1621160Y72649D01*
X1621158Y72656D01*
X1620158Y73056D01*
X1620151Y73054D01*
X1620148Y73059D01*
X1619548Y73159D01*
X1619543Y73156D01*
X1619540Y73159D01*
X1618740Y73159D01*
X1618733Y73154D01*
X1618728Y73158D01*
X1618334Y73059D01*
X1618140Y73059D01*
X1618127Y73050D01*
X1618118Y73054D01*
X1617918Y72954D01*
X1617917Y72953D01*
X1617916Y72953D01*
X1617915Y72949D01*
X1617892Y72901D01*
X1617908Y72893D01*
X1617905Y72875D01*
X1618005Y72775D01*
X1618017Y72774D01*
X1618018Y72766D01*
X1618418Y72566D01*
X1618423Y72567D01*
X1618424Y72563D01*
X1618713Y72467D01*
X1619102Y72079D01*
X1619295Y71788D01*
X1619391Y71502D01*
X1619391Y71218D01*
X1619294Y70929D01*
X1619099Y70539D01*
X1618809Y70248D01*
X1618517Y70054D01*
X1618026Y69857D01*
X1617535Y69759D01*
X1616746Y69759D01*
X1615960Y69956D01*
X1615374Y70347D01*
X1614984Y70834D01*
X1614789Y71418D01*
X1614789Y72100D01*
X1615082Y72783D01*
X1615777Y73577D01*
X1616577Y74477D01*
X1616577Y74478D01*
X1617277Y75278D01*
X1617278Y75285D01*
X1617283Y75286D01*
X1617783Y76186D01*
X1617782Y76196D01*
X1617788Y76199D01*
X1617988Y77099D01*
X1617985Y77107D01*
X1617989Y77110D01*
X1617989Y77910D01*
X1617982Y77919D01*
X1617987Y77926D01*
X1617687Y78826D01*
X1617678Y78832D01*
X1617680Y78839D01*
X1617180Y79539D01*
X1617172Y79541D01*
X1617173Y79547D01*
X1616273Y80347D01*
X1616264Y80347D01*
X1616264Y80353D01*
X1615164Y80953D01*
X1615152Y80952D01*
X1615149Y80958D01*
X1614049Y81158D01*
X1614043Y81155D01*
X1614040Y81159D01*
X1613040Y81159D01*
X1613031Y81152D01*
X1613024Y81157D01*
X1612124Y80857D01*
X1612124Y80856D01*
X1612123Y80856D01*
X1611323Y80556D01*
X1611321Y80553D01*
X1611318Y80554D01*
X1610718Y80254D01*
X1610715Y80248D01*
X1610710Y80249D01*
X1610310Y79949D01*
X1610309Y79944D01*
X1610305Y79945D01*
X1610205Y79845D01*
X1610203Y79831D01*
X1610193Y79823D01*
X1610201Y79813D01*
X1610197Y79786D01*
X1610224Y79782D01*
X1610240Y79761D01*
X1610540Y79761D01*
X1610549Y79768D01*
X1610556Y79763D01*
X1610848Y79861D01*
X1611134Y79861D01*
X1611528Y79762D01*
X1611530Y79763D01*
X1611530Y79762D01*
X1612024Y79663D01*
X1612414Y79468D01*
X1612804Y79176D01*
X1612995Y78888D01*
X1613093Y78594D01*
X1613098Y78591D01*
X1613096Y78588D01*
X1613194Y78391D01*
X1613288Y78110D01*
X1613193Y77826D01*
X1613194Y77823D01*
X1613192Y77822D01*
X1613094Y77430D01*
X1612899Y77137D01*
X1612899Y77133D01*
X1612896Y77132D01*
X1612699Y76739D01*
X1612409Y76448D01*
X1612113Y76251D01*
X1612112Y76249D01*
X1612110Y76249D01*
X1611711Y75950D01*
X1611415Y75753D01*
X1610628Y75359D01*
X1609948Y75359D01*
X1609662Y75455D01*
X1609381Y75642D01*
X1609189Y76218D01*
X1609189Y77010D01*
X1609186Y77014D01*
X1609188Y77019D01*
X1609179Y77024D01*
X1609153Y77057D01*
X1609137Y77045D01*
X1609118Y77054D01*
X1608318Y76654D01*
X1608312Y76642D01*
X1608303Y76643D01*
X1607503Y75743D01*
X1607503Y75735D01*
X1607497Y75735D01*
X1606797Y74535D01*
X1606798Y74528D01*
X1606794Y74527D01*
X1606294Y73127D01*
X1606295Y73121D01*
X1606292Y73119D01*
X1605992Y71519D01*
X1605996Y71511D01*
X1605991Y71507D01*
X1606091Y69707D01*
X1606096Y69701D01*
X1606093Y69697D01*
X1606593Y67897D01*
X1606599Y67892D01*
X1606597Y67886D01*
X1607597Y66086D01*
X1607602Y66084D01*
X1607601Y66080D01*
X1608301Y65180D01*
X1608306Y65179D01*
X1608305Y65175D01*
X1609105Y64375D01*
X1609108Y64375D01*
X1609108Y64373D01*
X1609908Y63673D01*
X1609914Y63672D01*
X1609915Y63668D01*
X1610915Y63068D01*
X1610921Y63068D01*
X1610922Y63064D01*
X1611922Y62664D01*
X1611926Y62665D01*
X1611927Y62663D01*
X1613027Y62363D01*
X1613031Y62364D01*
X1613032Y62361D01*
X1614232Y62161D01*
X1614234Y62162D01*
X1614239Y62162D01*
X1614240Y62161D01*
X1616136Y62161D01*
X1616723Y62063D01*
X1617212Y61770D01*
X1618205Y60975D01*
X1618702Y60378D01*
X1618706Y60378D01*
X1618705Y60375D01*
X1620002Y59078D01*
X1620500Y58381D01*
X1620506Y58380D01*
X1620505Y58375D01*
X1621103Y57777D01*
X1621602Y57178D01*
X1621606Y57178D01*
X1621605Y57175D01*
X1622103Y56678D01*
X1622401Y56280D01*
X1622406Y56279D01*
X1622405Y56275D01*
X1622702Y55979D01*
X1622899Y55683D01*
X1622932Y55671D01*
X1622940Y55661D01*
X1623040Y55661D01*
X1623087Y55697D01*
G37*
G36*
X1389407Y55697D02*
X1389407Y55697D01*
X1389402Y55704D01*
X1389409Y55710D01*
X1389409Y68510D01*
X1389407Y68513D01*
X1389409Y68515D01*
X1389209Y70315D01*
X1389204Y70321D01*
X1389207Y70326D01*
X1389007Y70926D01*
X1389002Y70929D01*
X1389004Y70932D01*
X1388704Y71532D01*
X1388701Y71533D01*
X1388702Y71535D01*
X1388402Y72035D01*
X1388387Y72042D01*
X1388385Y72052D01*
X1387888Y72351D01*
X1387490Y72649D01*
X1387480Y72649D01*
X1387478Y72656D01*
X1386478Y73056D01*
X1386471Y73054D01*
X1386468Y73059D01*
X1385868Y73159D01*
X1385863Y73156D01*
X1385860Y73159D01*
X1385060Y73159D01*
X1385053Y73154D01*
X1385048Y73158D01*
X1384654Y73059D01*
X1384460Y73059D01*
X1384447Y73050D01*
X1384438Y73054D01*
X1384238Y72954D01*
X1384237Y72953D01*
X1384236Y72953D01*
X1384235Y72949D01*
X1384212Y72901D01*
X1384228Y72893D01*
X1384225Y72875D01*
X1384325Y72775D01*
X1384337Y72774D01*
X1384338Y72766D01*
X1384738Y72566D01*
X1384743Y72567D01*
X1384744Y72563D01*
X1385033Y72467D01*
X1385422Y72079D01*
X1385615Y71788D01*
X1385711Y71502D01*
X1385711Y71218D01*
X1385614Y70929D01*
X1385419Y70539D01*
X1385129Y70248D01*
X1384837Y70054D01*
X1384346Y69857D01*
X1383855Y69759D01*
X1383066Y69759D01*
X1382280Y69956D01*
X1381694Y70347D01*
X1381304Y70834D01*
X1381109Y71418D01*
X1381109Y72100D01*
X1381402Y72783D01*
X1382097Y73577D01*
X1382897Y74477D01*
X1382897Y74478D01*
X1383597Y75278D01*
X1383598Y75285D01*
X1383603Y75286D01*
X1384103Y76186D01*
X1384102Y76196D01*
X1384108Y76199D01*
X1384308Y77099D01*
X1384305Y77107D01*
X1384309Y77110D01*
X1384309Y77910D01*
X1384302Y77919D01*
X1384307Y77926D01*
X1384007Y78826D01*
X1383998Y78832D01*
X1384000Y78839D01*
X1383500Y79539D01*
X1383492Y79541D01*
X1383493Y79547D01*
X1382593Y80347D01*
X1382584Y80347D01*
X1382584Y80353D01*
X1381484Y80953D01*
X1381472Y80952D01*
X1381469Y80958D01*
X1380369Y81158D01*
X1380363Y81155D01*
X1380360Y81159D01*
X1379360Y81159D01*
X1379351Y81152D01*
X1379344Y81157D01*
X1378444Y80857D01*
X1378444Y80856D01*
X1378443Y80856D01*
X1377643Y80556D01*
X1377641Y80553D01*
X1377638Y80554D01*
X1377038Y80254D01*
X1377035Y80248D01*
X1377030Y80249D01*
X1376630Y79949D01*
X1376629Y79944D01*
X1376625Y79945D01*
X1376525Y79845D01*
X1376523Y79831D01*
X1376513Y79823D01*
X1376521Y79813D01*
X1376517Y79786D01*
X1376544Y79782D01*
X1376560Y79761D01*
X1376860Y79761D01*
X1376869Y79768D01*
X1376876Y79763D01*
X1377168Y79861D01*
X1377454Y79861D01*
X1377848Y79762D01*
X1377850Y79763D01*
X1377850Y79762D01*
X1378344Y79663D01*
X1378734Y79468D01*
X1379124Y79176D01*
X1379315Y78888D01*
X1379413Y78594D01*
X1379418Y78591D01*
X1379416Y78588D01*
X1379514Y78391D01*
X1379608Y78110D01*
X1379513Y77826D01*
X1379514Y77823D01*
X1379512Y77822D01*
X1379414Y77430D01*
X1379219Y77137D01*
X1379219Y77133D01*
X1379216Y77132D01*
X1379019Y76739D01*
X1378729Y76448D01*
X1378433Y76251D01*
X1378432Y76249D01*
X1378430Y76249D01*
X1378031Y75950D01*
X1377735Y75753D01*
X1376948Y75359D01*
X1376268Y75359D01*
X1375982Y75455D01*
X1375701Y75642D01*
X1375509Y76218D01*
X1375509Y77010D01*
X1375506Y77014D01*
X1375508Y77019D01*
X1375499Y77024D01*
X1375473Y77057D01*
X1375457Y77045D01*
X1375438Y77054D01*
X1374638Y76654D01*
X1374632Y76642D01*
X1374623Y76643D01*
X1373823Y75743D01*
X1373823Y75735D01*
X1373817Y75735D01*
X1373117Y74535D01*
X1373118Y74528D01*
X1373114Y74527D01*
X1372614Y73127D01*
X1372615Y73121D01*
X1372612Y73119D01*
X1372312Y71519D01*
X1372316Y71511D01*
X1372311Y71507D01*
X1372411Y69707D01*
X1372416Y69701D01*
X1372413Y69697D01*
X1372913Y67897D01*
X1372919Y67892D01*
X1372917Y67886D01*
X1373917Y66086D01*
X1373922Y66084D01*
X1373921Y66080D01*
X1374621Y65180D01*
X1374626Y65179D01*
X1374625Y65175D01*
X1375425Y64375D01*
X1375428Y64375D01*
X1375428Y64373D01*
X1376228Y63673D01*
X1376234Y63672D01*
X1376235Y63668D01*
X1377235Y63068D01*
X1377241Y63068D01*
X1377242Y63064D01*
X1378242Y62664D01*
X1378246Y62665D01*
X1378247Y62663D01*
X1379347Y62363D01*
X1379351Y62364D01*
X1379352Y62361D01*
X1380552Y62161D01*
X1380554Y62162D01*
X1380559Y62162D01*
X1380560Y62161D01*
X1382456Y62161D01*
X1383043Y62063D01*
X1383532Y61770D01*
X1384525Y60975D01*
X1385022Y60378D01*
X1385026Y60378D01*
X1385025Y60375D01*
X1386322Y59078D01*
X1386820Y58381D01*
X1386826Y58380D01*
X1386825Y58375D01*
X1387423Y57777D01*
X1387922Y57178D01*
X1387926Y57178D01*
X1387925Y57175D01*
X1388423Y56678D01*
X1388721Y56280D01*
X1388726Y56279D01*
X1388725Y56275D01*
X1389022Y55979D01*
X1389219Y55683D01*
X1389252Y55671D01*
X1389260Y55661D01*
X1389360Y55661D01*
X1389407Y55697D01*
G37*
G36*
X1155727Y55697D02*
X1155727Y55697D01*
X1155722Y55704D01*
X1155729Y55710D01*
X1155729Y68510D01*
X1155727Y68513D01*
X1155729Y68515D01*
X1155529Y70315D01*
X1155524Y70321D01*
X1155527Y70326D01*
X1155327Y70926D01*
X1155322Y70929D01*
X1155324Y70932D01*
X1155024Y71532D01*
X1155021Y71533D01*
X1155022Y71535D01*
X1154722Y72035D01*
X1154707Y72042D01*
X1154705Y72052D01*
X1154208Y72351D01*
X1153810Y72649D01*
X1153800Y72649D01*
X1153798Y72656D01*
X1152798Y73056D01*
X1152791Y73054D01*
X1152788Y73059D01*
X1152188Y73159D01*
X1152183Y73156D01*
X1152180Y73159D01*
X1151380Y73159D01*
X1151373Y73154D01*
X1151368Y73158D01*
X1150974Y73059D01*
X1150780Y73059D01*
X1150767Y73050D01*
X1150758Y73054D01*
X1150558Y72954D01*
X1150557Y72953D01*
X1150556Y72953D01*
X1150555Y72949D01*
X1150532Y72901D01*
X1150548Y72893D01*
X1150545Y72875D01*
X1150645Y72775D01*
X1150657Y72774D01*
X1150658Y72766D01*
X1151058Y72566D01*
X1151063Y72567D01*
X1151064Y72563D01*
X1151353Y72467D01*
X1151742Y72079D01*
X1151935Y71788D01*
X1152031Y71502D01*
X1152031Y71218D01*
X1151934Y70929D01*
X1151739Y70539D01*
X1151449Y70248D01*
X1151157Y70054D01*
X1150666Y69857D01*
X1150175Y69759D01*
X1149386Y69759D01*
X1148600Y69956D01*
X1148014Y70347D01*
X1147624Y70834D01*
X1147429Y71418D01*
X1147429Y72100D01*
X1147722Y72783D01*
X1148417Y73577D01*
X1149217Y74477D01*
X1149217Y74478D01*
X1149917Y75278D01*
X1149918Y75285D01*
X1149923Y75286D01*
X1150423Y76186D01*
X1150422Y76196D01*
X1150428Y76199D01*
X1150628Y77099D01*
X1150625Y77107D01*
X1150629Y77110D01*
X1150629Y77910D01*
X1150622Y77919D01*
X1150627Y77926D01*
X1150327Y78826D01*
X1150318Y78832D01*
X1150320Y78839D01*
X1149820Y79539D01*
X1149812Y79541D01*
X1149813Y79547D01*
X1148913Y80347D01*
X1148904Y80347D01*
X1148904Y80353D01*
X1147804Y80953D01*
X1147792Y80952D01*
X1147789Y80958D01*
X1146689Y81158D01*
X1146683Y81155D01*
X1146680Y81159D01*
X1145680Y81159D01*
X1145671Y81152D01*
X1145664Y81157D01*
X1144764Y80857D01*
X1144764Y80856D01*
X1144763Y80856D01*
X1143963Y80556D01*
X1143961Y80553D01*
X1143958Y80554D01*
X1143358Y80254D01*
X1143355Y80248D01*
X1143350Y80249D01*
X1142950Y79949D01*
X1142949Y79944D01*
X1142945Y79945D01*
X1142845Y79845D01*
X1142843Y79831D01*
X1142833Y79823D01*
X1142841Y79813D01*
X1142837Y79786D01*
X1142864Y79782D01*
X1142880Y79761D01*
X1143180Y79761D01*
X1143189Y79768D01*
X1143196Y79763D01*
X1143488Y79861D01*
X1143774Y79861D01*
X1144168Y79762D01*
X1144170Y79763D01*
X1144170Y79762D01*
X1144664Y79663D01*
X1145054Y79468D01*
X1145444Y79176D01*
X1145635Y78888D01*
X1145733Y78594D01*
X1145738Y78591D01*
X1145736Y78588D01*
X1145834Y78391D01*
X1145928Y78110D01*
X1145833Y77826D01*
X1145834Y77823D01*
X1145832Y77822D01*
X1145734Y77430D01*
X1145539Y77137D01*
X1145539Y77133D01*
X1145536Y77132D01*
X1145339Y76739D01*
X1145049Y76448D01*
X1144753Y76251D01*
X1144752Y76249D01*
X1144750Y76249D01*
X1144351Y75950D01*
X1144055Y75753D01*
X1143268Y75359D01*
X1142588Y75359D01*
X1142302Y75455D01*
X1142021Y75642D01*
X1141829Y76218D01*
X1141829Y77010D01*
X1141826Y77014D01*
X1141828Y77019D01*
X1141819Y77024D01*
X1141793Y77057D01*
X1141777Y77045D01*
X1141758Y77054D01*
X1140958Y76654D01*
X1140952Y76642D01*
X1140943Y76643D01*
X1140143Y75743D01*
X1140143Y75735D01*
X1140137Y75735D01*
X1139437Y74535D01*
X1139438Y74528D01*
X1139434Y74527D01*
X1138934Y73127D01*
X1138935Y73121D01*
X1138932Y73119D01*
X1138632Y71519D01*
X1138636Y71511D01*
X1138631Y71507D01*
X1138731Y69707D01*
X1138736Y69701D01*
X1138733Y69697D01*
X1139233Y67897D01*
X1139239Y67892D01*
X1139237Y67886D01*
X1140237Y66086D01*
X1140242Y66084D01*
X1140241Y66080D01*
X1140941Y65180D01*
X1140946Y65179D01*
X1140945Y65175D01*
X1141745Y64375D01*
X1141748Y64375D01*
X1141748Y64373D01*
X1142548Y63673D01*
X1142554Y63672D01*
X1142555Y63668D01*
X1143555Y63068D01*
X1143561Y63068D01*
X1143562Y63064D01*
X1144562Y62664D01*
X1144566Y62665D01*
X1144567Y62663D01*
X1145667Y62363D01*
X1145671Y62364D01*
X1145672Y62361D01*
X1146872Y62161D01*
X1146874Y62162D01*
X1146879Y62162D01*
X1146880Y62161D01*
X1148776Y62161D01*
X1149363Y62063D01*
X1149852Y61770D01*
X1150845Y60975D01*
X1151342Y60378D01*
X1151346Y60378D01*
X1151345Y60375D01*
X1152642Y59078D01*
X1153140Y58381D01*
X1153146Y58380D01*
X1153145Y58375D01*
X1153743Y57777D01*
X1154242Y57178D01*
X1154246Y57178D01*
X1154245Y57175D01*
X1154743Y56678D01*
X1155041Y56280D01*
X1155046Y56279D01*
X1155045Y56275D01*
X1155342Y55979D01*
X1155539Y55683D01*
X1155572Y55671D01*
X1155580Y55661D01*
X1155680Y55661D01*
X1155727Y55697D01*
G37*
G36*
X922047Y55697D02*
X922047Y55697D01*
X922042Y55704D01*
X922049Y55710D01*
X922049Y68510D01*
X922047Y68513D01*
X922049Y68515D01*
X921849Y70315D01*
X921844Y70321D01*
X921847Y70326D01*
X921647Y70926D01*
X921642Y70929D01*
X921644Y70932D01*
X921344Y71532D01*
X921341Y71533D01*
X921342Y71535D01*
X921042Y72035D01*
X921027Y72042D01*
X921025Y72052D01*
X920528Y72351D01*
X920130Y72649D01*
X920120Y72649D01*
X920118Y72656D01*
X919118Y73056D01*
X919111Y73054D01*
X919108Y73059D01*
X918508Y73159D01*
X918503Y73156D01*
X918500Y73159D01*
X917700Y73159D01*
X917693Y73154D01*
X917688Y73158D01*
X917294Y73059D01*
X917100Y73059D01*
X917087Y73050D01*
X917078Y73054D01*
X916878Y72954D01*
X916877Y72953D01*
X916876Y72953D01*
X916875Y72949D01*
X916852Y72901D01*
X916868Y72893D01*
X916865Y72875D01*
X916965Y72775D01*
X916977Y72774D01*
X916978Y72766D01*
X917378Y72566D01*
X917383Y72567D01*
X917384Y72563D01*
X917673Y72467D01*
X918062Y72079D01*
X918255Y71788D01*
X918351Y71502D01*
X918351Y71218D01*
X918254Y70929D01*
X918059Y70539D01*
X917769Y70248D01*
X917477Y70054D01*
X916986Y69857D01*
X916495Y69759D01*
X915706Y69759D01*
X914920Y69956D01*
X914334Y70347D01*
X913944Y70834D01*
X913749Y71418D01*
X913749Y72100D01*
X914042Y72783D01*
X914737Y73577D01*
X915537Y74477D01*
X915537Y74478D01*
X916237Y75278D01*
X916238Y75285D01*
X916243Y75286D01*
X916743Y76186D01*
X916742Y76196D01*
X916748Y76199D01*
X916948Y77099D01*
X916945Y77107D01*
X916949Y77110D01*
X916949Y77910D01*
X916942Y77919D01*
X916947Y77926D01*
X916647Y78826D01*
X916638Y78832D01*
X916640Y78839D01*
X916140Y79539D01*
X916132Y79541D01*
X916133Y79547D01*
X915233Y80347D01*
X915224Y80347D01*
X915224Y80353D01*
X914124Y80953D01*
X914112Y80952D01*
X914109Y80958D01*
X913009Y81158D01*
X913003Y81155D01*
X913000Y81159D01*
X912000Y81159D01*
X911991Y81152D01*
X911984Y81157D01*
X911084Y80857D01*
X911084Y80856D01*
X911083Y80856D01*
X910283Y80556D01*
X910281Y80553D01*
X910278Y80554D01*
X909678Y80254D01*
X909675Y80248D01*
X909670Y80249D01*
X909270Y79949D01*
X909269Y79944D01*
X909265Y79945D01*
X909165Y79845D01*
X909163Y79831D01*
X909153Y79823D01*
X909161Y79813D01*
X909157Y79786D01*
X909184Y79782D01*
X909200Y79761D01*
X909500Y79761D01*
X909509Y79768D01*
X909516Y79763D01*
X909808Y79861D01*
X910094Y79861D01*
X910488Y79762D01*
X910490Y79763D01*
X910490Y79762D01*
X910984Y79663D01*
X911374Y79468D01*
X911764Y79176D01*
X911955Y78888D01*
X912053Y78594D01*
X912058Y78591D01*
X912056Y78588D01*
X912154Y78391D01*
X912248Y78110D01*
X912153Y77826D01*
X912154Y77823D01*
X912152Y77822D01*
X912054Y77430D01*
X911859Y77137D01*
X911859Y77133D01*
X911856Y77132D01*
X911659Y76739D01*
X911369Y76448D01*
X911073Y76251D01*
X911072Y76249D01*
X911070Y76249D01*
X910671Y75950D01*
X910375Y75753D01*
X909588Y75359D01*
X908908Y75359D01*
X908622Y75455D01*
X908341Y75642D01*
X908149Y76218D01*
X908149Y77010D01*
X908146Y77014D01*
X908148Y77019D01*
X908139Y77024D01*
X908113Y77057D01*
X908097Y77045D01*
X908078Y77054D01*
X907278Y76654D01*
X907272Y76642D01*
X907263Y76643D01*
X906463Y75743D01*
X906463Y75735D01*
X906457Y75735D01*
X905757Y74535D01*
X905758Y74528D01*
X905754Y74527D01*
X905254Y73127D01*
X905255Y73121D01*
X905252Y73119D01*
X904952Y71519D01*
X904956Y71511D01*
X904951Y71507D01*
X905051Y69707D01*
X905056Y69701D01*
X905053Y69697D01*
X905553Y67897D01*
X905559Y67892D01*
X905557Y67886D01*
X906557Y66086D01*
X906562Y66084D01*
X906561Y66080D01*
X907261Y65180D01*
X907266Y65179D01*
X907265Y65175D01*
X908065Y64375D01*
X908068Y64375D01*
X908068Y64373D01*
X908868Y63673D01*
X908874Y63672D01*
X908875Y63668D01*
X909875Y63068D01*
X909881Y63068D01*
X909882Y63064D01*
X910882Y62664D01*
X910886Y62665D01*
X910887Y62663D01*
X911987Y62363D01*
X911991Y62364D01*
X911992Y62361D01*
X913192Y62161D01*
X913194Y62162D01*
X913199Y62162D01*
X913200Y62161D01*
X915096Y62161D01*
X915683Y62063D01*
X916172Y61770D01*
X917165Y60975D01*
X917662Y60378D01*
X917666Y60378D01*
X917665Y60375D01*
X918962Y59078D01*
X919460Y58381D01*
X919466Y58380D01*
X919465Y58375D01*
X920063Y57777D01*
X920562Y57178D01*
X920566Y57178D01*
X920565Y57175D01*
X921063Y56678D01*
X921361Y56280D01*
X921366Y56279D01*
X921365Y56275D01*
X921662Y55979D01*
X921859Y55683D01*
X921892Y55671D01*
X921900Y55661D01*
X922000Y55661D01*
X922047Y55697D01*
G37*
G36*
X454687Y55697D02*
X454687Y55697D01*
X454682Y55704D01*
X454689Y55710D01*
X454689Y68510D01*
X454687Y68513D01*
X454689Y68515D01*
X454489Y70315D01*
X454484Y70321D01*
X454487Y70326D01*
X454287Y70926D01*
X454282Y70929D01*
X454284Y70932D01*
X453984Y71532D01*
X453981Y71533D01*
X453982Y71535D01*
X453682Y72035D01*
X453667Y72042D01*
X453665Y72052D01*
X453168Y72351D01*
X452770Y72649D01*
X452760Y72649D01*
X452758Y72656D01*
X451758Y73056D01*
X451751Y73054D01*
X451748Y73059D01*
X451148Y73159D01*
X451143Y73156D01*
X451140Y73159D01*
X450340Y73159D01*
X450333Y73154D01*
X450328Y73158D01*
X449934Y73059D01*
X449740Y73059D01*
X449727Y73050D01*
X449718Y73054D01*
X449518Y72954D01*
X449517Y72953D01*
X449516Y72953D01*
X449515Y72949D01*
X449492Y72901D01*
X449508Y72893D01*
X449505Y72875D01*
X449605Y72775D01*
X449617Y72774D01*
X449618Y72766D01*
X450018Y72566D01*
X450023Y72567D01*
X450024Y72563D01*
X450313Y72467D01*
X450702Y72079D01*
X450895Y71788D01*
X450991Y71502D01*
X450991Y71218D01*
X450894Y70929D01*
X450699Y70539D01*
X450409Y70248D01*
X450117Y70054D01*
X449626Y69857D01*
X449135Y69759D01*
X448346Y69759D01*
X447560Y69956D01*
X446974Y70347D01*
X446584Y70834D01*
X446389Y71418D01*
X446389Y72100D01*
X446682Y72783D01*
X447377Y73577D01*
X448177Y74477D01*
X448177Y74478D01*
X448877Y75278D01*
X448878Y75285D01*
X448883Y75286D01*
X449383Y76186D01*
X449382Y76196D01*
X449388Y76199D01*
X449588Y77099D01*
X449585Y77107D01*
X449589Y77110D01*
X449589Y77910D01*
X449582Y77919D01*
X449587Y77926D01*
X449287Y78826D01*
X449278Y78832D01*
X449280Y78839D01*
X448780Y79539D01*
X448772Y79541D01*
X448773Y79547D01*
X447873Y80347D01*
X447864Y80347D01*
X447864Y80353D01*
X446764Y80953D01*
X446752Y80952D01*
X446749Y80958D01*
X445649Y81158D01*
X445643Y81155D01*
X445640Y81159D01*
X444640Y81159D01*
X444631Y81152D01*
X444624Y81157D01*
X443724Y80857D01*
X443724Y80856D01*
X443723Y80856D01*
X442923Y80556D01*
X442921Y80553D01*
X442918Y80554D01*
X442318Y80254D01*
X442315Y80248D01*
X442310Y80249D01*
X441910Y79949D01*
X441909Y79944D01*
X441905Y79945D01*
X441805Y79845D01*
X441803Y79831D01*
X441793Y79823D01*
X441801Y79813D01*
X441797Y79786D01*
X441824Y79782D01*
X441840Y79761D01*
X442140Y79761D01*
X442149Y79768D01*
X442156Y79763D01*
X442448Y79861D01*
X442734Y79861D01*
X443128Y79762D01*
X443130Y79763D01*
X443130Y79762D01*
X443624Y79663D01*
X444014Y79468D01*
X444404Y79176D01*
X444595Y78888D01*
X444693Y78594D01*
X444698Y78591D01*
X444696Y78588D01*
X444794Y78391D01*
X444888Y78110D01*
X444793Y77826D01*
X444794Y77823D01*
X444792Y77822D01*
X444694Y77430D01*
X444499Y77137D01*
X444499Y77133D01*
X444496Y77132D01*
X444299Y76739D01*
X444009Y76448D01*
X443713Y76251D01*
X443712Y76249D01*
X443710Y76249D01*
X443311Y75950D01*
X443015Y75753D01*
X442228Y75359D01*
X441548Y75359D01*
X441262Y75455D01*
X440981Y75642D01*
X440789Y76218D01*
X440789Y77010D01*
X440786Y77014D01*
X440788Y77019D01*
X440779Y77024D01*
X440753Y77057D01*
X440737Y77045D01*
X440718Y77054D01*
X439918Y76654D01*
X439912Y76642D01*
X439903Y76643D01*
X439103Y75743D01*
X439103Y75735D01*
X439097Y75735D01*
X438397Y74535D01*
X438398Y74528D01*
X438394Y74527D01*
X437894Y73127D01*
X437895Y73121D01*
X437892Y73119D01*
X437592Y71519D01*
X437596Y71511D01*
X437591Y71507D01*
X437691Y69707D01*
X437696Y69701D01*
X437693Y69697D01*
X438193Y67897D01*
X438199Y67892D01*
X438197Y67886D01*
X439197Y66086D01*
X439202Y66084D01*
X439201Y66080D01*
X439901Y65180D01*
X439906Y65179D01*
X439905Y65175D01*
X440705Y64375D01*
X440708Y64375D01*
X440708Y64373D01*
X441508Y63673D01*
X441514Y63672D01*
X441515Y63668D01*
X442515Y63068D01*
X442521Y63068D01*
X442522Y63064D01*
X443522Y62664D01*
X443526Y62665D01*
X443527Y62663D01*
X444627Y62363D01*
X444631Y62364D01*
X444632Y62361D01*
X445832Y62161D01*
X445834Y62162D01*
X445839Y62162D01*
X445840Y62161D01*
X447736Y62161D01*
X448323Y62063D01*
X448812Y61770D01*
X449805Y60975D01*
X450302Y60378D01*
X450306Y60378D01*
X450305Y60375D01*
X451602Y59078D01*
X452100Y58381D01*
X452106Y58380D01*
X452105Y58375D01*
X452703Y57777D01*
X453202Y57178D01*
X453206Y57178D01*
X453205Y57175D01*
X453703Y56678D01*
X454001Y56280D01*
X454006Y56279D01*
X454005Y56275D01*
X454302Y55979D01*
X454499Y55683D01*
X454532Y55671D01*
X454540Y55661D01*
X454640Y55661D01*
X454687Y55697D01*
G37*
G36*
X221007Y55697D02*
X221007Y55697D01*
X221002Y55704D01*
X221009Y55710D01*
X221009Y68510D01*
X221007Y68513D01*
X221009Y68515D01*
X220809Y70315D01*
X220804Y70321D01*
X220807Y70326D01*
X220607Y70926D01*
X220602Y70929D01*
X220604Y70932D01*
X220304Y71532D01*
X220301Y71533D01*
X220302Y71535D01*
X220002Y72035D01*
X219987Y72042D01*
X219985Y72052D01*
X219488Y72351D01*
X219090Y72649D01*
X219080Y72649D01*
X219078Y72656D01*
X218078Y73056D01*
X218071Y73054D01*
X218068Y73059D01*
X217468Y73159D01*
X217463Y73156D01*
X217460Y73159D01*
X216660Y73159D01*
X216653Y73154D01*
X216648Y73158D01*
X216254Y73059D01*
X216060Y73059D01*
X216047Y73050D01*
X216038Y73054D01*
X215838Y72954D01*
X215837Y72953D01*
X215836Y72953D01*
X215835Y72949D01*
X215812Y72901D01*
X215828Y72893D01*
X215825Y72875D01*
X215925Y72775D01*
X215937Y72774D01*
X215938Y72766D01*
X216338Y72566D01*
X216343Y72567D01*
X216344Y72563D01*
X216633Y72467D01*
X217022Y72079D01*
X217215Y71788D01*
X217311Y71502D01*
X217311Y71218D01*
X217214Y70929D01*
X217019Y70539D01*
X216729Y70248D01*
X216437Y70054D01*
X215946Y69857D01*
X215455Y69759D01*
X214666Y69759D01*
X213880Y69956D01*
X213294Y70347D01*
X212904Y70834D01*
X212709Y71418D01*
X212709Y72100D01*
X213002Y72783D01*
X213697Y73577D01*
X214497Y74477D01*
X214497Y74478D01*
X215197Y75278D01*
X215198Y75285D01*
X215203Y75286D01*
X215703Y76186D01*
X215702Y76196D01*
X215708Y76199D01*
X215908Y77099D01*
X215905Y77107D01*
X215909Y77110D01*
X215909Y77910D01*
X215902Y77919D01*
X215907Y77926D01*
X215607Y78826D01*
X215598Y78832D01*
X215600Y78839D01*
X215100Y79539D01*
X215092Y79541D01*
X215093Y79547D01*
X214193Y80347D01*
X214184Y80347D01*
X214184Y80353D01*
X213084Y80953D01*
X213072Y80952D01*
X213069Y80958D01*
X211969Y81158D01*
X211963Y81155D01*
X211960Y81159D01*
X210960Y81159D01*
X210951Y81152D01*
X210944Y81157D01*
X210044Y80857D01*
X210044Y80856D01*
X210043Y80856D01*
X209243Y80556D01*
X209241Y80553D01*
X209238Y80554D01*
X208638Y80254D01*
X208635Y80248D01*
X208630Y80249D01*
X208230Y79949D01*
X208229Y79944D01*
X208225Y79945D01*
X208125Y79845D01*
X208123Y79831D01*
X208113Y79823D01*
X208121Y79813D01*
X208117Y79786D01*
X208144Y79782D01*
X208160Y79761D01*
X208460Y79761D01*
X208469Y79768D01*
X208476Y79763D01*
X208768Y79861D01*
X209054Y79861D01*
X209448Y79762D01*
X209450Y79763D01*
X209450Y79762D01*
X209944Y79663D01*
X210334Y79468D01*
X210724Y79176D01*
X210915Y78888D01*
X211013Y78594D01*
X211018Y78591D01*
X211016Y78588D01*
X211114Y78391D01*
X211208Y78110D01*
X211113Y77826D01*
X211114Y77823D01*
X211112Y77822D01*
X211014Y77430D01*
X210819Y77137D01*
X210819Y77133D01*
X210816Y77132D01*
X210619Y76739D01*
X210329Y76448D01*
X210033Y76251D01*
X210032Y76249D01*
X210030Y76249D01*
X209631Y75950D01*
X209335Y75753D01*
X208548Y75359D01*
X207868Y75359D01*
X207582Y75455D01*
X207301Y75642D01*
X207109Y76218D01*
X207109Y77010D01*
X207106Y77014D01*
X207108Y77019D01*
X207099Y77024D01*
X207073Y77057D01*
X207057Y77045D01*
X207038Y77054D01*
X206238Y76654D01*
X206232Y76642D01*
X206223Y76643D01*
X205423Y75743D01*
X205423Y75735D01*
X205417Y75735D01*
X204717Y74535D01*
X204718Y74528D01*
X204714Y74527D01*
X204214Y73127D01*
X204215Y73121D01*
X204212Y73119D01*
X203912Y71519D01*
X203916Y71511D01*
X203911Y71507D01*
X204011Y69707D01*
X204016Y69701D01*
X204013Y69697D01*
X204513Y67897D01*
X204519Y67892D01*
X204517Y67886D01*
X205517Y66086D01*
X205522Y66084D01*
X205521Y66080D01*
X206221Y65180D01*
X206226Y65179D01*
X206225Y65175D01*
X207025Y64375D01*
X207028Y64375D01*
X207028Y64373D01*
X207828Y63673D01*
X207834Y63672D01*
X207835Y63668D01*
X208835Y63068D01*
X208841Y63068D01*
X208842Y63064D01*
X209842Y62664D01*
X209846Y62665D01*
X209847Y62663D01*
X210947Y62363D01*
X210951Y62364D01*
X210952Y62361D01*
X212152Y62161D01*
X212154Y62162D01*
X212159Y62162D01*
X212160Y62161D01*
X214056Y62161D01*
X214643Y62063D01*
X215132Y61770D01*
X216125Y60975D01*
X216622Y60378D01*
X216626Y60378D01*
X216625Y60375D01*
X217922Y59078D01*
X218420Y58381D01*
X218426Y58380D01*
X218425Y58375D01*
X219023Y57777D01*
X219522Y57178D01*
X219526Y57178D01*
X219525Y57175D01*
X220023Y56678D01*
X220321Y56280D01*
X220326Y56279D01*
X220325Y56275D01*
X220622Y55979D01*
X220819Y55683D01*
X220852Y55671D01*
X220860Y55661D01*
X220960Y55661D01*
X221007Y55697D01*
G37*
G36*
X688367Y55697D02*
X688367Y55697D01*
X688362Y55704D01*
X688369Y55710D01*
X688369Y68510D01*
X688367Y68513D01*
X688369Y68515D01*
X688169Y70315D01*
X688164Y70321D01*
X688167Y70326D01*
X687967Y70926D01*
X687962Y70929D01*
X687964Y70932D01*
X687664Y71532D01*
X687661Y71533D01*
X687662Y71535D01*
X687362Y72035D01*
X687347Y72042D01*
X687345Y72052D01*
X686848Y72351D01*
X686450Y72649D01*
X686440Y72649D01*
X686438Y72656D01*
X685438Y73056D01*
X685431Y73054D01*
X685428Y73059D01*
X684828Y73159D01*
X684823Y73156D01*
X684820Y73159D01*
X684020Y73159D01*
X684013Y73154D01*
X684008Y73158D01*
X683614Y73059D01*
X683420Y73059D01*
X683407Y73050D01*
X683398Y73054D01*
X683198Y72954D01*
X683197Y72953D01*
X683196Y72953D01*
X683195Y72949D01*
X683172Y72901D01*
X683188Y72893D01*
X683185Y72875D01*
X683285Y72775D01*
X683297Y72774D01*
X683298Y72766D01*
X683698Y72566D01*
X683703Y72567D01*
X683704Y72563D01*
X683993Y72467D01*
X684382Y72079D01*
X684575Y71788D01*
X684671Y71502D01*
X684671Y71218D01*
X684574Y70929D01*
X684379Y70539D01*
X684089Y70248D01*
X683797Y70054D01*
X683306Y69857D01*
X682815Y69759D01*
X682026Y69759D01*
X681240Y69956D01*
X680654Y70347D01*
X680264Y70834D01*
X680069Y71418D01*
X680069Y72100D01*
X680362Y72783D01*
X681057Y73577D01*
X681857Y74477D01*
X681857Y74478D01*
X682557Y75278D01*
X682558Y75285D01*
X682563Y75286D01*
X683063Y76186D01*
X683062Y76196D01*
X683068Y76199D01*
X683268Y77099D01*
X683265Y77107D01*
X683269Y77110D01*
X683269Y77910D01*
X683262Y77919D01*
X683267Y77926D01*
X682967Y78826D01*
X682958Y78832D01*
X682960Y78839D01*
X682460Y79539D01*
X682452Y79541D01*
X682453Y79547D01*
X681553Y80347D01*
X681544Y80347D01*
X681544Y80353D01*
X680444Y80953D01*
X680432Y80952D01*
X680429Y80958D01*
X679329Y81158D01*
X679323Y81155D01*
X679320Y81159D01*
X678320Y81159D01*
X678311Y81152D01*
X678304Y81157D01*
X677404Y80857D01*
X677404Y80856D01*
X677403Y80856D01*
X676603Y80556D01*
X676601Y80553D01*
X676598Y80554D01*
X675998Y80254D01*
X675995Y80248D01*
X675990Y80249D01*
X675590Y79949D01*
X675589Y79944D01*
X675585Y79945D01*
X675485Y79845D01*
X675483Y79831D01*
X675473Y79823D01*
X675481Y79813D01*
X675477Y79786D01*
X675504Y79782D01*
X675520Y79761D01*
X675820Y79761D01*
X675829Y79768D01*
X675836Y79763D01*
X676128Y79861D01*
X676414Y79861D01*
X676808Y79762D01*
X676810Y79763D01*
X676810Y79762D01*
X677304Y79663D01*
X677694Y79468D01*
X678084Y79176D01*
X678275Y78888D01*
X678373Y78594D01*
X678378Y78591D01*
X678376Y78588D01*
X678474Y78391D01*
X678568Y78110D01*
X678473Y77826D01*
X678474Y77823D01*
X678472Y77822D01*
X678374Y77430D01*
X678179Y77137D01*
X678179Y77133D01*
X678176Y77132D01*
X677979Y76739D01*
X677689Y76448D01*
X677393Y76251D01*
X677392Y76249D01*
X677390Y76249D01*
X676991Y75950D01*
X676695Y75753D01*
X675908Y75359D01*
X675228Y75359D01*
X674942Y75455D01*
X674661Y75642D01*
X674469Y76218D01*
X674469Y77010D01*
X674466Y77014D01*
X674468Y77019D01*
X674459Y77024D01*
X674433Y77057D01*
X674417Y77045D01*
X674398Y77054D01*
X673598Y76654D01*
X673592Y76642D01*
X673583Y76643D01*
X672783Y75743D01*
X672783Y75735D01*
X672777Y75735D01*
X672077Y74535D01*
X672078Y74528D01*
X672074Y74527D01*
X671574Y73127D01*
X671575Y73121D01*
X671572Y73119D01*
X671272Y71519D01*
X671276Y71511D01*
X671271Y71507D01*
X671371Y69707D01*
X671376Y69701D01*
X671373Y69697D01*
X671873Y67897D01*
X671879Y67892D01*
X671877Y67886D01*
X672877Y66086D01*
X672882Y66084D01*
X672881Y66080D01*
X673581Y65180D01*
X673586Y65179D01*
X673585Y65175D01*
X674385Y64375D01*
X674388Y64375D01*
X674388Y64373D01*
X675188Y63673D01*
X675194Y63672D01*
X675195Y63668D01*
X676195Y63068D01*
X676201Y63068D01*
X676202Y63064D01*
X677202Y62664D01*
X677206Y62665D01*
X677207Y62663D01*
X678307Y62363D01*
X678311Y62364D01*
X678312Y62361D01*
X679512Y62161D01*
X679514Y62162D01*
X679519Y62162D01*
X679520Y62161D01*
X681416Y62161D01*
X682003Y62063D01*
X682492Y61770D01*
X683485Y60975D01*
X683982Y60378D01*
X683986Y60378D01*
X683985Y60375D01*
X685282Y59078D01*
X685780Y58381D01*
X685786Y58380D01*
X685785Y58375D01*
X686383Y57777D01*
X686882Y57178D01*
X686886Y57178D01*
X686885Y57175D01*
X687383Y56678D01*
X687681Y56280D01*
X687686Y56279D01*
X687685Y56275D01*
X687982Y55979D01*
X688179Y55683D01*
X688212Y55671D01*
X688220Y55661D01*
X688320Y55661D01*
X688367Y55697D01*
G37*
G36*
X181675Y1193812D02*
X181675Y1193812D01*
X181741Y1193814D01*
X181784Y1193832D01*
X181831Y1193840D01*
X181888Y1193874D01*
X181948Y1193899D01*
X181983Y1193930D01*
X182024Y1193955D01*
X182066Y1194006D01*
X182114Y1194050D01*
X182136Y1194092D01*
X182165Y1194129D01*
X182186Y1194191D01*
X182217Y1194250D01*
X182225Y1194304D01*
X182237Y1194341D01*
X182236Y1194381D01*
X182244Y1194435D01*
X182244Y1198245D01*
X182233Y1198310D01*
X182231Y1198376D01*
X182213Y1198419D01*
X182205Y1198466D01*
X182171Y1198523D01*
X182146Y1198583D01*
X182115Y1198618D01*
X182090Y1198659D01*
X182039Y1198701D01*
X181995Y1198749D01*
X181953Y1198771D01*
X181916Y1198800D01*
X181854Y1198821D01*
X181795Y1198852D01*
X181741Y1198860D01*
X181704Y1198872D01*
X181664Y1198871D01*
X181610Y1198879D01*
X179070Y1198879D01*
X179005Y1198868D01*
X178939Y1198866D01*
X178896Y1198848D01*
X178849Y1198840D01*
X178792Y1198806D01*
X178732Y1198781D01*
X178697Y1198750D01*
X178656Y1198725D01*
X178615Y1198674D01*
X178566Y1198630D01*
X178544Y1198588D01*
X178515Y1198551D01*
X178494Y1198489D01*
X178463Y1198430D01*
X178455Y1198376D01*
X178443Y1198339D01*
X178443Y1198335D01*
X178443Y1198334D01*
X178444Y1198299D01*
X178436Y1198245D01*
X178436Y1194435D01*
X178447Y1194370D01*
X178449Y1194304D01*
X178467Y1194261D01*
X178475Y1194214D01*
X178509Y1194157D01*
X178534Y1194097D01*
X178565Y1194062D01*
X178590Y1194021D01*
X178641Y1193980D01*
X178685Y1193931D01*
X178727Y1193909D01*
X178764Y1193880D01*
X178826Y1193859D01*
X178885Y1193828D01*
X178939Y1193820D01*
X178976Y1193808D01*
X179016Y1193809D01*
X179070Y1193801D01*
X181610Y1193801D01*
X181675Y1193812D01*
G37*
G36*
X649035Y1193812D02*
X649035Y1193812D01*
X649101Y1193814D01*
X649144Y1193832D01*
X649191Y1193840D01*
X649248Y1193874D01*
X649308Y1193899D01*
X649343Y1193930D01*
X649384Y1193955D01*
X649426Y1194006D01*
X649474Y1194050D01*
X649496Y1194092D01*
X649525Y1194129D01*
X649546Y1194191D01*
X649577Y1194250D01*
X649585Y1194304D01*
X649597Y1194341D01*
X649596Y1194381D01*
X649604Y1194435D01*
X649604Y1198245D01*
X649593Y1198310D01*
X649591Y1198376D01*
X649573Y1198419D01*
X649565Y1198466D01*
X649531Y1198523D01*
X649506Y1198583D01*
X649475Y1198618D01*
X649450Y1198659D01*
X649399Y1198701D01*
X649355Y1198749D01*
X649313Y1198771D01*
X649276Y1198800D01*
X649214Y1198821D01*
X649155Y1198852D01*
X649101Y1198860D01*
X649064Y1198872D01*
X649024Y1198871D01*
X648970Y1198879D01*
X646430Y1198879D01*
X646365Y1198868D01*
X646299Y1198866D01*
X646256Y1198848D01*
X646209Y1198840D01*
X646152Y1198806D01*
X646092Y1198781D01*
X646057Y1198750D01*
X646016Y1198725D01*
X645975Y1198674D01*
X645926Y1198630D01*
X645904Y1198588D01*
X645875Y1198551D01*
X645854Y1198489D01*
X645823Y1198430D01*
X645815Y1198376D01*
X645803Y1198339D01*
X645803Y1198335D01*
X645803Y1198334D01*
X645804Y1198299D01*
X645796Y1198245D01*
X645796Y1194435D01*
X645807Y1194370D01*
X645809Y1194304D01*
X645827Y1194261D01*
X645835Y1194214D01*
X645869Y1194157D01*
X645894Y1194097D01*
X645925Y1194062D01*
X645950Y1194021D01*
X646001Y1193980D01*
X646045Y1193931D01*
X646087Y1193909D01*
X646124Y1193880D01*
X646186Y1193859D01*
X646245Y1193828D01*
X646299Y1193820D01*
X646336Y1193808D01*
X646376Y1193809D01*
X646430Y1193801D01*
X648970Y1193801D01*
X649035Y1193812D01*
G37*
G36*
X1583755Y1193812D02*
X1583755Y1193812D01*
X1583821Y1193814D01*
X1583864Y1193832D01*
X1583911Y1193840D01*
X1583968Y1193874D01*
X1584028Y1193899D01*
X1584063Y1193930D01*
X1584104Y1193955D01*
X1584146Y1194006D01*
X1584194Y1194050D01*
X1584216Y1194092D01*
X1584245Y1194129D01*
X1584266Y1194191D01*
X1584297Y1194250D01*
X1584305Y1194304D01*
X1584317Y1194341D01*
X1584316Y1194381D01*
X1584324Y1194435D01*
X1584324Y1198245D01*
X1584313Y1198310D01*
X1584311Y1198376D01*
X1584293Y1198419D01*
X1584285Y1198466D01*
X1584251Y1198523D01*
X1584226Y1198583D01*
X1584195Y1198618D01*
X1584170Y1198659D01*
X1584119Y1198701D01*
X1584075Y1198749D01*
X1584033Y1198771D01*
X1583996Y1198800D01*
X1583934Y1198821D01*
X1583875Y1198852D01*
X1583821Y1198860D01*
X1583784Y1198872D01*
X1583744Y1198871D01*
X1583690Y1198879D01*
X1581150Y1198879D01*
X1581085Y1198868D01*
X1581019Y1198866D01*
X1580976Y1198848D01*
X1580929Y1198840D01*
X1580872Y1198806D01*
X1580812Y1198781D01*
X1580777Y1198750D01*
X1580736Y1198725D01*
X1580695Y1198674D01*
X1580646Y1198630D01*
X1580624Y1198588D01*
X1580595Y1198551D01*
X1580574Y1198489D01*
X1580543Y1198430D01*
X1580535Y1198376D01*
X1580523Y1198339D01*
X1580523Y1198335D01*
X1580523Y1198334D01*
X1580524Y1198299D01*
X1580516Y1198245D01*
X1580516Y1194435D01*
X1580527Y1194370D01*
X1580529Y1194304D01*
X1580547Y1194261D01*
X1580555Y1194214D01*
X1580589Y1194157D01*
X1580614Y1194097D01*
X1580645Y1194062D01*
X1580670Y1194021D01*
X1580721Y1193980D01*
X1580765Y1193931D01*
X1580807Y1193909D01*
X1580844Y1193880D01*
X1580906Y1193859D01*
X1580965Y1193828D01*
X1581019Y1193820D01*
X1581056Y1193808D01*
X1581096Y1193809D01*
X1581150Y1193801D01*
X1583690Y1193801D01*
X1583755Y1193812D01*
G37*
G36*
X415355Y1193812D02*
X415355Y1193812D01*
X415421Y1193814D01*
X415464Y1193832D01*
X415511Y1193840D01*
X415568Y1193874D01*
X415628Y1193899D01*
X415663Y1193930D01*
X415704Y1193955D01*
X415746Y1194006D01*
X415794Y1194050D01*
X415816Y1194092D01*
X415845Y1194129D01*
X415866Y1194191D01*
X415897Y1194250D01*
X415905Y1194304D01*
X415917Y1194341D01*
X415916Y1194381D01*
X415924Y1194435D01*
X415924Y1198245D01*
X415913Y1198310D01*
X415911Y1198376D01*
X415893Y1198419D01*
X415885Y1198466D01*
X415851Y1198523D01*
X415826Y1198583D01*
X415795Y1198618D01*
X415770Y1198659D01*
X415719Y1198701D01*
X415675Y1198749D01*
X415633Y1198771D01*
X415596Y1198800D01*
X415534Y1198821D01*
X415475Y1198852D01*
X415421Y1198860D01*
X415384Y1198872D01*
X415344Y1198871D01*
X415290Y1198879D01*
X412750Y1198879D01*
X412685Y1198868D01*
X412619Y1198866D01*
X412576Y1198848D01*
X412529Y1198840D01*
X412472Y1198806D01*
X412412Y1198781D01*
X412377Y1198750D01*
X412336Y1198725D01*
X412295Y1198674D01*
X412246Y1198630D01*
X412224Y1198588D01*
X412195Y1198551D01*
X412174Y1198489D01*
X412143Y1198430D01*
X412135Y1198376D01*
X412123Y1198339D01*
X412123Y1198335D01*
X412123Y1198334D01*
X412124Y1198299D01*
X412116Y1198245D01*
X412116Y1194435D01*
X412127Y1194370D01*
X412129Y1194304D01*
X412147Y1194261D01*
X412155Y1194214D01*
X412189Y1194157D01*
X412214Y1194097D01*
X412245Y1194062D01*
X412270Y1194021D01*
X412321Y1193980D01*
X412365Y1193931D01*
X412407Y1193909D01*
X412444Y1193880D01*
X412506Y1193859D01*
X412565Y1193828D01*
X412619Y1193820D01*
X412656Y1193808D01*
X412696Y1193809D01*
X412750Y1193801D01*
X415290Y1193801D01*
X415355Y1193812D01*
G37*
G36*
X882715Y1193812D02*
X882715Y1193812D01*
X882781Y1193814D01*
X882824Y1193832D01*
X882871Y1193840D01*
X882928Y1193874D01*
X882988Y1193899D01*
X883023Y1193930D01*
X883064Y1193955D01*
X883106Y1194006D01*
X883154Y1194050D01*
X883176Y1194092D01*
X883205Y1194129D01*
X883226Y1194191D01*
X883257Y1194250D01*
X883265Y1194304D01*
X883277Y1194341D01*
X883276Y1194381D01*
X883284Y1194435D01*
X883284Y1198245D01*
X883273Y1198310D01*
X883271Y1198376D01*
X883253Y1198419D01*
X883245Y1198466D01*
X883211Y1198523D01*
X883186Y1198583D01*
X883155Y1198618D01*
X883130Y1198659D01*
X883079Y1198701D01*
X883035Y1198749D01*
X882993Y1198771D01*
X882956Y1198800D01*
X882894Y1198821D01*
X882835Y1198852D01*
X882781Y1198860D01*
X882744Y1198872D01*
X882704Y1198871D01*
X882650Y1198879D01*
X880110Y1198879D01*
X880045Y1198868D01*
X879979Y1198866D01*
X879936Y1198848D01*
X879889Y1198840D01*
X879832Y1198806D01*
X879772Y1198781D01*
X879737Y1198750D01*
X879696Y1198725D01*
X879655Y1198674D01*
X879606Y1198630D01*
X879584Y1198588D01*
X879555Y1198551D01*
X879534Y1198489D01*
X879503Y1198430D01*
X879495Y1198376D01*
X879483Y1198339D01*
X879483Y1198335D01*
X879483Y1198334D01*
X879484Y1198299D01*
X879476Y1198245D01*
X879476Y1194435D01*
X879487Y1194370D01*
X879489Y1194304D01*
X879507Y1194261D01*
X879515Y1194214D01*
X879549Y1194157D01*
X879574Y1194097D01*
X879605Y1194062D01*
X879630Y1194021D01*
X879681Y1193980D01*
X879725Y1193931D01*
X879767Y1193909D01*
X879804Y1193880D01*
X879866Y1193859D01*
X879925Y1193828D01*
X879979Y1193820D01*
X880016Y1193808D01*
X880056Y1193809D01*
X880110Y1193801D01*
X882650Y1193801D01*
X882715Y1193812D01*
G37*
G36*
X1350075Y1193812D02*
X1350075Y1193812D01*
X1350141Y1193814D01*
X1350184Y1193832D01*
X1350231Y1193840D01*
X1350288Y1193874D01*
X1350348Y1193899D01*
X1350383Y1193930D01*
X1350424Y1193955D01*
X1350466Y1194006D01*
X1350514Y1194050D01*
X1350536Y1194092D01*
X1350565Y1194129D01*
X1350586Y1194191D01*
X1350617Y1194250D01*
X1350625Y1194304D01*
X1350637Y1194341D01*
X1350636Y1194381D01*
X1350644Y1194435D01*
X1350644Y1198245D01*
X1350633Y1198310D01*
X1350631Y1198376D01*
X1350613Y1198419D01*
X1350605Y1198466D01*
X1350571Y1198523D01*
X1350546Y1198583D01*
X1350515Y1198618D01*
X1350490Y1198659D01*
X1350439Y1198701D01*
X1350395Y1198749D01*
X1350353Y1198771D01*
X1350316Y1198800D01*
X1350254Y1198821D01*
X1350195Y1198852D01*
X1350141Y1198860D01*
X1350104Y1198872D01*
X1350064Y1198871D01*
X1350010Y1198879D01*
X1347470Y1198879D01*
X1347405Y1198868D01*
X1347339Y1198866D01*
X1347296Y1198848D01*
X1347249Y1198840D01*
X1347192Y1198806D01*
X1347132Y1198781D01*
X1347097Y1198750D01*
X1347056Y1198725D01*
X1347015Y1198674D01*
X1346966Y1198630D01*
X1346944Y1198588D01*
X1346915Y1198551D01*
X1346894Y1198489D01*
X1346863Y1198430D01*
X1346855Y1198376D01*
X1346843Y1198339D01*
X1346843Y1198335D01*
X1346843Y1198334D01*
X1346844Y1198299D01*
X1346836Y1198245D01*
X1346836Y1194435D01*
X1346847Y1194370D01*
X1346849Y1194304D01*
X1346867Y1194261D01*
X1346875Y1194214D01*
X1346909Y1194157D01*
X1346934Y1194097D01*
X1346965Y1194062D01*
X1346990Y1194021D01*
X1347041Y1193980D01*
X1347085Y1193931D01*
X1347127Y1193909D01*
X1347164Y1193880D01*
X1347226Y1193859D01*
X1347285Y1193828D01*
X1347339Y1193820D01*
X1347376Y1193808D01*
X1347416Y1193809D01*
X1347470Y1193801D01*
X1350010Y1193801D01*
X1350075Y1193812D01*
G37*
G36*
X1116395Y1193812D02*
X1116395Y1193812D01*
X1116461Y1193814D01*
X1116504Y1193832D01*
X1116551Y1193840D01*
X1116608Y1193874D01*
X1116668Y1193899D01*
X1116703Y1193930D01*
X1116744Y1193955D01*
X1116786Y1194006D01*
X1116834Y1194050D01*
X1116856Y1194092D01*
X1116885Y1194129D01*
X1116906Y1194191D01*
X1116937Y1194250D01*
X1116945Y1194304D01*
X1116957Y1194341D01*
X1116956Y1194381D01*
X1116964Y1194435D01*
X1116964Y1198245D01*
X1116953Y1198310D01*
X1116951Y1198376D01*
X1116933Y1198419D01*
X1116925Y1198466D01*
X1116891Y1198523D01*
X1116866Y1198583D01*
X1116835Y1198618D01*
X1116810Y1198659D01*
X1116759Y1198701D01*
X1116715Y1198749D01*
X1116673Y1198771D01*
X1116636Y1198800D01*
X1116574Y1198821D01*
X1116515Y1198852D01*
X1116461Y1198860D01*
X1116424Y1198872D01*
X1116384Y1198871D01*
X1116330Y1198879D01*
X1113790Y1198879D01*
X1113725Y1198868D01*
X1113659Y1198866D01*
X1113616Y1198848D01*
X1113569Y1198840D01*
X1113512Y1198806D01*
X1113452Y1198781D01*
X1113417Y1198750D01*
X1113376Y1198725D01*
X1113335Y1198674D01*
X1113286Y1198630D01*
X1113264Y1198588D01*
X1113235Y1198551D01*
X1113214Y1198489D01*
X1113183Y1198430D01*
X1113175Y1198376D01*
X1113163Y1198339D01*
X1113163Y1198335D01*
X1113163Y1198334D01*
X1113164Y1198299D01*
X1113156Y1198245D01*
X1113156Y1194435D01*
X1113167Y1194370D01*
X1113169Y1194304D01*
X1113187Y1194261D01*
X1113195Y1194214D01*
X1113229Y1194157D01*
X1113254Y1194097D01*
X1113285Y1194062D01*
X1113310Y1194021D01*
X1113361Y1193980D01*
X1113405Y1193931D01*
X1113447Y1193909D01*
X1113484Y1193880D01*
X1113546Y1193859D01*
X1113605Y1193828D01*
X1113659Y1193820D01*
X1113696Y1193808D01*
X1113736Y1193809D01*
X1113790Y1193801D01*
X1116330Y1193801D01*
X1116395Y1193812D01*
G37*
G36*
X1061785Y962672D02*
X1061785Y962672D01*
X1061851Y962674D01*
X1061894Y962692D01*
X1061941Y962700D01*
X1061998Y962734D01*
X1062058Y962759D01*
X1062093Y962790D01*
X1062134Y962815D01*
X1062176Y962866D01*
X1062224Y962910D01*
X1062246Y962952D01*
X1062275Y962989D01*
X1062296Y963051D01*
X1062327Y963110D01*
X1062335Y963164D01*
X1062347Y963201D01*
X1062346Y963241D01*
X1062354Y963295D01*
X1062354Y967105D01*
X1062343Y967170D01*
X1062341Y967236D01*
X1062323Y967279D01*
X1062315Y967326D01*
X1062281Y967383D01*
X1062256Y967443D01*
X1062225Y967478D01*
X1062200Y967519D01*
X1062149Y967561D01*
X1062105Y967609D01*
X1062063Y967631D01*
X1062026Y967660D01*
X1061964Y967681D01*
X1061905Y967712D01*
X1061851Y967720D01*
X1061814Y967732D01*
X1061774Y967731D01*
X1061720Y967739D01*
X1059180Y967739D01*
X1059115Y967728D01*
X1059049Y967726D01*
X1059006Y967708D01*
X1058959Y967700D01*
X1058902Y967666D01*
X1058842Y967641D01*
X1058807Y967610D01*
X1058766Y967585D01*
X1058725Y967534D01*
X1058676Y967490D01*
X1058654Y967448D01*
X1058625Y967411D01*
X1058604Y967349D01*
X1058573Y967290D01*
X1058565Y967236D01*
X1058553Y967199D01*
X1058553Y967195D01*
X1058553Y967194D01*
X1058554Y967159D01*
X1058546Y967105D01*
X1058546Y963295D01*
X1058557Y963230D01*
X1058559Y963164D01*
X1058577Y963121D01*
X1058585Y963074D01*
X1058619Y963017D01*
X1058644Y962957D01*
X1058675Y962922D01*
X1058700Y962881D01*
X1058751Y962840D01*
X1058795Y962791D01*
X1058837Y962769D01*
X1058874Y962740D01*
X1058936Y962719D01*
X1058995Y962688D01*
X1059049Y962680D01*
X1059086Y962668D01*
X1059126Y962669D01*
X1059180Y962661D01*
X1061720Y962661D01*
X1061785Y962672D01*
G37*
G36*
X360745Y962672D02*
X360745Y962672D01*
X360811Y962674D01*
X360854Y962692D01*
X360901Y962700D01*
X360958Y962734D01*
X361018Y962759D01*
X361053Y962790D01*
X361094Y962815D01*
X361136Y962866D01*
X361184Y962910D01*
X361206Y962952D01*
X361235Y962989D01*
X361256Y963051D01*
X361287Y963110D01*
X361295Y963164D01*
X361307Y963201D01*
X361306Y963241D01*
X361314Y963295D01*
X361314Y967105D01*
X361303Y967170D01*
X361301Y967236D01*
X361283Y967279D01*
X361275Y967326D01*
X361241Y967383D01*
X361216Y967443D01*
X361185Y967478D01*
X361160Y967519D01*
X361109Y967561D01*
X361065Y967609D01*
X361023Y967631D01*
X360986Y967660D01*
X360924Y967681D01*
X360865Y967712D01*
X360811Y967720D01*
X360774Y967732D01*
X360734Y967731D01*
X360680Y967739D01*
X358140Y967739D01*
X358075Y967728D01*
X358009Y967726D01*
X357966Y967708D01*
X357919Y967700D01*
X357862Y967666D01*
X357802Y967641D01*
X357767Y967610D01*
X357726Y967585D01*
X357685Y967534D01*
X357636Y967490D01*
X357614Y967448D01*
X357585Y967411D01*
X357564Y967349D01*
X357533Y967290D01*
X357525Y967236D01*
X357513Y967199D01*
X357513Y967195D01*
X357513Y967194D01*
X357514Y967159D01*
X357506Y967105D01*
X357506Y963295D01*
X357517Y963230D01*
X357519Y963164D01*
X357537Y963121D01*
X357545Y963074D01*
X357579Y963017D01*
X357604Y962957D01*
X357635Y962922D01*
X357660Y962881D01*
X357711Y962840D01*
X357755Y962791D01*
X357797Y962769D01*
X357834Y962740D01*
X357896Y962719D01*
X357955Y962688D01*
X358009Y962680D01*
X358046Y962668D01*
X358086Y962669D01*
X358140Y962661D01*
X360680Y962661D01*
X360745Y962672D01*
G37*
G36*
X828105Y962672D02*
X828105Y962672D01*
X828171Y962674D01*
X828214Y962692D01*
X828261Y962700D01*
X828318Y962734D01*
X828378Y962759D01*
X828413Y962790D01*
X828454Y962815D01*
X828496Y962866D01*
X828544Y962910D01*
X828566Y962952D01*
X828595Y962989D01*
X828616Y963051D01*
X828647Y963110D01*
X828655Y963164D01*
X828667Y963201D01*
X828666Y963241D01*
X828674Y963295D01*
X828674Y967105D01*
X828663Y967170D01*
X828661Y967236D01*
X828643Y967279D01*
X828635Y967326D01*
X828601Y967383D01*
X828576Y967443D01*
X828545Y967478D01*
X828520Y967519D01*
X828469Y967561D01*
X828425Y967609D01*
X828383Y967631D01*
X828346Y967660D01*
X828284Y967681D01*
X828225Y967712D01*
X828171Y967720D01*
X828134Y967732D01*
X828094Y967731D01*
X828040Y967739D01*
X825500Y967739D01*
X825435Y967728D01*
X825369Y967726D01*
X825326Y967708D01*
X825279Y967700D01*
X825222Y967666D01*
X825162Y967641D01*
X825127Y967610D01*
X825086Y967585D01*
X825045Y967534D01*
X824996Y967490D01*
X824974Y967448D01*
X824945Y967411D01*
X824924Y967349D01*
X824893Y967290D01*
X824885Y967236D01*
X824873Y967199D01*
X824873Y967195D01*
X824873Y967194D01*
X824874Y967159D01*
X824866Y967105D01*
X824866Y963295D01*
X824877Y963230D01*
X824879Y963164D01*
X824897Y963121D01*
X824905Y963074D01*
X824939Y963017D01*
X824964Y962957D01*
X824995Y962922D01*
X825020Y962881D01*
X825071Y962840D01*
X825115Y962791D01*
X825157Y962769D01*
X825194Y962740D01*
X825256Y962719D01*
X825315Y962688D01*
X825369Y962680D01*
X825406Y962668D01*
X825446Y962669D01*
X825500Y962661D01*
X828040Y962661D01*
X828105Y962672D01*
G37*
G36*
X1295465Y962672D02*
X1295465Y962672D01*
X1295531Y962674D01*
X1295574Y962692D01*
X1295621Y962700D01*
X1295678Y962734D01*
X1295738Y962759D01*
X1295773Y962790D01*
X1295814Y962815D01*
X1295856Y962866D01*
X1295904Y962910D01*
X1295926Y962952D01*
X1295955Y962989D01*
X1295976Y963051D01*
X1296007Y963110D01*
X1296015Y963164D01*
X1296027Y963201D01*
X1296026Y963241D01*
X1296034Y963295D01*
X1296034Y967105D01*
X1296023Y967170D01*
X1296021Y967236D01*
X1296003Y967279D01*
X1295995Y967326D01*
X1295961Y967383D01*
X1295936Y967443D01*
X1295905Y967478D01*
X1295880Y967519D01*
X1295829Y967561D01*
X1295785Y967609D01*
X1295743Y967631D01*
X1295706Y967660D01*
X1295644Y967681D01*
X1295585Y967712D01*
X1295531Y967720D01*
X1295494Y967732D01*
X1295454Y967731D01*
X1295400Y967739D01*
X1292860Y967739D01*
X1292795Y967728D01*
X1292729Y967726D01*
X1292686Y967708D01*
X1292639Y967700D01*
X1292582Y967666D01*
X1292522Y967641D01*
X1292487Y967610D01*
X1292446Y967585D01*
X1292405Y967534D01*
X1292356Y967490D01*
X1292334Y967448D01*
X1292305Y967411D01*
X1292284Y967349D01*
X1292253Y967290D01*
X1292245Y967236D01*
X1292233Y967199D01*
X1292233Y967195D01*
X1292233Y967194D01*
X1292234Y967159D01*
X1292226Y967105D01*
X1292226Y963295D01*
X1292237Y963230D01*
X1292239Y963164D01*
X1292257Y963121D01*
X1292265Y963074D01*
X1292299Y963017D01*
X1292324Y962957D01*
X1292355Y962922D01*
X1292380Y962881D01*
X1292431Y962840D01*
X1292475Y962791D01*
X1292517Y962769D01*
X1292554Y962740D01*
X1292616Y962719D01*
X1292675Y962688D01*
X1292729Y962680D01*
X1292766Y962668D01*
X1292806Y962669D01*
X1292860Y962661D01*
X1295400Y962661D01*
X1295465Y962672D01*
G37*
G36*
X1529145Y962672D02*
X1529145Y962672D01*
X1529211Y962674D01*
X1529254Y962692D01*
X1529301Y962700D01*
X1529358Y962734D01*
X1529418Y962759D01*
X1529453Y962790D01*
X1529494Y962815D01*
X1529536Y962866D01*
X1529584Y962910D01*
X1529606Y962952D01*
X1529635Y962989D01*
X1529656Y963051D01*
X1529687Y963110D01*
X1529695Y963164D01*
X1529707Y963201D01*
X1529706Y963241D01*
X1529714Y963295D01*
X1529714Y967105D01*
X1529703Y967170D01*
X1529701Y967236D01*
X1529683Y967279D01*
X1529675Y967326D01*
X1529641Y967383D01*
X1529616Y967443D01*
X1529585Y967478D01*
X1529560Y967519D01*
X1529509Y967561D01*
X1529465Y967609D01*
X1529423Y967631D01*
X1529386Y967660D01*
X1529324Y967681D01*
X1529265Y967712D01*
X1529211Y967720D01*
X1529174Y967732D01*
X1529134Y967731D01*
X1529080Y967739D01*
X1526540Y967739D01*
X1526475Y967728D01*
X1526409Y967726D01*
X1526366Y967708D01*
X1526319Y967700D01*
X1526262Y967666D01*
X1526202Y967641D01*
X1526167Y967610D01*
X1526126Y967585D01*
X1526085Y967534D01*
X1526036Y967490D01*
X1526014Y967448D01*
X1525985Y967411D01*
X1525964Y967349D01*
X1525933Y967290D01*
X1525925Y967236D01*
X1525913Y967199D01*
X1525913Y967195D01*
X1525913Y967194D01*
X1525914Y967159D01*
X1525906Y967105D01*
X1525906Y963295D01*
X1525917Y963230D01*
X1525919Y963164D01*
X1525937Y963121D01*
X1525945Y963074D01*
X1525979Y963017D01*
X1526004Y962957D01*
X1526035Y962922D01*
X1526060Y962881D01*
X1526111Y962840D01*
X1526155Y962791D01*
X1526197Y962769D01*
X1526234Y962740D01*
X1526296Y962719D01*
X1526355Y962688D01*
X1526409Y962680D01*
X1526446Y962668D01*
X1526486Y962669D01*
X1526540Y962661D01*
X1529080Y962661D01*
X1529145Y962672D01*
G37*
G36*
X594425Y962672D02*
X594425Y962672D01*
X594491Y962674D01*
X594534Y962692D01*
X594581Y962700D01*
X594638Y962734D01*
X594698Y962759D01*
X594733Y962790D01*
X594774Y962815D01*
X594816Y962866D01*
X594864Y962910D01*
X594886Y962952D01*
X594915Y962989D01*
X594936Y963051D01*
X594967Y963110D01*
X594975Y963164D01*
X594987Y963201D01*
X594986Y963241D01*
X594994Y963295D01*
X594994Y967105D01*
X594983Y967170D01*
X594981Y967236D01*
X594963Y967279D01*
X594955Y967326D01*
X594921Y967383D01*
X594896Y967443D01*
X594865Y967478D01*
X594840Y967519D01*
X594789Y967561D01*
X594745Y967609D01*
X594703Y967631D01*
X594666Y967660D01*
X594604Y967681D01*
X594545Y967712D01*
X594491Y967720D01*
X594454Y967732D01*
X594414Y967731D01*
X594360Y967739D01*
X591820Y967739D01*
X591755Y967728D01*
X591689Y967726D01*
X591646Y967708D01*
X591599Y967700D01*
X591542Y967666D01*
X591482Y967641D01*
X591447Y967610D01*
X591406Y967585D01*
X591365Y967534D01*
X591316Y967490D01*
X591294Y967448D01*
X591265Y967411D01*
X591244Y967349D01*
X591213Y967290D01*
X591205Y967236D01*
X591193Y967199D01*
X591193Y967195D01*
X591193Y967194D01*
X591194Y967159D01*
X591186Y967105D01*
X591186Y963295D01*
X591197Y963230D01*
X591199Y963164D01*
X591217Y963121D01*
X591225Y963074D01*
X591259Y963017D01*
X591284Y962957D01*
X591315Y962922D01*
X591340Y962881D01*
X591391Y962840D01*
X591435Y962791D01*
X591477Y962769D01*
X591514Y962740D01*
X591576Y962719D01*
X591635Y962688D01*
X591689Y962680D01*
X591726Y962668D01*
X591766Y962669D01*
X591820Y962661D01*
X594360Y962661D01*
X594425Y962672D01*
G37*
G36*
X127065Y962672D02*
X127065Y962672D01*
X127131Y962674D01*
X127174Y962692D01*
X127221Y962700D01*
X127278Y962734D01*
X127338Y962759D01*
X127373Y962790D01*
X127414Y962815D01*
X127456Y962866D01*
X127504Y962910D01*
X127526Y962952D01*
X127555Y962989D01*
X127576Y963051D01*
X127607Y963110D01*
X127615Y963164D01*
X127627Y963201D01*
X127626Y963241D01*
X127634Y963295D01*
X127634Y967105D01*
X127623Y967170D01*
X127621Y967236D01*
X127603Y967279D01*
X127595Y967326D01*
X127561Y967383D01*
X127536Y967443D01*
X127505Y967478D01*
X127480Y967519D01*
X127429Y967561D01*
X127385Y967609D01*
X127343Y967631D01*
X127306Y967660D01*
X127244Y967681D01*
X127185Y967712D01*
X127131Y967720D01*
X127094Y967732D01*
X127054Y967731D01*
X127000Y967739D01*
X124460Y967739D01*
X124395Y967728D01*
X124329Y967726D01*
X124286Y967708D01*
X124239Y967700D01*
X124182Y967666D01*
X124122Y967641D01*
X124087Y967610D01*
X124046Y967585D01*
X124005Y967534D01*
X123956Y967490D01*
X123934Y967448D01*
X123905Y967411D01*
X123884Y967349D01*
X123853Y967290D01*
X123845Y967236D01*
X123833Y967199D01*
X123833Y967195D01*
X123833Y967194D01*
X123834Y967159D01*
X123826Y967105D01*
X123826Y963295D01*
X123837Y963230D01*
X123839Y963164D01*
X123857Y963121D01*
X123865Y963074D01*
X123899Y963017D01*
X123924Y962957D01*
X123955Y962922D01*
X123980Y962881D01*
X124031Y962840D01*
X124075Y962791D01*
X124117Y962769D01*
X124154Y962740D01*
X124216Y962719D01*
X124275Y962688D01*
X124329Y962680D01*
X124366Y962668D01*
X124406Y962669D01*
X124460Y962661D01*
X127000Y962661D01*
X127065Y962672D01*
G37*
G36*
X1038925Y289572D02*
X1038925Y289572D01*
X1038991Y289574D01*
X1039034Y289592D01*
X1039081Y289600D01*
X1039138Y289634D01*
X1039198Y289659D01*
X1039233Y289690D01*
X1039274Y289715D01*
X1039316Y289766D01*
X1039364Y289810D01*
X1039386Y289852D01*
X1039415Y289889D01*
X1039436Y289951D01*
X1039467Y290010D01*
X1039475Y290064D01*
X1039487Y290101D01*
X1039486Y290141D01*
X1039494Y290195D01*
X1039494Y294005D01*
X1039483Y294070D01*
X1039481Y294136D01*
X1039463Y294179D01*
X1039455Y294226D01*
X1039421Y294283D01*
X1039396Y294343D01*
X1039365Y294378D01*
X1039340Y294419D01*
X1039289Y294461D01*
X1039245Y294509D01*
X1039203Y294531D01*
X1039166Y294560D01*
X1039104Y294581D01*
X1039045Y294612D01*
X1038991Y294620D01*
X1038954Y294632D01*
X1038914Y294631D01*
X1038860Y294639D01*
X1036320Y294639D01*
X1036255Y294628D01*
X1036189Y294626D01*
X1036146Y294608D01*
X1036099Y294600D01*
X1036042Y294566D01*
X1035982Y294541D01*
X1035947Y294510D01*
X1035906Y294485D01*
X1035865Y294434D01*
X1035816Y294390D01*
X1035794Y294348D01*
X1035765Y294311D01*
X1035744Y294249D01*
X1035713Y294190D01*
X1035705Y294136D01*
X1035693Y294099D01*
X1035693Y294095D01*
X1035693Y294094D01*
X1035694Y294059D01*
X1035686Y294005D01*
X1035686Y290195D01*
X1035697Y290130D01*
X1035699Y290064D01*
X1035717Y290021D01*
X1035725Y289974D01*
X1035759Y289917D01*
X1035784Y289857D01*
X1035815Y289822D01*
X1035840Y289781D01*
X1035891Y289740D01*
X1035935Y289691D01*
X1035977Y289669D01*
X1036014Y289640D01*
X1036076Y289619D01*
X1036135Y289588D01*
X1036189Y289580D01*
X1036226Y289568D01*
X1036266Y289569D01*
X1036320Y289561D01*
X1038860Y289561D01*
X1038925Y289572D01*
G37*
G36*
X571565Y289572D02*
X571565Y289572D01*
X571631Y289574D01*
X571674Y289592D01*
X571721Y289600D01*
X571778Y289634D01*
X571838Y289659D01*
X571873Y289690D01*
X571914Y289715D01*
X571956Y289766D01*
X572004Y289810D01*
X572026Y289852D01*
X572055Y289889D01*
X572076Y289951D01*
X572107Y290010D01*
X572115Y290064D01*
X572127Y290101D01*
X572126Y290141D01*
X572134Y290195D01*
X572134Y294005D01*
X572123Y294070D01*
X572121Y294136D01*
X572103Y294179D01*
X572095Y294226D01*
X572061Y294283D01*
X572036Y294343D01*
X572005Y294378D01*
X571980Y294419D01*
X571929Y294461D01*
X571885Y294509D01*
X571843Y294531D01*
X571806Y294560D01*
X571744Y294581D01*
X571685Y294612D01*
X571631Y294620D01*
X571594Y294632D01*
X571554Y294631D01*
X571500Y294639D01*
X568960Y294639D01*
X568895Y294628D01*
X568829Y294626D01*
X568786Y294608D01*
X568739Y294600D01*
X568682Y294566D01*
X568622Y294541D01*
X568587Y294510D01*
X568546Y294485D01*
X568505Y294434D01*
X568456Y294390D01*
X568434Y294348D01*
X568405Y294311D01*
X568384Y294249D01*
X568353Y294190D01*
X568345Y294136D01*
X568333Y294099D01*
X568333Y294095D01*
X568333Y294094D01*
X568334Y294059D01*
X568326Y294005D01*
X568326Y290195D01*
X568337Y290130D01*
X568339Y290064D01*
X568357Y290021D01*
X568365Y289974D01*
X568399Y289917D01*
X568424Y289857D01*
X568455Y289822D01*
X568480Y289781D01*
X568531Y289740D01*
X568575Y289691D01*
X568617Y289669D01*
X568654Y289640D01*
X568716Y289619D01*
X568775Y289588D01*
X568829Y289580D01*
X568866Y289568D01*
X568906Y289569D01*
X568960Y289561D01*
X571500Y289561D01*
X571565Y289572D01*
G37*
G36*
X104205Y289572D02*
X104205Y289572D01*
X104271Y289574D01*
X104314Y289592D01*
X104361Y289600D01*
X104418Y289634D01*
X104478Y289659D01*
X104513Y289690D01*
X104554Y289715D01*
X104596Y289766D01*
X104644Y289810D01*
X104666Y289852D01*
X104695Y289889D01*
X104716Y289951D01*
X104747Y290010D01*
X104755Y290064D01*
X104767Y290101D01*
X104766Y290141D01*
X104774Y290195D01*
X104774Y294005D01*
X104763Y294070D01*
X104761Y294136D01*
X104743Y294179D01*
X104735Y294226D01*
X104701Y294283D01*
X104676Y294343D01*
X104645Y294378D01*
X104620Y294419D01*
X104569Y294461D01*
X104525Y294509D01*
X104483Y294531D01*
X104446Y294560D01*
X104384Y294581D01*
X104325Y294612D01*
X104271Y294620D01*
X104234Y294632D01*
X104194Y294631D01*
X104140Y294639D01*
X101600Y294639D01*
X101535Y294628D01*
X101469Y294626D01*
X101426Y294608D01*
X101379Y294600D01*
X101322Y294566D01*
X101262Y294541D01*
X101227Y294510D01*
X101186Y294485D01*
X101145Y294434D01*
X101096Y294390D01*
X101074Y294348D01*
X101045Y294311D01*
X101024Y294249D01*
X100993Y294190D01*
X100985Y294136D01*
X100973Y294099D01*
X100973Y294095D01*
X100973Y294094D01*
X100974Y294059D01*
X100966Y294005D01*
X100966Y290195D01*
X100977Y290130D01*
X100979Y290064D01*
X100997Y290021D01*
X101005Y289974D01*
X101039Y289917D01*
X101064Y289857D01*
X101095Y289822D01*
X101120Y289781D01*
X101171Y289740D01*
X101215Y289691D01*
X101257Y289669D01*
X101294Y289640D01*
X101356Y289619D01*
X101415Y289588D01*
X101469Y289580D01*
X101506Y289568D01*
X101546Y289569D01*
X101600Y289561D01*
X104140Y289561D01*
X104205Y289572D01*
G37*
G36*
X1506285Y289572D02*
X1506285Y289572D01*
X1506351Y289574D01*
X1506394Y289592D01*
X1506441Y289600D01*
X1506498Y289634D01*
X1506558Y289659D01*
X1506593Y289690D01*
X1506634Y289715D01*
X1506676Y289766D01*
X1506724Y289810D01*
X1506746Y289852D01*
X1506775Y289889D01*
X1506796Y289951D01*
X1506827Y290010D01*
X1506835Y290064D01*
X1506847Y290101D01*
X1506846Y290141D01*
X1506854Y290195D01*
X1506854Y294005D01*
X1506843Y294070D01*
X1506841Y294136D01*
X1506823Y294179D01*
X1506815Y294226D01*
X1506781Y294283D01*
X1506756Y294343D01*
X1506725Y294378D01*
X1506700Y294419D01*
X1506649Y294461D01*
X1506605Y294509D01*
X1506563Y294531D01*
X1506526Y294560D01*
X1506464Y294581D01*
X1506405Y294612D01*
X1506351Y294620D01*
X1506314Y294632D01*
X1506274Y294631D01*
X1506220Y294639D01*
X1503680Y294639D01*
X1503615Y294628D01*
X1503549Y294626D01*
X1503506Y294608D01*
X1503459Y294600D01*
X1503402Y294566D01*
X1503342Y294541D01*
X1503307Y294510D01*
X1503266Y294485D01*
X1503225Y294434D01*
X1503176Y294390D01*
X1503154Y294348D01*
X1503125Y294311D01*
X1503104Y294249D01*
X1503073Y294190D01*
X1503065Y294136D01*
X1503053Y294099D01*
X1503053Y294095D01*
X1503053Y294094D01*
X1503054Y294059D01*
X1503046Y294005D01*
X1503046Y290195D01*
X1503057Y290130D01*
X1503059Y290064D01*
X1503077Y290021D01*
X1503085Y289974D01*
X1503119Y289917D01*
X1503144Y289857D01*
X1503175Y289822D01*
X1503200Y289781D01*
X1503251Y289740D01*
X1503295Y289691D01*
X1503337Y289669D01*
X1503374Y289640D01*
X1503436Y289619D01*
X1503495Y289588D01*
X1503549Y289580D01*
X1503586Y289568D01*
X1503626Y289569D01*
X1503680Y289561D01*
X1506220Y289561D01*
X1506285Y289572D01*
G37*
G36*
X805245Y289572D02*
X805245Y289572D01*
X805311Y289574D01*
X805354Y289592D01*
X805401Y289600D01*
X805458Y289634D01*
X805518Y289659D01*
X805553Y289690D01*
X805594Y289715D01*
X805636Y289766D01*
X805684Y289810D01*
X805706Y289852D01*
X805735Y289889D01*
X805756Y289951D01*
X805787Y290010D01*
X805795Y290064D01*
X805807Y290101D01*
X805806Y290141D01*
X805814Y290195D01*
X805814Y294005D01*
X805803Y294070D01*
X805801Y294136D01*
X805783Y294179D01*
X805775Y294226D01*
X805741Y294283D01*
X805716Y294343D01*
X805685Y294378D01*
X805660Y294419D01*
X805609Y294461D01*
X805565Y294509D01*
X805523Y294531D01*
X805486Y294560D01*
X805424Y294581D01*
X805365Y294612D01*
X805311Y294620D01*
X805274Y294632D01*
X805234Y294631D01*
X805180Y294639D01*
X802640Y294639D01*
X802575Y294628D01*
X802509Y294626D01*
X802466Y294608D01*
X802419Y294600D01*
X802362Y294566D01*
X802302Y294541D01*
X802267Y294510D01*
X802226Y294485D01*
X802185Y294434D01*
X802136Y294390D01*
X802114Y294348D01*
X802085Y294311D01*
X802064Y294249D01*
X802033Y294190D01*
X802025Y294136D01*
X802013Y294099D01*
X802013Y294095D01*
X802013Y294094D01*
X802014Y294059D01*
X802006Y294005D01*
X802006Y290195D01*
X802017Y290130D01*
X802019Y290064D01*
X802037Y290021D01*
X802045Y289974D01*
X802079Y289917D01*
X802104Y289857D01*
X802135Y289822D01*
X802160Y289781D01*
X802211Y289740D01*
X802255Y289691D01*
X802297Y289669D01*
X802334Y289640D01*
X802396Y289619D01*
X802455Y289588D01*
X802509Y289580D01*
X802546Y289568D01*
X802586Y289569D01*
X802640Y289561D01*
X805180Y289561D01*
X805245Y289572D01*
G37*
G36*
X337885Y289572D02*
X337885Y289572D01*
X337951Y289574D01*
X337994Y289592D01*
X338041Y289600D01*
X338098Y289634D01*
X338158Y289659D01*
X338193Y289690D01*
X338234Y289715D01*
X338276Y289766D01*
X338324Y289810D01*
X338346Y289852D01*
X338375Y289889D01*
X338396Y289951D01*
X338427Y290010D01*
X338435Y290064D01*
X338447Y290101D01*
X338446Y290141D01*
X338454Y290195D01*
X338454Y294005D01*
X338443Y294070D01*
X338441Y294136D01*
X338423Y294179D01*
X338415Y294226D01*
X338381Y294283D01*
X338356Y294343D01*
X338325Y294378D01*
X338300Y294419D01*
X338249Y294461D01*
X338205Y294509D01*
X338163Y294531D01*
X338126Y294560D01*
X338064Y294581D01*
X338005Y294612D01*
X337951Y294620D01*
X337914Y294632D01*
X337874Y294631D01*
X337820Y294639D01*
X335280Y294639D01*
X335215Y294628D01*
X335149Y294626D01*
X335106Y294608D01*
X335059Y294600D01*
X335002Y294566D01*
X334942Y294541D01*
X334907Y294510D01*
X334866Y294485D01*
X334825Y294434D01*
X334776Y294390D01*
X334754Y294348D01*
X334725Y294311D01*
X334704Y294249D01*
X334673Y294190D01*
X334665Y294136D01*
X334653Y294099D01*
X334653Y294095D01*
X334653Y294094D01*
X334654Y294059D01*
X334646Y294005D01*
X334646Y290195D01*
X334657Y290130D01*
X334659Y290064D01*
X334677Y290021D01*
X334685Y289974D01*
X334719Y289917D01*
X334744Y289857D01*
X334775Y289822D01*
X334800Y289781D01*
X334851Y289740D01*
X334895Y289691D01*
X334937Y289669D01*
X334974Y289640D01*
X335036Y289619D01*
X335095Y289588D01*
X335149Y289580D01*
X335186Y289568D01*
X335226Y289569D01*
X335280Y289561D01*
X337820Y289561D01*
X337885Y289572D01*
G37*
G36*
X1272605Y289572D02*
X1272605Y289572D01*
X1272671Y289574D01*
X1272714Y289592D01*
X1272761Y289600D01*
X1272818Y289634D01*
X1272878Y289659D01*
X1272913Y289690D01*
X1272954Y289715D01*
X1272996Y289766D01*
X1273044Y289810D01*
X1273066Y289852D01*
X1273095Y289889D01*
X1273116Y289951D01*
X1273147Y290010D01*
X1273155Y290064D01*
X1273167Y290101D01*
X1273166Y290141D01*
X1273174Y290195D01*
X1273174Y294005D01*
X1273163Y294070D01*
X1273161Y294136D01*
X1273143Y294179D01*
X1273135Y294226D01*
X1273101Y294283D01*
X1273076Y294343D01*
X1273045Y294378D01*
X1273020Y294419D01*
X1272969Y294461D01*
X1272925Y294509D01*
X1272883Y294531D01*
X1272846Y294560D01*
X1272784Y294581D01*
X1272725Y294612D01*
X1272671Y294620D01*
X1272634Y294632D01*
X1272594Y294631D01*
X1272540Y294639D01*
X1270000Y294639D01*
X1269935Y294628D01*
X1269869Y294626D01*
X1269826Y294608D01*
X1269779Y294600D01*
X1269722Y294566D01*
X1269662Y294541D01*
X1269627Y294510D01*
X1269586Y294485D01*
X1269545Y294434D01*
X1269496Y294390D01*
X1269474Y294348D01*
X1269445Y294311D01*
X1269424Y294249D01*
X1269393Y294190D01*
X1269385Y294136D01*
X1269373Y294099D01*
X1269373Y294095D01*
X1269373Y294094D01*
X1269374Y294059D01*
X1269366Y294005D01*
X1269366Y290195D01*
X1269377Y290130D01*
X1269379Y290064D01*
X1269397Y290021D01*
X1269405Y289974D01*
X1269439Y289917D01*
X1269464Y289857D01*
X1269495Y289822D01*
X1269520Y289781D01*
X1269571Y289740D01*
X1269615Y289691D01*
X1269657Y289669D01*
X1269694Y289640D01*
X1269756Y289619D01*
X1269815Y289588D01*
X1269869Y289580D01*
X1269906Y289568D01*
X1269946Y289569D01*
X1270000Y289561D01*
X1272540Y289561D01*
X1272605Y289572D01*
G37*
G36*
X283275Y58432D02*
X283275Y58432D01*
X283341Y58434D01*
X283384Y58452D01*
X283431Y58460D01*
X283488Y58494D01*
X283548Y58519D01*
X283583Y58550D01*
X283624Y58575D01*
X283666Y58626D01*
X283714Y58670D01*
X283736Y58712D01*
X283765Y58749D01*
X283786Y58811D01*
X283817Y58870D01*
X283825Y58924D01*
X283837Y58961D01*
X283836Y59001D01*
X283844Y59055D01*
X283844Y62865D01*
X283833Y62930D01*
X283831Y62996D01*
X283813Y63039D01*
X283805Y63086D01*
X283771Y63143D01*
X283746Y63203D01*
X283715Y63238D01*
X283690Y63279D01*
X283639Y63321D01*
X283595Y63369D01*
X283553Y63391D01*
X283516Y63420D01*
X283454Y63441D01*
X283395Y63472D01*
X283341Y63480D01*
X283304Y63492D01*
X283264Y63491D01*
X283210Y63499D01*
X280670Y63499D01*
X280605Y63488D01*
X280539Y63486D01*
X280496Y63468D01*
X280449Y63460D01*
X280392Y63426D01*
X280332Y63401D01*
X280297Y63370D01*
X280256Y63345D01*
X280215Y63294D01*
X280166Y63250D01*
X280144Y63208D01*
X280115Y63171D01*
X280094Y63109D01*
X280063Y63050D01*
X280055Y62996D01*
X280043Y62959D01*
X280043Y62955D01*
X280043Y62954D01*
X280044Y62919D01*
X280036Y62865D01*
X280036Y59055D01*
X280047Y58990D01*
X280049Y58924D01*
X280067Y58881D01*
X280075Y58834D01*
X280109Y58777D01*
X280134Y58717D01*
X280165Y58682D01*
X280190Y58641D01*
X280241Y58600D01*
X280285Y58551D01*
X280327Y58529D01*
X280364Y58500D01*
X280426Y58479D01*
X280485Y58448D01*
X280539Y58440D01*
X280576Y58428D01*
X280616Y58429D01*
X280670Y58421D01*
X283210Y58421D01*
X283275Y58432D01*
G37*
G36*
X516955Y58432D02*
X516955Y58432D01*
X517021Y58434D01*
X517064Y58452D01*
X517111Y58460D01*
X517168Y58494D01*
X517228Y58519D01*
X517263Y58550D01*
X517304Y58575D01*
X517346Y58626D01*
X517394Y58670D01*
X517416Y58712D01*
X517445Y58749D01*
X517466Y58811D01*
X517497Y58870D01*
X517505Y58924D01*
X517517Y58961D01*
X517516Y59001D01*
X517524Y59055D01*
X517524Y62865D01*
X517513Y62930D01*
X517511Y62996D01*
X517493Y63039D01*
X517485Y63086D01*
X517451Y63143D01*
X517426Y63203D01*
X517395Y63238D01*
X517370Y63279D01*
X517319Y63321D01*
X517275Y63369D01*
X517233Y63391D01*
X517196Y63420D01*
X517134Y63441D01*
X517075Y63472D01*
X517021Y63480D01*
X516984Y63492D01*
X516944Y63491D01*
X516890Y63499D01*
X514350Y63499D01*
X514285Y63488D01*
X514219Y63486D01*
X514176Y63468D01*
X514129Y63460D01*
X514072Y63426D01*
X514012Y63401D01*
X513977Y63370D01*
X513936Y63345D01*
X513895Y63294D01*
X513846Y63250D01*
X513824Y63208D01*
X513795Y63171D01*
X513774Y63109D01*
X513743Y63050D01*
X513735Y62996D01*
X513723Y62959D01*
X513723Y62955D01*
X513723Y62954D01*
X513724Y62919D01*
X513716Y62865D01*
X513716Y59055D01*
X513727Y58990D01*
X513729Y58924D01*
X513747Y58881D01*
X513755Y58834D01*
X513789Y58777D01*
X513814Y58717D01*
X513845Y58682D01*
X513870Y58641D01*
X513921Y58600D01*
X513965Y58551D01*
X514007Y58529D01*
X514044Y58500D01*
X514106Y58479D01*
X514165Y58448D01*
X514219Y58440D01*
X514256Y58428D01*
X514296Y58429D01*
X514350Y58421D01*
X516890Y58421D01*
X516955Y58432D01*
G37*
G36*
X984315Y58432D02*
X984315Y58432D01*
X984381Y58434D01*
X984424Y58452D01*
X984471Y58460D01*
X984528Y58494D01*
X984588Y58519D01*
X984623Y58550D01*
X984664Y58575D01*
X984706Y58626D01*
X984754Y58670D01*
X984776Y58712D01*
X984805Y58749D01*
X984826Y58811D01*
X984857Y58870D01*
X984865Y58924D01*
X984877Y58961D01*
X984876Y59001D01*
X984884Y59055D01*
X984884Y62865D01*
X984873Y62930D01*
X984871Y62996D01*
X984853Y63039D01*
X984845Y63086D01*
X984811Y63143D01*
X984786Y63203D01*
X984755Y63238D01*
X984730Y63279D01*
X984679Y63321D01*
X984635Y63369D01*
X984593Y63391D01*
X984556Y63420D01*
X984494Y63441D01*
X984435Y63472D01*
X984381Y63480D01*
X984344Y63492D01*
X984304Y63491D01*
X984250Y63499D01*
X981710Y63499D01*
X981645Y63488D01*
X981579Y63486D01*
X981536Y63468D01*
X981489Y63460D01*
X981432Y63426D01*
X981372Y63401D01*
X981337Y63370D01*
X981296Y63345D01*
X981255Y63294D01*
X981206Y63250D01*
X981184Y63208D01*
X981155Y63171D01*
X981134Y63109D01*
X981103Y63050D01*
X981095Y62996D01*
X981083Y62959D01*
X981083Y62955D01*
X981083Y62954D01*
X981084Y62919D01*
X981076Y62865D01*
X981076Y59055D01*
X981087Y58990D01*
X981089Y58924D01*
X981107Y58881D01*
X981115Y58834D01*
X981149Y58777D01*
X981174Y58717D01*
X981205Y58682D01*
X981230Y58641D01*
X981281Y58600D01*
X981325Y58551D01*
X981367Y58529D01*
X981404Y58500D01*
X981466Y58479D01*
X981525Y58448D01*
X981579Y58440D01*
X981616Y58428D01*
X981656Y58429D01*
X981710Y58421D01*
X984250Y58421D01*
X984315Y58432D01*
G37*
G36*
X750635Y58432D02*
X750635Y58432D01*
X750701Y58434D01*
X750744Y58452D01*
X750791Y58460D01*
X750848Y58494D01*
X750908Y58519D01*
X750943Y58550D01*
X750984Y58575D01*
X751026Y58626D01*
X751074Y58670D01*
X751096Y58712D01*
X751125Y58749D01*
X751146Y58811D01*
X751177Y58870D01*
X751185Y58924D01*
X751197Y58961D01*
X751196Y59001D01*
X751204Y59055D01*
X751204Y62865D01*
X751193Y62930D01*
X751191Y62996D01*
X751173Y63039D01*
X751165Y63086D01*
X751131Y63143D01*
X751106Y63203D01*
X751075Y63238D01*
X751050Y63279D01*
X750999Y63321D01*
X750955Y63369D01*
X750913Y63391D01*
X750876Y63420D01*
X750814Y63441D01*
X750755Y63472D01*
X750701Y63480D01*
X750664Y63492D01*
X750624Y63491D01*
X750570Y63499D01*
X748030Y63499D01*
X747965Y63488D01*
X747899Y63486D01*
X747856Y63468D01*
X747809Y63460D01*
X747752Y63426D01*
X747692Y63401D01*
X747657Y63370D01*
X747616Y63345D01*
X747575Y63294D01*
X747526Y63250D01*
X747504Y63208D01*
X747475Y63171D01*
X747454Y63109D01*
X747423Y63050D01*
X747415Y62996D01*
X747403Y62959D01*
X747403Y62955D01*
X747403Y62954D01*
X747404Y62919D01*
X747396Y62865D01*
X747396Y59055D01*
X747407Y58990D01*
X747409Y58924D01*
X747427Y58881D01*
X747435Y58834D01*
X747469Y58777D01*
X747494Y58717D01*
X747525Y58682D01*
X747550Y58641D01*
X747601Y58600D01*
X747645Y58551D01*
X747687Y58529D01*
X747724Y58500D01*
X747786Y58479D01*
X747845Y58448D01*
X747899Y58440D01*
X747936Y58428D01*
X747976Y58429D01*
X748030Y58421D01*
X750570Y58421D01*
X750635Y58432D01*
G37*
G36*
X1217995Y58432D02*
X1217995Y58432D01*
X1218061Y58434D01*
X1218104Y58452D01*
X1218151Y58460D01*
X1218208Y58494D01*
X1218268Y58519D01*
X1218303Y58550D01*
X1218344Y58575D01*
X1218386Y58626D01*
X1218434Y58670D01*
X1218456Y58712D01*
X1218485Y58749D01*
X1218506Y58811D01*
X1218537Y58870D01*
X1218545Y58924D01*
X1218557Y58961D01*
X1218556Y59001D01*
X1218564Y59055D01*
X1218564Y62865D01*
X1218553Y62930D01*
X1218551Y62996D01*
X1218533Y63039D01*
X1218525Y63086D01*
X1218491Y63143D01*
X1218466Y63203D01*
X1218435Y63238D01*
X1218410Y63279D01*
X1218359Y63321D01*
X1218315Y63369D01*
X1218273Y63391D01*
X1218236Y63420D01*
X1218174Y63441D01*
X1218115Y63472D01*
X1218061Y63480D01*
X1218024Y63492D01*
X1217984Y63491D01*
X1217930Y63499D01*
X1215390Y63499D01*
X1215325Y63488D01*
X1215259Y63486D01*
X1215216Y63468D01*
X1215169Y63460D01*
X1215112Y63426D01*
X1215052Y63401D01*
X1215017Y63370D01*
X1214976Y63345D01*
X1214935Y63294D01*
X1214886Y63250D01*
X1214864Y63208D01*
X1214835Y63171D01*
X1214814Y63109D01*
X1214783Y63050D01*
X1214775Y62996D01*
X1214763Y62959D01*
X1214763Y62955D01*
X1214763Y62954D01*
X1214764Y62919D01*
X1214756Y62865D01*
X1214756Y59055D01*
X1214767Y58990D01*
X1214769Y58924D01*
X1214787Y58881D01*
X1214795Y58834D01*
X1214829Y58777D01*
X1214854Y58717D01*
X1214885Y58682D01*
X1214910Y58641D01*
X1214961Y58600D01*
X1215005Y58551D01*
X1215047Y58529D01*
X1215084Y58500D01*
X1215146Y58479D01*
X1215205Y58448D01*
X1215259Y58440D01*
X1215296Y58428D01*
X1215336Y58429D01*
X1215390Y58421D01*
X1217930Y58421D01*
X1217995Y58432D01*
G37*
G36*
X1451675Y58432D02*
X1451675Y58432D01*
X1451741Y58434D01*
X1451784Y58452D01*
X1451831Y58460D01*
X1451888Y58494D01*
X1451948Y58519D01*
X1451983Y58550D01*
X1452024Y58575D01*
X1452066Y58626D01*
X1452114Y58670D01*
X1452136Y58712D01*
X1452165Y58749D01*
X1452186Y58811D01*
X1452217Y58870D01*
X1452225Y58924D01*
X1452237Y58961D01*
X1452236Y59001D01*
X1452244Y59055D01*
X1452244Y62865D01*
X1452233Y62930D01*
X1452231Y62996D01*
X1452213Y63039D01*
X1452205Y63086D01*
X1452171Y63143D01*
X1452146Y63203D01*
X1452115Y63238D01*
X1452090Y63279D01*
X1452039Y63321D01*
X1451995Y63369D01*
X1451953Y63391D01*
X1451916Y63420D01*
X1451854Y63441D01*
X1451795Y63472D01*
X1451741Y63480D01*
X1451704Y63492D01*
X1451664Y63491D01*
X1451610Y63499D01*
X1449070Y63499D01*
X1449005Y63488D01*
X1448939Y63486D01*
X1448896Y63468D01*
X1448849Y63460D01*
X1448792Y63426D01*
X1448732Y63401D01*
X1448697Y63370D01*
X1448656Y63345D01*
X1448615Y63294D01*
X1448566Y63250D01*
X1448544Y63208D01*
X1448515Y63171D01*
X1448494Y63109D01*
X1448463Y63050D01*
X1448455Y62996D01*
X1448443Y62959D01*
X1448443Y62955D01*
X1448443Y62954D01*
X1448444Y62919D01*
X1448436Y62865D01*
X1448436Y59055D01*
X1448447Y58990D01*
X1448449Y58924D01*
X1448467Y58881D01*
X1448475Y58834D01*
X1448509Y58777D01*
X1448534Y58717D01*
X1448565Y58682D01*
X1448590Y58641D01*
X1448641Y58600D01*
X1448685Y58551D01*
X1448727Y58529D01*
X1448764Y58500D01*
X1448826Y58479D01*
X1448885Y58448D01*
X1448939Y58440D01*
X1448976Y58428D01*
X1449016Y58429D01*
X1449070Y58421D01*
X1451610Y58421D01*
X1451675Y58432D01*
G37*
G36*
X49595Y58432D02*
X49595Y58432D01*
X49661Y58434D01*
X49704Y58452D01*
X49751Y58460D01*
X49808Y58494D01*
X49868Y58519D01*
X49903Y58550D01*
X49944Y58575D01*
X49986Y58626D01*
X50034Y58670D01*
X50056Y58712D01*
X50085Y58749D01*
X50106Y58811D01*
X50137Y58870D01*
X50145Y58924D01*
X50157Y58961D01*
X50156Y59001D01*
X50164Y59055D01*
X50164Y62865D01*
X50153Y62930D01*
X50151Y62996D01*
X50133Y63039D01*
X50125Y63086D01*
X50091Y63143D01*
X50066Y63203D01*
X50035Y63238D01*
X50010Y63279D01*
X49959Y63321D01*
X49915Y63369D01*
X49873Y63391D01*
X49836Y63420D01*
X49774Y63441D01*
X49715Y63472D01*
X49661Y63480D01*
X49624Y63492D01*
X49584Y63491D01*
X49530Y63499D01*
X46990Y63499D01*
X46925Y63488D01*
X46859Y63486D01*
X46816Y63468D01*
X46769Y63460D01*
X46712Y63426D01*
X46652Y63401D01*
X46617Y63370D01*
X46576Y63345D01*
X46535Y63294D01*
X46486Y63250D01*
X46464Y63208D01*
X46435Y63171D01*
X46414Y63109D01*
X46383Y63050D01*
X46375Y62996D01*
X46363Y62959D01*
X46363Y62955D01*
X46363Y62954D01*
X46364Y62919D01*
X46356Y62865D01*
X46356Y59055D01*
X46367Y58990D01*
X46369Y58924D01*
X46387Y58881D01*
X46395Y58834D01*
X46429Y58777D01*
X46454Y58717D01*
X46485Y58682D01*
X46510Y58641D01*
X46561Y58600D01*
X46605Y58551D01*
X46647Y58529D01*
X46684Y58500D01*
X46746Y58479D01*
X46805Y58448D01*
X46859Y58440D01*
X46896Y58428D01*
X46936Y58429D01*
X46990Y58421D01*
X49530Y58421D01*
X49595Y58432D01*
G37*
G36*
X1556450Y988707D02*
X1556450Y988707D01*
X1556516Y988709D01*
X1556559Y988727D01*
X1556606Y988735D01*
X1556663Y988769D01*
X1556723Y988794D01*
X1556758Y988825D01*
X1556799Y988850D01*
X1556841Y988901D01*
X1556889Y988945D01*
X1556911Y988987D01*
X1556940Y989024D01*
X1556961Y989086D01*
X1556992Y989145D01*
X1557000Y989199D01*
X1557012Y989236D01*
X1557011Y989276D01*
X1557019Y989330D01*
X1557019Y991870D01*
X1557008Y991935D01*
X1557006Y992001D01*
X1556988Y992044D01*
X1556980Y992091D01*
X1556946Y992148D01*
X1556921Y992208D01*
X1556890Y992243D01*
X1556865Y992284D01*
X1556814Y992326D01*
X1556770Y992374D01*
X1556728Y992396D01*
X1556691Y992425D01*
X1556629Y992446D01*
X1556570Y992477D01*
X1556516Y992485D01*
X1556479Y992497D01*
X1556439Y992496D01*
X1556385Y992504D01*
X1552575Y992504D01*
X1552510Y992493D01*
X1552444Y992491D01*
X1552401Y992473D01*
X1552354Y992465D01*
X1552297Y992431D01*
X1552237Y992406D01*
X1552202Y992375D01*
X1552161Y992350D01*
X1552120Y992299D01*
X1552071Y992255D01*
X1552049Y992213D01*
X1552020Y992176D01*
X1551999Y992114D01*
X1551968Y992055D01*
X1551960Y992001D01*
X1551948Y991964D01*
X1551948Y991961D01*
X1551949Y991924D01*
X1551941Y991870D01*
X1551941Y989330D01*
X1551952Y989265D01*
X1551954Y989199D01*
X1551972Y989156D01*
X1551980Y989109D01*
X1552014Y989052D01*
X1552039Y988992D01*
X1552070Y988957D01*
X1552095Y988916D01*
X1552146Y988875D01*
X1552190Y988826D01*
X1552232Y988804D01*
X1552269Y988775D01*
X1552331Y988754D01*
X1552390Y988723D01*
X1552444Y988715D01*
X1552481Y988703D01*
X1552521Y988704D01*
X1552575Y988696D01*
X1556385Y988696D01*
X1556450Y988707D01*
G37*
G36*
X855410Y988707D02*
X855410Y988707D01*
X855476Y988709D01*
X855519Y988727D01*
X855566Y988735D01*
X855623Y988769D01*
X855683Y988794D01*
X855718Y988825D01*
X855759Y988850D01*
X855801Y988901D01*
X855849Y988945D01*
X855871Y988987D01*
X855900Y989024D01*
X855921Y989086D01*
X855952Y989145D01*
X855960Y989199D01*
X855972Y989236D01*
X855971Y989276D01*
X855979Y989330D01*
X855979Y991870D01*
X855968Y991935D01*
X855966Y992001D01*
X855948Y992044D01*
X855940Y992091D01*
X855906Y992148D01*
X855881Y992208D01*
X855850Y992243D01*
X855825Y992284D01*
X855774Y992326D01*
X855730Y992374D01*
X855688Y992396D01*
X855651Y992425D01*
X855589Y992446D01*
X855530Y992477D01*
X855476Y992485D01*
X855439Y992497D01*
X855399Y992496D01*
X855345Y992504D01*
X851535Y992504D01*
X851470Y992493D01*
X851404Y992491D01*
X851361Y992473D01*
X851314Y992465D01*
X851257Y992431D01*
X851197Y992406D01*
X851162Y992375D01*
X851121Y992350D01*
X851080Y992299D01*
X851031Y992255D01*
X851009Y992213D01*
X850980Y992176D01*
X850959Y992114D01*
X850928Y992055D01*
X850920Y992001D01*
X850908Y991964D01*
X850908Y991961D01*
X850909Y991924D01*
X850901Y991870D01*
X850901Y989330D01*
X850912Y989265D01*
X850914Y989199D01*
X850932Y989156D01*
X850940Y989109D01*
X850974Y989052D01*
X850999Y988992D01*
X851030Y988957D01*
X851055Y988916D01*
X851106Y988875D01*
X851150Y988826D01*
X851192Y988804D01*
X851229Y988775D01*
X851291Y988754D01*
X851350Y988723D01*
X851404Y988715D01*
X851441Y988703D01*
X851481Y988704D01*
X851535Y988696D01*
X855345Y988696D01*
X855410Y988707D01*
G37*
G36*
X154370Y988707D02*
X154370Y988707D01*
X154436Y988709D01*
X154479Y988727D01*
X154526Y988735D01*
X154583Y988769D01*
X154643Y988794D01*
X154678Y988825D01*
X154719Y988850D01*
X154761Y988901D01*
X154809Y988945D01*
X154831Y988987D01*
X154860Y989024D01*
X154881Y989086D01*
X154912Y989145D01*
X154920Y989199D01*
X154932Y989236D01*
X154931Y989276D01*
X154939Y989330D01*
X154939Y991870D01*
X154928Y991935D01*
X154926Y992001D01*
X154908Y992044D01*
X154900Y992091D01*
X154866Y992148D01*
X154841Y992208D01*
X154810Y992243D01*
X154785Y992284D01*
X154734Y992326D01*
X154690Y992374D01*
X154648Y992396D01*
X154611Y992425D01*
X154549Y992446D01*
X154490Y992477D01*
X154436Y992485D01*
X154399Y992497D01*
X154359Y992496D01*
X154305Y992504D01*
X150495Y992504D01*
X150430Y992493D01*
X150364Y992491D01*
X150321Y992473D01*
X150274Y992465D01*
X150217Y992431D01*
X150157Y992406D01*
X150122Y992375D01*
X150081Y992350D01*
X150040Y992299D01*
X149991Y992255D01*
X149969Y992213D01*
X149940Y992176D01*
X149919Y992114D01*
X149888Y992055D01*
X149880Y992001D01*
X149868Y991964D01*
X149868Y991961D01*
X149869Y991924D01*
X149861Y991870D01*
X149861Y989330D01*
X149872Y989265D01*
X149874Y989199D01*
X149892Y989156D01*
X149900Y989109D01*
X149934Y989052D01*
X149959Y988992D01*
X149990Y988957D01*
X150015Y988916D01*
X150066Y988875D01*
X150110Y988826D01*
X150152Y988804D01*
X150189Y988775D01*
X150251Y988754D01*
X150310Y988723D01*
X150364Y988715D01*
X150401Y988703D01*
X150441Y988704D01*
X150495Y988696D01*
X154305Y988696D01*
X154370Y988707D01*
G37*
G36*
X1089090Y988707D02*
X1089090Y988707D01*
X1089156Y988709D01*
X1089199Y988727D01*
X1089246Y988735D01*
X1089303Y988769D01*
X1089363Y988794D01*
X1089398Y988825D01*
X1089439Y988850D01*
X1089481Y988901D01*
X1089529Y988945D01*
X1089551Y988987D01*
X1089580Y989024D01*
X1089601Y989086D01*
X1089632Y989145D01*
X1089640Y989199D01*
X1089652Y989236D01*
X1089651Y989276D01*
X1089659Y989330D01*
X1089659Y991870D01*
X1089648Y991935D01*
X1089646Y992001D01*
X1089628Y992044D01*
X1089620Y992091D01*
X1089586Y992148D01*
X1089561Y992208D01*
X1089530Y992243D01*
X1089505Y992284D01*
X1089454Y992326D01*
X1089410Y992374D01*
X1089368Y992396D01*
X1089331Y992425D01*
X1089269Y992446D01*
X1089210Y992477D01*
X1089156Y992485D01*
X1089119Y992497D01*
X1089079Y992496D01*
X1089025Y992504D01*
X1085215Y992504D01*
X1085150Y992493D01*
X1085084Y992491D01*
X1085041Y992473D01*
X1084994Y992465D01*
X1084937Y992431D01*
X1084877Y992406D01*
X1084842Y992375D01*
X1084801Y992350D01*
X1084760Y992299D01*
X1084711Y992255D01*
X1084689Y992213D01*
X1084660Y992176D01*
X1084639Y992114D01*
X1084608Y992055D01*
X1084600Y992001D01*
X1084588Y991964D01*
X1084588Y991961D01*
X1084589Y991924D01*
X1084581Y991870D01*
X1084581Y989330D01*
X1084592Y989265D01*
X1084594Y989199D01*
X1084612Y989156D01*
X1084620Y989109D01*
X1084654Y989052D01*
X1084679Y988992D01*
X1084710Y988957D01*
X1084735Y988916D01*
X1084786Y988875D01*
X1084830Y988826D01*
X1084872Y988804D01*
X1084909Y988775D01*
X1084971Y988754D01*
X1085030Y988723D01*
X1085084Y988715D01*
X1085121Y988703D01*
X1085161Y988704D01*
X1085215Y988696D01*
X1089025Y988696D01*
X1089090Y988707D01*
G37*
G36*
X621730Y988707D02*
X621730Y988707D01*
X621796Y988709D01*
X621839Y988727D01*
X621886Y988735D01*
X621943Y988769D01*
X622003Y988794D01*
X622038Y988825D01*
X622079Y988850D01*
X622121Y988901D01*
X622169Y988945D01*
X622191Y988987D01*
X622220Y989024D01*
X622241Y989086D01*
X622272Y989145D01*
X622280Y989199D01*
X622292Y989236D01*
X622291Y989276D01*
X622299Y989330D01*
X622299Y991870D01*
X622288Y991935D01*
X622286Y992001D01*
X622268Y992044D01*
X622260Y992091D01*
X622226Y992148D01*
X622201Y992208D01*
X622170Y992243D01*
X622145Y992284D01*
X622094Y992326D01*
X622050Y992374D01*
X622008Y992396D01*
X621971Y992425D01*
X621909Y992446D01*
X621850Y992477D01*
X621796Y992485D01*
X621759Y992497D01*
X621719Y992496D01*
X621665Y992504D01*
X617855Y992504D01*
X617790Y992493D01*
X617724Y992491D01*
X617681Y992473D01*
X617634Y992465D01*
X617577Y992431D01*
X617517Y992406D01*
X617482Y992375D01*
X617441Y992350D01*
X617400Y992299D01*
X617351Y992255D01*
X617329Y992213D01*
X617300Y992176D01*
X617279Y992114D01*
X617248Y992055D01*
X617240Y992001D01*
X617228Y991964D01*
X617228Y991961D01*
X617229Y991924D01*
X617221Y991870D01*
X617221Y989330D01*
X617232Y989265D01*
X617234Y989199D01*
X617252Y989156D01*
X617260Y989109D01*
X617294Y989052D01*
X617319Y988992D01*
X617350Y988957D01*
X617375Y988916D01*
X617426Y988875D01*
X617470Y988826D01*
X617512Y988804D01*
X617549Y988775D01*
X617611Y988754D01*
X617670Y988723D01*
X617724Y988715D01*
X617761Y988703D01*
X617801Y988704D01*
X617855Y988696D01*
X621665Y988696D01*
X621730Y988707D01*
G37*
G36*
X388050Y988707D02*
X388050Y988707D01*
X388116Y988709D01*
X388159Y988727D01*
X388206Y988735D01*
X388263Y988769D01*
X388323Y988794D01*
X388358Y988825D01*
X388399Y988850D01*
X388441Y988901D01*
X388489Y988945D01*
X388511Y988987D01*
X388540Y989024D01*
X388561Y989086D01*
X388592Y989145D01*
X388600Y989199D01*
X388612Y989236D01*
X388611Y989276D01*
X388619Y989330D01*
X388619Y991870D01*
X388608Y991935D01*
X388606Y992001D01*
X388588Y992044D01*
X388580Y992091D01*
X388546Y992148D01*
X388521Y992208D01*
X388490Y992243D01*
X388465Y992284D01*
X388414Y992326D01*
X388370Y992374D01*
X388328Y992396D01*
X388291Y992425D01*
X388229Y992446D01*
X388170Y992477D01*
X388116Y992485D01*
X388079Y992497D01*
X388039Y992496D01*
X387985Y992504D01*
X384175Y992504D01*
X384110Y992493D01*
X384044Y992491D01*
X384001Y992473D01*
X383954Y992465D01*
X383897Y992431D01*
X383837Y992406D01*
X383802Y992375D01*
X383761Y992350D01*
X383720Y992299D01*
X383671Y992255D01*
X383649Y992213D01*
X383620Y992176D01*
X383599Y992114D01*
X383568Y992055D01*
X383560Y992001D01*
X383548Y991964D01*
X383548Y991961D01*
X383549Y991924D01*
X383541Y991870D01*
X383541Y989330D01*
X383552Y989265D01*
X383554Y989199D01*
X383572Y989156D01*
X383580Y989109D01*
X383614Y989052D01*
X383639Y988992D01*
X383670Y988957D01*
X383695Y988916D01*
X383746Y988875D01*
X383790Y988826D01*
X383832Y988804D01*
X383869Y988775D01*
X383931Y988754D01*
X383990Y988723D01*
X384044Y988715D01*
X384081Y988703D01*
X384121Y988704D01*
X384175Y988696D01*
X387985Y988696D01*
X388050Y988707D01*
G37*
G36*
X311850Y264807D02*
X311850Y264807D01*
X311916Y264809D01*
X311959Y264827D01*
X312006Y264835D01*
X312063Y264869D01*
X312123Y264894D01*
X312158Y264925D01*
X312199Y264950D01*
X312241Y265001D01*
X312289Y265045D01*
X312311Y265087D01*
X312340Y265124D01*
X312361Y265186D01*
X312392Y265245D01*
X312400Y265299D01*
X312412Y265336D01*
X312411Y265376D01*
X312419Y265430D01*
X312419Y267970D01*
X312408Y268035D01*
X312406Y268101D01*
X312388Y268144D01*
X312380Y268191D01*
X312346Y268248D01*
X312321Y268308D01*
X312290Y268343D01*
X312265Y268384D01*
X312214Y268426D01*
X312170Y268474D01*
X312128Y268496D01*
X312091Y268525D01*
X312029Y268546D01*
X311970Y268577D01*
X311916Y268585D01*
X311879Y268597D01*
X311839Y268596D01*
X311785Y268604D01*
X307975Y268604D01*
X307910Y268593D01*
X307844Y268591D01*
X307801Y268573D01*
X307754Y268565D01*
X307697Y268531D01*
X307637Y268506D01*
X307602Y268475D01*
X307561Y268450D01*
X307520Y268399D01*
X307471Y268355D01*
X307449Y268313D01*
X307420Y268276D01*
X307399Y268214D01*
X307368Y268155D01*
X307360Y268101D01*
X307348Y268064D01*
X307348Y268061D01*
X307349Y268024D01*
X307341Y267970D01*
X307341Y265430D01*
X307352Y265365D01*
X307354Y265299D01*
X307372Y265256D01*
X307380Y265209D01*
X307414Y265152D01*
X307439Y265092D01*
X307470Y265057D01*
X307495Y265016D01*
X307546Y264975D01*
X307590Y264926D01*
X307632Y264904D01*
X307669Y264875D01*
X307731Y264854D01*
X307790Y264823D01*
X307844Y264815D01*
X307881Y264803D01*
X307921Y264804D01*
X307975Y264796D01*
X311785Y264796D01*
X311850Y264807D01*
G37*
G36*
X779210Y264807D02*
X779210Y264807D01*
X779276Y264809D01*
X779319Y264827D01*
X779366Y264835D01*
X779423Y264869D01*
X779483Y264894D01*
X779518Y264925D01*
X779559Y264950D01*
X779601Y265001D01*
X779649Y265045D01*
X779671Y265087D01*
X779700Y265124D01*
X779721Y265186D01*
X779752Y265245D01*
X779760Y265299D01*
X779772Y265336D01*
X779771Y265376D01*
X779779Y265430D01*
X779779Y267970D01*
X779768Y268035D01*
X779766Y268101D01*
X779748Y268144D01*
X779740Y268191D01*
X779706Y268248D01*
X779681Y268308D01*
X779650Y268343D01*
X779625Y268384D01*
X779574Y268426D01*
X779530Y268474D01*
X779488Y268496D01*
X779451Y268525D01*
X779389Y268546D01*
X779330Y268577D01*
X779276Y268585D01*
X779239Y268597D01*
X779199Y268596D01*
X779145Y268604D01*
X775335Y268604D01*
X775270Y268593D01*
X775204Y268591D01*
X775161Y268573D01*
X775114Y268565D01*
X775057Y268531D01*
X774997Y268506D01*
X774962Y268475D01*
X774921Y268450D01*
X774880Y268399D01*
X774831Y268355D01*
X774809Y268313D01*
X774780Y268276D01*
X774759Y268214D01*
X774728Y268155D01*
X774720Y268101D01*
X774708Y268064D01*
X774708Y268061D01*
X774709Y268024D01*
X774701Y267970D01*
X774701Y265430D01*
X774712Y265365D01*
X774714Y265299D01*
X774732Y265256D01*
X774740Y265209D01*
X774774Y265152D01*
X774799Y265092D01*
X774830Y265057D01*
X774855Y265016D01*
X774906Y264975D01*
X774950Y264926D01*
X774992Y264904D01*
X775029Y264875D01*
X775091Y264854D01*
X775150Y264823D01*
X775204Y264815D01*
X775241Y264803D01*
X775281Y264804D01*
X775335Y264796D01*
X779145Y264796D01*
X779210Y264807D01*
G37*
G36*
X78170Y264807D02*
X78170Y264807D01*
X78236Y264809D01*
X78279Y264827D01*
X78326Y264835D01*
X78383Y264869D01*
X78443Y264894D01*
X78478Y264925D01*
X78519Y264950D01*
X78561Y265001D01*
X78609Y265045D01*
X78631Y265087D01*
X78660Y265124D01*
X78681Y265186D01*
X78712Y265245D01*
X78720Y265299D01*
X78732Y265336D01*
X78731Y265376D01*
X78739Y265430D01*
X78739Y267970D01*
X78728Y268035D01*
X78726Y268101D01*
X78708Y268144D01*
X78700Y268191D01*
X78666Y268248D01*
X78641Y268308D01*
X78610Y268343D01*
X78585Y268384D01*
X78534Y268426D01*
X78490Y268474D01*
X78448Y268496D01*
X78411Y268525D01*
X78349Y268546D01*
X78290Y268577D01*
X78236Y268585D01*
X78199Y268597D01*
X78159Y268596D01*
X78105Y268604D01*
X74295Y268604D01*
X74230Y268593D01*
X74164Y268591D01*
X74121Y268573D01*
X74074Y268565D01*
X74017Y268531D01*
X73957Y268506D01*
X73922Y268475D01*
X73881Y268450D01*
X73840Y268399D01*
X73791Y268355D01*
X73769Y268313D01*
X73740Y268276D01*
X73719Y268214D01*
X73688Y268155D01*
X73680Y268101D01*
X73668Y268064D01*
X73668Y268061D01*
X73669Y268024D01*
X73661Y267970D01*
X73661Y265430D01*
X73672Y265365D01*
X73674Y265299D01*
X73692Y265256D01*
X73700Y265209D01*
X73734Y265152D01*
X73759Y265092D01*
X73790Y265057D01*
X73815Y265016D01*
X73866Y264975D01*
X73910Y264926D01*
X73952Y264904D01*
X73989Y264875D01*
X74051Y264854D01*
X74110Y264823D01*
X74164Y264815D01*
X74201Y264803D01*
X74241Y264804D01*
X74295Y264796D01*
X78105Y264796D01*
X78170Y264807D01*
G37*
G36*
X1246570Y264807D02*
X1246570Y264807D01*
X1246636Y264809D01*
X1246679Y264827D01*
X1246726Y264835D01*
X1246783Y264869D01*
X1246843Y264894D01*
X1246878Y264925D01*
X1246919Y264950D01*
X1246961Y265001D01*
X1247009Y265045D01*
X1247031Y265087D01*
X1247060Y265124D01*
X1247081Y265186D01*
X1247112Y265245D01*
X1247120Y265299D01*
X1247132Y265336D01*
X1247131Y265376D01*
X1247139Y265430D01*
X1247139Y267970D01*
X1247128Y268035D01*
X1247126Y268101D01*
X1247108Y268144D01*
X1247100Y268191D01*
X1247066Y268248D01*
X1247041Y268308D01*
X1247010Y268343D01*
X1246985Y268384D01*
X1246934Y268426D01*
X1246890Y268474D01*
X1246848Y268496D01*
X1246811Y268525D01*
X1246749Y268546D01*
X1246690Y268577D01*
X1246636Y268585D01*
X1246599Y268597D01*
X1246559Y268596D01*
X1246505Y268604D01*
X1242695Y268604D01*
X1242630Y268593D01*
X1242564Y268591D01*
X1242521Y268573D01*
X1242474Y268565D01*
X1242417Y268531D01*
X1242357Y268506D01*
X1242322Y268475D01*
X1242281Y268450D01*
X1242240Y268399D01*
X1242191Y268355D01*
X1242169Y268313D01*
X1242140Y268276D01*
X1242119Y268214D01*
X1242088Y268155D01*
X1242080Y268101D01*
X1242068Y268064D01*
X1242068Y268061D01*
X1242069Y268024D01*
X1242061Y267970D01*
X1242061Y265430D01*
X1242072Y265365D01*
X1242074Y265299D01*
X1242092Y265256D01*
X1242100Y265209D01*
X1242134Y265152D01*
X1242159Y265092D01*
X1242190Y265057D01*
X1242215Y265016D01*
X1242266Y264975D01*
X1242310Y264926D01*
X1242352Y264904D01*
X1242389Y264875D01*
X1242451Y264854D01*
X1242510Y264823D01*
X1242564Y264815D01*
X1242601Y264803D01*
X1242641Y264804D01*
X1242695Y264796D01*
X1246505Y264796D01*
X1246570Y264807D01*
G37*
G36*
X1480250Y264807D02*
X1480250Y264807D01*
X1480316Y264809D01*
X1480359Y264827D01*
X1480406Y264835D01*
X1480463Y264869D01*
X1480523Y264894D01*
X1480558Y264925D01*
X1480599Y264950D01*
X1480641Y265001D01*
X1480689Y265045D01*
X1480711Y265087D01*
X1480740Y265124D01*
X1480761Y265186D01*
X1480792Y265245D01*
X1480800Y265299D01*
X1480812Y265336D01*
X1480811Y265376D01*
X1480819Y265430D01*
X1480819Y267970D01*
X1480808Y268035D01*
X1480806Y268101D01*
X1480788Y268144D01*
X1480780Y268191D01*
X1480746Y268248D01*
X1480721Y268308D01*
X1480690Y268343D01*
X1480665Y268384D01*
X1480614Y268426D01*
X1480570Y268474D01*
X1480528Y268496D01*
X1480491Y268525D01*
X1480429Y268546D01*
X1480370Y268577D01*
X1480316Y268585D01*
X1480279Y268597D01*
X1480239Y268596D01*
X1480185Y268604D01*
X1476375Y268604D01*
X1476310Y268593D01*
X1476244Y268591D01*
X1476201Y268573D01*
X1476154Y268565D01*
X1476097Y268531D01*
X1476037Y268506D01*
X1476002Y268475D01*
X1475961Y268450D01*
X1475920Y268399D01*
X1475871Y268355D01*
X1475849Y268313D01*
X1475820Y268276D01*
X1475799Y268214D01*
X1475768Y268155D01*
X1475760Y268101D01*
X1475748Y268064D01*
X1475748Y268061D01*
X1475749Y268024D01*
X1475741Y267970D01*
X1475741Y265430D01*
X1475752Y265365D01*
X1475754Y265299D01*
X1475772Y265256D01*
X1475780Y265209D01*
X1475814Y265152D01*
X1475839Y265092D01*
X1475870Y265057D01*
X1475895Y265016D01*
X1475946Y264975D01*
X1475990Y264926D01*
X1476032Y264904D01*
X1476069Y264875D01*
X1476131Y264854D01*
X1476190Y264823D01*
X1476244Y264815D01*
X1476281Y264803D01*
X1476321Y264804D01*
X1476375Y264796D01*
X1480185Y264796D01*
X1480250Y264807D01*
G37*
G36*
X1012890Y264807D02*
X1012890Y264807D01*
X1012956Y264809D01*
X1012999Y264827D01*
X1013046Y264835D01*
X1013103Y264869D01*
X1013163Y264894D01*
X1013198Y264925D01*
X1013239Y264950D01*
X1013281Y265001D01*
X1013329Y265045D01*
X1013351Y265087D01*
X1013380Y265124D01*
X1013401Y265186D01*
X1013432Y265245D01*
X1013440Y265299D01*
X1013452Y265336D01*
X1013451Y265376D01*
X1013459Y265430D01*
X1013459Y267970D01*
X1013448Y268035D01*
X1013446Y268101D01*
X1013428Y268144D01*
X1013420Y268191D01*
X1013386Y268248D01*
X1013361Y268308D01*
X1013330Y268343D01*
X1013305Y268384D01*
X1013254Y268426D01*
X1013210Y268474D01*
X1013168Y268496D01*
X1013131Y268525D01*
X1013069Y268546D01*
X1013010Y268577D01*
X1012956Y268585D01*
X1012919Y268597D01*
X1012879Y268596D01*
X1012825Y268604D01*
X1009015Y268604D01*
X1008950Y268593D01*
X1008884Y268591D01*
X1008841Y268573D01*
X1008794Y268565D01*
X1008737Y268531D01*
X1008677Y268506D01*
X1008642Y268475D01*
X1008601Y268450D01*
X1008560Y268399D01*
X1008511Y268355D01*
X1008489Y268313D01*
X1008460Y268276D01*
X1008439Y268214D01*
X1008408Y268155D01*
X1008400Y268101D01*
X1008388Y268064D01*
X1008388Y268061D01*
X1008389Y268024D01*
X1008381Y267970D01*
X1008381Y265430D01*
X1008392Y265365D01*
X1008394Y265299D01*
X1008412Y265256D01*
X1008420Y265209D01*
X1008454Y265152D01*
X1008479Y265092D01*
X1008510Y265057D01*
X1008535Y265016D01*
X1008586Y264975D01*
X1008630Y264926D01*
X1008672Y264904D01*
X1008709Y264875D01*
X1008771Y264854D01*
X1008830Y264823D01*
X1008884Y264815D01*
X1008921Y264803D01*
X1008961Y264804D01*
X1009015Y264796D01*
X1012825Y264796D01*
X1012890Y264807D01*
G37*
G36*
X1322770Y988707D02*
X1322770Y988707D01*
X1322836Y988709D01*
X1322879Y988727D01*
X1322926Y988735D01*
X1322983Y988769D01*
X1323043Y988794D01*
X1323078Y988825D01*
X1323119Y988850D01*
X1323161Y988901D01*
X1323209Y988945D01*
X1323231Y988987D01*
X1323260Y989024D01*
X1323281Y989086D01*
X1323312Y989145D01*
X1323320Y989199D01*
X1323332Y989236D01*
X1323331Y989276D01*
X1323339Y989330D01*
X1323339Y991870D01*
X1323328Y991935D01*
X1323326Y992001D01*
X1323308Y992044D01*
X1323300Y992091D01*
X1323266Y992148D01*
X1323241Y992208D01*
X1323210Y992243D01*
X1323185Y992284D01*
X1323134Y992326D01*
X1323090Y992374D01*
X1323048Y992396D01*
X1323011Y992425D01*
X1322949Y992446D01*
X1322890Y992477D01*
X1322836Y992485D01*
X1322799Y992497D01*
X1322759Y992496D01*
X1322705Y992504D01*
X1318895Y992504D01*
X1318830Y992493D01*
X1318764Y992491D01*
X1318721Y992473D01*
X1318674Y992465D01*
X1318617Y992431D01*
X1318557Y992406D01*
X1318522Y992375D01*
X1318481Y992350D01*
X1318440Y992299D01*
X1318391Y992255D01*
X1318369Y992213D01*
X1318340Y992176D01*
X1318319Y992114D01*
X1318288Y992055D01*
X1318280Y992001D01*
X1318268Y991964D01*
X1318268Y991961D01*
X1318269Y991924D01*
X1318261Y991870D01*
X1318261Y989330D01*
X1318272Y989265D01*
X1318274Y989199D01*
X1318292Y989156D01*
X1318300Y989109D01*
X1318334Y989052D01*
X1318359Y988992D01*
X1318390Y988957D01*
X1318415Y988916D01*
X1318466Y988875D01*
X1318510Y988826D01*
X1318552Y988804D01*
X1318589Y988775D01*
X1318651Y988754D01*
X1318710Y988723D01*
X1318764Y988715D01*
X1318801Y988703D01*
X1318841Y988704D01*
X1318895Y988696D01*
X1322705Y988696D01*
X1322770Y988707D01*
G37*
G36*
X545530Y264807D02*
X545530Y264807D01*
X545596Y264809D01*
X545639Y264827D01*
X545686Y264835D01*
X545743Y264869D01*
X545803Y264894D01*
X545838Y264925D01*
X545879Y264950D01*
X545921Y265001D01*
X545969Y265045D01*
X545991Y265087D01*
X546020Y265124D01*
X546041Y265186D01*
X546072Y265245D01*
X546080Y265299D01*
X546092Y265336D01*
X546091Y265376D01*
X546099Y265430D01*
X546099Y267970D01*
X546088Y268035D01*
X546086Y268101D01*
X546068Y268144D01*
X546060Y268191D01*
X546026Y268248D01*
X546001Y268308D01*
X545970Y268343D01*
X545945Y268384D01*
X545894Y268426D01*
X545850Y268474D01*
X545808Y268496D01*
X545771Y268525D01*
X545709Y268546D01*
X545650Y268577D01*
X545596Y268585D01*
X545559Y268597D01*
X545519Y268596D01*
X545465Y268604D01*
X541655Y268604D01*
X541590Y268593D01*
X541524Y268591D01*
X541481Y268573D01*
X541434Y268565D01*
X541377Y268531D01*
X541317Y268506D01*
X541282Y268475D01*
X541241Y268450D01*
X541200Y268399D01*
X541151Y268355D01*
X541129Y268313D01*
X541100Y268276D01*
X541079Y268214D01*
X541048Y268155D01*
X541040Y268101D01*
X541028Y268064D01*
X541028Y268061D01*
X541029Y268024D01*
X541021Y267970D01*
X541021Y265430D01*
X541032Y265365D01*
X541034Y265299D01*
X541052Y265256D01*
X541060Y265209D01*
X541094Y265152D01*
X541119Y265092D01*
X541150Y265057D01*
X541175Y265016D01*
X541226Y264975D01*
X541270Y264926D01*
X541312Y264904D01*
X541349Y264875D01*
X541411Y264854D01*
X541470Y264823D01*
X541524Y264815D01*
X541561Y264803D01*
X541601Y264804D01*
X541655Y264796D01*
X545465Y264796D01*
X545530Y264807D01*
G37*
D10*
X12700Y558800D03*
X222250Y33020D03*
D11*
X203200Y101600D03*
D12*
X25400Y25400D03*
X203200Y25400D03*
D13*
X85400Y47526D03*
X143200Y47526D03*
D14*
X81407Y266700D03*
X70993Y266700D03*
D11*
X218440Y562610D03*
X132080Y516890D03*
X90170Y400050D03*
D15*
X102870Y297307D03*
X102870Y286893D03*
D16*
X85912Y68942D03*
X96912Y68942D03*
X107912Y68942D03*
X118912Y68942D03*
X129912Y68942D03*
X140912Y68942D03*
X151912Y68942D03*
X162912Y68942D03*
D17*
X67912Y95742D03*
D18*
X67912Y108442D03*
D19*
X67912Y134542D03*
X174662Y128842D03*
D20*
X174662Y96992D03*
D21*
X142862Y141292D03*
X100962Y141292D03*
D15*
X48260Y66167D03*
X48260Y55753D03*
D22*
X215900Y520700D03*
X215900Y495300D03*
X215900Y469900D03*
X215900Y444500D03*
X215900Y419100D03*
X215900Y393700D03*
X215900Y368300D03*
X215900Y342900D03*
X215900Y317500D03*
X215900Y292100D03*
X215900Y266700D03*
X215900Y241300D03*
X215900Y215900D03*
X215900Y190500D03*
X215900Y165100D03*
X215900Y139700D03*
X12700Y241300D03*
X12700Y266700D03*
X12700Y292100D03*
X12700Y317500D03*
X12700Y342900D03*
X12700Y368300D03*
X12700Y393700D03*
X12700Y419100D03*
X12700Y444500D03*
X12700Y469900D03*
X12700Y495300D03*
X12700Y520700D03*
D10*
X246380Y558800D03*
X455930Y33020D03*
D11*
X436880Y101600D03*
D12*
X259080Y25400D03*
X436880Y25400D03*
D13*
X319080Y47526D03*
X376880Y47526D03*
D14*
X315087Y266700D03*
X304673Y266700D03*
D11*
X452120Y562610D03*
X365760Y516890D03*
X323850Y400050D03*
D15*
X336550Y297307D03*
X336550Y286893D03*
D16*
X319592Y68942D03*
X330592Y68942D03*
X341592Y68942D03*
X352592Y68942D03*
X363592Y68942D03*
X374592Y68942D03*
X385592Y68942D03*
X396592Y68942D03*
D17*
X301592Y95742D03*
D18*
X301592Y108442D03*
D19*
X301592Y134542D03*
X408342Y128842D03*
D20*
X408342Y96992D03*
D21*
X376542Y141292D03*
X334642Y141292D03*
D15*
X281940Y66167D03*
X281940Y55753D03*
D22*
X449580Y520700D03*
X449580Y495300D03*
X449580Y469900D03*
X449580Y444500D03*
X449580Y419100D03*
X449580Y393700D03*
X449580Y368300D03*
X449580Y342900D03*
X449580Y317500D03*
X449580Y292100D03*
X449580Y266700D03*
X449580Y241300D03*
X449580Y215900D03*
X449580Y190500D03*
X449580Y165100D03*
X449580Y139700D03*
X246380Y241300D03*
X246380Y266700D03*
X246380Y292100D03*
X246380Y317500D03*
X246380Y342900D03*
X246380Y368300D03*
X246380Y393700D03*
X246380Y419100D03*
X246380Y444500D03*
X246380Y469900D03*
X246380Y495300D03*
X246380Y520700D03*
D10*
X480060Y558800D03*
X689610Y33020D03*
D11*
X670560Y101600D03*
D12*
X492760Y25400D03*
X670560Y25400D03*
D13*
X552760Y47526D03*
X610560Y47526D03*
D14*
X548767Y266700D03*
X538353Y266700D03*
D11*
X685800Y562610D03*
X599440Y516890D03*
X557530Y400050D03*
D15*
X570230Y297307D03*
X570230Y286893D03*
D16*
X553272Y68942D03*
X564272Y68942D03*
X575272Y68942D03*
X586272Y68942D03*
X597272Y68942D03*
X608272Y68942D03*
X619272Y68942D03*
X630272Y68942D03*
D17*
X535272Y95742D03*
D18*
X535272Y108442D03*
D19*
X535272Y134542D03*
X642022Y128842D03*
D20*
X642022Y96992D03*
D21*
X610222Y141292D03*
X568322Y141292D03*
D15*
X515620Y66167D03*
X515620Y55753D03*
D22*
X683260Y520700D03*
X683260Y495300D03*
X683260Y469900D03*
X683260Y444500D03*
X683260Y419100D03*
X683260Y393700D03*
X683260Y368300D03*
X683260Y342900D03*
X683260Y317500D03*
X683260Y292100D03*
X683260Y266700D03*
X683260Y241300D03*
X683260Y215900D03*
X683260Y190500D03*
X683260Y165100D03*
X683260Y139700D03*
X480060Y241300D03*
X480060Y266700D03*
X480060Y292100D03*
X480060Y317500D03*
X480060Y342900D03*
X480060Y368300D03*
X480060Y393700D03*
X480060Y419100D03*
X480060Y444500D03*
X480060Y469900D03*
X480060Y495300D03*
X480060Y520700D03*
D10*
X713740Y558800D03*
X923290Y33020D03*
D11*
X904240Y101600D03*
D12*
X726440Y25400D03*
X904240Y25400D03*
D13*
X786440Y47526D03*
X844240Y47526D03*
D14*
X782447Y266700D03*
X772033Y266700D03*
D11*
X919480Y562610D03*
X833120Y516890D03*
X791210Y400050D03*
D15*
X803910Y297307D03*
X803910Y286893D03*
D16*
X786952Y68942D03*
X797952Y68942D03*
X808952Y68942D03*
X819952Y68942D03*
X830952Y68942D03*
X841952Y68942D03*
X852952Y68942D03*
X863952Y68942D03*
D17*
X768952Y95742D03*
D18*
X768952Y108442D03*
D19*
X768952Y134542D03*
X875702Y128842D03*
D20*
X875702Y96992D03*
D21*
X843902Y141292D03*
X802002Y141292D03*
D15*
X749300Y66167D03*
X749300Y55753D03*
D22*
X916940Y520700D03*
X916940Y495300D03*
X916940Y469900D03*
X916940Y444500D03*
X916940Y419100D03*
X916940Y393700D03*
X916940Y368300D03*
X916940Y342900D03*
X916940Y317500D03*
X916940Y292100D03*
X916940Y266700D03*
X916940Y241300D03*
X916940Y215900D03*
X916940Y190500D03*
X916940Y165100D03*
X916940Y139700D03*
X713740Y241300D03*
X713740Y266700D03*
X713740Y292100D03*
X713740Y317500D03*
X713740Y342900D03*
X713740Y368300D03*
X713740Y393700D03*
X713740Y419100D03*
X713740Y444500D03*
X713740Y469900D03*
X713740Y495300D03*
X713740Y520700D03*
D10*
X947420Y558800D03*
X1156970Y33020D03*
D11*
X1137920Y101600D03*
D12*
X960120Y25400D03*
X1137920Y25400D03*
D13*
X1020120Y47526D03*
X1077920Y47526D03*
D14*
X1016127Y266700D03*
X1005713Y266700D03*
D11*
X1153160Y562610D03*
X1066800Y516890D03*
X1024890Y400050D03*
D15*
X1037590Y297307D03*
X1037590Y286893D03*
D16*
X1020632Y68942D03*
X1031632Y68942D03*
X1042632Y68942D03*
X1053632Y68942D03*
X1064632Y68942D03*
X1075632Y68942D03*
X1086632Y68942D03*
X1097632Y68942D03*
D17*
X1002632Y95742D03*
D18*
X1002632Y108442D03*
D19*
X1002632Y134542D03*
X1109382Y128842D03*
D20*
X1109382Y96992D03*
D21*
X1077582Y141292D03*
X1035682Y141292D03*
D15*
X982980Y66167D03*
X982980Y55753D03*
D22*
X1150620Y520700D03*
X1150620Y495300D03*
X1150620Y469900D03*
X1150620Y444500D03*
X1150620Y419100D03*
X1150620Y393700D03*
X1150620Y368300D03*
X1150620Y342900D03*
X1150620Y317500D03*
X1150620Y292100D03*
X1150620Y266700D03*
X1150620Y241300D03*
X1150620Y215900D03*
X1150620Y190500D03*
X1150620Y165100D03*
X1150620Y139700D03*
X947420Y241300D03*
X947420Y266700D03*
X947420Y292100D03*
X947420Y317500D03*
X947420Y342900D03*
X947420Y368300D03*
X947420Y393700D03*
X947420Y419100D03*
X947420Y444500D03*
X947420Y469900D03*
X947420Y495300D03*
X947420Y520700D03*
D10*
X1181100Y558800D03*
X1390650Y33020D03*
D11*
X1371600Y101600D03*
D12*
X1193800Y25400D03*
X1371600Y25400D03*
D13*
X1253800Y47526D03*
X1311600Y47526D03*
D14*
X1249807Y266700D03*
X1239393Y266700D03*
D11*
X1386840Y562610D03*
X1300480Y516890D03*
X1258570Y400050D03*
D15*
X1271270Y297307D03*
X1271270Y286893D03*
D16*
X1254312Y68942D03*
X1265312Y68942D03*
X1276312Y68942D03*
X1287312Y68942D03*
X1298312Y68942D03*
X1309312Y68942D03*
X1320312Y68942D03*
X1331312Y68942D03*
D17*
X1236312Y95742D03*
D18*
X1236312Y108442D03*
D19*
X1236312Y134542D03*
X1343062Y128842D03*
D20*
X1343062Y96992D03*
D21*
X1311262Y141292D03*
X1269362Y141292D03*
D15*
X1216660Y66167D03*
X1216660Y55753D03*
D22*
X1384300Y520700D03*
X1384300Y495300D03*
X1384300Y469900D03*
X1384300Y444500D03*
X1384300Y419100D03*
X1384300Y393700D03*
X1384300Y368300D03*
X1384300Y342900D03*
X1384300Y317500D03*
X1384300Y292100D03*
X1384300Y266700D03*
X1384300Y241300D03*
X1384300Y215900D03*
X1384300Y190500D03*
X1384300Y165100D03*
X1384300Y139700D03*
X1181100Y241300D03*
X1181100Y266700D03*
X1181100Y292100D03*
X1181100Y317500D03*
X1181100Y342900D03*
X1181100Y368300D03*
X1181100Y393700D03*
X1181100Y419100D03*
X1181100Y444500D03*
X1181100Y469900D03*
X1181100Y495300D03*
X1181100Y520700D03*
D10*
X1414780Y558800D03*
X1624330Y33020D03*
D11*
X1605280Y101600D03*
D12*
X1427480Y25400D03*
X1605280Y25400D03*
D13*
X1487480Y47526D03*
X1545280Y47526D03*
D14*
X1483487Y266700D03*
X1473073Y266700D03*
D11*
X1620520Y562610D03*
X1534160Y516890D03*
X1492250Y400050D03*
D15*
X1504950Y297307D03*
X1504950Y286893D03*
D16*
X1487992Y68942D03*
X1498992Y68942D03*
X1509992Y68942D03*
X1520992Y68942D03*
X1531992Y68942D03*
X1542992Y68942D03*
X1553992Y68942D03*
X1564992Y68942D03*
D17*
X1469992Y95742D03*
D18*
X1469992Y108442D03*
D19*
X1469992Y134542D03*
X1576742Y128842D03*
D20*
X1576742Y96992D03*
D21*
X1544942Y141292D03*
X1503042Y141292D03*
D15*
X1450340Y66167D03*
X1450340Y55753D03*
D22*
X1617980Y520700D03*
X1617980Y495300D03*
X1617980Y469900D03*
X1617980Y444500D03*
X1617980Y419100D03*
X1617980Y393700D03*
X1617980Y368300D03*
X1617980Y342900D03*
X1617980Y317500D03*
X1617980Y292100D03*
X1617980Y266700D03*
X1617980Y241300D03*
X1617980Y215900D03*
X1617980Y190500D03*
X1617980Y165100D03*
X1617980Y139700D03*
X1414780Y241300D03*
X1414780Y266700D03*
X1414780Y292100D03*
X1414780Y317500D03*
X1414780Y342900D03*
X1414780Y368300D03*
X1414780Y393700D03*
X1414780Y419100D03*
X1414780Y444500D03*
X1414780Y469900D03*
X1414780Y495300D03*
X1414780Y520700D03*
D10*
X215900Y698500D03*
X6350Y1224280D03*
D11*
X25400Y1155700D03*
D12*
X203200Y1231900D03*
X25400Y1231900D03*
D13*
X143200Y1209774D03*
X85400Y1209774D03*
D14*
X147193Y990600D03*
X157607Y990600D03*
D11*
X10160Y694690D03*
X96520Y740410D03*
X138430Y857250D03*
D15*
X125730Y959993D03*
X125730Y970407D03*
D16*
X142688Y1188358D03*
X131688Y1188358D03*
X120688Y1188358D03*
X109688Y1188358D03*
X98688Y1188358D03*
X87688Y1188358D03*
X76688Y1188358D03*
X65688Y1188358D03*
D17*
X160688Y1161558D03*
D18*
X160688Y1148858D03*
D19*
X160688Y1122758D03*
X53938Y1128458D03*
D20*
X53938Y1160308D03*
D21*
X85738Y1116008D03*
X127638Y1116008D03*
D15*
X180340Y1191133D03*
X180340Y1201547D03*
D22*
X12700Y736600D03*
X12700Y762000D03*
X12700Y787400D03*
X12700Y812800D03*
X12700Y838200D03*
X12700Y863600D03*
X12700Y889000D03*
X12700Y914400D03*
X12700Y939800D03*
X12700Y965200D03*
X12700Y990600D03*
X12700Y1016000D03*
X12700Y1041400D03*
X12700Y1066800D03*
X12700Y1092200D03*
X12700Y1117600D03*
X215900Y1016000D03*
X215900Y990600D03*
X215900Y965200D03*
X215900Y939800D03*
X215900Y914400D03*
X215900Y889000D03*
X215900Y863600D03*
X215900Y838200D03*
X215900Y812800D03*
X215900Y787400D03*
X215900Y762000D03*
X215900Y736600D03*
D10*
X449580Y698500D03*
X240030Y1224280D03*
D11*
X259080Y1155700D03*
D12*
X436880Y1231900D03*
X259080Y1231900D03*
D13*
X376880Y1209774D03*
X319080Y1209774D03*
D14*
X380873Y990600D03*
X391287Y990600D03*
D11*
X243840Y694690D03*
X330200Y740410D03*
X372110Y857250D03*
D15*
X359410Y959993D03*
X359410Y970407D03*
D16*
X376368Y1188358D03*
X365368Y1188358D03*
X354368Y1188358D03*
X343368Y1188358D03*
X332368Y1188358D03*
X321368Y1188358D03*
X310368Y1188358D03*
X299368Y1188358D03*
D17*
X394368Y1161558D03*
D18*
X394368Y1148858D03*
D19*
X394368Y1122758D03*
X287618Y1128458D03*
D20*
X287618Y1160308D03*
D21*
X319418Y1116008D03*
X361318Y1116008D03*
D15*
X414020Y1191133D03*
X414020Y1201547D03*
D22*
X246380Y736600D03*
X246380Y762000D03*
X246380Y787400D03*
X246380Y812800D03*
X246380Y838200D03*
X246380Y863600D03*
X246380Y889000D03*
X246380Y914400D03*
X246380Y939800D03*
X246380Y965200D03*
X246380Y990600D03*
X246380Y1016000D03*
X246380Y1041400D03*
X246380Y1066800D03*
X246380Y1092200D03*
X246380Y1117600D03*
X449580Y1016000D03*
X449580Y990600D03*
X449580Y965200D03*
X449580Y939800D03*
X449580Y914400D03*
X449580Y889000D03*
X449580Y863600D03*
X449580Y838200D03*
X449580Y812800D03*
X449580Y787400D03*
X449580Y762000D03*
X449580Y736600D03*
D10*
X683260Y698500D03*
X473710Y1224280D03*
D11*
X492760Y1155700D03*
D12*
X670560Y1231900D03*
X492760Y1231900D03*
D13*
X610560Y1209774D03*
X552760Y1209774D03*
D14*
X614553Y990600D03*
X624967Y990600D03*
D11*
X477520Y694690D03*
X563880Y740410D03*
X605790Y857250D03*
D15*
X593090Y959993D03*
X593090Y970407D03*
D16*
X610048Y1188358D03*
X599048Y1188358D03*
X588048Y1188358D03*
X577048Y1188358D03*
X566048Y1188358D03*
X555048Y1188358D03*
X544048Y1188358D03*
X533048Y1188358D03*
D17*
X628048Y1161558D03*
D18*
X628048Y1148858D03*
D19*
X628048Y1122758D03*
X521298Y1128458D03*
D20*
X521298Y1160308D03*
D21*
X553098Y1116008D03*
X594998Y1116008D03*
D15*
X647700Y1191133D03*
X647700Y1201547D03*
D22*
X480060Y736600D03*
X480060Y762000D03*
X480060Y787400D03*
X480060Y812800D03*
X480060Y838200D03*
X480060Y863600D03*
X480060Y889000D03*
X480060Y914400D03*
X480060Y939800D03*
X480060Y965200D03*
X480060Y990600D03*
X480060Y1016000D03*
X480060Y1041400D03*
X480060Y1066800D03*
X480060Y1092200D03*
X480060Y1117600D03*
X683260Y1016000D03*
X683260Y990600D03*
X683260Y965200D03*
X683260Y939800D03*
X683260Y914400D03*
X683260Y889000D03*
X683260Y863600D03*
X683260Y838200D03*
X683260Y812800D03*
X683260Y787400D03*
X683260Y762000D03*
X683260Y736600D03*
D10*
X916940Y698500D03*
X707390Y1224280D03*
D11*
X726440Y1155700D03*
D12*
X904240Y1231900D03*
X726440Y1231900D03*
D13*
X844240Y1209774D03*
X786440Y1209774D03*
D14*
X848233Y990600D03*
X858647Y990600D03*
D11*
X711200Y694690D03*
X797560Y740410D03*
X839470Y857250D03*
D15*
X826770Y959993D03*
X826770Y970407D03*
D16*
X843728Y1188358D03*
X832728Y1188358D03*
X821728Y1188358D03*
X810728Y1188358D03*
X799728Y1188358D03*
X788728Y1188358D03*
X777728Y1188358D03*
X766728Y1188358D03*
D17*
X861728Y1161558D03*
D18*
X861728Y1148858D03*
D19*
X861728Y1122758D03*
X754978Y1128458D03*
D20*
X754978Y1160308D03*
D21*
X786778Y1116008D03*
X828678Y1116008D03*
D15*
X881380Y1191133D03*
X881380Y1201547D03*
D22*
X713740Y736600D03*
X713740Y762000D03*
X713740Y787400D03*
X713740Y812800D03*
X713740Y838200D03*
X713740Y863600D03*
X713740Y889000D03*
X713740Y914400D03*
X713740Y939800D03*
X713740Y965200D03*
X713740Y990600D03*
X713740Y1016000D03*
X713740Y1041400D03*
X713740Y1066800D03*
X713740Y1092200D03*
X713740Y1117600D03*
X916940Y1016000D03*
X916940Y990600D03*
X916940Y965200D03*
X916940Y939800D03*
X916940Y914400D03*
X916940Y889000D03*
X916940Y863600D03*
X916940Y838200D03*
X916940Y812800D03*
X916940Y787400D03*
X916940Y762000D03*
X916940Y736600D03*
D10*
X1150620Y698500D03*
X941070Y1224280D03*
D11*
X960120Y1155700D03*
D12*
X1137920Y1231900D03*
X960120Y1231900D03*
D13*
X1077920Y1209774D03*
X1020120Y1209774D03*
D14*
X1081913Y990600D03*
X1092327Y990600D03*
D11*
X944880Y694690D03*
X1031240Y740410D03*
X1073150Y857250D03*
D15*
X1060450Y959993D03*
X1060450Y970407D03*
D16*
X1077408Y1188358D03*
X1066408Y1188358D03*
X1055408Y1188358D03*
X1044408Y1188358D03*
X1033408Y1188358D03*
X1022408Y1188358D03*
X1011408Y1188358D03*
X1000408Y1188358D03*
D17*
X1095408Y1161558D03*
D18*
X1095408Y1148858D03*
D19*
X1095408Y1122758D03*
X988658Y1128458D03*
D20*
X988658Y1160308D03*
D21*
X1020458Y1116008D03*
X1062358Y1116008D03*
D15*
X1115060Y1191133D03*
X1115060Y1201547D03*
D22*
X947420Y736600D03*
X947420Y762000D03*
X947420Y787400D03*
X947420Y812800D03*
X947420Y838200D03*
X947420Y863600D03*
X947420Y889000D03*
X947420Y914400D03*
X947420Y939800D03*
X947420Y965200D03*
X947420Y990600D03*
X947420Y1016000D03*
X947420Y1041400D03*
X947420Y1066800D03*
X947420Y1092200D03*
X947420Y1117600D03*
X1150620Y1016000D03*
X1150620Y990600D03*
X1150620Y965200D03*
X1150620Y939800D03*
X1150620Y914400D03*
X1150620Y889000D03*
X1150620Y863600D03*
X1150620Y838200D03*
X1150620Y812800D03*
X1150620Y787400D03*
X1150620Y762000D03*
X1150620Y736600D03*
D10*
X1384300Y698500D03*
X1174750Y1224280D03*
D11*
X1193800Y1155700D03*
D12*
X1371600Y1231900D03*
X1193800Y1231900D03*
D13*
X1311600Y1209774D03*
X1253800Y1209774D03*
D14*
X1315593Y990600D03*
X1326007Y990600D03*
D11*
X1178560Y694690D03*
X1264920Y740410D03*
X1306830Y857250D03*
D15*
X1294130Y959993D03*
X1294130Y970407D03*
D16*
X1311088Y1188358D03*
X1300088Y1188358D03*
X1289088Y1188358D03*
X1278088Y1188358D03*
X1267088Y1188358D03*
X1256088Y1188358D03*
X1245088Y1188358D03*
X1234088Y1188358D03*
D17*
X1329088Y1161558D03*
D18*
X1329088Y1148858D03*
D19*
X1329088Y1122758D03*
X1222338Y1128458D03*
D20*
X1222338Y1160308D03*
D21*
X1254138Y1116008D03*
X1296038Y1116008D03*
D15*
X1348740Y1191133D03*
X1348740Y1201547D03*
D22*
X1181100Y736600D03*
X1181100Y762000D03*
X1181100Y787400D03*
X1181100Y812800D03*
X1181100Y838200D03*
X1181100Y863600D03*
X1181100Y889000D03*
X1181100Y914400D03*
X1181100Y939800D03*
X1181100Y965200D03*
X1181100Y990600D03*
X1181100Y1016000D03*
X1181100Y1041400D03*
X1181100Y1066800D03*
X1181100Y1092200D03*
X1181100Y1117600D03*
X1384300Y1016000D03*
X1384300Y990600D03*
X1384300Y965200D03*
X1384300Y939800D03*
X1384300Y914400D03*
X1384300Y889000D03*
X1384300Y863600D03*
X1384300Y838200D03*
X1384300Y812800D03*
X1384300Y787400D03*
X1384300Y762000D03*
X1384300Y736600D03*
D10*
X1617980Y698500D03*
X1408430Y1224280D03*
D11*
X1427480Y1155700D03*
D12*
X1605280Y1231900D03*
X1427480Y1231900D03*
D13*
X1545280Y1209774D03*
X1487480Y1209774D03*
D14*
X1549273Y990600D03*
X1559687Y990600D03*
D11*
X1412240Y694690D03*
X1498600Y740410D03*
X1540510Y857250D03*
D15*
X1527810Y959993D03*
X1527810Y970407D03*
D16*
X1544768Y1188358D03*
X1533768Y1188358D03*
X1522768Y1188358D03*
X1511768Y1188358D03*
X1500768Y1188358D03*
X1489768Y1188358D03*
X1478768Y1188358D03*
X1467768Y1188358D03*
D17*
X1562768Y1161558D03*
D18*
X1562768Y1148858D03*
D19*
X1562768Y1122758D03*
X1456018Y1128458D03*
D20*
X1456018Y1160308D03*
D21*
X1487818Y1116008D03*
X1529718Y1116008D03*
D15*
X1582420Y1191133D03*
X1582420Y1201547D03*
D22*
X1414780Y736600D03*
X1414780Y762000D03*
X1414780Y787400D03*
X1414780Y812800D03*
X1414780Y838200D03*
X1414780Y863600D03*
X1414780Y889000D03*
X1414780Y914400D03*
X1414780Y939800D03*
X1414780Y965200D03*
X1414780Y990600D03*
X1414780Y1016000D03*
X1414780Y1041400D03*
X1414780Y1066800D03*
X1414780Y1092200D03*
X1414780Y1117600D03*
X1617980Y1016000D03*
X1617980Y990600D03*
X1617980Y965200D03*
X1617980Y939800D03*
X1617980Y914400D03*
X1617980Y889000D03*
X1617980Y863600D03*
X1617980Y838200D03*
X1617980Y812800D03*
X1617980Y787400D03*
X1617980Y762000D03*
X1617980Y736600D03*
D23*
X-26238Y1193800D03*
X1656918Y1193800D03*
D24*
X-35293Y63500D02*
X-35290Y63722D01*
X-35282Y63944D01*
X-35268Y64166D01*
X-35249Y64388D01*
X-35225Y64608D01*
X-35195Y64829D01*
X-35160Y65048D01*
X-35119Y65267D01*
X-35073Y65484D01*
X-35022Y65700D01*
X-34965Y65915D01*
X-34903Y66129D01*
X-34836Y66340D01*
X-34764Y66551D01*
X-34686Y66759D01*
X-34604Y66965D01*
X-34516Y67169D01*
X-34424Y67372D01*
X-34326Y67571D01*
X-34224Y67768D01*
X-34117Y67963D01*
X-34005Y68155D01*
X-33888Y68344D01*
X-33767Y68531D01*
X-33641Y68714D01*
X-33511Y68894D01*
X-33376Y69071D01*
X-33238Y69244D01*
X-33095Y69414D01*
X-32947Y69581D01*
X-32796Y69744D01*
X-32641Y69903D01*
X-32482Y70058D01*
X-32319Y70209D01*
X-32152Y70357D01*
X-31982Y70500D01*
X-31809Y70638D01*
X-31632Y70773D01*
X-31452Y70903D01*
X-31269Y71029D01*
X-31082Y71150D01*
X-30893Y71267D01*
X-30701Y71379D01*
X-30506Y71486D01*
X-30309Y71588D01*
X-30110Y71686D01*
X-29907Y71778D01*
X-29703Y71866D01*
X-29497Y71948D01*
X-29289Y72026D01*
X-29078Y72098D01*
X-28867Y72165D01*
X-28653Y72227D01*
X-28438Y72284D01*
X-28222Y72335D01*
X-28005Y72381D01*
X-27786Y72422D01*
X-27567Y72457D01*
X-27346Y72487D01*
X-27126Y72511D01*
X-26904Y72530D01*
X-26682Y72544D01*
X-26460Y72552D01*
X-26238Y72555D01*
X-26016Y72552D01*
X-25794Y72544D01*
X-25572Y72530D01*
X-25350Y72511D01*
X-25130Y72487D01*
X-24909Y72457D01*
X-24690Y72422D01*
X-24471Y72381D01*
X-24254Y72335D01*
X-24038Y72284D01*
X-23823Y72227D01*
X-23609Y72165D01*
X-23398Y72098D01*
X-23187Y72026D01*
X-22979Y71948D01*
X-22773Y71866D01*
X-22569Y71778D01*
X-22366Y71686D01*
X-22167Y71588D01*
X-21970Y71486D01*
X-21775Y71379D01*
X-21583Y71267D01*
X-21394Y71150D01*
X-21207Y71029D01*
X-21024Y70903D01*
X-20844Y70773D01*
X-20667Y70638D01*
X-20494Y70500D01*
X-20324Y70357D01*
X-20157Y70209D01*
X-19994Y70058D01*
X-19835Y69903D01*
X-19680Y69744D01*
X-19529Y69581D01*
X-19381Y69414D01*
X-19238Y69244D01*
X-19100Y69071D01*
X-18965Y68894D01*
X-18835Y68714D01*
X-18709Y68531D01*
X-18588Y68344D01*
X-18471Y68155D01*
X-18359Y67963D01*
X-18252Y67768D01*
X-18150Y67571D01*
X-18052Y67372D01*
X-17960Y67169D01*
X-17872Y66965D01*
X-17790Y66759D01*
X-17712Y66551D01*
X-17640Y66340D01*
X-17573Y66129D01*
X-17511Y65915D01*
X-17454Y65700D01*
X-17403Y65484D01*
X-17357Y65267D01*
X-17316Y65048D01*
X-17281Y64829D01*
X-17251Y64608D01*
X-17227Y64388D01*
X-17208Y64166D01*
X-17194Y63944D01*
X-17186Y63722D01*
X-17183Y63500D01*
X-17186Y63278D01*
X-17194Y63056D01*
X-17208Y62834D01*
X-17227Y62612D01*
X-17251Y62392D01*
X-17281Y62171D01*
X-17316Y61952D01*
X-17357Y61733D01*
X-17403Y61516D01*
X-17454Y61300D01*
X-17511Y61085D01*
X-17573Y60871D01*
X-17640Y60660D01*
X-17712Y60449D01*
X-17790Y60241D01*
X-17872Y60035D01*
X-17960Y59831D01*
X-18052Y59628D01*
X-18150Y59429D01*
X-18252Y59232D01*
X-18359Y59037D01*
X-18471Y58845D01*
X-18588Y58656D01*
X-18709Y58469D01*
X-18835Y58286D01*
X-18965Y58106D01*
X-19100Y57929D01*
X-19238Y57756D01*
X-19381Y57586D01*
X-19529Y57419D01*
X-19680Y57256D01*
X-19835Y57097D01*
X-19994Y56942D01*
X-20157Y56791D01*
X-20324Y56643D01*
X-20494Y56500D01*
X-20667Y56362D01*
X-20844Y56227D01*
X-21024Y56097D01*
X-21207Y55971D01*
X-21394Y55850D01*
X-21583Y55733D01*
X-21775Y55621D01*
X-21970Y55514D01*
X-22167Y55412D01*
X-22366Y55314D01*
X-22569Y55222D01*
X-22773Y55134D01*
X-22979Y55052D01*
X-23187Y54974D01*
X-23398Y54902D01*
X-23609Y54835D01*
X-23823Y54773D01*
X-24038Y54716D01*
X-24254Y54665D01*
X-24471Y54619D01*
X-24690Y54578D01*
X-24909Y54543D01*
X-25130Y54513D01*
X-25350Y54489D01*
X-25572Y54470D01*
X-25794Y54456D01*
X-26016Y54448D01*
X-26238Y54445D01*
X-26460Y54448D01*
X-26682Y54456D01*
X-26904Y54470D01*
X-27126Y54489D01*
X-27346Y54513D01*
X-27567Y54543D01*
X-27786Y54578D01*
X-28005Y54619D01*
X-28222Y54665D01*
X-28438Y54716D01*
X-28653Y54773D01*
X-28867Y54835D01*
X-29078Y54902D01*
X-29289Y54974D01*
X-29497Y55052D01*
X-29703Y55134D01*
X-29907Y55222D01*
X-30110Y55314D01*
X-30309Y55412D01*
X-30506Y55514D01*
X-30701Y55621D01*
X-30893Y55733D01*
X-31082Y55850D01*
X-31269Y55971D01*
X-31452Y56097D01*
X-31632Y56227D01*
X-31809Y56362D01*
X-31982Y56500D01*
X-32152Y56643D01*
X-32319Y56791D01*
X-32482Y56942D01*
X-32641Y57097D01*
X-32796Y57256D01*
X-32947Y57419D01*
X-33095Y57586D01*
X-33238Y57756D01*
X-33376Y57929D01*
X-33511Y58106D01*
X-33641Y58286D01*
X-33767Y58469D01*
X-33888Y58656D01*
X-34005Y58845D01*
X-34117Y59037D01*
X-34224Y59232D01*
X-34326Y59429D01*
X-34424Y59628D01*
X-34516Y59831D01*
X-34604Y60035D01*
X-34686Y60241D01*
X-34764Y60449D01*
X-34836Y60660D01*
X-34903Y60871D01*
X-34965Y61085D01*
X-35022Y61300D01*
X-35073Y61516D01*
X-35119Y61733D01*
X-35160Y61952D01*
X-35195Y62171D01*
X-35225Y62392D01*
X-35249Y62612D01*
X-35268Y62834D01*
X-35282Y63056D01*
X-35290Y63278D01*
X-35293Y63500D01*
D25*
X-26238Y63500D03*
M02*
