G04 EAGLE Gerber RS-274X export*
G75*
%MOMM*%
%FSLAX34Y34*%
%LPD*%
%INSolderpaste Bottom*%
%IPPOS*%
%AMOC8*
5,1,8,0,0,1.08239X$1,22.5*%
G01*
%ADD10R,0.500000X1.000000*%
%ADD11R,0.720000X0.780000*%
%ADD12R,1.050000X1.080000*%
%ADD13R,1.050000X1.200000*%
%ADD14R,1.050000X2.390000*%
%ADD15R,2.910000X0.550000*%


D10*
X85912Y68942D03*
X96912Y68942D03*
X107912Y68942D03*
X118912Y68942D03*
X129912Y68942D03*
X140912Y68942D03*
X151912Y68942D03*
X162912Y68942D03*
D11*
X67912Y95742D03*
D12*
X67912Y108442D03*
D13*
X67912Y134542D03*
X174662Y128842D03*
D14*
X174662Y96992D03*
D15*
X142862Y141292D03*
X100962Y141292D03*
D10*
X319592Y68942D03*
X330592Y68942D03*
X341592Y68942D03*
X352592Y68942D03*
X363592Y68942D03*
X374592Y68942D03*
X385592Y68942D03*
X396592Y68942D03*
D11*
X301592Y95742D03*
D12*
X301592Y108442D03*
D13*
X301592Y134542D03*
X408342Y128842D03*
D14*
X408342Y96992D03*
D15*
X376542Y141292D03*
X334642Y141292D03*
D10*
X553272Y68942D03*
X564272Y68942D03*
X575272Y68942D03*
X586272Y68942D03*
X597272Y68942D03*
X608272Y68942D03*
X619272Y68942D03*
X630272Y68942D03*
D11*
X535272Y95742D03*
D12*
X535272Y108442D03*
D13*
X535272Y134542D03*
X642022Y128842D03*
D14*
X642022Y96992D03*
D15*
X610222Y141292D03*
X568322Y141292D03*
D10*
X786952Y68942D03*
X797952Y68942D03*
X808952Y68942D03*
X819952Y68942D03*
X830952Y68942D03*
X841952Y68942D03*
X852952Y68942D03*
X863952Y68942D03*
D11*
X768952Y95742D03*
D12*
X768952Y108442D03*
D13*
X768952Y134542D03*
X875702Y128842D03*
D14*
X875702Y96992D03*
D15*
X843902Y141292D03*
X802002Y141292D03*
D10*
X85912Y696322D03*
X96912Y696322D03*
X107912Y696322D03*
X118912Y696322D03*
X129912Y696322D03*
X140912Y696322D03*
X151912Y696322D03*
X162912Y696322D03*
D11*
X67912Y723122D03*
D12*
X67912Y735822D03*
D13*
X67912Y761922D03*
X174662Y756222D03*
D14*
X174662Y724372D03*
D15*
X142862Y768672D03*
X100962Y768672D03*
D10*
X319592Y696322D03*
X330592Y696322D03*
X341592Y696322D03*
X352592Y696322D03*
X363592Y696322D03*
X374592Y696322D03*
X385592Y696322D03*
X396592Y696322D03*
D11*
X301592Y723122D03*
D12*
X301592Y735822D03*
D13*
X301592Y761922D03*
X408342Y756222D03*
D14*
X408342Y724372D03*
D15*
X376542Y768672D03*
X334642Y768672D03*
D10*
X553272Y696322D03*
X564272Y696322D03*
X575272Y696322D03*
X586272Y696322D03*
X597272Y696322D03*
X608272Y696322D03*
X619272Y696322D03*
X630272Y696322D03*
D11*
X535272Y723122D03*
D12*
X535272Y735822D03*
D13*
X535272Y761922D03*
X642022Y756222D03*
D14*
X642022Y724372D03*
D15*
X610222Y768672D03*
X568322Y768672D03*
D10*
X786952Y696322D03*
X797952Y696322D03*
X808952Y696322D03*
X819952Y696322D03*
X830952Y696322D03*
X841952Y696322D03*
X852952Y696322D03*
X863952Y696322D03*
D11*
X768952Y723122D03*
D12*
X768952Y735822D03*
D13*
X768952Y761922D03*
X875702Y756222D03*
D14*
X875702Y724372D03*
D15*
X843902Y768672D03*
X802002Y768672D03*
D10*
X85912Y1323702D03*
X96912Y1323702D03*
X107912Y1323702D03*
X118912Y1323702D03*
X129912Y1323702D03*
X140912Y1323702D03*
X151912Y1323702D03*
X162912Y1323702D03*
D11*
X67912Y1350502D03*
D12*
X67912Y1363202D03*
D13*
X67912Y1389302D03*
X174662Y1383602D03*
D14*
X174662Y1351752D03*
D15*
X142862Y1396052D03*
X100962Y1396052D03*
D10*
X319592Y1323702D03*
X330592Y1323702D03*
X341592Y1323702D03*
X352592Y1323702D03*
X363592Y1323702D03*
X374592Y1323702D03*
X385592Y1323702D03*
X396592Y1323702D03*
D11*
X301592Y1350502D03*
D12*
X301592Y1363202D03*
D13*
X301592Y1389302D03*
X408342Y1383602D03*
D14*
X408342Y1351752D03*
D15*
X376542Y1396052D03*
X334642Y1396052D03*
D10*
X553272Y1323702D03*
X564272Y1323702D03*
X575272Y1323702D03*
X586272Y1323702D03*
X597272Y1323702D03*
X608272Y1323702D03*
X619272Y1323702D03*
X630272Y1323702D03*
D11*
X535272Y1350502D03*
D12*
X535272Y1363202D03*
D13*
X535272Y1389302D03*
X642022Y1383602D03*
D14*
X642022Y1351752D03*
D15*
X610222Y1396052D03*
X568322Y1396052D03*
D10*
X786952Y1323702D03*
X797952Y1323702D03*
X808952Y1323702D03*
X819952Y1323702D03*
X830952Y1323702D03*
X841952Y1323702D03*
X852952Y1323702D03*
X863952Y1323702D03*
D11*
X768952Y1350502D03*
D12*
X768952Y1363202D03*
D13*
X768952Y1389302D03*
X875702Y1383602D03*
D14*
X875702Y1351752D03*
D15*
X843902Y1396052D03*
X802002Y1396052D03*
M02*
