G04 EAGLE Gerber RS-274X export*
G75*
%MOMM*%
%FSLAX34Y34*%
%LPD*%
%INSoldermask Top*%
%IPPOS*%
%AMOC8*
5,1,8,0,0,1.08239X$1,22.5*%
G01*
%ADD10R,0.803200X0.803200*%
%ADD11R,0.753200X1.403200*%
%ADD12C,0.505344*%
%ADD13R,1.303200X1.203200*%
%ADD14R,1.203200X1.303200*%
%ADD15R,0.863200X0.503200*%
%ADD16R,2.203200X1.403200*%
%ADD17R,1.553200X0.803200*%
%ADD18C,0.838200*%
%ADD19C,3.251200*%
%ADD20R,1.103200X1.203200*%
%ADD21R,1.103200X1.003200*%
%ADD22R,0.503200X1.203200*%
%ADD23R,0.803200X1.203200*%
%ADD24C,0.853200*%
%ADD25R,0.833200X1.033200*%
%ADD26R,0.803200X1.403200*%
%ADD27R,0.440000X0.840000*%
%ADD28R,1.520000X0.940000*%
%ADD29R,0.903200X0.903200*%
%ADD30R,4.803200X1.203200*%
%ADD31R,3.603200X1.803200*%
%ADD32R,1.403200X0.753200*%
%ADD33R,1.703200X1.103200*%
%ADD34R,1.103200X1.703200*%
%ADD35R,1.533200X1.533200*%
%ADD36C,2.082800*%
%ADD37C,1.203200*%
%ADD38C,1.270000*%
%ADD39C,1.703200*%

G36*
X1006954Y1192992D02*
X1006954Y1192992D01*
X1006959Y1192997D01*
X1006963Y1192993D01*
X1008060Y1193280D01*
X1008064Y1193286D01*
X1008069Y1193283D01*
X1009088Y1193778D01*
X1009091Y1193784D01*
X1009096Y1193783D01*
X1009999Y1194467D01*
X1010001Y1194474D01*
X1010006Y1194474D01*
X1010759Y1195321D01*
X1010759Y1195328D01*
X1010764Y1195329D01*
X1011337Y1196306D01*
X1011336Y1196309D01*
X1011337Y1196310D01*
X1011336Y1196311D01*
X1011336Y1196313D01*
X1011341Y1196315D01*
X1011712Y1197386D01*
X1011710Y1197391D01*
X1011713Y1197393D01*
X1011712Y1197394D01*
X1011714Y1197395D01*
X1011869Y1198517D01*
X1011866Y1198522D01*
X1011869Y1198524D01*
X1011869Y1210524D01*
X1011866Y1210529D01*
X1011869Y1210532D01*
X1011664Y1211799D01*
X1011658Y1211805D01*
X1011661Y1211810D01*
X1011179Y1212999D01*
X1011172Y1213003D01*
X1011174Y1213009D01*
X1010440Y1214062D01*
X1010432Y1214064D01*
X1010433Y1214070D01*
X1009483Y1214933D01*
X1009474Y1214934D01*
X1009474Y1214939D01*
X1008355Y1215569D01*
X1008347Y1215568D01*
X1008345Y1215574D01*
X1007115Y1215939D01*
X1007107Y1215936D01*
X1007104Y1215941D01*
X1005823Y1216023D01*
X1005817Y1216023D01*
X1004536Y1215941D01*
X1004530Y1215935D01*
X1004525Y1215939D01*
X1003295Y1215574D01*
X1003290Y1215567D01*
X1003285Y1215569D01*
X1002166Y1214939D01*
X1002163Y1214932D01*
X1002157Y1214933D01*
X1001207Y1214070D01*
X1001206Y1214062D01*
X1001200Y1214062D01*
X1000466Y1213009D01*
X1000466Y1213001D01*
X1000461Y1212999D01*
X999979Y1211810D01*
X999981Y1211804D01*
X999977Y1211801D01*
X999978Y1211800D01*
X999976Y1211799D01*
X999771Y1210532D01*
X999774Y1210527D01*
X999771Y1210524D01*
X999771Y1198524D01*
X999774Y1198520D01*
X999771Y1198517D01*
X999926Y1197395D01*
X999931Y1197390D01*
X999928Y1197386D01*
X1000299Y1196315D01*
X1000305Y1196311D01*
X1000303Y1196306D01*
X1000876Y1195329D01*
X1000882Y1195326D01*
X1000881Y1195321D01*
X1001634Y1194474D01*
X1001641Y1194472D01*
X1001641Y1194467D01*
X1002544Y1193783D01*
X1002551Y1193783D01*
X1002552Y1193778D01*
X1003571Y1193283D01*
X1003578Y1193285D01*
X1003580Y1193280D01*
X1004677Y1192993D01*
X1004683Y1192996D01*
X1004686Y1192992D01*
X1005817Y1192925D01*
X1005821Y1192927D01*
X1005823Y1192925D01*
X1006954Y1192992D01*
G37*
G36*
X859674Y1192992D02*
X859674Y1192992D01*
X859679Y1192997D01*
X859683Y1192993D01*
X860780Y1193280D01*
X860784Y1193286D01*
X860789Y1193283D01*
X861808Y1193778D01*
X861811Y1193784D01*
X861816Y1193783D01*
X862719Y1194467D01*
X862721Y1194474D01*
X862726Y1194474D01*
X863479Y1195321D01*
X863479Y1195328D01*
X863484Y1195329D01*
X864057Y1196306D01*
X864056Y1196309D01*
X864057Y1196310D01*
X864056Y1196311D01*
X864056Y1196313D01*
X864061Y1196315D01*
X864432Y1197386D01*
X864430Y1197391D01*
X864433Y1197393D01*
X864432Y1197394D01*
X864434Y1197395D01*
X864589Y1198517D01*
X864586Y1198522D01*
X864589Y1198524D01*
X864589Y1210524D01*
X864586Y1210529D01*
X864589Y1210532D01*
X864384Y1211799D01*
X864378Y1211805D01*
X864381Y1211810D01*
X863899Y1212999D01*
X863892Y1213003D01*
X863894Y1213009D01*
X863160Y1214062D01*
X863152Y1214064D01*
X863153Y1214070D01*
X862203Y1214933D01*
X862194Y1214934D01*
X862194Y1214939D01*
X861075Y1215569D01*
X861067Y1215568D01*
X861065Y1215574D01*
X859835Y1215939D01*
X859827Y1215936D01*
X859824Y1215941D01*
X858543Y1216023D01*
X858537Y1216023D01*
X857256Y1215941D01*
X857250Y1215935D01*
X857245Y1215939D01*
X856015Y1215574D01*
X856010Y1215567D01*
X856005Y1215569D01*
X854886Y1214939D01*
X854883Y1214932D01*
X854877Y1214933D01*
X853927Y1214070D01*
X853926Y1214062D01*
X853920Y1214062D01*
X853186Y1213009D01*
X853186Y1213001D01*
X853181Y1212999D01*
X852699Y1211810D01*
X852701Y1211804D01*
X852697Y1211801D01*
X852698Y1211800D01*
X852696Y1211799D01*
X852491Y1210532D01*
X852494Y1210527D01*
X852491Y1210524D01*
X852491Y1198524D01*
X852494Y1198520D01*
X852491Y1198517D01*
X852646Y1197395D01*
X852651Y1197390D01*
X852648Y1197386D01*
X853019Y1196315D01*
X853025Y1196311D01*
X853023Y1196306D01*
X853596Y1195329D01*
X853602Y1195326D01*
X853601Y1195321D01*
X854354Y1194474D01*
X854361Y1194472D01*
X854361Y1194467D01*
X855264Y1193783D01*
X855271Y1193783D01*
X855272Y1193778D01*
X856291Y1193283D01*
X856298Y1193285D01*
X856300Y1193280D01*
X857397Y1192993D01*
X857403Y1192996D01*
X857406Y1192992D01*
X858537Y1192925D01*
X858541Y1192927D01*
X858543Y1192925D01*
X859674Y1192992D01*
G37*
G36*
X539594Y1192992D02*
X539594Y1192992D01*
X539599Y1192997D01*
X539603Y1192993D01*
X540700Y1193280D01*
X540704Y1193286D01*
X540709Y1193283D01*
X541728Y1193778D01*
X541731Y1193784D01*
X541736Y1193783D01*
X542639Y1194467D01*
X542641Y1194474D01*
X542646Y1194474D01*
X543399Y1195321D01*
X543399Y1195328D01*
X543404Y1195329D01*
X543977Y1196306D01*
X543976Y1196309D01*
X543977Y1196310D01*
X543976Y1196311D01*
X543976Y1196313D01*
X543981Y1196315D01*
X544352Y1197386D01*
X544350Y1197391D01*
X544353Y1197393D01*
X544352Y1197394D01*
X544354Y1197395D01*
X544509Y1198517D01*
X544506Y1198522D01*
X544509Y1198524D01*
X544509Y1210524D01*
X544506Y1210529D01*
X544509Y1210532D01*
X544304Y1211799D01*
X544298Y1211805D01*
X544301Y1211810D01*
X543819Y1212999D01*
X543812Y1213003D01*
X543814Y1213009D01*
X543080Y1214062D01*
X543072Y1214064D01*
X543073Y1214070D01*
X542123Y1214933D01*
X542114Y1214934D01*
X542114Y1214939D01*
X540995Y1215569D01*
X540987Y1215568D01*
X540985Y1215574D01*
X539755Y1215939D01*
X539747Y1215936D01*
X539744Y1215941D01*
X538463Y1216023D01*
X538457Y1216023D01*
X537176Y1215941D01*
X537170Y1215935D01*
X537165Y1215939D01*
X535935Y1215574D01*
X535930Y1215567D01*
X535925Y1215569D01*
X534806Y1214939D01*
X534803Y1214932D01*
X534797Y1214933D01*
X533847Y1214070D01*
X533846Y1214062D01*
X533840Y1214062D01*
X533106Y1213009D01*
X533106Y1213001D01*
X533101Y1212999D01*
X532619Y1211810D01*
X532621Y1211804D01*
X532617Y1211801D01*
X532618Y1211800D01*
X532616Y1211799D01*
X532411Y1210532D01*
X532414Y1210527D01*
X532411Y1210524D01*
X532411Y1198524D01*
X532414Y1198520D01*
X532411Y1198517D01*
X532566Y1197395D01*
X532571Y1197390D01*
X532568Y1197386D01*
X532939Y1196315D01*
X532945Y1196311D01*
X532943Y1196306D01*
X533516Y1195329D01*
X533522Y1195326D01*
X533521Y1195321D01*
X534274Y1194474D01*
X534281Y1194472D01*
X534281Y1194467D01*
X535184Y1193783D01*
X535191Y1193783D01*
X535192Y1193778D01*
X536211Y1193283D01*
X536218Y1193285D01*
X536220Y1193280D01*
X537317Y1192993D01*
X537323Y1192996D01*
X537326Y1192992D01*
X538457Y1192925D01*
X538461Y1192927D01*
X538463Y1192925D01*
X539594Y1192992D01*
G37*
G36*
X392314Y1192992D02*
X392314Y1192992D01*
X392319Y1192997D01*
X392323Y1192993D01*
X393420Y1193280D01*
X393424Y1193286D01*
X393429Y1193283D01*
X394448Y1193778D01*
X394451Y1193784D01*
X394456Y1193783D01*
X395359Y1194467D01*
X395361Y1194474D01*
X395366Y1194474D01*
X396119Y1195321D01*
X396119Y1195328D01*
X396124Y1195329D01*
X396697Y1196306D01*
X396696Y1196309D01*
X396697Y1196310D01*
X396696Y1196311D01*
X396696Y1196313D01*
X396701Y1196315D01*
X397072Y1197386D01*
X397070Y1197391D01*
X397073Y1197393D01*
X397072Y1197394D01*
X397074Y1197395D01*
X397229Y1198517D01*
X397226Y1198522D01*
X397229Y1198524D01*
X397229Y1210524D01*
X397226Y1210529D01*
X397229Y1210532D01*
X397024Y1211799D01*
X397018Y1211805D01*
X397021Y1211810D01*
X396539Y1212999D01*
X396532Y1213003D01*
X396534Y1213009D01*
X395800Y1214062D01*
X395792Y1214064D01*
X395793Y1214070D01*
X394843Y1214933D01*
X394834Y1214934D01*
X394834Y1214939D01*
X393715Y1215569D01*
X393707Y1215568D01*
X393705Y1215574D01*
X392475Y1215939D01*
X392467Y1215936D01*
X392464Y1215941D01*
X391183Y1216023D01*
X391177Y1216023D01*
X389896Y1215941D01*
X389890Y1215935D01*
X389885Y1215939D01*
X388655Y1215574D01*
X388650Y1215567D01*
X388645Y1215569D01*
X387526Y1214939D01*
X387523Y1214932D01*
X387517Y1214933D01*
X386567Y1214070D01*
X386566Y1214062D01*
X386560Y1214062D01*
X385826Y1213009D01*
X385826Y1213001D01*
X385821Y1212999D01*
X385339Y1211810D01*
X385341Y1211804D01*
X385337Y1211801D01*
X385338Y1211800D01*
X385336Y1211799D01*
X385131Y1210532D01*
X385134Y1210527D01*
X385131Y1210524D01*
X385131Y1198524D01*
X385134Y1198520D01*
X385131Y1198517D01*
X385286Y1197395D01*
X385291Y1197390D01*
X385288Y1197386D01*
X385659Y1196315D01*
X385665Y1196311D01*
X385663Y1196306D01*
X386236Y1195329D01*
X386242Y1195326D01*
X386241Y1195321D01*
X386994Y1194474D01*
X387001Y1194472D01*
X387001Y1194467D01*
X387904Y1193783D01*
X387911Y1193783D01*
X387912Y1193778D01*
X388931Y1193283D01*
X388938Y1193285D01*
X388940Y1193280D01*
X390037Y1192993D01*
X390043Y1192996D01*
X390046Y1192992D01*
X391177Y1192925D01*
X391181Y1192927D01*
X391183Y1192925D01*
X392314Y1192992D01*
G37*
G36*
X305914Y1192992D02*
X305914Y1192992D01*
X305919Y1192997D01*
X305923Y1192993D01*
X307020Y1193280D01*
X307024Y1193286D01*
X307029Y1193283D01*
X308048Y1193778D01*
X308051Y1193784D01*
X308056Y1193783D01*
X308959Y1194467D01*
X308961Y1194474D01*
X308966Y1194474D01*
X309719Y1195321D01*
X309719Y1195328D01*
X309724Y1195329D01*
X310297Y1196306D01*
X310296Y1196309D01*
X310297Y1196310D01*
X310296Y1196311D01*
X310296Y1196313D01*
X310301Y1196315D01*
X310672Y1197386D01*
X310670Y1197391D01*
X310673Y1197393D01*
X310672Y1197394D01*
X310674Y1197395D01*
X310829Y1198517D01*
X310826Y1198522D01*
X310829Y1198524D01*
X310829Y1210524D01*
X310826Y1210529D01*
X310829Y1210532D01*
X310624Y1211799D01*
X310618Y1211805D01*
X310621Y1211810D01*
X310139Y1212999D01*
X310132Y1213003D01*
X310134Y1213009D01*
X309400Y1214062D01*
X309392Y1214064D01*
X309393Y1214070D01*
X308443Y1214933D01*
X308434Y1214934D01*
X308434Y1214939D01*
X307315Y1215569D01*
X307307Y1215568D01*
X307305Y1215574D01*
X306075Y1215939D01*
X306067Y1215936D01*
X306064Y1215941D01*
X304783Y1216023D01*
X304777Y1216023D01*
X303496Y1215941D01*
X303490Y1215935D01*
X303485Y1215939D01*
X302255Y1215574D01*
X302250Y1215567D01*
X302245Y1215569D01*
X301126Y1214939D01*
X301123Y1214932D01*
X301117Y1214933D01*
X300167Y1214070D01*
X300166Y1214062D01*
X300160Y1214062D01*
X299426Y1213009D01*
X299426Y1213001D01*
X299421Y1212999D01*
X298939Y1211810D01*
X298941Y1211804D01*
X298937Y1211801D01*
X298938Y1211800D01*
X298936Y1211799D01*
X298731Y1210532D01*
X298734Y1210527D01*
X298731Y1210524D01*
X298731Y1198524D01*
X298734Y1198520D01*
X298731Y1198517D01*
X298886Y1197395D01*
X298891Y1197390D01*
X298888Y1197386D01*
X299259Y1196315D01*
X299265Y1196311D01*
X299263Y1196306D01*
X299836Y1195329D01*
X299842Y1195326D01*
X299841Y1195321D01*
X300594Y1194474D01*
X300601Y1194472D01*
X300601Y1194467D01*
X301504Y1193783D01*
X301511Y1193783D01*
X301512Y1193778D01*
X302531Y1193283D01*
X302538Y1193285D01*
X302540Y1193280D01*
X303637Y1192993D01*
X303643Y1192996D01*
X303646Y1192992D01*
X304777Y1192925D01*
X304781Y1192927D01*
X304783Y1192925D01*
X305914Y1192992D01*
G37*
G36*
X158634Y1192992D02*
X158634Y1192992D01*
X158639Y1192997D01*
X158643Y1192993D01*
X159740Y1193280D01*
X159744Y1193286D01*
X159749Y1193283D01*
X160768Y1193778D01*
X160771Y1193784D01*
X160776Y1193783D01*
X161679Y1194467D01*
X161681Y1194474D01*
X161686Y1194474D01*
X162439Y1195321D01*
X162439Y1195328D01*
X162444Y1195329D01*
X163017Y1196306D01*
X163016Y1196309D01*
X163017Y1196310D01*
X163016Y1196311D01*
X163016Y1196313D01*
X163021Y1196315D01*
X163392Y1197386D01*
X163390Y1197391D01*
X163393Y1197393D01*
X163392Y1197394D01*
X163394Y1197395D01*
X163549Y1198517D01*
X163546Y1198522D01*
X163549Y1198524D01*
X163549Y1210524D01*
X163546Y1210529D01*
X163549Y1210532D01*
X163344Y1211799D01*
X163338Y1211805D01*
X163341Y1211810D01*
X162859Y1212999D01*
X162852Y1213003D01*
X162854Y1213009D01*
X162120Y1214062D01*
X162112Y1214064D01*
X162113Y1214070D01*
X161163Y1214933D01*
X161154Y1214934D01*
X161154Y1214939D01*
X160035Y1215569D01*
X160027Y1215568D01*
X160025Y1215574D01*
X158795Y1215939D01*
X158787Y1215936D01*
X158784Y1215941D01*
X157503Y1216023D01*
X157497Y1216023D01*
X156216Y1215941D01*
X156210Y1215935D01*
X156205Y1215939D01*
X154975Y1215574D01*
X154970Y1215567D01*
X154965Y1215569D01*
X153846Y1214939D01*
X153843Y1214932D01*
X153837Y1214933D01*
X152887Y1214070D01*
X152886Y1214062D01*
X152880Y1214062D01*
X152146Y1213009D01*
X152146Y1213001D01*
X152141Y1212999D01*
X151659Y1211810D01*
X151661Y1211804D01*
X151657Y1211801D01*
X151658Y1211800D01*
X151656Y1211799D01*
X151451Y1210532D01*
X151454Y1210527D01*
X151451Y1210524D01*
X151451Y1198524D01*
X151454Y1198520D01*
X151451Y1198517D01*
X151606Y1197395D01*
X151611Y1197390D01*
X151608Y1197386D01*
X151979Y1196315D01*
X151985Y1196311D01*
X151983Y1196306D01*
X152556Y1195329D01*
X152562Y1195326D01*
X152561Y1195321D01*
X153314Y1194474D01*
X153321Y1194472D01*
X153321Y1194467D01*
X154224Y1193783D01*
X154231Y1193783D01*
X154232Y1193778D01*
X155251Y1193283D01*
X155258Y1193285D01*
X155260Y1193280D01*
X156357Y1192993D01*
X156363Y1192996D01*
X156366Y1192992D01*
X157497Y1192925D01*
X157501Y1192927D01*
X157503Y1192925D01*
X158634Y1192992D01*
G37*
G36*
X72234Y1192992D02*
X72234Y1192992D01*
X72239Y1192997D01*
X72243Y1192993D01*
X73340Y1193280D01*
X73344Y1193286D01*
X73349Y1193283D01*
X74368Y1193778D01*
X74371Y1193784D01*
X74376Y1193783D01*
X75279Y1194467D01*
X75281Y1194474D01*
X75286Y1194474D01*
X76039Y1195321D01*
X76039Y1195328D01*
X76044Y1195329D01*
X76617Y1196306D01*
X76616Y1196309D01*
X76617Y1196310D01*
X76616Y1196311D01*
X76616Y1196313D01*
X76621Y1196315D01*
X76992Y1197386D01*
X76990Y1197391D01*
X76993Y1197393D01*
X76992Y1197394D01*
X76994Y1197395D01*
X77149Y1198517D01*
X77146Y1198522D01*
X77149Y1198524D01*
X77149Y1210524D01*
X77146Y1210529D01*
X77149Y1210532D01*
X76944Y1211799D01*
X76938Y1211805D01*
X76941Y1211810D01*
X76459Y1212999D01*
X76452Y1213003D01*
X76454Y1213009D01*
X75720Y1214062D01*
X75712Y1214064D01*
X75713Y1214070D01*
X74763Y1214933D01*
X74754Y1214934D01*
X74754Y1214939D01*
X73635Y1215569D01*
X73627Y1215568D01*
X73625Y1215574D01*
X72395Y1215939D01*
X72387Y1215936D01*
X72384Y1215941D01*
X71103Y1216023D01*
X71097Y1216023D01*
X69816Y1215941D01*
X69810Y1215935D01*
X69805Y1215939D01*
X68575Y1215574D01*
X68570Y1215567D01*
X68565Y1215569D01*
X67446Y1214939D01*
X67443Y1214932D01*
X67437Y1214933D01*
X66487Y1214070D01*
X66486Y1214062D01*
X66480Y1214062D01*
X65746Y1213009D01*
X65746Y1213001D01*
X65741Y1212999D01*
X65259Y1211810D01*
X65261Y1211804D01*
X65257Y1211801D01*
X65258Y1211800D01*
X65256Y1211799D01*
X65051Y1210532D01*
X65054Y1210527D01*
X65051Y1210524D01*
X65051Y1198524D01*
X65054Y1198520D01*
X65051Y1198517D01*
X65206Y1197395D01*
X65211Y1197390D01*
X65208Y1197386D01*
X65579Y1196315D01*
X65585Y1196311D01*
X65583Y1196306D01*
X66156Y1195329D01*
X66162Y1195326D01*
X66161Y1195321D01*
X66914Y1194474D01*
X66921Y1194472D01*
X66921Y1194467D01*
X67824Y1193783D01*
X67831Y1193783D01*
X67832Y1193778D01*
X68851Y1193283D01*
X68858Y1193285D01*
X68860Y1193280D01*
X69957Y1192993D01*
X69963Y1192996D01*
X69966Y1192992D01*
X71097Y1192925D01*
X71101Y1192927D01*
X71103Y1192925D01*
X72234Y1192992D01*
G37*
G36*
X1474314Y1192992D02*
X1474314Y1192992D01*
X1474319Y1192997D01*
X1474323Y1192993D01*
X1475420Y1193280D01*
X1475424Y1193286D01*
X1475429Y1193283D01*
X1476448Y1193778D01*
X1476451Y1193784D01*
X1476456Y1193783D01*
X1477359Y1194467D01*
X1477361Y1194474D01*
X1477366Y1194474D01*
X1478119Y1195321D01*
X1478119Y1195328D01*
X1478124Y1195329D01*
X1478697Y1196306D01*
X1478696Y1196309D01*
X1478697Y1196310D01*
X1478696Y1196311D01*
X1478696Y1196313D01*
X1478701Y1196315D01*
X1479072Y1197386D01*
X1479070Y1197391D01*
X1479073Y1197393D01*
X1479072Y1197394D01*
X1479074Y1197395D01*
X1479229Y1198517D01*
X1479226Y1198522D01*
X1479229Y1198524D01*
X1479229Y1210524D01*
X1479226Y1210529D01*
X1479229Y1210532D01*
X1479024Y1211799D01*
X1479018Y1211805D01*
X1479021Y1211810D01*
X1478539Y1212999D01*
X1478532Y1213003D01*
X1478534Y1213009D01*
X1477800Y1214062D01*
X1477792Y1214064D01*
X1477793Y1214070D01*
X1476843Y1214933D01*
X1476834Y1214934D01*
X1476834Y1214939D01*
X1475715Y1215569D01*
X1475707Y1215568D01*
X1475705Y1215574D01*
X1474475Y1215939D01*
X1474467Y1215936D01*
X1474464Y1215941D01*
X1473183Y1216023D01*
X1473177Y1216023D01*
X1471896Y1215941D01*
X1471890Y1215935D01*
X1471885Y1215939D01*
X1470655Y1215574D01*
X1470650Y1215567D01*
X1470645Y1215569D01*
X1469526Y1214939D01*
X1469523Y1214932D01*
X1469517Y1214933D01*
X1468567Y1214070D01*
X1468566Y1214062D01*
X1468560Y1214062D01*
X1467826Y1213009D01*
X1467826Y1213001D01*
X1467821Y1212999D01*
X1467339Y1211810D01*
X1467341Y1211804D01*
X1467337Y1211801D01*
X1467338Y1211800D01*
X1467336Y1211799D01*
X1467131Y1210532D01*
X1467134Y1210527D01*
X1467131Y1210524D01*
X1467131Y1198524D01*
X1467134Y1198520D01*
X1467131Y1198517D01*
X1467286Y1197395D01*
X1467291Y1197390D01*
X1467288Y1197386D01*
X1467659Y1196315D01*
X1467665Y1196311D01*
X1467663Y1196306D01*
X1468236Y1195329D01*
X1468242Y1195326D01*
X1468241Y1195321D01*
X1468994Y1194474D01*
X1469001Y1194472D01*
X1469001Y1194467D01*
X1469904Y1193783D01*
X1469911Y1193783D01*
X1469912Y1193778D01*
X1470931Y1193283D01*
X1470938Y1193285D01*
X1470940Y1193280D01*
X1472037Y1192993D01*
X1472043Y1192996D01*
X1472046Y1192992D01*
X1473177Y1192925D01*
X1473181Y1192927D01*
X1473183Y1192925D01*
X1474314Y1192992D01*
G37*
G36*
X1560714Y1192992D02*
X1560714Y1192992D01*
X1560719Y1192997D01*
X1560723Y1192993D01*
X1561820Y1193280D01*
X1561824Y1193286D01*
X1561829Y1193283D01*
X1562848Y1193778D01*
X1562851Y1193784D01*
X1562856Y1193783D01*
X1563759Y1194467D01*
X1563761Y1194474D01*
X1563766Y1194474D01*
X1564519Y1195321D01*
X1564519Y1195328D01*
X1564524Y1195329D01*
X1565097Y1196306D01*
X1565096Y1196309D01*
X1565097Y1196310D01*
X1565096Y1196311D01*
X1565096Y1196313D01*
X1565101Y1196315D01*
X1565472Y1197386D01*
X1565470Y1197391D01*
X1565473Y1197393D01*
X1565472Y1197394D01*
X1565474Y1197395D01*
X1565629Y1198517D01*
X1565626Y1198522D01*
X1565629Y1198524D01*
X1565629Y1210524D01*
X1565626Y1210529D01*
X1565629Y1210532D01*
X1565424Y1211799D01*
X1565418Y1211805D01*
X1565421Y1211810D01*
X1564939Y1212999D01*
X1564932Y1213003D01*
X1564934Y1213009D01*
X1564200Y1214062D01*
X1564192Y1214064D01*
X1564193Y1214070D01*
X1563243Y1214933D01*
X1563234Y1214934D01*
X1563234Y1214939D01*
X1562115Y1215569D01*
X1562107Y1215568D01*
X1562105Y1215574D01*
X1560875Y1215939D01*
X1560867Y1215936D01*
X1560864Y1215941D01*
X1559583Y1216023D01*
X1559577Y1216023D01*
X1558296Y1215941D01*
X1558290Y1215935D01*
X1558285Y1215939D01*
X1557055Y1215574D01*
X1557050Y1215567D01*
X1557045Y1215569D01*
X1555926Y1214939D01*
X1555923Y1214932D01*
X1555917Y1214933D01*
X1554967Y1214070D01*
X1554966Y1214062D01*
X1554960Y1214062D01*
X1554226Y1213009D01*
X1554226Y1213001D01*
X1554221Y1212999D01*
X1553739Y1211810D01*
X1553741Y1211804D01*
X1553737Y1211801D01*
X1553738Y1211800D01*
X1553736Y1211799D01*
X1553531Y1210532D01*
X1553534Y1210527D01*
X1553531Y1210524D01*
X1553531Y1198524D01*
X1553534Y1198520D01*
X1553531Y1198517D01*
X1553686Y1197395D01*
X1553691Y1197390D01*
X1553688Y1197386D01*
X1554059Y1196315D01*
X1554065Y1196311D01*
X1554063Y1196306D01*
X1554636Y1195329D01*
X1554642Y1195326D01*
X1554641Y1195321D01*
X1555394Y1194474D01*
X1555401Y1194472D01*
X1555401Y1194467D01*
X1556304Y1193783D01*
X1556311Y1193783D01*
X1556312Y1193778D01*
X1557331Y1193283D01*
X1557338Y1193285D01*
X1557340Y1193280D01*
X1558437Y1192993D01*
X1558443Y1192996D01*
X1558446Y1192992D01*
X1559577Y1192925D01*
X1559581Y1192927D01*
X1559583Y1192925D01*
X1560714Y1192992D01*
G37*
G36*
X773274Y1192992D02*
X773274Y1192992D01*
X773279Y1192997D01*
X773283Y1192993D01*
X774380Y1193280D01*
X774384Y1193286D01*
X774389Y1193283D01*
X775408Y1193778D01*
X775411Y1193784D01*
X775416Y1193783D01*
X776319Y1194467D01*
X776321Y1194474D01*
X776326Y1194474D01*
X777079Y1195321D01*
X777079Y1195328D01*
X777084Y1195329D01*
X777657Y1196306D01*
X777656Y1196309D01*
X777657Y1196310D01*
X777656Y1196311D01*
X777656Y1196313D01*
X777661Y1196315D01*
X778032Y1197386D01*
X778030Y1197391D01*
X778033Y1197393D01*
X778032Y1197394D01*
X778034Y1197395D01*
X778189Y1198517D01*
X778186Y1198522D01*
X778189Y1198524D01*
X778189Y1210524D01*
X778186Y1210529D01*
X778189Y1210532D01*
X777984Y1211799D01*
X777978Y1211805D01*
X777981Y1211810D01*
X777499Y1212999D01*
X777492Y1213003D01*
X777494Y1213009D01*
X776760Y1214062D01*
X776752Y1214064D01*
X776753Y1214070D01*
X775803Y1214933D01*
X775794Y1214934D01*
X775794Y1214939D01*
X774675Y1215569D01*
X774667Y1215568D01*
X774665Y1215574D01*
X773435Y1215939D01*
X773427Y1215936D01*
X773424Y1215941D01*
X772143Y1216023D01*
X772137Y1216023D01*
X770856Y1215941D01*
X770850Y1215935D01*
X770845Y1215939D01*
X769615Y1215574D01*
X769610Y1215567D01*
X769605Y1215569D01*
X768486Y1214939D01*
X768483Y1214932D01*
X768477Y1214933D01*
X767527Y1214070D01*
X767526Y1214062D01*
X767520Y1214062D01*
X766786Y1213009D01*
X766786Y1213001D01*
X766781Y1212999D01*
X766299Y1211810D01*
X766301Y1211804D01*
X766297Y1211801D01*
X766298Y1211800D01*
X766296Y1211799D01*
X766091Y1210532D01*
X766094Y1210527D01*
X766091Y1210524D01*
X766091Y1198524D01*
X766094Y1198520D01*
X766091Y1198517D01*
X766246Y1197395D01*
X766251Y1197390D01*
X766248Y1197386D01*
X766619Y1196315D01*
X766625Y1196311D01*
X766623Y1196306D01*
X767196Y1195329D01*
X767202Y1195326D01*
X767201Y1195321D01*
X767954Y1194474D01*
X767961Y1194472D01*
X767961Y1194467D01*
X768864Y1193783D01*
X768871Y1193783D01*
X768872Y1193778D01*
X769891Y1193283D01*
X769898Y1193285D01*
X769900Y1193280D01*
X770997Y1192993D01*
X771003Y1192996D01*
X771006Y1192992D01*
X772137Y1192925D01*
X772141Y1192927D01*
X772143Y1192925D01*
X773274Y1192992D01*
G37*
G36*
X1093354Y1192992D02*
X1093354Y1192992D01*
X1093359Y1192997D01*
X1093363Y1192993D01*
X1094460Y1193280D01*
X1094464Y1193286D01*
X1094469Y1193283D01*
X1095488Y1193778D01*
X1095491Y1193784D01*
X1095496Y1193783D01*
X1096399Y1194467D01*
X1096401Y1194474D01*
X1096406Y1194474D01*
X1097159Y1195321D01*
X1097159Y1195328D01*
X1097164Y1195329D01*
X1097737Y1196306D01*
X1097736Y1196309D01*
X1097737Y1196310D01*
X1097736Y1196311D01*
X1097736Y1196313D01*
X1097741Y1196315D01*
X1098112Y1197386D01*
X1098110Y1197391D01*
X1098113Y1197393D01*
X1098112Y1197394D01*
X1098114Y1197395D01*
X1098269Y1198517D01*
X1098266Y1198522D01*
X1098269Y1198524D01*
X1098269Y1210524D01*
X1098266Y1210529D01*
X1098269Y1210532D01*
X1098064Y1211799D01*
X1098058Y1211805D01*
X1098061Y1211810D01*
X1097579Y1212999D01*
X1097572Y1213003D01*
X1097574Y1213009D01*
X1096840Y1214062D01*
X1096832Y1214064D01*
X1096833Y1214070D01*
X1095883Y1214933D01*
X1095874Y1214934D01*
X1095874Y1214939D01*
X1094755Y1215569D01*
X1094747Y1215568D01*
X1094745Y1215574D01*
X1093515Y1215939D01*
X1093507Y1215936D01*
X1093504Y1215941D01*
X1092223Y1216023D01*
X1092217Y1216023D01*
X1090936Y1215941D01*
X1090930Y1215935D01*
X1090925Y1215939D01*
X1089695Y1215574D01*
X1089690Y1215567D01*
X1089685Y1215569D01*
X1088566Y1214939D01*
X1088563Y1214932D01*
X1088557Y1214933D01*
X1087607Y1214070D01*
X1087606Y1214062D01*
X1087600Y1214062D01*
X1086866Y1213009D01*
X1086866Y1213001D01*
X1086861Y1212999D01*
X1086379Y1211810D01*
X1086381Y1211804D01*
X1086377Y1211801D01*
X1086378Y1211800D01*
X1086376Y1211799D01*
X1086171Y1210532D01*
X1086174Y1210527D01*
X1086171Y1210524D01*
X1086171Y1198524D01*
X1086174Y1198520D01*
X1086171Y1198517D01*
X1086326Y1197395D01*
X1086331Y1197390D01*
X1086328Y1197386D01*
X1086699Y1196315D01*
X1086705Y1196311D01*
X1086703Y1196306D01*
X1087276Y1195329D01*
X1087282Y1195326D01*
X1087281Y1195321D01*
X1088034Y1194474D01*
X1088041Y1194472D01*
X1088041Y1194467D01*
X1088944Y1193783D01*
X1088951Y1193783D01*
X1088952Y1193778D01*
X1089971Y1193283D01*
X1089978Y1193285D01*
X1089980Y1193280D01*
X1091077Y1192993D01*
X1091083Y1192996D01*
X1091086Y1192992D01*
X1092217Y1192925D01*
X1092221Y1192927D01*
X1092223Y1192925D01*
X1093354Y1192992D01*
G37*
G36*
X1327034Y1192992D02*
X1327034Y1192992D01*
X1327039Y1192997D01*
X1327043Y1192993D01*
X1328140Y1193280D01*
X1328144Y1193286D01*
X1328149Y1193283D01*
X1329168Y1193778D01*
X1329171Y1193784D01*
X1329176Y1193783D01*
X1330079Y1194467D01*
X1330081Y1194474D01*
X1330086Y1194474D01*
X1330839Y1195321D01*
X1330839Y1195328D01*
X1330844Y1195329D01*
X1331417Y1196306D01*
X1331416Y1196309D01*
X1331417Y1196310D01*
X1331416Y1196311D01*
X1331416Y1196313D01*
X1331421Y1196315D01*
X1331792Y1197386D01*
X1331790Y1197391D01*
X1331793Y1197393D01*
X1331792Y1197394D01*
X1331794Y1197395D01*
X1331949Y1198517D01*
X1331946Y1198522D01*
X1331949Y1198524D01*
X1331949Y1210524D01*
X1331946Y1210529D01*
X1331949Y1210532D01*
X1331744Y1211799D01*
X1331738Y1211805D01*
X1331741Y1211810D01*
X1331259Y1212999D01*
X1331252Y1213003D01*
X1331254Y1213009D01*
X1330520Y1214062D01*
X1330512Y1214064D01*
X1330513Y1214070D01*
X1329563Y1214933D01*
X1329554Y1214934D01*
X1329554Y1214939D01*
X1328435Y1215569D01*
X1328427Y1215568D01*
X1328425Y1215574D01*
X1327195Y1215939D01*
X1327187Y1215936D01*
X1327184Y1215941D01*
X1325903Y1216023D01*
X1325897Y1216023D01*
X1324616Y1215941D01*
X1324610Y1215935D01*
X1324605Y1215939D01*
X1323375Y1215574D01*
X1323370Y1215567D01*
X1323365Y1215569D01*
X1322246Y1214939D01*
X1322243Y1214932D01*
X1322237Y1214933D01*
X1321287Y1214070D01*
X1321286Y1214062D01*
X1321280Y1214062D01*
X1320546Y1213009D01*
X1320546Y1213001D01*
X1320541Y1212999D01*
X1320059Y1211810D01*
X1320061Y1211804D01*
X1320057Y1211801D01*
X1320058Y1211800D01*
X1320056Y1211799D01*
X1319851Y1210532D01*
X1319854Y1210527D01*
X1319851Y1210524D01*
X1319851Y1198524D01*
X1319854Y1198520D01*
X1319851Y1198517D01*
X1320006Y1197395D01*
X1320011Y1197390D01*
X1320008Y1197386D01*
X1320379Y1196315D01*
X1320385Y1196311D01*
X1320383Y1196306D01*
X1320956Y1195329D01*
X1320962Y1195326D01*
X1320961Y1195321D01*
X1321714Y1194474D01*
X1321721Y1194472D01*
X1321721Y1194467D01*
X1322624Y1193783D01*
X1322631Y1193783D01*
X1322632Y1193778D01*
X1323651Y1193283D01*
X1323658Y1193285D01*
X1323660Y1193280D01*
X1324757Y1192993D01*
X1324763Y1192996D01*
X1324766Y1192992D01*
X1325897Y1192925D01*
X1325901Y1192927D01*
X1325903Y1192925D01*
X1327034Y1192992D01*
G37*
G36*
X625994Y1192992D02*
X625994Y1192992D01*
X625999Y1192997D01*
X626003Y1192993D01*
X627100Y1193280D01*
X627104Y1193286D01*
X627109Y1193283D01*
X628128Y1193778D01*
X628131Y1193784D01*
X628136Y1193783D01*
X629039Y1194467D01*
X629041Y1194474D01*
X629046Y1194474D01*
X629799Y1195321D01*
X629799Y1195328D01*
X629804Y1195329D01*
X630377Y1196306D01*
X630376Y1196309D01*
X630377Y1196310D01*
X630376Y1196311D01*
X630376Y1196313D01*
X630381Y1196315D01*
X630752Y1197386D01*
X630750Y1197391D01*
X630753Y1197393D01*
X630752Y1197394D01*
X630754Y1197395D01*
X630909Y1198517D01*
X630906Y1198522D01*
X630909Y1198524D01*
X630909Y1210524D01*
X630906Y1210529D01*
X630909Y1210532D01*
X630704Y1211799D01*
X630698Y1211805D01*
X630701Y1211810D01*
X630219Y1212999D01*
X630212Y1213003D01*
X630214Y1213009D01*
X629480Y1214062D01*
X629472Y1214064D01*
X629473Y1214070D01*
X628523Y1214933D01*
X628514Y1214934D01*
X628514Y1214939D01*
X627395Y1215569D01*
X627387Y1215568D01*
X627385Y1215574D01*
X626155Y1215939D01*
X626147Y1215936D01*
X626144Y1215941D01*
X624863Y1216023D01*
X624857Y1216023D01*
X623576Y1215941D01*
X623570Y1215935D01*
X623565Y1215939D01*
X622335Y1215574D01*
X622330Y1215567D01*
X622325Y1215569D01*
X621206Y1214939D01*
X621203Y1214932D01*
X621197Y1214933D01*
X620247Y1214070D01*
X620246Y1214062D01*
X620240Y1214062D01*
X619506Y1213009D01*
X619506Y1213001D01*
X619501Y1212999D01*
X619019Y1211810D01*
X619021Y1211804D01*
X619017Y1211801D01*
X619018Y1211800D01*
X619016Y1211799D01*
X618811Y1210532D01*
X618814Y1210527D01*
X618811Y1210524D01*
X618811Y1198524D01*
X618814Y1198520D01*
X618811Y1198517D01*
X618966Y1197395D01*
X618971Y1197390D01*
X618968Y1197386D01*
X619339Y1196315D01*
X619345Y1196311D01*
X619343Y1196306D01*
X619916Y1195329D01*
X619922Y1195326D01*
X619921Y1195321D01*
X620674Y1194474D01*
X620681Y1194472D01*
X620681Y1194467D01*
X621584Y1193783D01*
X621591Y1193783D01*
X621592Y1193778D01*
X622611Y1193283D01*
X622618Y1193285D01*
X622620Y1193280D01*
X623717Y1192993D01*
X623723Y1192996D01*
X623726Y1192992D01*
X624857Y1192925D01*
X624861Y1192927D01*
X624863Y1192925D01*
X625994Y1192992D01*
G37*
G36*
X1240634Y1192992D02*
X1240634Y1192992D01*
X1240639Y1192997D01*
X1240643Y1192993D01*
X1241740Y1193280D01*
X1241744Y1193286D01*
X1241749Y1193283D01*
X1242768Y1193778D01*
X1242771Y1193784D01*
X1242776Y1193783D01*
X1243679Y1194467D01*
X1243681Y1194474D01*
X1243686Y1194474D01*
X1244439Y1195321D01*
X1244439Y1195328D01*
X1244444Y1195329D01*
X1245017Y1196306D01*
X1245016Y1196309D01*
X1245017Y1196310D01*
X1245016Y1196311D01*
X1245016Y1196313D01*
X1245021Y1196315D01*
X1245392Y1197386D01*
X1245390Y1197391D01*
X1245393Y1197393D01*
X1245392Y1197394D01*
X1245394Y1197395D01*
X1245549Y1198517D01*
X1245546Y1198522D01*
X1245549Y1198524D01*
X1245549Y1210524D01*
X1245546Y1210529D01*
X1245549Y1210532D01*
X1245344Y1211799D01*
X1245338Y1211805D01*
X1245341Y1211810D01*
X1244859Y1212999D01*
X1244852Y1213003D01*
X1244854Y1213009D01*
X1244120Y1214062D01*
X1244112Y1214064D01*
X1244113Y1214070D01*
X1243163Y1214933D01*
X1243154Y1214934D01*
X1243154Y1214939D01*
X1242035Y1215569D01*
X1242027Y1215568D01*
X1242025Y1215574D01*
X1240795Y1215939D01*
X1240787Y1215936D01*
X1240784Y1215941D01*
X1239503Y1216023D01*
X1239497Y1216023D01*
X1238216Y1215941D01*
X1238210Y1215935D01*
X1238205Y1215939D01*
X1236975Y1215574D01*
X1236970Y1215567D01*
X1236965Y1215569D01*
X1235846Y1214939D01*
X1235843Y1214932D01*
X1235837Y1214933D01*
X1234887Y1214070D01*
X1234886Y1214062D01*
X1234880Y1214062D01*
X1234146Y1213009D01*
X1234146Y1213001D01*
X1234141Y1212999D01*
X1233659Y1211810D01*
X1233661Y1211804D01*
X1233657Y1211801D01*
X1233658Y1211800D01*
X1233656Y1211799D01*
X1233451Y1210532D01*
X1233454Y1210527D01*
X1233451Y1210524D01*
X1233451Y1198524D01*
X1233454Y1198520D01*
X1233451Y1198517D01*
X1233606Y1197395D01*
X1233611Y1197390D01*
X1233608Y1197386D01*
X1233979Y1196315D01*
X1233985Y1196311D01*
X1233983Y1196306D01*
X1234556Y1195329D01*
X1234562Y1195326D01*
X1234561Y1195321D01*
X1235314Y1194474D01*
X1235321Y1194472D01*
X1235321Y1194467D01*
X1236224Y1193783D01*
X1236231Y1193783D01*
X1236232Y1193778D01*
X1237251Y1193283D01*
X1237258Y1193285D01*
X1237260Y1193280D01*
X1238357Y1192993D01*
X1238363Y1192996D01*
X1238366Y1192992D01*
X1239497Y1192925D01*
X1239501Y1192927D01*
X1239503Y1192925D01*
X1240634Y1192992D01*
G37*
G36*
X72384Y41359D02*
X72384Y41359D01*
X72390Y41365D01*
X72395Y41361D01*
X73625Y41726D01*
X73630Y41733D01*
X73635Y41731D01*
X74754Y42361D01*
X74757Y42368D01*
X74763Y42367D01*
X75713Y43230D01*
X75714Y43238D01*
X75720Y43238D01*
X76454Y44291D01*
X76454Y44299D01*
X76459Y44301D01*
X76941Y45491D01*
X76939Y45496D01*
X76943Y45499D01*
X76942Y45500D01*
X76944Y45501D01*
X77149Y46768D01*
X77146Y46773D01*
X77149Y46776D01*
X77149Y58776D01*
X77146Y58780D01*
X77149Y58783D01*
X76994Y59905D01*
X76989Y59910D01*
X76992Y59914D01*
X76621Y60985D01*
X76615Y60989D01*
X76617Y60994D01*
X76044Y61971D01*
X76038Y61974D01*
X76039Y61979D01*
X75286Y62826D01*
X75279Y62828D01*
X75279Y62833D01*
X74376Y63517D01*
X74369Y63517D01*
X74368Y63522D01*
X73349Y64017D01*
X73342Y64015D01*
X73340Y64020D01*
X72243Y64307D01*
X72237Y64304D01*
X72234Y64308D01*
X71103Y64375D01*
X71097Y64375D01*
X69966Y64308D01*
X69961Y64303D01*
X69957Y64307D01*
X68860Y64020D01*
X68856Y64014D01*
X68851Y64017D01*
X67832Y63522D01*
X67829Y63516D01*
X67824Y63517D01*
X66921Y62833D01*
X66919Y62826D01*
X66914Y62826D01*
X66161Y61979D01*
X66161Y61972D01*
X66156Y61971D01*
X65583Y60994D01*
X65584Y60991D01*
X65583Y60990D01*
X65584Y60989D01*
X65584Y60987D01*
X65579Y60985D01*
X65208Y59914D01*
X65210Y59909D01*
X65207Y59907D01*
X65207Y59906D01*
X65206Y59905D01*
X65051Y58783D01*
X65054Y58778D01*
X65051Y58776D01*
X65051Y46776D01*
X65054Y46771D01*
X65051Y46768D01*
X65256Y45501D01*
X65262Y45495D01*
X65259Y45491D01*
X65741Y44301D01*
X65748Y44297D01*
X65746Y44291D01*
X66480Y43238D01*
X66488Y43236D01*
X66487Y43230D01*
X67437Y42367D01*
X67446Y42366D01*
X67446Y42361D01*
X68565Y41731D01*
X68573Y41732D01*
X68575Y41726D01*
X69805Y41361D01*
X69813Y41364D01*
X69816Y41359D01*
X71097Y41277D01*
X71101Y41280D01*
X71103Y41277D01*
X72384Y41359D01*
G37*
G36*
X1240784Y41359D02*
X1240784Y41359D01*
X1240790Y41365D01*
X1240795Y41361D01*
X1242025Y41726D01*
X1242030Y41733D01*
X1242035Y41731D01*
X1243154Y42361D01*
X1243157Y42368D01*
X1243163Y42367D01*
X1244113Y43230D01*
X1244114Y43238D01*
X1244120Y43238D01*
X1244854Y44291D01*
X1244854Y44299D01*
X1244859Y44301D01*
X1245341Y45491D01*
X1245339Y45496D01*
X1245343Y45499D01*
X1245342Y45500D01*
X1245344Y45501D01*
X1245549Y46768D01*
X1245546Y46773D01*
X1245549Y46776D01*
X1245549Y58776D01*
X1245546Y58780D01*
X1245549Y58783D01*
X1245394Y59905D01*
X1245389Y59910D01*
X1245392Y59914D01*
X1245021Y60985D01*
X1245015Y60989D01*
X1245017Y60994D01*
X1244444Y61971D01*
X1244438Y61974D01*
X1244439Y61979D01*
X1243686Y62826D01*
X1243679Y62828D01*
X1243679Y62833D01*
X1242776Y63517D01*
X1242769Y63517D01*
X1242768Y63522D01*
X1241749Y64017D01*
X1241742Y64015D01*
X1241740Y64020D01*
X1240643Y64307D01*
X1240637Y64304D01*
X1240634Y64308D01*
X1239503Y64375D01*
X1239497Y64375D01*
X1238366Y64308D01*
X1238361Y64303D01*
X1238357Y64307D01*
X1237260Y64020D01*
X1237256Y64014D01*
X1237251Y64017D01*
X1236232Y63522D01*
X1236229Y63516D01*
X1236224Y63517D01*
X1235321Y62833D01*
X1235319Y62826D01*
X1235314Y62826D01*
X1234561Y61979D01*
X1234561Y61972D01*
X1234556Y61971D01*
X1233983Y60994D01*
X1233984Y60991D01*
X1233983Y60990D01*
X1233984Y60989D01*
X1233984Y60987D01*
X1233979Y60985D01*
X1233608Y59914D01*
X1233610Y59909D01*
X1233607Y59907D01*
X1233607Y59906D01*
X1233606Y59905D01*
X1233451Y58783D01*
X1233454Y58778D01*
X1233451Y58776D01*
X1233451Y46776D01*
X1233454Y46771D01*
X1233451Y46768D01*
X1233656Y45501D01*
X1233662Y45495D01*
X1233659Y45491D01*
X1234141Y44301D01*
X1234148Y44297D01*
X1234146Y44291D01*
X1234880Y43238D01*
X1234888Y43236D01*
X1234887Y43230D01*
X1235837Y42367D01*
X1235846Y42366D01*
X1235846Y42361D01*
X1236965Y41731D01*
X1236973Y41732D01*
X1236975Y41726D01*
X1238205Y41361D01*
X1238213Y41364D01*
X1238216Y41359D01*
X1239497Y41277D01*
X1239501Y41280D01*
X1239503Y41277D01*
X1240784Y41359D01*
G37*
G36*
X392464Y41359D02*
X392464Y41359D01*
X392470Y41365D01*
X392475Y41361D01*
X393705Y41726D01*
X393710Y41733D01*
X393715Y41731D01*
X394834Y42361D01*
X394837Y42368D01*
X394843Y42367D01*
X395793Y43230D01*
X395794Y43238D01*
X395800Y43238D01*
X396534Y44291D01*
X396534Y44299D01*
X396539Y44301D01*
X397021Y45491D01*
X397019Y45496D01*
X397023Y45499D01*
X397022Y45500D01*
X397024Y45501D01*
X397229Y46768D01*
X397226Y46773D01*
X397229Y46776D01*
X397229Y58776D01*
X397226Y58780D01*
X397229Y58783D01*
X397074Y59905D01*
X397069Y59910D01*
X397072Y59914D01*
X396701Y60985D01*
X396695Y60989D01*
X396697Y60994D01*
X396124Y61971D01*
X396118Y61974D01*
X396119Y61979D01*
X395366Y62826D01*
X395359Y62828D01*
X395359Y62833D01*
X394456Y63517D01*
X394449Y63517D01*
X394448Y63522D01*
X393429Y64017D01*
X393422Y64015D01*
X393420Y64020D01*
X392323Y64307D01*
X392317Y64304D01*
X392314Y64308D01*
X391183Y64375D01*
X391177Y64375D01*
X390046Y64308D01*
X390041Y64303D01*
X390037Y64307D01*
X388940Y64020D01*
X388936Y64014D01*
X388931Y64017D01*
X387912Y63522D01*
X387909Y63516D01*
X387904Y63517D01*
X387001Y62833D01*
X386999Y62826D01*
X386994Y62826D01*
X386241Y61979D01*
X386241Y61972D01*
X386236Y61971D01*
X385663Y60994D01*
X385664Y60991D01*
X385663Y60990D01*
X385664Y60989D01*
X385664Y60987D01*
X385659Y60985D01*
X385288Y59914D01*
X385290Y59909D01*
X385287Y59907D01*
X385287Y59906D01*
X385286Y59905D01*
X385131Y58783D01*
X385134Y58778D01*
X385131Y58776D01*
X385131Y46776D01*
X385134Y46771D01*
X385131Y46768D01*
X385336Y45501D01*
X385342Y45495D01*
X385339Y45491D01*
X385821Y44301D01*
X385828Y44297D01*
X385826Y44291D01*
X386560Y43238D01*
X386568Y43236D01*
X386567Y43230D01*
X387517Y42367D01*
X387526Y42366D01*
X387526Y42361D01*
X388645Y41731D01*
X388653Y41732D01*
X388655Y41726D01*
X389885Y41361D01*
X389893Y41364D01*
X389896Y41359D01*
X391177Y41277D01*
X391181Y41280D01*
X391183Y41277D01*
X392464Y41359D01*
G37*
G36*
X1474464Y41359D02*
X1474464Y41359D01*
X1474470Y41365D01*
X1474475Y41361D01*
X1475705Y41726D01*
X1475710Y41733D01*
X1475715Y41731D01*
X1476834Y42361D01*
X1476837Y42368D01*
X1476843Y42367D01*
X1477793Y43230D01*
X1477794Y43238D01*
X1477800Y43238D01*
X1478534Y44291D01*
X1478534Y44299D01*
X1478539Y44301D01*
X1479021Y45491D01*
X1479019Y45496D01*
X1479023Y45499D01*
X1479022Y45500D01*
X1479024Y45501D01*
X1479229Y46768D01*
X1479226Y46773D01*
X1479229Y46776D01*
X1479229Y58776D01*
X1479226Y58780D01*
X1479229Y58783D01*
X1479074Y59905D01*
X1479069Y59910D01*
X1479072Y59914D01*
X1478701Y60985D01*
X1478695Y60989D01*
X1478697Y60994D01*
X1478124Y61971D01*
X1478118Y61974D01*
X1478119Y61979D01*
X1477366Y62826D01*
X1477359Y62828D01*
X1477359Y62833D01*
X1476456Y63517D01*
X1476449Y63517D01*
X1476448Y63522D01*
X1475429Y64017D01*
X1475422Y64015D01*
X1475420Y64020D01*
X1474323Y64307D01*
X1474317Y64304D01*
X1474314Y64308D01*
X1473183Y64375D01*
X1473177Y64375D01*
X1472046Y64308D01*
X1472041Y64303D01*
X1472037Y64307D01*
X1470940Y64020D01*
X1470936Y64014D01*
X1470931Y64017D01*
X1469912Y63522D01*
X1469909Y63516D01*
X1469904Y63517D01*
X1469001Y62833D01*
X1468999Y62826D01*
X1468994Y62826D01*
X1468241Y61979D01*
X1468241Y61972D01*
X1468236Y61971D01*
X1467663Y60994D01*
X1467664Y60991D01*
X1467663Y60990D01*
X1467664Y60989D01*
X1467664Y60987D01*
X1467659Y60985D01*
X1467288Y59914D01*
X1467290Y59909D01*
X1467287Y59907D01*
X1467287Y59906D01*
X1467286Y59905D01*
X1467131Y58783D01*
X1467134Y58778D01*
X1467131Y58776D01*
X1467131Y46776D01*
X1467134Y46771D01*
X1467131Y46768D01*
X1467336Y45501D01*
X1467342Y45495D01*
X1467339Y45491D01*
X1467821Y44301D01*
X1467828Y44297D01*
X1467826Y44291D01*
X1468560Y43238D01*
X1468568Y43236D01*
X1468567Y43230D01*
X1469517Y42367D01*
X1469526Y42366D01*
X1469526Y42361D01*
X1470645Y41731D01*
X1470653Y41732D01*
X1470655Y41726D01*
X1471885Y41361D01*
X1471893Y41364D01*
X1471896Y41359D01*
X1473177Y41277D01*
X1473181Y41280D01*
X1473183Y41277D01*
X1474464Y41359D01*
G37*
G36*
X773424Y41359D02*
X773424Y41359D01*
X773430Y41365D01*
X773435Y41361D01*
X774665Y41726D01*
X774670Y41733D01*
X774675Y41731D01*
X775794Y42361D01*
X775797Y42368D01*
X775803Y42367D01*
X776753Y43230D01*
X776754Y43238D01*
X776760Y43238D01*
X777494Y44291D01*
X777494Y44299D01*
X777499Y44301D01*
X777981Y45491D01*
X777979Y45496D01*
X777983Y45499D01*
X777982Y45500D01*
X777984Y45501D01*
X778189Y46768D01*
X778186Y46773D01*
X778189Y46776D01*
X778189Y58776D01*
X778186Y58780D01*
X778189Y58783D01*
X778034Y59905D01*
X778029Y59910D01*
X778032Y59914D01*
X777661Y60985D01*
X777655Y60989D01*
X777657Y60994D01*
X777084Y61971D01*
X777078Y61974D01*
X777079Y61979D01*
X776326Y62826D01*
X776319Y62828D01*
X776319Y62833D01*
X775416Y63517D01*
X775409Y63517D01*
X775408Y63522D01*
X774389Y64017D01*
X774382Y64015D01*
X774380Y64020D01*
X773283Y64307D01*
X773277Y64304D01*
X773274Y64308D01*
X772143Y64375D01*
X772137Y64375D01*
X771006Y64308D01*
X771001Y64303D01*
X770997Y64307D01*
X769900Y64020D01*
X769896Y64014D01*
X769891Y64017D01*
X768872Y63522D01*
X768869Y63516D01*
X768864Y63517D01*
X767961Y62833D01*
X767959Y62826D01*
X767954Y62826D01*
X767201Y61979D01*
X767201Y61972D01*
X767196Y61971D01*
X766623Y60994D01*
X766624Y60991D01*
X766623Y60990D01*
X766624Y60989D01*
X766624Y60987D01*
X766619Y60985D01*
X766248Y59914D01*
X766250Y59909D01*
X766247Y59907D01*
X766247Y59906D01*
X766246Y59905D01*
X766091Y58783D01*
X766094Y58778D01*
X766091Y58776D01*
X766091Y46776D01*
X766094Y46771D01*
X766091Y46768D01*
X766296Y45501D01*
X766302Y45495D01*
X766299Y45491D01*
X766781Y44301D01*
X766788Y44297D01*
X766786Y44291D01*
X767520Y43238D01*
X767528Y43236D01*
X767527Y43230D01*
X768477Y42367D01*
X768486Y42366D01*
X768486Y42361D01*
X769605Y41731D01*
X769613Y41732D01*
X769615Y41726D01*
X770845Y41361D01*
X770853Y41364D01*
X770856Y41359D01*
X772137Y41277D01*
X772141Y41280D01*
X772143Y41277D01*
X773424Y41359D01*
G37*
G36*
X1007104Y41359D02*
X1007104Y41359D01*
X1007110Y41365D01*
X1007115Y41361D01*
X1008345Y41726D01*
X1008350Y41733D01*
X1008355Y41731D01*
X1009474Y42361D01*
X1009477Y42368D01*
X1009483Y42367D01*
X1010433Y43230D01*
X1010434Y43238D01*
X1010440Y43238D01*
X1011174Y44291D01*
X1011174Y44299D01*
X1011179Y44301D01*
X1011661Y45491D01*
X1011659Y45496D01*
X1011663Y45499D01*
X1011662Y45500D01*
X1011664Y45501D01*
X1011869Y46768D01*
X1011866Y46773D01*
X1011869Y46776D01*
X1011869Y58776D01*
X1011866Y58780D01*
X1011869Y58783D01*
X1011714Y59905D01*
X1011709Y59910D01*
X1011712Y59914D01*
X1011341Y60985D01*
X1011335Y60989D01*
X1011337Y60994D01*
X1010764Y61971D01*
X1010758Y61974D01*
X1010759Y61979D01*
X1010006Y62826D01*
X1009999Y62828D01*
X1009999Y62833D01*
X1009096Y63517D01*
X1009089Y63517D01*
X1009088Y63522D01*
X1008069Y64017D01*
X1008062Y64015D01*
X1008060Y64020D01*
X1006963Y64307D01*
X1006957Y64304D01*
X1006954Y64308D01*
X1005823Y64375D01*
X1005817Y64375D01*
X1004686Y64308D01*
X1004681Y64303D01*
X1004677Y64307D01*
X1003580Y64020D01*
X1003576Y64014D01*
X1003571Y64017D01*
X1002552Y63522D01*
X1002549Y63516D01*
X1002544Y63517D01*
X1001641Y62833D01*
X1001639Y62826D01*
X1001634Y62826D01*
X1000881Y61979D01*
X1000881Y61972D01*
X1000876Y61971D01*
X1000303Y60994D01*
X1000304Y60991D01*
X1000303Y60990D01*
X1000304Y60989D01*
X1000304Y60987D01*
X1000299Y60985D01*
X999928Y59914D01*
X999930Y59909D01*
X999927Y59907D01*
X999927Y59906D01*
X999926Y59905D01*
X999771Y58783D01*
X999774Y58778D01*
X999771Y58776D01*
X999771Y46776D01*
X999774Y46771D01*
X999771Y46768D01*
X999976Y45501D01*
X999982Y45495D01*
X999979Y45491D01*
X1000461Y44301D01*
X1000468Y44297D01*
X1000466Y44291D01*
X1001200Y43238D01*
X1001208Y43236D01*
X1001207Y43230D01*
X1002157Y42367D01*
X1002166Y42366D01*
X1002166Y42361D01*
X1003285Y41731D01*
X1003293Y41732D01*
X1003295Y41726D01*
X1004525Y41361D01*
X1004533Y41364D01*
X1004536Y41359D01*
X1005817Y41277D01*
X1005821Y41280D01*
X1005823Y41277D01*
X1007104Y41359D01*
G37*
G36*
X306064Y41359D02*
X306064Y41359D01*
X306070Y41365D01*
X306075Y41361D01*
X307305Y41726D01*
X307310Y41733D01*
X307315Y41731D01*
X308434Y42361D01*
X308437Y42368D01*
X308443Y42367D01*
X309393Y43230D01*
X309394Y43238D01*
X309400Y43238D01*
X310134Y44291D01*
X310134Y44299D01*
X310139Y44301D01*
X310621Y45491D01*
X310619Y45496D01*
X310623Y45499D01*
X310622Y45500D01*
X310624Y45501D01*
X310829Y46768D01*
X310826Y46773D01*
X310829Y46776D01*
X310829Y58776D01*
X310826Y58780D01*
X310829Y58783D01*
X310674Y59905D01*
X310669Y59910D01*
X310672Y59914D01*
X310301Y60985D01*
X310295Y60989D01*
X310297Y60994D01*
X309724Y61971D01*
X309718Y61974D01*
X309719Y61979D01*
X308966Y62826D01*
X308959Y62828D01*
X308959Y62833D01*
X308056Y63517D01*
X308049Y63517D01*
X308048Y63522D01*
X307029Y64017D01*
X307022Y64015D01*
X307020Y64020D01*
X305923Y64307D01*
X305917Y64304D01*
X305914Y64308D01*
X304783Y64375D01*
X304777Y64375D01*
X303646Y64308D01*
X303641Y64303D01*
X303637Y64307D01*
X302540Y64020D01*
X302536Y64014D01*
X302531Y64017D01*
X301512Y63522D01*
X301509Y63516D01*
X301504Y63517D01*
X300601Y62833D01*
X300599Y62826D01*
X300594Y62826D01*
X299841Y61979D01*
X299841Y61972D01*
X299836Y61971D01*
X299263Y60994D01*
X299264Y60991D01*
X299263Y60990D01*
X299264Y60989D01*
X299264Y60987D01*
X299259Y60985D01*
X298888Y59914D01*
X298890Y59909D01*
X298887Y59907D01*
X298887Y59906D01*
X298886Y59905D01*
X298731Y58783D01*
X298734Y58778D01*
X298731Y58776D01*
X298731Y46776D01*
X298734Y46771D01*
X298731Y46768D01*
X298936Y45501D01*
X298942Y45495D01*
X298939Y45491D01*
X299421Y44301D01*
X299428Y44297D01*
X299426Y44291D01*
X300160Y43238D01*
X300168Y43236D01*
X300167Y43230D01*
X301117Y42367D01*
X301126Y42366D01*
X301126Y42361D01*
X302245Y41731D01*
X302253Y41732D01*
X302255Y41726D01*
X303485Y41361D01*
X303493Y41364D01*
X303496Y41359D01*
X304777Y41277D01*
X304781Y41280D01*
X304783Y41277D01*
X306064Y41359D01*
G37*
G36*
X158784Y41359D02*
X158784Y41359D01*
X158790Y41365D01*
X158795Y41361D01*
X160025Y41726D01*
X160030Y41733D01*
X160035Y41731D01*
X161154Y42361D01*
X161157Y42368D01*
X161163Y42367D01*
X162113Y43230D01*
X162114Y43238D01*
X162120Y43238D01*
X162854Y44291D01*
X162854Y44299D01*
X162859Y44301D01*
X163341Y45491D01*
X163339Y45496D01*
X163343Y45499D01*
X163342Y45500D01*
X163344Y45501D01*
X163549Y46768D01*
X163546Y46773D01*
X163549Y46776D01*
X163549Y58776D01*
X163546Y58780D01*
X163549Y58783D01*
X163394Y59905D01*
X163389Y59910D01*
X163392Y59914D01*
X163021Y60985D01*
X163015Y60989D01*
X163017Y60994D01*
X162444Y61971D01*
X162438Y61974D01*
X162439Y61979D01*
X161686Y62826D01*
X161679Y62828D01*
X161679Y62833D01*
X160776Y63517D01*
X160769Y63517D01*
X160768Y63522D01*
X159749Y64017D01*
X159742Y64015D01*
X159740Y64020D01*
X158643Y64307D01*
X158637Y64304D01*
X158634Y64308D01*
X157503Y64375D01*
X157497Y64375D01*
X156366Y64308D01*
X156361Y64303D01*
X156357Y64307D01*
X155260Y64020D01*
X155256Y64014D01*
X155251Y64017D01*
X154232Y63522D01*
X154229Y63516D01*
X154224Y63517D01*
X153321Y62833D01*
X153319Y62826D01*
X153314Y62826D01*
X152561Y61979D01*
X152561Y61972D01*
X152556Y61971D01*
X151983Y60994D01*
X151984Y60991D01*
X151983Y60990D01*
X151984Y60989D01*
X151984Y60987D01*
X151979Y60985D01*
X151608Y59914D01*
X151610Y59909D01*
X151607Y59907D01*
X151607Y59906D01*
X151606Y59905D01*
X151451Y58783D01*
X151454Y58778D01*
X151451Y58776D01*
X151451Y46776D01*
X151454Y46771D01*
X151451Y46768D01*
X151656Y45501D01*
X151662Y45495D01*
X151659Y45491D01*
X152141Y44301D01*
X152148Y44297D01*
X152146Y44291D01*
X152880Y43238D01*
X152888Y43236D01*
X152887Y43230D01*
X153837Y42367D01*
X153846Y42366D01*
X153846Y42361D01*
X154965Y41731D01*
X154973Y41732D01*
X154975Y41726D01*
X156205Y41361D01*
X156213Y41364D01*
X156216Y41359D01*
X157497Y41277D01*
X157501Y41280D01*
X157503Y41277D01*
X158784Y41359D01*
G37*
G36*
X539744Y41359D02*
X539744Y41359D01*
X539750Y41365D01*
X539755Y41361D01*
X540985Y41726D01*
X540990Y41733D01*
X540995Y41731D01*
X542114Y42361D01*
X542117Y42368D01*
X542123Y42367D01*
X543073Y43230D01*
X543074Y43238D01*
X543080Y43238D01*
X543814Y44291D01*
X543814Y44299D01*
X543819Y44301D01*
X544301Y45491D01*
X544299Y45496D01*
X544303Y45499D01*
X544302Y45500D01*
X544304Y45501D01*
X544509Y46768D01*
X544506Y46773D01*
X544509Y46776D01*
X544509Y58776D01*
X544506Y58780D01*
X544509Y58783D01*
X544354Y59905D01*
X544349Y59910D01*
X544352Y59914D01*
X543981Y60985D01*
X543975Y60989D01*
X543977Y60994D01*
X543404Y61971D01*
X543398Y61974D01*
X543399Y61979D01*
X542646Y62826D01*
X542639Y62828D01*
X542639Y62833D01*
X541736Y63517D01*
X541729Y63517D01*
X541728Y63522D01*
X540709Y64017D01*
X540702Y64015D01*
X540700Y64020D01*
X539603Y64307D01*
X539597Y64304D01*
X539594Y64308D01*
X538463Y64375D01*
X538457Y64375D01*
X537326Y64308D01*
X537321Y64303D01*
X537317Y64307D01*
X536220Y64020D01*
X536216Y64014D01*
X536211Y64017D01*
X535192Y63522D01*
X535189Y63516D01*
X535184Y63517D01*
X534281Y62833D01*
X534279Y62826D01*
X534274Y62826D01*
X533521Y61979D01*
X533521Y61972D01*
X533516Y61971D01*
X532943Y60994D01*
X532944Y60991D01*
X532943Y60990D01*
X532944Y60989D01*
X532944Y60987D01*
X532939Y60985D01*
X532568Y59914D01*
X532570Y59909D01*
X532567Y59907D01*
X532567Y59906D01*
X532566Y59905D01*
X532411Y58783D01*
X532414Y58778D01*
X532411Y58776D01*
X532411Y46776D01*
X532414Y46771D01*
X532411Y46768D01*
X532616Y45501D01*
X532622Y45495D01*
X532619Y45491D01*
X533101Y44301D01*
X533108Y44297D01*
X533106Y44291D01*
X533840Y43238D01*
X533848Y43236D01*
X533847Y43230D01*
X534797Y42367D01*
X534806Y42366D01*
X534806Y42361D01*
X535925Y41731D01*
X535933Y41732D01*
X535935Y41726D01*
X537165Y41361D01*
X537173Y41364D01*
X537176Y41359D01*
X538457Y41277D01*
X538461Y41280D01*
X538463Y41277D01*
X539744Y41359D01*
G37*
G36*
X1327184Y41359D02*
X1327184Y41359D01*
X1327190Y41365D01*
X1327195Y41361D01*
X1328425Y41726D01*
X1328430Y41733D01*
X1328435Y41731D01*
X1329554Y42361D01*
X1329557Y42368D01*
X1329563Y42367D01*
X1330513Y43230D01*
X1330514Y43238D01*
X1330520Y43238D01*
X1331254Y44291D01*
X1331254Y44299D01*
X1331259Y44301D01*
X1331741Y45491D01*
X1331739Y45496D01*
X1331743Y45499D01*
X1331742Y45500D01*
X1331744Y45501D01*
X1331949Y46768D01*
X1331946Y46773D01*
X1331949Y46776D01*
X1331949Y58776D01*
X1331946Y58780D01*
X1331949Y58783D01*
X1331794Y59905D01*
X1331789Y59910D01*
X1331792Y59914D01*
X1331421Y60985D01*
X1331415Y60989D01*
X1331417Y60994D01*
X1330844Y61971D01*
X1330838Y61974D01*
X1330839Y61979D01*
X1330086Y62826D01*
X1330079Y62828D01*
X1330079Y62833D01*
X1329176Y63517D01*
X1329169Y63517D01*
X1329168Y63522D01*
X1328149Y64017D01*
X1328142Y64015D01*
X1328140Y64020D01*
X1327043Y64307D01*
X1327037Y64304D01*
X1327034Y64308D01*
X1325903Y64375D01*
X1325897Y64375D01*
X1324766Y64308D01*
X1324761Y64303D01*
X1324757Y64307D01*
X1323660Y64020D01*
X1323656Y64014D01*
X1323651Y64017D01*
X1322632Y63522D01*
X1322629Y63516D01*
X1322624Y63517D01*
X1321721Y62833D01*
X1321719Y62826D01*
X1321714Y62826D01*
X1320961Y61979D01*
X1320961Y61972D01*
X1320956Y61971D01*
X1320383Y60994D01*
X1320384Y60991D01*
X1320383Y60990D01*
X1320384Y60989D01*
X1320384Y60987D01*
X1320379Y60985D01*
X1320008Y59914D01*
X1320010Y59909D01*
X1320007Y59907D01*
X1320007Y59906D01*
X1320006Y59905D01*
X1319851Y58783D01*
X1319854Y58778D01*
X1319851Y58776D01*
X1319851Y46776D01*
X1319854Y46771D01*
X1319851Y46768D01*
X1320056Y45501D01*
X1320062Y45495D01*
X1320059Y45491D01*
X1320541Y44301D01*
X1320548Y44297D01*
X1320546Y44291D01*
X1321280Y43238D01*
X1321288Y43236D01*
X1321287Y43230D01*
X1322237Y42367D01*
X1322246Y42366D01*
X1322246Y42361D01*
X1323365Y41731D01*
X1323373Y41732D01*
X1323375Y41726D01*
X1324605Y41361D01*
X1324613Y41364D01*
X1324616Y41359D01*
X1325897Y41277D01*
X1325901Y41280D01*
X1325903Y41277D01*
X1327184Y41359D01*
G37*
G36*
X626144Y41359D02*
X626144Y41359D01*
X626150Y41365D01*
X626155Y41361D01*
X627385Y41726D01*
X627390Y41733D01*
X627395Y41731D01*
X628514Y42361D01*
X628517Y42368D01*
X628523Y42367D01*
X629473Y43230D01*
X629474Y43238D01*
X629480Y43238D01*
X630214Y44291D01*
X630214Y44299D01*
X630219Y44301D01*
X630701Y45491D01*
X630699Y45496D01*
X630703Y45499D01*
X630702Y45500D01*
X630704Y45501D01*
X630909Y46768D01*
X630906Y46773D01*
X630909Y46776D01*
X630909Y58776D01*
X630906Y58780D01*
X630909Y58783D01*
X630754Y59905D01*
X630749Y59910D01*
X630752Y59914D01*
X630381Y60985D01*
X630375Y60989D01*
X630377Y60994D01*
X629804Y61971D01*
X629798Y61974D01*
X629799Y61979D01*
X629046Y62826D01*
X629039Y62828D01*
X629039Y62833D01*
X628136Y63517D01*
X628129Y63517D01*
X628128Y63522D01*
X627109Y64017D01*
X627102Y64015D01*
X627100Y64020D01*
X626003Y64307D01*
X625997Y64304D01*
X625994Y64308D01*
X624863Y64375D01*
X624857Y64375D01*
X623726Y64308D01*
X623721Y64303D01*
X623717Y64307D01*
X622620Y64020D01*
X622616Y64014D01*
X622611Y64017D01*
X621592Y63522D01*
X621589Y63516D01*
X621584Y63517D01*
X620681Y62833D01*
X620679Y62826D01*
X620674Y62826D01*
X619921Y61979D01*
X619921Y61972D01*
X619916Y61971D01*
X619343Y60994D01*
X619344Y60991D01*
X619343Y60990D01*
X619344Y60989D01*
X619344Y60987D01*
X619339Y60985D01*
X618968Y59914D01*
X618970Y59909D01*
X618967Y59907D01*
X618967Y59906D01*
X618966Y59905D01*
X618811Y58783D01*
X618814Y58778D01*
X618811Y58776D01*
X618811Y46776D01*
X618814Y46771D01*
X618811Y46768D01*
X619016Y45501D01*
X619022Y45495D01*
X619019Y45491D01*
X619501Y44301D01*
X619508Y44297D01*
X619506Y44291D01*
X620240Y43238D01*
X620248Y43236D01*
X620247Y43230D01*
X621197Y42367D01*
X621206Y42366D01*
X621206Y42361D01*
X622325Y41731D01*
X622333Y41732D01*
X622335Y41726D01*
X623565Y41361D01*
X623573Y41364D01*
X623576Y41359D01*
X624857Y41277D01*
X624861Y41280D01*
X624863Y41277D01*
X626144Y41359D01*
G37*
G36*
X1093504Y41359D02*
X1093504Y41359D01*
X1093510Y41365D01*
X1093515Y41361D01*
X1094745Y41726D01*
X1094750Y41733D01*
X1094755Y41731D01*
X1095874Y42361D01*
X1095877Y42368D01*
X1095883Y42367D01*
X1096833Y43230D01*
X1096834Y43238D01*
X1096840Y43238D01*
X1097574Y44291D01*
X1097574Y44299D01*
X1097579Y44301D01*
X1098061Y45491D01*
X1098059Y45496D01*
X1098063Y45499D01*
X1098062Y45500D01*
X1098064Y45501D01*
X1098269Y46768D01*
X1098266Y46773D01*
X1098269Y46776D01*
X1098269Y58776D01*
X1098266Y58780D01*
X1098269Y58783D01*
X1098114Y59905D01*
X1098109Y59910D01*
X1098112Y59914D01*
X1097741Y60985D01*
X1097735Y60989D01*
X1097737Y60994D01*
X1097164Y61971D01*
X1097158Y61974D01*
X1097159Y61979D01*
X1096406Y62826D01*
X1096399Y62828D01*
X1096399Y62833D01*
X1095496Y63517D01*
X1095489Y63517D01*
X1095488Y63522D01*
X1094469Y64017D01*
X1094462Y64015D01*
X1094460Y64020D01*
X1093363Y64307D01*
X1093357Y64304D01*
X1093354Y64308D01*
X1092223Y64375D01*
X1092217Y64375D01*
X1091086Y64308D01*
X1091081Y64303D01*
X1091077Y64307D01*
X1089980Y64020D01*
X1089976Y64014D01*
X1089971Y64017D01*
X1088952Y63522D01*
X1088949Y63516D01*
X1088944Y63517D01*
X1088041Y62833D01*
X1088039Y62826D01*
X1088034Y62826D01*
X1087281Y61979D01*
X1087281Y61972D01*
X1087276Y61971D01*
X1086703Y60994D01*
X1086704Y60991D01*
X1086703Y60990D01*
X1086704Y60989D01*
X1086704Y60987D01*
X1086699Y60985D01*
X1086328Y59914D01*
X1086330Y59909D01*
X1086327Y59907D01*
X1086327Y59906D01*
X1086326Y59905D01*
X1086171Y58783D01*
X1086174Y58778D01*
X1086171Y58776D01*
X1086171Y46776D01*
X1086174Y46771D01*
X1086171Y46768D01*
X1086376Y45501D01*
X1086382Y45495D01*
X1086379Y45491D01*
X1086861Y44301D01*
X1086868Y44297D01*
X1086866Y44291D01*
X1087600Y43238D01*
X1087608Y43236D01*
X1087607Y43230D01*
X1088557Y42367D01*
X1088566Y42366D01*
X1088566Y42361D01*
X1089685Y41731D01*
X1089693Y41732D01*
X1089695Y41726D01*
X1090925Y41361D01*
X1090933Y41364D01*
X1090936Y41359D01*
X1092217Y41277D01*
X1092221Y41280D01*
X1092223Y41277D01*
X1093504Y41359D01*
G37*
G36*
X1560864Y41359D02*
X1560864Y41359D01*
X1560870Y41365D01*
X1560875Y41361D01*
X1562105Y41726D01*
X1562110Y41733D01*
X1562115Y41731D01*
X1563234Y42361D01*
X1563237Y42368D01*
X1563243Y42367D01*
X1564193Y43230D01*
X1564194Y43238D01*
X1564200Y43238D01*
X1564934Y44291D01*
X1564934Y44299D01*
X1564939Y44301D01*
X1565421Y45491D01*
X1565419Y45496D01*
X1565423Y45499D01*
X1565422Y45500D01*
X1565424Y45501D01*
X1565629Y46768D01*
X1565626Y46773D01*
X1565629Y46776D01*
X1565629Y58776D01*
X1565626Y58780D01*
X1565629Y58783D01*
X1565474Y59905D01*
X1565469Y59910D01*
X1565472Y59914D01*
X1565101Y60985D01*
X1565095Y60989D01*
X1565097Y60994D01*
X1564524Y61971D01*
X1564518Y61974D01*
X1564519Y61979D01*
X1563766Y62826D01*
X1563759Y62828D01*
X1563759Y62833D01*
X1562856Y63517D01*
X1562849Y63517D01*
X1562848Y63522D01*
X1561829Y64017D01*
X1561822Y64015D01*
X1561820Y64020D01*
X1560723Y64307D01*
X1560717Y64304D01*
X1560714Y64308D01*
X1559583Y64375D01*
X1559577Y64375D01*
X1558446Y64308D01*
X1558441Y64303D01*
X1558437Y64307D01*
X1557340Y64020D01*
X1557336Y64014D01*
X1557331Y64017D01*
X1556312Y63522D01*
X1556309Y63516D01*
X1556304Y63517D01*
X1555401Y62833D01*
X1555399Y62826D01*
X1555394Y62826D01*
X1554641Y61979D01*
X1554641Y61972D01*
X1554636Y61971D01*
X1554063Y60994D01*
X1554064Y60991D01*
X1554063Y60990D01*
X1554064Y60989D01*
X1554064Y60987D01*
X1554059Y60985D01*
X1553688Y59914D01*
X1553690Y59909D01*
X1553687Y59907D01*
X1553687Y59906D01*
X1553686Y59905D01*
X1553531Y58783D01*
X1553534Y58778D01*
X1553531Y58776D01*
X1553531Y46776D01*
X1553534Y46771D01*
X1553531Y46768D01*
X1553736Y45501D01*
X1553742Y45495D01*
X1553739Y45491D01*
X1554221Y44301D01*
X1554228Y44297D01*
X1554226Y44291D01*
X1554960Y43238D01*
X1554968Y43236D01*
X1554967Y43230D01*
X1555917Y42367D01*
X1555926Y42366D01*
X1555926Y42361D01*
X1557045Y41731D01*
X1557053Y41732D01*
X1557055Y41726D01*
X1558285Y41361D01*
X1558293Y41364D01*
X1558296Y41359D01*
X1559577Y41277D01*
X1559581Y41280D01*
X1559583Y41277D01*
X1560864Y41359D01*
G37*
G36*
X859824Y41359D02*
X859824Y41359D01*
X859830Y41365D01*
X859835Y41361D01*
X861065Y41726D01*
X861070Y41733D01*
X861075Y41731D01*
X862194Y42361D01*
X862197Y42368D01*
X862203Y42367D01*
X863153Y43230D01*
X863154Y43238D01*
X863160Y43238D01*
X863894Y44291D01*
X863894Y44299D01*
X863899Y44301D01*
X864381Y45491D01*
X864379Y45496D01*
X864383Y45499D01*
X864382Y45500D01*
X864384Y45501D01*
X864589Y46768D01*
X864586Y46773D01*
X864589Y46776D01*
X864589Y58776D01*
X864586Y58780D01*
X864589Y58783D01*
X864434Y59905D01*
X864429Y59910D01*
X864432Y59914D01*
X864061Y60985D01*
X864055Y60989D01*
X864057Y60994D01*
X863484Y61971D01*
X863478Y61974D01*
X863479Y61979D01*
X862726Y62826D01*
X862719Y62828D01*
X862719Y62833D01*
X861816Y63517D01*
X861809Y63517D01*
X861808Y63522D01*
X860789Y64017D01*
X860782Y64015D01*
X860780Y64020D01*
X859683Y64307D01*
X859677Y64304D01*
X859674Y64308D01*
X858543Y64375D01*
X858537Y64375D01*
X857406Y64308D01*
X857401Y64303D01*
X857397Y64307D01*
X856300Y64020D01*
X856296Y64014D01*
X856291Y64017D01*
X855272Y63522D01*
X855269Y63516D01*
X855264Y63517D01*
X854361Y62833D01*
X854359Y62826D01*
X854354Y62826D01*
X853601Y61979D01*
X853601Y61972D01*
X853596Y61971D01*
X853023Y60994D01*
X853024Y60991D01*
X853023Y60990D01*
X853024Y60989D01*
X853024Y60987D01*
X853019Y60985D01*
X852648Y59914D01*
X852650Y59909D01*
X852647Y59907D01*
X852647Y59906D01*
X852646Y59905D01*
X852491Y58783D01*
X852494Y58778D01*
X852491Y58776D01*
X852491Y46776D01*
X852494Y46771D01*
X852491Y46768D01*
X852696Y45501D01*
X852702Y45495D01*
X852699Y45491D01*
X853181Y44301D01*
X853188Y44297D01*
X853186Y44291D01*
X853920Y43238D01*
X853928Y43236D01*
X853927Y43230D01*
X854877Y42367D01*
X854886Y42366D01*
X854886Y42361D01*
X856005Y41731D01*
X856013Y41732D01*
X856015Y41726D01*
X857245Y41361D01*
X857253Y41364D01*
X857256Y41359D01*
X858537Y41277D01*
X858541Y41280D01*
X858543Y41277D01*
X859824Y41359D01*
G37*
G36*
X626031Y2087D02*
X626031Y2087D01*
X626036Y2092D01*
X626040Y2089D01*
X627163Y2424D01*
X627167Y2430D01*
X627171Y2428D01*
X628207Y2976D01*
X628210Y2982D01*
X628215Y2981D01*
X629123Y3720D01*
X629125Y3727D01*
X629130Y3727D01*
X629877Y4629D01*
X629877Y4637D01*
X629883Y4637D01*
X630439Y5668D01*
X630438Y5675D01*
X630443Y5677D01*
X630787Y6796D01*
X630785Y6803D01*
X630789Y6806D01*
X630909Y7971D01*
X630907Y7974D01*
X630909Y7976D01*
X630909Y13976D01*
X630907Y13979D01*
X630909Y13981D01*
X630798Y15157D01*
X630793Y15162D01*
X630796Y15166D01*
X630458Y16298D01*
X630452Y16302D01*
X630454Y16307D01*
X629902Y17351D01*
X629895Y17354D01*
X629897Y17359D01*
X629151Y18275D01*
X629144Y18276D01*
X629144Y18282D01*
X628235Y19035D01*
X628227Y19035D01*
X628227Y19040D01*
X627187Y19601D01*
X627180Y19600D01*
X627178Y19605D01*
X626049Y19952D01*
X626043Y19950D01*
X626040Y19954D01*
X624865Y20075D01*
X624858Y20071D01*
X624854Y20075D01*
X623514Y19918D01*
X623508Y19913D01*
X623503Y19916D01*
X622232Y19465D01*
X622227Y19458D01*
X622222Y19460D01*
X621083Y18738D01*
X621080Y18730D01*
X621074Y18731D01*
X620124Y17773D01*
X620123Y17765D01*
X620117Y17764D01*
X619404Y16619D01*
X619405Y16611D01*
X619399Y16609D01*
X618959Y15333D01*
X618961Y15326D01*
X618957Y15323D01*
X618811Y13981D01*
X618813Y13978D01*
X618811Y13976D01*
X618811Y7976D01*
X618813Y7973D01*
X618811Y7970D01*
X618966Y6641D01*
X618972Y6635D01*
X618969Y6631D01*
X619416Y5370D01*
X619423Y5365D01*
X619421Y5360D01*
X620138Y4230D01*
X620145Y4227D01*
X620144Y4221D01*
X621095Y3279D01*
X621103Y3278D01*
X621103Y3272D01*
X622239Y2565D01*
X622247Y2566D01*
X622249Y2560D01*
X623514Y2124D01*
X623519Y2125D01*
X623520Y2125D01*
X623523Y2125D01*
X623525Y2121D01*
X624855Y1977D01*
X624861Y1981D01*
X624865Y1977D01*
X626031Y2087D01*
G37*
G36*
X1240671Y2087D02*
X1240671Y2087D01*
X1240676Y2092D01*
X1240680Y2089D01*
X1241803Y2424D01*
X1241807Y2430D01*
X1241811Y2428D01*
X1242847Y2976D01*
X1242850Y2982D01*
X1242855Y2981D01*
X1243763Y3720D01*
X1243765Y3727D01*
X1243770Y3727D01*
X1244517Y4629D01*
X1244517Y4637D01*
X1244523Y4637D01*
X1245079Y5668D01*
X1245078Y5675D01*
X1245083Y5677D01*
X1245427Y6796D01*
X1245425Y6803D01*
X1245429Y6806D01*
X1245549Y7971D01*
X1245547Y7974D01*
X1245549Y7976D01*
X1245549Y13976D01*
X1245547Y13979D01*
X1245549Y13981D01*
X1245438Y15157D01*
X1245433Y15162D01*
X1245436Y15166D01*
X1245098Y16298D01*
X1245092Y16302D01*
X1245094Y16307D01*
X1244542Y17351D01*
X1244535Y17354D01*
X1244537Y17359D01*
X1243791Y18275D01*
X1243784Y18276D01*
X1243784Y18282D01*
X1242875Y19035D01*
X1242867Y19035D01*
X1242867Y19040D01*
X1241827Y19601D01*
X1241820Y19600D01*
X1241818Y19605D01*
X1240689Y19952D01*
X1240683Y19950D01*
X1240680Y19954D01*
X1239505Y20075D01*
X1239498Y20071D01*
X1239494Y20075D01*
X1238154Y19918D01*
X1238148Y19913D01*
X1238143Y19916D01*
X1236872Y19465D01*
X1236867Y19458D01*
X1236862Y19460D01*
X1235723Y18738D01*
X1235720Y18730D01*
X1235714Y18731D01*
X1234764Y17773D01*
X1234763Y17765D01*
X1234757Y17764D01*
X1234044Y16619D01*
X1234045Y16611D01*
X1234039Y16609D01*
X1233599Y15333D01*
X1233601Y15326D01*
X1233597Y15323D01*
X1233451Y13981D01*
X1233453Y13978D01*
X1233451Y13976D01*
X1233451Y7976D01*
X1233453Y7973D01*
X1233451Y7970D01*
X1233606Y6641D01*
X1233612Y6635D01*
X1233609Y6631D01*
X1234056Y5370D01*
X1234063Y5365D01*
X1234061Y5360D01*
X1234778Y4230D01*
X1234785Y4227D01*
X1234784Y4221D01*
X1235735Y3279D01*
X1235743Y3278D01*
X1235743Y3272D01*
X1236879Y2565D01*
X1236887Y2566D01*
X1236889Y2560D01*
X1238154Y2124D01*
X1238159Y2125D01*
X1238160Y2125D01*
X1238163Y2125D01*
X1238165Y2121D01*
X1239495Y1977D01*
X1239501Y1981D01*
X1239505Y1977D01*
X1240671Y2087D01*
G37*
G36*
X1560751Y2087D02*
X1560751Y2087D01*
X1560756Y2092D01*
X1560760Y2089D01*
X1561883Y2424D01*
X1561887Y2430D01*
X1561891Y2428D01*
X1562927Y2976D01*
X1562930Y2982D01*
X1562935Y2981D01*
X1563843Y3720D01*
X1563845Y3727D01*
X1563850Y3727D01*
X1564597Y4629D01*
X1564597Y4637D01*
X1564603Y4637D01*
X1565159Y5668D01*
X1565158Y5675D01*
X1565163Y5677D01*
X1565507Y6796D01*
X1565505Y6803D01*
X1565509Y6806D01*
X1565629Y7971D01*
X1565627Y7974D01*
X1565629Y7976D01*
X1565629Y13976D01*
X1565627Y13979D01*
X1565629Y13981D01*
X1565518Y15157D01*
X1565513Y15162D01*
X1565516Y15166D01*
X1565178Y16298D01*
X1565172Y16302D01*
X1565174Y16307D01*
X1564622Y17351D01*
X1564615Y17354D01*
X1564617Y17359D01*
X1563871Y18275D01*
X1563864Y18276D01*
X1563864Y18282D01*
X1562955Y19035D01*
X1562947Y19035D01*
X1562947Y19040D01*
X1561907Y19601D01*
X1561900Y19600D01*
X1561898Y19605D01*
X1560769Y19952D01*
X1560763Y19950D01*
X1560760Y19954D01*
X1559585Y20075D01*
X1559578Y20071D01*
X1559574Y20075D01*
X1558234Y19918D01*
X1558228Y19913D01*
X1558223Y19916D01*
X1556952Y19465D01*
X1556947Y19458D01*
X1556942Y19460D01*
X1555803Y18738D01*
X1555800Y18730D01*
X1555794Y18731D01*
X1554844Y17773D01*
X1554843Y17765D01*
X1554837Y17764D01*
X1554124Y16619D01*
X1554125Y16611D01*
X1554119Y16609D01*
X1553679Y15333D01*
X1553681Y15326D01*
X1553677Y15323D01*
X1553531Y13981D01*
X1553533Y13978D01*
X1553531Y13976D01*
X1553531Y7976D01*
X1553533Y7973D01*
X1553531Y7970D01*
X1553686Y6641D01*
X1553692Y6635D01*
X1553689Y6631D01*
X1554136Y5370D01*
X1554143Y5365D01*
X1554141Y5360D01*
X1554858Y4230D01*
X1554865Y4227D01*
X1554864Y4221D01*
X1555815Y3279D01*
X1555823Y3278D01*
X1555823Y3272D01*
X1556959Y2565D01*
X1556967Y2566D01*
X1556969Y2560D01*
X1558234Y2124D01*
X1558239Y2125D01*
X1558240Y2125D01*
X1558243Y2125D01*
X1558245Y2121D01*
X1559575Y1977D01*
X1559581Y1981D01*
X1559585Y1977D01*
X1560751Y2087D01*
G37*
G36*
X1474351Y2087D02*
X1474351Y2087D01*
X1474356Y2092D01*
X1474360Y2089D01*
X1475483Y2424D01*
X1475487Y2430D01*
X1475491Y2428D01*
X1476527Y2976D01*
X1476530Y2982D01*
X1476535Y2981D01*
X1477443Y3720D01*
X1477445Y3727D01*
X1477450Y3727D01*
X1478197Y4629D01*
X1478197Y4637D01*
X1478203Y4637D01*
X1478759Y5668D01*
X1478758Y5675D01*
X1478763Y5677D01*
X1479107Y6796D01*
X1479105Y6803D01*
X1479109Y6806D01*
X1479229Y7971D01*
X1479227Y7974D01*
X1479229Y7976D01*
X1479229Y13976D01*
X1479227Y13979D01*
X1479229Y13981D01*
X1479118Y15157D01*
X1479113Y15162D01*
X1479116Y15166D01*
X1478778Y16298D01*
X1478772Y16302D01*
X1478774Y16307D01*
X1478222Y17351D01*
X1478215Y17354D01*
X1478217Y17359D01*
X1477471Y18275D01*
X1477464Y18276D01*
X1477464Y18282D01*
X1476555Y19035D01*
X1476547Y19035D01*
X1476547Y19040D01*
X1475507Y19601D01*
X1475500Y19600D01*
X1475498Y19605D01*
X1474369Y19952D01*
X1474363Y19950D01*
X1474360Y19954D01*
X1473185Y20075D01*
X1473178Y20071D01*
X1473174Y20075D01*
X1471834Y19918D01*
X1471828Y19913D01*
X1471823Y19916D01*
X1470552Y19465D01*
X1470547Y19458D01*
X1470542Y19460D01*
X1469403Y18738D01*
X1469400Y18730D01*
X1469394Y18731D01*
X1468444Y17773D01*
X1468443Y17765D01*
X1468437Y17764D01*
X1467724Y16619D01*
X1467725Y16611D01*
X1467719Y16609D01*
X1467279Y15333D01*
X1467281Y15326D01*
X1467277Y15323D01*
X1467131Y13981D01*
X1467133Y13978D01*
X1467131Y13976D01*
X1467131Y7976D01*
X1467133Y7973D01*
X1467131Y7970D01*
X1467286Y6641D01*
X1467292Y6635D01*
X1467289Y6631D01*
X1467736Y5370D01*
X1467743Y5365D01*
X1467741Y5360D01*
X1468458Y4230D01*
X1468465Y4227D01*
X1468464Y4221D01*
X1469415Y3279D01*
X1469423Y3278D01*
X1469423Y3272D01*
X1470559Y2565D01*
X1470567Y2566D01*
X1470569Y2560D01*
X1471834Y2124D01*
X1471839Y2125D01*
X1471840Y2125D01*
X1471843Y2125D01*
X1471845Y2121D01*
X1473175Y1977D01*
X1473181Y1981D01*
X1473185Y1977D01*
X1474351Y2087D01*
G37*
G36*
X1093391Y2087D02*
X1093391Y2087D01*
X1093396Y2092D01*
X1093400Y2089D01*
X1094523Y2424D01*
X1094527Y2430D01*
X1094531Y2428D01*
X1095567Y2976D01*
X1095570Y2982D01*
X1095575Y2981D01*
X1096483Y3720D01*
X1096485Y3727D01*
X1096490Y3727D01*
X1097237Y4629D01*
X1097237Y4637D01*
X1097243Y4637D01*
X1097799Y5668D01*
X1097798Y5675D01*
X1097803Y5677D01*
X1098147Y6796D01*
X1098145Y6803D01*
X1098149Y6806D01*
X1098269Y7971D01*
X1098267Y7974D01*
X1098269Y7976D01*
X1098269Y13976D01*
X1098267Y13979D01*
X1098269Y13981D01*
X1098158Y15157D01*
X1098153Y15162D01*
X1098156Y15166D01*
X1097818Y16298D01*
X1097812Y16302D01*
X1097814Y16307D01*
X1097262Y17351D01*
X1097255Y17354D01*
X1097257Y17359D01*
X1096511Y18275D01*
X1096504Y18276D01*
X1096504Y18282D01*
X1095595Y19035D01*
X1095587Y19035D01*
X1095587Y19040D01*
X1094547Y19601D01*
X1094540Y19600D01*
X1094538Y19605D01*
X1093409Y19952D01*
X1093403Y19950D01*
X1093400Y19954D01*
X1092225Y20075D01*
X1092218Y20071D01*
X1092214Y20075D01*
X1090874Y19918D01*
X1090868Y19913D01*
X1090863Y19916D01*
X1089592Y19465D01*
X1089587Y19458D01*
X1089582Y19460D01*
X1088443Y18738D01*
X1088440Y18730D01*
X1088434Y18731D01*
X1087484Y17773D01*
X1087483Y17765D01*
X1087477Y17764D01*
X1086764Y16619D01*
X1086765Y16611D01*
X1086759Y16609D01*
X1086319Y15333D01*
X1086321Y15326D01*
X1086317Y15323D01*
X1086171Y13981D01*
X1086173Y13978D01*
X1086171Y13976D01*
X1086171Y7976D01*
X1086173Y7973D01*
X1086171Y7970D01*
X1086326Y6641D01*
X1086332Y6635D01*
X1086329Y6631D01*
X1086776Y5370D01*
X1086783Y5365D01*
X1086781Y5360D01*
X1087498Y4230D01*
X1087505Y4227D01*
X1087504Y4221D01*
X1088455Y3279D01*
X1088463Y3278D01*
X1088463Y3272D01*
X1089599Y2565D01*
X1089607Y2566D01*
X1089609Y2560D01*
X1090874Y2124D01*
X1090879Y2125D01*
X1090880Y2125D01*
X1090883Y2125D01*
X1090885Y2121D01*
X1092215Y1977D01*
X1092221Y1981D01*
X1092225Y1977D01*
X1093391Y2087D01*
G37*
G36*
X72271Y2087D02*
X72271Y2087D01*
X72276Y2092D01*
X72280Y2089D01*
X73403Y2424D01*
X73407Y2430D01*
X73411Y2428D01*
X74447Y2976D01*
X74450Y2982D01*
X74455Y2981D01*
X75363Y3720D01*
X75365Y3727D01*
X75370Y3727D01*
X76117Y4629D01*
X76117Y4637D01*
X76123Y4637D01*
X76679Y5668D01*
X76678Y5675D01*
X76683Y5677D01*
X77027Y6796D01*
X77025Y6803D01*
X77029Y6806D01*
X77149Y7971D01*
X77147Y7974D01*
X77149Y7976D01*
X77149Y13976D01*
X77147Y13979D01*
X77149Y13981D01*
X77038Y15157D01*
X77033Y15162D01*
X77036Y15166D01*
X76698Y16298D01*
X76692Y16302D01*
X76694Y16307D01*
X76142Y17351D01*
X76135Y17354D01*
X76137Y17359D01*
X75391Y18275D01*
X75384Y18276D01*
X75384Y18282D01*
X74475Y19035D01*
X74467Y19035D01*
X74467Y19040D01*
X73427Y19601D01*
X73420Y19600D01*
X73418Y19605D01*
X72289Y19952D01*
X72283Y19950D01*
X72280Y19954D01*
X71105Y20075D01*
X71098Y20071D01*
X71094Y20075D01*
X69754Y19918D01*
X69748Y19913D01*
X69743Y19916D01*
X68472Y19465D01*
X68467Y19458D01*
X68462Y19460D01*
X67323Y18738D01*
X67320Y18730D01*
X67314Y18731D01*
X66364Y17773D01*
X66363Y17765D01*
X66357Y17764D01*
X65644Y16619D01*
X65645Y16611D01*
X65639Y16609D01*
X65199Y15333D01*
X65201Y15326D01*
X65197Y15323D01*
X65051Y13981D01*
X65053Y13978D01*
X65051Y13976D01*
X65051Y7976D01*
X65053Y7973D01*
X65051Y7970D01*
X65206Y6641D01*
X65212Y6635D01*
X65209Y6631D01*
X65656Y5370D01*
X65663Y5365D01*
X65661Y5360D01*
X66378Y4230D01*
X66385Y4227D01*
X66384Y4221D01*
X67335Y3279D01*
X67343Y3278D01*
X67343Y3272D01*
X68479Y2565D01*
X68487Y2566D01*
X68489Y2560D01*
X69754Y2124D01*
X69759Y2125D01*
X69760Y2125D01*
X69763Y2125D01*
X69765Y2121D01*
X71095Y1977D01*
X71101Y1981D01*
X71105Y1977D01*
X72271Y2087D01*
G37*
G36*
X773311Y2087D02*
X773311Y2087D01*
X773316Y2092D01*
X773320Y2089D01*
X774443Y2424D01*
X774447Y2430D01*
X774451Y2428D01*
X775487Y2976D01*
X775490Y2982D01*
X775495Y2981D01*
X776403Y3720D01*
X776405Y3727D01*
X776410Y3727D01*
X777157Y4629D01*
X777157Y4637D01*
X777163Y4637D01*
X777719Y5668D01*
X777718Y5675D01*
X777723Y5677D01*
X778067Y6796D01*
X778065Y6803D01*
X778069Y6806D01*
X778189Y7971D01*
X778187Y7974D01*
X778189Y7976D01*
X778189Y13976D01*
X778187Y13979D01*
X778189Y13981D01*
X778078Y15157D01*
X778073Y15162D01*
X778076Y15166D01*
X777738Y16298D01*
X777732Y16302D01*
X777734Y16307D01*
X777182Y17351D01*
X777175Y17354D01*
X777177Y17359D01*
X776431Y18275D01*
X776424Y18276D01*
X776424Y18282D01*
X775515Y19035D01*
X775507Y19035D01*
X775507Y19040D01*
X774467Y19601D01*
X774460Y19600D01*
X774458Y19605D01*
X773329Y19952D01*
X773323Y19950D01*
X773320Y19954D01*
X772145Y20075D01*
X772138Y20071D01*
X772134Y20075D01*
X770794Y19918D01*
X770788Y19913D01*
X770783Y19916D01*
X769512Y19465D01*
X769507Y19458D01*
X769502Y19460D01*
X768363Y18738D01*
X768360Y18730D01*
X768354Y18731D01*
X767404Y17773D01*
X767403Y17765D01*
X767397Y17764D01*
X766684Y16619D01*
X766685Y16611D01*
X766679Y16609D01*
X766239Y15333D01*
X766241Y15326D01*
X766237Y15323D01*
X766091Y13981D01*
X766093Y13978D01*
X766091Y13976D01*
X766091Y7976D01*
X766093Y7973D01*
X766091Y7970D01*
X766246Y6641D01*
X766252Y6635D01*
X766249Y6631D01*
X766696Y5370D01*
X766703Y5365D01*
X766701Y5360D01*
X767418Y4230D01*
X767425Y4227D01*
X767424Y4221D01*
X768375Y3279D01*
X768383Y3278D01*
X768383Y3272D01*
X769519Y2565D01*
X769527Y2566D01*
X769529Y2560D01*
X770794Y2124D01*
X770799Y2125D01*
X770800Y2125D01*
X770803Y2125D01*
X770805Y2121D01*
X772135Y1977D01*
X772141Y1981D01*
X772145Y1977D01*
X773311Y2087D01*
G37*
G36*
X305951Y2087D02*
X305951Y2087D01*
X305956Y2092D01*
X305960Y2089D01*
X307083Y2424D01*
X307087Y2430D01*
X307091Y2428D01*
X308127Y2976D01*
X308130Y2982D01*
X308135Y2981D01*
X309043Y3720D01*
X309045Y3727D01*
X309050Y3727D01*
X309797Y4629D01*
X309797Y4637D01*
X309803Y4637D01*
X310359Y5668D01*
X310358Y5675D01*
X310363Y5677D01*
X310707Y6796D01*
X310705Y6803D01*
X310709Y6806D01*
X310829Y7971D01*
X310827Y7974D01*
X310829Y7976D01*
X310829Y13976D01*
X310827Y13979D01*
X310829Y13981D01*
X310718Y15157D01*
X310713Y15162D01*
X310716Y15166D01*
X310378Y16298D01*
X310372Y16302D01*
X310374Y16307D01*
X309822Y17351D01*
X309815Y17354D01*
X309817Y17359D01*
X309071Y18275D01*
X309064Y18276D01*
X309064Y18282D01*
X308155Y19035D01*
X308147Y19035D01*
X308147Y19040D01*
X307107Y19601D01*
X307100Y19600D01*
X307098Y19605D01*
X305969Y19952D01*
X305963Y19950D01*
X305960Y19954D01*
X304785Y20075D01*
X304778Y20071D01*
X304774Y20075D01*
X303434Y19918D01*
X303428Y19913D01*
X303423Y19916D01*
X302152Y19465D01*
X302147Y19458D01*
X302142Y19460D01*
X301003Y18738D01*
X301000Y18730D01*
X300994Y18731D01*
X300044Y17773D01*
X300043Y17765D01*
X300037Y17764D01*
X299324Y16619D01*
X299325Y16611D01*
X299319Y16609D01*
X298879Y15333D01*
X298881Y15326D01*
X298877Y15323D01*
X298731Y13981D01*
X298733Y13978D01*
X298731Y13976D01*
X298731Y7976D01*
X298733Y7973D01*
X298731Y7970D01*
X298886Y6641D01*
X298892Y6635D01*
X298889Y6631D01*
X299336Y5370D01*
X299343Y5365D01*
X299341Y5360D01*
X300058Y4230D01*
X300065Y4227D01*
X300064Y4221D01*
X301015Y3279D01*
X301023Y3278D01*
X301023Y3272D01*
X302159Y2565D01*
X302167Y2566D01*
X302169Y2560D01*
X303434Y2124D01*
X303439Y2125D01*
X303440Y2125D01*
X303443Y2125D01*
X303445Y2121D01*
X304775Y1977D01*
X304781Y1981D01*
X304785Y1977D01*
X305951Y2087D01*
G37*
G36*
X859711Y2087D02*
X859711Y2087D01*
X859716Y2092D01*
X859720Y2089D01*
X860843Y2424D01*
X860847Y2430D01*
X860851Y2428D01*
X861887Y2976D01*
X861890Y2982D01*
X861895Y2981D01*
X862803Y3720D01*
X862805Y3727D01*
X862810Y3727D01*
X863557Y4629D01*
X863557Y4637D01*
X863563Y4637D01*
X864119Y5668D01*
X864118Y5675D01*
X864123Y5677D01*
X864467Y6796D01*
X864465Y6803D01*
X864469Y6806D01*
X864589Y7971D01*
X864587Y7974D01*
X864589Y7976D01*
X864589Y13976D01*
X864587Y13979D01*
X864589Y13981D01*
X864478Y15157D01*
X864473Y15162D01*
X864476Y15166D01*
X864138Y16298D01*
X864132Y16302D01*
X864134Y16307D01*
X863582Y17351D01*
X863575Y17354D01*
X863577Y17359D01*
X862831Y18275D01*
X862824Y18276D01*
X862824Y18282D01*
X861915Y19035D01*
X861907Y19035D01*
X861907Y19040D01*
X860867Y19601D01*
X860860Y19600D01*
X860858Y19605D01*
X859729Y19952D01*
X859723Y19950D01*
X859720Y19954D01*
X858545Y20075D01*
X858538Y20071D01*
X858534Y20075D01*
X857194Y19918D01*
X857188Y19913D01*
X857183Y19916D01*
X855912Y19465D01*
X855907Y19458D01*
X855902Y19460D01*
X854763Y18738D01*
X854760Y18730D01*
X854754Y18731D01*
X853804Y17773D01*
X853803Y17765D01*
X853797Y17764D01*
X853084Y16619D01*
X853085Y16611D01*
X853079Y16609D01*
X852639Y15333D01*
X852641Y15326D01*
X852637Y15323D01*
X852491Y13981D01*
X852493Y13978D01*
X852491Y13976D01*
X852491Y7976D01*
X852493Y7973D01*
X852491Y7970D01*
X852646Y6641D01*
X852652Y6635D01*
X852649Y6631D01*
X853096Y5370D01*
X853103Y5365D01*
X853101Y5360D01*
X853818Y4230D01*
X853825Y4227D01*
X853824Y4221D01*
X854775Y3279D01*
X854783Y3278D01*
X854783Y3272D01*
X855919Y2565D01*
X855927Y2566D01*
X855929Y2560D01*
X857194Y2124D01*
X857199Y2125D01*
X857200Y2125D01*
X857203Y2125D01*
X857205Y2121D01*
X858535Y1977D01*
X858541Y1981D01*
X858545Y1977D01*
X859711Y2087D01*
G37*
G36*
X392351Y2087D02*
X392351Y2087D01*
X392356Y2092D01*
X392360Y2089D01*
X393483Y2424D01*
X393487Y2430D01*
X393491Y2428D01*
X394527Y2976D01*
X394530Y2982D01*
X394535Y2981D01*
X395443Y3720D01*
X395445Y3727D01*
X395450Y3727D01*
X396197Y4629D01*
X396197Y4637D01*
X396203Y4637D01*
X396759Y5668D01*
X396758Y5675D01*
X396763Y5677D01*
X397107Y6796D01*
X397105Y6803D01*
X397109Y6806D01*
X397229Y7971D01*
X397227Y7974D01*
X397229Y7976D01*
X397229Y13976D01*
X397227Y13979D01*
X397229Y13981D01*
X397118Y15157D01*
X397113Y15162D01*
X397116Y15166D01*
X396778Y16298D01*
X396772Y16302D01*
X396774Y16307D01*
X396222Y17351D01*
X396215Y17354D01*
X396217Y17359D01*
X395471Y18275D01*
X395464Y18276D01*
X395464Y18282D01*
X394555Y19035D01*
X394547Y19035D01*
X394547Y19040D01*
X393507Y19601D01*
X393500Y19600D01*
X393498Y19605D01*
X392369Y19952D01*
X392363Y19950D01*
X392360Y19954D01*
X391185Y20075D01*
X391178Y20071D01*
X391174Y20075D01*
X389834Y19918D01*
X389828Y19913D01*
X389823Y19916D01*
X388552Y19465D01*
X388547Y19458D01*
X388542Y19460D01*
X387403Y18738D01*
X387400Y18730D01*
X387394Y18731D01*
X386444Y17773D01*
X386443Y17765D01*
X386437Y17764D01*
X385724Y16619D01*
X385725Y16611D01*
X385719Y16609D01*
X385279Y15333D01*
X385281Y15326D01*
X385277Y15323D01*
X385131Y13981D01*
X385133Y13978D01*
X385131Y13976D01*
X385131Y7976D01*
X385133Y7973D01*
X385131Y7970D01*
X385286Y6641D01*
X385292Y6635D01*
X385289Y6631D01*
X385736Y5370D01*
X385743Y5365D01*
X385741Y5360D01*
X386458Y4230D01*
X386465Y4227D01*
X386464Y4221D01*
X387415Y3279D01*
X387423Y3278D01*
X387423Y3272D01*
X388559Y2565D01*
X388567Y2566D01*
X388569Y2560D01*
X389834Y2124D01*
X389839Y2125D01*
X389840Y2125D01*
X389843Y2125D01*
X389845Y2121D01*
X391175Y1977D01*
X391181Y1981D01*
X391185Y1977D01*
X392351Y2087D01*
G37*
G36*
X158671Y2087D02*
X158671Y2087D01*
X158676Y2092D01*
X158680Y2089D01*
X159803Y2424D01*
X159807Y2430D01*
X159811Y2428D01*
X160847Y2976D01*
X160850Y2982D01*
X160855Y2981D01*
X161763Y3720D01*
X161765Y3727D01*
X161770Y3727D01*
X162517Y4629D01*
X162517Y4637D01*
X162523Y4637D01*
X163079Y5668D01*
X163078Y5675D01*
X163083Y5677D01*
X163427Y6796D01*
X163425Y6803D01*
X163429Y6806D01*
X163549Y7971D01*
X163547Y7974D01*
X163549Y7976D01*
X163549Y13976D01*
X163547Y13979D01*
X163549Y13981D01*
X163438Y15157D01*
X163433Y15162D01*
X163436Y15166D01*
X163098Y16298D01*
X163092Y16302D01*
X163094Y16307D01*
X162542Y17351D01*
X162535Y17354D01*
X162537Y17359D01*
X161791Y18275D01*
X161784Y18276D01*
X161784Y18282D01*
X160875Y19035D01*
X160867Y19035D01*
X160867Y19040D01*
X159827Y19601D01*
X159820Y19600D01*
X159818Y19605D01*
X158689Y19952D01*
X158683Y19950D01*
X158680Y19954D01*
X157505Y20075D01*
X157498Y20071D01*
X157494Y20075D01*
X156154Y19918D01*
X156148Y19913D01*
X156143Y19916D01*
X154872Y19465D01*
X154867Y19458D01*
X154862Y19460D01*
X153723Y18738D01*
X153720Y18730D01*
X153714Y18731D01*
X152764Y17773D01*
X152763Y17765D01*
X152757Y17764D01*
X152044Y16619D01*
X152045Y16611D01*
X152039Y16609D01*
X151599Y15333D01*
X151601Y15326D01*
X151597Y15323D01*
X151451Y13981D01*
X151453Y13978D01*
X151451Y13976D01*
X151451Y7976D01*
X151453Y7973D01*
X151451Y7970D01*
X151606Y6641D01*
X151612Y6635D01*
X151609Y6631D01*
X152056Y5370D01*
X152063Y5365D01*
X152061Y5360D01*
X152778Y4230D01*
X152785Y4227D01*
X152784Y4221D01*
X153735Y3279D01*
X153743Y3278D01*
X153743Y3272D01*
X154879Y2565D01*
X154887Y2566D01*
X154889Y2560D01*
X156154Y2124D01*
X156159Y2125D01*
X156160Y2125D01*
X156163Y2125D01*
X156165Y2121D01*
X157495Y1977D01*
X157501Y1981D01*
X157505Y1977D01*
X158671Y2087D01*
G37*
G36*
X1006991Y2087D02*
X1006991Y2087D01*
X1006996Y2092D01*
X1007000Y2089D01*
X1008123Y2424D01*
X1008127Y2430D01*
X1008131Y2428D01*
X1009167Y2976D01*
X1009170Y2982D01*
X1009175Y2981D01*
X1010083Y3720D01*
X1010085Y3727D01*
X1010090Y3727D01*
X1010837Y4629D01*
X1010837Y4637D01*
X1010843Y4637D01*
X1011399Y5668D01*
X1011398Y5675D01*
X1011403Y5677D01*
X1011747Y6796D01*
X1011745Y6803D01*
X1011749Y6806D01*
X1011869Y7971D01*
X1011867Y7974D01*
X1011869Y7976D01*
X1011869Y13976D01*
X1011867Y13979D01*
X1011869Y13981D01*
X1011758Y15157D01*
X1011753Y15162D01*
X1011756Y15166D01*
X1011418Y16298D01*
X1011412Y16302D01*
X1011414Y16307D01*
X1010862Y17351D01*
X1010855Y17354D01*
X1010857Y17359D01*
X1010111Y18275D01*
X1010104Y18276D01*
X1010104Y18282D01*
X1009195Y19035D01*
X1009187Y19035D01*
X1009187Y19040D01*
X1008147Y19601D01*
X1008140Y19600D01*
X1008138Y19605D01*
X1007009Y19952D01*
X1007003Y19950D01*
X1007000Y19954D01*
X1005825Y20075D01*
X1005818Y20071D01*
X1005814Y20075D01*
X1004474Y19918D01*
X1004468Y19913D01*
X1004463Y19916D01*
X1003192Y19465D01*
X1003187Y19458D01*
X1003182Y19460D01*
X1002043Y18738D01*
X1002040Y18730D01*
X1002034Y18731D01*
X1001084Y17773D01*
X1001083Y17765D01*
X1001077Y17764D01*
X1000364Y16619D01*
X1000365Y16611D01*
X1000359Y16609D01*
X999919Y15333D01*
X999921Y15326D01*
X999917Y15323D01*
X999771Y13981D01*
X999773Y13978D01*
X999771Y13976D01*
X999771Y7976D01*
X999773Y7973D01*
X999771Y7970D01*
X999926Y6641D01*
X999932Y6635D01*
X999929Y6631D01*
X1000376Y5370D01*
X1000383Y5365D01*
X1000381Y5360D01*
X1001098Y4230D01*
X1001105Y4227D01*
X1001104Y4221D01*
X1002055Y3279D01*
X1002063Y3278D01*
X1002063Y3272D01*
X1003199Y2565D01*
X1003207Y2566D01*
X1003209Y2560D01*
X1004474Y2124D01*
X1004479Y2125D01*
X1004480Y2125D01*
X1004483Y2125D01*
X1004485Y2121D01*
X1005815Y1977D01*
X1005821Y1981D01*
X1005825Y1977D01*
X1006991Y2087D01*
G37*
G36*
X1327071Y2087D02*
X1327071Y2087D01*
X1327076Y2092D01*
X1327080Y2089D01*
X1328203Y2424D01*
X1328207Y2430D01*
X1328211Y2428D01*
X1329247Y2976D01*
X1329250Y2982D01*
X1329255Y2981D01*
X1330163Y3720D01*
X1330165Y3727D01*
X1330170Y3727D01*
X1330917Y4629D01*
X1330917Y4637D01*
X1330923Y4637D01*
X1331479Y5668D01*
X1331478Y5675D01*
X1331483Y5677D01*
X1331827Y6796D01*
X1331825Y6803D01*
X1331829Y6806D01*
X1331949Y7971D01*
X1331947Y7974D01*
X1331949Y7976D01*
X1331949Y13976D01*
X1331947Y13979D01*
X1331949Y13981D01*
X1331838Y15157D01*
X1331833Y15162D01*
X1331836Y15166D01*
X1331498Y16298D01*
X1331492Y16302D01*
X1331494Y16307D01*
X1330942Y17351D01*
X1330935Y17354D01*
X1330937Y17359D01*
X1330191Y18275D01*
X1330184Y18276D01*
X1330184Y18282D01*
X1329275Y19035D01*
X1329267Y19035D01*
X1329267Y19040D01*
X1328227Y19601D01*
X1328220Y19600D01*
X1328218Y19605D01*
X1327089Y19952D01*
X1327083Y19950D01*
X1327080Y19954D01*
X1325905Y20075D01*
X1325898Y20071D01*
X1325894Y20075D01*
X1324554Y19918D01*
X1324548Y19913D01*
X1324543Y19916D01*
X1323272Y19465D01*
X1323267Y19458D01*
X1323262Y19460D01*
X1322123Y18738D01*
X1322120Y18730D01*
X1322114Y18731D01*
X1321164Y17773D01*
X1321163Y17765D01*
X1321157Y17764D01*
X1320444Y16619D01*
X1320445Y16611D01*
X1320439Y16609D01*
X1319999Y15333D01*
X1320001Y15326D01*
X1319997Y15323D01*
X1319851Y13981D01*
X1319853Y13978D01*
X1319851Y13976D01*
X1319851Y7976D01*
X1319853Y7973D01*
X1319851Y7970D01*
X1320006Y6641D01*
X1320012Y6635D01*
X1320009Y6631D01*
X1320456Y5370D01*
X1320463Y5365D01*
X1320461Y5360D01*
X1321178Y4230D01*
X1321185Y4227D01*
X1321184Y4221D01*
X1322135Y3279D01*
X1322143Y3278D01*
X1322143Y3272D01*
X1323279Y2565D01*
X1323287Y2566D01*
X1323289Y2560D01*
X1324554Y2124D01*
X1324559Y2125D01*
X1324560Y2125D01*
X1324563Y2125D01*
X1324565Y2121D01*
X1325895Y1977D01*
X1325901Y1981D01*
X1325905Y1977D01*
X1327071Y2087D01*
G37*
G36*
X539631Y2087D02*
X539631Y2087D01*
X539636Y2092D01*
X539640Y2089D01*
X540763Y2424D01*
X540767Y2430D01*
X540771Y2428D01*
X541807Y2976D01*
X541810Y2982D01*
X541815Y2981D01*
X542723Y3720D01*
X542725Y3727D01*
X542730Y3727D01*
X543477Y4629D01*
X543477Y4637D01*
X543483Y4637D01*
X544039Y5668D01*
X544038Y5675D01*
X544043Y5677D01*
X544387Y6796D01*
X544385Y6803D01*
X544389Y6806D01*
X544509Y7971D01*
X544507Y7974D01*
X544509Y7976D01*
X544509Y13976D01*
X544507Y13979D01*
X544509Y13981D01*
X544398Y15157D01*
X544393Y15162D01*
X544396Y15166D01*
X544058Y16298D01*
X544052Y16302D01*
X544054Y16307D01*
X543502Y17351D01*
X543495Y17354D01*
X543497Y17359D01*
X542751Y18275D01*
X542744Y18276D01*
X542744Y18282D01*
X541835Y19035D01*
X541827Y19035D01*
X541827Y19040D01*
X540787Y19601D01*
X540780Y19600D01*
X540778Y19605D01*
X539649Y19952D01*
X539643Y19950D01*
X539640Y19954D01*
X538465Y20075D01*
X538458Y20071D01*
X538454Y20075D01*
X537114Y19918D01*
X537108Y19913D01*
X537103Y19916D01*
X535832Y19465D01*
X535827Y19458D01*
X535822Y19460D01*
X534683Y18738D01*
X534680Y18730D01*
X534674Y18731D01*
X533724Y17773D01*
X533723Y17765D01*
X533717Y17764D01*
X533004Y16619D01*
X533005Y16611D01*
X532999Y16609D01*
X532559Y15333D01*
X532561Y15326D01*
X532557Y15323D01*
X532411Y13981D01*
X532413Y13978D01*
X532411Y13976D01*
X532411Y7976D01*
X532413Y7973D01*
X532411Y7970D01*
X532566Y6641D01*
X532572Y6635D01*
X532569Y6631D01*
X533016Y5370D01*
X533023Y5365D01*
X533021Y5360D01*
X533738Y4230D01*
X533745Y4227D01*
X533744Y4221D01*
X534695Y3279D01*
X534703Y3278D01*
X534703Y3272D01*
X535839Y2565D01*
X535847Y2566D01*
X535849Y2560D01*
X537114Y2124D01*
X537119Y2125D01*
X537120Y2125D01*
X537123Y2125D01*
X537125Y2121D01*
X538455Y1977D01*
X538461Y1981D01*
X538465Y1977D01*
X539631Y2087D01*
G37*
G36*
X1239502Y1237229D02*
X1239502Y1237229D01*
X1239506Y1237225D01*
X1240846Y1237382D01*
X1240852Y1237387D01*
X1240857Y1237384D01*
X1242128Y1237835D01*
X1242133Y1237842D01*
X1242138Y1237840D01*
X1243277Y1238562D01*
X1243280Y1238570D01*
X1243286Y1238569D01*
X1244236Y1239527D01*
X1244237Y1239535D01*
X1244243Y1239536D01*
X1244956Y1240681D01*
X1244955Y1240690D01*
X1244961Y1240691D01*
X1245401Y1241967D01*
X1245399Y1241974D01*
X1245403Y1241977D01*
X1245549Y1243319D01*
X1245547Y1243322D01*
X1245549Y1243324D01*
X1245549Y1249324D01*
X1245547Y1249328D01*
X1245549Y1249330D01*
X1245394Y1250659D01*
X1245388Y1250665D01*
X1245391Y1250669D01*
X1244944Y1251930D01*
X1244937Y1251935D01*
X1244939Y1251940D01*
X1244222Y1253070D01*
X1244215Y1253073D01*
X1244216Y1253079D01*
X1243266Y1254021D01*
X1243257Y1254022D01*
X1243257Y1254028D01*
X1242121Y1254735D01*
X1242113Y1254734D01*
X1242111Y1254740D01*
X1240846Y1255176D01*
X1240838Y1255174D01*
X1240836Y1255179D01*
X1239505Y1255323D01*
X1239499Y1255319D01*
X1239495Y1255323D01*
X1238329Y1255213D01*
X1238324Y1255208D01*
X1238320Y1255211D01*
X1237197Y1254876D01*
X1237193Y1254870D01*
X1237189Y1254872D01*
X1236153Y1254324D01*
X1236150Y1254318D01*
X1236145Y1254319D01*
X1235237Y1253580D01*
X1235235Y1253573D01*
X1235230Y1253573D01*
X1234483Y1252671D01*
X1234483Y1252664D01*
X1234478Y1252663D01*
X1233921Y1251632D01*
X1233922Y1251625D01*
X1233917Y1251623D01*
X1233573Y1250504D01*
X1233575Y1250497D01*
X1233571Y1250494D01*
X1233451Y1249329D01*
X1233453Y1249326D01*
X1233451Y1249324D01*
X1233451Y1243324D01*
X1233453Y1243321D01*
X1233451Y1243319D01*
X1233562Y1242143D01*
X1233567Y1242138D01*
X1233564Y1242134D01*
X1233902Y1241002D01*
X1233908Y1240998D01*
X1233906Y1240993D01*
X1234458Y1239949D01*
X1234465Y1239946D01*
X1234463Y1239941D01*
X1235209Y1239025D01*
X1235216Y1239024D01*
X1235216Y1239018D01*
X1236126Y1238265D01*
X1236133Y1238265D01*
X1236134Y1238260D01*
X1237173Y1237699D01*
X1237180Y1237700D01*
X1237182Y1237695D01*
X1238311Y1237348D01*
X1238317Y1237350D01*
X1238320Y1237346D01*
X1239495Y1237225D01*
X1239502Y1237229D01*
G37*
G36*
X1092222Y1237229D02*
X1092222Y1237229D01*
X1092226Y1237225D01*
X1093566Y1237382D01*
X1093572Y1237387D01*
X1093577Y1237384D01*
X1094848Y1237835D01*
X1094853Y1237842D01*
X1094858Y1237840D01*
X1095997Y1238562D01*
X1096000Y1238570D01*
X1096006Y1238569D01*
X1096956Y1239527D01*
X1096957Y1239535D01*
X1096963Y1239536D01*
X1097676Y1240681D01*
X1097675Y1240690D01*
X1097681Y1240691D01*
X1098121Y1241967D01*
X1098119Y1241974D01*
X1098123Y1241977D01*
X1098269Y1243319D01*
X1098267Y1243322D01*
X1098269Y1243324D01*
X1098269Y1249324D01*
X1098267Y1249328D01*
X1098269Y1249330D01*
X1098114Y1250659D01*
X1098108Y1250665D01*
X1098111Y1250669D01*
X1097664Y1251930D01*
X1097657Y1251935D01*
X1097659Y1251940D01*
X1096942Y1253070D01*
X1096935Y1253073D01*
X1096936Y1253079D01*
X1095986Y1254021D01*
X1095977Y1254022D01*
X1095977Y1254028D01*
X1094841Y1254735D01*
X1094833Y1254734D01*
X1094831Y1254740D01*
X1093566Y1255176D01*
X1093558Y1255174D01*
X1093556Y1255179D01*
X1092225Y1255323D01*
X1092219Y1255319D01*
X1092215Y1255323D01*
X1091049Y1255213D01*
X1091044Y1255208D01*
X1091040Y1255211D01*
X1089917Y1254876D01*
X1089913Y1254870D01*
X1089909Y1254872D01*
X1088873Y1254324D01*
X1088870Y1254318D01*
X1088865Y1254319D01*
X1087957Y1253580D01*
X1087955Y1253573D01*
X1087950Y1253573D01*
X1087203Y1252671D01*
X1087203Y1252664D01*
X1087198Y1252663D01*
X1086641Y1251632D01*
X1086642Y1251625D01*
X1086637Y1251623D01*
X1086293Y1250504D01*
X1086295Y1250497D01*
X1086291Y1250494D01*
X1086171Y1249329D01*
X1086173Y1249326D01*
X1086171Y1249324D01*
X1086171Y1243324D01*
X1086173Y1243321D01*
X1086171Y1243319D01*
X1086282Y1242143D01*
X1086287Y1242138D01*
X1086284Y1242134D01*
X1086622Y1241002D01*
X1086628Y1240998D01*
X1086626Y1240993D01*
X1087178Y1239949D01*
X1087185Y1239946D01*
X1087183Y1239941D01*
X1087929Y1239025D01*
X1087936Y1239024D01*
X1087936Y1239018D01*
X1088846Y1238265D01*
X1088853Y1238265D01*
X1088854Y1238260D01*
X1089893Y1237699D01*
X1089900Y1237700D01*
X1089902Y1237695D01*
X1091031Y1237348D01*
X1091037Y1237350D01*
X1091040Y1237346D01*
X1092215Y1237225D01*
X1092222Y1237229D01*
G37*
G36*
X1559582Y1237229D02*
X1559582Y1237229D01*
X1559586Y1237225D01*
X1560926Y1237382D01*
X1560932Y1237387D01*
X1560937Y1237384D01*
X1562208Y1237835D01*
X1562213Y1237842D01*
X1562218Y1237840D01*
X1563357Y1238562D01*
X1563360Y1238570D01*
X1563366Y1238569D01*
X1564316Y1239527D01*
X1564317Y1239535D01*
X1564323Y1239536D01*
X1565036Y1240681D01*
X1565035Y1240690D01*
X1565041Y1240691D01*
X1565481Y1241967D01*
X1565479Y1241974D01*
X1565483Y1241977D01*
X1565629Y1243319D01*
X1565627Y1243322D01*
X1565629Y1243324D01*
X1565629Y1249324D01*
X1565627Y1249328D01*
X1565629Y1249330D01*
X1565474Y1250659D01*
X1565468Y1250665D01*
X1565471Y1250669D01*
X1565024Y1251930D01*
X1565017Y1251935D01*
X1565019Y1251940D01*
X1564302Y1253070D01*
X1564295Y1253073D01*
X1564296Y1253079D01*
X1563346Y1254021D01*
X1563337Y1254022D01*
X1563337Y1254028D01*
X1562201Y1254735D01*
X1562193Y1254734D01*
X1562191Y1254740D01*
X1560926Y1255176D01*
X1560918Y1255174D01*
X1560916Y1255179D01*
X1559585Y1255323D01*
X1559579Y1255319D01*
X1559575Y1255323D01*
X1558409Y1255213D01*
X1558404Y1255208D01*
X1558400Y1255211D01*
X1557277Y1254876D01*
X1557273Y1254870D01*
X1557269Y1254872D01*
X1556233Y1254324D01*
X1556230Y1254318D01*
X1556225Y1254319D01*
X1555317Y1253580D01*
X1555315Y1253573D01*
X1555310Y1253573D01*
X1554563Y1252671D01*
X1554563Y1252664D01*
X1554558Y1252663D01*
X1554001Y1251632D01*
X1554002Y1251625D01*
X1553997Y1251623D01*
X1553653Y1250504D01*
X1553655Y1250497D01*
X1553651Y1250494D01*
X1553531Y1249329D01*
X1553533Y1249326D01*
X1553531Y1249324D01*
X1553531Y1243324D01*
X1553533Y1243321D01*
X1553531Y1243319D01*
X1553642Y1242143D01*
X1553647Y1242138D01*
X1553644Y1242134D01*
X1553982Y1241002D01*
X1553988Y1240998D01*
X1553986Y1240993D01*
X1554538Y1239949D01*
X1554545Y1239946D01*
X1554543Y1239941D01*
X1555289Y1239025D01*
X1555296Y1239024D01*
X1555296Y1239018D01*
X1556206Y1238265D01*
X1556213Y1238265D01*
X1556214Y1238260D01*
X1557253Y1237699D01*
X1557260Y1237700D01*
X1557262Y1237695D01*
X1558391Y1237348D01*
X1558397Y1237350D01*
X1558400Y1237346D01*
X1559575Y1237225D01*
X1559582Y1237229D01*
G37*
G36*
X391182Y1237229D02*
X391182Y1237229D01*
X391186Y1237225D01*
X392526Y1237382D01*
X392532Y1237387D01*
X392537Y1237384D01*
X393808Y1237835D01*
X393813Y1237842D01*
X393818Y1237840D01*
X394957Y1238562D01*
X394960Y1238570D01*
X394966Y1238569D01*
X395916Y1239527D01*
X395917Y1239535D01*
X395923Y1239536D01*
X396636Y1240681D01*
X396635Y1240690D01*
X396641Y1240691D01*
X397081Y1241967D01*
X397079Y1241974D01*
X397083Y1241977D01*
X397229Y1243319D01*
X397227Y1243322D01*
X397229Y1243324D01*
X397229Y1249324D01*
X397227Y1249328D01*
X397229Y1249330D01*
X397074Y1250659D01*
X397068Y1250665D01*
X397071Y1250669D01*
X396624Y1251930D01*
X396617Y1251935D01*
X396619Y1251940D01*
X395902Y1253070D01*
X395895Y1253073D01*
X395896Y1253079D01*
X394946Y1254021D01*
X394937Y1254022D01*
X394937Y1254028D01*
X393801Y1254735D01*
X393793Y1254734D01*
X393791Y1254740D01*
X392526Y1255176D01*
X392518Y1255174D01*
X392516Y1255179D01*
X391185Y1255323D01*
X391179Y1255319D01*
X391175Y1255323D01*
X390009Y1255213D01*
X390004Y1255208D01*
X390000Y1255211D01*
X388877Y1254876D01*
X388873Y1254870D01*
X388869Y1254872D01*
X387833Y1254324D01*
X387830Y1254318D01*
X387825Y1254319D01*
X386917Y1253580D01*
X386915Y1253573D01*
X386910Y1253573D01*
X386163Y1252671D01*
X386163Y1252664D01*
X386158Y1252663D01*
X385601Y1251632D01*
X385602Y1251625D01*
X385597Y1251623D01*
X385253Y1250504D01*
X385255Y1250497D01*
X385251Y1250494D01*
X385131Y1249329D01*
X385133Y1249326D01*
X385131Y1249324D01*
X385131Y1243324D01*
X385133Y1243321D01*
X385131Y1243319D01*
X385242Y1242143D01*
X385247Y1242138D01*
X385244Y1242134D01*
X385582Y1241002D01*
X385588Y1240998D01*
X385586Y1240993D01*
X386138Y1239949D01*
X386145Y1239946D01*
X386143Y1239941D01*
X386889Y1239025D01*
X386896Y1239024D01*
X386896Y1239018D01*
X387806Y1238265D01*
X387813Y1238265D01*
X387814Y1238260D01*
X388853Y1237699D01*
X388860Y1237700D01*
X388862Y1237695D01*
X389991Y1237348D01*
X389997Y1237350D01*
X390000Y1237346D01*
X391175Y1237225D01*
X391182Y1237229D01*
G37*
G36*
X71102Y1237229D02*
X71102Y1237229D01*
X71106Y1237225D01*
X72446Y1237382D01*
X72452Y1237387D01*
X72457Y1237384D01*
X73728Y1237835D01*
X73733Y1237842D01*
X73738Y1237840D01*
X74877Y1238562D01*
X74880Y1238570D01*
X74886Y1238569D01*
X75836Y1239527D01*
X75837Y1239535D01*
X75843Y1239536D01*
X76556Y1240681D01*
X76555Y1240690D01*
X76561Y1240691D01*
X77001Y1241967D01*
X76999Y1241974D01*
X77003Y1241977D01*
X77149Y1243319D01*
X77147Y1243322D01*
X77149Y1243324D01*
X77149Y1249324D01*
X77147Y1249328D01*
X77149Y1249330D01*
X76994Y1250659D01*
X76988Y1250665D01*
X76991Y1250669D01*
X76544Y1251930D01*
X76537Y1251935D01*
X76539Y1251940D01*
X75822Y1253070D01*
X75815Y1253073D01*
X75816Y1253079D01*
X74866Y1254021D01*
X74857Y1254022D01*
X74857Y1254028D01*
X73721Y1254735D01*
X73713Y1254734D01*
X73711Y1254740D01*
X72446Y1255176D01*
X72438Y1255174D01*
X72436Y1255179D01*
X71105Y1255323D01*
X71099Y1255319D01*
X71095Y1255323D01*
X69929Y1255213D01*
X69924Y1255208D01*
X69920Y1255211D01*
X68797Y1254876D01*
X68793Y1254870D01*
X68789Y1254872D01*
X67753Y1254324D01*
X67750Y1254318D01*
X67745Y1254319D01*
X66837Y1253580D01*
X66835Y1253573D01*
X66830Y1253573D01*
X66083Y1252671D01*
X66083Y1252664D01*
X66078Y1252663D01*
X65521Y1251632D01*
X65522Y1251625D01*
X65517Y1251623D01*
X65173Y1250504D01*
X65175Y1250497D01*
X65171Y1250494D01*
X65051Y1249329D01*
X65053Y1249326D01*
X65051Y1249324D01*
X65051Y1243324D01*
X65053Y1243321D01*
X65051Y1243319D01*
X65162Y1242143D01*
X65167Y1242138D01*
X65164Y1242134D01*
X65502Y1241002D01*
X65508Y1240998D01*
X65506Y1240993D01*
X66058Y1239949D01*
X66065Y1239946D01*
X66063Y1239941D01*
X66809Y1239025D01*
X66816Y1239024D01*
X66816Y1239018D01*
X67726Y1238265D01*
X67733Y1238265D01*
X67734Y1238260D01*
X68773Y1237699D01*
X68780Y1237700D01*
X68782Y1237695D01*
X69911Y1237348D01*
X69917Y1237350D01*
X69920Y1237346D01*
X71095Y1237225D01*
X71102Y1237229D01*
G37*
G36*
X1325902Y1237229D02*
X1325902Y1237229D01*
X1325906Y1237225D01*
X1327246Y1237382D01*
X1327252Y1237387D01*
X1327257Y1237384D01*
X1328528Y1237835D01*
X1328533Y1237842D01*
X1328538Y1237840D01*
X1329677Y1238562D01*
X1329680Y1238570D01*
X1329686Y1238569D01*
X1330636Y1239527D01*
X1330637Y1239535D01*
X1330643Y1239536D01*
X1331356Y1240681D01*
X1331355Y1240690D01*
X1331361Y1240691D01*
X1331801Y1241967D01*
X1331799Y1241974D01*
X1331803Y1241977D01*
X1331949Y1243319D01*
X1331947Y1243322D01*
X1331949Y1243324D01*
X1331949Y1249324D01*
X1331947Y1249328D01*
X1331949Y1249330D01*
X1331794Y1250659D01*
X1331788Y1250665D01*
X1331791Y1250669D01*
X1331344Y1251930D01*
X1331337Y1251935D01*
X1331339Y1251940D01*
X1330622Y1253070D01*
X1330615Y1253073D01*
X1330616Y1253079D01*
X1329666Y1254021D01*
X1329657Y1254022D01*
X1329657Y1254028D01*
X1328521Y1254735D01*
X1328513Y1254734D01*
X1328511Y1254740D01*
X1327246Y1255176D01*
X1327238Y1255174D01*
X1327236Y1255179D01*
X1325905Y1255323D01*
X1325899Y1255319D01*
X1325895Y1255323D01*
X1324729Y1255213D01*
X1324724Y1255208D01*
X1324720Y1255211D01*
X1323597Y1254876D01*
X1323593Y1254870D01*
X1323589Y1254872D01*
X1322553Y1254324D01*
X1322550Y1254318D01*
X1322545Y1254319D01*
X1321637Y1253580D01*
X1321635Y1253573D01*
X1321630Y1253573D01*
X1320883Y1252671D01*
X1320883Y1252664D01*
X1320878Y1252663D01*
X1320321Y1251632D01*
X1320322Y1251625D01*
X1320317Y1251623D01*
X1319973Y1250504D01*
X1319975Y1250497D01*
X1319971Y1250494D01*
X1319851Y1249329D01*
X1319853Y1249326D01*
X1319851Y1249324D01*
X1319851Y1243324D01*
X1319853Y1243321D01*
X1319851Y1243319D01*
X1319962Y1242143D01*
X1319967Y1242138D01*
X1319964Y1242134D01*
X1320302Y1241002D01*
X1320308Y1240998D01*
X1320306Y1240993D01*
X1320858Y1239949D01*
X1320865Y1239946D01*
X1320863Y1239941D01*
X1321609Y1239025D01*
X1321616Y1239024D01*
X1321616Y1239018D01*
X1322526Y1238265D01*
X1322533Y1238265D01*
X1322534Y1238260D01*
X1323573Y1237699D01*
X1323580Y1237700D01*
X1323582Y1237695D01*
X1324711Y1237348D01*
X1324717Y1237350D01*
X1324720Y1237346D01*
X1325895Y1237225D01*
X1325902Y1237229D01*
G37*
G36*
X157502Y1237229D02*
X157502Y1237229D01*
X157506Y1237225D01*
X158846Y1237382D01*
X158852Y1237387D01*
X158857Y1237384D01*
X160128Y1237835D01*
X160133Y1237842D01*
X160138Y1237840D01*
X161277Y1238562D01*
X161280Y1238570D01*
X161286Y1238569D01*
X162236Y1239527D01*
X162237Y1239535D01*
X162243Y1239536D01*
X162956Y1240681D01*
X162955Y1240690D01*
X162961Y1240691D01*
X163401Y1241967D01*
X163399Y1241974D01*
X163403Y1241977D01*
X163549Y1243319D01*
X163547Y1243322D01*
X163549Y1243324D01*
X163549Y1249324D01*
X163547Y1249328D01*
X163549Y1249330D01*
X163394Y1250659D01*
X163388Y1250665D01*
X163391Y1250669D01*
X162944Y1251930D01*
X162937Y1251935D01*
X162939Y1251940D01*
X162222Y1253070D01*
X162215Y1253073D01*
X162216Y1253079D01*
X161266Y1254021D01*
X161257Y1254022D01*
X161257Y1254028D01*
X160121Y1254735D01*
X160113Y1254734D01*
X160111Y1254740D01*
X158846Y1255176D01*
X158838Y1255174D01*
X158836Y1255179D01*
X157505Y1255323D01*
X157499Y1255319D01*
X157495Y1255323D01*
X156329Y1255213D01*
X156324Y1255208D01*
X156320Y1255211D01*
X155197Y1254876D01*
X155193Y1254870D01*
X155189Y1254872D01*
X154153Y1254324D01*
X154150Y1254318D01*
X154145Y1254319D01*
X153237Y1253580D01*
X153235Y1253573D01*
X153230Y1253573D01*
X152483Y1252671D01*
X152483Y1252664D01*
X152478Y1252663D01*
X151921Y1251632D01*
X151922Y1251625D01*
X151917Y1251623D01*
X151573Y1250504D01*
X151575Y1250497D01*
X151571Y1250494D01*
X151451Y1249329D01*
X151453Y1249326D01*
X151451Y1249324D01*
X151451Y1243324D01*
X151453Y1243321D01*
X151451Y1243319D01*
X151562Y1242143D01*
X151567Y1242138D01*
X151564Y1242134D01*
X151902Y1241002D01*
X151908Y1240998D01*
X151906Y1240993D01*
X152458Y1239949D01*
X152465Y1239946D01*
X152463Y1239941D01*
X153209Y1239025D01*
X153216Y1239024D01*
X153216Y1239018D01*
X154126Y1238265D01*
X154133Y1238265D01*
X154134Y1238260D01*
X155173Y1237699D01*
X155180Y1237700D01*
X155182Y1237695D01*
X156311Y1237348D01*
X156317Y1237350D01*
X156320Y1237346D01*
X157495Y1237225D01*
X157502Y1237229D01*
G37*
G36*
X1005822Y1237229D02*
X1005822Y1237229D01*
X1005826Y1237225D01*
X1007166Y1237382D01*
X1007172Y1237387D01*
X1007177Y1237384D01*
X1008448Y1237835D01*
X1008453Y1237842D01*
X1008458Y1237840D01*
X1009597Y1238562D01*
X1009600Y1238570D01*
X1009606Y1238569D01*
X1010556Y1239527D01*
X1010557Y1239535D01*
X1010563Y1239536D01*
X1011276Y1240681D01*
X1011275Y1240690D01*
X1011281Y1240691D01*
X1011721Y1241967D01*
X1011719Y1241974D01*
X1011723Y1241977D01*
X1011869Y1243319D01*
X1011867Y1243322D01*
X1011869Y1243324D01*
X1011869Y1249324D01*
X1011867Y1249328D01*
X1011869Y1249330D01*
X1011714Y1250659D01*
X1011708Y1250665D01*
X1011711Y1250669D01*
X1011264Y1251930D01*
X1011257Y1251935D01*
X1011259Y1251940D01*
X1010542Y1253070D01*
X1010535Y1253073D01*
X1010536Y1253079D01*
X1009586Y1254021D01*
X1009577Y1254022D01*
X1009577Y1254028D01*
X1008441Y1254735D01*
X1008433Y1254734D01*
X1008431Y1254740D01*
X1007166Y1255176D01*
X1007158Y1255174D01*
X1007156Y1255179D01*
X1005825Y1255323D01*
X1005819Y1255319D01*
X1005815Y1255323D01*
X1004649Y1255213D01*
X1004644Y1255208D01*
X1004640Y1255211D01*
X1003517Y1254876D01*
X1003513Y1254870D01*
X1003509Y1254872D01*
X1002473Y1254324D01*
X1002470Y1254318D01*
X1002465Y1254319D01*
X1001557Y1253580D01*
X1001555Y1253573D01*
X1001550Y1253573D01*
X1000803Y1252671D01*
X1000803Y1252664D01*
X1000798Y1252663D01*
X1000241Y1251632D01*
X1000242Y1251625D01*
X1000237Y1251623D01*
X999893Y1250504D01*
X999895Y1250497D01*
X999891Y1250494D01*
X999771Y1249329D01*
X999773Y1249326D01*
X999771Y1249324D01*
X999771Y1243324D01*
X999773Y1243321D01*
X999771Y1243319D01*
X999882Y1242143D01*
X999887Y1242138D01*
X999884Y1242134D01*
X1000222Y1241002D01*
X1000228Y1240998D01*
X1000226Y1240993D01*
X1000778Y1239949D01*
X1000785Y1239946D01*
X1000783Y1239941D01*
X1001529Y1239025D01*
X1001536Y1239024D01*
X1001536Y1239018D01*
X1002446Y1238265D01*
X1002453Y1238265D01*
X1002454Y1238260D01*
X1003493Y1237699D01*
X1003500Y1237700D01*
X1003502Y1237695D01*
X1004631Y1237348D01*
X1004637Y1237350D01*
X1004640Y1237346D01*
X1005815Y1237225D01*
X1005822Y1237229D01*
G37*
G36*
X538462Y1237229D02*
X538462Y1237229D01*
X538466Y1237225D01*
X539806Y1237382D01*
X539812Y1237387D01*
X539817Y1237384D01*
X541088Y1237835D01*
X541093Y1237842D01*
X541098Y1237840D01*
X542237Y1238562D01*
X542240Y1238570D01*
X542246Y1238569D01*
X543196Y1239527D01*
X543197Y1239535D01*
X543203Y1239536D01*
X543916Y1240681D01*
X543915Y1240690D01*
X543921Y1240691D01*
X544361Y1241967D01*
X544359Y1241974D01*
X544363Y1241977D01*
X544509Y1243319D01*
X544507Y1243322D01*
X544509Y1243324D01*
X544509Y1249324D01*
X544507Y1249328D01*
X544509Y1249330D01*
X544354Y1250659D01*
X544348Y1250665D01*
X544351Y1250669D01*
X543904Y1251930D01*
X543897Y1251935D01*
X543899Y1251940D01*
X543182Y1253070D01*
X543175Y1253073D01*
X543176Y1253079D01*
X542226Y1254021D01*
X542217Y1254022D01*
X542217Y1254028D01*
X541081Y1254735D01*
X541073Y1254734D01*
X541071Y1254740D01*
X539806Y1255176D01*
X539798Y1255174D01*
X539796Y1255179D01*
X538465Y1255323D01*
X538459Y1255319D01*
X538455Y1255323D01*
X537289Y1255213D01*
X537284Y1255208D01*
X537280Y1255211D01*
X536157Y1254876D01*
X536153Y1254870D01*
X536149Y1254872D01*
X535113Y1254324D01*
X535110Y1254318D01*
X535105Y1254319D01*
X534197Y1253580D01*
X534195Y1253573D01*
X534190Y1253573D01*
X533443Y1252671D01*
X533443Y1252664D01*
X533438Y1252663D01*
X532881Y1251632D01*
X532882Y1251625D01*
X532877Y1251623D01*
X532533Y1250504D01*
X532535Y1250497D01*
X532531Y1250494D01*
X532411Y1249329D01*
X532413Y1249326D01*
X532411Y1249324D01*
X532411Y1243324D01*
X532413Y1243321D01*
X532411Y1243319D01*
X532522Y1242143D01*
X532527Y1242138D01*
X532524Y1242134D01*
X532862Y1241002D01*
X532868Y1240998D01*
X532866Y1240993D01*
X533418Y1239949D01*
X533425Y1239946D01*
X533423Y1239941D01*
X534169Y1239025D01*
X534176Y1239024D01*
X534176Y1239018D01*
X535086Y1238265D01*
X535093Y1238265D01*
X535094Y1238260D01*
X536133Y1237699D01*
X536140Y1237700D01*
X536142Y1237695D01*
X537271Y1237348D01*
X537277Y1237350D01*
X537280Y1237346D01*
X538455Y1237225D01*
X538462Y1237229D01*
G37*
G36*
X858542Y1237229D02*
X858542Y1237229D01*
X858546Y1237225D01*
X859886Y1237382D01*
X859892Y1237387D01*
X859897Y1237384D01*
X861168Y1237835D01*
X861173Y1237842D01*
X861178Y1237840D01*
X862317Y1238562D01*
X862320Y1238570D01*
X862326Y1238569D01*
X863276Y1239527D01*
X863277Y1239535D01*
X863283Y1239536D01*
X863996Y1240681D01*
X863995Y1240690D01*
X864001Y1240691D01*
X864441Y1241967D01*
X864439Y1241974D01*
X864443Y1241977D01*
X864589Y1243319D01*
X864587Y1243322D01*
X864589Y1243324D01*
X864589Y1249324D01*
X864587Y1249328D01*
X864589Y1249330D01*
X864434Y1250659D01*
X864428Y1250665D01*
X864431Y1250669D01*
X863984Y1251930D01*
X863977Y1251935D01*
X863979Y1251940D01*
X863262Y1253070D01*
X863255Y1253073D01*
X863256Y1253079D01*
X862306Y1254021D01*
X862297Y1254022D01*
X862297Y1254028D01*
X861161Y1254735D01*
X861153Y1254734D01*
X861151Y1254740D01*
X859886Y1255176D01*
X859878Y1255174D01*
X859876Y1255179D01*
X858545Y1255323D01*
X858539Y1255319D01*
X858535Y1255323D01*
X857369Y1255213D01*
X857364Y1255208D01*
X857360Y1255211D01*
X856237Y1254876D01*
X856233Y1254870D01*
X856229Y1254872D01*
X855193Y1254324D01*
X855190Y1254318D01*
X855185Y1254319D01*
X854277Y1253580D01*
X854275Y1253573D01*
X854270Y1253573D01*
X853523Y1252671D01*
X853523Y1252664D01*
X853518Y1252663D01*
X852961Y1251632D01*
X852962Y1251625D01*
X852957Y1251623D01*
X852613Y1250504D01*
X852615Y1250497D01*
X852611Y1250494D01*
X852491Y1249329D01*
X852493Y1249326D01*
X852491Y1249324D01*
X852491Y1243324D01*
X852493Y1243321D01*
X852491Y1243319D01*
X852602Y1242143D01*
X852607Y1242138D01*
X852604Y1242134D01*
X852942Y1241002D01*
X852948Y1240998D01*
X852946Y1240993D01*
X853498Y1239949D01*
X853505Y1239946D01*
X853503Y1239941D01*
X854249Y1239025D01*
X854256Y1239024D01*
X854256Y1239018D01*
X855166Y1238265D01*
X855173Y1238265D01*
X855174Y1238260D01*
X856213Y1237699D01*
X856220Y1237700D01*
X856222Y1237695D01*
X857351Y1237348D01*
X857357Y1237350D01*
X857360Y1237346D01*
X858535Y1237225D01*
X858542Y1237229D01*
G37*
G36*
X1473182Y1237229D02*
X1473182Y1237229D01*
X1473186Y1237225D01*
X1474526Y1237382D01*
X1474532Y1237387D01*
X1474537Y1237384D01*
X1475808Y1237835D01*
X1475813Y1237842D01*
X1475818Y1237840D01*
X1476957Y1238562D01*
X1476960Y1238570D01*
X1476966Y1238569D01*
X1477916Y1239527D01*
X1477917Y1239535D01*
X1477923Y1239536D01*
X1478636Y1240681D01*
X1478635Y1240690D01*
X1478641Y1240691D01*
X1479081Y1241967D01*
X1479079Y1241974D01*
X1479083Y1241977D01*
X1479229Y1243319D01*
X1479227Y1243322D01*
X1479229Y1243324D01*
X1479229Y1249324D01*
X1479227Y1249328D01*
X1479229Y1249330D01*
X1479074Y1250659D01*
X1479068Y1250665D01*
X1479071Y1250669D01*
X1478624Y1251930D01*
X1478617Y1251935D01*
X1478619Y1251940D01*
X1477902Y1253070D01*
X1477895Y1253073D01*
X1477896Y1253079D01*
X1476946Y1254021D01*
X1476937Y1254022D01*
X1476937Y1254028D01*
X1475801Y1254735D01*
X1475793Y1254734D01*
X1475791Y1254740D01*
X1474526Y1255176D01*
X1474518Y1255174D01*
X1474516Y1255179D01*
X1473185Y1255323D01*
X1473179Y1255319D01*
X1473175Y1255323D01*
X1472009Y1255213D01*
X1472004Y1255208D01*
X1472000Y1255211D01*
X1470877Y1254876D01*
X1470873Y1254870D01*
X1470869Y1254872D01*
X1469833Y1254324D01*
X1469830Y1254318D01*
X1469825Y1254319D01*
X1468917Y1253580D01*
X1468915Y1253573D01*
X1468910Y1253573D01*
X1468163Y1252671D01*
X1468163Y1252664D01*
X1468158Y1252663D01*
X1467601Y1251632D01*
X1467602Y1251625D01*
X1467597Y1251623D01*
X1467253Y1250504D01*
X1467255Y1250497D01*
X1467251Y1250494D01*
X1467131Y1249329D01*
X1467133Y1249326D01*
X1467131Y1249324D01*
X1467131Y1243324D01*
X1467133Y1243321D01*
X1467131Y1243319D01*
X1467242Y1242143D01*
X1467247Y1242138D01*
X1467244Y1242134D01*
X1467582Y1241002D01*
X1467588Y1240998D01*
X1467586Y1240993D01*
X1468138Y1239949D01*
X1468145Y1239946D01*
X1468143Y1239941D01*
X1468889Y1239025D01*
X1468896Y1239024D01*
X1468896Y1239018D01*
X1469806Y1238265D01*
X1469813Y1238265D01*
X1469814Y1238260D01*
X1470853Y1237699D01*
X1470860Y1237700D01*
X1470862Y1237695D01*
X1471991Y1237348D01*
X1471997Y1237350D01*
X1472000Y1237346D01*
X1473175Y1237225D01*
X1473182Y1237229D01*
G37*
G36*
X772142Y1237229D02*
X772142Y1237229D01*
X772146Y1237225D01*
X773486Y1237382D01*
X773492Y1237387D01*
X773497Y1237384D01*
X774768Y1237835D01*
X774773Y1237842D01*
X774778Y1237840D01*
X775917Y1238562D01*
X775920Y1238570D01*
X775926Y1238569D01*
X776876Y1239527D01*
X776877Y1239535D01*
X776883Y1239536D01*
X777596Y1240681D01*
X777595Y1240690D01*
X777601Y1240691D01*
X778041Y1241967D01*
X778039Y1241974D01*
X778043Y1241977D01*
X778189Y1243319D01*
X778187Y1243322D01*
X778189Y1243324D01*
X778189Y1249324D01*
X778187Y1249328D01*
X778189Y1249330D01*
X778034Y1250659D01*
X778028Y1250665D01*
X778031Y1250669D01*
X777584Y1251930D01*
X777577Y1251935D01*
X777579Y1251940D01*
X776862Y1253070D01*
X776855Y1253073D01*
X776856Y1253079D01*
X775906Y1254021D01*
X775897Y1254022D01*
X775897Y1254028D01*
X774761Y1254735D01*
X774753Y1254734D01*
X774751Y1254740D01*
X773486Y1255176D01*
X773478Y1255174D01*
X773476Y1255179D01*
X772145Y1255323D01*
X772139Y1255319D01*
X772135Y1255323D01*
X770969Y1255213D01*
X770964Y1255208D01*
X770960Y1255211D01*
X769837Y1254876D01*
X769833Y1254870D01*
X769829Y1254872D01*
X768793Y1254324D01*
X768790Y1254318D01*
X768785Y1254319D01*
X767877Y1253580D01*
X767875Y1253573D01*
X767870Y1253573D01*
X767123Y1252671D01*
X767123Y1252664D01*
X767118Y1252663D01*
X766561Y1251632D01*
X766562Y1251625D01*
X766557Y1251623D01*
X766213Y1250504D01*
X766215Y1250497D01*
X766211Y1250494D01*
X766091Y1249329D01*
X766093Y1249326D01*
X766091Y1249324D01*
X766091Y1243324D01*
X766093Y1243321D01*
X766091Y1243319D01*
X766202Y1242143D01*
X766207Y1242138D01*
X766204Y1242134D01*
X766542Y1241002D01*
X766548Y1240998D01*
X766546Y1240993D01*
X767098Y1239949D01*
X767105Y1239946D01*
X767103Y1239941D01*
X767849Y1239025D01*
X767856Y1239024D01*
X767856Y1239018D01*
X768766Y1238265D01*
X768773Y1238265D01*
X768774Y1238260D01*
X769813Y1237699D01*
X769820Y1237700D01*
X769822Y1237695D01*
X770951Y1237348D01*
X770957Y1237350D01*
X770960Y1237346D01*
X772135Y1237225D01*
X772142Y1237229D01*
G37*
G36*
X624862Y1237229D02*
X624862Y1237229D01*
X624866Y1237225D01*
X626206Y1237382D01*
X626212Y1237387D01*
X626217Y1237384D01*
X627488Y1237835D01*
X627493Y1237842D01*
X627498Y1237840D01*
X628637Y1238562D01*
X628640Y1238570D01*
X628646Y1238569D01*
X629596Y1239527D01*
X629597Y1239535D01*
X629603Y1239536D01*
X630316Y1240681D01*
X630315Y1240690D01*
X630321Y1240691D01*
X630761Y1241967D01*
X630759Y1241974D01*
X630763Y1241977D01*
X630909Y1243319D01*
X630907Y1243322D01*
X630909Y1243324D01*
X630909Y1249324D01*
X630907Y1249328D01*
X630909Y1249330D01*
X630754Y1250659D01*
X630748Y1250665D01*
X630751Y1250669D01*
X630304Y1251930D01*
X630297Y1251935D01*
X630299Y1251940D01*
X629582Y1253070D01*
X629575Y1253073D01*
X629576Y1253079D01*
X628626Y1254021D01*
X628617Y1254022D01*
X628617Y1254028D01*
X627481Y1254735D01*
X627473Y1254734D01*
X627471Y1254740D01*
X626206Y1255176D01*
X626198Y1255174D01*
X626196Y1255179D01*
X624865Y1255323D01*
X624859Y1255319D01*
X624855Y1255323D01*
X623689Y1255213D01*
X623684Y1255208D01*
X623680Y1255211D01*
X622557Y1254876D01*
X622553Y1254870D01*
X622549Y1254872D01*
X621513Y1254324D01*
X621510Y1254318D01*
X621505Y1254319D01*
X620597Y1253580D01*
X620595Y1253573D01*
X620590Y1253573D01*
X619843Y1252671D01*
X619843Y1252664D01*
X619838Y1252663D01*
X619281Y1251632D01*
X619282Y1251625D01*
X619277Y1251623D01*
X618933Y1250504D01*
X618935Y1250497D01*
X618931Y1250494D01*
X618811Y1249329D01*
X618813Y1249326D01*
X618811Y1249324D01*
X618811Y1243324D01*
X618813Y1243321D01*
X618811Y1243319D01*
X618922Y1242143D01*
X618927Y1242138D01*
X618924Y1242134D01*
X619262Y1241002D01*
X619268Y1240998D01*
X619266Y1240993D01*
X619818Y1239949D01*
X619825Y1239946D01*
X619823Y1239941D01*
X620569Y1239025D01*
X620576Y1239024D01*
X620576Y1239018D01*
X621486Y1238265D01*
X621493Y1238265D01*
X621494Y1238260D01*
X622533Y1237699D01*
X622540Y1237700D01*
X622542Y1237695D01*
X623671Y1237348D01*
X623677Y1237350D01*
X623680Y1237346D01*
X624855Y1237225D01*
X624862Y1237229D01*
G37*
G36*
X304782Y1237229D02*
X304782Y1237229D01*
X304786Y1237225D01*
X306126Y1237382D01*
X306132Y1237387D01*
X306137Y1237384D01*
X307408Y1237835D01*
X307413Y1237842D01*
X307418Y1237840D01*
X308557Y1238562D01*
X308560Y1238570D01*
X308566Y1238569D01*
X309516Y1239527D01*
X309517Y1239535D01*
X309523Y1239536D01*
X310236Y1240681D01*
X310235Y1240690D01*
X310241Y1240691D01*
X310681Y1241967D01*
X310679Y1241974D01*
X310683Y1241977D01*
X310829Y1243319D01*
X310827Y1243322D01*
X310829Y1243324D01*
X310829Y1249324D01*
X310827Y1249328D01*
X310829Y1249330D01*
X310674Y1250659D01*
X310668Y1250665D01*
X310671Y1250669D01*
X310224Y1251930D01*
X310217Y1251935D01*
X310219Y1251940D01*
X309502Y1253070D01*
X309495Y1253073D01*
X309496Y1253079D01*
X308546Y1254021D01*
X308537Y1254022D01*
X308537Y1254028D01*
X307401Y1254735D01*
X307393Y1254734D01*
X307391Y1254740D01*
X306126Y1255176D01*
X306118Y1255174D01*
X306116Y1255179D01*
X304785Y1255323D01*
X304779Y1255319D01*
X304775Y1255323D01*
X303609Y1255213D01*
X303604Y1255208D01*
X303600Y1255211D01*
X302477Y1254876D01*
X302473Y1254870D01*
X302469Y1254872D01*
X301433Y1254324D01*
X301430Y1254318D01*
X301425Y1254319D01*
X300517Y1253580D01*
X300515Y1253573D01*
X300510Y1253573D01*
X299763Y1252671D01*
X299763Y1252664D01*
X299758Y1252663D01*
X299201Y1251632D01*
X299202Y1251625D01*
X299197Y1251623D01*
X298853Y1250504D01*
X298855Y1250497D01*
X298851Y1250494D01*
X298731Y1249329D01*
X298733Y1249326D01*
X298731Y1249324D01*
X298731Y1243324D01*
X298733Y1243321D01*
X298731Y1243319D01*
X298842Y1242143D01*
X298847Y1242138D01*
X298844Y1242134D01*
X299182Y1241002D01*
X299188Y1240998D01*
X299186Y1240993D01*
X299738Y1239949D01*
X299745Y1239946D01*
X299743Y1239941D01*
X300489Y1239025D01*
X300496Y1239024D01*
X300496Y1239018D01*
X301406Y1238265D01*
X301413Y1238265D01*
X301414Y1238260D01*
X302453Y1237699D01*
X302460Y1237700D01*
X302462Y1237695D01*
X303591Y1237348D01*
X303597Y1237350D01*
X303600Y1237346D01*
X304775Y1237225D01*
X304782Y1237229D01*
G37*
D10*
X96440Y210058D03*
X86440Y210058D03*
X109300Y254000D03*
X119300Y254000D03*
D11*
X54000Y228299D03*
X63500Y228299D03*
X73000Y228299D03*
X73000Y254301D03*
X54000Y254301D03*
D10*
X71200Y200152D03*
X81200Y200152D03*
X119300Y152146D03*
X109300Y152146D03*
D12*
X131010Y288610D02*
X131010Y295590D01*
X137990Y295590D01*
X137990Y288610D01*
X131010Y288610D01*
X131010Y293410D02*
X137990Y293410D01*
X113470Y295590D02*
X113470Y288610D01*
X113470Y295590D02*
X120450Y295590D01*
X120450Y288610D01*
X113470Y288610D01*
X113470Y293410D02*
X120450Y293410D01*
D10*
X86440Y292100D03*
X96440Y292100D03*
D13*
X72000Y266700D03*
X55000Y266700D03*
D14*
X87122Y258690D03*
X87122Y241690D03*
D10*
X195500Y77470D03*
X185500Y77470D03*
X181436Y113792D03*
X191436Y113792D03*
D15*
X181300Y103020D03*
X199700Y96520D03*
X199700Y90020D03*
X199700Y103020D03*
X181300Y96520D03*
X181300Y90020D03*
D16*
X14050Y116900D03*
X14050Y60900D03*
D17*
X50800Y103900D03*
X50800Y93900D03*
X50800Y83900D03*
X50800Y73900D03*
D10*
X182880Y147400D03*
X182880Y157400D03*
X95250Y229282D03*
X95250Y219282D03*
D12*
X131010Y307660D02*
X131010Y314640D01*
X137990Y314640D01*
X137990Y307660D01*
X131010Y307660D01*
X131010Y312460D02*
X137990Y312460D01*
X113470Y314640D02*
X113470Y307660D01*
X113470Y314640D02*
X120450Y314640D01*
X120450Y307660D01*
X113470Y307660D01*
X113470Y312460D02*
X120450Y312460D01*
D10*
X83900Y311150D03*
X93900Y311150D03*
X144700Y228600D03*
X134700Y228600D03*
D18*
X12700Y558800D03*
X222250Y33020D03*
D19*
X25400Y25400D03*
X203200Y25400D03*
D20*
X144600Y199010D03*
X144600Y215010D03*
X185600Y215010D03*
X185600Y199010D03*
X144600Y243460D03*
X144600Y259460D03*
X185600Y259460D03*
X185600Y243460D03*
D21*
X124300Y181000D03*
X124300Y200000D03*
X103300Y190500D03*
D22*
X121800Y58576D03*
X116800Y58576D03*
D23*
X146550Y58576D03*
X138800Y58576D03*
D22*
X131800Y58576D03*
X126800Y58576D03*
X106800Y58576D03*
X111800Y58576D03*
D23*
X82050Y58576D03*
X89800Y58576D03*
D22*
X96800Y58576D03*
X101800Y58576D03*
D24*
X85400Y47526D03*
X143200Y47526D03*
D10*
X165100Y26750D03*
X165100Y36750D03*
X63500Y26750D03*
X63500Y36750D03*
D25*
X125800Y165100D03*
X102800Y165100D03*
D26*
X69850Y72076D03*
X82550Y72076D03*
X95250Y72076D03*
X107950Y72076D03*
X120650Y72076D03*
X133350Y72076D03*
X146050Y72076D03*
X158750Y72076D03*
X158750Y128076D03*
X146050Y128076D03*
X133350Y128076D03*
X120650Y128076D03*
X107950Y128076D03*
X95250Y128076D03*
X82550Y128076D03*
X69850Y128076D03*
D10*
X53340Y127174D03*
X53340Y117174D03*
X86694Y272034D03*
X96694Y272034D03*
D12*
X131010Y269560D02*
X131010Y276540D01*
X137990Y276540D01*
X137990Y269560D01*
X131010Y269560D01*
X131010Y274360D02*
X137990Y274360D01*
X113470Y276540D02*
X113470Y269560D01*
X113470Y276540D02*
X120450Y276540D01*
X120450Y269560D01*
X113470Y269560D01*
X113470Y274360D02*
X120450Y274360D01*
D27*
X56000Y302000D03*
X61000Y302000D03*
X66000Y302000D03*
X71000Y302000D03*
X71000Y282000D03*
X66000Y282000D03*
X61000Y282000D03*
X56000Y282000D03*
D28*
X63500Y292100D03*
D10*
X86106Y229282D03*
X86106Y219282D03*
X165020Y174752D03*
X155020Y174752D03*
X69930Y152654D03*
X79930Y152654D03*
D29*
X211670Y558552D03*
X222670Y558552D03*
X222670Y540252D03*
X211670Y540252D03*
D10*
X210566Y578024D03*
X210566Y568024D03*
D30*
X72560Y167800D03*
X72560Y187800D03*
D31*
X20560Y143800D03*
X20560Y211800D03*
D11*
X104800Y215599D03*
X114300Y215599D03*
X123800Y215599D03*
X123800Y241601D03*
X104800Y241601D03*
D32*
X139399Y163932D03*
X139399Y154432D03*
X139399Y144932D03*
X165401Y144932D03*
X165401Y163932D03*
D33*
X31920Y508800D03*
X31920Y496100D03*
X31920Y483400D03*
X31920Y470700D03*
X31920Y458000D03*
X31920Y445300D03*
X31920Y432600D03*
X31920Y419900D03*
X31920Y407200D03*
X31920Y394500D03*
X31920Y381800D03*
X31920Y369100D03*
X31920Y356400D03*
X31920Y343700D03*
D34*
X57150Y328800D03*
X69850Y328800D03*
X82550Y328800D03*
X95250Y328800D03*
X107950Y328800D03*
X120650Y328800D03*
X133350Y328800D03*
X146050Y328800D03*
X158750Y328800D03*
X171450Y328800D03*
D33*
X196680Y343700D03*
X196680Y356400D03*
X196680Y369100D03*
X196680Y381800D03*
X196680Y394500D03*
X196680Y407200D03*
X196680Y419900D03*
X196680Y432600D03*
X196680Y445300D03*
X196680Y458000D03*
X196680Y470700D03*
X196680Y483400D03*
X196680Y496100D03*
X196680Y508800D03*
D35*
X98990Y435380D03*
X117440Y453590D03*
X99140Y453590D03*
X80840Y453590D03*
X80840Y435290D03*
X117540Y435590D03*
X117440Y416990D03*
X99140Y416890D03*
X80840Y416990D03*
D36*
X215900Y520700D03*
X215900Y495300D03*
X215900Y469900D03*
X215900Y444500D03*
X215900Y419100D03*
X215900Y393700D03*
X215900Y368300D03*
X215900Y342900D03*
X215900Y317500D03*
X215900Y292100D03*
X215900Y266700D03*
X215900Y241300D03*
X215900Y215900D03*
X215900Y190500D03*
X215900Y165100D03*
X215900Y139700D03*
X12700Y241300D03*
X12700Y266700D03*
X12700Y292100D03*
X12700Y317500D03*
X12700Y342900D03*
X12700Y368300D03*
X12700Y393700D03*
X12700Y419100D03*
X12700Y444500D03*
X12700Y469900D03*
X12700Y495300D03*
X12700Y520700D03*
D10*
X330120Y210058D03*
X320120Y210058D03*
X342980Y254000D03*
X352980Y254000D03*
D11*
X287680Y228299D03*
X297180Y228299D03*
X306680Y228299D03*
X306680Y254301D03*
X287680Y254301D03*
D10*
X304880Y200152D03*
X314880Y200152D03*
X352980Y152146D03*
X342980Y152146D03*
D12*
X364690Y288610D02*
X364690Y295590D01*
X371670Y295590D01*
X371670Y288610D01*
X364690Y288610D01*
X364690Y293410D02*
X371670Y293410D01*
X347150Y295590D02*
X347150Y288610D01*
X347150Y295590D02*
X354130Y295590D01*
X354130Y288610D01*
X347150Y288610D01*
X347150Y293410D02*
X354130Y293410D01*
D10*
X320120Y292100D03*
X330120Y292100D03*
D13*
X305680Y266700D03*
X288680Y266700D03*
D14*
X320802Y258690D03*
X320802Y241690D03*
D10*
X429180Y77470D03*
X419180Y77470D03*
X415116Y113792D03*
X425116Y113792D03*
D15*
X414980Y103020D03*
X433380Y96520D03*
X433380Y90020D03*
X433380Y103020D03*
X414980Y96520D03*
X414980Y90020D03*
D16*
X247730Y116900D03*
X247730Y60900D03*
D17*
X284480Y103900D03*
X284480Y93900D03*
X284480Y83900D03*
X284480Y73900D03*
D10*
X416560Y147400D03*
X416560Y157400D03*
X328930Y229282D03*
X328930Y219282D03*
D12*
X364690Y307660D02*
X364690Y314640D01*
X371670Y314640D01*
X371670Y307660D01*
X364690Y307660D01*
X364690Y312460D02*
X371670Y312460D01*
X347150Y314640D02*
X347150Y307660D01*
X347150Y314640D02*
X354130Y314640D01*
X354130Y307660D01*
X347150Y307660D01*
X347150Y312460D02*
X354130Y312460D01*
D10*
X317580Y311150D03*
X327580Y311150D03*
X378380Y228600D03*
X368380Y228600D03*
D18*
X246380Y558800D03*
X455930Y33020D03*
D19*
X259080Y25400D03*
X436880Y25400D03*
D20*
X378280Y199010D03*
X378280Y215010D03*
X419280Y215010D03*
X419280Y199010D03*
X378280Y243460D03*
X378280Y259460D03*
X419280Y259460D03*
X419280Y243460D03*
D21*
X357980Y181000D03*
X357980Y200000D03*
X336980Y190500D03*
D22*
X355480Y58576D03*
X350480Y58576D03*
D23*
X380230Y58576D03*
X372480Y58576D03*
D22*
X365480Y58576D03*
X360480Y58576D03*
X340480Y58576D03*
X345480Y58576D03*
D23*
X315730Y58576D03*
X323480Y58576D03*
D22*
X330480Y58576D03*
X335480Y58576D03*
D24*
X319080Y47526D03*
X376880Y47526D03*
D10*
X398780Y26750D03*
X398780Y36750D03*
X297180Y26750D03*
X297180Y36750D03*
D25*
X359480Y165100D03*
X336480Y165100D03*
D26*
X303530Y72076D03*
X316230Y72076D03*
X328930Y72076D03*
X341630Y72076D03*
X354330Y72076D03*
X367030Y72076D03*
X379730Y72076D03*
X392430Y72076D03*
X392430Y128076D03*
X379730Y128076D03*
X367030Y128076D03*
X354330Y128076D03*
X341630Y128076D03*
X328930Y128076D03*
X316230Y128076D03*
X303530Y128076D03*
D10*
X287020Y127174D03*
X287020Y117174D03*
X320374Y272034D03*
X330374Y272034D03*
D12*
X364690Y269560D02*
X364690Y276540D01*
X371670Y276540D01*
X371670Y269560D01*
X364690Y269560D01*
X364690Y274360D02*
X371670Y274360D01*
X347150Y276540D02*
X347150Y269560D01*
X347150Y276540D02*
X354130Y276540D01*
X354130Y269560D01*
X347150Y269560D01*
X347150Y274360D02*
X354130Y274360D01*
D27*
X289680Y302000D03*
X294680Y302000D03*
X299680Y302000D03*
X304680Y302000D03*
X304680Y282000D03*
X299680Y282000D03*
X294680Y282000D03*
X289680Y282000D03*
D28*
X297180Y292100D03*
D10*
X319786Y229282D03*
X319786Y219282D03*
X398700Y174752D03*
X388700Y174752D03*
X303610Y152654D03*
X313610Y152654D03*
D29*
X445350Y558552D03*
X456350Y558552D03*
X456350Y540252D03*
X445350Y540252D03*
D10*
X444246Y578024D03*
X444246Y568024D03*
D30*
X306240Y167800D03*
X306240Y187800D03*
D31*
X254240Y143800D03*
X254240Y211800D03*
D11*
X338480Y215599D03*
X347980Y215599D03*
X357480Y215599D03*
X357480Y241601D03*
X338480Y241601D03*
D32*
X373079Y163932D03*
X373079Y154432D03*
X373079Y144932D03*
X399081Y144932D03*
X399081Y163932D03*
D33*
X265600Y508800D03*
X265600Y496100D03*
X265600Y483400D03*
X265600Y470700D03*
X265600Y458000D03*
X265600Y445300D03*
X265600Y432600D03*
X265600Y419900D03*
X265600Y407200D03*
X265600Y394500D03*
X265600Y381800D03*
X265600Y369100D03*
X265600Y356400D03*
X265600Y343700D03*
D34*
X290830Y328800D03*
X303530Y328800D03*
X316230Y328800D03*
X328930Y328800D03*
X341630Y328800D03*
X354330Y328800D03*
X367030Y328800D03*
X379730Y328800D03*
X392430Y328800D03*
X405130Y328800D03*
D33*
X430360Y343700D03*
X430360Y356400D03*
X430360Y369100D03*
X430360Y381800D03*
X430360Y394500D03*
X430360Y407200D03*
X430360Y419900D03*
X430360Y432600D03*
X430360Y445300D03*
X430360Y458000D03*
X430360Y470700D03*
X430360Y483400D03*
X430360Y496100D03*
X430360Y508800D03*
D35*
X332670Y435380D03*
X351120Y453590D03*
X332820Y453590D03*
X314520Y453590D03*
X314520Y435290D03*
X351220Y435590D03*
X351120Y416990D03*
X332820Y416890D03*
X314520Y416990D03*
D36*
X449580Y520700D03*
X449580Y495300D03*
X449580Y469900D03*
X449580Y444500D03*
X449580Y419100D03*
X449580Y393700D03*
X449580Y368300D03*
X449580Y342900D03*
X449580Y317500D03*
X449580Y292100D03*
X449580Y266700D03*
X449580Y241300D03*
X449580Y215900D03*
X449580Y190500D03*
X449580Y165100D03*
X449580Y139700D03*
X246380Y241300D03*
X246380Y266700D03*
X246380Y292100D03*
X246380Y317500D03*
X246380Y342900D03*
X246380Y368300D03*
X246380Y393700D03*
X246380Y419100D03*
X246380Y444500D03*
X246380Y469900D03*
X246380Y495300D03*
X246380Y520700D03*
D10*
X563800Y210058D03*
X553800Y210058D03*
X576660Y254000D03*
X586660Y254000D03*
D11*
X521360Y228299D03*
X530860Y228299D03*
X540360Y228299D03*
X540360Y254301D03*
X521360Y254301D03*
D10*
X538560Y200152D03*
X548560Y200152D03*
X586660Y152146D03*
X576660Y152146D03*
D12*
X598370Y288610D02*
X598370Y295590D01*
X605350Y295590D01*
X605350Y288610D01*
X598370Y288610D01*
X598370Y293410D02*
X605350Y293410D01*
X580830Y295590D02*
X580830Y288610D01*
X580830Y295590D02*
X587810Y295590D01*
X587810Y288610D01*
X580830Y288610D01*
X580830Y293410D02*
X587810Y293410D01*
D10*
X553800Y292100D03*
X563800Y292100D03*
D13*
X539360Y266700D03*
X522360Y266700D03*
D14*
X554482Y258690D03*
X554482Y241690D03*
D10*
X662860Y77470D03*
X652860Y77470D03*
X648796Y113792D03*
X658796Y113792D03*
D15*
X648660Y103020D03*
X667060Y96520D03*
X667060Y90020D03*
X667060Y103020D03*
X648660Y96520D03*
X648660Y90020D03*
D16*
X481410Y116900D03*
X481410Y60900D03*
D17*
X518160Y103900D03*
X518160Y93900D03*
X518160Y83900D03*
X518160Y73900D03*
D10*
X650240Y147400D03*
X650240Y157400D03*
X562610Y229282D03*
X562610Y219282D03*
D12*
X598370Y307660D02*
X598370Y314640D01*
X605350Y314640D01*
X605350Y307660D01*
X598370Y307660D01*
X598370Y312460D02*
X605350Y312460D01*
X580830Y314640D02*
X580830Y307660D01*
X580830Y314640D02*
X587810Y314640D01*
X587810Y307660D01*
X580830Y307660D01*
X580830Y312460D02*
X587810Y312460D01*
D10*
X551260Y311150D03*
X561260Y311150D03*
X612060Y228600D03*
X602060Y228600D03*
D18*
X480060Y558800D03*
X689610Y33020D03*
D19*
X492760Y25400D03*
X670560Y25400D03*
D20*
X611960Y199010D03*
X611960Y215010D03*
X652960Y215010D03*
X652960Y199010D03*
X611960Y243460D03*
X611960Y259460D03*
X652960Y259460D03*
X652960Y243460D03*
D21*
X591660Y181000D03*
X591660Y200000D03*
X570660Y190500D03*
D22*
X589160Y58576D03*
X584160Y58576D03*
D23*
X613910Y58576D03*
X606160Y58576D03*
D22*
X599160Y58576D03*
X594160Y58576D03*
X574160Y58576D03*
X579160Y58576D03*
D23*
X549410Y58576D03*
X557160Y58576D03*
D22*
X564160Y58576D03*
X569160Y58576D03*
D24*
X552760Y47526D03*
X610560Y47526D03*
D10*
X632460Y26750D03*
X632460Y36750D03*
X530860Y26750D03*
X530860Y36750D03*
D25*
X593160Y165100D03*
X570160Y165100D03*
D26*
X537210Y72076D03*
X549910Y72076D03*
X562610Y72076D03*
X575310Y72076D03*
X588010Y72076D03*
X600710Y72076D03*
X613410Y72076D03*
X626110Y72076D03*
X626110Y128076D03*
X613410Y128076D03*
X600710Y128076D03*
X588010Y128076D03*
X575310Y128076D03*
X562610Y128076D03*
X549910Y128076D03*
X537210Y128076D03*
D10*
X520700Y127174D03*
X520700Y117174D03*
X554054Y272034D03*
X564054Y272034D03*
D12*
X598370Y269560D02*
X598370Y276540D01*
X605350Y276540D01*
X605350Y269560D01*
X598370Y269560D01*
X598370Y274360D02*
X605350Y274360D01*
X580830Y276540D02*
X580830Y269560D01*
X580830Y276540D02*
X587810Y276540D01*
X587810Y269560D01*
X580830Y269560D01*
X580830Y274360D02*
X587810Y274360D01*
D27*
X523360Y302000D03*
X528360Y302000D03*
X533360Y302000D03*
X538360Y302000D03*
X538360Y282000D03*
X533360Y282000D03*
X528360Y282000D03*
X523360Y282000D03*
D28*
X530860Y292100D03*
D10*
X553466Y229282D03*
X553466Y219282D03*
X632380Y174752D03*
X622380Y174752D03*
X537290Y152654D03*
X547290Y152654D03*
D29*
X679030Y558552D03*
X690030Y558552D03*
X690030Y540252D03*
X679030Y540252D03*
D10*
X677926Y578024D03*
X677926Y568024D03*
D30*
X539920Y167800D03*
X539920Y187800D03*
D31*
X487920Y143800D03*
X487920Y211800D03*
D11*
X572160Y215599D03*
X581660Y215599D03*
X591160Y215599D03*
X591160Y241601D03*
X572160Y241601D03*
D32*
X606759Y163932D03*
X606759Y154432D03*
X606759Y144932D03*
X632761Y144932D03*
X632761Y163932D03*
D33*
X499280Y508800D03*
X499280Y496100D03*
X499280Y483400D03*
X499280Y470700D03*
X499280Y458000D03*
X499280Y445300D03*
X499280Y432600D03*
X499280Y419900D03*
X499280Y407200D03*
X499280Y394500D03*
X499280Y381800D03*
X499280Y369100D03*
X499280Y356400D03*
X499280Y343700D03*
D34*
X524510Y328800D03*
X537210Y328800D03*
X549910Y328800D03*
X562610Y328800D03*
X575310Y328800D03*
X588010Y328800D03*
X600710Y328800D03*
X613410Y328800D03*
X626110Y328800D03*
X638810Y328800D03*
D33*
X664040Y343700D03*
X664040Y356400D03*
X664040Y369100D03*
X664040Y381800D03*
X664040Y394500D03*
X664040Y407200D03*
X664040Y419900D03*
X664040Y432600D03*
X664040Y445300D03*
X664040Y458000D03*
X664040Y470700D03*
X664040Y483400D03*
X664040Y496100D03*
X664040Y508800D03*
D35*
X566350Y435380D03*
X584800Y453590D03*
X566500Y453590D03*
X548200Y453590D03*
X548200Y435290D03*
X584900Y435590D03*
X584800Y416990D03*
X566500Y416890D03*
X548200Y416990D03*
D36*
X683260Y520700D03*
X683260Y495300D03*
X683260Y469900D03*
X683260Y444500D03*
X683260Y419100D03*
X683260Y393700D03*
X683260Y368300D03*
X683260Y342900D03*
X683260Y317500D03*
X683260Y292100D03*
X683260Y266700D03*
X683260Y241300D03*
X683260Y215900D03*
X683260Y190500D03*
X683260Y165100D03*
X683260Y139700D03*
X480060Y241300D03*
X480060Y266700D03*
X480060Y292100D03*
X480060Y317500D03*
X480060Y342900D03*
X480060Y368300D03*
X480060Y393700D03*
X480060Y419100D03*
X480060Y444500D03*
X480060Y469900D03*
X480060Y495300D03*
X480060Y520700D03*
D10*
X797480Y210058D03*
X787480Y210058D03*
X810340Y254000D03*
X820340Y254000D03*
D11*
X755040Y228299D03*
X764540Y228299D03*
X774040Y228299D03*
X774040Y254301D03*
X755040Y254301D03*
D10*
X772240Y200152D03*
X782240Y200152D03*
X820340Y152146D03*
X810340Y152146D03*
D12*
X832050Y288610D02*
X832050Y295590D01*
X839030Y295590D01*
X839030Y288610D01*
X832050Y288610D01*
X832050Y293410D02*
X839030Y293410D01*
X814510Y295590D02*
X814510Y288610D01*
X814510Y295590D02*
X821490Y295590D01*
X821490Y288610D01*
X814510Y288610D01*
X814510Y293410D02*
X821490Y293410D01*
D10*
X787480Y292100D03*
X797480Y292100D03*
D13*
X773040Y266700D03*
X756040Y266700D03*
D14*
X788162Y258690D03*
X788162Y241690D03*
D10*
X896540Y77470D03*
X886540Y77470D03*
X882476Y113792D03*
X892476Y113792D03*
D15*
X882340Y103020D03*
X900740Y96520D03*
X900740Y90020D03*
X900740Y103020D03*
X882340Y96520D03*
X882340Y90020D03*
D16*
X715090Y116900D03*
X715090Y60900D03*
D17*
X751840Y103900D03*
X751840Y93900D03*
X751840Y83900D03*
X751840Y73900D03*
D10*
X883920Y147400D03*
X883920Y157400D03*
X796290Y229282D03*
X796290Y219282D03*
D12*
X832050Y307660D02*
X832050Y314640D01*
X839030Y314640D01*
X839030Y307660D01*
X832050Y307660D01*
X832050Y312460D02*
X839030Y312460D01*
X814510Y314640D02*
X814510Y307660D01*
X814510Y314640D02*
X821490Y314640D01*
X821490Y307660D01*
X814510Y307660D01*
X814510Y312460D02*
X821490Y312460D01*
D10*
X784940Y311150D03*
X794940Y311150D03*
X845740Y228600D03*
X835740Y228600D03*
D18*
X713740Y558800D03*
X923290Y33020D03*
D19*
X726440Y25400D03*
X904240Y25400D03*
D20*
X845640Y199010D03*
X845640Y215010D03*
X886640Y215010D03*
X886640Y199010D03*
X845640Y243460D03*
X845640Y259460D03*
X886640Y259460D03*
X886640Y243460D03*
D21*
X825340Y181000D03*
X825340Y200000D03*
X804340Y190500D03*
D22*
X822840Y58576D03*
X817840Y58576D03*
D23*
X847590Y58576D03*
X839840Y58576D03*
D22*
X832840Y58576D03*
X827840Y58576D03*
X807840Y58576D03*
X812840Y58576D03*
D23*
X783090Y58576D03*
X790840Y58576D03*
D22*
X797840Y58576D03*
X802840Y58576D03*
D24*
X786440Y47526D03*
X844240Y47526D03*
D10*
X866140Y26750D03*
X866140Y36750D03*
X764540Y26750D03*
X764540Y36750D03*
D25*
X826840Y165100D03*
X803840Y165100D03*
D26*
X770890Y72076D03*
X783590Y72076D03*
X796290Y72076D03*
X808990Y72076D03*
X821690Y72076D03*
X834390Y72076D03*
X847090Y72076D03*
X859790Y72076D03*
X859790Y128076D03*
X847090Y128076D03*
X834390Y128076D03*
X821690Y128076D03*
X808990Y128076D03*
X796290Y128076D03*
X783590Y128076D03*
X770890Y128076D03*
D10*
X754380Y127174D03*
X754380Y117174D03*
X787734Y272034D03*
X797734Y272034D03*
D12*
X832050Y269560D02*
X832050Y276540D01*
X839030Y276540D01*
X839030Y269560D01*
X832050Y269560D01*
X832050Y274360D02*
X839030Y274360D01*
X814510Y276540D02*
X814510Y269560D01*
X814510Y276540D02*
X821490Y276540D01*
X821490Y269560D01*
X814510Y269560D01*
X814510Y274360D02*
X821490Y274360D01*
D27*
X757040Y302000D03*
X762040Y302000D03*
X767040Y302000D03*
X772040Y302000D03*
X772040Y282000D03*
X767040Y282000D03*
X762040Y282000D03*
X757040Y282000D03*
D28*
X764540Y292100D03*
D10*
X787146Y229282D03*
X787146Y219282D03*
X866060Y174752D03*
X856060Y174752D03*
X770970Y152654D03*
X780970Y152654D03*
D29*
X912710Y558552D03*
X923710Y558552D03*
X923710Y540252D03*
X912710Y540252D03*
D10*
X911606Y578024D03*
X911606Y568024D03*
D30*
X773600Y167800D03*
X773600Y187800D03*
D31*
X721600Y143800D03*
X721600Y211800D03*
D11*
X805840Y215599D03*
X815340Y215599D03*
X824840Y215599D03*
X824840Y241601D03*
X805840Y241601D03*
D32*
X840439Y163932D03*
X840439Y154432D03*
X840439Y144932D03*
X866441Y144932D03*
X866441Y163932D03*
D33*
X732960Y508800D03*
X732960Y496100D03*
X732960Y483400D03*
X732960Y470700D03*
X732960Y458000D03*
X732960Y445300D03*
X732960Y432600D03*
X732960Y419900D03*
X732960Y407200D03*
X732960Y394500D03*
X732960Y381800D03*
X732960Y369100D03*
X732960Y356400D03*
X732960Y343700D03*
D34*
X758190Y328800D03*
X770890Y328800D03*
X783590Y328800D03*
X796290Y328800D03*
X808990Y328800D03*
X821690Y328800D03*
X834390Y328800D03*
X847090Y328800D03*
X859790Y328800D03*
X872490Y328800D03*
D33*
X897720Y343700D03*
X897720Y356400D03*
X897720Y369100D03*
X897720Y381800D03*
X897720Y394500D03*
X897720Y407200D03*
X897720Y419900D03*
X897720Y432600D03*
X897720Y445300D03*
X897720Y458000D03*
X897720Y470700D03*
X897720Y483400D03*
X897720Y496100D03*
X897720Y508800D03*
D35*
X800030Y435380D03*
X818480Y453590D03*
X800180Y453590D03*
X781880Y453590D03*
X781880Y435290D03*
X818580Y435590D03*
X818480Y416990D03*
X800180Y416890D03*
X781880Y416990D03*
D36*
X916940Y520700D03*
X916940Y495300D03*
X916940Y469900D03*
X916940Y444500D03*
X916940Y419100D03*
X916940Y393700D03*
X916940Y368300D03*
X916940Y342900D03*
X916940Y317500D03*
X916940Y292100D03*
X916940Y266700D03*
X916940Y241300D03*
X916940Y215900D03*
X916940Y190500D03*
X916940Y165100D03*
X916940Y139700D03*
X713740Y241300D03*
X713740Y266700D03*
X713740Y292100D03*
X713740Y317500D03*
X713740Y342900D03*
X713740Y368300D03*
X713740Y393700D03*
X713740Y419100D03*
X713740Y444500D03*
X713740Y469900D03*
X713740Y495300D03*
X713740Y520700D03*
D10*
X1031160Y210058D03*
X1021160Y210058D03*
X1044020Y254000D03*
X1054020Y254000D03*
D11*
X988720Y228299D03*
X998220Y228299D03*
X1007720Y228299D03*
X1007720Y254301D03*
X988720Y254301D03*
D10*
X1005920Y200152D03*
X1015920Y200152D03*
X1054020Y152146D03*
X1044020Y152146D03*
D12*
X1065730Y288610D02*
X1065730Y295590D01*
X1072710Y295590D01*
X1072710Y288610D01*
X1065730Y288610D01*
X1065730Y293410D02*
X1072710Y293410D01*
X1048190Y295590D02*
X1048190Y288610D01*
X1048190Y295590D02*
X1055170Y295590D01*
X1055170Y288610D01*
X1048190Y288610D01*
X1048190Y293410D02*
X1055170Y293410D01*
D10*
X1021160Y292100D03*
X1031160Y292100D03*
D13*
X1006720Y266700D03*
X989720Y266700D03*
D14*
X1021842Y258690D03*
X1021842Y241690D03*
D10*
X1130220Y77470D03*
X1120220Y77470D03*
X1116156Y113792D03*
X1126156Y113792D03*
D15*
X1116020Y103020D03*
X1134420Y96520D03*
X1134420Y90020D03*
X1134420Y103020D03*
X1116020Y96520D03*
X1116020Y90020D03*
D16*
X948770Y116900D03*
X948770Y60900D03*
D17*
X985520Y103900D03*
X985520Y93900D03*
X985520Y83900D03*
X985520Y73900D03*
D10*
X1117600Y147400D03*
X1117600Y157400D03*
X1029970Y229282D03*
X1029970Y219282D03*
D12*
X1065730Y307660D02*
X1065730Y314640D01*
X1072710Y314640D01*
X1072710Y307660D01*
X1065730Y307660D01*
X1065730Y312460D02*
X1072710Y312460D01*
X1048190Y314640D02*
X1048190Y307660D01*
X1048190Y314640D02*
X1055170Y314640D01*
X1055170Y307660D01*
X1048190Y307660D01*
X1048190Y312460D02*
X1055170Y312460D01*
D10*
X1018620Y311150D03*
X1028620Y311150D03*
X1079420Y228600D03*
X1069420Y228600D03*
D18*
X947420Y558800D03*
X1156970Y33020D03*
D19*
X960120Y25400D03*
X1137920Y25400D03*
D20*
X1079320Y199010D03*
X1079320Y215010D03*
X1120320Y215010D03*
X1120320Y199010D03*
X1079320Y243460D03*
X1079320Y259460D03*
X1120320Y259460D03*
X1120320Y243460D03*
D21*
X1059020Y181000D03*
X1059020Y200000D03*
X1038020Y190500D03*
D22*
X1056520Y58576D03*
X1051520Y58576D03*
D23*
X1081270Y58576D03*
X1073520Y58576D03*
D22*
X1066520Y58576D03*
X1061520Y58576D03*
X1041520Y58576D03*
X1046520Y58576D03*
D23*
X1016770Y58576D03*
X1024520Y58576D03*
D22*
X1031520Y58576D03*
X1036520Y58576D03*
D24*
X1020120Y47526D03*
X1077920Y47526D03*
D10*
X1099820Y26750D03*
X1099820Y36750D03*
X998220Y26750D03*
X998220Y36750D03*
D25*
X1060520Y165100D03*
X1037520Y165100D03*
D26*
X1004570Y72076D03*
X1017270Y72076D03*
X1029970Y72076D03*
X1042670Y72076D03*
X1055370Y72076D03*
X1068070Y72076D03*
X1080770Y72076D03*
X1093470Y72076D03*
X1093470Y128076D03*
X1080770Y128076D03*
X1068070Y128076D03*
X1055370Y128076D03*
X1042670Y128076D03*
X1029970Y128076D03*
X1017270Y128076D03*
X1004570Y128076D03*
D10*
X988060Y127174D03*
X988060Y117174D03*
X1021414Y272034D03*
X1031414Y272034D03*
D12*
X1065730Y269560D02*
X1065730Y276540D01*
X1072710Y276540D01*
X1072710Y269560D01*
X1065730Y269560D01*
X1065730Y274360D02*
X1072710Y274360D01*
X1048190Y276540D02*
X1048190Y269560D01*
X1048190Y276540D02*
X1055170Y276540D01*
X1055170Y269560D01*
X1048190Y269560D01*
X1048190Y274360D02*
X1055170Y274360D01*
D27*
X990720Y302000D03*
X995720Y302000D03*
X1000720Y302000D03*
X1005720Y302000D03*
X1005720Y282000D03*
X1000720Y282000D03*
X995720Y282000D03*
X990720Y282000D03*
D28*
X998220Y292100D03*
D10*
X1020826Y229282D03*
X1020826Y219282D03*
X1099740Y174752D03*
X1089740Y174752D03*
X1004650Y152654D03*
X1014650Y152654D03*
D29*
X1146390Y558552D03*
X1157390Y558552D03*
X1157390Y540252D03*
X1146390Y540252D03*
D10*
X1145286Y578024D03*
X1145286Y568024D03*
D30*
X1007280Y167800D03*
X1007280Y187800D03*
D31*
X955280Y143800D03*
X955280Y211800D03*
D11*
X1039520Y215599D03*
X1049020Y215599D03*
X1058520Y215599D03*
X1058520Y241601D03*
X1039520Y241601D03*
D32*
X1074119Y163932D03*
X1074119Y154432D03*
X1074119Y144932D03*
X1100121Y144932D03*
X1100121Y163932D03*
D33*
X966640Y508800D03*
X966640Y496100D03*
X966640Y483400D03*
X966640Y470700D03*
X966640Y458000D03*
X966640Y445300D03*
X966640Y432600D03*
X966640Y419900D03*
X966640Y407200D03*
X966640Y394500D03*
X966640Y381800D03*
X966640Y369100D03*
X966640Y356400D03*
X966640Y343700D03*
D34*
X991870Y328800D03*
X1004570Y328800D03*
X1017270Y328800D03*
X1029970Y328800D03*
X1042670Y328800D03*
X1055370Y328800D03*
X1068070Y328800D03*
X1080770Y328800D03*
X1093470Y328800D03*
X1106170Y328800D03*
D33*
X1131400Y343700D03*
X1131400Y356400D03*
X1131400Y369100D03*
X1131400Y381800D03*
X1131400Y394500D03*
X1131400Y407200D03*
X1131400Y419900D03*
X1131400Y432600D03*
X1131400Y445300D03*
X1131400Y458000D03*
X1131400Y470700D03*
X1131400Y483400D03*
X1131400Y496100D03*
X1131400Y508800D03*
D35*
X1033710Y435380D03*
X1052160Y453590D03*
X1033860Y453590D03*
X1015560Y453590D03*
X1015560Y435290D03*
X1052260Y435590D03*
X1052160Y416990D03*
X1033860Y416890D03*
X1015560Y416990D03*
D36*
X1150620Y520700D03*
X1150620Y495300D03*
X1150620Y469900D03*
X1150620Y444500D03*
X1150620Y419100D03*
X1150620Y393700D03*
X1150620Y368300D03*
X1150620Y342900D03*
X1150620Y317500D03*
X1150620Y292100D03*
X1150620Y266700D03*
X1150620Y241300D03*
X1150620Y215900D03*
X1150620Y190500D03*
X1150620Y165100D03*
X1150620Y139700D03*
X947420Y241300D03*
X947420Y266700D03*
X947420Y292100D03*
X947420Y317500D03*
X947420Y342900D03*
X947420Y368300D03*
X947420Y393700D03*
X947420Y419100D03*
X947420Y444500D03*
X947420Y469900D03*
X947420Y495300D03*
X947420Y520700D03*
D10*
X1264840Y210058D03*
X1254840Y210058D03*
X1277700Y254000D03*
X1287700Y254000D03*
D11*
X1222400Y228299D03*
X1231900Y228299D03*
X1241400Y228299D03*
X1241400Y254301D03*
X1222400Y254301D03*
D10*
X1239600Y200152D03*
X1249600Y200152D03*
X1287700Y152146D03*
X1277700Y152146D03*
D12*
X1299410Y288610D02*
X1299410Y295590D01*
X1306390Y295590D01*
X1306390Y288610D01*
X1299410Y288610D01*
X1299410Y293410D02*
X1306390Y293410D01*
X1281870Y295590D02*
X1281870Y288610D01*
X1281870Y295590D02*
X1288850Y295590D01*
X1288850Y288610D01*
X1281870Y288610D01*
X1281870Y293410D02*
X1288850Y293410D01*
D10*
X1254840Y292100D03*
X1264840Y292100D03*
D13*
X1240400Y266700D03*
X1223400Y266700D03*
D14*
X1255522Y258690D03*
X1255522Y241690D03*
D10*
X1363900Y77470D03*
X1353900Y77470D03*
X1349836Y113792D03*
X1359836Y113792D03*
D15*
X1349700Y103020D03*
X1368100Y96520D03*
X1368100Y90020D03*
X1368100Y103020D03*
X1349700Y96520D03*
X1349700Y90020D03*
D16*
X1182450Y116900D03*
X1182450Y60900D03*
D17*
X1219200Y103900D03*
X1219200Y93900D03*
X1219200Y83900D03*
X1219200Y73900D03*
D10*
X1351280Y147400D03*
X1351280Y157400D03*
X1263650Y229282D03*
X1263650Y219282D03*
D12*
X1299410Y307660D02*
X1299410Y314640D01*
X1306390Y314640D01*
X1306390Y307660D01*
X1299410Y307660D01*
X1299410Y312460D02*
X1306390Y312460D01*
X1281870Y314640D02*
X1281870Y307660D01*
X1281870Y314640D02*
X1288850Y314640D01*
X1288850Y307660D01*
X1281870Y307660D01*
X1281870Y312460D02*
X1288850Y312460D01*
D10*
X1252300Y311150D03*
X1262300Y311150D03*
X1313100Y228600D03*
X1303100Y228600D03*
D18*
X1181100Y558800D03*
X1390650Y33020D03*
D19*
X1193800Y25400D03*
X1371600Y25400D03*
D20*
X1313000Y199010D03*
X1313000Y215010D03*
X1354000Y215010D03*
X1354000Y199010D03*
X1313000Y243460D03*
X1313000Y259460D03*
X1354000Y259460D03*
X1354000Y243460D03*
D21*
X1292700Y181000D03*
X1292700Y200000D03*
X1271700Y190500D03*
D22*
X1290200Y58576D03*
X1285200Y58576D03*
D23*
X1314950Y58576D03*
X1307200Y58576D03*
D22*
X1300200Y58576D03*
X1295200Y58576D03*
X1275200Y58576D03*
X1280200Y58576D03*
D23*
X1250450Y58576D03*
X1258200Y58576D03*
D22*
X1265200Y58576D03*
X1270200Y58576D03*
D24*
X1253800Y47526D03*
X1311600Y47526D03*
D10*
X1333500Y26750D03*
X1333500Y36750D03*
X1231900Y26750D03*
X1231900Y36750D03*
D25*
X1294200Y165100D03*
X1271200Y165100D03*
D26*
X1238250Y72076D03*
X1250950Y72076D03*
X1263650Y72076D03*
X1276350Y72076D03*
X1289050Y72076D03*
X1301750Y72076D03*
X1314450Y72076D03*
X1327150Y72076D03*
X1327150Y128076D03*
X1314450Y128076D03*
X1301750Y128076D03*
X1289050Y128076D03*
X1276350Y128076D03*
X1263650Y128076D03*
X1250950Y128076D03*
X1238250Y128076D03*
D10*
X1221740Y127174D03*
X1221740Y117174D03*
X1255094Y272034D03*
X1265094Y272034D03*
D12*
X1299410Y269560D02*
X1299410Y276540D01*
X1306390Y276540D01*
X1306390Y269560D01*
X1299410Y269560D01*
X1299410Y274360D02*
X1306390Y274360D01*
X1281870Y276540D02*
X1281870Y269560D01*
X1281870Y276540D02*
X1288850Y276540D01*
X1288850Y269560D01*
X1281870Y269560D01*
X1281870Y274360D02*
X1288850Y274360D01*
D27*
X1224400Y302000D03*
X1229400Y302000D03*
X1234400Y302000D03*
X1239400Y302000D03*
X1239400Y282000D03*
X1234400Y282000D03*
X1229400Y282000D03*
X1224400Y282000D03*
D28*
X1231900Y292100D03*
D10*
X1254506Y229282D03*
X1254506Y219282D03*
X1333420Y174752D03*
X1323420Y174752D03*
X1238330Y152654D03*
X1248330Y152654D03*
D29*
X1380070Y558552D03*
X1391070Y558552D03*
X1391070Y540252D03*
X1380070Y540252D03*
D10*
X1378966Y578024D03*
X1378966Y568024D03*
D30*
X1240960Y167800D03*
X1240960Y187800D03*
D31*
X1188960Y143800D03*
X1188960Y211800D03*
D11*
X1273200Y215599D03*
X1282700Y215599D03*
X1292200Y215599D03*
X1292200Y241601D03*
X1273200Y241601D03*
D32*
X1307799Y163932D03*
X1307799Y154432D03*
X1307799Y144932D03*
X1333801Y144932D03*
X1333801Y163932D03*
D33*
X1200320Y508800D03*
X1200320Y496100D03*
X1200320Y483400D03*
X1200320Y470700D03*
X1200320Y458000D03*
X1200320Y445300D03*
X1200320Y432600D03*
X1200320Y419900D03*
X1200320Y407200D03*
X1200320Y394500D03*
X1200320Y381800D03*
X1200320Y369100D03*
X1200320Y356400D03*
X1200320Y343700D03*
D34*
X1225550Y328800D03*
X1238250Y328800D03*
X1250950Y328800D03*
X1263650Y328800D03*
X1276350Y328800D03*
X1289050Y328800D03*
X1301750Y328800D03*
X1314450Y328800D03*
X1327150Y328800D03*
X1339850Y328800D03*
D33*
X1365080Y343700D03*
X1365080Y356400D03*
X1365080Y369100D03*
X1365080Y381800D03*
X1365080Y394500D03*
X1365080Y407200D03*
X1365080Y419900D03*
X1365080Y432600D03*
X1365080Y445300D03*
X1365080Y458000D03*
X1365080Y470700D03*
X1365080Y483400D03*
X1365080Y496100D03*
X1365080Y508800D03*
D35*
X1267390Y435380D03*
X1285840Y453590D03*
X1267540Y453590D03*
X1249240Y453590D03*
X1249240Y435290D03*
X1285940Y435590D03*
X1285840Y416990D03*
X1267540Y416890D03*
X1249240Y416990D03*
D36*
X1384300Y520700D03*
X1384300Y495300D03*
X1384300Y469900D03*
X1384300Y444500D03*
X1384300Y419100D03*
X1384300Y393700D03*
X1384300Y368300D03*
X1384300Y342900D03*
X1384300Y317500D03*
X1384300Y292100D03*
X1384300Y266700D03*
X1384300Y241300D03*
X1384300Y215900D03*
X1384300Y190500D03*
X1384300Y165100D03*
X1384300Y139700D03*
X1181100Y241300D03*
X1181100Y266700D03*
X1181100Y292100D03*
X1181100Y317500D03*
X1181100Y342900D03*
X1181100Y368300D03*
X1181100Y393700D03*
X1181100Y419100D03*
X1181100Y444500D03*
X1181100Y469900D03*
X1181100Y495300D03*
X1181100Y520700D03*
D10*
X1498520Y210058D03*
X1488520Y210058D03*
X1511380Y254000D03*
X1521380Y254000D03*
D11*
X1456080Y228299D03*
X1465580Y228299D03*
X1475080Y228299D03*
X1475080Y254301D03*
X1456080Y254301D03*
D10*
X1473280Y200152D03*
X1483280Y200152D03*
X1521380Y152146D03*
X1511380Y152146D03*
D12*
X1533090Y288610D02*
X1533090Y295590D01*
X1540070Y295590D01*
X1540070Y288610D01*
X1533090Y288610D01*
X1533090Y293410D02*
X1540070Y293410D01*
X1515550Y295590D02*
X1515550Y288610D01*
X1515550Y295590D02*
X1522530Y295590D01*
X1522530Y288610D01*
X1515550Y288610D01*
X1515550Y293410D02*
X1522530Y293410D01*
D10*
X1488520Y292100D03*
X1498520Y292100D03*
D13*
X1474080Y266700D03*
X1457080Y266700D03*
D14*
X1489202Y258690D03*
X1489202Y241690D03*
D10*
X1597580Y77470D03*
X1587580Y77470D03*
X1583516Y113792D03*
X1593516Y113792D03*
D15*
X1583380Y103020D03*
X1601780Y96520D03*
X1601780Y90020D03*
X1601780Y103020D03*
X1583380Y96520D03*
X1583380Y90020D03*
D16*
X1416130Y116900D03*
X1416130Y60900D03*
D17*
X1452880Y103900D03*
X1452880Y93900D03*
X1452880Y83900D03*
X1452880Y73900D03*
D10*
X1584960Y147400D03*
X1584960Y157400D03*
X1497330Y229282D03*
X1497330Y219282D03*
D12*
X1533090Y307660D02*
X1533090Y314640D01*
X1540070Y314640D01*
X1540070Y307660D01*
X1533090Y307660D01*
X1533090Y312460D02*
X1540070Y312460D01*
X1515550Y314640D02*
X1515550Y307660D01*
X1515550Y314640D02*
X1522530Y314640D01*
X1522530Y307660D01*
X1515550Y307660D01*
X1515550Y312460D02*
X1522530Y312460D01*
D10*
X1485980Y311150D03*
X1495980Y311150D03*
X1546780Y228600D03*
X1536780Y228600D03*
D18*
X1414780Y558800D03*
X1624330Y33020D03*
D19*
X1427480Y25400D03*
X1605280Y25400D03*
D20*
X1546680Y199010D03*
X1546680Y215010D03*
X1587680Y215010D03*
X1587680Y199010D03*
X1546680Y243460D03*
X1546680Y259460D03*
X1587680Y259460D03*
X1587680Y243460D03*
D21*
X1526380Y181000D03*
X1526380Y200000D03*
X1505380Y190500D03*
D22*
X1523880Y58576D03*
X1518880Y58576D03*
D23*
X1548630Y58576D03*
X1540880Y58576D03*
D22*
X1533880Y58576D03*
X1528880Y58576D03*
X1508880Y58576D03*
X1513880Y58576D03*
D23*
X1484130Y58576D03*
X1491880Y58576D03*
D22*
X1498880Y58576D03*
X1503880Y58576D03*
D24*
X1487480Y47526D03*
X1545280Y47526D03*
D10*
X1567180Y26750D03*
X1567180Y36750D03*
X1465580Y26750D03*
X1465580Y36750D03*
D25*
X1527880Y165100D03*
X1504880Y165100D03*
D26*
X1471930Y72076D03*
X1484630Y72076D03*
X1497330Y72076D03*
X1510030Y72076D03*
X1522730Y72076D03*
X1535430Y72076D03*
X1548130Y72076D03*
X1560830Y72076D03*
X1560830Y128076D03*
X1548130Y128076D03*
X1535430Y128076D03*
X1522730Y128076D03*
X1510030Y128076D03*
X1497330Y128076D03*
X1484630Y128076D03*
X1471930Y128076D03*
D10*
X1455420Y127174D03*
X1455420Y117174D03*
X1488774Y272034D03*
X1498774Y272034D03*
D12*
X1533090Y269560D02*
X1533090Y276540D01*
X1540070Y276540D01*
X1540070Y269560D01*
X1533090Y269560D01*
X1533090Y274360D02*
X1540070Y274360D01*
X1515550Y276540D02*
X1515550Y269560D01*
X1515550Y276540D02*
X1522530Y276540D01*
X1522530Y269560D01*
X1515550Y269560D01*
X1515550Y274360D02*
X1522530Y274360D01*
D27*
X1458080Y302000D03*
X1463080Y302000D03*
X1468080Y302000D03*
X1473080Y302000D03*
X1473080Y282000D03*
X1468080Y282000D03*
X1463080Y282000D03*
X1458080Y282000D03*
D28*
X1465580Y292100D03*
D10*
X1488186Y229282D03*
X1488186Y219282D03*
X1567100Y174752D03*
X1557100Y174752D03*
X1472010Y152654D03*
X1482010Y152654D03*
D29*
X1613750Y558552D03*
X1624750Y558552D03*
X1624750Y540252D03*
X1613750Y540252D03*
D10*
X1612646Y578024D03*
X1612646Y568024D03*
D30*
X1474640Y167800D03*
X1474640Y187800D03*
D31*
X1422640Y143800D03*
X1422640Y211800D03*
D11*
X1506880Y215599D03*
X1516380Y215599D03*
X1525880Y215599D03*
X1525880Y241601D03*
X1506880Y241601D03*
D32*
X1541479Y163932D03*
X1541479Y154432D03*
X1541479Y144932D03*
X1567481Y144932D03*
X1567481Y163932D03*
D33*
X1434000Y508800D03*
X1434000Y496100D03*
X1434000Y483400D03*
X1434000Y470700D03*
X1434000Y458000D03*
X1434000Y445300D03*
X1434000Y432600D03*
X1434000Y419900D03*
X1434000Y407200D03*
X1434000Y394500D03*
X1434000Y381800D03*
X1434000Y369100D03*
X1434000Y356400D03*
X1434000Y343700D03*
D34*
X1459230Y328800D03*
X1471930Y328800D03*
X1484630Y328800D03*
X1497330Y328800D03*
X1510030Y328800D03*
X1522730Y328800D03*
X1535430Y328800D03*
X1548130Y328800D03*
X1560830Y328800D03*
X1573530Y328800D03*
D33*
X1598760Y343700D03*
X1598760Y356400D03*
X1598760Y369100D03*
X1598760Y381800D03*
X1598760Y394500D03*
X1598760Y407200D03*
X1598760Y419900D03*
X1598760Y432600D03*
X1598760Y445300D03*
X1598760Y458000D03*
X1598760Y470700D03*
X1598760Y483400D03*
X1598760Y496100D03*
X1598760Y508800D03*
D35*
X1501070Y435380D03*
X1519520Y453590D03*
X1501220Y453590D03*
X1482920Y453590D03*
X1482920Y435290D03*
X1519620Y435590D03*
X1519520Y416990D03*
X1501220Y416890D03*
X1482920Y416990D03*
D36*
X1617980Y520700D03*
X1617980Y495300D03*
X1617980Y469900D03*
X1617980Y444500D03*
X1617980Y419100D03*
X1617980Y393700D03*
X1617980Y368300D03*
X1617980Y342900D03*
X1617980Y317500D03*
X1617980Y292100D03*
X1617980Y266700D03*
X1617980Y241300D03*
X1617980Y215900D03*
X1617980Y190500D03*
X1617980Y165100D03*
X1617980Y139700D03*
X1414780Y241300D03*
X1414780Y266700D03*
X1414780Y292100D03*
X1414780Y317500D03*
X1414780Y342900D03*
X1414780Y368300D03*
X1414780Y393700D03*
X1414780Y419100D03*
X1414780Y444500D03*
X1414780Y469900D03*
X1414780Y495300D03*
X1414780Y520700D03*
D10*
X132160Y1047242D03*
X142160Y1047242D03*
X119300Y1003300D03*
X109300Y1003300D03*
D11*
X174600Y1029001D03*
X165100Y1029001D03*
X155600Y1029001D03*
X155600Y1002999D03*
X174600Y1002999D03*
D10*
X157400Y1057148D03*
X147400Y1057148D03*
X109300Y1105154D03*
X119300Y1105154D03*
D12*
X97590Y968690D02*
X97590Y961710D01*
X90610Y961710D01*
X90610Y968690D01*
X97590Y968690D01*
X97590Y966510D02*
X90610Y966510D01*
X115130Y968690D02*
X115130Y961710D01*
X108150Y961710D01*
X108150Y968690D01*
X115130Y968690D01*
X115130Y966510D02*
X108150Y966510D01*
D10*
X142160Y965200D03*
X132160Y965200D03*
D13*
X156600Y990600D03*
X173600Y990600D03*
D14*
X141478Y998610D03*
X141478Y1015610D03*
D10*
X33100Y1179830D03*
X43100Y1179830D03*
X47164Y1143508D03*
X37164Y1143508D03*
D15*
X47300Y1154280D03*
X28900Y1160780D03*
X28900Y1167280D03*
X28900Y1154280D03*
X47300Y1160780D03*
X47300Y1167280D03*
D16*
X214550Y1140400D03*
X214550Y1196400D03*
D17*
X177800Y1153400D03*
X177800Y1163400D03*
X177800Y1173400D03*
X177800Y1183400D03*
D10*
X45720Y1109900D03*
X45720Y1099900D03*
X133350Y1028018D03*
X133350Y1038018D03*
D12*
X97590Y949640D02*
X97590Y942660D01*
X90610Y942660D01*
X90610Y949640D01*
X97590Y949640D01*
X97590Y947460D02*
X90610Y947460D01*
X115130Y949640D02*
X115130Y942660D01*
X108150Y942660D01*
X108150Y949640D01*
X115130Y949640D01*
X115130Y947460D02*
X108150Y947460D01*
D10*
X144700Y946150D03*
X134700Y946150D03*
X83900Y1028700D03*
X93900Y1028700D03*
D18*
X215900Y698500D03*
X6350Y1224280D03*
D19*
X203200Y1231900D03*
X25400Y1231900D03*
D20*
X84000Y1058290D03*
X84000Y1042290D03*
X43000Y1042290D03*
X43000Y1058290D03*
X84000Y1013840D03*
X84000Y997840D03*
X43000Y997840D03*
X43000Y1013840D03*
D21*
X104300Y1076300D03*
X104300Y1057300D03*
X125300Y1066800D03*
D22*
X106800Y1198724D03*
X111800Y1198724D03*
D23*
X82050Y1198724D03*
X89800Y1198724D03*
D22*
X96800Y1198724D03*
X101800Y1198724D03*
X121800Y1198724D03*
X116800Y1198724D03*
D23*
X146550Y1198724D03*
X138800Y1198724D03*
D22*
X131800Y1198724D03*
X126800Y1198724D03*
D24*
X143200Y1209774D03*
X85400Y1209774D03*
D10*
X63500Y1230550D03*
X63500Y1220550D03*
X165100Y1230550D03*
X165100Y1220550D03*
D25*
X102800Y1092200D03*
X125800Y1092200D03*
D26*
X158750Y1185224D03*
X146050Y1185224D03*
X133350Y1185224D03*
X120650Y1185224D03*
X107950Y1185224D03*
X95250Y1185224D03*
X82550Y1185224D03*
X69850Y1185224D03*
X69850Y1129224D03*
X82550Y1129224D03*
X95250Y1129224D03*
X107950Y1129224D03*
X120650Y1129224D03*
X133350Y1129224D03*
X146050Y1129224D03*
X158750Y1129224D03*
D10*
X175260Y1130126D03*
X175260Y1140126D03*
X141906Y985266D03*
X131906Y985266D03*
D12*
X97590Y987740D02*
X97590Y980760D01*
X90610Y980760D01*
X90610Y987740D01*
X97590Y987740D01*
X97590Y985560D02*
X90610Y985560D01*
X115130Y987740D02*
X115130Y980760D01*
X108150Y980760D01*
X108150Y987740D01*
X115130Y987740D01*
X115130Y985560D02*
X108150Y985560D01*
D27*
X172600Y955300D03*
X167600Y955300D03*
X162600Y955300D03*
X157600Y955300D03*
X157600Y975300D03*
X162600Y975300D03*
X167600Y975300D03*
X172600Y975300D03*
D28*
X165100Y965200D03*
D10*
X142494Y1028018D03*
X142494Y1038018D03*
X63580Y1082548D03*
X73580Y1082548D03*
X158670Y1104646D03*
X148670Y1104646D03*
D29*
X16930Y698748D03*
X5930Y698748D03*
X5930Y717048D03*
X16930Y717048D03*
D10*
X18034Y679276D03*
X18034Y689276D03*
D30*
X156040Y1089500D03*
X156040Y1069500D03*
D31*
X208040Y1113500D03*
X208040Y1045500D03*
D11*
X123800Y1041701D03*
X114300Y1041701D03*
X104800Y1041701D03*
X104800Y1015699D03*
X123800Y1015699D03*
D32*
X89201Y1093368D03*
X89201Y1102868D03*
X89201Y1112368D03*
X63199Y1112368D03*
X63199Y1093368D03*
D33*
X196680Y748500D03*
X196680Y761200D03*
X196680Y773900D03*
X196680Y786600D03*
X196680Y799300D03*
X196680Y812000D03*
X196680Y824700D03*
X196680Y837400D03*
X196680Y850100D03*
X196680Y862800D03*
X196680Y875500D03*
X196680Y888200D03*
X196680Y900900D03*
X196680Y913600D03*
D34*
X171450Y928500D03*
X158750Y928500D03*
X146050Y928500D03*
X133350Y928500D03*
X120650Y928500D03*
X107950Y928500D03*
X95250Y928500D03*
X82550Y928500D03*
X69850Y928500D03*
X57150Y928500D03*
D33*
X31920Y913600D03*
X31920Y900900D03*
X31920Y888200D03*
X31920Y875500D03*
X31920Y862800D03*
X31920Y850100D03*
X31920Y837400D03*
X31920Y824700D03*
X31920Y812000D03*
X31920Y799300D03*
X31920Y786600D03*
X31920Y773900D03*
X31920Y761200D03*
X31920Y748500D03*
D35*
X129610Y821920D03*
X111160Y803710D03*
X129460Y803710D03*
X147760Y803710D03*
X147760Y822010D03*
X111060Y821710D03*
X111160Y840310D03*
X129460Y840410D03*
X147760Y840310D03*
D36*
X12700Y736600D03*
X12700Y762000D03*
X12700Y787400D03*
X12700Y812800D03*
X12700Y838200D03*
X12700Y863600D03*
X12700Y889000D03*
X12700Y914400D03*
X12700Y939800D03*
X12700Y965200D03*
X12700Y990600D03*
X12700Y1016000D03*
X12700Y1041400D03*
X12700Y1066800D03*
X12700Y1092200D03*
X12700Y1117600D03*
X215900Y1016000D03*
X215900Y990600D03*
X215900Y965200D03*
X215900Y939800D03*
X215900Y914400D03*
X215900Y889000D03*
X215900Y863600D03*
X215900Y838200D03*
X215900Y812800D03*
X215900Y787400D03*
X215900Y762000D03*
X215900Y736600D03*
D10*
X365840Y1047242D03*
X375840Y1047242D03*
X352980Y1003300D03*
X342980Y1003300D03*
D11*
X408280Y1029001D03*
X398780Y1029001D03*
X389280Y1029001D03*
X389280Y1002999D03*
X408280Y1002999D03*
D10*
X391080Y1057148D03*
X381080Y1057148D03*
X342980Y1105154D03*
X352980Y1105154D03*
D12*
X331270Y968690D02*
X331270Y961710D01*
X324290Y961710D01*
X324290Y968690D01*
X331270Y968690D01*
X331270Y966510D02*
X324290Y966510D01*
X348810Y968690D02*
X348810Y961710D01*
X341830Y961710D01*
X341830Y968690D01*
X348810Y968690D01*
X348810Y966510D02*
X341830Y966510D01*
D10*
X375840Y965200D03*
X365840Y965200D03*
D13*
X390280Y990600D03*
X407280Y990600D03*
D14*
X375158Y998610D03*
X375158Y1015610D03*
D10*
X266780Y1179830D03*
X276780Y1179830D03*
X280844Y1143508D03*
X270844Y1143508D03*
D15*
X280980Y1154280D03*
X262580Y1160780D03*
X262580Y1167280D03*
X262580Y1154280D03*
X280980Y1160780D03*
X280980Y1167280D03*
D16*
X448230Y1140400D03*
X448230Y1196400D03*
D17*
X411480Y1153400D03*
X411480Y1163400D03*
X411480Y1173400D03*
X411480Y1183400D03*
D10*
X279400Y1109900D03*
X279400Y1099900D03*
X367030Y1028018D03*
X367030Y1038018D03*
D12*
X331270Y949640D02*
X331270Y942660D01*
X324290Y942660D01*
X324290Y949640D01*
X331270Y949640D01*
X331270Y947460D02*
X324290Y947460D01*
X348810Y949640D02*
X348810Y942660D01*
X341830Y942660D01*
X341830Y949640D01*
X348810Y949640D01*
X348810Y947460D02*
X341830Y947460D01*
D10*
X378380Y946150D03*
X368380Y946150D03*
X317580Y1028700D03*
X327580Y1028700D03*
D18*
X449580Y698500D03*
X240030Y1224280D03*
D19*
X436880Y1231900D03*
X259080Y1231900D03*
D20*
X317680Y1058290D03*
X317680Y1042290D03*
X276680Y1042290D03*
X276680Y1058290D03*
X317680Y1013840D03*
X317680Y997840D03*
X276680Y997840D03*
X276680Y1013840D03*
D21*
X337980Y1076300D03*
X337980Y1057300D03*
X358980Y1066800D03*
D22*
X340480Y1198724D03*
X345480Y1198724D03*
D23*
X315730Y1198724D03*
X323480Y1198724D03*
D22*
X330480Y1198724D03*
X335480Y1198724D03*
X355480Y1198724D03*
X350480Y1198724D03*
D23*
X380230Y1198724D03*
X372480Y1198724D03*
D22*
X365480Y1198724D03*
X360480Y1198724D03*
D24*
X376880Y1209774D03*
X319080Y1209774D03*
D10*
X297180Y1230550D03*
X297180Y1220550D03*
X398780Y1230550D03*
X398780Y1220550D03*
D25*
X336480Y1092200D03*
X359480Y1092200D03*
D26*
X392430Y1185224D03*
X379730Y1185224D03*
X367030Y1185224D03*
X354330Y1185224D03*
X341630Y1185224D03*
X328930Y1185224D03*
X316230Y1185224D03*
X303530Y1185224D03*
X303530Y1129224D03*
X316230Y1129224D03*
X328930Y1129224D03*
X341630Y1129224D03*
X354330Y1129224D03*
X367030Y1129224D03*
X379730Y1129224D03*
X392430Y1129224D03*
D10*
X408940Y1130126D03*
X408940Y1140126D03*
X375586Y985266D03*
X365586Y985266D03*
D12*
X331270Y987740D02*
X331270Y980760D01*
X324290Y980760D01*
X324290Y987740D01*
X331270Y987740D01*
X331270Y985560D02*
X324290Y985560D01*
X348810Y987740D02*
X348810Y980760D01*
X341830Y980760D01*
X341830Y987740D01*
X348810Y987740D01*
X348810Y985560D02*
X341830Y985560D01*
D27*
X406280Y955300D03*
X401280Y955300D03*
X396280Y955300D03*
X391280Y955300D03*
X391280Y975300D03*
X396280Y975300D03*
X401280Y975300D03*
X406280Y975300D03*
D28*
X398780Y965200D03*
D10*
X376174Y1028018D03*
X376174Y1038018D03*
X297260Y1082548D03*
X307260Y1082548D03*
X392350Y1104646D03*
X382350Y1104646D03*
D29*
X250610Y698748D03*
X239610Y698748D03*
X239610Y717048D03*
X250610Y717048D03*
D10*
X251714Y679276D03*
X251714Y689276D03*
D30*
X389720Y1089500D03*
X389720Y1069500D03*
D31*
X441720Y1113500D03*
X441720Y1045500D03*
D11*
X357480Y1041701D03*
X347980Y1041701D03*
X338480Y1041701D03*
X338480Y1015699D03*
X357480Y1015699D03*
D32*
X322881Y1093368D03*
X322881Y1102868D03*
X322881Y1112368D03*
X296879Y1112368D03*
X296879Y1093368D03*
D33*
X430360Y748500D03*
X430360Y761200D03*
X430360Y773900D03*
X430360Y786600D03*
X430360Y799300D03*
X430360Y812000D03*
X430360Y824700D03*
X430360Y837400D03*
X430360Y850100D03*
X430360Y862800D03*
X430360Y875500D03*
X430360Y888200D03*
X430360Y900900D03*
X430360Y913600D03*
D34*
X405130Y928500D03*
X392430Y928500D03*
X379730Y928500D03*
X367030Y928500D03*
X354330Y928500D03*
X341630Y928500D03*
X328930Y928500D03*
X316230Y928500D03*
X303530Y928500D03*
X290830Y928500D03*
D33*
X265600Y913600D03*
X265600Y900900D03*
X265600Y888200D03*
X265600Y875500D03*
X265600Y862800D03*
X265600Y850100D03*
X265600Y837400D03*
X265600Y824700D03*
X265600Y812000D03*
X265600Y799300D03*
X265600Y786600D03*
X265600Y773900D03*
X265600Y761200D03*
X265600Y748500D03*
D35*
X363290Y821920D03*
X344840Y803710D03*
X363140Y803710D03*
X381440Y803710D03*
X381440Y822010D03*
X344740Y821710D03*
X344840Y840310D03*
X363140Y840410D03*
X381440Y840310D03*
D36*
X246380Y736600D03*
X246380Y762000D03*
X246380Y787400D03*
X246380Y812800D03*
X246380Y838200D03*
X246380Y863600D03*
X246380Y889000D03*
X246380Y914400D03*
X246380Y939800D03*
X246380Y965200D03*
X246380Y990600D03*
X246380Y1016000D03*
X246380Y1041400D03*
X246380Y1066800D03*
X246380Y1092200D03*
X246380Y1117600D03*
X449580Y1016000D03*
X449580Y990600D03*
X449580Y965200D03*
X449580Y939800D03*
X449580Y914400D03*
X449580Y889000D03*
X449580Y863600D03*
X449580Y838200D03*
X449580Y812800D03*
X449580Y787400D03*
X449580Y762000D03*
X449580Y736600D03*
D10*
X599520Y1047242D03*
X609520Y1047242D03*
X586660Y1003300D03*
X576660Y1003300D03*
D11*
X641960Y1029001D03*
X632460Y1029001D03*
X622960Y1029001D03*
X622960Y1002999D03*
X641960Y1002999D03*
D10*
X624760Y1057148D03*
X614760Y1057148D03*
X576660Y1105154D03*
X586660Y1105154D03*
D12*
X564950Y968690D02*
X564950Y961710D01*
X557970Y961710D01*
X557970Y968690D01*
X564950Y968690D01*
X564950Y966510D02*
X557970Y966510D01*
X582490Y968690D02*
X582490Y961710D01*
X575510Y961710D01*
X575510Y968690D01*
X582490Y968690D01*
X582490Y966510D02*
X575510Y966510D01*
D10*
X609520Y965200D03*
X599520Y965200D03*
D13*
X623960Y990600D03*
X640960Y990600D03*
D14*
X608838Y998610D03*
X608838Y1015610D03*
D10*
X500460Y1179830D03*
X510460Y1179830D03*
X514524Y1143508D03*
X504524Y1143508D03*
D15*
X514660Y1154280D03*
X496260Y1160780D03*
X496260Y1167280D03*
X496260Y1154280D03*
X514660Y1160780D03*
X514660Y1167280D03*
D16*
X681910Y1140400D03*
X681910Y1196400D03*
D17*
X645160Y1153400D03*
X645160Y1163400D03*
X645160Y1173400D03*
X645160Y1183400D03*
D10*
X513080Y1109900D03*
X513080Y1099900D03*
X600710Y1028018D03*
X600710Y1038018D03*
D12*
X564950Y949640D02*
X564950Y942660D01*
X557970Y942660D01*
X557970Y949640D01*
X564950Y949640D01*
X564950Y947460D02*
X557970Y947460D01*
X582490Y949640D02*
X582490Y942660D01*
X575510Y942660D01*
X575510Y949640D01*
X582490Y949640D01*
X582490Y947460D02*
X575510Y947460D01*
D10*
X612060Y946150D03*
X602060Y946150D03*
X551260Y1028700D03*
X561260Y1028700D03*
D18*
X683260Y698500D03*
X473710Y1224280D03*
D19*
X670560Y1231900D03*
X492760Y1231900D03*
D20*
X551360Y1058290D03*
X551360Y1042290D03*
X510360Y1042290D03*
X510360Y1058290D03*
X551360Y1013840D03*
X551360Y997840D03*
X510360Y997840D03*
X510360Y1013840D03*
D21*
X571660Y1076300D03*
X571660Y1057300D03*
X592660Y1066800D03*
D22*
X574160Y1198724D03*
X579160Y1198724D03*
D23*
X549410Y1198724D03*
X557160Y1198724D03*
D22*
X564160Y1198724D03*
X569160Y1198724D03*
X589160Y1198724D03*
X584160Y1198724D03*
D23*
X613910Y1198724D03*
X606160Y1198724D03*
D22*
X599160Y1198724D03*
X594160Y1198724D03*
D24*
X610560Y1209774D03*
X552760Y1209774D03*
D10*
X530860Y1230550D03*
X530860Y1220550D03*
X632460Y1230550D03*
X632460Y1220550D03*
D25*
X570160Y1092200D03*
X593160Y1092200D03*
D26*
X626110Y1185224D03*
X613410Y1185224D03*
X600710Y1185224D03*
X588010Y1185224D03*
X575310Y1185224D03*
X562610Y1185224D03*
X549910Y1185224D03*
X537210Y1185224D03*
X537210Y1129224D03*
X549910Y1129224D03*
X562610Y1129224D03*
X575310Y1129224D03*
X588010Y1129224D03*
X600710Y1129224D03*
X613410Y1129224D03*
X626110Y1129224D03*
D10*
X642620Y1130126D03*
X642620Y1140126D03*
X609266Y985266D03*
X599266Y985266D03*
D12*
X564950Y987740D02*
X564950Y980760D01*
X557970Y980760D01*
X557970Y987740D01*
X564950Y987740D01*
X564950Y985560D02*
X557970Y985560D01*
X582490Y987740D02*
X582490Y980760D01*
X575510Y980760D01*
X575510Y987740D01*
X582490Y987740D01*
X582490Y985560D02*
X575510Y985560D01*
D27*
X639960Y955300D03*
X634960Y955300D03*
X629960Y955300D03*
X624960Y955300D03*
X624960Y975300D03*
X629960Y975300D03*
X634960Y975300D03*
X639960Y975300D03*
D28*
X632460Y965200D03*
D10*
X609854Y1028018D03*
X609854Y1038018D03*
X530940Y1082548D03*
X540940Y1082548D03*
X626030Y1104646D03*
X616030Y1104646D03*
D29*
X484290Y698748D03*
X473290Y698748D03*
X473290Y717048D03*
X484290Y717048D03*
D10*
X485394Y679276D03*
X485394Y689276D03*
D30*
X623400Y1089500D03*
X623400Y1069500D03*
D31*
X675400Y1113500D03*
X675400Y1045500D03*
D11*
X591160Y1041701D03*
X581660Y1041701D03*
X572160Y1041701D03*
X572160Y1015699D03*
X591160Y1015699D03*
D32*
X556561Y1093368D03*
X556561Y1102868D03*
X556561Y1112368D03*
X530559Y1112368D03*
X530559Y1093368D03*
D33*
X664040Y748500D03*
X664040Y761200D03*
X664040Y773900D03*
X664040Y786600D03*
X664040Y799300D03*
X664040Y812000D03*
X664040Y824700D03*
X664040Y837400D03*
X664040Y850100D03*
X664040Y862800D03*
X664040Y875500D03*
X664040Y888200D03*
X664040Y900900D03*
X664040Y913600D03*
D34*
X638810Y928500D03*
X626110Y928500D03*
X613410Y928500D03*
X600710Y928500D03*
X588010Y928500D03*
X575310Y928500D03*
X562610Y928500D03*
X549910Y928500D03*
X537210Y928500D03*
X524510Y928500D03*
D33*
X499280Y913600D03*
X499280Y900900D03*
X499280Y888200D03*
X499280Y875500D03*
X499280Y862800D03*
X499280Y850100D03*
X499280Y837400D03*
X499280Y824700D03*
X499280Y812000D03*
X499280Y799300D03*
X499280Y786600D03*
X499280Y773900D03*
X499280Y761200D03*
X499280Y748500D03*
D35*
X596970Y821920D03*
X578520Y803710D03*
X596820Y803710D03*
X615120Y803710D03*
X615120Y822010D03*
X578420Y821710D03*
X578520Y840310D03*
X596820Y840410D03*
X615120Y840310D03*
D36*
X480060Y736600D03*
X480060Y762000D03*
X480060Y787400D03*
X480060Y812800D03*
X480060Y838200D03*
X480060Y863600D03*
X480060Y889000D03*
X480060Y914400D03*
X480060Y939800D03*
X480060Y965200D03*
X480060Y990600D03*
X480060Y1016000D03*
X480060Y1041400D03*
X480060Y1066800D03*
X480060Y1092200D03*
X480060Y1117600D03*
X683260Y1016000D03*
X683260Y990600D03*
X683260Y965200D03*
X683260Y939800D03*
X683260Y914400D03*
X683260Y889000D03*
X683260Y863600D03*
X683260Y838200D03*
X683260Y812800D03*
X683260Y787400D03*
X683260Y762000D03*
X683260Y736600D03*
D10*
X833200Y1047242D03*
X843200Y1047242D03*
X820340Y1003300D03*
X810340Y1003300D03*
D11*
X875640Y1029001D03*
X866140Y1029001D03*
X856640Y1029001D03*
X856640Y1002999D03*
X875640Y1002999D03*
D10*
X858440Y1057148D03*
X848440Y1057148D03*
X810340Y1105154D03*
X820340Y1105154D03*
D12*
X798630Y968690D02*
X798630Y961710D01*
X791650Y961710D01*
X791650Y968690D01*
X798630Y968690D01*
X798630Y966510D02*
X791650Y966510D01*
X816170Y968690D02*
X816170Y961710D01*
X809190Y961710D01*
X809190Y968690D01*
X816170Y968690D01*
X816170Y966510D02*
X809190Y966510D01*
D10*
X843200Y965200D03*
X833200Y965200D03*
D13*
X857640Y990600D03*
X874640Y990600D03*
D14*
X842518Y998610D03*
X842518Y1015610D03*
D10*
X734140Y1179830D03*
X744140Y1179830D03*
X748204Y1143508D03*
X738204Y1143508D03*
D15*
X748340Y1154280D03*
X729940Y1160780D03*
X729940Y1167280D03*
X729940Y1154280D03*
X748340Y1160780D03*
X748340Y1167280D03*
D16*
X915590Y1140400D03*
X915590Y1196400D03*
D17*
X878840Y1153400D03*
X878840Y1163400D03*
X878840Y1173400D03*
X878840Y1183400D03*
D10*
X746760Y1109900D03*
X746760Y1099900D03*
X834390Y1028018D03*
X834390Y1038018D03*
D12*
X798630Y949640D02*
X798630Y942660D01*
X791650Y942660D01*
X791650Y949640D01*
X798630Y949640D01*
X798630Y947460D02*
X791650Y947460D01*
X816170Y949640D02*
X816170Y942660D01*
X809190Y942660D01*
X809190Y949640D01*
X816170Y949640D01*
X816170Y947460D02*
X809190Y947460D01*
D10*
X845740Y946150D03*
X835740Y946150D03*
X784940Y1028700D03*
X794940Y1028700D03*
D18*
X916940Y698500D03*
X707390Y1224280D03*
D19*
X904240Y1231900D03*
X726440Y1231900D03*
D20*
X785040Y1058290D03*
X785040Y1042290D03*
X744040Y1042290D03*
X744040Y1058290D03*
X785040Y1013840D03*
X785040Y997840D03*
X744040Y997840D03*
X744040Y1013840D03*
D21*
X805340Y1076300D03*
X805340Y1057300D03*
X826340Y1066800D03*
D22*
X807840Y1198724D03*
X812840Y1198724D03*
D23*
X783090Y1198724D03*
X790840Y1198724D03*
D22*
X797840Y1198724D03*
X802840Y1198724D03*
X822840Y1198724D03*
X817840Y1198724D03*
D23*
X847590Y1198724D03*
X839840Y1198724D03*
D22*
X832840Y1198724D03*
X827840Y1198724D03*
D24*
X844240Y1209774D03*
X786440Y1209774D03*
D10*
X764540Y1230550D03*
X764540Y1220550D03*
X866140Y1230550D03*
X866140Y1220550D03*
D25*
X803840Y1092200D03*
X826840Y1092200D03*
D26*
X859790Y1185224D03*
X847090Y1185224D03*
X834390Y1185224D03*
X821690Y1185224D03*
X808990Y1185224D03*
X796290Y1185224D03*
X783590Y1185224D03*
X770890Y1185224D03*
X770890Y1129224D03*
X783590Y1129224D03*
X796290Y1129224D03*
X808990Y1129224D03*
X821690Y1129224D03*
X834390Y1129224D03*
X847090Y1129224D03*
X859790Y1129224D03*
D10*
X876300Y1130126D03*
X876300Y1140126D03*
X842946Y985266D03*
X832946Y985266D03*
D12*
X798630Y987740D02*
X798630Y980760D01*
X791650Y980760D01*
X791650Y987740D01*
X798630Y987740D01*
X798630Y985560D02*
X791650Y985560D01*
X816170Y987740D02*
X816170Y980760D01*
X809190Y980760D01*
X809190Y987740D01*
X816170Y987740D01*
X816170Y985560D02*
X809190Y985560D01*
D27*
X873640Y955300D03*
X868640Y955300D03*
X863640Y955300D03*
X858640Y955300D03*
X858640Y975300D03*
X863640Y975300D03*
X868640Y975300D03*
X873640Y975300D03*
D28*
X866140Y965200D03*
D10*
X843534Y1028018D03*
X843534Y1038018D03*
X764620Y1082548D03*
X774620Y1082548D03*
X859710Y1104646D03*
X849710Y1104646D03*
D29*
X717970Y698748D03*
X706970Y698748D03*
X706970Y717048D03*
X717970Y717048D03*
D10*
X719074Y679276D03*
X719074Y689276D03*
D30*
X857080Y1089500D03*
X857080Y1069500D03*
D31*
X909080Y1113500D03*
X909080Y1045500D03*
D11*
X824840Y1041701D03*
X815340Y1041701D03*
X805840Y1041701D03*
X805840Y1015699D03*
X824840Y1015699D03*
D32*
X790241Y1093368D03*
X790241Y1102868D03*
X790241Y1112368D03*
X764239Y1112368D03*
X764239Y1093368D03*
D33*
X897720Y748500D03*
X897720Y761200D03*
X897720Y773900D03*
X897720Y786600D03*
X897720Y799300D03*
X897720Y812000D03*
X897720Y824700D03*
X897720Y837400D03*
X897720Y850100D03*
X897720Y862800D03*
X897720Y875500D03*
X897720Y888200D03*
X897720Y900900D03*
X897720Y913600D03*
D34*
X872490Y928500D03*
X859790Y928500D03*
X847090Y928500D03*
X834390Y928500D03*
X821690Y928500D03*
X808990Y928500D03*
X796290Y928500D03*
X783590Y928500D03*
X770890Y928500D03*
X758190Y928500D03*
D33*
X732960Y913600D03*
X732960Y900900D03*
X732960Y888200D03*
X732960Y875500D03*
X732960Y862800D03*
X732960Y850100D03*
X732960Y837400D03*
X732960Y824700D03*
X732960Y812000D03*
X732960Y799300D03*
X732960Y786600D03*
X732960Y773900D03*
X732960Y761200D03*
X732960Y748500D03*
D35*
X830650Y821920D03*
X812200Y803710D03*
X830500Y803710D03*
X848800Y803710D03*
X848800Y822010D03*
X812100Y821710D03*
X812200Y840310D03*
X830500Y840410D03*
X848800Y840310D03*
D36*
X713740Y736600D03*
X713740Y762000D03*
X713740Y787400D03*
X713740Y812800D03*
X713740Y838200D03*
X713740Y863600D03*
X713740Y889000D03*
X713740Y914400D03*
X713740Y939800D03*
X713740Y965200D03*
X713740Y990600D03*
X713740Y1016000D03*
X713740Y1041400D03*
X713740Y1066800D03*
X713740Y1092200D03*
X713740Y1117600D03*
X916940Y1016000D03*
X916940Y990600D03*
X916940Y965200D03*
X916940Y939800D03*
X916940Y914400D03*
X916940Y889000D03*
X916940Y863600D03*
X916940Y838200D03*
X916940Y812800D03*
X916940Y787400D03*
X916940Y762000D03*
X916940Y736600D03*
D10*
X1066880Y1047242D03*
X1076880Y1047242D03*
X1054020Y1003300D03*
X1044020Y1003300D03*
D11*
X1109320Y1029001D03*
X1099820Y1029001D03*
X1090320Y1029001D03*
X1090320Y1002999D03*
X1109320Y1002999D03*
D10*
X1092120Y1057148D03*
X1082120Y1057148D03*
X1044020Y1105154D03*
X1054020Y1105154D03*
D12*
X1032310Y968690D02*
X1032310Y961710D01*
X1025330Y961710D01*
X1025330Y968690D01*
X1032310Y968690D01*
X1032310Y966510D02*
X1025330Y966510D01*
X1049850Y968690D02*
X1049850Y961710D01*
X1042870Y961710D01*
X1042870Y968690D01*
X1049850Y968690D01*
X1049850Y966510D02*
X1042870Y966510D01*
D10*
X1076880Y965200D03*
X1066880Y965200D03*
D13*
X1091320Y990600D03*
X1108320Y990600D03*
D14*
X1076198Y998610D03*
X1076198Y1015610D03*
D10*
X967820Y1179830D03*
X977820Y1179830D03*
X981884Y1143508D03*
X971884Y1143508D03*
D15*
X982020Y1154280D03*
X963620Y1160780D03*
X963620Y1167280D03*
X963620Y1154280D03*
X982020Y1160780D03*
X982020Y1167280D03*
D16*
X1149270Y1140400D03*
X1149270Y1196400D03*
D17*
X1112520Y1153400D03*
X1112520Y1163400D03*
X1112520Y1173400D03*
X1112520Y1183400D03*
D10*
X980440Y1109900D03*
X980440Y1099900D03*
X1068070Y1028018D03*
X1068070Y1038018D03*
D12*
X1032310Y949640D02*
X1032310Y942660D01*
X1025330Y942660D01*
X1025330Y949640D01*
X1032310Y949640D01*
X1032310Y947460D02*
X1025330Y947460D01*
X1049850Y949640D02*
X1049850Y942660D01*
X1042870Y942660D01*
X1042870Y949640D01*
X1049850Y949640D01*
X1049850Y947460D02*
X1042870Y947460D01*
D10*
X1079420Y946150D03*
X1069420Y946150D03*
X1018620Y1028700D03*
X1028620Y1028700D03*
D18*
X1150620Y698500D03*
X941070Y1224280D03*
D19*
X1137920Y1231900D03*
X960120Y1231900D03*
D20*
X1018720Y1058290D03*
X1018720Y1042290D03*
X977720Y1042290D03*
X977720Y1058290D03*
X1018720Y1013840D03*
X1018720Y997840D03*
X977720Y997840D03*
X977720Y1013840D03*
D21*
X1039020Y1076300D03*
X1039020Y1057300D03*
X1060020Y1066800D03*
D22*
X1041520Y1198724D03*
X1046520Y1198724D03*
D23*
X1016770Y1198724D03*
X1024520Y1198724D03*
D22*
X1031520Y1198724D03*
X1036520Y1198724D03*
X1056520Y1198724D03*
X1051520Y1198724D03*
D23*
X1081270Y1198724D03*
X1073520Y1198724D03*
D22*
X1066520Y1198724D03*
X1061520Y1198724D03*
D24*
X1077920Y1209774D03*
X1020120Y1209774D03*
D10*
X998220Y1230550D03*
X998220Y1220550D03*
X1099820Y1230550D03*
X1099820Y1220550D03*
D25*
X1037520Y1092200D03*
X1060520Y1092200D03*
D26*
X1093470Y1185224D03*
X1080770Y1185224D03*
X1068070Y1185224D03*
X1055370Y1185224D03*
X1042670Y1185224D03*
X1029970Y1185224D03*
X1017270Y1185224D03*
X1004570Y1185224D03*
X1004570Y1129224D03*
X1017270Y1129224D03*
X1029970Y1129224D03*
X1042670Y1129224D03*
X1055370Y1129224D03*
X1068070Y1129224D03*
X1080770Y1129224D03*
X1093470Y1129224D03*
D10*
X1109980Y1130126D03*
X1109980Y1140126D03*
X1076626Y985266D03*
X1066626Y985266D03*
D12*
X1032310Y987740D02*
X1032310Y980760D01*
X1025330Y980760D01*
X1025330Y987740D01*
X1032310Y987740D01*
X1032310Y985560D02*
X1025330Y985560D01*
X1049850Y987740D02*
X1049850Y980760D01*
X1042870Y980760D01*
X1042870Y987740D01*
X1049850Y987740D01*
X1049850Y985560D02*
X1042870Y985560D01*
D27*
X1107320Y955300D03*
X1102320Y955300D03*
X1097320Y955300D03*
X1092320Y955300D03*
X1092320Y975300D03*
X1097320Y975300D03*
X1102320Y975300D03*
X1107320Y975300D03*
D28*
X1099820Y965200D03*
D10*
X1077214Y1028018D03*
X1077214Y1038018D03*
X998300Y1082548D03*
X1008300Y1082548D03*
X1093390Y1104646D03*
X1083390Y1104646D03*
D29*
X951650Y698748D03*
X940650Y698748D03*
X940650Y717048D03*
X951650Y717048D03*
D10*
X952754Y679276D03*
X952754Y689276D03*
D30*
X1090760Y1089500D03*
X1090760Y1069500D03*
D31*
X1142760Y1113500D03*
X1142760Y1045500D03*
D11*
X1058520Y1041701D03*
X1049020Y1041701D03*
X1039520Y1041701D03*
X1039520Y1015699D03*
X1058520Y1015699D03*
D32*
X1023921Y1093368D03*
X1023921Y1102868D03*
X1023921Y1112368D03*
X997919Y1112368D03*
X997919Y1093368D03*
D33*
X1131400Y748500D03*
X1131400Y761200D03*
X1131400Y773900D03*
X1131400Y786600D03*
X1131400Y799300D03*
X1131400Y812000D03*
X1131400Y824700D03*
X1131400Y837400D03*
X1131400Y850100D03*
X1131400Y862800D03*
X1131400Y875500D03*
X1131400Y888200D03*
X1131400Y900900D03*
X1131400Y913600D03*
D34*
X1106170Y928500D03*
X1093470Y928500D03*
X1080770Y928500D03*
X1068070Y928500D03*
X1055370Y928500D03*
X1042670Y928500D03*
X1029970Y928500D03*
X1017270Y928500D03*
X1004570Y928500D03*
X991870Y928500D03*
D33*
X966640Y913600D03*
X966640Y900900D03*
X966640Y888200D03*
X966640Y875500D03*
X966640Y862800D03*
X966640Y850100D03*
X966640Y837400D03*
X966640Y824700D03*
X966640Y812000D03*
X966640Y799300D03*
X966640Y786600D03*
X966640Y773900D03*
X966640Y761200D03*
X966640Y748500D03*
D35*
X1064330Y821920D03*
X1045880Y803710D03*
X1064180Y803710D03*
X1082480Y803710D03*
X1082480Y822010D03*
X1045780Y821710D03*
X1045880Y840310D03*
X1064180Y840410D03*
X1082480Y840310D03*
D36*
X947420Y736600D03*
X947420Y762000D03*
X947420Y787400D03*
X947420Y812800D03*
X947420Y838200D03*
X947420Y863600D03*
X947420Y889000D03*
X947420Y914400D03*
X947420Y939800D03*
X947420Y965200D03*
X947420Y990600D03*
X947420Y1016000D03*
X947420Y1041400D03*
X947420Y1066800D03*
X947420Y1092200D03*
X947420Y1117600D03*
X1150620Y1016000D03*
X1150620Y990600D03*
X1150620Y965200D03*
X1150620Y939800D03*
X1150620Y914400D03*
X1150620Y889000D03*
X1150620Y863600D03*
X1150620Y838200D03*
X1150620Y812800D03*
X1150620Y787400D03*
X1150620Y762000D03*
X1150620Y736600D03*
D10*
X1300560Y1047242D03*
X1310560Y1047242D03*
X1287700Y1003300D03*
X1277700Y1003300D03*
D11*
X1343000Y1029001D03*
X1333500Y1029001D03*
X1324000Y1029001D03*
X1324000Y1002999D03*
X1343000Y1002999D03*
D10*
X1325800Y1057148D03*
X1315800Y1057148D03*
X1277700Y1105154D03*
X1287700Y1105154D03*
D12*
X1265990Y968690D02*
X1265990Y961710D01*
X1259010Y961710D01*
X1259010Y968690D01*
X1265990Y968690D01*
X1265990Y966510D02*
X1259010Y966510D01*
X1283530Y968690D02*
X1283530Y961710D01*
X1276550Y961710D01*
X1276550Y968690D01*
X1283530Y968690D01*
X1283530Y966510D02*
X1276550Y966510D01*
D10*
X1310560Y965200D03*
X1300560Y965200D03*
D13*
X1325000Y990600D03*
X1342000Y990600D03*
D14*
X1309878Y998610D03*
X1309878Y1015610D03*
D10*
X1201500Y1179830D03*
X1211500Y1179830D03*
X1215564Y1143508D03*
X1205564Y1143508D03*
D15*
X1215700Y1154280D03*
X1197300Y1160780D03*
X1197300Y1167280D03*
X1197300Y1154280D03*
X1215700Y1160780D03*
X1215700Y1167280D03*
D16*
X1382950Y1140400D03*
X1382950Y1196400D03*
D17*
X1346200Y1153400D03*
X1346200Y1163400D03*
X1346200Y1173400D03*
X1346200Y1183400D03*
D10*
X1214120Y1109900D03*
X1214120Y1099900D03*
X1301750Y1028018D03*
X1301750Y1038018D03*
D12*
X1265990Y949640D02*
X1265990Y942660D01*
X1259010Y942660D01*
X1259010Y949640D01*
X1265990Y949640D01*
X1265990Y947460D02*
X1259010Y947460D01*
X1283530Y949640D02*
X1283530Y942660D01*
X1276550Y942660D01*
X1276550Y949640D01*
X1283530Y949640D01*
X1283530Y947460D02*
X1276550Y947460D01*
D10*
X1313100Y946150D03*
X1303100Y946150D03*
X1252300Y1028700D03*
X1262300Y1028700D03*
D18*
X1384300Y698500D03*
X1174750Y1224280D03*
D19*
X1371600Y1231900D03*
X1193800Y1231900D03*
D20*
X1252400Y1058290D03*
X1252400Y1042290D03*
X1211400Y1042290D03*
X1211400Y1058290D03*
X1252400Y1013840D03*
X1252400Y997840D03*
X1211400Y997840D03*
X1211400Y1013840D03*
D21*
X1272700Y1076300D03*
X1272700Y1057300D03*
X1293700Y1066800D03*
D22*
X1275200Y1198724D03*
X1280200Y1198724D03*
D23*
X1250450Y1198724D03*
X1258200Y1198724D03*
D22*
X1265200Y1198724D03*
X1270200Y1198724D03*
X1290200Y1198724D03*
X1285200Y1198724D03*
D23*
X1314950Y1198724D03*
X1307200Y1198724D03*
D22*
X1300200Y1198724D03*
X1295200Y1198724D03*
D24*
X1311600Y1209774D03*
X1253800Y1209774D03*
D10*
X1231900Y1230550D03*
X1231900Y1220550D03*
X1333500Y1230550D03*
X1333500Y1220550D03*
D25*
X1271200Y1092200D03*
X1294200Y1092200D03*
D26*
X1327150Y1185224D03*
X1314450Y1185224D03*
X1301750Y1185224D03*
X1289050Y1185224D03*
X1276350Y1185224D03*
X1263650Y1185224D03*
X1250950Y1185224D03*
X1238250Y1185224D03*
X1238250Y1129224D03*
X1250950Y1129224D03*
X1263650Y1129224D03*
X1276350Y1129224D03*
X1289050Y1129224D03*
X1301750Y1129224D03*
X1314450Y1129224D03*
X1327150Y1129224D03*
D10*
X1343660Y1130126D03*
X1343660Y1140126D03*
X1310306Y985266D03*
X1300306Y985266D03*
D12*
X1265990Y987740D02*
X1265990Y980760D01*
X1259010Y980760D01*
X1259010Y987740D01*
X1265990Y987740D01*
X1265990Y985560D02*
X1259010Y985560D01*
X1283530Y987740D02*
X1283530Y980760D01*
X1276550Y980760D01*
X1276550Y987740D01*
X1283530Y987740D01*
X1283530Y985560D02*
X1276550Y985560D01*
D27*
X1341000Y955300D03*
X1336000Y955300D03*
X1331000Y955300D03*
X1326000Y955300D03*
X1326000Y975300D03*
X1331000Y975300D03*
X1336000Y975300D03*
X1341000Y975300D03*
D28*
X1333500Y965200D03*
D10*
X1310894Y1028018D03*
X1310894Y1038018D03*
X1231980Y1082548D03*
X1241980Y1082548D03*
X1327070Y1104646D03*
X1317070Y1104646D03*
D29*
X1185330Y698748D03*
X1174330Y698748D03*
X1174330Y717048D03*
X1185330Y717048D03*
D10*
X1186434Y679276D03*
X1186434Y689276D03*
D30*
X1324440Y1089500D03*
X1324440Y1069500D03*
D31*
X1376440Y1113500D03*
X1376440Y1045500D03*
D11*
X1292200Y1041701D03*
X1282700Y1041701D03*
X1273200Y1041701D03*
X1273200Y1015699D03*
X1292200Y1015699D03*
D32*
X1257601Y1093368D03*
X1257601Y1102868D03*
X1257601Y1112368D03*
X1231599Y1112368D03*
X1231599Y1093368D03*
D33*
X1365080Y748500D03*
X1365080Y761200D03*
X1365080Y773900D03*
X1365080Y786600D03*
X1365080Y799300D03*
X1365080Y812000D03*
X1365080Y824700D03*
X1365080Y837400D03*
X1365080Y850100D03*
X1365080Y862800D03*
X1365080Y875500D03*
X1365080Y888200D03*
X1365080Y900900D03*
X1365080Y913600D03*
D34*
X1339850Y928500D03*
X1327150Y928500D03*
X1314450Y928500D03*
X1301750Y928500D03*
X1289050Y928500D03*
X1276350Y928500D03*
X1263650Y928500D03*
X1250950Y928500D03*
X1238250Y928500D03*
X1225550Y928500D03*
D33*
X1200320Y913600D03*
X1200320Y900900D03*
X1200320Y888200D03*
X1200320Y875500D03*
X1200320Y862800D03*
X1200320Y850100D03*
X1200320Y837400D03*
X1200320Y824700D03*
X1200320Y812000D03*
X1200320Y799300D03*
X1200320Y786600D03*
X1200320Y773900D03*
X1200320Y761200D03*
X1200320Y748500D03*
D35*
X1298010Y821920D03*
X1279560Y803710D03*
X1297860Y803710D03*
X1316160Y803710D03*
X1316160Y822010D03*
X1279460Y821710D03*
X1279560Y840310D03*
X1297860Y840410D03*
X1316160Y840310D03*
D36*
X1181100Y736600D03*
X1181100Y762000D03*
X1181100Y787400D03*
X1181100Y812800D03*
X1181100Y838200D03*
X1181100Y863600D03*
X1181100Y889000D03*
X1181100Y914400D03*
X1181100Y939800D03*
X1181100Y965200D03*
X1181100Y990600D03*
X1181100Y1016000D03*
X1181100Y1041400D03*
X1181100Y1066800D03*
X1181100Y1092200D03*
X1181100Y1117600D03*
X1384300Y1016000D03*
X1384300Y990600D03*
X1384300Y965200D03*
X1384300Y939800D03*
X1384300Y914400D03*
X1384300Y889000D03*
X1384300Y863600D03*
X1384300Y838200D03*
X1384300Y812800D03*
X1384300Y787400D03*
X1384300Y762000D03*
X1384300Y736600D03*
D10*
X1534240Y1047242D03*
X1544240Y1047242D03*
X1521380Y1003300D03*
X1511380Y1003300D03*
D11*
X1576680Y1029001D03*
X1567180Y1029001D03*
X1557680Y1029001D03*
X1557680Y1002999D03*
X1576680Y1002999D03*
D10*
X1559480Y1057148D03*
X1549480Y1057148D03*
X1511380Y1105154D03*
X1521380Y1105154D03*
D12*
X1499670Y968690D02*
X1499670Y961710D01*
X1492690Y961710D01*
X1492690Y968690D01*
X1499670Y968690D01*
X1499670Y966510D02*
X1492690Y966510D01*
X1517210Y968690D02*
X1517210Y961710D01*
X1510230Y961710D01*
X1510230Y968690D01*
X1517210Y968690D01*
X1517210Y966510D02*
X1510230Y966510D01*
D10*
X1544240Y965200D03*
X1534240Y965200D03*
D13*
X1558680Y990600D03*
X1575680Y990600D03*
D14*
X1543558Y998610D03*
X1543558Y1015610D03*
D10*
X1435180Y1179830D03*
X1445180Y1179830D03*
X1449244Y1143508D03*
X1439244Y1143508D03*
D15*
X1449380Y1154280D03*
X1430980Y1160780D03*
X1430980Y1167280D03*
X1430980Y1154280D03*
X1449380Y1160780D03*
X1449380Y1167280D03*
D16*
X1616630Y1140400D03*
X1616630Y1196400D03*
D17*
X1579880Y1153400D03*
X1579880Y1163400D03*
X1579880Y1173400D03*
X1579880Y1183400D03*
D10*
X1447800Y1109900D03*
X1447800Y1099900D03*
X1535430Y1028018D03*
X1535430Y1038018D03*
D12*
X1499670Y949640D02*
X1499670Y942660D01*
X1492690Y942660D01*
X1492690Y949640D01*
X1499670Y949640D01*
X1499670Y947460D02*
X1492690Y947460D01*
X1517210Y949640D02*
X1517210Y942660D01*
X1510230Y942660D01*
X1510230Y949640D01*
X1517210Y949640D01*
X1517210Y947460D02*
X1510230Y947460D01*
D10*
X1546780Y946150D03*
X1536780Y946150D03*
X1485980Y1028700D03*
X1495980Y1028700D03*
D18*
X1617980Y698500D03*
X1408430Y1224280D03*
D19*
X1605280Y1231900D03*
X1427480Y1231900D03*
D20*
X1486080Y1058290D03*
X1486080Y1042290D03*
X1445080Y1042290D03*
X1445080Y1058290D03*
X1486080Y1013840D03*
X1486080Y997840D03*
X1445080Y997840D03*
X1445080Y1013840D03*
D21*
X1506380Y1076300D03*
X1506380Y1057300D03*
X1527380Y1066800D03*
D22*
X1508880Y1198724D03*
X1513880Y1198724D03*
D23*
X1484130Y1198724D03*
X1491880Y1198724D03*
D22*
X1498880Y1198724D03*
X1503880Y1198724D03*
X1523880Y1198724D03*
X1518880Y1198724D03*
D23*
X1548630Y1198724D03*
X1540880Y1198724D03*
D22*
X1533880Y1198724D03*
X1528880Y1198724D03*
D24*
X1545280Y1209774D03*
X1487480Y1209774D03*
D10*
X1465580Y1230550D03*
X1465580Y1220550D03*
X1567180Y1230550D03*
X1567180Y1220550D03*
D25*
X1504880Y1092200D03*
X1527880Y1092200D03*
D26*
X1560830Y1185224D03*
X1548130Y1185224D03*
X1535430Y1185224D03*
X1522730Y1185224D03*
X1510030Y1185224D03*
X1497330Y1185224D03*
X1484630Y1185224D03*
X1471930Y1185224D03*
X1471930Y1129224D03*
X1484630Y1129224D03*
X1497330Y1129224D03*
X1510030Y1129224D03*
X1522730Y1129224D03*
X1535430Y1129224D03*
X1548130Y1129224D03*
X1560830Y1129224D03*
D10*
X1577340Y1130126D03*
X1577340Y1140126D03*
X1543986Y985266D03*
X1533986Y985266D03*
D12*
X1499670Y987740D02*
X1499670Y980760D01*
X1492690Y980760D01*
X1492690Y987740D01*
X1499670Y987740D01*
X1499670Y985560D02*
X1492690Y985560D01*
X1517210Y987740D02*
X1517210Y980760D01*
X1510230Y980760D01*
X1510230Y987740D01*
X1517210Y987740D01*
X1517210Y985560D02*
X1510230Y985560D01*
D27*
X1574680Y955300D03*
X1569680Y955300D03*
X1564680Y955300D03*
X1559680Y955300D03*
X1559680Y975300D03*
X1564680Y975300D03*
X1569680Y975300D03*
X1574680Y975300D03*
D28*
X1567180Y965200D03*
D10*
X1544574Y1028018D03*
X1544574Y1038018D03*
X1465660Y1082548D03*
X1475660Y1082548D03*
X1560750Y1104646D03*
X1550750Y1104646D03*
D29*
X1419010Y698748D03*
X1408010Y698748D03*
X1408010Y717048D03*
X1419010Y717048D03*
D10*
X1420114Y679276D03*
X1420114Y689276D03*
D30*
X1558120Y1089500D03*
X1558120Y1069500D03*
D31*
X1610120Y1113500D03*
X1610120Y1045500D03*
D11*
X1525880Y1041701D03*
X1516380Y1041701D03*
X1506880Y1041701D03*
X1506880Y1015699D03*
X1525880Y1015699D03*
D32*
X1491281Y1093368D03*
X1491281Y1102868D03*
X1491281Y1112368D03*
X1465279Y1112368D03*
X1465279Y1093368D03*
D33*
X1598760Y748500D03*
X1598760Y761200D03*
X1598760Y773900D03*
X1598760Y786600D03*
X1598760Y799300D03*
X1598760Y812000D03*
X1598760Y824700D03*
X1598760Y837400D03*
X1598760Y850100D03*
X1598760Y862800D03*
X1598760Y875500D03*
X1598760Y888200D03*
X1598760Y900900D03*
X1598760Y913600D03*
D34*
X1573530Y928500D03*
X1560830Y928500D03*
X1548130Y928500D03*
X1535430Y928500D03*
X1522730Y928500D03*
X1510030Y928500D03*
X1497330Y928500D03*
X1484630Y928500D03*
X1471930Y928500D03*
X1459230Y928500D03*
D33*
X1434000Y913600D03*
X1434000Y900900D03*
X1434000Y888200D03*
X1434000Y875500D03*
X1434000Y862800D03*
X1434000Y850100D03*
X1434000Y837400D03*
X1434000Y824700D03*
X1434000Y812000D03*
X1434000Y799300D03*
X1434000Y786600D03*
X1434000Y773900D03*
X1434000Y761200D03*
X1434000Y748500D03*
D35*
X1531690Y821920D03*
X1513240Y803710D03*
X1531540Y803710D03*
X1549840Y803710D03*
X1549840Y822010D03*
X1513140Y821710D03*
X1513240Y840310D03*
X1531540Y840410D03*
X1549840Y840310D03*
D36*
X1414780Y736600D03*
X1414780Y762000D03*
X1414780Y787400D03*
X1414780Y812800D03*
X1414780Y838200D03*
X1414780Y863600D03*
X1414780Y889000D03*
X1414780Y914400D03*
X1414780Y939800D03*
X1414780Y965200D03*
X1414780Y990600D03*
X1414780Y1016000D03*
X1414780Y1041400D03*
X1414780Y1066800D03*
X1414780Y1092200D03*
X1414780Y1117600D03*
X1617980Y1016000D03*
X1617980Y990600D03*
X1617980Y965200D03*
X1617980Y939800D03*
X1617980Y914400D03*
X1617980Y889000D03*
X1617980Y863600D03*
X1617980Y838200D03*
X1617980Y812800D03*
X1617980Y787400D03*
X1617980Y762000D03*
X1617980Y736600D03*
D37*
X-26238Y1193800D03*
X1656918Y1193800D03*
D38*
X-35293Y63500D02*
X-35290Y63722D01*
X-35282Y63944D01*
X-35268Y64166D01*
X-35249Y64388D01*
X-35225Y64608D01*
X-35195Y64829D01*
X-35160Y65048D01*
X-35119Y65267D01*
X-35073Y65484D01*
X-35022Y65700D01*
X-34965Y65915D01*
X-34903Y66129D01*
X-34836Y66340D01*
X-34764Y66551D01*
X-34686Y66759D01*
X-34604Y66965D01*
X-34516Y67169D01*
X-34424Y67372D01*
X-34326Y67571D01*
X-34224Y67768D01*
X-34117Y67963D01*
X-34005Y68155D01*
X-33888Y68344D01*
X-33767Y68531D01*
X-33641Y68714D01*
X-33511Y68894D01*
X-33376Y69071D01*
X-33238Y69244D01*
X-33095Y69414D01*
X-32947Y69581D01*
X-32796Y69744D01*
X-32641Y69903D01*
X-32482Y70058D01*
X-32319Y70209D01*
X-32152Y70357D01*
X-31982Y70500D01*
X-31809Y70638D01*
X-31632Y70773D01*
X-31452Y70903D01*
X-31269Y71029D01*
X-31082Y71150D01*
X-30893Y71267D01*
X-30701Y71379D01*
X-30506Y71486D01*
X-30309Y71588D01*
X-30110Y71686D01*
X-29907Y71778D01*
X-29703Y71866D01*
X-29497Y71948D01*
X-29289Y72026D01*
X-29078Y72098D01*
X-28867Y72165D01*
X-28653Y72227D01*
X-28438Y72284D01*
X-28222Y72335D01*
X-28005Y72381D01*
X-27786Y72422D01*
X-27567Y72457D01*
X-27346Y72487D01*
X-27126Y72511D01*
X-26904Y72530D01*
X-26682Y72544D01*
X-26460Y72552D01*
X-26238Y72555D01*
X-26016Y72552D01*
X-25794Y72544D01*
X-25572Y72530D01*
X-25350Y72511D01*
X-25130Y72487D01*
X-24909Y72457D01*
X-24690Y72422D01*
X-24471Y72381D01*
X-24254Y72335D01*
X-24038Y72284D01*
X-23823Y72227D01*
X-23609Y72165D01*
X-23398Y72098D01*
X-23187Y72026D01*
X-22979Y71948D01*
X-22773Y71866D01*
X-22569Y71778D01*
X-22366Y71686D01*
X-22167Y71588D01*
X-21970Y71486D01*
X-21775Y71379D01*
X-21583Y71267D01*
X-21394Y71150D01*
X-21207Y71029D01*
X-21024Y70903D01*
X-20844Y70773D01*
X-20667Y70638D01*
X-20494Y70500D01*
X-20324Y70357D01*
X-20157Y70209D01*
X-19994Y70058D01*
X-19835Y69903D01*
X-19680Y69744D01*
X-19529Y69581D01*
X-19381Y69414D01*
X-19238Y69244D01*
X-19100Y69071D01*
X-18965Y68894D01*
X-18835Y68714D01*
X-18709Y68531D01*
X-18588Y68344D01*
X-18471Y68155D01*
X-18359Y67963D01*
X-18252Y67768D01*
X-18150Y67571D01*
X-18052Y67372D01*
X-17960Y67169D01*
X-17872Y66965D01*
X-17790Y66759D01*
X-17712Y66551D01*
X-17640Y66340D01*
X-17573Y66129D01*
X-17511Y65915D01*
X-17454Y65700D01*
X-17403Y65484D01*
X-17357Y65267D01*
X-17316Y65048D01*
X-17281Y64829D01*
X-17251Y64608D01*
X-17227Y64388D01*
X-17208Y64166D01*
X-17194Y63944D01*
X-17186Y63722D01*
X-17183Y63500D01*
X-17186Y63278D01*
X-17194Y63056D01*
X-17208Y62834D01*
X-17227Y62612D01*
X-17251Y62392D01*
X-17281Y62171D01*
X-17316Y61952D01*
X-17357Y61733D01*
X-17403Y61516D01*
X-17454Y61300D01*
X-17511Y61085D01*
X-17573Y60871D01*
X-17640Y60660D01*
X-17712Y60449D01*
X-17790Y60241D01*
X-17872Y60035D01*
X-17960Y59831D01*
X-18052Y59628D01*
X-18150Y59429D01*
X-18252Y59232D01*
X-18359Y59037D01*
X-18471Y58845D01*
X-18588Y58656D01*
X-18709Y58469D01*
X-18835Y58286D01*
X-18965Y58106D01*
X-19100Y57929D01*
X-19238Y57756D01*
X-19381Y57586D01*
X-19529Y57419D01*
X-19680Y57256D01*
X-19835Y57097D01*
X-19994Y56942D01*
X-20157Y56791D01*
X-20324Y56643D01*
X-20494Y56500D01*
X-20667Y56362D01*
X-20844Y56227D01*
X-21024Y56097D01*
X-21207Y55971D01*
X-21394Y55850D01*
X-21583Y55733D01*
X-21775Y55621D01*
X-21970Y55514D01*
X-22167Y55412D01*
X-22366Y55314D01*
X-22569Y55222D01*
X-22773Y55134D01*
X-22979Y55052D01*
X-23187Y54974D01*
X-23398Y54902D01*
X-23609Y54835D01*
X-23823Y54773D01*
X-24038Y54716D01*
X-24254Y54665D01*
X-24471Y54619D01*
X-24690Y54578D01*
X-24909Y54543D01*
X-25130Y54513D01*
X-25350Y54489D01*
X-25572Y54470D01*
X-25794Y54456D01*
X-26016Y54448D01*
X-26238Y54445D01*
X-26460Y54448D01*
X-26682Y54456D01*
X-26904Y54470D01*
X-27126Y54489D01*
X-27346Y54513D01*
X-27567Y54543D01*
X-27786Y54578D01*
X-28005Y54619D01*
X-28222Y54665D01*
X-28438Y54716D01*
X-28653Y54773D01*
X-28867Y54835D01*
X-29078Y54902D01*
X-29289Y54974D01*
X-29497Y55052D01*
X-29703Y55134D01*
X-29907Y55222D01*
X-30110Y55314D01*
X-30309Y55412D01*
X-30506Y55514D01*
X-30701Y55621D01*
X-30893Y55733D01*
X-31082Y55850D01*
X-31269Y55971D01*
X-31452Y56097D01*
X-31632Y56227D01*
X-31809Y56362D01*
X-31982Y56500D01*
X-32152Y56643D01*
X-32319Y56791D01*
X-32482Y56942D01*
X-32641Y57097D01*
X-32796Y57256D01*
X-32947Y57419D01*
X-33095Y57586D01*
X-33238Y57756D01*
X-33376Y57929D01*
X-33511Y58106D01*
X-33641Y58286D01*
X-33767Y58469D01*
X-33888Y58656D01*
X-34005Y58845D01*
X-34117Y59037D01*
X-34224Y59232D01*
X-34326Y59429D01*
X-34424Y59628D01*
X-34516Y59831D01*
X-34604Y60035D01*
X-34686Y60241D01*
X-34764Y60449D01*
X-34836Y60660D01*
X-34903Y60871D01*
X-34965Y61085D01*
X-35022Y61300D01*
X-35073Y61516D01*
X-35119Y61733D01*
X-35160Y61952D01*
X-35195Y62171D01*
X-35225Y62392D01*
X-35249Y62612D01*
X-35268Y62834D01*
X-35282Y63056D01*
X-35290Y63278D01*
X-35293Y63500D01*
D39*
X-26238Y63500D03*
M02*
